{
  "header": {
    "PPQ": 192,
    "bpm": 216.00060480169344,
    "name": "                                "
  },
  "startTime": 0,
  "duration": 70.83313500000008,
  "tracks": [
    {
      "startTime": 0,
      "duration": 0,
      "length": 0,
      "notes": [],
      "controlChanges": {},
      "id": 0,
      "name": "                                "
    },
    {
      "startTime": 0,
      "duration": 70.83313500000004,
      "length": 198,
      "notes": [
        {
          "name": "D4",
          "midi": 62,
          "time": 0,
          "velocity": 0.3700787401574803,
          "duration": 0.277777
        },
        {
          "name": "B4",
          "midi": 71,
          "time": 0.277777,
          "velocity": 0.3700787401574803,
          "duration": 0.277777
        },
        {
          "name": "A4",
          "midi": 69,
          "time": 0.555554,
          "velocity": 0.3700787401574803,
          "duration": 0.27777700000000005
        },
        {
          "name": "G4",
          "midi": 67,
          "time": 0.833331,
          "velocity": 0.3700787401574803,
          "duration": 0.27777699999999994
        },
        {
          "name": "D4",
          "midi": 62,
          "time": 1.111108,
          "velocity": 0.3700787401574803,
          "duration": 0.833331
        },
        {
          "name": "D4",
          "midi": 62,
          "time": 1.944439,
          "velocity": 0.3700787401574803,
          "duration": 0.1388885000000002
        },
        {
          "name": "D4",
          "midi": 62,
          "time": 2.0833275,
          "velocity": 0.3700787401574803,
          "duration": 0.1388885000000002
        },
        {
          "name": "D4",
          "midi": 62,
          "time": 2.2222160000000004,
          "velocity": 0.3700787401574803,
          "duration": 0.27777699999999994
        },
        {
          "name": "B4",
          "midi": 71,
          "time": 2.4999930000000004,
          "velocity": 0.3700787401574803,
          "duration": 0.27777699999999994
        },
        {
          "name": "A4",
          "midi": 69,
          "time": 2.7777700000000003,
          "velocity": 0.3700787401574803,
          "duration": 0.27777699999999994
        },
        {
          "name": "G4",
          "midi": 67,
          "time": 3.0555470000000002,
          "velocity": 0.3700787401574803,
          "duration": 0.27777699999999994
        },
        {
          "name": "E4",
          "midi": 64,
          "time": 3.333324,
          "velocity": 0.3700787401574803,
          "duration": 1.1111079999999998
        },
        {
          "name": "E4",
          "midi": 64,
          "time": 4.444432,
          "velocity": 0.3700787401574803,
          "duration": 0.2777770000000004
        },
        {
          "name": "C5",
          "midi": 72,
          "time": 4.722209,
          "velocity": 0.3700787401574803,
          "duration": 0.2777770000000004
        },
        {
          "name": "B4",
          "midi": 71,
          "time": 4.999986000000001,
          "velocity": 0.3700787401574803,
          "duration": 0.2777770000000004
        },
        {
          "name": "A4",
          "midi": 69,
          "time": 5.277763000000001,
          "velocity": 0.3700787401574803,
          "duration": 0.2777770000000004
        },
        {
          "name": "F#4",
          "midi": 66,
          "time": 5.5555400000000015,
          "velocity": 0.3700787401574803,
          "duration": 1.1111079999999998
        },
        {
          "name": "D5",
          "midi": 74,
          "time": 6.666648000000001,
          "velocity": 0.3700787401574803,
          "duration": 0.2777770000000004
        },
        {
          "name": "D5",
          "midi": 74,
          "time": 6.944425000000002,
          "velocity": 0.3700787401574803,
          "duration": 0.2777770000000004
        },
        {
          "name": "C5",
          "midi": 72,
          "time": 7.222202000000002,
          "velocity": 0.3700787401574803,
          "duration": 0.2777770000000004
        },
        {
          "name": "A4",
          "midi": 69,
          "time": 7.499979000000002,
          "velocity": 0.3700787401574803,
          "duration": 0.2777770000000004
        },
        {
          "name": "B4",
          "midi": 71,
          "time": 7.777756000000003,
          "velocity": 0.3700787401574803,
          "duration": 1.1111080000000007
        },
        {
          "name": "D4",
          "midi": 62,
          "time": 8.888864000000003,
          "velocity": 0.3700787401574803,
          "duration": 0.2777770000000004
        },
        {
          "name": "B4",
          "midi": 71,
          "time": 9.166641000000004,
          "velocity": 0.3700787401574803,
          "duration": 0.2777770000000004
        },
        {
          "name": "A4",
          "midi": 69,
          "time": 9.444418000000004,
          "velocity": 0.3700787401574803,
          "duration": 0.2777770000000004
        },
        {
          "name": "G4",
          "midi": 67,
          "time": 9.722195000000005,
          "velocity": 0.3700787401574803,
          "duration": 0.2777770000000004
        },
        {
          "name": "D4",
          "midi": 62,
          "time": 9.999972000000005,
          "velocity": 0.3700787401574803,
          "duration": 1.1111079999999998
        },
        {
          "name": "D4",
          "midi": 62,
          "time": 11.111080000000005,
          "velocity": 0.3700787401574803,
          "duration": 0.2777770000000004
        },
        {
          "name": "B4",
          "midi": 71,
          "time": 11.388857000000005,
          "velocity": 0.3700787401574803,
          "duration": 0.2777770000000004
        },
        {
          "name": "A4",
          "midi": 69,
          "time": 11.666634000000005,
          "velocity": 0.3700787401574803,
          "duration": 0.2777770000000004
        },
        {
          "name": "G4",
          "midi": 67,
          "time": 11.944411000000006,
          "velocity": 0.3700787401574803,
          "duration": 0.2777770000000004
        },
        {
          "name": "E4",
          "midi": 64,
          "time": 12.222188000000006,
          "velocity": 0.3700787401574803,
          "duration": 0.8333309999999994
        },
        {
          "name": "E4",
          "midi": 64,
          "time": 13.055519000000006,
          "velocity": 0.3700787401574803,
          "duration": 0.2777770000000004
        },
        {
          "name": "E4",
          "midi": 64,
          "time": 13.333296000000006,
          "velocity": 0.3700787401574803,
          "duration": 0.2777770000000004
        },
        {
          "name": "C5",
          "midi": 72,
          "time": 13.611073000000006,
          "velocity": 0.3700787401574803,
          "duration": 0.2777770000000004
        },
        {
          "name": "B4",
          "midi": 71,
          "time": 13.888850000000007,
          "velocity": 0.3700787401574803,
          "duration": 0.2777770000000004
        },
        {
          "name": "A4",
          "midi": 69,
          "time": 14.166627000000007,
          "velocity": 0.3700787401574803,
          "duration": 0.2777770000000004
        },
        {
          "name": "D5",
          "midi": 74,
          "time": 14.444404000000008,
          "velocity": 0.3700787401574803,
          "duration": 0.2777770000000004
        },
        {
          "name": "D5",
          "midi": 74,
          "time": 14.722181000000008,
          "velocity": 0.3700787401574803,
          "duration": 0.2777770000000004
        },
        {
          "name": "D5",
          "midi": 74,
          "time": 14.999958000000008,
          "velocity": 0.3700787401574803,
          "duration": 0.2777770000000004
        },
        {
          "name": "D5",
          "midi": 74,
          "time": 15.277735000000009,
          "velocity": 0.3700787401574803,
          "duration": 0.2777770000000004
        },
        {
          "name": "E5",
          "midi": 76,
          "time": 15.555512000000009,
          "velocity": 0.3700787401574803,
          "duration": 0.2777770000000004
        },
        {
          "name": "D5",
          "midi": 74,
          "time": 15.83328900000001,
          "velocity": 0.3700787401574803,
          "duration": 0.2777769999999986
        },
        {
          "name": "C5",
          "midi": 72,
          "time": 16.111066000000008,
          "velocity": 0.3700787401574803,
          "duration": 0.2777770000000004
        },
        {
          "name": "A4",
          "midi": 69,
          "time": 16.38884300000001,
          "velocity": 0.3700787401574803,
          "duration": 0.2777770000000004
        },
        {
          "name": "G4",
          "midi": 67,
          "time": 16.66662000000001,
          "velocity": 0.3700787401574803,
          "duration": 0.8333310000000012
        },
        {
          "name": "B4",
          "midi": 71,
          "time": 17.77772800000001,
          "velocity": 0.3700787401574803,
          "duration": 0.2777770000000004
        },
        {
          "name": "B4",
          "midi": 71,
          "time": 18.05550500000001,
          "velocity": 0.3700787401574803,
          "duration": 0.2777770000000004
        },
        {
          "name": "B4",
          "midi": 71,
          "time": 18.33328200000001,
          "velocity": 0.3700787401574803,
          "duration": 0.5555540000000008
        },
        {
          "name": "B4",
          "midi": 71,
          "time": 18.888836000000012,
          "velocity": 0.3700787401574803,
          "duration": 0.2777770000000004
        },
        {
          "name": "B4",
          "midi": 71,
          "time": 19.166613000000012,
          "velocity": 0.3700787401574803,
          "duration": 0.2777770000000004
        },
        {
          "name": "B4",
          "midi": 71,
          "time": 19.444390000000013,
          "velocity": 0.3700787401574803,
          "duration": 0.5555540000000008
        },
        {
          "name": "B4",
          "midi": 71,
          "time": 19.999944000000013,
          "velocity": 0.3700787401574803,
          "duration": 0.2777770000000004
        },
        {
          "name": "D5",
          "midi": 74,
          "time": 20.277721000000014,
          "velocity": 0.3700787401574803,
          "duration": 0.2777770000000004
        },
        {
          "name": "G4",
          "midi": 67,
          "time": 20.555498000000014,
          "velocity": 0.3700787401574803,
          "duration": 0.4166655000000006
        },
        {
          "name": "A4",
          "midi": 69,
          "time": 20.972163500000015,
          "velocity": 0.3700787401574803,
          "duration": 0.1388885000000002
        },
        {
          "name": "B4",
          "midi": 71,
          "time": 21.111052000000015,
          "velocity": 0.3700787401574803,
          "duration": 1.1111080000000015
        },
        {
          "name": "C5",
          "midi": 72,
          "time": 22.222160000000017,
          "velocity": 0.3700787401574803,
          "duration": 0.2777770000000004
        },
        {
          "name": "C5",
          "midi": 72,
          "time": 22.499937000000017,
          "velocity": 0.3700787401574803,
          "duration": 0.2777770000000004
        },
        {
          "name": "C5",
          "midi": 72,
          "time": 22.777714000000017,
          "velocity": 0.3700787401574803,
          "duration": 0.4166655000000006
        },
        {
          "name": "C5",
          "midi": 72,
          "time": 23.194379500000018,
          "velocity": 0.3700787401574803,
          "duration": 0.1388885000000002
        },
        {
          "name": "C5",
          "midi": 72,
          "time": 23.333268000000018,
          "velocity": 0.3700787401574803,
          "duration": 0.2777770000000004
        },
        {
          "name": "B4",
          "midi": 71,
          "time": 23.61104500000002,
          "velocity": 0.3700787401574803,
          "duration": 0.2777770000000004
        },
        {
          "name": "B4",
          "midi": 71,
          "time": 23.88882200000002,
          "velocity": 0.3700787401574803,
          "duration": 0.2777770000000004
        },
        {
          "name": "B4",
          "midi": 71,
          "time": 24.16659900000002,
          "velocity": 0.3700787401574803,
          "duration": 0.1388885000000002
        },
        {
          "name": "B4",
          "midi": 71,
          "time": 24.30548750000002,
          "velocity": 0.3700787401574803,
          "duration": 0.1388885000000002
        },
        {
          "name": "B4",
          "midi": 71,
          "time": 24.44437600000002,
          "velocity": 0.3700787401574803,
          "duration": 0.2777770000000004
        },
        {
          "name": "A4",
          "midi": 69,
          "time": 24.72215300000002,
          "velocity": 0.3700787401574803,
          "duration": 0.2777770000000004
        },
        {
          "name": "A4",
          "midi": 69,
          "time": 24.99993000000002,
          "velocity": 0.3700787401574803,
          "duration": 0.2777770000000004
        },
        {
          "name": "B4",
          "midi": 71,
          "time": 25.27770700000002,
          "velocity": 0.3700787401574803,
          "duration": 0.2777770000000004
        },
        {
          "name": "A4",
          "midi": 69,
          "time": 25.55548400000002,
          "velocity": 0.3700787401574803,
          "duration": 0.5555540000000008
        },
        {
          "name": "D5",
          "midi": 74,
          "time": 26.111038000000022,
          "velocity": 0.3700787401574803,
          "duration": 0.5555540000000008
        },
        {
          "name": "B4",
          "midi": 71,
          "time": 26.666592000000023,
          "velocity": 0.3700787401574803,
          "duration": 0.2777770000000004
        },
        {
          "name": "B4",
          "midi": 71,
          "time": 26.944369000000023,
          "velocity": 0.3700787401574803,
          "duration": 0.2777770000000004
        },
        {
          "name": "B4",
          "midi": 71,
          "time": 27.222146000000023,
          "velocity": 0.3700787401574803,
          "duration": 0.5555540000000008
        },
        {
          "name": "B4",
          "midi": 71,
          "time": 27.777700000000024,
          "velocity": 0.3700787401574803,
          "duration": 0.2777770000000004
        },
        {
          "name": "B4",
          "midi": 71,
          "time": 28.055477000000025,
          "velocity": 0.3700787401574803,
          "duration": 0.2777770000000004
        },
        {
          "name": "B4",
          "midi": 71,
          "time": 28.333254000000025,
          "velocity": 0.3700787401574803,
          "duration": 0.5555540000000008
        },
        {
          "name": "B4",
          "midi": 71,
          "time": 28.888808000000026,
          "velocity": 0.3700787401574803,
          "duration": 0.2777770000000004
        },
        {
          "name": "D5",
          "midi": 74,
          "time": 29.166585000000026,
          "velocity": 0.3700787401574803,
          "duration": 0.2777770000000004
        },
        {
          "name": "G4",
          "midi": 67,
          "time": 29.444362000000027,
          "velocity": 0.3700787401574803,
          "duration": 0.4166655000000006
        },
        {
          "name": "A4",
          "midi": 69,
          "time": 29.861027500000027,
          "velocity": 0.3700787401574803,
          "duration": 0.1388885000000002
        },
        {
          "name": "B4",
          "midi": 71,
          "time": 29.999916000000027,
          "velocity": 0.3700787401574803,
          "duration": 1.1111080000000015
        },
        {
          "name": "C5",
          "midi": 72,
          "time": 31.11102400000003,
          "velocity": 0.3700787401574803,
          "duration": 0.2777770000000004
        },
        {
          "name": "C5",
          "midi": 72,
          "time": 31.38880100000003,
          "velocity": 0.3700787401574803,
          "duration": 0.2777770000000004
        },
        {
          "name": "C5",
          "midi": 72,
          "time": 31.66657800000003,
          "velocity": 0.3700787401574803,
          "duration": 0.4166655000000006
        },
        {
          "name": "C5",
          "midi": 72,
          "time": 32.08324350000003,
          "velocity": 0.3700787401574803,
          "duration": 0.1388885000000002
        },
        {
          "name": "C5",
          "midi": 72,
          "time": 32.22213200000003,
          "velocity": 0.3700787401574803,
          "duration": 0.2777770000000004
        },
        {
          "name": "B4",
          "midi": 71,
          "time": 32.49990900000003,
          "velocity": 0.3700787401574803,
          "duration": 0.2777770000000004
        },
        {
          "name": "B4",
          "midi": 71,
          "time": 32.77768600000003,
          "velocity": 0.3700787401574803,
          "duration": 0.2777770000000004
        },
        {
          "name": "B4",
          "midi": 71,
          "time": 33.05546300000003,
          "velocity": 0.3700787401574803,
          "duration": 0.1388885000000002
        },
        {
          "name": "B4",
          "midi": 71,
          "time": 33.19435150000003,
          "velocity": 0.3700787401574803,
          "duration": 0.1388885000000002
        },
        {
          "name": "D5",
          "midi": 74,
          "time": 33.33324000000003,
          "velocity": 0.3700787401574803,
          "duration": 0.2777770000000004
        },
        {
          "name": "D5",
          "midi": 74,
          "time": 33.61101700000003,
          "velocity": 0.3700787401574803,
          "duration": 0.2777770000000004
        },
        {
          "name": "C5",
          "midi": 72,
          "time": 33.88879400000003,
          "velocity": 0.3700787401574803,
          "duration": 0.2777770000000004
        },
        {
          "name": "A4",
          "midi": 69,
          "time": 34.16657100000003,
          "velocity": 0.3700787401574803,
          "duration": 0.2777770000000004
        },
        {
          "name": "G4",
          "midi": 67,
          "time": 34.44434800000003,
          "velocity": 0.3700787401574803,
          "duration": 0.2777770000000004
        },
        {
          "name": "D5",
          "midi": 74,
          "time": 34.722125000000034,
          "velocity": 0.3700787401574803,
          "duration": 0.2777770000000004
        },
        {
          "name": "G5",
          "midi": 79,
          "time": 34.999902000000034,
          "velocity": 0.3700787401574803,
          "duration": 0.2777770000000004
        },
        {
          "name": "D4",
          "midi": 62,
          "time": 35.555456000000035,
          "velocity": 0.3700787401574803,
          "duration": 0.2777770000000004
        },
        {
          "name": "B4",
          "midi": 71,
          "time": 35.833233000000035,
          "velocity": 0.3700787401574803,
          "duration": 0.2777770000000004
        },
        {
          "name": "A4",
          "midi": 69,
          "time": 36.111010000000036,
          "velocity": 0.3700787401574803,
          "duration": 0.2777770000000004
        },
        {
          "name": "G4",
          "midi": 67,
          "time": 36.388787000000036,
          "velocity": 0.3700787401574803,
          "duration": 0.2777770000000004
        },
        {
          "name": "D4",
          "midi": 62,
          "time": 36.66656400000004,
          "velocity": 0.3700787401574803,
          "duration": 0.8333310000000012
        },
        {
          "name": "D4",
          "midi": 62,
          "time": 37.49989500000004,
          "velocity": 0.3700787401574803,
          "duration": 0.1388885000000002
        },
        {
          "name": "D4",
          "midi": 62,
          "time": 37.63878350000004,
          "velocity": 0.3700787401574803,
          "duration": 0.1388885000000002
        },
        {
          "name": "D4",
          "midi": 62,
          "time": 37.77767200000004,
          "velocity": 0.3700787401574803,
          "duration": 0.2777770000000004
        },
        {
          "name": "B4",
          "midi": 71,
          "time": 38.05544900000004,
          "velocity": 0.3700787401574803,
          "duration": 0.2777770000000004
        },
        {
          "name": "A4",
          "midi": 69,
          "time": 38.33322600000004,
          "velocity": 0.3700787401574803,
          "duration": 0.2777770000000004
        },
        {
          "name": "G4",
          "midi": 67,
          "time": 38.61100300000004,
          "velocity": 0.3700787401574803,
          "duration": 0.2777770000000004
        },
        {
          "name": "E4",
          "midi": 64,
          "time": 38.88878000000004,
          "velocity": 0.3700787401574803,
          "duration": 1.1111080000000015
        },
        {
          "name": "E4",
          "midi": 64,
          "time": 39.99988800000004,
          "velocity": 0.3700787401574803,
          "duration": 0.2777770000000004
        },
        {
          "name": "C5",
          "midi": 72,
          "time": 40.27766500000004,
          "velocity": 0.3700787401574803,
          "duration": 0.2777770000000004
        },
        {
          "name": "B4",
          "midi": 71,
          "time": 40.55544200000004,
          "velocity": 0.3700787401574803,
          "duration": 0.2777770000000004
        },
        {
          "name": "A4",
          "midi": 69,
          "time": 40.83321900000004,
          "velocity": 0.3700787401574803,
          "duration": 0.2777770000000004
        },
        {
          "name": "F#4",
          "midi": 66,
          "time": 41.11099600000004,
          "velocity": 0.3700787401574803,
          "duration": 1.1111080000000015
        },
        {
          "name": "D5",
          "midi": 74,
          "time": 42.222104000000044,
          "velocity": 0.3700787401574803,
          "duration": 0.2777770000000004
        },
        {
          "name": "D5",
          "midi": 74,
          "time": 42.499881000000045,
          "velocity": 0.3700787401574803,
          "duration": 0.2777770000000004
        },
        {
          "name": "C5",
          "midi": 72,
          "time": 42.777658000000045,
          "velocity": 0.3700787401574803,
          "duration": 0.2777770000000004
        },
        {
          "name": "A4",
          "midi": 69,
          "time": 43.055435000000045,
          "velocity": 0.3700787401574803,
          "duration": 0.2777770000000004
        },
        {
          "name": "B4",
          "midi": 71,
          "time": 43.333212000000046,
          "velocity": 0.3700787401574803,
          "duration": 1.1111080000000015
        },
        {
          "name": "D4",
          "midi": 62,
          "time": 44.44432000000005,
          "velocity": 0.3700787401574803,
          "duration": 0.2777770000000004
        },
        {
          "name": "B4",
          "midi": 71,
          "time": 44.72209700000005,
          "velocity": 0.3700787401574803,
          "duration": 0.2777770000000004
        },
        {
          "name": "A4",
          "midi": 69,
          "time": 44.99987400000005,
          "velocity": 0.3700787401574803,
          "duration": 0.2777770000000004
        },
        {
          "name": "G4",
          "midi": 67,
          "time": 45.27765100000005,
          "velocity": 0.3700787401574803,
          "duration": 0.2777770000000004
        },
        {
          "name": "D4",
          "midi": 62,
          "time": 45.55542800000005,
          "velocity": 0.3700787401574803,
          "duration": 1.1111080000000015
        },
        {
          "name": "D4",
          "midi": 62,
          "time": 46.66653600000005,
          "velocity": 0.3700787401574803,
          "duration": 0.2777770000000004
        },
        {
          "name": "B4",
          "midi": 71,
          "time": 46.94431300000005,
          "velocity": 0.3700787401574803,
          "duration": 0.2777770000000004
        },
        {
          "name": "A4",
          "midi": 69,
          "time": 47.22209000000005,
          "velocity": 0.3700787401574803,
          "duration": 0.2777770000000004
        },
        {
          "name": "G4",
          "midi": 67,
          "time": 47.49986700000005,
          "velocity": 0.3700787401574803,
          "duration": 0.2777770000000004
        },
        {
          "name": "E4",
          "midi": 64,
          "time": 47.77764400000005,
          "velocity": 0.3700787401574803,
          "duration": 0.8333310000000012
        },
        {
          "name": "E4",
          "midi": 64,
          "time": 48.61097500000005,
          "velocity": 0.3700787401574803,
          "duration": 0.2777770000000004
        },
        {
          "name": "E4",
          "midi": 64,
          "time": 48.88875200000005,
          "velocity": 0.3700787401574803,
          "duration": 0.2777770000000004
        },
        {
          "name": "C5",
          "midi": 72,
          "time": 49.166529000000054,
          "velocity": 0.3700787401574803,
          "duration": 0.2777770000000004
        },
        {
          "name": "B4",
          "midi": 71,
          "time": 49.444306000000054,
          "velocity": 0.3700787401574803,
          "duration": 0.2777770000000004
        },
        {
          "name": "A4",
          "midi": 69,
          "time": 49.722083000000055,
          "velocity": 0.3700787401574803,
          "duration": 0.2777770000000004
        },
        {
          "name": "D5",
          "midi": 74,
          "time": 49.999860000000055,
          "velocity": 0.3700787401574803,
          "duration": 0.2777770000000004
        },
        {
          "name": "D5",
          "midi": 74,
          "time": 50.277637000000055,
          "velocity": 0.3700787401574803,
          "duration": 0.2777770000000004
        },
        {
          "name": "D5",
          "midi": 74,
          "time": 50.555414000000056,
          "velocity": 0.3700787401574803,
          "duration": 0.2777770000000004
        },
        {
          "name": "D5",
          "midi": 74,
          "time": 50.833191000000056,
          "velocity": 0.3700787401574803,
          "duration": 0.2777770000000004
        },
        {
          "name": "E5",
          "midi": 76,
          "time": 51.11096800000006,
          "velocity": 0.3700787401574803,
          "duration": 0.2777770000000004
        },
        {
          "name": "D5",
          "midi": 74,
          "time": 51.38874500000006,
          "velocity": 0.3700787401574803,
          "duration": 0.2777770000000004
        },
        {
          "name": "C5",
          "midi": 72,
          "time": 51.66652200000006,
          "velocity": 0.3700787401574803,
          "duration": 0.2777770000000004
        },
        {
          "name": "A4",
          "midi": 69,
          "time": 51.94429900000006,
          "velocity": 0.3700787401574803,
          "duration": 0.2777770000000004
        },
        {
          "name": "G4",
          "midi": 67,
          "time": 52.22207600000006,
          "velocity": 0.3700787401574803,
          "duration": 0.8333310000000012
        },
        {
          "name": "B4",
          "midi": 71,
          "time": 53.33318400000006,
          "velocity": 0.3700787401574803,
          "duration": 0.2777770000000004
        },
        {
          "name": "B4",
          "midi": 71,
          "time": 53.61096100000006,
          "velocity": 0.3700787401574803,
          "duration": 0.2777770000000004
        },
        {
          "name": "B4",
          "midi": 71,
          "time": 53.88873800000006,
          "velocity": 0.3700787401574803,
          "duration": 0.5555540000000008
        },
        {
          "name": "B4",
          "midi": 71,
          "time": 54.44429200000006,
          "velocity": 0.3700787401574803,
          "duration": 0.2777770000000004
        },
        {
          "name": "B4",
          "midi": 71,
          "time": 54.72206900000006,
          "velocity": 0.3700787401574803,
          "duration": 0.2777770000000004
        },
        {
          "name": "B4",
          "midi": 71,
          "time": 54.99984600000006,
          "velocity": 0.3700787401574803,
          "duration": 0.5555540000000008
        },
        {
          "name": "B4",
          "midi": 71,
          "time": 55.55540000000006,
          "velocity": 0.3700787401574803,
          "duration": 0.2777770000000004
        },
        {
          "name": "D5",
          "midi": 74,
          "time": 55.83317700000006,
          "velocity": 0.3700787401574803,
          "duration": 0.2777770000000004
        },
        {
          "name": "G4",
          "midi": 67,
          "time": 56.11095400000006,
          "velocity": 0.3700787401574803,
          "duration": 0.4166655000000006
        },
        {
          "name": "A4",
          "midi": 69,
          "time": 56.527619500000064,
          "velocity": 0.3700787401574803,
          "duration": 0.1388885000000002
        },
        {
          "name": "B4",
          "midi": 71,
          "time": 56.666508000000064,
          "velocity": 0.3700787401574803,
          "duration": 1.1111080000000015
        },
        {
          "name": "C5",
          "midi": 72,
          "time": 57.777616000000066,
          "velocity": 0.3700787401574803,
          "duration": 0.2777770000000004
        },
        {
          "name": "C5",
          "midi": 72,
          "time": 58.055393000000066,
          "velocity": 0.3700787401574803,
          "duration": 0.2777770000000004
        },
        {
          "name": "C5",
          "midi": 72,
          "time": 58.33317000000007,
          "velocity": 0.3700787401574803,
          "duration": 0.4166655000000006
        },
        {
          "name": "C5",
          "midi": 72,
          "time": 58.74983550000007,
          "velocity": 0.3700787401574803,
          "duration": 0.1388885000000002
        },
        {
          "name": "C5",
          "midi": 72,
          "time": 58.88872400000007,
          "velocity": 0.3700787401574803,
          "duration": 0.2777770000000004
        },
        {
          "name": "B4",
          "midi": 71,
          "time": 59.16650100000007,
          "velocity": 0.3700787401574803,
          "duration": 0.2777770000000004
        },
        {
          "name": "B4",
          "midi": 71,
          "time": 59.44427800000007,
          "velocity": 0.3700787401574803,
          "duration": 0.2777770000000004
        },
        {
          "name": "B4",
          "midi": 71,
          "time": 59.72205500000007,
          "velocity": 0.3700787401574803,
          "duration": 0.1388885000000002
        },
        {
          "name": "B4",
          "midi": 71,
          "time": 59.86094350000007,
          "velocity": 0.3700787401574803,
          "duration": 0.1388885000000002
        },
        {
          "name": "B4",
          "midi": 71,
          "time": 59.99983200000007,
          "velocity": 0.3700787401574803,
          "duration": 0.2777770000000004
        },
        {
          "name": "A4",
          "midi": 69,
          "time": 60.27760900000007,
          "velocity": 0.3700787401574803,
          "duration": 0.2777770000000004
        },
        {
          "name": "A4",
          "midi": 69,
          "time": 60.55538600000007,
          "velocity": 0.3700787401574803,
          "duration": 0.2777770000000004
        },
        {
          "name": "B4",
          "midi": 71,
          "time": 60.83316300000007,
          "velocity": 0.3700787401574803,
          "duration": 0.2777770000000004
        },
        {
          "name": "A4",
          "midi": 69,
          "time": 61.11094000000007,
          "velocity": 0.3700787401574803,
          "duration": 0.5555540000000008
        },
        {
          "name": "D5",
          "midi": 74,
          "time": 61.66649400000007,
          "velocity": 0.3700787401574803,
          "duration": 0.5555540000000008
        },
        {
          "name": "B4",
          "midi": 71,
          "time": 62.22204800000007,
          "velocity": 0.3700787401574803,
          "duration": 0.2777770000000004
        },
        {
          "name": "B4",
          "midi": 71,
          "time": 62.49982500000007,
          "velocity": 0.3700787401574803,
          "duration": 0.2777770000000004
        },
        {
          "name": "B4",
          "midi": 71,
          "time": 62.77760200000007,
          "velocity": 0.3700787401574803,
          "duration": 0.5555540000000008
        },
        {
          "name": "B4",
          "midi": 71,
          "time": 63.33315600000007,
          "velocity": 0.3700787401574803,
          "duration": 0.2777770000000004
        },
        {
          "name": "B4",
          "midi": 71,
          "time": 63.610933000000074,
          "velocity": 0.3700787401574803,
          "duration": 0.2777770000000004
        },
        {
          "name": "B4",
          "midi": 71,
          "time": 63.888710000000074,
          "velocity": 0.3700787401574803,
          "duration": 0.5555540000000008
        },
        {
          "name": "B4",
          "midi": 71,
          "time": 64.44426400000008,
          "velocity": 0.3700787401574803,
          "duration": 0.2777770000000004
        },
        {
          "name": "D5",
          "midi": 74,
          "time": 64.72204100000008,
          "velocity": 0.3700787401574803,
          "duration": 0.2777770000000004
        },
        {
          "name": "G4",
          "midi": 67,
          "time": 64.99981800000008,
          "velocity": 0.3700787401574803,
          "duration": 0.41666549999999347
        },
        {
          "name": "A4",
          "midi": 69,
          "time": 65.41648350000007,
          "velocity": 0.3700787401574803,
          "duration": 0.1388884999999931
        },
        {
          "name": "B4",
          "midi": 71,
          "time": 65.55537200000006,
          "velocity": 0.3700787401574803,
          "duration": 1.1111080000000015
        },
        {
          "name": "C5",
          "midi": 72,
          "time": 66.66648000000006,
          "velocity": 0.3700787401574803,
          "duration": 0.2777770000000004
        },
        {
          "name": "C5",
          "midi": 72,
          "time": 66.94425700000006,
          "velocity": 0.3700787401574803,
          "duration": 0.2777770000000004
        },
        {
          "name": "C5",
          "midi": 72,
          "time": 67.22203400000006,
          "velocity": 0.3700787401574803,
          "duration": 0.41666549999999347
        },
        {
          "name": "C5",
          "midi": 72,
          "time": 67.63869950000006,
          "velocity": 0.3700787401574803,
          "duration": 0.1388884999999931
        },
        {
          "name": "C5",
          "midi": 72,
          "time": 67.77758800000005,
          "velocity": 0.3700787401574803,
          "duration": 0.2777770000000004
        },
        {
          "name": "B4",
          "midi": 71,
          "time": 68.05536500000005,
          "velocity": 0.3700787401574803,
          "duration": 0.2777770000000004
        },
        {
          "name": "B4",
          "midi": 71,
          "time": 68.33314200000005,
          "velocity": 0.3700787401574803,
          "duration": 0.2777770000000004
        },
        {
          "name": "B4",
          "midi": 71,
          "time": 68.61091900000005,
          "velocity": 0.3700787401574803,
          "duration": 0.1388884999999931
        },
        {
          "name": "B4",
          "midi": 71,
          "time": 68.74980750000005,
          "velocity": 0.3700787401574803,
          "duration": 0.1388884999999931
        },
        {
          "name": "D5",
          "midi": 74,
          "time": 68.88869600000004,
          "velocity": 0.3700787401574803,
          "duration": 0.2777770000000004
        },
        {
          "name": "D5",
          "midi": 74,
          "time": 69.16647300000004,
          "velocity": 0.3700787401574803,
          "duration": 0.2777770000000004
        },
        {
          "name": "C5",
          "midi": 72,
          "time": 69.44425000000004,
          "velocity": 0.3700787401574803,
          "duration": 0.2777770000000004
        },
        {
          "name": "A4",
          "midi": 69,
          "time": 69.72202700000004,
          "velocity": 0.3700787401574803,
          "duration": 0.2777770000000004
        },
        {
          "name": "G4",
          "midi": 67,
          "time": 69.99980400000004,
          "velocity": 0.3700787401574803,
          "duration": 0.2777770000000004
        },
        {
          "name": "D5",
          "midi": 74,
          "time": 70.27758100000004,
          "velocity": 0.3700787401574803,
          "duration": 0.2777770000000004
        },
        {
          "name": "G5",
          "midi": 79,
          "time": 70.55535800000004,
          "velocity": 0.3700787401574803,
          "duration": 0.2777770000000004
        }
      ],
      "controlChanges": {},
      "id": 1,
      "channelNumber": 0,
      "isPercussion": false
    },
    {
      "startTime": 17.777728,
      "duration": 70.27758100000004,
      "length": 60,
      "notes": [
        {
          "name": "D4",
          "midi": 62,
          "time": 17.777728,
          "velocity": 0.30708661417322836,
          "duration": 0.2777770000000004
        },
        {
          "name": "D4",
          "midi": 62,
          "time": 18.333282,
          "velocity": 0.30708661417322836,
          "duration": 0.2777770000000004
        },
        {
          "name": "D4",
          "midi": 62,
          "time": 18.888836,
          "velocity": 0.30708661417322836,
          "duration": 0.2777770000000004
        },
        {
          "name": "D4",
          "midi": 62,
          "time": 19.444390000000002,
          "velocity": 0.30708661417322836,
          "duration": 0.2777770000000004
        },
        {
          "name": "D4",
          "midi": 62,
          "time": 19.999944000000003,
          "velocity": 0.30708661417322836,
          "duration": 0.2777770000000004
        },
        {
          "name": "D4",
          "midi": 62,
          "time": 20.555498000000004,
          "velocity": 0.30708661417322836,
          "duration": 0.2777770000000004
        },
        {
          "name": "D4",
          "midi": 62,
          "time": 21.111052000000004,
          "velocity": 0.30708661417322836,
          "duration": 0.2777770000000004
        },
        {
          "name": "B3",
          "midi": 59,
          "time": 21.666606000000005,
          "velocity": 0.30708661417322836,
          "duration": 0.2777770000000004
        },
        {
          "name": "C4",
          "midi": 60,
          "time": 22.222160000000006,
          "velocity": 0.30708661417322836,
          "duration": 0.2777770000000004
        },
        {
          "name": "C4",
          "midi": 60,
          "time": 22.777714000000007,
          "velocity": 0.30708661417322836,
          "duration": 0.2777770000000004
        },
        {
          "name": "B3",
          "midi": 59,
          "time": 23.333268000000007,
          "velocity": 0.30708661417322836,
          "duration": 0.2777770000000004
        },
        {
          "name": "B3",
          "midi": 59,
          "time": 23.888822000000008,
          "velocity": 0.30708661417322836,
          "duration": 0.2777770000000004
        },
        {
          "name": "A3",
          "midi": 57,
          "time": 24.44437600000001,
          "velocity": 0.30708661417322836,
          "duration": 1.1111080000000015
        },
        {
          "name": "A3",
          "midi": 57,
          "time": 25.55548400000001,
          "velocity": 0.30708661417322836,
          "duration": 0.5555540000000008
        },
        {
          "name": "C4",
          "midi": 60,
          "time": 26.11103800000001,
          "velocity": 0.30708661417322836,
          "duration": 0.5555540000000008
        },
        {
          "name": "D4",
          "midi": 62,
          "time": 26.666592000000012,
          "velocity": 0.30708661417322836,
          "duration": 0.2777770000000004
        },
        {
          "name": "D4",
          "midi": 62,
          "time": 27.222146000000013,
          "velocity": 0.30708661417322836,
          "duration": 0.2777770000000004
        },
        {
          "name": "D4",
          "midi": 62,
          "time": 27.777700000000014,
          "velocity": 0.30708661417322836,
          "duration": 0.2777770000000004
        },
        {
          "name": "D4",
          "midi": 62,
          "time": 28.333254000000014,
          "velocity": 0.30708661417322836,
          "duration": 0.2777770000000004
        },
        {
          "name": "D4",
          "midi": 62,
          "time": 28.888808000000015,
          "velocity": 0.30708661417322836,
          "duration": 0.2777770000000004
        },
        {
          "name": "D4",
          "midi": 62,
          "time": 29.444362000000016,
          "velocity": 0.30708661417322836,
          "duration": 0.2777770000000004
        },
        {
          "name": "D4",
          "midi": 62,
          "time": 29.999916000000017,
          "velocity": 0.30708661417322836,
          "duration": 0.2777770000000004
        },
        {
          "name": "B3",
          "midi": 59,
          "time": 30.555470000000017,
          "velocity": 0.30708661417322836,
          "duration": 0.2777770000000004
        },
        {
          "name": "C4",
          "midi": 60,
          "time": 31.111024000000018,
          "velocity": 0.30708661417322836,
          "duration": 0.2777770000000004
        },
        {
          "name": "C4",
          "midi": 60,
          "time": 31.66657800000002,
          "velocity": 0.30708661417322836,
          "duration": 0.2777770000000004
        },
        {
          "name": "B3",
          "midi": 59,
          "time": 32.222132000000016,
          "velocity": 0.30708661417322836,
          "duration": 0.2777770000000004
        },
        {
          "name": "B3",
          "midi": 59,
          "time": 32.77768600000002,
          "velocity": 0.30708661417322836,
          "duration": 0.2777770000000004
        },
        {
          "name": "A3",
          "midi": 57,
          "time": 33.33324000000002,
          "velocity": 0.30708661417322836,
          "duration": 0.5555540000000008
        },
        {
          "name": "C4",
          "midi": 60,
          "time": 33.88879400000002,
          "velocity": 0.30708661417322836,
          "duration": 0.5555540000000008
        },
        {
          "name": "B3",
          "midi": 59,
          "time": 34.44434800000002,
          "velocity": 0.30708661417322836,
          "duration": 0.2777770000000004
        },
        {
          "name": "D4",
          "midi": 62,
          "time": 53.33318400000002,
          "velocity": 0.30708661417322836,
          "duration": 0.2777770000000004
        },
        {
          "name": "D4",
          "midi": 62,
          "time": 53.88873800000002,
          "velocity": 0.30708661417322836,
          "duration": 0.2777770000000004
        },
        {
          "name": "D4",
          "midi": 62,
          "time": 54.44429200000002,
          "velocity": 0.30708661417322836,
          "duration": 0.2777770000000004
        },
        {
          "name": "D4",
          "midi": 62,
          "time": 54.99984600000002,
          "velocity": 0.30708661417322836,
          "duration": 0.2777770000000004
        },
        {
          "name": "D4",
          "midi": 62,
          "time": 55.55540000000002,
          "velocity": 0.30708661417322836,
          "duration": 0.2777770000000004
        },
        {
          "name": "D4",
          "midi": 62,
          "time": 56.11095400000002,
          "velocity": 0.30708661417322836,
          "duration": 0.2777770000000004
        },
        {
          "name": "D4",
          "midi": 62,
          "time": 56.66650800000002,
          "velocity": 0.30708661417322836,
          "duration": 0.2777770000000004
        },
        {
          "name": "B3",
          "midi": 59,
          "time": 57.22206200000002,
          "velocity": 0.30708661417322836,
          "duration": 0.2777770000000004
        },
        {
          "name": "C4",
          "midi": 60,
          "time": 57.77761600000002,
          "velocity": 0.30708661417322836,
          "duration": 0.2777770000000004
        },
        {
          "name": "C4",
          "midi": 60,
          "time": 58.333170000000024,
          "velocity": 0.30708661417322836,
          "duration": 0.2777770000000004
        },
        {
          "name": "B3",
          "midi": 59,
          "time": 58.888724000000025,
          "velocity": 0.30708661417322836,
          "duration": 0.2777770000000004
        },
        {
          "name": "B3",
          "midi": 59,
          "time": 59.444278000000025,
          "velocity": 0.30708661417322836,
          "duration": 0.2777770000000004
        },
        {
          "name": "A3",
          "midi": 57,
          "time": 59.999832000000026,
          "velocity": 0.30708661417322836,
          "duration": 1.1111080000000015
        },
        {
          "name": "A3",
          "midi": 57,
          "time": 61.11094000000003,
          "velocity": 0.30708661417322836,
          "duration": 0.5555540000000008
        },
        {
          "name": "C4",
          "midi": 60,
          "time": 61.66649400000003,
          "velocity": 0.30708661417322836,
          "duration": 0.5555540000000008
        },
        {
          "name": "D4",
          "midi": 62,
          "time": 62.22204800000003,
          "velocity": 0.30708661417322836,
          "duration": 0.2777770000000004
        },
        {
          "name": "D4",
          "midi": 62,
          "time": 62.77760200000003,
          "velocity": 0.30708661417322836,
          "duration": 0.2777770000000004
        },
        {
          "name": "D4",
          "midi": 62,
          "time": 63.33315600000003,
          "velocity": 0.30708661417322836,
          "duration": 0.2777770000000004
        },
        {
          "name": "D4",
          "midi": 62,
          "time": 63.88871000000003,
          "velocity": 0.30708661417322836,
          "duration": 0.2777770000000004
        },
        {
          "name": "D4",
          "midi": 62,
          "time": 64.44426400000003,
          "velocity": 0.30708661417322836,
          "duration": 0.2777770000000004
        },
        {
          "name": "D4",
          "midi": 62,
          "time": 64.99981800000003,
          "velocity": 0.30708661417322836,
          "duration": 0.2777770000000004
        },
        {
          "name": "D4",
          "midi": 62,
          "time": 65.55537200000003,
          "velocity": 0.30708661417322836,
          "duration": 0.2777770000000004
        },
        {
          "name": "B3",
          "midi": 59,
          "time": 66.11092600000003,
          "velocity": 0.30708661417322836,
          "duration": 0.2777770000000004
        },
        {
          "name": "C4",
          "midi": 60,
          "time": 66.66648000000004,
          "velocity": 0.30708661417322836,
          "duration": 0.2777770000000004
        },
        {
          "name": "C4",
          "midi": 60,
          "time": 67.22203400000004,
          "velocity": 0.30708661417322836,
          "duration": 0.2777770000000004
        },
        {
          "name": "B3",
          "midi": 59,
          "time": 67.77758800000004,
          "velocity": 0.30708661417322836,
          "duration": 0.2777770000000004
        },
        {
          "name": "B3",
          "midi": 59,
          "time": 68.33314200000004,
          "velocity": 0.30708661417322836,
          "duration": 0.2777770000000004
        },
        {
          "name": "A3",
          "midi": 57,
          "time": 68.88869600000004,
          "velocity": 0.30708661417322836,
          "duration": 0.5555540000000008
        },
        {
          "name": "C4",
          "midi": 60,
          "time": 69.44425000000004,
          "velocity": 0.30708661417322836,
          "duration": 0.5555540000000008
        },
        {
          "name": "B3",
          "midi": 59,
          "time": 69.99980400000004,
          "velocity": 0.30708661417322836,
          "duration": 0.2777770000000004
        }
      ],
      "controlChanges": {},
      "id": 2,
      "channelNumber": 1,
      "isPercussion": false
    },
    {
      "startTime": 17.777728,
      "duration": 70.27758099999961,
      "length": 123,
      "notes": [
        {
          "name": "B3",
          "midi": 59,
          "time": 17.777728,
          "velocity": 0.2440944881889764,
          "duration": 0.2777770000000004
        },
        {
          "name": "B3",
          "midi": 59,
          "time": 18.333282,
          "velocity": 0.2440944881889764,
          "duration": 0.2777770000000004
        },
        {
          "name": "B3",
          "midi": 59,
          "time": 18.888836,
          "velocity": 0.2440944881889764,
          "duration": 0.2777770000000004
        },
        {
          "name": "B3",
          "midi": 59,
          "time": 19.444390000000002,
          "velocity": 0.2440944881889764,
          "duration": 0.2777770000000004
        },
        {
          "name": "B3",
          "midi": 59,
          "time": 19.999944000000003,
          "velocity": 0.2440944881889764,
          "duration": 0.2777770000000004
        },
        {
          "name": "B3",
          "midi": 59,
          "time": 20.555498000000004,
          "velocity": 0.2440944881889764,
          "duration": 0.2777770000000004
        },
        {
          "name": "B3",
          "midi": 59,
          "time": 21.111052000000004,
          "velocity": 0.2440944881889764,
          "duration": 0.2777770000000004
        },
        {
          "name": "G3",
          "midi": 55,
          "time": 21.666606000000005,
          "velocity": 0.2440944881889764,
          "duration": 0.2777770000000004
        },
        {
          "name": "G3",
          "midi": 55,
          "time": 22.222160000000006,
          "velocity": 0.2440944881889764,
          "duration": 0.2777770000000004
        },
        {
          "name": "G3",
          "midi": 55,
          "time": 22.777714000000007,
          "velocity": 0.2440944881889764,
          "duration": 0.2777770000000004
        },
        {
          "name": "G3",
          "midi": 55,
          "time": 23.333268000000007,
          "velocity": 0.2440944881889764,
          "duration": 0.2777770000000004
        },
        {
          "name": "G3",
          "midi": 55,
          "time": 23.888822000000008,
          "velocity": 0.2440944881889764,
          "duration": 0.2777770000000004
        },
        {
          "name": "G3",
          "midi": 55,
          "time": 24.44437600000001,
          "velocity": 0.2440944881889764,
          "duration": 1.1111080000000015
        },
        {
          "name": "F#3",
          "midi": 54,
          "time": 25.55548400000001,
          "velocity": 0.2440944881889764,
          "duration": 0.5555540000000008
        },
        {
          "name": "F#3",
          "midi": 54,
          "time": 26.11103800000001,
          "velocity": 0.2440944881889764,
          "duration": 0.5555540000000008
        },
        {
          "name": "B3",
          "midi": 59,
          "time": 26.666592000000012,
          "velocity": 0.2440944881889764,
          "duration": 0.2777770000000004
        },
        {
          "name": "B3",
          "midi": 59,
          "time": 27.222146000000013,
          "velocity": 0.2440944881889764,
          "duration": 0.2777770000000004
        },
        {
          "name": "B3",
          "midi": 59,
          "time": 27.777700000000014,
          "velocity": 0.2440944881889764,
          "duration": 0.2777770000000004
        },
        {
          "name": "B3",
          "midi": 59,
          "time": 28.333254000000014,
          "velocity": 0.2440944881889764,
          "duration": 0.2777770000000004
        },
        {
          "name": "B3",
          "midi": 59,
          "time": 28.888808000000015,
          "velocity": 0.2440944881889764,
          "duration": 0.2777770000000004
        },
        {
          "name": "B3",
          "midi": 59,
          "time": 29.444362000000016,
          "velocity": 0.2440944881889764,
          "duration": 0.2777770000000004
        },
        {
          "name": "B3",
          "midi": 59,
          "time": 29.999916000000017,
          "velocity": 0.2440944881889764,
          "duration": 0.2777770000000004
        },
        {
          "name": "G3",
          "midi": 55,
          "time": 30.555470000000017,
          "velocity": 0.2440944881889764,
          "duration": 0.2777770000000004
        },
        {
          "name": "G3",
          "midi": 55,
          "time": 31.111024000000018,
          "velocity": 0.2440944881889764,
          "duration": 0.2777770000000004
        },
        {
          "name": "G3",
          "midi": 55,
          "time": 31.66657800000002,
          "velocity": 0.2440944881889764,
          "duration": 0.2777770000000004
        },
        {
          "name": "G3",
          "midi": 55,
          "time": 32.222132000000016,
          "velocity": 0.2440944881889764,
          "duration": 0.2777770000000004
        },
        {
          "name": "G3",
          "midi": 55,
          "time": 32.77768600000002,
          "velocity": 0.2440944881889764,
          "duration": 0.2777770000000004
        },
        {
          "name": "F#3",
          "midi": 54,
          "time": 33.33324000000002,
          "velocity": 0.2440944881889764,
          "duration": 0.5555540000000008
        },
        {
          "name": "F#3",
          "midi": 54,
          "time": 33.88879400000002,
          "velocity": 0.2440944881889764,
          "duration": 0.5555540000000008
        },
        {
          "name": "F#3",
          "midi": 54,
          "time": 34.44434800000002,
          "velocity": 0.2440944881889764,
          "duration": 0.2777770000000004
        },
        {
          "name": "G1",
          "midi": 31,
          "time": 35.55545600000002,
          "velocity": 0.3700787401574803,
          "duration": 0.06944424999999654
        },
        {
          "name": "D2",
          "midi": 38,
          "time": 35.833233000000014,
          "velocity": 0.3700787401574803,
          "duration": 0.06944424999999654
        },
        {
          "name": "E2",
          "midi": 40,
          "time": 36.11101000000001,
          "velocity": 0.3700787401574803,
          "duration": 0.06944424999999654
        },
        {
          "name": "D2",
          "midi": 38,
          "time": 36.388787,
          "velocity": 0.3700787401574803,
          "duration": 0.06944424999999654
        },
        {
          "name": "G1",
          "midi": 31,
          "time": 36.666563999999994,
          "velocity": 0.3700787401574803,
          "duration": 0.06944424999999654
        },
        {
          "name": "D2",
          "midi": 38,
          "time": 36.94434099999999,
          "velocity": 0.3700787401574803,
          "duration": 0.06944424999999654
        },
        {
          "name": "B1",
          "midi": 35,
          "time": 37.22211799999998,
          "velocity": 0.3700787401574803,
          "duration": 0.06944424999999654
        },
        {
          "name": "D2",
          "midi": 38,
          "time": 37.499894999999974,
          "velocity": 0.3700787401574803,
          "duration": 0.06944424999999654
        },
        {
          "name": "G1",
          "midi": 31,
          "time": 37.77767199999997,
          "velocity": 0.4330708661417323,
          "duration": 0.06944424999999654
        },
        {
          "name": "D2",
          "midi": 38,
          "time": 38.05544899999996,
          "velocity": 0.4330708661417323,
          "duration": 0.06944424999999654
        },
        {
          "name": "E2",
          "midi": 40,
          "time": 38.333225999999954,
          "velocity": 0.4330708661417323,
          "duration": 0.06944424999999654
        },
        {
          "name": "D2",
          "midi": 38,
          "time": 38.61100299999995,
          "velocity": 0.4330708661417323,
          "duration": 0.06944424999999654
        },
        {
          "name": "C2",
          "midi": 36,
          "time": 38.88877999999994,
          "velocity": 0.4330708661417323,
          "duration": 0.06944424999999654
        },
        {
          "name": "G2",
          "midi": 43,
          "time": 39.16655699999993,
          "velocity": 0.4330708661417323,
          "duration": 0.06944424999999654
        },
        {
          "name": "E2",
          "midi": 40,
          "time": 39.44433399999993,
          "velocity": 0.4330708661417323,
          "duration": 0.06944424999999654
        },
        {
          "name": "G2",
          "midi": 43,
          "time": 39.72211099999992,
          "velocity": 0.4330708661417323,
          "duration": 0.06944424999999654
        },
        {
          "name": "A1",
          "midi": 33,
          "time": 39.99988799999991,
          "velocity": 0.4330708661417323,
          "duration": 0.06944424999999654
        },
        {
          "name": "E2",
          "midi": 40,
          "time": 40.27766499999991,
          "velocity": 0.4330708661417323,
          "duration": 0.06944424999999654
        },
        {
          "name": "D2",
          "midi": 38,
          "time": 40.5554419999999,
          "velocity": 0.4330708661417323,
          "duration": 0.06944424999999654
        },
        {
          "name": "C2",
          "midi": 36,
          "time": 40.83321899999989,
          "velocity": 0.4330708661417323,
          "duration": 0.06944424999999654
        },
        {
          "name": "D2",
          "midi": 38,
          "time": 41.110995999999886,
          "velocity": 0.4330708661417323,
          "duration": 0.06944424999999654
        },
        {
          "name": "A1",
          "midi": 33,
          "time": 41.38877299999988,
          "velocity": 0.4330708661417323,
          "duration": 0.06944424999999654
        },
        {
          "name": "D1",
          "midi": 26,
          "time": 41.66654999999987,
          "velocity": 0.4330708661417323,
          "duration": 0.06944424999999654
        },
        {
          "name": "A1",
          "midi": 33,
          "time": 41.944326999999866,
          "velocity": 0.4330708661417323,
          "duration": 0.06944424999999654
        },
        {
          "name": "D2",
          "midi": 38,
          "time": 42.22210399999986,
          "velocity": 0.4330708661417323,
          "duration": 0.06944424999999654
        },
        {
          "name": "A1",
          "midi": 33,
          "time": 42.49988099999985,
          "velocity": 0.4330708661417323,
          "duration": 0.06944424999999654
        },
        {
          "name": "D1",
          "midi": 26,
          "time": 42.777657999999846,
          "velocity": 0.4330708661417323,
          "duration": 0.06944424999999654
        },
        {
          "name": "D2",
          "midi": 38,
          "time": 43.05543499999984,
          "velocity": 0.4330708661417323,
          "duration": 0.06944424999999654
        },
        {
          "name": "G1",
          "midi": 31,
          "time": 43.33321199999983,
          "velocity": 0.4330708661417323,
          "duration": 0.06944424999999654
        },
        {
          "name": "D2",
          "midi": 38,
          "time": 43.610988999999826,
          "velocity": 0.4330708661417323,
          "duration": 0.06944424999999654
        },
        {
          "name": "B1",
          "midi": 35,
          "time": 43.88876599999982,
          "velocity": 0.4330708661417323,
          "duration": 0.06944424999999654
        },
        {
          "name": "D2",
          "midi": 38,
          "time": 44.16654299999981,
          "velocity": 0.4330708661417323,
          "duration": 0.06944424999999654
        },
        {
          "name": "G1",
          "midi": 31,
          "time": 44.444319999999806,
          "velocity": 0.4330708661417323,
          "duration": 0.06944424999999654
        },
        {
          "name": "D2",
          "midi": 38,
          "time": 44.7220969999998,
          "velocity": 0.4330708661417323,
          "duration": 0.06944424999999654
        },
        {
          "name": "E2",
          "midi": 40,
          "time": 44.99987399999979,
          "velocity": 0.4330708661417323,
          "duration": 0.06944424999999654
        },
        {
          "name": "D2",
          "midi": 38,
          "time": 45.277650999999786,
          "velocity": 0.4330708661417323,
          "duration": 0.06944424999999654
        },
        {
          "name": "G1",
          "midi": 31,
          "time": 45.55542799999978,
          "velocity": 0.4330708661417323,
          "duration": 0.06944424999999654
        },
        {
          "name": "D2",
          "midi": 38,
          "time": 45.83320499999977,
          "velocity": 0.4330708661417323,
          "duration": 0.06944424999999654
        },
        {
          "name": "B1",
          "midi": 35,
          "time": 46.110981999999765,
          "velocity": 0.4330708661417323,
          "duration": 0.06944424999999654
        },
        {
          "name": "D2",
          "midi": 38,
          "time": 46.38875899999976,
          "velocity": 0.4330708661417323,
          "duration": 0.06944424999999654
        },
        {
          "name": "G1",
          "midi": 31,
          "time": 46.66653599999975,
          "velocity": 0.4330708661417323,
          "duration": 0.06944424999999654
        },
        {
          "name": "D2",
          "midi": 38,
          "time": 46.944312999999745,
          "velocity": 0.4330708661417323,
          "duration": 0.06944424999999654
        },
        {
          "name": "E2",
          "midi": 40,
          "time": 47.22208999999974,
          "velocity": 0.4330708661417323,
          "duration": 0.06944424999999654
        },
        {
          "name": "D2",
          "midi": 38,
          "time": 47.49986699999973,
          "velocity": 0.4330708661417323,
          "duration": 0.06944424999999654
        },
        {
          "name": "C2",
          "midi": 36,
          "time": 47.777643999999725,
          "velocity": 0.4330708661417323,
          "duration": 0.06944424999999654
        },
        {
          "name": "G2",
          "midi": 43,
          "time": 48.05542099999972,
          "velocity": 0.4330708661417323,
          "duration": 0.06944424999999654
        },
        {
          "name": "E2",
          "midi": 40,
          "time": 48.33319799999971,
          "velocity": 0.4330708661417323,
          "duration": 0.06944424999999654
        },
        {
          "name": "G2",
          "midi": 43,
          "time": 48.610974999999705,
          "velocity": 0.4330708661417323,
          "duration": 0.06944424999999654
        },
        {
          "name": "A1",
          "midi": 33,
          "time": 48.8887519999997,
          "velocity": 0.4330708661417323,
          "duration": 0.06944424999999654
        },
        {
          "name": "E2",
          "midi": 40,
          "time": 49.16652899999969,
          "velocity": 0.4330708661417323,
          "duration": 0.06944424999999654
        },
        {
          "name": "D2",
          "midi": 38,
          "time": 49.444305999999685,
          "velocity": 0.4330708661417323,
          "duration": 0.06944424999999654
        },
        {
          "name": "C2",
          "midi": 36,
          "time": 49.72208299999968,
          "velocity": 0.4330708661417323,
          "duration": 0.06944424999999654
        },
        {
          "name": "D2",
          "midi": 38,
          "time": 49.99985999999967,
          "velocity": 0.4330708661417323,
          "duration": 0.06944424999999654
        },
        {
          "name": "D2",
          "midi": 38,
          "time": 50.277636999999665,
          "velocity": 0.4330708661417323,
          "duration": 0.06944424999999654
        },
        {
          "name": "D2",
          "midi": 38,
          "time": 50.55541399999966,
          "velocity": 0.4330708661417323,
          "duration": 0.06944424999999654
        },
        {
          "name": "D2",
          "midi": 38,
          "time": 50.83319099999965,
          "velocity": 0.4330708661417323,
          "duration": 0.06944424999999654
        },
        {
          "name": "C2",
          "midi": 36,
          "time": 51.110967999999644,
          "velocity": 0.4330708661417323,
          "duration": 0.06944424999999654
        },
        {
          "name": "D2",
          "midi": 38,
          "time": 51.38874499999964,
          "velocity": 0.4330708661417323,
          "duration": 0.06944424999999654
        },
        {
          "name": "E2",
          "midi": 40,
          "time": 51.66652199999963,
          "velocity": 0.4330708661417323,
          "duration": 0.06944424999999654
        },
        {
          "name": "F#2",
          "midi": 42,
          "time": 51.944298999999624,
          "velocity": 0.4330708661417323,
          "duration": 0.06944424999999654
        },
        {
          "name": "G2",
          "midi": 43,
          "time": 52.22207599999962,
          "velocity": 0.4330708661417323,
          "duration": 0.06944424999999654
        },
        {
          "name": "D2",
          "midi": 38,
          "time": 52.49985299999961,
          "velocity": 0.4330708661417323,
          "duration": 0.06944424999999654
        },
        {
          "name": "G1",
          "midi": 31,
          "time": 52.777629999999604,
          "velocity": 0.4330708661417323,
          "duration": 0.06944424999999654
        },
        {
          "name": "B3",
          "midi": 59,
          "time": 53.3331839999996,
          "velocity": 0.2440944881889764,
          "duration": 0.2777770000000004
        },
        {
          "name": "B3",
          "midi": 59,
          "time": 53.8887379999996,
          "velocity": 0.2440944881889764,
          "duration": 0.2777770000000004
        },
        {
          "name": "B3",
          "midi": 59,
          "time": 54.4442919999996,
          "velocity": 0.2440944881889764,
          "duration": 0.2777770000000004
        },
        {
          "name": "B3",
          "midi": 59,
          "time": 54.9998459999996,
          "velocity": 0.2440944881889764,
          "duration": 0.2777770000000004
        },
        {
          "name": "B3",
          "midi": 59,
          "time": 55.5553999999996,
          "velocity": 0.2440944881889764,
          "duration": 0.2777770000000004
        },
        {
          "name": "B3",
          "midi": 59,
          "time": 56.1109539999996,
          "velocity": 0.2440944881889764,
          "duration": 0.2777770000000004
        },
        {
          "name": "B3",
          "midi": 59,
          "time": 56.6665079999996,
          "velocity": 0.2440944881889764,
          "duration": 0.2777770000000004
        },
        {
          "name": "G3",
          "midi": 55,
          "time": 57.2220619999996,
          "velocity": 0.2440944881889764,
          "duration": 0.2777770000000004
        },
        {
          "name": "G3",
          "midi": 55,
          "time": 57.777615999999604,
          "velocity": 0.2440944881889764,
          "duration": 0.2777770000000004
        },
        {
          "name": "G3",
          "midi": 55,
          "time": 58.333169999999605,
          "velocity": 0.2440944881889764,
          "duration": 0.2777770000000004
        },
        {
          "name": "G3",
          "midi": 55,
          "time": 58.888723999999605,
          "velocity": 0.2440944881889764,
          "duration": 0.2777770000000004
        },
        {
          "name": "G3",
          "midi": 55,
          "time": 59.444277999999606,
          "velocity": 0.2440944881889764,
          "duration": 0.2777770000000004
        },
        {
          "name": "G3",
          "midi": 55,
          "time": 59.99983199999961,
          "velocity": 0.2440944881889764,
          "duration": 1.1111080000000015
        },
        {
          "name": "F#3",
          "midi": 54,
          "time": 61.11093999999961,
          "velocity": 0.2440944881889764,
          "duration": 0.5555540000000008
        },
        {
          "name": "F#3",
          "midi": 54,
          "time": 61.66649399999961,
          "velocity": 0.2440944881889764,
          "duration": 0.5555540000000008
        },
        {
          "name": "B3",
          "midi": 59,
          "time": 62.22204799999961,
          "velocity": 0.2440944881889764,
          "duration": 0.2777770000000004
        },
        {
          "name": "B3",
          "midi": 59,
          "time": 62.77760199999961,
          "velocity": 0.2440944881889764,
          "duration": 0.2777770000000004
        },
        {
          "name": "B3",
          "midi": 59,
          "time": 63.33315599999961,
          "velocity": 0.2440944881889764,
          "duration": 0.2777770000000004
        },
        {
          "name": "B3",
          "midi": 59,
          "time": 63.88870999999961,
          "velocity": 0.2440944881889764,
          "duration": 0.2777769999999933
        },
        {
          "name": "B3",
          "midi": 59,
          "time": 64.4442639999996,
          "velocity": 0.2440944881889764,
          "duration": 0.2777770000000004
        },
        {
          "name": "B3",
          "midi": 59,
          "time": 64.9998179999996,
          "velocity": 0.2440944881889764,
          "duration": 0.2777770000000004
        },
        {
          "name": "B3",
          "midi": 59,
          "time": 65.55537199999961,
          "velocity": 0.2440944881889764,
          "duration": 0.2777770000000004
        },
        {
          "name": "G3",
          "midi": 55,
          "time": 66.11092599999961,
          "velocity": 0.2440944881889764,
          "duration": 0.2777770000000004
        },
        {
          "name": "G3",
          "midi": 55,
          "time": 66.66647999999961,
          "velocity": 0.2440944881889764,
          "duration": 0.2777770000000004
        },
        {
          "name": "G3",
          "midi": 55,
          "time": 67.22203399999961,
          "velocity": 0.2440944881889764,
          "duration": 0.2777770000000004
        },
        {
          "name": "G3",
          "midi": 55,
          "time": 67.77758799999961,
          "velocity": 0.2440944881889764,
          "duration": 0.2777770000000004
        },
        {
          "name": "G3",
          "midi": 55,
          "time": 68.33314199999961,
          "velocity": 0.2440944881889764,
          "duration": 0.2777770000000004
        },
        {
          "name": "F#3",
          "midi": 54,
          "time": 68.88869599999961,
          "velocity": 0.2440944881889764,
          "duration": 0.5555540000000008
        },
        {
          "name": "F#3",
          "midi": 54,
          "time": 69.44424999999961,
          "velocity": 0.2440944881889764,
          "duration": 0.5555540000000008
        },
        {
          "name": "F#3",
          "midi": 54,
          "time": 69.99980399999961,
          "velocity": 0.2440944881889764,
          "duration": 0.2777770000000004
        }
      ],
      "controlChanges": {},
      "id": 3,
      "channelNumber": 2,
      "isPercussion": false
    },
    {
      "startTime": 0,
      "duration": 70.83313500000008,
      "length": 190,
      "notes": [
        {
          "name": "G2",
          "midi": 43,
          "time": 0,
          "velocity": 0.30708661417322836,
          "duration": 0.277777
        },
        {
          "name": "D3",
          "midi": 50,
          "time": 0.277777,
          "velocity": 0.30708661417322836,
          "duration": 0.277777
        },
        {
          "name": "E3",
          "midi": 52,
          "time": 0.555554,
          "velocity": 0.30708661417322836,
          "duration": 0.27777700000000005
        },
        {
          "name": "D3",
          "midi": 50,
          "time": 0.833331,
          "velocity": 0.30708661417322836,
          "duration": 0.27777699999999994
        },
        {
          "name": "G2",
          "midi": 43,
          "time": 1.111108,
          "velocity": 0.30708661417322836,
          "duration": 0.27777699999999994
        },
        {
          "name": "D3",
          "midi": 50,
          "time": 1.388885,
          "velocity": 0.30708661417322836,
          "duration": 0.27777699999999994
        },
        {
          "name": "B2",
          "midi": 47,
          "time": 1.6666619999999999,
          "velocity": 0.30708661417322836,
          "duration": 0.27777699999999994
        },
        {
          "name": "D3",
          "midi": 50,
          "time": 1.9444389999999998,
          "velocity": 0.30708661417322836,
          "duration": 0.27777700000000016
        },
        {
          "name": "G2",
          "midi": 43,
          "time": 2.222216,
          "velocity": 0.30708661417322836,
          "duration": 0.27777699999999994
        },
        {
          "name": "D3",
          "midi": 50,
          "time": 2.499993,
          "velocity": 0.30708661417322836,
          "duration": 0.27777699999999994
        },
        {
          "name": "E3",
          "midi": 52,
          "time": 2.77777,
          "velocity": 0.30708661417322836,
          "duration": 0.27777699999999994
        },
        {
          "name": "D3",
          "midi": 50,
          "time": 3.055547,
          "velocity": 0.30708661417322836,
          "duration": 0.27777699999999994
        },
        {
          "name": "C3",
          "midi": 48,
          "time": 3.3333239999999997,
          "velocity": 0.30708661417322836,
          "duration": 0.27777699999999994
        },
        {
          "name": "G3",
          "midi": 55,
          "time": 3.6111009999999997,
          "velocity": 0.30708661417322836,
          "duration": 0.27777699999999994
        },
        {
          "name": "E3",
          "midi": 52,
          "time": 3.8888779999999996,
          "velocity": 0.30708661417322836,
          "duration": 0.27777699999999994
        },
        {
          "name": "G3",
          "midi": 55,
          "time": 4.1666549999999996,
          "velocity": 0.30708661417322836,
          "duration": 0.2777770000000004
        },
        {
          "name": "A2",
          "midi": 45,
          "time": 4.444432,
          "velocity": 0.30708661417322836,
          "duration": 0.2777770000000004
        },
        {
          "name": "E3",
          "midi": 52,
          "time": 4.722209,
          "velocity": 0.30708661417322836,
          "duration": 0.2777770000000004
        },
        {
          "name": "D3",
          "midi": 50,
          "time": 4.999986000000001,
          "velocity": 0.30708661417322836,
          "duration": 0.2777770000000004
        },
        {
          "name": "C3",
          "midi": 48,
          "time": 5.277763000000001,
          "velocity": 0.30708661417322836,
          "duration": 0.2777770000000004
        },
        {
          "name": "D3",
          "midi": 50,
          "time": 5.5555400000000015,
          "velocity": 0.30708661417322836,
          "duration": 0.2777770000000004
        },
        {
          "name": "A2",
          "midi": 45,
          "time": 5.833317000000002,
          "velocity": 0.30708661417322836,
          "duration": 0.2777770000000004
        },
        {
          "name": "D2",
          "midi": 38,
          "time": 6.111094000000002,
          "velocity": 0.30708661417322836,
          "duration": 0.2777770000000004
        },
        {
          "name": "A2",
          "midi": 45,
          "time": 6.388871000000003,
          "velocity": 0.30708661417322836,
          "duration": 0.2777770000000004
        },
        {
          "name": "D3",
          "midi": 50,
          "time": 6.666648000000003,
          "velocity": 0.30708661417322836,
          "duration": 0.2777770000000004
        },
        {
          "name": "A2",
          "midi": 45,
          "time": 6.944425000000003,
          "velocity": 0.30708661417322836,
          "duration": 0.2777770000000004
        },
        {
          "name": "D2",
          "midi": 38,
          "time": 7.222202000000004,
          "velocity": 0.30708661417322836,
          "duration": 0.2777770000000004
        },
        {
          "name": "D3",
          "midi": 50,
          "time": 7.499979000000004,
          "velocity": 0.30708661417322836,
          "duration": 0.2777770000000004
        },
        {
          "name": "G2",
          "midi": 43,
          "time": 7.7777560000000046,
          "velocity": 0.30708661417322836,
          "duration": 0.2777769999999995
        },
        {
          "name": "D3",
          "midi": 50,
          "time": 8.055533000000004,
          "velocity": 0.30708661417322836,
          "duration": 0.2777770000000004
        },
        {
          "name": "B2",
          "midi": 47,
          "time": 8.333310000000004,
          "velocity": 0.30708661417322836,
          "duration": 0.2777770000000004
        },
        {
          "name": "D3",
          "midi": 50,
          "time": 8.611087000000005,
          "velocity": 0.30708661417322836,
          "duration": 0.2777770000000004
        },
        {
          "name": "G2",
          "midi": 43,
          "time": 8.888864000000005,
          "velocity": 0.30708661417322836,
          "duration": 0.2777770000000004
        },
        {
          "name": "D3",
          "midi": 50,
          "time": 9.166641000000006,
          "velocity": 0.30708661417322836,
          "duration": 0.2777770000000004
        },
        {
          "name": "E3",
          "midi": 52,
          "time": 9.444418000000006,
          "velocity": 0.30708661417322836,
          "duration": 0.2777770000000004
        },
        {
          "name": "D3",
          "midi": 50,
          "time": 9.722195000000006,
          "velocity": 0.30708661417322836,
          "duration": 0.2777770000000004
        },
        {
          "name": "G2",
          "midi": 43,
          "time": 9.999972000000007,
          "velocity": 0.30708661417322836,
          "duration": 0.2777770000000004
        },
        {
          "name": "D3",
          "midi": 50,
          "time": 10.277749000000007,
          "velocity": 0.30708661417322836,
          "duration": 0.2777770000000004
        },
        {
          "name": "B2",
          "midi": 47,
          "time": 10.555526000000008,
          "velocity": 0.30708661417322836,
          "duration": 0.2777770000000004
        },
        {
          "name": "D3",
          "midi": 50,
          "time": 10.833303000000008,
          "velocity": 0.30708661417322836,
          "duration": 0.2777770000000004
        },
        {
          "name": "G2",
          "midi": 43,
          "time": 11.111080000000008,
          "velocity": 0.30708661417322836,
          "duration": 0.2777770000000004
        },
        {
          "name": "D3",
          "midi": 50,
          "time": 11.388857000000009,
          "velocity": 0.30708661417322836,
          "duration": 0.2777770000000004
        },
        {
          "name": "E3",
          "midi": 52,
          "time": 11.666634000000009,
          "velocity": 0.30708661417322836,
          "duration": 0.2777770000000004
        },
        {
          "name": "D3",
          "midi": 50,
          "time": 11.94441100000001,
          "velocity": 0.30708661417322836,
          "duration": 0.2777770000000004
        },
        {
          "name": "C3",
          "midi": 48,
          "time": 12.22218800000001,
          "velocity": 0.30708661417322836,
          "duration": 0.2777770000000004
        },
        {
          "name": "G3",
          "midi": 55,
          "time": 12.49996500000001,
          "velocity": 0.30708661417322836,
          "duration": 0.2777770000000004
        },
        {
          "name": "E3",
          "midi": 52,
          "time": 12.77774200000001,
          "velocity": 0.30708661417322836,
          "duration": 0.2777770000000004
        },
        {
          "name": "G3",
          "midi": 55,
          "time": 13.055519000000011,
          "velocity": 0.30708661417322836,
          "duration": 0.2777770000000004
        },
        {
          "name": "A2",
          "midi": 45,
          "time": 13.333296000000011,
          "velocity": 0.30708661417322836,
          "duration": 0.2777770000000004
        },
        {
          "name": "E3",
          "midi": 52,
          "time": 13.611073000000012,
          "velocity": 0.30708661417322836,
          "duration": 0.2777770000000004
        },
        {
          "name": "D3",
          "midi": 50,
          "time": 13.888850000000012,
          "velocity": 0.30708661417322836,
          "duration": 0.2777770000000004
        },
        {
          "name": "C3",
          "midi": 48,
          "time": 14.166627000000013,
          "velocity": 0.30708661417322836,
          "duration": 0.2777770000000004
        },
        {
          "name": "D3",
          "midi": 50,
          "time": 14.444404000000013,
          "velocity": 0.30708661417322836,
          "duration": 0.2777770000000004
        },
        {
          "name": "D3",
          "midi": 50,
          "time": 14.722181000000013,
          "velocity": 0.30708661417322836,
          "duration": 0.2777770000000004
        },
        {
          "name": "D3",
          "midi": 50,
          "time": 14.999958000000014,
          "velocity": 0.30708661417322836,
          "duration": 0.2777770000000004
        },
        {
          "name": "D3",
          "midi": 50,
          "time": 15.277735000000014,
          "velocity": 0.30708661417322836,
          "duration": 0.2777770000000004
        },
        {
          "name": "C3",
          "midi": 48,
          "time": 15.555512000000014,
          "velocity": 0.30708661417322836,
          "duration": 0.2777770000000004
        },
        {
          "name": "D3",
          "midi": 50,
          "time": 15.833289000000015,
          "velocity": 0.30708661417322836,
          "duration": 0.2777770000000004
        },
        {
          "name": "E3",
          "midi": 52,
          "time": 16.111066000000015,
          "velocity": 0.30708661417322836,
          "duration": 0.2777770000000004
        },
        {
          "name": "F#3",
          "midi": 54,
          "time": 16.388843000000016,
          "velocity": 0.30708661417322836,
          "duration": 0.2777770000000004
        },
        {
          "name": "G3",
          "midi": 55,
          "time": 16.666620000000016,
          "velocity": 0.30708661417322836,
          "duration": 0.2777770000000004
        },
        {
          "name": "D3",
          "midi": 50,
          "time": 16.944397000000016,
          "velocity": 0.30708661417322836,
          "duration": 0.2777770000000004
        },
        {
          "name": "G2",
          "midi": 43,
          "time": 17.222174000000017,
          "velocity": 0.30708661417322836,
          "duration": 0.2777770000000004
        },
        {
          "name": "G3",
          "midi": 55,
          "time": 17.777728000000018,
          "velocity": 0.30708661417322836,
          "duration": 0.2777770000000004
        },
        {
          "name": "G3",
          "midi": 55,
          "time": 18.33328200000002,
          "velocity": 0.30708661417322836,
          "duration": 0.2777770000000004
        },
        {
          "name": "G3",
          "midi": 55,
          "time": 18.88883600000002,
          "velocity": 0.30708661417322836,
          "duration": 0.2777770000000004
        },
        {
          "name": "G3",
          "midi": 55,
          "time": 19.44439000000002,
          "velocity": 0.30708661417322836,
          "duration": 0.2777770000000004
        },
        {
          "name": "G3",
          "midi": 55,
          "time": 19.99994400000002,
          "velocity": 0.30708661417322836,
          "duration": 0.2777770000000004
        },
        {
          "name": "G3",
          "midi": 55,
          "time": 20.55549800000002,
          "velocity": 0.30708661417322836,
          "duration": 0.2777770000000004
        },
        {
          "name": "G3",
          "midi": 55,
          "time": 21.111052000000022,
          "velocity": 0.30708661417322836,
          "duration": 0.2777770000000004
        },
        {
          "name": "F3",
          "midi": 53,
          "time": 21.666606000000023,
          "velocity": 0.30708661417322836,
          "duration": 0.2777770000000004
        },
        {
          "name": "E3",
          "midi": 52,
          "time": 22.222160000000024,
          "velocity": 0.30708661417322836,
          "duration": 0.2777770000000004
        },
        {
          "name": "E3",
          "midi": 52,
          "time": 22.777714000000024,
          "velocity": 0.30708661417322836,
          "duration": 0.2777770000000004
        },
        {
          "name": "D3",
          "midi": 50,
          "time": 23.333268000000025,
          "velocity": 0.30708661417322836,
          "duration": 0.2777770000000004
        },
        {
          "name": "D3",
          "midi": 50,
          "time": 23.888822000000026,
          "velocity": 0.30708661417322836,
          "duration": 0.2777770000000004
        },
        {
          "name": "C#3",
          "midi": 49,
          "time": 24.444376000000027,
          "velocity": 0.30708661417322836,
          "duration": 1.1111080000000015
        },
        {
          "name": "D3",
          "midi": 50,
          "time": 25.55548400000003,
          "velocity": 0.30708661417322836,
          "duration": 0.5555540000000008
        },
        {
          "name": "D3",
          "midi": 50,
          "time": 26.11103800000003,
          "velocity": 0.30708661417322836,
          "duration": 0.5555540000000008
        },
        {
          "name": "G3",
          "midi": 55,
          "time": 26.66659200000003,
          "velocity": 0.30708661417322836,
          "duration": 0.2777770000000004
        },
        {
          "name": "G3",
          "midi": 55,
          "time": 27.22214600000003,
          "velocity": 0.30708661417322836,
          "duration": 0.2777770000000004
        },
        {
          "name": "G3",
          "midi": 55,
          "time": 27.77770000000003,
          "velocity": 0.30708661417322836,
          "duration": 0.2777770000000004
        },
        {
          "name": "G3",
          "midi": 55,
          "time": 28.333254000000032,
          "velocity": 0.30708661417322836,
          "duration": 0.2777770000000004
        },
        {
          "name": "G3",
          "midi": 55,
          "time": 28.888808000000033,
          "velocity": 0.30708661417322836,
          "duration": 0.2777770000000004
        },
        {
          "name": "G3",
          "midi": 55,
          "time": 29.444362000000034,
          "velocity": 0.30708661417322836,
          "duration": 0.2777770000000004
        },
        {
          "name": "G3",
          "midi": 55,
          "time": 29.999916000000034,
          "velocity": 0.30708661417322836,
          "duration": 0.2777770000000004
        },
        {
          "name": "F3",
          "midi": 53,
          "time": 30.555470000000035,
          "velocity": 0.30708661417322836,
          "duration": 0.2777770000000004
        },
        {
          "name": "E3",
          "midi": 52,
          "time": 31.111024000000036,
          "velocity": 0.30708661417322836,
          "duration": 0.2777770000000004
        },
        {
          "name": "E3",
          "midi": 52,
          "time": 31.666578000000037,
          "velocity": 0.30708661417322836,
          "duration": 0.2777770000000004
        },
        {
          "name": "D3",
          "midi": 50,
          "time": 32.22213200000004,
          "velocity": 0.30708661417322836,
          "duration": 0.2777770000000004
        },
        {
          "name": "D3",
          "midi": 50,
          "time": 32.77768600000004,
          "velocity": 0.30708661417322836,
          "duration": 0.2777770000000004
        },
        {
          "name": "D3",
          "midi": 50,
          "time": 33.33324000000004,
          "velocity": 0.30708661417322836,
          "duration": 0.5555540000000008
        },
        {
          "name": "D3",
          "midi": 50,
          "time": 33.88879400000004,
          "velocity": 0.30708661417322836,
          "duration": 0.5555540000000008
        },
        {
          "name": "D3",
          "midi": 50,
          "time": 34.44434800000004,
          "velocity": 0.30708661417322836,
          "duration": 0.2777770000000004
        },
        {
          "name": "D3",
          "midi": 50,
          "time": 34.72212500000004,
          "velocity": 0.30708661417322836,
          "duration": 0.2777770000000004
        },
        {
          "name": "G2",
          "midi": 43,
          "time": 34.99990200000004,
          "velocity": 0.30708661417322836,
          "duration": 0.2777770000000004
        },
        {
          "name": "G2",
          "midi": 43,
          "time": 35.55545600000004,
          "velocity": 0.30708661417322836,
          "duration": 0.2777770000000004
        },
        {
          "name": "D3",
          "midi": 50,
          "time": 35.83323300000004,
          "velocity": 0.30708661417322836,
          "duration": 0.2777770000000004
        },
        {
          "name": "E3",
          "midi": 52,
          "time": 36.11101000000004,
          "velocity": 0.30708661417322836,
          "duration": 0.2777770000000004
        },
        {
          "name": "D3",
          "midi": 50,
          "time": 36.38878700000004,
          "velocity": 0.30708661417322836,
          "duration": 0.2777770000000004
        },
        {
          "name": "G2",
          "midi": 43,
          "time": 36.666564000000044,
          "velocity": 0.30708661417322836,
          "duration": 0.2777770000000004
        },
        {
          "name": "D3",
          "midi": 50,
          "time": 36.944341000000044,
          "velocity": 0.30708661417322836,
          "duration": 0.2777770000000004
        },
        {
          "name": "B2",
          "midi": 47,
          "time": 37.222118000000044,
          "velocity": 0.30708661417322836,
          "duration": 0.2777770000000004
        },
        {
          "name": "D3",
          "midi": 50,
          "time": 37.499895000000045,
          "velocity": 0.30708661417322836,
          "duration": 0.2777770000000004
        },
        {
          "name": "G2",
          "midi": 43,
          "time": 37.777672000000045,
          "velocity": 0.30708661417322836,
          "duration": 0.2777770000000004
        },
        {
          "name": "D3",
          "midi": 50,
          "time": 38.055449000000046,
          "velocity": 0.30708661417322836,
          "duration": 0.2777770000000004
        },
        {
          "name": "E3",
          "midi": 52,
          "time": 38.333226000000046,
          "velocity": 0.30708661417322836,
          "duration": 0.2777770000000004
        },
        {
          "name": "D3",
          "midi": 50,
          "time": 38.611003000000046,
          "velocity": 0.30708661417322836,
          "duration": 0.2777770000000004
        },
        {
          "name": "C3",
          "midi": 48,
          "time": 38.88878000000005,
          "velocity": 0.30708661417322836,
          "duration": 0.2777770000000004
        },
        {
          "name": "G3",
          "midi": 55,
          "time": 39.16655700000005,
          "velocity": 0.30708661417322836,
          "duration": 0.2777770000000004
        },
        {
          "name": "E3",
          "midi": 52,
          "time": 39.44433400000005,
          "velocity": 0.30708661417322836,
          "duration": 0.2777770000000004
        },
        {
          "name": "G3",
          "midi": 55,
          "time": 39.72211100000005,
          "velocity": 0.30708661417322836,
          "duration": 0.2777770000000004
        },
        {
          "name": "A2",
          "midi": 45,
          "time": 39.99988800000005,
          "velocity": 0.30708661417322836,
          "duration": 0.2777770000000004
        },
        {
          "name": "E3",
          "midi": 52,
          "time": 40.27766500000005,
          "velocity": 0.30708661417322836,
          "duration": 0.2777770000000004
        },
        {
          "name": "D3",
          "midi": 50,
          "time": 40.55544200000005,
          "velocity": 0.30708661417322836,
          "duration": 0.2777770000000004
        },
        {
          "name": "C3",
          "midi": 48,
          "time": 40.83321900000005,
          "velocity": 0.30708661417322836,
          "duration": 0.2777770000000004
        },
        {
          "name": "D3",
          "midi": 50,
          "time": 41.11099600000005,
          "velocity": 0.30708661417322836,
          "duration": 0.2777770000000004
        },
        {
          "name": "A2",
          "midi": 45,
          "time": 41.38877300000005,
          "velocity": 0.30708661417322836,
          "duration": 0.2777770000000004
        },
        {
          "name": "D2",
          "midi": 38,
          "time": 41.66655000000005,
          "velocity": 0.30708661417322836,
          "duration": 0.2777770000000004
        },
        {
          "name": "A2",
          "midi": 45,
          "time": 41.94432700000005,
          "velocity": 0.30708661417322836,
          "duration": 0.2777770000000004
        },
        {
          "name": "D3",
          "midi": 50,
          "time": 42.22210400000005,
          "velocity": 0.30708661417322836,
          "duration": 0.2777770000000004
        },
        {
          "name": "A2",
          "midi": 45,
          "time": 42.49988100000005,
          "velocity": 0.30708661417322836,
          "duration": 0.2777770000000004
        },
        {
          "name": "D2",
          "midi": 38,
          "time": 42.77765800000005,
          "velocity": 0.30708661417322836,
          "duration": 0.2777770000000004
        },
        {
          "name": "D3",
          "midi": 50,
          "time": 43.05543500000005,
          "velocity": 0.30708661417322836,
          "duration": 0.2777770000000004
        },
        {
          "name": "G2",
          "midi": 43,
          "time": 43.33321200000005,
          "velocity": 0.30708661417322836,
          "duration": 0.2777770000000004
        },
        {
          "name": "D3",
          "midi": 50,
          "time": 43.61098900000005,
          "velocity": 0.30708661417322836,
          "duration": 0.2777770000000004
        },
        {
          "name": "B2",
          "midi": 47,
          "time": 43.888766000000054,
          "velocity": 0.30708661417322836,
          "duration": 0.2777770000000004
        },
        {
          "name": "D3",
          "midi": 50,
          "time": 44.166543000000054,
          "velocity": 0.30708661417322836,
          "duration": 0.2777770000000004
        },
        {
          "name": "G2",
          "midi": 43,
          "time": 44.444320000000054,
          "velocity": 0.30708661417322836,
          "duration": 0.2777770000000004
        },
        {
          "name": "D3",
          "midi": 50,
          "time": 44.722097000000055,
          "velocity": 0.30708661417322836,
          "duration": 0.2777770000000004
        },
        {
          "name": "E3",
          "midi": 52,
          "time": 44.999874000000055,
          "velocity": 0.30708661417322836,
          "duration": 0.2777770000000004
        },
        {
          "name": "D3",
          "midi": 50,
          "time": 45.277651000000056,
          "velocity": 0.30708661417322836,
          "duration": 0.2777770000000004
        },
        {
          "name": "G2",
          "midi": 43,
          "time": 45.555428000000056,
          "velocity": 0.30708661417322836,
          "duration": 0.2777770000000004
        },
        {
          "name": "D3",
          "midi": 50,
          "time": 45.833205000000056,
          "velocity": 0.30708661417322836,
          "duration": 0.2777770000000004
        },
        {
          "name": "B2",
          "midi": 47,
          "time": 46.11098200000006,
          "velocity": 0.30708661417322836,
          "duration": 0.2777770000000004
        },
        {
          "name": "D3",
          "midi": 50,
          "time": 46.38875900000006,
          "velocity": 0.30708661417322836,
          "duration": 0.2777770000000004
        },
        {
          "name": "G2",
          "midi": 43,
          "time": 46.66653600000006,
          "velocity": 0.30708661417322836,
          "duration": 0.2777770000000004
        },
        {
          "name": "D3",
          "midi": 50,
          "time": 46.94431300000006,
          "velocity": 0.30708661417322836,
          "duration": 0.2777770000000004
        },
        {
          "name": "E3",
          "midi": 52,
          "time": 47.22209000000006,
          "velocity": 0.30708661417322836,
          "duration": 0.2777770000000004
        },
        {
          "name": "D3",
          "midi": 50,
          "time": 47.49986700000006,
          "velocity": 0.30708661417322836,
          "duration": 0.2777770000000004
        },
        {
          "name": "C3",
          "midi": 48,
          "time": 47.77764400000006,
          "velocity": 0.30708661417322836,
          "duration": 0.2777770000000004
        },
        {
          "name": "G3",
          "midi": 55,
          "time": 48.05542100000006,
          "velocity": 0.30708661417322836,
          "duration": 0.2777770000000004
        },
        {
          "name": "E3",
          "midi": 52,
          "time": 48.33319800000006,
          "velocity": 0.30708661417322836,
          "duration": 0.2777770000000004
        },
        {
          "name": "G3",
          "midi": 55,
          "time": 48.61097500000006,
          "velocity": 0.30708661417322836,
          "duration": 0.2777770000000004
        },
        {
          "name": "A2",
          "midi": 45,
          "time": 48.88875200000006,
          "velocity": 0.30708661417322836,
          "duration": 0.2777770000000004
        },
        {
          "name": "E3",
          "midi": 52,
          "time": 49.16652900000006,
          "velocity": 0.30708661417322836,
          "duration": 0.2777770000000004
        },
        {
          "name": "D3",
          "midi": 50,
          "time": 49.44430600000006,
          "velocity": 0.30708661417322836,
          "duration": 0.2777770000000004
        },
        {
          "name": "C3",
          "midi": 48,
          "time": 49.72208300000006,
          "velocity": 0.30708661417322836,
          "duration": 0.2777770000000004
        },
        {
          "name": "D3",
          "midi": 50,
          "time": 49.99986000000006,
          "velocity": 0.30708661417322836,
          "duration": 0.2777770000000004
        },
        {
          "name": "D3",
          "midi": 50,
          "time": 50.27763700000006,
          "velocity": 0.30708661417322836,
          "duration": 0.2777770000000004
        },
        {
          "name": "D3",
          "midi": 50,
          "time": 50.55541400000006,
          "velocity": 0.30708661417322836,
          "duration": 0.2777770000000004
        },
        {
          "name": "D3",
          "midi": 50,
          "time": 50.83319100000006,
          "velocity": 0.30708661417322836,
          "duration": 0.2777770000000004
        },
        {
          "name": "C3",
          "midi": 48,
          "time": 51.110968000000064,
          "velocity": 0.30708661417322836,
          "duration": 0.2777770000000004
        },
        {
          "name": "D3",
          "midi": 50,
          "time": 51.388745000000064,
          "velocity": 0.30708661417322836,
          "duration": 0.2777770000000004
        },
        {
          "name": "E3",
          "midi": 52,
          "time": 51.666522000000064,
          "velocity": 0.30708661417322836,
          "duration": 0.2777770000000004
        },
        {
          "name": "F#3",
          "midi": 54,
          "time": 51.944299000000065,
          "velocity": 0.30708661417322836,
          "duration": 0.2777770000000004
        },
        {
          "name": "G3",
          "midi": 55,
          "time": 52.222076000000065,
          "velocity": 0.30708661417322836,
          "duration": 0.2777770000000004
        },
        {
          "name": "D3",
          "midi": 50,
          "time": 52.499853000000066,
          "velocity": 0.30708661417322836,
          "duration": 0.2777770000000004
        },
        {
          "name": "G2",
          "midi": 43,
          "time": 52.777630000000066,
          "velocity": 0.30708661417322836,
          "duration": 0.2777770000000004
        },
        {
          "name": "G3",
          "midi": 55,
          "time": 53.33318400000007,
          "velocity": 0.30708661417322836,
          "duration": 0.2777770000000004
        },
        {
          "name": "G3",
          "midi": 55,
          "time": 53.88873800000007,
          "velocity": 0.30708661417322836,
          "duration": 0.2777770000000004
        },
        {
          "name": "G3",
          "midi": 55,
          "time": 54.44429200000007,
          "velocity": 0.30708661417322836,
          "duration": 0.2777770000000004
        },
        {
          "name": "G3",
          "midi": 55,
          "time": 54.99984600000007,
          "velocity": 0.30708661417322836,
          "duration": 0.2777770000000004
        },
        {
          "name": "G3",
          "midi": 55,
          "time": 55.55540000000007,
          "velocity": 0.30708661417322836,
          "duration": 0.2777770000000004
        },
        {
          "name": "G3",
          "midi": 55,
          "time": 56.11095400000007,
          "velocity": 0.30708661417322836,
          "duration": 0.2777770000000004
        },
        {
          "name": "G3",
          "midi": 55,
          "time": 56.66650800000007,
          "velocity": 0.30708661417322836,
          "duration": 0.2777770000000004
        },
        {
          "name": "F3",
          "midi": 53,
          "time": 57.22206200000007,
          "velocity": 0.30708661417322836,
          "duration": 0.2777770000000004
        },
        {
          "name": "E3",
          "midi": 52,
          "time": 57.77761600000007,
          "velocity": 0.30708661417322836,
          "duration": 0.2777770000000004
        },
        {
          "name": "E3",
          "midi": 52,
          "time": 58.333170000000074,
          "velocity": 0.30708661417322836,
          "duration": 0.2777770000000004
        },
        {
          "name": "D3",
          "midi": 50,
          "time": 58.888724000000074,
          "velocity": 0.30708661417322836,
          "duration": 0.2777770000000004
        },
        {
          "name": "D3",
          "midi": 50,
          "time": 59.444278000000075,
          "velocity": 0.30708661417322836,
          "duration": 0.2777770000000004
        },
        {
          "name": "C#3",
          "midi": 49,
          "time": 59.999832000000076,
          "velocity": 0.30708661417322836,
          "duration": 1.1111080000000015
        },
        {
          "name": "D3",
          "midi": 50,
          "time": 61.11094000000008,
          "velocity": 0.30708661417322836,
          "duration": 0.5555540000000008
        },
        {
          "name": "D3",
          "midi": 50,
          "time": 61.66649400000008,
          "velocity": 0.30708661417322836,
          "duration": 0.5555540000000008
        },
        {
          "name": "G3",
          "midi": 55,
          "time": 62.22204800000008,
          "velocity": 0.30708661417322836,
          "duration": 0.2777770000000004
        },
        {
          "name": "G3",
          "midi": 55,
          "time": 62.77760200000008,
          "velocity": 0.30708661417322836,
          "duration": 0.2777770000000004
        },
        {
          "name": "G3",
          "midi": 55,
          "time": 63.33315600000008,
          "velocity": 0.30708661417322836,
          "duration": 0.2777770000000004
        },
        {
          "name": "G3",
          "midi": 55,
          "time": 63.88871000000008,
          "velocity": 0.30708661417322836,
          "duration": 0.2777769999999933
        },
        {
          "name": "G3",
          "midi": 55,
          "time": 64.44426400000008,
          "velocity": 0.30708661417322836,
          "duration": 0.2777770000000004
        },
        {
          "name": "G3",
          "midi": 55,
          "time": 64.99981800000008,
          "velocity": 0.30708661417322836,
          "duration": 0.2777770000000004
        },
        {
          "name": "G3",
          "midi": 55,
          "time": 65.55537200000008,
          "velocity": 0.30708661417322836,
          "duration": 0.2777770000000004
        },
        {
          "name": "F3",
          "midi": 53,
          "time": 66.11092600000008,
          "velocity": 0.30708661417322836,
          "duration": 0.2777770000000004
        },
        {
          "name": "E3",
          "midi": 52,
          "time": 66.66648000000008,
          "velocity": 0.30708661417322836,
          "duration": 0.2777770000000004
        },
        {
          "name": "E3",
          "midi": 52,
          "time": 67.22203400000008,
          "velocity": 0.30708661417322836,
          "duration": 0.2777770000000004
        },
        {
          "name": "D3",
          "midi": 50,
          "time": 67.77758800000008,
          "velocity": 0.30708661417322836,
          "duration": 0.2777770000000004
        },
        {
          "name": "D3",
          "midi": 50,
          "time": 68.33314200000008,
          "velocity": 0.30708661417322836,
          "duration": 0.2777770000000004
        },
        {
          "name": "D3",
          "midi": 50,
          "time": 68.88869600000008,
          "velocity": 0.30708661417322836,
          "duration": 0.5555540000000008
        },
        {
          "name": "D3",
          "midi": 50,
          "time": 69.44425000000008,
          "velocity": 0.30708661417322836,
          "duration": 0.5555540000000008
        },
        {
          "name": "D3",
          "midi": 50,
          "time": 69.99980400000008,
          "velocity": 0.30708661417322836,
          "duration": 0.2777770000000004
        },
        {
          "name": "D3",
          "midi": 50,
          "time": 70.27758100000008,
          "velocity": 0.30708661417322836,
          "duration": 0.2777770000000004
        },
        {
          "name": "G2",
          "midi": 43,
          "time": 70.55535800000008,
          "velocity": 0.30708661417322836,
          "duration": 0.2777770000000004
        }
      ],
      "controlChanges": {},
      "id": 4,
      "channelNumber": 3,
      "isPercussion": false
    }
  ]
}
