{
  "header": {
    "PPQ": 96,
    "timeSignature": [
      4,
      4
    ],
    "bpm": 120,
    "name": "Christmas Song - Polka Style"
  },
  "startTime": 0,
  "duration": 123.56770833333347,
  "tracks": [
    {
      "startTime": 0,
      "duration": 0,
      "length": 0,
      "notes": [],
      "controlChanges": {},
      "id": 0,
      "name": "Christmas Song - Polka Style"
    },
    {
      "startTime": 12.03125,
      "duration": 116.91145833333339,
      "length": 410,
      "notes": [
        {
          "name": "C4",
          "midi": 60,
          "time": 12.03125,
          "velocity": 0.8976377952755905,
          "duration": 0.25
        },
        {
          "name": "A4",
          "midi": 69,
          "time": 12.260416666666666,
          "velocity": 0.8661417322834646,
          "duration": 0.11458333333333393
        },
        {
          "name": "G4",
          "midi": 67,
          "time": 12.515625,
          "velocity": 0.6456692913385826,
          "duration": 0.07291666666666607
        },
        {
          "name": "F4",
          "midi": 65,
          "time": 12.744791666666666,
          "velocity": 1,
          "duration": 0.08333333333333393
        },
        {
          "name": "C4",
          "midi": 60,
          "time": 13.010416666666666,
          "velocity": 0.9448818897637795,
          "duration": 0.07291666666666607
        },
        {
          "name": "C4",
          "midi": 60,
          "time": 14.031249999999998,
          "velocity": 0.8188976377952756,
          "duration": 0.13020833333333393
        },
        {
          "name": "A4",
          "midi": 69,
          "time": 14.244791666666666,
          "velocity": 0.8503937007874016,
          "duration": 0.109375
        },
        {
          "name": "G4",
          "midi": 67,
          "time": 14.489583333333332,
          "velocity": 0.8188976377952756,
          "duration": 0.09895833333333393
        },
        {
          "name": "F4",
          "midi": 65,
          "time": 14.734375,
          "velocity": 0.9921259842519685,
          "duration": 0.078125
        },
        {
          "name": "D4",
          "midi": 62,
          "time": 14.96875,
          "velocity": 1,
          "duration": 0.08333333333333393
        },
        {
          "name": "D4",
          "midi": 62,
          "time": 16.015625,
          "velocity": 0.9448818897637795,
          "duration": 0.171875
        },
        {
          "name": "A#4",
          "midi": 70,
          "time": 16.239583333333332,
          "velocity": 0.9133858267716536,
          "duration": 0.08854166666666785
        },
        {
          "name": "A4",
          "midi": 69,
          "time": 16.489583333333332,
          "velocity": 0.9448818897637795,
          "duration": 0.08854166666666785
        },
        {
          "name": "G4",
          "midi": 67,
          "time": 16.734375,
          "velocity": 0.9606299212598425,
          "duration": 0.08854166666666785
        },
        {
          "name": "E4",
          "midi": 64,
          "time": 16.984375,
          "velocity": 0.9606299212598425,
          "duration": 0.08854166666666785
        },
        {
          "name": "E4",
          "midi": 64,
          "time": 18.026041666666668,
          "velocity": 0.8503937007874016,
          "duration": 0.1041666666666643
        },
        {
          "name": "A#4",
          "midi": 70,
          "time": 18.03125,
          "velocity": 0.9606299212598425,
          "duration": 0.06770833333333215
        },
        {
          "name": "A#4",
          "midi": 70,
          "time": 18.265625,
          "velocity": 1,
          "duration": 0.078125
        },
        {
          "name": "E4",
          "midi": 64,
          "time": 18.270833333333332,
          "velocity": 0.8661417322834646,
          "duration": 0.0833333333333357
        },
        {
          "name": "G4",
          "midi": 67,
          "time": 18.515625,
          "velocity": 1,
          "duration": 0.08333333333333215
        },
        {
          "name": "E4",
          "midi": 64,
          "time": 18.520833333333332,
          "velocity": 0.9133858267716536,
          "duration": 0.08854166666666785
        },
        {
          "name": "G#4",
          "midi": 68,
          "time": 18.760416666666668,
          "velocity": 0.9921259842519685,
          "duration": 0.07291666666666785
        },
        {
          "name": "E4",
          "midi": 64,
          "time": 18.770833333333336,
          "velocity": 0.8661417322834646,
          "duration": 0.05729166666666785
        },
        {
          "name": "A4",
          "midi": 69,
          "time": 19.015625000000004,
          "velocity": 0.9921259842519685,
          "duration": 0.06770833333333215
        },
        {
          "name": "F4",
          "midi": 65,
          "time": 19.020833333333336,
          "velocity": 0.9921259842519685,
          "duration": 0.078125
        },
        {
          "name": "C4",
          "midi": 60,
          "time": 20.020833333333336,
          "velocity": 0.8503937007874016,
          "duration": 0.22916666666666785
        },
        {
          "name": "A4",
          "midi": 69,
          "time": 20.234375000000004,
          "velocity": 0.8976377952755905,
          "duration": 0.11979166666666785
        },
        {
          "name": "G4",
          "midi": 67,
          "time": 20.49479166666667,
          "velocity": 0.8503937007874016,
          "duration": 0.10416666666666785
        },
        {
          "name": "F4",
          "midi": 65,
          "time": 20.74479166666667,
          "velocity": 0.9448818897637795,
          "duration": 0.09895833333333215
        },
        {
          "name": "C4",
          "midi": 60,
          "time": 21.015625000000004,
          "velocity": 0.8976377952755905,
          "duration": 0.10416666666666785
        },
        {
          "name": "C4",
          "midi": 60,
          "time": 22.015625000000004,
          "velocity": 0.8661417322834646,
          "duration": 0.22395833333333215
        },
        {
          "name": "A4",
          "midi": 69,
          "time": 22.223958333333336,
          "velocity": 0.8503937007874016,
          "duration": 0.11458333333333215
        },
        {
          "name": "G4",
          "midi": 67,
          "time": 22.484375,
          "velocity": 0.9133858267716536,
          "duration": 0.08854166666666785
        },
        {
          "name": "F4",
          "midi": 65,
          "time": 22.739583333333336,
          "velocity": 0.9606299212598425,
          "duration": 0.08854166666666785
        },
        {
          "name": "D4",
          "midi": 62,
          "time": 22.989583333333336,
          "velocity": 0.9921259842519685,
          "duration": 0.09375
        },
        {
          "name": "D4",
          "midi": 62,
          "time": 24.026041666666668,
          "velocity": 0.9448818897637795,
          "duration": 0.21875
        },
        {
          "name": "A#4",
          "midi": 70,
          "time": 24.265625,
          "velocity": 0.8976377952755905,
          "duration": 0.09375
        },
        {
          "name": "A4",
          "midi": 69,
          "time": 24.5,
          "velocity": 0.7401574803149606,
          "duration": 0.08854166666666785
        },
        {
          "name": "G4",
          "midi": 67,
          "time": 24.744791666666668,
          "velocity": 0.9448818897637795,
          "duration": 0.13020833333333215
        },
        {
          "name": "E4",
          "midi": 64,
          "time": 24.989583333333332,
          "velocity": 0.8976377952755905,
          "duration": 0.10416666666666785
        },
        {
          "name": "C5",
          "midi": 72,
          "time": 25.015625,
          "velocity": 0.9133858267716536,
          "duration": 0.078125
        },
        {
          "name": "E4",
          "midi": 64,
          "time": 25.260416666666668,
          "velocity": 0.8976377952755905,
          "duration": 0.08333333333333215
        },
        {
          "name": "C5",
          "midi": 72,
          "time": 25.265625,
          "velocity": 0.9133858267716536,
          "duration": 0.0625
        },
        {
          "name": "C5",
          "midi": 72,
          "time": 25.510416666666668,
          "velocity": 0.9921259842519685,
          "duration": 0.34375
        },
        {
          "name": "E4",
          "midi": 64,
          "time": 25.515625,
          "velocity": 0.9448818897637795,
          "duration": 0.26041666666666785
        },
        {
          "name": "E4",
          "midi": 64,
          "time": 25.885416666666668,
          "velocity": 0.8661417322834646,
          "duration": 0.2291666666666643
        },
        {
          "name": "A#4",
          "midi": 70,
          "time": 25.885416666666668,
          "velocity": 0.8976377952755905,
          "duration": 0.171875
        },
        {
          "name": "D5",
          "midi": 74,
          "time": 26.015625,
          "velocity": 0.9606299212598425,
          "duration": 0.09375
        },
        {
          "name": "E4",
          "midi": 64,
          "time": 26.25,
          "velocity": 0.6929133858267716,
          "duration": 0.09375
        },
        {
          "name": "C5",
          "midi": 72,
          "time": 26.265625,
          "velocity": 0.9133858267716536,
          "duration": 0.08854166666666785
        },
        {
          "name": "A#4",
          "midi": 70,
          "time": 26.5,
          "velocity": 0.9921259842519685,
          "duration": 0.08854166666666785
        },
        {
          "name": "G4",
          "midi": 67,
          "time": 26.723958333333336,
          "velocity": 0.9133858267716536,
          "duration": 0.140625
        },
        {
          "name": "F4",
          "midi": 65,
          "time": 26.994791666666668,
          "velocity": 1,
          "duration": 1.0572916666666679
        },
        {
          "name": "A4",
          "midi": 69,
          "time": 28.270833333333336,
          "velocity": 1,
          "duration": 0.0416666666666643
        },
        {
          "name": "F4",
          "midi": 65,
          "time": 28.276041666666668,
          "velocity": 0.9606299212598425,
          "duration": 0.0416666666666643
        },
        {
          "name": "F4",
          "midi": 65,
          "time": 28.5,
          "velocity": 0.9606299212598425,
          "duration": 0.0677083333333357
        },
        {
          "name": "A4",
          "midi": 69,
          "time": 28.515625,
          "velocity": 1,
          "duration": 0.04166666666666785
        },
        {
          "name": "A4",
          "midi": 69,
          "time": 29.015625000000004,
          "velocity": 0.8976377952755905,
          "duration": 0.0625
        },
        {
          "name": "F4",
          "midi": 65,
          "time": 29.015625000000004,
          "velocity": 0.8976377952755905,
          "duration": 0.06770833333333215
        },
        {
          "name": "A4",
          "midi": 69,
          "time": 29.244791666666668,
          "velocity": 1,
          "duration": 0.0677083333333357
        },
        {
          "name": "F4",
          "midi": 65,
          "time": 29.270833333333336,
          "velocity": 0.8976377952755905,
          "duration": 0.04166666666666785
        },
        {
          "name": "A4",
          "midi": 69,
          "time": 29.49479166666667,
          "velocity": 0.9606299212598425,
          "duration": 0.06249999999999645
        },
        {
          "name": "F4",
          "midi": 65,
          "time": 29.515625000000004,
          "velocity": 0.7874015748031497,
          "duration": 0.03645833333333215
        },
        {
          "name": "A4",
          "midi": 69,
          "time": 30.036458333333336,
          "velocity": 0.9606299212598425,
          "duration": 0.21354166666666785
        },
        {
          "name": "C5",
          "midi": 72,
          "time": 30.27604166666667,
          "velocity": 0.8503937007874016,
          "duration": 0.11979166666666785
        },
        {
          "name": "F4",
          "midi": 65,
          "time": 30.515625000000007,
          "velocity": 0.9448818897637795,
          "duration": 0.125
        },
        {
          "name": "G4",
          "midi": 67,
          "time": 30.713541666666675,
          "velocity": 0.9606299212598425,
          "duration": 0.171875
        },
        {
          "name": "F4",
          "midi": 65,
          "time": 31.026041666666675,
          "velocity": 0.9133858267716536,
          "duration": 0.08333333333333215
        },
        {
          "name": "A4",
          "midi": 69,
          "time": 31.026041666666675,
          "velocity": 0.9448818897637795,
          "duration": 0.0885416666666643
        },
        {
          "name": "D4",
          "midi": 62,
          "time": 32.02604166666667,
          "velocity": 0.8976377952755905,
          "duration": 0.09375
        },
        {
          "name": "A#4",
          "midi": 70,
          "time": 32.02604166666667,
          "velocity": 0.8976377952755905,
          "duration": 0.0833333333333357
        },
        {
          "name": "D4",
          "midi": 62,
          "time": 32.26041666666667,
          "velocity": 0.9133858267716536,
          "duration": 0.0833333333333357
        },
        {
          "name": "A#4",
          "midi": 70,
          "time": 32.26562500000001,
          "velocity": 0.8976377952755905,
          "duration": 0.0625
        },
        {
          "name": "D4",
          "midi": 62,
          "time": 32.51562500000001,
          "velocity": 0.9921259842519685,
          "duration": 0.265625
        },
        {
          "name": "A#4",
          "midi": 70,
          "time": 32.51562500000001,
          "velocity": 1,
          "duration": 0.2864583333333357
        },
        {
          "name": "D4",
          "midi": 62,
          "time": 32.86979166666668,
          "velocity": 0.7401574803149606,
          "duration": 0.2239583333333357
        },
        {
          "name": "A#4",
          "midi": 70,
          "time": 32.86979166666668,
          "velocity": 0.8346456692913385,
          "duration": 0.078125
        },
        {
          "name": "A#4",
          "midi": 70,
          "time": 32.97916666666668,
          "velocity": 0.8188976377952756,
          "duration": 0.1197916666666714
        },
        {
          "name": "C4",
          "midi": 60,
          "time": 33.234375000000014,
          "velocity": 0.8661417322834646,
          "duration": 0.0885416666666714
        },
        {
          "name": "A4",
          "midi": 69,
          "time": 33.23958333333335,
          "velocity": 0.9448818897637795,
          "duration": 0.078125
        },
        {
          "name": "C4",
          "midi": 60,
          "time": 33.51562500000002,
          "velocity": 0.8976377952755905,
          "duration": 0.25
        },
        {
          "name": "A4",
          "midi": 69,
          "time": 33.51562500000002,
          "velocity": 0.9921259842519685,
          "duration": 0.4166666666666714
        },
        {
          "name": "C4",
          "midi": 60,
          "time": 33.86458333333336,
          "velocity": 0.8188976377952756,
          "duration": 0.1979166666666643
        },
        {
          "name": "A4",
          "midi": 69,
          "time": 33.97395833333336,
          "velocity": 0.9606299212598425,
          "duration": 0.1302083333333286
        },
        {
          "name": "B3",
          "midi": 59,
          "time": 34.229166666666686,
          "velocity": 0.9448818897637795,
          "duration": 0.0833333333333357
        },
        {
          "name": "G4",
          "midi": 67,
          "time": 34.229166666666686,
          "velocity": 0.9606299212598425,
          "duration": 0.09375
        },
        {
          "name": "G4",
          "midi": 67,
          "time": 34.510416666666686,
          "velocity": 0.9606299212598425,
          "duration": 0.109375
        },
        {
          "name": "B3",
          "midi": 59,
          "time": 34.510416666666686,
          "velocity": 0.9133858267716536,
          "duration": 0.0989583333333357
        },
        {
          "name": "A4",
          "midi": 69,
          "time": 34.760416666666686,
          "velocity": 0.9448818897637795,
          "duration": 0.1041666666666643
        },
        {
          "name": "B3",
          "midi": 59,
          "time": 34.760416666666686,
          "velocity": 0.7401574803149606,
          "duration": 0.0729166666666643
        },
        {
          "name": "G4",
          "midi": 67,
          "time": 35.02083333333335,
          "velocity": 0.9606299212598425,
          "duration": 0.0833333333333357
        },
        {
          "name": "E4",
          "midi": 64,
          "time": 35.526041666666686,
          "velocity": 0.9133858267716536,
          "duration": 0.0833333333333357
        },
        {
          "name": "C5",
          "midi": 72,
          "time": 35.53125000000002,
          "velocity": 0.9921259842519685,
          "duration": 0.0885416666666643
        },
        {
          "name": "F4",
          "midi": 65,
          "time": 36.01562500000002,
          "velocity": 0.8503937007874016,
          "duration": 0.0833333333333357
        },
        {
          "name": "A4",
          "midi": 69,
          "time": 36.026041666666686,
          "velocity": 0.8661417322834646,
          "duration": 0.0677083333333357
        },
        {
          "name": "A4",
          "midi": 69,
          "time": 36.26041666666669,
          "velocity": 0.9133858267716536,
          "duration": 0.0625
        },
        {
          "name": "F4",
          "midi": 65,
          "time": 36.26562500000003,
          "velocity": 0.8346456692913385,
          "duration": 0.0572916666666643
        },
        {
          "name": "F4",
          "midi": 65,
          "time": 36.51562500000003,
          "velocity": 0.9448818897637795,
          "duration": 0.0729166666666714
        },
        {
          "name": "A4",
          "midi": 69,
          "time": 36.51562500000003,
          "velocity": 0.9921259842519685,
          "duration": 0.0677083333333357
        },
        {
          "name": "C4",
          "midi": 60,
          "time": 37.0104166666667,
          "velocity": 0.8346456692913385,
          "duration": 0.0833333333333357
        },
        {
          "name": "A4",
          "midi": 69,
          "time": 37.0104166666667,
          "velocity": 0.9133858267716536,
          "duration": 0.0833333333333357
        },
        {
          "name": "A4",
          "midi": 69,
          "time": 37.265625000000036,
          "velocity": 0.9448818897637795,
          "duration": 0.0625
        },
        {
          "name": "C4",
          "midi": 60,
          "time": 37.265625000000036,
          "velocity": 0.8346456692913385,
          "duration": 0.0625
        },
        {
          "name": "A4",
          "midi": 69,
          "time": 37.500000000000036,
          "velocity": 0.9921259842519685,
          "duration": 0.09375
        },
        {
          "name": "C4",
          "midi": 60,
          "time": 37.515625000000036,
          "velocity": 0.8346456692913385,
          "duration": 0.0520833333333357
        },
        {
          "name": "A4",
          "midi": 69,
          "time": 37.97395833333337,
          "velocity": 0.8503937007874016,
          "duration": 0.2916666666666643
        },
        {
          "name": "C5",
          "midi": 72,
          "time": 38.23958333333337,
          "velocity": 0.7874015748031497,
          "duration": 0.09375
        },
        {
          "name": "F4",
          "midi": 65,
          "time": 38.48958333333337,
          "velocity": 0.8976377952755905,
          "duration": 0.09375
        },
        {
          "name": "G4",
          "midi": 67,
          "time": 38.750000000000036,
          "velocity": 0.9448818897637795,
          "duration": 0.0833333333333357
        },
        {
          "name": "F4",
          "midi": 65,
          "time": 38.96354166666671,
          "velocity": 0.9133858267716536,
          "duration": 0.1041666666666643
        },
        {
          "name": "A4",
          "midi": 69,
          "time": 38.96354166666671,
          "velocity": 0.9921259842519685,
          "duration": 0.109375
        },
        {
          "name": "A#4",
          "midi": 70,
          "time": 40.02083333333337,
          "velocity": 0.9133858267716536,
          "duration": 0.057291666666671404
        },
        {
          "name": "D4",
          "midi": 62,
          "time": 40.02083333333337,
          "velocity": 0.8976377952755905,
          "duration": 0.0625000000000071
        },
        {
          "name": "F4",
          "midi": 65,
          "time": 40.02604166666671,
          "velocity": 0.7874015748031497,
          "duration": 0.03125
        },
        {
          "name": "A#4",
          "midi": 70,
          "time": 40.26562500000004,
          "velocity": 0.9606299212598425,
          "duration": 0.0416666666666643
        },
        {
          "name": "D4",
          "midi": 62,
          "time": 40.26562500000004,
          "velocity": 0.9133858267716536,
          "duration": 0.0416666666666643
        },
        {
          "name": "A#4",
          "midi": 70,
          "time": 40.51562500000004,
          "velocity": 1,
          "duration": 0.3020833333333357
        },
        {
          "name": "D4",
          "midi": 62,
          "time": 40.51562500000004,
          "velocity": 0.9606299212598425,
          "duration": 0.2864583333333357
        },
        {
          "name": "D4",
          "midi": 62,
          "time": 40.88020833333338,
          "velocity": 0.7874015748031497,
          "duration": 0.2291666666666714
        },
        {
          "name": "A#4",
          "midi": 70,
          "time": 40.885416666666714,
          "velocity": 0.7716535433070866,
          "duration": 0.21875
        },
        {
          "name": "C4",
          "midi": 60,
          "time": 41.239583333333385,
          "velocity": 0.9606299212598425,
          "duration": 0.0833333333333357
        },
        {
          "name": "A4",
          "midi": 69,
          "time": 41.239583333333385,
          "velocity": 0.9448818897637795,
          "duration": 0.0885416666666714
        },
        {
          "name": "C4",
          "midi": 60,
          "time": 41.51562500000006,
          "velocity": 0.9448818897637795,
          "duration": 0.2135416666666643
        },
        {
          "name": "A4",
          "midi": 69,
          "time": 41.51562500000006,
          "velocity": 0.9921259842519685,
          "duration": 0.4479166666666643
        },
        {
          "name": "E4",
          "midi": 64,
          "time": 41.895833333333385,
          "velocity": 0.8503937007874016,
          "duration": 0.2395833333333357
        },
        {
          "name": "C5",
          "midi": 72,
          "time": 42.01562500000006,
          "velocity": 0.8661417322834646,
          "duration": 0.09375
        },
        {
          "name": "A#4",
          "midi": 70,
          "time": 42.25000000000006,
          "velocity": 0.9448818897637795,
          "duration": 0.078125
        },
        {
          "name": "E4",
          "midi": 64,
          "time": 42.25000000000006,
          "velocity": 0.7401574803149606,
          "duration": 0.0729166666666643
        },
        {
          "name": "A4",
          "midi": 69,
          "time": 42.52083333333339,
          "velocity": 0.8503937007874016,
          "duration": 0.0833333333333357
        },
        {
          "name": "G4",
          "midi": 67,
          "time": 42.73958333333339,
          "velocity": 0.9448818897637795,
          "duration": 0.09375
        },
        {
          "name": "F4",
          "midi": 65,
          "time": 43.01562500000006,
          "velocity": 1,
          "duration": 1.0208333333333357
        },
        {
          "name": "C4",
          "midi": 60,
          "time": 44.03645833333339,
          "velocity": 0.8661417322834646,
          "duration": 0.3177083333333357
        },
        {
          "name": "A4",
          "midi": 69,
          "time": 44.29166666666673,
          "velocity": 0.7244094488188977,
          "duration": 0.078125
        },
        {
          "name": "G4",
          "midi": 67,
          "time": 44.515625000000064,
          "velocity": 0.8661417322834646,
          "duration": 0.0625
        },
        {
          "name": "F4",
          "midi": 65,
          "time": 44.718750000000064,
          "velocity": 0.9921259842519685,
          "duration": 0.0885416666666643
        },
        {
          "name": "C4",
          "midi": 60,
          "time": 44.984375000000064,
          "velocity": 0.8346456692913385,
          "duration": 0.09375
        },
        {
          "name": "C4",
          "midi": 60,
          "time": 46.04166666666673,
          "velocity": 0.8503937007874016,
          "duration": 0.3333333333333357
        },
        {
          "name": "A4",
          "midi": 69,
          "time": 46.4114583333334,
          "velocity": 0.6771653543307087,
          "duration": 0.1354166666666643
        },
        {
          "name": "G4",
          "midi": 67,
          "time": 46.515625000000064,
          "velocity": 0.8976377952755905,
          "duration": 0.1770833333333357
        },
        {
          "name": "F4",
          "midi": 65,
          "time": 46.776041666666735,
          "velocity": 0.9448818897637795,
          "duration": 0.109375
        },
        {
          "name": "D4",
          "midi": 62,
          "time": 47.0208333333334,
          "velocity": 0.9448818897637795,
          "duration": 0.1041666666666643
        },
        {
          "name": "D4",
          "midi": 62,
          "time": 48.02604166666673,
          "velocity": 0.9448818897637795,
          "duration": 0.2447916666666643
        },
        {
          "name": "A#4",
          "midi": 70,
          "time": 48.24479166666673,
          "velocity": 0.8976377952755905,
          "duration": 0.1041666666666643
        },
        {
          "name": "A4",
          "midi": 69,
          "time": 48.50000000000006,
          "velocity": 0.8661417322834646,
          "duration": 0.0833333333333357
        },
        {
          "name": "G4",
          "midi": 67,
          "time": 48.74479166666673,
          "velocity": 1,
          "duration": 0.0885416666666643
        },
        {
          "name": "E4",
          "midi": 64,
          "time": 48.97916666666673,
          "velocity": 0.9921259842519685,
          "duration": 0.0989583333333357
        },
        {
          "name": "E4",
          "midi": 64,
          "time": 49.921875000000064,
          "velocity": 0.8188976377952756,
          "duration": 0.1770833333333357
        },
        {
          "name": "G4",
          "midi": 67,
          "time": 49.96354166666673,
          "velocity": 0.8976377952755905,
          "duration": 0.0989583333333357
        },
        {
          "name": "C5",
          "midi": 72,
          "time": 50.04166666666673,
          "velocity": 0.9606299212598425,
          "duration": 0.0781250000000071
        },
        {
          "name": "E4",
          "midi": 64,
          "time": 50.2708333333334,
          "velocity": 0.8503937007874016,
          "duration": 0.0729166666666714
        },
        {
          "name": "C5",
          "midi": 72,
          "time": 50.276041666666735,
          "velocity": 0.9921259842519685,
          "duration": 0.09375
        },
        {
          "name": "E4",
          "midi": 64,
          "time": 50.51562500000007,
          "velocity": 0.8661417322834646,
          "duration": 0.09375
        },
        {
          "name": "A#4",
          "midi": 70,
          "time": 50.52083333333341,
          "velocity": 1,
          "duration": 0.0729166666666643
        },
        {
          "name": "G#4",
          "midi": 68,
          "time": 50.77083333333341,
          "velocity": 1,
          "duration": 0.0625
        },
        {
          "name": "E4",
          "midi": 64,
          "time": 50.77083333333341,
          "velocity": 0.8503937007874016,
          "duration": 0.0677083333333357
        },
        {
          "name": "A4",
          "midi": 69,
          "time": 51.01562500000008,
          "velocity": 0.9921259842519685,
          "duration": 0.078125
        },
        {
          "name": "C4",
          "midi": 60,
          "time": 52.020833333333414,
          "velocity": 0.9606299212598425,
          "duration": 0.2552083333333357
        },
        {
          "name": "A4",
          "midi": 69,
          "time": 52.27604166666675,
          "velocity": 0.8661417322834646,
          "duration": 0.078125
        },
        {
          "name": "G4",
          "midi": 67,
          "time": 52.515625000000085,
          "velocity": 0.7874015748031497,
          "duration": 0.0677083333333357
        },
        {
          "name": "F4",
          "midi": 65,
          "time": 52.77604166666676,
          "velocity": 0.9921259842519685,
          "duration": 0.0677083333333357
        },
        {
          "name": "C4",
          "midi": 60,
          "time": 53.01562500000009,
          "velocity": 0.9448818897637795,
          "duration": 0.0989583333333357
        },
        {
          "name": "C4",
          "midi": 60,
          "time": 54.02083333333343,
          "velocity": 0.8976377952755905,
          "duration": 0.25
        },
        {
          "name": "A4",
          "midi": 69,
          "time": 54.23958333333343,
          "velocity": 0.8503937007874016,
          "duration": 0.109375
        },
        {
          "name": "G4",
          "midi": 67,
          "time": 54.510416666666764,
          "velocity": 0.8661417322834646,
          "duration": 0.078125
        },
        {
          "name": "F4",
          "midi": 65,
          "time": 54.7500000000001,
          "velocity": 0.9606299212598425,
          "duration": 0.0833333333333357
        },
        {
          "name": "D4",
          "midi": 62,
          "time": 55.0156250000001,
          "velocity": 0.9921259842519685,
          "duration": 0.0885416666666643
        },
        {
          "name": "D4",
          "midi": 62,
          "time": 56.02083333333343,
          "velocity": 0.9606299212598425,
          "duration": 0.296875
        },
        {
          "name": "A#4",
          "midi": 70,
          "time": 56.27083333333343,
          "velocity": 0.8976377952755905,
          "duration": 0.078125
        },
        {
          "name": "A4",
          "midi": 69,
          "time": 56.51562500000009,
          "velocity": 0.8661417322834646,
          "duration": 0.0989583333333357
        },
        {
          "name": "G4",
          "midi": 67,
          "time": 56.77083333333343,
          "velocity": 0.9921259842519685,
          "duration": 0.1145833333333357
        },
        {
          "name": "E4",
          "midi": 64,
          "time": 56.9062500000001,
          "velocity": 0.9448818897637795,
          "duration": 0.1458333333333357
        },
        {
          "name": "C5",
          "midi": 72,
          "time": 57.0156250000001,
          "velocity": 0.9921259842519685,
          "duration": 0.0885416666666714
        },
        {
          "name": "E4",
          "midi": 64,
          "time": 57.27604166666677,
          "velocity": 0.9133858267716536,
          "duration": 0.0677083333333357
        },
        {
          "name": "C5",
          "midi": 72,
          "time": 57.27604166666677,
          "velocity": 0.9606299212598425,
          "duration": 0.0729166666666714
        },
        {
          "name": "C5",
          "midi": 72,
          "time": 57.51562500000011,
          "velocity": 1,
          "duration": 0.3177083333333357
        },
        {
          "name": "E4",
          "midi": 64,
          "time": 57.51562500000011,
          "velocity": 0.9448818897637795,
          "duration": 0.8385416666666643
        },
        {
          "name": "A#4",
          "midi": 70,
          "time": 57.88020833333344,
          "velocity": 0.9133858267716536,
          "duration": 0.15625
        },
        {
          "name": "D5",
          "midi": 74,
          "time": 57.99479166666678,
          "velocity": 0.9133858267716536,
          "duration": 0.0989583333333286
        },
        {
          "name": "C5",
          "midi": 72,
          "time": 58.27604166666677,
          "velocity": 0.9921259842519685,
          "duration": 0.0833333333333357
        },
        {
          "name": "A#4",
          "midi": 70,
          "time": 58.51562500000011,
          "velocity": 0.9921259842519685,
          "duration": 0.078125
        },
        {
          "name": "G4",
          "midi": 67,
          "time": 58.74479166666677,
          "velocity": 0.9921259842519685,
          "duration": 0.1041666666666643
        },
        {
          "name": "F4",
          "midi": 65,
          "time": 59.0156250000001,
          "velocity": 1,
          "duration": 0.9166666666666714
        },
        {
          "name": "C5",
          "midi": 72,
          "time": 59.520833333333435,
          "velocity": 0.9921259842519685,
          "duration": 0.4479166666666714
        },
        {
          "name": "F4",
          "midi": 65,
          "time": 60.02083333333344,
          "velocity": 0.9133858267716536,
          "duration": 0.09375
        },
        {
          "name": "A4",
          "midi": 69,
          "time": 60.02604166666678,
          "velocity": 0.9448818897637795,
          "duration": 0.078125
        },
        {
          "name": "A4",
          "midi": 69,
          "time": 60.27083333333344,
          "velocity": 1,
          "duration": 0.0729166666666643
        },
        {
          "name": "F4",
          "midi": 65,
          "time": 60.27083333333344,
          "velocity": 0.9606299212598425,
          "duration": 0.078125
        },
        {
          "name": "F4",
          "midi": 65,
          "time": 60.52604166666678,
          "velocity": 0.9921259842519685,
          "duration": 0.0677083333333286
        },
        {
          "name": "A4",
          "midi": 69,
          "time": 60.52604166666678,
          "velocity": 1,
          "duration": 0.0572916666666643
        },
        {
          "name": "C4",
          "midi": 60,
          "time": 61.03125000000011,
          "velocity": 0.8976377952755905,
          "duration": 0.0885416666666714
        },
        {
          "name": "A4",
          "midi": 69,
          "time": 61.03645833333344,
          "velocity": 0.9133858267716536,
          "duration": 0.0677083333333357
        },
        {
          "name": "F4",
          "midi": 65,
          "time": 61.04166666666678,
          "velocity": 0.9133858267716536,
          "duration": 0.0625
        },
        {
          "name": "C4",
          "midi": 60,
          "time": 61.27083333333344,
          "velocity": 0.8976377952755905,
          "duration": 0.0520833333333357
        },
        {
          "name": "F4",
          "midi": 65,
          "time": 61.27083333333344,
          "velocity": 0.9606299212598425,
          "duration": 0.041666666666671404
        },
        {
          "name": "A4",
          "midi": 69,
          "time": 61.27083333333344,
          "velocity": 0.9606299212598425,
          "duration": 0.0364583333333357
        },
        {
          "name": "F4",
          "midi": 65,
          "time": 61.52083333333344,
          "velocity": 1,
          "duration": 0.046875
        },
        {
          "name": "A4",
          "midi": 69,
          "time": 61.52083333333344,
          "velocity": 0.9921259842519685,
          "duration": 0.0677083333333357
        },
        {
          "name": "C4",
          "midi": 60,
          "time": 61.52604166666678,
          "velocity": 0.7559055118110236,
          "duration": 0.026041666666664298
        },
        {
          "name": "A4",
          "midi": 69,
          "time": 61.98958333333344,
          "velocity": 0.9448818897637795,
          "duration": 0.2812500000000071
        },
        {
          "name": "F4",
          "midi": 65,
          "time": 61.99479166666678,
          "velocity": 0.7874015748031497,
          "duration": 0.0520833333333357
        },
        {
          "name": "C5",
          "midi": 72,
          "time": 62.27083333333345,
          "velocity": 0.8976377952755905,
          "duration": 0.0520833333333357
        },
        {
          "name": "F4",
          "midi": 65,
          "time": 62.51562500000012,
          "velocity": 0.9921259842519685,
          "duration": 0.0885416666666643
        },
        {
          "name": "G4",
          "midi": 67,
          "time": 62.776041666666785,
          "velocity": 1,
          "duration": 0.0520833333333357
        },
        {
          "name": "A4",
          "midi": 69,
          "time": 63.01562500000012,
          "velocity": 0.9606299212598425,
          "duration": 0.28125
        },
        {
          "name": "F4",
          "midi": 65,
          "time": 63.27083333333346,
          "velocity": 0.9133858267716536,
          "duration": 0.1197916666666643
        },
        {
          "name": "E4",
          "midi": 64,
          "time": 63.52083333333346,
          "velocity": 0.9448818897637795,
          "duration": 0.0833333333333357
        },
        {
          "name": "D#4",
          "midi": 63,
          "time": 63.77083333333346,
          "velocity": 0.9606299212598425,
          "duration": 0.0572916666666643
        },
        {
          "name": "D4",
          "midi": 62,
          "time": 64.02083333333346,
          "velocity": 0.9921259842519685,
          "duration": 0.8020833333333428
        },
        {
          "name": "A#4",
          "midi": 70,
          "time": 64.22395833333346,
          "velocity": 0.9133858267716536,
          "duration": 0.0885416666666714
        },
        {
          "name": "A#4",
          "midi": 70,
          "time": 64.5260416666668,
          "velocity": 1,
          "duration": 0.2864583333333286
        },
        {
          "name": "D4",
          "midi": 62,
          "time": 64.8697916666668,
          "velocity": 0.8188976377952756,
          "duration": 0.234375
        },
        {
          "name": "A#4",
          "midi": 70,
          "time": 65.0104166666668,
          "velocity": 0.8976377952755905,
          "duration": 0.0833333333333286
        },
        {
          "name": "C4",
          "midi": 60,
          "time": 65.2604166666668,
          "velocity": 0.8976377952755905,
          "duration": 0.0833333333333286
        },
        {
          "name": "A4",
          "midi": 69,
          "time": 65.27083333333347,
          "velocity": 0.9448818897637795,
          "duration": 0.0677083333333286
        },
        {
          "name": "C4",
          "midi": 60,
          "time": 65.51562500000013,
          "velocity": 0.9606299212598425,
          "duration": 0.2864583333333286
        },
        {
          "name": "A4",
          "midi": 69,
          "time": 65.52083333333346,
          "velocity": 0.9448818897637795,
          "duration": 0.4114583333333286
        },
        {
          "name": "C4",
          "midi": 60,
          "time": 65.86458333333346,
          "velocity": 0.8503937007874016,
          "duration": 0.1562499999999858
        },
        {
          "name": "A4",
          "midi": 69,
          "time": 65.96875000000011,
          "velocity": 0.8503937007874016,
          "duration": 0.3020833333333286
        },
        {
          "name": "B3",
          "midi": 59,
          "time": 66.22916666666677,
          "velocity": 0.9606299212598425,
          "duration": 0.109375
        },
        {
          "name": "G4",
          "midi": 67,
          "time": 66.26041666666677,
          "velocity": 0.9448818897637795,
          "duration": 0.057291666666671404
        },
        {
          "name": "B3",
          "midi": 59,
          "time": 66.48958333333344,
          "velocity": 0.8661417322834646,
          "duration": 0.3645833333333144
        },
        {
          "name": "G4",
          "midi": 67,
          "time": 66.48958333333344,
          "velocity": 0.9133858267716536,
          "duration": 0.1302083333333286
        },
        {
          "name": "A4",
          "midi": 69,
          "time": 66.7343750000001,
          "velocity": 0.8976377952755905,
          "duration": 0.1458333333333286
        },
        {
          "name": "G4",
          "midi": 67,
          "time": 66.7343750000001,
          "velocity": 0.8346456692913385,
          "duration": 0.0677083333333286
        },
        {
          "name": "G4",
          "midi": 67,
          "time": 67.02083333333343,
          "velocity": 0.9606299212598425,
          "duration": 0.3958333333333286
        },
        {
          "name": "E4",
          "midi": 64,
          "time": 67.02604166666676,
          "velocity": 0.9448818897637795,
          "duration": 0.4114583333333286
        },
        {
          "name": "E4",
          "midi": 64,
          "time": 67.50000000000009,
          "velocity": 0.8976377952755905,
          "duration": 0.3958333333333286
        },
        {
          "name": "C5",
          "midi": 72,
          "time": 67.52083333333341,
          "velocity": 1,
          "duration": 0.4947916666666714
        },
        {
          "name": "F4",
          "midi": 65,
          "time": 68.01562500000009,
          "velocity": 0.8976377952755905,
          "duration": 0.0729166666666714
        },
        {
          "name": "A4",
          "midi": 69,
          "time": 68.02604166666676,
          "velocity": 0.8976377952755905,
          "duration": 0.046875
        },
        {
          "name": "A4",
          "midi": 69,
          "time": 68.26562500000009,
          "velocity": 0.9606299212598425,
          "duration": 0.057291666666671404
        },
        {
          "name": "F4",
          "midi": 65,
          "time": 68.26562500000009,
          "velocity": 0.8976377952755905,
          "duration": 0.0625
        },
        {
          "name": "F4",
          "midi": 65,
          "time": 68.51562500000009,
          "velocity": 0.9448818897637795,
          "duration": 0.07291666666665719
        },
        {
          "name": "A4",
          "midi": 69,
          "time": 68.52083333333341,
          "velocity": 0.9448818897637795,
          "duration": 0.052083333333328596
        },
        {
          "name": "C4",
          "midi": 60,
          "time": 68.97916666666674,
          "velocity": 0.8503937007874016,
          "duration": 0.09375
        },
        {
          "name": "A4",
          "midi": 69,
          "time": 68.98958333333341,
          "velocity": 0.8976377952755905,
          "duration": 0.0833333333333286
        },
        {
          "name": "A4",
          "midi": 69,
          "time": 69.22916666666674,
          "velocity": 0.9921259842519685,
          "duration": 0.0729166666666714
        },
        {
          "name": "C4",
          "midi": 60,
          "time": 69.22916666666674,
          "velocity": 0.8188976377952756,
          "duration": 0.0729166666666714
        },
        {
          "name": "A4",
          "midi": 69,
          "time": 69.47916666666674,
          "velocity": 1,
          "duration": 0.08854166666665719
        },
        {
          "name": "C4",
          "midi": 60,
          "time": 69.47916666666674,
          "velocity": 0.8976377952755905,
          "duration": 0.0677083333333286
        },
        {
          "name": "A4",
          "midi": 69,
          "time": 69.98437500000007,
          "velocity": 0.9448818897637795,
          "duration": 0.296875
        },
        {
          "name": "C5",
          "midi": 72,
          "time": 70.26041666666674,
          "velocity": 0.8503937007874016,
          "duration": 0.0833333333333286
        },
        {
          "name": "F4",
          "midi": 65,
          "time": 70.48437500000007,
          "velocity": 0.9448818897637795,
          "duration": 0.09375
        },
        {
          "name": "G4",
          "midi": 67,
          "time": 70.71875000000007,
          "velocity": 0.9606299212598425,
          "duration": 0.0833333333333286
        },
        {
          "name": "A4",
          "midi": 69,
          "time": 70.9739583333334,
          "velocity": 0.9921259842519685,
          "duration": 0.7708333333333428
        },
        {
          "name": "F4",
          "midi": 65,
          "time": 71.23437500000007,
          "velocity": 0.9133858267716536,
          "duration": 0.1302083333333286
        },
        {
          "name": "E4",
          "midi": 64,
          "time": 71.48437500000007,
          "velocity": 0.9133858267716536,
          "duration": 0.0989583333333286
        },
        {
          "name": "D#4",
          "midi": 63,
          "time": 71.71875000000007,
          "velocity": 0.8976377952755905,
          "duration": 0.09375
        },
        {
          "name": "D4",
          "midi": 62,
          "time": 71.97916666666674,
          "velocity": 0.9448818897637795,
          "duration": 0.8645833333333286
        },
        {
          "name": "A#4",
          "midi": 70,
          "time": 72.26041666666674,
          "velocity": 0.9133858267716536,
          "duration": 0.0885416666666714
        },
        {
          "name": "A#4",
          "midi": 70,
          "time": 72.52604166666674,
          "velocity": 1,
          "duration": 0.3177083333333286
        },
        {
          "name": "D4",
          "midi": 62,
          "time": 72.87500000000007,
          "velocity": 0.7874015748031497,
          "duration": 0.2604166666666572
        },
        {
          "name": "A#4",
          "midi": 70,
          "time": 73.01562500000007,
          "velocity": 0.9606299212598425,
          "duration": 0.0989583333333286
        },
        {
          "name": "C4",
          "midi": 60,
          "time": 73.2708333333334,
          "velocity": 0.8503937007874016,
          "duration": 0.09374999999998579
        },
        {
          "name": "A4",
          "midi": 69,
          "time": 73.27604166666673,
          "velocity": 0.9448818897637795,
          "duration": 0.0833333333333286
        },
        {
          "name": "A4",
          "midi": 69,
          "time": 73.51562500000006,
          "velocity": 1,
          "duration": 0.3385416666666714
        },
        {
          "name": "C4",
          "midi": 60,
          "time": 73.51562500000006,
          "velocity": 0.9133858267716536,
          "duration": 0.2447916666666714
        },
        {
          "name": "A4",
          "midi": 69,
          "time": 73.88541666666673,
          "velocity": 0.7874015748031497,
          "duration": 0.1302083333333428
        },
        {
          "name": "E4",
          "midi": 64,
          "time": 73.9114583333334,
          "velocity": 0.7716535433070866,
          "duration": 0.4427083333333428
        },
        {
          "name": "C5",
          "midi": 72,
          "time": 74.01562500000007,
          "velocity": 0.9921259842519685,
          "duration": 0.2760416666666714
        },
        {
          "name": "A#4",
          "midi": 70,
          "time": 74.26041666666674,
          "velocity": 0.8976377952755905,
          "duration": 0.109375
        },
        {
          "name": "A4",
          "midi": 69,
          "time": 74.50000000000007,
          "velocity": 0.8976377952755905,
          "duration": 0.1145833333333286
        },
        {
          "name": "G4",
          "midi": 67,
          "time": 74.73437500000007,
          "velocity": 0.9921259842519685,
          "duration": 0.1197916666666714
        },
        {
          "name": "F4",
          "midi": 65,
          "time": 74.98958333333341,
          "velocity": 1,
          "duration": 1.2239583333333286
        },
        {
          "name": "C4",
          "midi": 60,
          "time": 82.03125000000007,
          "velocity": 0.8503937007874016,
          "duration": 0.3072916666666714
        },
        {
          "name": "A4",
          "midi": 69,
          "time": 82.24479166666674,
          "velocity": 0.9133858267716536,
          "duration": 0.125
        },
        {
          "name": "G4",
          "midi": 67,
          "time": 82.51562500000007,
          "velocity": 0.8503937007874016,
          "duration": 0.0989583333333286
        },
        {
          "name": "F4",
          "midi": 65,
          "time": 82.74479166666673,
          "velocity": 0.9448818897637795,
          "duration": 0.0989583333333286
        },
        {
          "name": "C4",
          "midi": 60,
          "time": 83.01041666666673,
          "velocity": 0.9133858267716536,
          "duration": 0.09375
        },
        {
          "name": "C4",
          "midi": 60,
          "time": 84.01562500000006,
          "velocity": 0.8346456692913385,
          "duration": 0.2708333333333286
        },
        {
          "name": "A4",
          "midi": 69,
          "time": 84.27083333333339,
          "velocity": 0.8661417322834646,
          "duration": 0.109375
        },
        {
          "name": "G4",
          "midi": 67,
          "time": 84.52604166666671,
          "velocity": 0.8188976377952756,
          "duration": 0.078125
        },
        {
          "name": "F4",
          "midi": 65,
          "time": 84.76041666666671,
          "velocity": 0.9133858267716536,
          "duration": 0.0833333333333286
        },
        {
          "name": "D4",
          "midi": 62,
          "time": 85.01562500000004,
          "velocity": 0.9448818897637795,
          "duration": 0.0833333333333286
        },
        {
          "name": "D4",
          "midi": 62,
          "time": 86.02083333333337,
          "velocity": 0.8661417322834646,
          "duration": 0.2135416666666714
        },
        {
          "name": "A#4",
          "midi": 70,
          "time": 86.24479166666671,
          "velocity": 0.8661417322834646,
          "duration": 0.09375
        },
        {
          "name": "A4",
          "midi": 69,
          "time": 86.48958333333339,
          "velocity": 0.7874015748031497,
          "duration": 0.0885416666666714
        },
        {
          "name": "G4",
          "midi": 67,
          "time": 86.73437500000006,
          "velocity": 1,
          "duration": 0.0833333333333286
        },
        {
          "name": "E4",
          "midi": 64,
          "time": 86.97395833333339,
          "velocity": 0.9921259842519685,
          "duration": 0.1041666666666714
        },
        {
          "name": "E4",
          "midi": 64,
          "time": 88.02604166666673,
          "velocity": 0.9448818897637795,
          "duration": 0.359375
        },
        {
          "name": "G4",
          "midi": 67,
          "time": 88.27604166666673,
          "velocity": 0.9606299212598425,
          "duration": 0.1197916666666714
        },
        {
          "name": "A4",
          "midi": 69,
          "time": 88.52604166666673,
          "velocity": 0.8976377952755905,
          "duration": 0.0885416666666714
        },
        {
          "name": "E4",
          "midi": 64,
          "time": 88.52604166666673,
          "velocity": 0.8188976377952756,
          "duration": 0.1041666666666714
        },
        {
          "name": "A#4",
          "midi": 70,
          "time": 88.76041666666673,
          "velocity": 1,
          "duration": 0.0729166666666714
        },
        {
          "name": "E4",
          "midi": 64,
          "time": 88.76562500000006,
          "velocity": 0.7086614173228346,
          "duration": 0.057291666666671404
        },
        {
          "name": "A4",
          "midi": 69,
          "time": 89.01562500000007,
          "velocity": 0.9921259842519685,
          "duration": 0.0833333333333286
        },
        {
          "name": "F4",
          "midi": 65,
          "time": 89.01562500000007,
          "velocity": 0.9921259842519685,
          "duration": 0.09375
        },
        {
          "name": "C4",
          "midi": 60,
          "time": 90.04166666666674,
          "velocity": 0.8503937007874016,
          "duration": 0.2552083333333286
        },
        {
          "name": "A4",
          "midi": 69,
          "time": 90.26041666666674,
          "velocity": 0.8976377952755905,
          "duration": 0.109375
        },
        {
          "name": "G4",
          "midi": 67,
          "time": 90.48437500000007,
          "velocity": 0.9133858267716536,
          "duration": 0.1041666666666714
        },
        {
          "name": "F4",
          "midi": 65,
          "time": 90.72395833333341,
          "velocity": 0.9606299212598425,
          "duration": 0.1041666666666714
        },
        {
          "name": "C4",
          "midi": 60,
          "time": 90.98958333333341,
          "velocity": 0.9133858267716536,
          "duration": 0.109375
        },
        {
          "name": "C4",
          "midi": 60,
          "time": 92.01562500000009,
          "velocity": 0.8976377952755905,
          "duration": 0.3020833333333428
        },
        {
          "name": "A4",
          "midi": 69,
          "time": 92.26041666666676,
          "velocity": 0.8661417322834646,
          "duration": 0.1041666666666714
        },
        {
          "name": "G4",
          "midi": 67,
          "time": 92.5156250000001,
          "velocity": 0.8661417322834646,
          "duration": 0.0885416666666714
        },
        {
          "name": "F4",
          "midi": 65,
          "time": 92.76041666666677,
          "velocity": 0.9921259842519685,
          "duration": 0.1041666666666714
        },
        {
          "name": "D4",
          "midi": 62,
          "time": 93.01562500000011,
          "velocity": 0.9921259842519685,
          "duration": 0.1041666666666714
        },
        {
          "name": "D4",
          "midi": 62,
          "time": 94.02604166666679,
          "velocity": 0.9133858267716536,
          "duration": 0.2395833333333286
        },
        {
          "name": "A#4",
          "midi": 70,
          "time": 94.26562500000011,
          "velocity": 0.9448818897637795,
          "duration": 0.0885416666666714
        },
        {
          "name": "A4",
          "midi": 69,
          "time": 94.50000000000011,
          "velocity": 0.9448818897637795,
          "duration": 0.1041666666666714
        },
        {
          "name": "G4",
          "midi": 67,
          "time": 94.76562500000011,
          "velocity": 0.9921259842519685,
          "duration": 0.1458333333333286
        },
        {
          "name": "E4",
          "midi": 64,
          "time": 94.92187500000011,
          "velocity": 0.9448818897637795,
          "duration": 0.140625
        },
        {
          "name": "C5",
          "midi": 72,
          "time": 95.01562500000011,
          "velocity": 0.9448818897637795,
          "duration": 0.0885416666666714
        },
        {
          "name": "E4",
          "midi": 64,
          "time": 95.26562500000011,
          "velocity": 0.8346456692913385,
          "duration": 0.0625
        },
        {
          "name": "C5",
          "midi": 72,
          "time": 95.27083333333344,
          "velocity": 0.9606299212598425,
          "duration": 0.057291666666671404
        },
        {
          "name": "C5",
          "midi": 72,
          "time": 95.52604166666679,
          "velocity": 1,
          "duration": 0.3645833333333428
        },
        {
          "name": "E4",
          "midi": 64,
          "time": 95.52604166666679,
          "velocity": 0.9448818897637795,
          "duration": 0.2760416666666714
        },
        {
          "name": "E4",
          "midi": 64,
          "time": 95.91145833333346,
          "velocity": 0.9133858267716536,
          "duration": 0.234375
        },
        {
          "name": "A#4",
          "midi": 70,
          "time": 95.92708333333346,
          "velocity": 0.8188976377952756,
          "duration": 0.109375
        },
        {
          "name": "D5",
          "midi": 74,
          "time": 96.02083333333346,
          "velocity": 0.9448818897637795,
          "duration": 0.0885416666666714
        },
        {
          "name": "E4",
          "midi": 64,
          "time": 96.26041666666679,
          "velocity": 0.6456692913385826,
          "duration": 0.08854166666665719
        },
        {
          "name": "C5",
          "midi": 72,
          "time": 96.26562500000011,
          "velocity": 0.8976377952755905,
          "duration": 0.0989583333333286
        },
        {
          "name": "A#4",
          "midi": 70,
          "time": 96.51562500000011,
          "velocity": 0.9921259842519685,
          "duration": 0.078125
        },
        {
          "name": "E4",
          "midi": 64,
          "time": 96.52604166666679,
          "velocity": 0.7716535433070866,
          "duration": 0.046875
        },
        {
          "name": "G4",
          "midi": 67,
          "time": 96.72916666666679,
          "velocity": 0.9606299212598425,
          "duration": 0.1197916666666714
        },
        {
          "name": "F4",
          "midi": 65,
          "time": 97.01562500000013,
          "velocity": 1,
          "duration": 0.8125
        },
        {
          "name": "C5",
          "midi": 72,
          "time": 97.5104166666668,
          "velocity": 1,
          "duration": 0.453125
        },
        {
          "name": "C4",
          "midi": 60,
          "time": 97.9947916666668,
          "velocity": 0.9448818897637795,
          "duration": 0.08854166666665719
        },
        {
          "name": "F4",
          "midi": 65,
          "time": 98.01562500000013,
          "velocity": 0.7874015748031497,
          "duration": 0.0625
        },
        {
          "name": "A4",
          "midi": 69,
          "time": 98.01562500000013,
          "velocity": 0.7716535433070866,
          "duration": 0.036458333333328596
        },
        {
          "name": "C4",
          "midi": 60,
          "time": 98.23958333333346,
          "velocity": 0.8976377952755905,
          "duration": 0.09895833333334281
        },
        {
          "name": "A4",
          "midi": 69,
          "time": 98.25000000000013,
          "velocity": 0.9448818897637795,
          "duration": 0.08333333333334281
        },
        {
          "name": "F4",
          "midi": 65,
          "time": 98.25000000000013,
          "velocity": 0.9448818897637795,
          "duration": 0.0729166666666714
        },
        {
          "name": "A4",
          "midi": 69,
          "time": 98.51562500000013,
          "velocity": 0.9921259842519685,
          "duration": 0.1197916666666714
        },
        {
          "name": "C4",
          "midi": 60,
          "time": 98.51562500000013,
          "velocity": 0.9133858267716536,
          "duration": 0.09375
        },
        {
          "name": "F4",
          "midi": 65,
          "time": 98.51562500000013,
          "velocity": 1,
          "duration": 0.1041666666666714
        },
        {
          "name": "A4",
          "midi": 69,
          "time": 99.0416666666668,
          "velocity": 0.9921259842519685,
          "duration": 0.078125
        },
        {
          "name": "C4",
          "midi": 60,
          "time": 99.0416666666668,
          "velocity": 0.9448818897637795,
          "duration": 0.0729166666666714
        },
        {
          "name": "F4",
          "midi": 65,
          "time": 99.0416666666668,
          "velocity": 1,
          "duration": 0.057291666666671404
        },
        {
          "name": "C4",
          "midi": 60,
          "time": 99.26562500000013,
          "velocity": 0.8976377952755905,
          "duration": 0.0677083333333286
        },
        {
          "name": "A4",
          "midi": 69,
          "time": 99.27083333333346,
          "velocity": 1,
          "duration": 0.057291666666671404
        },
        {
          "name": "F4",
          "midi": 65,
          "time": 99.27083333333346,
          "velocity": 0.9448818897637795,
          "duration": 0.041666666666671404
        },
        {
          "name": "C4",
          "midi": 60,
          "time": 99.52083333333346,
          "velocity": 0.9448818897637795,
          "duration": 0.05729166666665719
        },
        {
          "name": "F4",
          "midi": 65,
          "time": 99.52083333333346,
          "velocity": 1,
          "duration": 0.052083333333328596
        },
        {
          "name": "A4",
          "midi": 69,
          "time": 99.52083333333346,
          "velocity": 1,
          "duration": 0.0677083333333286
        },
        {
          "name": "A4",
          "midi": 69,
          "time": 100.01562500000011,
          "velocity": 0.9921259842519685,
          "duration": 0.2916666666666714
        },
        {
          "name": "C4",
          "midi": 60,
          "time": 100.02604166666679,
          "velocity": 0.8188976377952756,
          "duration": 0.1302083333333428
        },
        {
          "name": "F4",
          "midi": 65,
          "time": 100.02604166666679,
          "velocity": 0.9606299212598425,
          "duration": 0.057291666666671404
        },
        {
          "name": "C5",
          "midi": 72,
          "time": 100.27083333333346,
          "velocity": 0.8976377952755905,
          "duration": 0.0625
        },
        {
          "name": "F4",
          "midi": 65,
          "time": 100.51562500000013,
          "velocity": 1,
          "duration": 0.08854166666665719
        },
        {
          "name": "C4",
          "midi": 60,
          "time": 100.52083333333346,
          "velocity": 0.9921259842519685,
          "duration": 0.0677083333333286
        },
        {
          "name": "C4",
          "midi": 60,
          "time": 100.75000000000011,
          "velocity": 0.8188976377952756,
          "duration": 0.0729166666666714
        },
        {
          "name": "G4",
          "midi": 67,
          "time": 100.75000000000011,
          "velocity": 1,
          "duration": 0.08333333333334281
        },
        {
          "name": "F4",
          "midi": 65,
          "time": 101.02083333333346,
          "velocity": 1,
          "duration": 0.15625
        },
        {
          "name": "A4",
          "midi": 69,
          "time": 101.02083333333346,
          "velocity": 0.9921259842519685,
          "duration": 0.916666666666643
        },
        {
          "name": "C4",
          "midi": 60,
          "time": 101.02083333333346,
          "velocity": 0.8661417322834646,
          "duration": 0.0677083333333286
        },
        {
          "name": "F4",
          "midi": 65,
          "time": 101.27604166666679,
          "velocity": 1,
          "duration": 0.2447916666666572
        },
        {
          "name": "E4",
          "midi": 64,
          "time": 101.51562500000011,
          "velocity": 0.9921259842519685,
          "duration": 0.08854166666665719
        },
        {
          "name": "D#4",
          "midi": 63,
          "time": 101.74479166666677,
          "velocity": 0.8503937007874016,
          "duration": 0.1145833333333286
        },
        {
          "name": "D4",
          "midi": 62,
          "time": 102.02083333333343,
          "velocity": 0.9921259842519685,
          "duration": 1.0989583333333286
        },
        {
          "name": "A#4",
          "midi": 70,
          "time": 102.27083333333343,
          "velocity": 0.8976377952755905,
          "duration": 0.0677083333333286
        },
        {
          "name": "A#4",
          "midi": 70,
          "time": 102.54687500000009,
          "velocity": 1,
          "duration": 0.2864583333333286
        },
        {
          "name": "A#4",
          "midi": 70,
          "time": 103.01562500000009,
          "velocity": 0.8976377952755905,
          "duration": 0.1197916666666714
        },
        {
          "name": "C4",
          "midi": 60,
          "time": 103.26562500000009,
          "velocity": 0.8976377952755905,
          "duration": 0.08854166666665719
        },
        {
          "name": "A4",
          "midi": 69,
          "time": 103.27083333333341,
          "velocity": 0.9448818897637795,
          "duration": 0.078125
        },
        {
          "name": "C4",
          "midi": 60,
          "time": 103.51562500000007,
          "velocity": 0.9448818897637795,
          "duration": 0.4375
        },
        {
          "name": "A4",
          "midi": 69,
          "time": 103.5208333333334,
          "velocity": 0.9921259842519685,
          "duration": 0.3385416666666714
        },
        {
          "name": "A4",
          "midi": 69,
          "time": 103.9427083333334,
          "velocity": 0.8188976377952756,
          "duration": 0.328125
        },
        {
          "name": "B3",
          "midi": 59,
          "time": 104.0364583333334,
          "velocity": 0.9133858267716536,
          "duration": 0.3385416666666572
        },
        {
          "name": "G4",
          "midi": 67,
          "time": 104.27604166666673,
          "velocity": 0.9921259842519685,
          "duration": 0.09375
        },
        {
          "name": "B3",
          "midi": 59,
          "time": 104.48958333333339,
          "velocity": 0.6771653543307087,
          "duration": 0.1875000000000142
        },
        {
          "name": "G4",
          "midi": 67,
          "time": 104.51562500000006,
          "velocity": 0.9606299212598425,
          "duration": 0.1197916666666714
        },
        {
          "name": "B3",
          "midi": 59,
          "time": 104.7708333333334,
          "velocity": 0.7086614173228346,
          "duration": 0.078125
        },
        {
          "name": "A4",
          "midi": 69,
          "time": 104.77604166666673,
          "velocity": 0.9606299212598425,
          "duration": 0.1510416666666714
        },
        {
          "name": "G4",
          "midi": 67,
          "time": 104.7864583333334,
          "velocity": 0.8346456692913385,
          "duration": 0.036458333333328596
        },
        {
          "name": "G4",
          "midi": 67,
          "time": 105.01562500000007,
          "velocity": 0.9448818897637795,
          "duration": 0.9114583333333144
        },
        {
          "name": "C4",
          "midi": 60,
          "time": 105.0208333333334,
          "velocity": 0.9133858267716536,
          "duration": 0.8229166666666572
        },
        {
          "name": "C5",
          "midi": 72,
          "time": 105.51041666666673,
          "velocity": 0.9921259842519685,
          "duration": 0.5052083333333286
        },
        {
          "name": "F4",
          "midi": 65,
          "time": 106.02604166666673,
          "velocity": 0.9448818897637795,
          "duration": 0.09375000000001421
        },
        {
          "name": "A4",
          "midi": 69,
          "time": 106.0364583333334,
          "velocity": 0.9133858267716536,
          "duration": 0.057291666666671404
        },
        {
          "name": "F4",
          "midi": 65,
          "time": 106.27083333333341,
          "velocity": 0.9133858267716536,
          "duration": 0.046875
        },
        {
          "name": "A4",
          "midi": 69,
          "time": 106.27083333333341,
          "velocity": 0.9133858267716536,
          "duration": 0.041666666666671404
        },
        {
          "name": "F4",
          "midi": 65,
          "time": 106.51562500000009,
          "velocity": 1,
          "duration": 0.07291666666665719
        },
        {
          "name": "A4",
          "midi": 69,
          "time": 106.51562500000009,
          "velocity": 1,
          "duration": 0.0677083333333286
        },
        {
          "name": "C4",
          "midi": 60,
          "time": 107.01562500000007,
          "velocity": 0.8976377952755905,
          "duration": 0.0989583333333286
        },
        {
          "name": "A4",
          "midi": 69,
          "time": 107.0208333333334,
          "velocity": 0.9606299212598425,
          "duration": 0.09375
        },
        {
          "name": "C4",
          "midi": 60,
          "time": 107.24479166666673,
          "velocity": 0.8661417322834646,
          "duration": 0.078125
        },
        {
          "name": "A4",
          "midi": 69,
          "time": 107.25000000000006,
          "velocity": 0.9133858267716536,
          "duration": 0.0729166666666714
        },
        {
          "name": "A4",
          "midi": 69,
          "time": 107.5208333333334,
          "velocity": 1,
          "duration": 0.0677083333333286
        },
        {
          "name": "C4",
          "midi": 60,
          "time": 107.5208333333334,
          "velocity": 0.8661417322834646,
          "duration": 0.052083333333328596
        },
        {
          "name": "A4",
          "midi": 69,
          "time": 108.01562500000006,
          "velocity": 0.9448818897637795,
          "duration": 0.2916666666666572
        },
        {
          "name": "F4",
          "midi": 65,
          "time": 108.01562500000006,
          "velocity": 0.7401574803149606,
          "duration": 0.052083333333328596
        },
        {
          "name": "C5",
          "midi": 72,
          "time": 108.26041666666671,
          "velocity": 0.9606299212598425,
          "duration": 0.0885416666666714
        },
        {
          "name": "F4",
          "midi": 65,
          "time": 108.51562500000006,
          "velocity": 0.9606299212598425,
          "duration": 0.09375
        },
        {
          "name": "G4",
          "midi": 67,
          "time": 108.74479166666673,
          "velocity": 0.9448818897637795,
          "duration": 0.09375
        },
        {
          "name": "A4",
          "midi": 69,
          "time": 109.01562500000006,
          "velocity": 0.9606299212598425,
          "duration": 0.7760416666666856
        },
        {
          "name": "F4",
          "midi": 65,
          "time": 109.27604166666673,
          "velocity": 0.8661417322834646,
          "duration": 0.15625
        },
        {
          "name": "E4",
          "midi": 64,
          "time": 109.51041666666673,
          "velocity": 0.8976377952755905,
          "duration": 0.0729166666666714
        },
        {
          "name": "D#4",
          "midi": 63,
          "time": 109.71875000000007,
          "velocity": 0.9133858267716536,
          "duration": 0.0729166666666714
        },
        {
          "name": "D4",
          "midi": 62,
          "time": 109.99479166666674,
          "velocity": 0.9921259842519685,
          "duration": 0.7916666666666714
        },
        {
          "name": "A#4",
          "midi": 70,
          "time": 110.22916666666674,
          "velocity": 0.9448818897637795,
          "duration": 0.078125
        },
        {
          "name": "A#4",
          "midi": 70,
          "time": 110.51041666666674,
          "velocity": 1,
          "duration": 0.328125
        },
        {
          "name": "D4",
          "midi": 62,
          "time": 110.86979166666674,
          "velocity": 0.7874015748031497,
          "duration": 0.2395833333333286
        },
        {
          "name": "A#4",
          "midi": 70,
          "time": 111.01041666666674,
          "velocity": 0.9448818897637795,
          "duration": 0.0989583333333286
        },
        {
          "name": "C4",
          "midi": 60,
          "time": 111.26562500000007,
          "velocity": 0.9448818897637795,
          "duration": 0.0729166666666714
        },
        {
          "name": "G#4",
          "midi": 68,
          "time": 111.26562500000007,
          "velocity": 0.7401574803149606,
          "duration": 0.005208333333328596
        },
        {
          "name": "A4",
          "midi": 69,
          "time": 111.2708333333334,
          "velocity": 0.8661417322834646,
          "duration": 0.057291666666671404
        },
        {
          "name": "C4",
          "midi": 60,
          "time": 111.48958333333341,
          "velocity": 0.9133858267716536,
          "duration": 0.125
        },
        {
          "name": "A4",
          "midi": 69,
          "time": 111.49479166666674,
          "velocity": 1,
          "duration": 0.140625
        },
        {
          "name": "A4",
          "midi": 69,
          "time": 111.71875000000007,
          "velocity": 0.9921259842519685,
          "duration": 0.1354166666666572
        },
        {
          "name": "C4",
          "midi": 60,
          "time": 111.7239583333334,
          "velocity": 0.7716535433070866,
          "duration": 0.09375
        },
        {
          "name": "E4",
          "midi": 64,
          "time": 111.9739583333334,
          "velocity": 0.9606299212598425,
          "duration": 0.3802083333333286
        },
        {
          "name": "C5",
          "midi": 72,
          "time": 111.9895833333334,
          "velocity": 1,
          "duration": 0.3697916666666572
        },
        {
          "name": "C5",
          "midi": 72,
          "time": 112.51041666666673,
          "velocity": 1,
          "duration": 0.4166666666666572
        },
        {
          "name": "E4",
          "midi": 64,
          "time": 112.51562500000006,
          "velocity": 0.9606299212598425,
          "duration": 0.3802083333333286
        },
        {
          "name": "A#4",
          "midi": 70,
          "time": 113.01562500000006,
          "velocity": 0.9921259842519685,
          "duration": 0.4166666666666572
        },
        {
          "name": "D4",
          "midi": 62,
          "time": 113.01562500000006,
          "velocity": 0.8976377952755905,
          "duration": 0.3645833333333286
        },
        {
          "name": "E4",
          "midi": 64,
          "time": 113.02604166666673,
          "velocity": 0.8346456692913385,
          "duration": 0.0833333333333286
        },
        {
          "name": "G4",
          "midi": 67,
          "time": 113.51041666666671,
          "velocity": 0.9921259842519685,
          "duration": 0.5104166666666714
        },
        {
          "name": "F4",
          "midi": 65,
          "time": 114.02604166666671,
          "velocity": 1,
          "duration": 2.8854166666666714
        }
      ],
      "controlChanges": {
        "7": [
          {
            "number": 7,
            "time": 0.5156250000000001,
            "value": 0.984251968503937
          }
        ],
        "10": [
          {
            "number": 10,
            "time": 0.5156250000000001,
            "value": 0.5039370078740157
          }
        ],
        "32": [
          {
            "number": 32,
            "time": 0.5052083333333334,
            "value": 0
          }
        ],
        "91": [
          {
            "number": 91,
            "time": 2,
            "value": 0.4094488188976378
          }
        ],
        "93": [
          {
            "number": 93,
            "time": 2,
            "value": 1
          }
        ]
      },
      "id": 1,
      "name": "\"Jimgle Bells\"",
      "instrumentNumber": 60,
      "instrument": "french horn",
      "instrumentFamily": "brass",
      "channelNumber": 0,
      "isPercussion": false
    },
    {
      "startTime": 2,
      "duration": 119.98958333333229,
      "length": 1105,
      "notes": [
        {
          "name": "E1",
          "midi": 28,
          "time": 2,
          "velocity": 0.6299212598425197,
          "duration": 0.125
        },
        {
          "name": "F#2",
          "midi": 42,
          "time": 2,
          "velocity": 0.5511811023622047,
          "duration": 0.24479166666666652
        },
        {
          "name": "C#3",
          "midi": 49,
          "time": 2,
          "velocity": 0.5669291338582677,
          "duration": 2.0000000000000018
        },
        {
          "name": "F1",
          "midi": 29,
          "time": 2.25,
          "velocity": 0.47244094488188976,
          "duration": 0.08333333333333348
        },
        {
          "name": "G#2",
          "midi": 44,
          "time": 2.25,
          "velocity": 0.4881889763779528,
          "duration": 0.24479166666666696
        },
        {
          "name": "E1",
          "midi": 28,
          "time": 2.5000000000000004,
          "velocity": 0.6299212598425197,
          "duration": 0.125
        },
        {
          "name": "F#2",
          "midi": 42,
          "time": 2.5000000000000004,
          "velocity": 0.5354330708661418,
          "duration": 0.24479166666666652
        },
        {
          "name": "F1",
          "midi": 29,
          "time": 2.7500000000000004,
          "velocity": 0.4645669291338583,
          "duration": 0.08333333333333348
        },
        {
          "name": "G#2",
          "midi": 44,
          "time": 2.7500000000000004,
          "velocity": 0.4881889763779528,
          "duration": 0.24479166666666696
        },
        {
          "name": "E1",
          "midi": 28,
          "time": 3.000000000000001,
          "velocity": 0.6299212598425197,
          "duration": 0.125
        },
        {
          "name": "F#2",
          "midi": 42,
          "time": 3.000000000000001,
          "velocity": 0.5354330708661418,
          "duration": 0.24479166666666652
        },
        {
          "name": "F1",
          "midi": 29,
          "time": 3.250000000000001,
          "velocity": 0.4645669291338583,
          "duration": 0.08333333333333348
        },
        {
          "name": "G#2",
          "midi": 44,
          "time": 3.250000000000001,
          "velocity": 0.4881889763779528,
          "duration": 0.24479166666666696
        },
        {
          "name": "E1",
          "midi": 28,
          "time": 3.5000000000000013,
          "velocity": 0.6299212598425197,
          "duration": 0.125
        },
        {
          "name": "F#2",
          "midi": 42,
          "time": 3.5000000000000013,
          "velocity": 0.5354330708661418,
          "duration": 0.24479166666666652
        },
        {
          "name": "F1",
          "midi": 29,
          "time": 3.7500000000000013,
          "velocity": 0.4645669291338583,
          "duration": 0.08333333333333348
        },
        {
          "name": "G#2",
          "midi": 44,
          "time": 3.7500000000000013,
          "velocity": 0.4881889763779528,
          "duration": 0.24479166666666696
        },
        {
          "name": "E1",
          "midi": 28,
          "time": 4.000000000000002,
          "velocity": 0.6299212598425197,
          "duration": 0.125
        },
        {
          "name": "F#2",
          "midi": 42,
          "time": 4.000000000000002,
          "velocity": 0.5354330708661418,
          "duration": 0.24479166666666696
        },
        {
          "name": "F1",
          "midi": 29,
          "time": 4.250000000000002,
          "velocity": 0.47244094488188976,
          "duration": 0.08333333333333304
        },
        {
          "name": "G#2",
          "midi": 44,
          "time": 4.250000000000002,
          "velocity": 0.47244094488188976,
          "duration": 0.24479166666666607
        },
        {
          "name": "E1",
          "midi": 28,
          "time": 4.500000000000001,
          "velocity": 0.6299212598425197,
          "duration": 0.125
        },
        {
          "name": "F#2",
          "midi": 42,
          "time": 4.500000000000001,
          "velocity": 0.5275590551181102,
          "duration": 0.24479166666666696
        },
        {
          "name": "F1",
          "midi": 29,
          "time": 4.750000000000001,
          "velocity": 0.47244094488188976,
          "duration": 0.08333333333333304
        },
        {
          "name": "G#2",
          "midi": 44,
          "time": 4.750000000000001,
          "velocity": 0.47244094488188976,
          "duration": 0.24479166666666607
        },
        {
          "name": "E1",
          "midi": 28,
          "time": 5,
          "velocity": 0.6299212598425197,
          "duration": 0.125
        },
        {
          "name": "F#2",
          "midi": 42,
          "time": 5,
          "velocity": 0.5354330708661418,
          "duration": 0.24479166666666696
        },
        {
          "name": "F1",
          "midi": 29,
          "time": 5.25,
          "velocity": 0.4645669291338583,
          "duration": 0.08333333333333304
        },
        {
          "name": "G#2",
          "midi": 44,
          "time": 5.25,
          "velocity": 0.4881889763779528,
          "duration": 0.24479166666666607
        },
        {
          "name": "E1",
          "midi": 28,
          "time": 5.499999999999999,
          "velocity": 0.6299212598425197,
          "duration": 0.125
        },
        {
          "name": "F1",
          "midi": 29,
          "time": 5.499999999999999,
          "velocity": 0.4645669291338583,
          "duration": 0.08333333333333304
        },
        {
          "name": "F#2",
          "midi": 42,
          "time": 5.499999999999999,
          "velocity": 0.5354330708661418,
          "duration": 0.24479166666666696
        },
        {
          "name": "F1",
          "midi": 29,
          "time": 5.749999999999999,
          "velocity": 0.47244094488188976,
          "duration": 0.08333333333333304
        },
        {
          "name": "G#2",
          "midi": 44,
          "time": 5.749999999999999,
          "velocity": 0.5039370078740157,
          "duration": 0.24479166666666607
        },
        {
          "name": "E1",
          "midi": 28,
          "time": 5.999999999999998,
          "velocity": 0.6299212598425197,
          "duration": 0.125
        },
        {
          "name": "F#2",
          "midi": 42,
          "time": 5.999999999999998,
          "velocity": 0.5354330708661418,
          "duration": 0.24479166666666696
        },
        {
          "name": "F1",
          "midi": 29,
          "time": 6.249999999999998,
          "velocity": 0.4645669291338583,
          "duration": 0.08333333333333304
        },
        {
          "name": "G#2",
          "midi": 44,
          "time": 6.249999999999998,
          "velocity": 0.4881889763779528,
          "duration": 0.24479166666666607
        },
        {
          "name": "E1",
          "midi": 28,
          "time": 6.499999999999997,
          "velocity": 0.6299212598425197,
          "duration": 0.125
        },
        {
          "name": "F#2",
          "midi": 42,
          "time": 6.499999999999997,
          "velocity": 0.5354330708661418,
          "duration": 0.24479166666666696
        },
        {
          "name": "F1",
          "midi": 29,
          "time": 6.749999999999997,
          "velocity": 0.47244094488188976,
          "duration": 0.08333333333333304
        },
        {
          "name": "G#2",
          "midi": 44,
          "time": 6.749999999999997,
          "velocity": 0.4881889763779528,
          "duration": 0.24479166666666607
        },
        {
          "name": "E1",
          "midi": 28,
          "time": 6.9999999999999964,
          "velocity": 0.6299212598425197,
          "duration": 0.125
        },
        {
          "name": "F#2",
          "midi": 42,
          "time": 6.9999999999999964,
          "velocity": 0.5354330708661418,
          "duration": 0.24479166666666696
        },
        {
          "name": "F1",
          "midi": 29,
          "time": 7.2499999999999964,
          "velocity": 0.47244094488188976,
          "duration": 0.08333333333333304
        },
        {
          "name": "G#2",
          "midi": 44,
          "time": 7.2499999999999964,
          "velocity": 0.47244094488188976,
          "duration": 0.24479166666666607
        },
        {
          "name": "E1",
          "midi": 28,
          "time": 7.499999999999996,
          "velocity": 0.6299212598425197,
          "duration": 0.125
        },
        {
          "name": "F#2",
          "midi": 42,
          "time": 7.499999999999996,
          "velocity": 0.5511811023622047,
          "duration": 0.24479166666666696
        },
        {
          "name": "F1",
          "midi": 29,
          "time": 7.749999999999996,
          "velocity": 0.4645669291338583,
          "duration": 0.08333333333333304
        },
        {
          "name": "G#2",
          "midi": 44,
          "time": 7.749999999999996,
          "velocity": 0.47244094488188976,
          "duration": 0.24479166666666607
        },
        {
          "name": "E1",
          "midi": 28,
          "time": 7.999999999999995,
          "velocity": 0.6299212598425197,
          "duration": 0.125
        },
        {
          "name": "F#2",
          "midi": 42,
          "time": 7.999999999999995,
          "velocity": 0.5354330708661418,
          "duration": 0.24479166666666607
        },
        {
          "name": "F1",
          "midi": 29,
          "time": 8.249999999999995,
          "velocity": 0.47244094488188976,
          "duration": 0.08333333333333393
        },
        {
          "name": "G#2",
          "midi": 44,
          "time": 8.249999999999995,
          "velocity": 0.4881889763779528,
          "duration": 0.24479166666666785
        },
        {
          "name": "E1",
          "midi": 28,
          "time": 8.499999999999996,
          "velocity": 0.6299212598425197,
          "duration": 0.125
        },
        {
          "name": "F#2",
          "midi": 42,
          "time": 8.499999999999996,
          "velocity": 0.5354330708661418,
          "duration": 0.24479166666666607
        },
        {
          "name": "F1",
          "midi": 29,
          "time": 8.749999999999996,
          "velocity": 0.4645669291338583,
          "duration": 0.08333333333333393
        },
        {
          "name": "G#2",
          "midi": 44,
          "time": 8.749999999999996,
          "velocity": 0.4881889763779528,
          "duration": 0.24479166666666785
        },
        {
          "name": "E1",
          "midi": 28,
          "time": 8.999999999999998,
          "velocity": 0.6299212598425197,
          "duration": 0.125
        },
        {
          "name": "F#2",
          "midi": 42,
          "time": 8.999999999999998,
          "velocity": 0.5354330708661418,
          "duration": 0.24479166666666607
        },
        {
          "name": "F1",
          "midi": 29,
          "time": 9.249999999999998,
          "velocity": 0.4645669291338583,
          "duration": 0.08333333333333393
        },
        {
          "name": "G#2",
          "midi": 44,
          "time": 9.249999999999998,
          "velocity": 0.4881889763779528,
          "duration": 0.24479166666666785
        },
        {
          "name": "F1",
          "midi": 29,
          "time": 9.374999999999998,
          "velocity": 0.4645669291338583,
          "duration": 0.08333333333333393
        },
        {
          "name": "E1",
          "midi": 28,
          "time": 9.5,
          "velocity": 0.6299212598425197,
          "duration": 0.125
        },
        {
          "name": "F1",
          "midi": 29,
          "time": 9.5,
          "velocity": 0.4645669291338583,
          "duration": 0.08333333333333393
        },
        {
          "name": "F#2",
          "midi": 42,
          "time": 9.5,
          "velocity": 0.5354330708661418,
          "duration": 0.24479166666666607
        },
        {
          "name": "F1",
          "midi": 29,
          "time": 9.75,
          "velocity": 0.47244094488188976,
          "duration": 0.08333333333333393
        },
        {
          "name": "G#2",
          "midi": 44,
          "time": 9.75,
          "velocity": 0.4881889763779528,
          "duration": 0.24479166666666607
        },
        {
          "name": "F1",
          "midi": 29,
          "time": 9.875,
          "velocity": 0.4645669291338583,
          "duration": 0.0625
        },
        {
          "name": "F1",
          "midi": 29,
          "time": 9.9375,
          "velocity": 0.4645669291338583,
          "duration": 0.0625
        },
        {
          "name": "E1",
          "midi": 28,
          "time": 10,
          "velocity": 0.6299212598425197,
          "duration": 0.125
        },
        {
          "name": "F#2",
          "midi": 42,
          "time": 10,
          "velocity": 0.5511811023622047,
          "duration": 0.24479166666666607
        },
        {
          "name": "C#3",
          "midi": 49,
          "time": 10,
          "velocity": 0.5669291338582677,
          "duration": 2.000000000000007
        },
        {
          "name": "F1",
          "midi": 29,
          "time": 10.25,
          "velocity": 0.47244094488188976,
          "duration": 0.08333333333333393
        },
        {
          "name": "G#2",
          "midi": 44,
          "time": 10.25,
          "velocity": 0.4881889763779528,
          "duration": 0.24479166666666785
        },
        {
          "name": "E1",
          "midi": 28,
          "time": 10.500000000000002,
          "velocity": 0.6299212598425197,
          "duration": 0.125
        },
        {
          "name": "F#2",
          "midi": 42,
          "time": 10.500000000000002,
          "velocity": 0.5354330708661418,
          "duration": 0.24479166666666607
        },
        {
          "name": "F1",
          "midi": 29,
          "time": 10.750000000000002,
          "velocity": 0.4645669291338583,
          "duration": 0.08333333333333393
        },
        {
          "name": "G#2",
          "midi": 44,
          "time": 10.750000000000002,
          "velocity": 0.4881889763779528,
          "duration": 0.24479166666666785
        },
        {
          "name": "E1",
          "midi": 28,
          "time": 11.000000000000004,
          "velocity": 0.6299212598425197,
          "duration": 0.125
        },
        {
          "name": "F#2",
          "midi": 42,
          "time": 11.000000000000004,
          "velocity": 0.5354330708661418,
          "duration": 0.24479166666666607
        },
        {
          "name": "F1",
          "midi": 29,
          "time": 11.250000000000004,
          "velocity": 0.4645669291338583,
          "duration": 0.08333333333333393
        },
        {
          "name": "G#2",
          "midi": 44,
          "time": 11.250000000000004,
          "velocity": 0.4881889763779528,
          "duration": 0.24479166666666785
        },
        {
          "name": "E1",
          "midi": 28,
          "time": 11.500000000000005,
          "velocity": 0.6299212598425197,
          "duration": 0.125
        },
        {
          "name": "F#2",
          "midi": 42,
          "time": 11.500000000000005,
          "velocity": 0.5354330708661418,
          "duration": 0.24479166666666607
        },
        {
          "name": "F1",
          "midi": 29,
          "time": 11.750000000000005,
          "velocity": 0.4645669291338583,
          "duration": 0.08333333333333393
        },
        {
          "name": "G#2",
          "midi": 44,
          "time": 11.750000000000005,
          "velocity": 0.4881889763779528,
          "duration": 0.24479166666666785
        },
        {
          "name": "E1",
          "midi": 28,
          "time": 12.000000000000007,
          "velocity": 0.6299212598425197,
          "duration": 0.125
        },
        {
          "name": "F#2",
          "midi": 42,
          "time": 12.000000000000007,
          "velocity": 0.5354330708661418,
          "duration": 0.24479166666666607
        },
        {
          "name": "F1",
          "midi": 29,
          "time": 12.250000000000007,
          "velocity": 0.47244094488188976,
          "duration": 0.08333333333333393
        },
        {
          "name": "G#2",
          "midi": 44,
          "time": 12.250000000000007,
          "velocity": 0.47244094488188976,
          "duration": 0.24479166666666785
        },
        {
          "name": "E1",
          "midi": 28,
          "time": 12.500000000000009,
          "velocity": 0.6299212598425197,
          "duration": 0.125
        },
        {
          "name": "F#2",
          "midi": 42,
          "time": 12.500000000000009,
          "velocity": 0.5275590551181102,
          "duration": 0.24479166666666607
        },
        {
          "name": "F1",
          "midi": 29,
          "time": 12.750000000000009,
          "velocity": 0.47244094488188976,
          "duration": 0.08333333333333393
        },
        {
          "name": "G#2",
          "midi": 44,
          "time": 12.750000000000009,
          "velocity": 0.47244094488188976,
          "duration": 0.24479166666666785
        },
        {
          "name": "E1",
          "midi": 28,
          "time": 13.00000000000001,
          "velocity": 0.6299212598425197,
          "duration": 0.125
        },
        {
          "name": "F#2",
          "midi": 42,
          "time": 13.00000000000001,
          "velocity": 0.5354330708661418,
          "duration": 0.24479166666666607
        },
        {
          "name": "F1",
          "midi": 29,
          "time": 13.25000000000001,
          "velocity": 0.4645669291338583,
          "duration": 0.08333333333333393
        },
        {
          "name": "G#2",
          "midi": 44,
          "time": 13.25000000000001,
          "velocity": 0.4881889763779528,
          "duration": 0.24479166666666785
        },
        {
          "name": "E1",
          "midi": 28,
          "time": 13.500000000000012,
          "velocity": 0.6299212598425197,
          "duration": 0.125
        },
        {
          "name": "F1",
          "midi": 29,
          "time": 13.500000000000012,
          "velocity": 0.4645669291338583,
          "duration": 0.08333333333333393
        },
        {
          "name": "F#2",
          "midi": 42,
          "time": 13.500000000000012,
          "velocity": 0.5354330708661418,
          "duration": 0.24479166666666607
        },
        {
          "name": "F1",
          "midi": 29,
          "time": 13.750000000000012,
          "velocity": 0.47244094488188976,
          "duration": 0.08333333333333393
        },
        {
          "name": "G#2",
          "midi": 44,
          "time": 13.750000000000012,
          "velocity": 0.5039370078740157,
          "duration": 0.24479166666666785
        },
        {
          "name": "E1",
          "midi": 28,
          "time": 14.000000000000014,
          "velocity": 0.6299212598425197,
          "duration": 0.125
        },
        {
          "name": "F#2",
          "midi": 42,
          "time": 14.000000000000014,
          "velocity": 0.5354330708661418,
          "duration": 0.24479166666666607
        },
        {
          "name": "F1",
          "midi": 29,
          "time": 14.250000000000014,
          "velocity": 0.4645669291338583,
          "duration": 0.08333333333333393
        },
        {
          "name": "G#2",
          "midi": 44,
          "time": 14.250000000000014,
          "velocity": 0.4881889763779528,
          "duration": 0.24479166666666785
        },
        {
          "name": "E1",
          "midi": 28,
          "time": 14.500000000000016,
          "velocity": 0.6299212598425197,
          "duration": 0.125
        },
        {
          "name": "F#2",
          "midi": 42,
          "time": 14.500000000000016,
          "velocity": 0.5354330708661418,
          "duration": 0.24479166666666607
        },
        {
          "name": "F1",
          "midi": 29,
          "time": 14.750000000000016,
          "velocity": 0.47244094488188976,
          "duration": 0.08333333333333393
        },
        {
          "name": "G#2",
          "midi": 44,
          "time": 14.750000000000016,
          "velocity": 0.4881889763779528,
          "duration": 0.24479166666666785
        },
        {
          "name": "E1",
          "midi": 28,
          "time": 15.000000000000018,
          "velocity": 0.6299212598425197,
          "duration": 0.125
        },
        {
          "name": "F#2",
          "midi": 42,
          "time": 15.000000000000018,
          "velocity": 0.5354330708661418,
          "duration": 0.24479166666666607
        },
        {
          "name": "F1",
          "midi": 29,
          "time": 15.250000000000018,
          "velocity": 0.47244094488188976,
          "duration": 0.08333333333333393
        },
        {
          "name": "G#2",
          "midi": 44,
          "time": 15.250000000000018,
          "velocity": 0.47244094488188976,
          "duration": 0.24479166666666785
        },
        {
          "name": "E1",
          "midi": 28,
          "time": 15.50000000000002,
          "velocity": 0.6299212598425197,
          "duration": 0.125
        },
        {
          "name": "F#2",
          "midi": 42,
          "time": 15.50000000000002,
          "velocity": 0.5511811023622047,
          "duration": 0.24479166666666607
        },
        {
          "name": "F1",
          "midi": 29,
          "time": 15.75000000000002,
          "velocity": 0.4645669291338583,
          "duration": 0.08333333333333393
        },
        {
          "name": "G#2",
          "midi": 44,
          "time": 15.75000000000002,
          "velocity": 0.47244094488188976,
          "duration": 0.24479166666666785
        },
        {
          "name": "E1",
          "midi": 28,
          "time": 16.00000000000002,
          "velocity": 0.6299212598425197,
          "duration": 0.125
        },
        {
          "name": "F#2",
          "midi": 42,
          "time": 16.00000000000002,
          "velocity": 0.5511811023622047,
          "duration": 0.24479166666666785
        },
        {
          "name": "F1",
          "midi": 29,
          "time": 16.25000000000002,
          "velocity": 0.4645669291338583,
          "duration": 0.08333333333333215
        },
        {
          "name": "G#2",
          "midi": 44,
          "time": 16.25000000000002,
          "velocity": 0.47244094488188976,
          "duration": 0.2447916666666643
        },
        {
          "name": "E1",
          "midi": 28,
          "time": 16.500000000000018,
          "velocity": 0.6299212598425197,
          "duration": 0.125
        },
        {
          "name": "F#2",
          "midi": 42,
          "time": 16.500000000000018,
          "velocity": 0.5511811023622047,
          "duration": 0.24479166666666785
        },
        {
          "name": "F1",
          "midi": 29,
          "time": 16.750000000000018,
          "velocity": 0.47244094488188976,
          "duration": 0.08333333333333215
        },
        {
          "name": "G#2",
          "midi": 44,
          "time": 16.750000000000018,
          "velocity": 0.4881889763779528,
          "duration": 0.2447916666666643
        },
        {
          "name": "E1",
          "midi": 28,
          "time": 17.000000000000014,
          "velocity": 0.6299212598425197,
          "duration": 0.125
        },
        {
          "name": "F1",
          "midi": 29,
          "time": 17.000000000000014,
          "velocity": 0.4881889763779528,
          "duration": 0.08333333333333215
        },
        {
          "name": "F#2",
          "midi": 42,
          "time": 17.000000000000014,
          "velocity": 0.5511811023622047,
          "duration": 0.24479166666666785
        },
        {
          "name": "F1",
          "midi": 29,
          "time": 17.125000000000014,
          "velocity": 0.4645669291338583,
          "duration": 0.0625
        },
        {
          "name": "F1",
          "midi": 29,
          "time": 17.187500000000014,
          "velocity": 0.4645669291338583,
          "duration": 0.0625
        },
        {
          "name": "F1",
          "midi": 29,
          "time": 17.250000000000014,
          "velocity": 0.4645669291338583,
          "duration": 0.08333333333333215
        },
        {
          "name": "G#2",
          "midi": 44,
          "time": 17.250000000000014,
          "velocity": 0.4881889763779528,
          "duration": 0.2447916666666643
        },
        {
          "name": "F1",
          "midi": 29,
          "time": 17.375000000000014,
          "velocity": 0.4645669291338583,
          "duration": 0.08333333333333215
        },
        {
          "name": "E1",
          "midi": 28,
          "time": 17.50000000000001,
          "velocity": 0.6299212598425197,
          "duration": 0.125
        },
        {
          "name": "F1",
          "midi": 29,
          "time": 17.50000000000001,
          "velocity": 0.4881889763779528,
          "duration": 0.08333333333333215
        },
        {
          "name": "F#2",
          "midi": 42,
          "time": 17.50000000000001,
          "velocity": 0.5511811023622047,
          "duration": 0.24479166666666785
        },
        {
          "name": "F1",
          "midi": 29,
          "time": 17.75000000000001,
          "velocity": 0.4881889763779528,
          "duration": 0.08333333333333215
        },
        {
          "name": "G#2",
          "midi": 44,
          "time": 17.75000000000001,
          "velocity": 0.4881889763779528,
          "duration": 0.23958333333333215
        },
        {
          "name": "E1",
          "midi": 28,
          "time": 18.00000000000001,
          "velocity": 0.6299212598425197,
          "duration": 0.125
        },
        {
          "name": "F#2",
          "midi": 42,
          "time": 18.00000000000001,
          "velocity": 0.5511811023622047,
          "duration": 0.24479166666666785
        },
        {
          "name": "C#3",
          "midi": 49,
          "time": 18.00000000000001,
          "velocity": 0.5669291338582677,
          "duration": 1.9999999999999858
        },
        {
          "name": "F1",
          "midi": 29,
          "time": 18.25000000000001,
          "velocity": 0.47244094488188976,
          "duration": 0.08333333333333215
        },
        {
          "name": "G#2",
          "midi": 44,
          "time": 18.25000000000001,
          "velocity": 0.4881889763779528,
          "duration": 0.2447916666666643
        },
        {
          "name": "E1",
          "midi": 28,
          "time": 18.500000000000007,
          "velocity": 0.6299212598425197,
          "duration": 0.125
        },
        {
          "name": "F#2",
          "midi": 42,
          "time": 18.500000000000007,
          "velocity": 0.5354330708661418,
          "duration": 0.24479166666666785
        },
        {
          "name": "F1",
          "midi": 29,
          "time": 18.750000000000007,
          "velocity": 0.4645669291338583,
          "duration": 0.08333333333333215
        },
        {
          "name": "G#2",
          "midi": 44,
          "time": 18.750000000000007,
          "velocity": 0.4881889763779528,
          "duration": 0.2447916666666643
        },
        {
          "name": "E1",
          "midi": 28,
          "time": 19.000000000000004,
          "velocity": 0.6299212598425197,
          "duration": 0.125
        },
        {
          "name": "F#2",
          "midi": 42,
          "time": 19.000000000000004,
          "velocity": 0.5354330708661418,
          "duration": 0.24479166666666785
        },
        {
          "name": "F1",
          "midi": 29,
          "time": 19.250000000000004,
          "velocity": 0.4645669291338583,
          "duration": 0.08333333333333215
        },
        {
          "name": "G#2",
          "midi": 44,
          "time": 19.250000000000004,
          "velocity": 0.4881889763779528,
          "duration": 0.2447916666666643
        },
        {
          "name": "E1",
          "midi": 28,
          "time": 19.5,
          "velocity": 0.6299212598425197,
          "duration": 0.125
        },
        {
          "name": "F#2",
          "midi": 42,
          "time": 19.5,
          "velocity": 0.5354330708661418,
          "duration": 0.24479166666666785
        },
        {
          "name": "F1",
          "midi": 29,
          "time": 19.75,
          "velocity": 0.4645669291338583,
          "duration": 0.08333333333333215
        },
        {
          "name": "G#2",
          "midi": 44,
          "time": 19.75,
          "velocity": 0.4881889763779528,
          "duration": 0.2447916666666643
        },
        {
          "name": "E1",
          "midi": 28,
          "time": 19.999999999999996,
          "velocity": 0.6299212598425197,
          "duration": 0.125
        },
        {
          "name": "F#2",
          "midi": 42,
          "time": 19.999999999999996,
          "velocity": 0.5354330708661418,
          "duration": 0.24479166666666785
        },
        {
          "name": "F1",
          "midi": 29,
          "time": 20.249999999999996,
          "velocity": 0.47244094488188976,
          "duration": 0.08333333333333215
        },
        {
          "name": "G#2",
          "midi": 44,
          "time": 20.249999999999996,
          "velocity": 0.47244094488188976,
          "duration": 0.2447916666666643
        },
        {
          "name": "E1",
          "midi": 28,
          "time": 20.499999999999993,
          "velocity": 0.6299212598425197,
          "duration": 0.125
        },
        {
          "name": "F#2",
          "midi": 42,
          "time": 20.499999999999993,
          "velocity": 0.5275590551181102,
          "duration": 0.24479166666666785
        },
        {
          "name": "F1",
          "midi": 29,
          "time": 20.749999999999993,
          "velocity": 0.47244094488188976,
          "duration": 0.08333333333333215
        },
        {
          "name": "G#2",
          "midi": 44,
          "time": 20.749999999999993,
          "velocity": 0.47244094488188976,
          "duration": 0.2447916666666643
        },
        {
          "name": "E1",
          "midi": 28,
          "time": 20.99999999999999,
          "velocity": 0.6299212598425197,
          "duration": 0.125
        },
        {
          "name": "F#2",
          "midi": 42,
          "time": 20.99999999999999,
          "velocity": 0.5354330708661418,
          "duration": 0.24479166666666785
        },
        {
          "name": "F1",
          "midi": 29,
          "time": 21.24999999999999,
          "velocity": 0.4645669291338583,
          "duration": 0.08333333333333215
        },
        {
          "name": "G#2",
          "midi": 44,
          "time": 21.24999999999999,
          "velocity": 0.4881889763779528,
          "duration": 0.2447916666666643
        },
        {
          "name": "E1",
          "midi": 28,
          "time": 21.499999999999986,
          "velocity": 0.6299212598425197,
          "duration": 0.125
        },
        {
          "name": "F1",
          "midi": 29,
          "time": 21.499999999999986,
          "velocity": 0.4645669291338583,
          "duration": 0.08333333333333215
        },
        {
          "name": "F#2",
          "midi": 42,
          "time": 21.499999999999986,
          "velocity": 0.5354330708661418,
          "duration": 0.24479166666666785
        },
        {
          "name": "F1",
          "midi": 29,
          "time": 21.749999999999986,
          "velocity": 0.47244094488188976,
          "duration": 0.08333333333333215
        },
        {
          "name": "G#2",
          "midi": 44,
          "time": 21.749999999999986,
          "velocity": 0.5039370078740157,
          "duration": 0.2447916666666643
        },
        {
          "name": "E1",
          "midi": 28,
          "time": 21.999999999999982,
          "velocity": 0.6299212598425197,
          "duration": 0.125
        },
        {
          "name": "F#2",
          "midi": 42,
          "time": 21.999999999999982,
          "velocity": 0.5354330708661418,
          "duration": 0.24479166666666785
        },
        {
          "name": "F1",
          "midi": 29,
          "time": 22.249999999999982,
          "velocity": 0.4645669291338583,
          "duration": 0.08333333333333215
        },
        {
          "name": "G#2",
          "midi": 44,
          "time": 22.249999999999982,
          "velocity": 0.4881889763779528,
          "duration": 0.2447916666666643
        },
        {
          "name": "E1",
          "midi": 28,
          "time": 22.49999999999998,
          "velocity": 0.6299212598425197,
          "duration": 0.125
        },
        {
          "name": "F#2",
          "midi": 42,
          "time": 22.49999999999998,
          "velocity": 0.5354330708661418,
          "duration": 0.24479166666666785
        },
        {
          "name": "F1",
          "midi": 29,
          "time": 22.74999999999998,
          "velocity": 0.47244094488188976,
          "duration": 0.08333333333333215
        },
        {
          "name": "G#2",
          "midi": 44,
          "time": 22.74999999999998,
          "velocity": 0.4881889763779528,
          "duration": 0.2447916666666643
        },
        {
          "name": "E1",
          "midi": 28,
          "time": 22.999999999999975,
          "velocity": 0.6299212598425197,
          "duration": 0.125
        },
        {
          "name": "F#2",
          "midi": 42,
          "time": 22.999999999999975,
          "velocity": 0.5354330708661418,
          "duration": 0.24479166666666785
        },
        {
          "name": "F1",
          "midi": 29,
          "time": 23.249999999999975,
          "velocity": 0.47244094488188976,
          "duration": 0.08333333333333215
        },
        {
          "name": "G#2",
          "midi": 44,
          "time": 23.249999999999975,
          "velocity": 0.47244094488188976,
          "duration": 0.2447916666666643
        },
        {
          "name": "E1",
          "midi": 28,
          "time": 23.49999999999997,
          "velocity": 0.6299212598425197,
          "duration": 0.125
        },
        {
          "name": "F#2",
          "midi": 42,
          "time": 23.49999999999997,
          "velocity": 0.5511811023622047,
          "duration": 0.24479166666666785
        },
        {
          "name": "F1",
          "midi": 29,
          "time": 23.74999999999997,
          "velocity": 0.4645669291338583,
          "duration": 0.08333333333333215
        },
        {
          "name": "G#2",
          "midi": 44,
          "time": 23.74999999999997,
          "velocity": 0.47244094488188976,
          "duration": 0.2447916666666643
        },
        {
          "name": "E1",
          "midi": 28,
          "time": 23.999999999999968,
          "velocity": 0.6299212598425197,
          "duration": 0.125
        },
        {
          "name": "F#2",
          "midi": 42,
          "time": 23.999999999999968,
          "velocity": 0.5354330708661418,
          "duration": 0.24479166666666785
        },
        {
          "name": "F1",
          "midi": 29,
          "time": 24.249999999999968,
          "velocity": 0.47244094488188976,
          "duration": 0.08333333333333215
        },
        {
          "name": "G#2",
          "midi": 44,
          "time": 24.249999999999968,
          "velocity": 0.4881889763779528,
          "duration": 0.2447916666666643
        },
        {
          "name": "E1",
          "midi": 28,
          "time": 24.499999999999964,
          "velocity": 0.6299212598425197,
          "duration": 0.125
        },
        {
          "name": "F#2",
          "midi": 42,
          "time": 24.499999999999964,
          "velocity": 0.5354330708661418,
          "duration": 0.24479166666666785
        },
        {
          "name": "F1",
          "midi": 29,
          "time": 24.749999999999964,
          "velocity": 0.4645669291338583,
          "duration": 0.08333333333333215
        },
        {
          "name": "G#2",
          "midi": 44,
          "time": 24.749999999999964,
          "velocity": 0.4881889763779528,
          "duration": 0.2447916666666643
        },
        {
          "name": "E1",
          "midi": 28,
          "time": 24.99999999999996,
          "velocity": 0.6299212598425197,
          "duration": 0.125
        },
        {
          "name": "F#2",
          "midi": 42,
          "time": 24.99999999999996,
          "velocity": 0.5354330708661418,
          "duration": 0.24479166666666785
        },
        {
          "name": "F1",
          "midi": 29,
          "time": 25.24999999999996,
          "velocity": 0.4645669291338583,
          "duration": 0.08333333333333215
        },
        {
          "name": "G#2",
          "midi": 44,
          "time": 25.24999999999996,
          "velocity": 0.4881889763779528,
          "duration": 0.2447916666666643
        },
        {
          "name": "F1",
          "midi": 29,
          "time": 25.37499999999996,
          "velocity": 0.4645669291338583,
          "duration": 0.08333333333333215
        },
        {
          "name": "E1",
          "midi": 28,
          "time": 25.499999999999957,
          "velocity": 0.6299212598425197,
          "duration": 0.125
        },
        {
          "name": "F1",
          "midi": 29,
          "time": 25.499999999999957,
          "velocity": 0.4645669291338583,
          "duration": 0.08333333333333215
        },
        {
          "name": "F#2",
          "midi": 42,
          "time": 25.499999999999957,
          "velocity": 0.5354330708661418,
          "duration": 0.24479166666666785
        },
        {
          "name": "F1",
          "midi": 29,
          "time": 25.749999999999957,
          "velocity": 0.47244094488188976,
          "duration": 0.08333333333333215
        },
        {
          "name": "G#2",
          "midi": 44,
          "time": 25.749999999999957,
          "velocity": 0.4881889763779528,
          "duration": 0.24479166666666785
        },
        {
          "name": "F1",
          "midi": 29,
          "time": 25.874999999999957,
          "velocity": 0.4645669291338583,
          "duration": 0.0625
        },
        {
          "name": "F1",
          "midi": 29,
          "time": 25.937499999999957,
          "velocity": 0.4645669291338583,
          "duration": 0.0625
        },
        {
          "name": "E1",
          "midi": 28,
          "time": 25.999999999999957,
          "velocity": 0.6299212598425197,
          "duration": 0.125
        },
        {
          "name": "F#2",
          "midi": 42,
          "time": 25.999999999999957,
          "velocity": 0.5511811023622047,
          "duration": 0.24479166666666785
        },
        {
          "name": "C#3",
          "midi": 49,
          "time": 25.999999999999957,
          "velocity": 0.5669291338582677,
          "duration": 1.9999999999999858
        },
        {
          "name": "F1",
          "midi": 29,
          "time": 26.249999999999957,
          "velocity": 0.47244094488188976,
          "duration": 0.08333333333333215
        },
        {
          "name": "G#2",
          "midi": 44,
          "time": 26.249999999999957,
          "velocity": 0.4881889763779528,
          "duration": 0.2447916666666643
        },
        {
          "name": "E1",
          "midi": 28,
          "time": 26.499999999999954,
          "velocity": 0.6299212598425197,
          "duration": 0.125
        },
        {
          "name": "F#2",
          "midi": 42,
          "time": 26.499999999999954,
          "velocity": 0.5354330708661418,
          "duration": 0.24479166666666785
        },
        {
          "name": "F1",
          "midi": 29,
          "time": 26.749999999999954,
          "velocity": 0.4645669291338583,
          "duration": 0.08333333333333215
        },
        {
          "name": "G#2",
          "midi": 44,
          "time": 26.749999999999954,
          "velocity": 0.4881889763779528,
          "duration": 0.2447916666666643
        },
        {
          "name": "E1",
          "midi": 28,
          "time": 26.99999999999995,
          "velocity": 0.6299212598425197,
          "duration": 0.125
        },
        {
          "name": "F#2",
          "midi": 42,
          "time": 26.99999999999995,
          "velocity": 0.5354330708661418,
          "duration": 0.24479166666666785
        },
        {
          "name": "F1",
          "midi": 29,
          "time": 27.24999999999995,
          "velocity": 0.4645669291338583,
          "duration": 0.08333333333333215
        },
        {
          "name": "G#2",
          "midi": 44,
          "time": 27.24999999999995,
          "velocity": 0.4881889763779528,
          "duration": 0.2447916666666643
        },
        {
          "name": "E1",
          "midi": 28,
          "time": 27.499999999999947,
          "velocity": 0.6299212598425197,
          "duration": 0.125
        },
        {
          "name": "F#2",
          "midi": 42,
          "time": 27.499999999999947,
          "velocity": 0.5354330708661418,
          "duration": 0.24479166666666785
        },
        {
          "name": "F1",
          "midi": 29,
          "time": 27.749999999999947,
          "velocity": 0.4645669291338583,
          "duration": 0.08333333333333215
        },
        {
          "name": "G#2",
          "midi": 44,
          "time": 27.749999999999947,
          "velocity": 0.4881889763779528,
          "duration": 0.2447916666666643
        },
        {
          "name": "E1",
          "midi": 28,
          "time": 27.999999999999943,
          "velocity": 0.6299212598425197,
          "duration": 0.125
        },
        {
          "name": "D#3",
          "midi": 51,
          "time": 27.999999999999943,
          "velocity": 0.5354330708661418,
          "duration": 0.24479166666666785
        },
        {
          "name": "A3",
          "midi": 57,
          "time": 27.999999999999943,
          "velocity": 0.5669291338582677,
          "duration": 1.9999999999999858
        },
        {
          "name": "F1",
          "midi": 29,
          "time": 28.249999999999943,
          "velocity": 0.47244094488188976,
          "duration": 0.08333333333333215
        },
        {
          "name": "G#2",
          "midi": 44,
          "time": 28.249999999999943,
          "velocity": 0.47244094488188976,
          "duration": 0.2447916666666643
        },
        {
          "name": "E1",
          "midi": 28,
          "time": 28.49999999999994,
          "velocity": 0.6299212598425197,
          "duration": 0.125
        },
        {
          "name": "D#3",
          "midi": 51,
          "time": 28.49999999999994,
          "velocity": 0.5275590551181102,
          "duration": 0.24479166666666785
        },
        {
          "name": "F1",
          "midi": 29,
          "time": 28.74999999999994,
          "velocity": 0.4645669291338583,
          "duration": 0.08333333333333215
        },
        {
          "name": "G#2",
          "midi": 44,
          "time": 28.74999999999994,
          "velocity": 0.47244094488188976,
          "duration": 0.2447916666666643
        },
        {
          "name": "E1",
          "midi": 28,
          "time": 28.999999999999936,
          "velocity": 0.6299212598425197,
          "duration": 0.125
        },
        {
          "name": "D#3",
          "midi": 51,
          "time": 28.999999999999936,
          "velocity": 0.5354330708661418,
          "duration": 0.24479166666666785
        },
        {
          "name": "F1",
          "midi": 29,
          "time": 29.249999999999936,
          "velocity": 0.4645669291338583,
          "duration": 0.08333333333333215
        },
        {
          "name": "G#2",
          "midi": 44,
          "time": 29.249999999999936,
          "velocity": 0.4881889763779528,
          "duration": 0.2447916666666643
        },
        {
          "name": "F1",
          "midi": 29,
          "time": 29.374999999999936,
          "velocity": 0.4645669291338583,
          "duration": 0.08333333333333215
        },
        {
          "name": "E1",
          "midi": 28,
          "time": 29.499999999999932,
          "velocity": 0.6299212598425197,
          "duration": 0.125
        },
        {
          "name": "F1",
          "midi": 29,
          "time": 29.499999999999932,
          "velocity": 0.4645669291338583,
          "duration": 0.08333333333333215
        },
        {
          "name": "D#3",
          "midi": 51,
          "time": 29.499999999999932,
          "velocity": 0.5354330708661418,
          "duration": 0.24479166666666785
        },
        {
          "name": "F1",
          "midi": 29,
          "time": 29.749999999999932,
          "velocity": 0.47244094488188976,
          "duration": 0.08333333333333215
        },
        {
          "name": "G#2",
          "midi": 44,
          "time": 29.749999999999932,
          "velocity": 0.5039370078740157,
          "duration": 0.2447916666666643
        },
        {
          "name": "E1",
          "midi": 28,
          "time": 29.99999999999993,
          "velocity": 0.6299212598425197,
          "duration": 0.125
        },
        {
          "name": "D#3",
          "midi": 51,
          "time": 29.99999999999993,
          "velocity": 0.5511811023622047,
          "duration": 0.24479166666666785
        },
        {
          "name": "C#3",
          "midi": 49,
          "time": 29.99999999999993,
          "velocity": 0.5669291338582677,
          "duration": 1.9999999999999858
        },
        {
          "name": "F1",
          "midi": 29,
          "time": 30.24999999999993,
          "velocity": 0.47244094488188976,
          "duration": 0.08333333333333215
        },
        {
          "name": "G#2",
          "midi": 44,
          "time": 30.24999999999993,
          "velocity": 0.4881889763779528,
          "duration": 0.2447916666666643
        },
        {
          "name": "E1",
          "midi": 28,
          "time": 30.499999999999925,
          "velocity": 0.6299212598425197,
          "duration": 0.125
        },
        {
          "name": "D#3",
          "midi": 51,
          "time": 30.499999999999925,
          "velocity": 0.5354330708661418,
          "duration": 0.24479166666666785
        },
        {
          "name": "F1",
          "midi": 29,
          "time": 30.749999999999925,
          "velocity": 0.4645669291338583,
          "duration": 0.08333333333333215
        },
        {
          "name": "G#2",
          "midi": 44,
          "time": 30.749999999999925,
          "velocity": 0.4881889763779528,
          "duration": 0.2447916666666643
        },
        {
          "name": "E1",
          "midi": 28,
          "time": 30.999999999999922,
          "velocity": 0.6299212598425197,
          "duration": 0.125
        },
        {
          "name": "D#3",
          "midi": 51,
          "time": 30.999999999999922,
          "velocity": 0.5354330708661418,
          "duration": 0.24479166666666785
        },
        {
          "name": "A3",
          "midi": 57,
          "time": 30.999999999999922,
          "velocity": 0.5669291338582677,
          "duration": 1.5
        },
        {
          "name": "F1",
          "midi": 29,
          "time": 31.249999999999922,
          "velocity": 0.47244094488188976,
          "duration": 0.08333333333333215
        },
        {
          "name": "G#2",
          "midi": 44,
          "time": 31.249999999999922,
          "velocity": 0.4881889763779528,
          "duration": 0.2447916666666643
        },
        {
          "name": "F1",
          "midi": 29,
          "time": 31.374999999999922,
          "velocity": 0.4881889763779528,
          "duration": 0.08333333333333215
        },
        {
          "name": "E1",
          "midi": 28,
          "time": 31.49999999999992,
          "velocity": 0.6299212598425197,
          "duration": 0.125
        },
        {
          "name": "F1",
          "midi": 29,
          "time": 31.49999999999992,
          "velocity": 0.4881889763779528,
          "duration": 0.08333333333333215
        },
        {
          "name": "D#3",
          "midi": 51,
          "time": 31.49999999999992,
          "velocity": 0.5354330708661418,
          "duration": 0.24479166666666785
        },
        {
          "name": "F1",
          "midi": 29,
          "time": 31.74999999999992,
          "velocity": 0.4881889763779528,
          "duration": 0.08333333333333215
        },
        {
          "name": "G#2",
          "midi": 44,
          "time": 31.74999999999992,
          "velocity": 0.4881889763779528,
          "duration": 0.2447916666666643
        },
        {
          "name": "E1",
          "midi": 28,
          "time": 31.999999999999915,
          "velocity": 0.6299212598425197,
          "duration": 0.125
        },
        {
          "name": "F#2",
          "midi": 42,
          "time": 31.999999999999915,
          "velocity": 0.5511811023622047,
          "duration": 0.2447916666666643
        },
        {
          "name": "C#3",
          "midi": 49,
          "time": 31.999999999999915,
          "velocity": 0.5669291338582677,
          "duration": 2.0000000000000284
        },
        {
          "name": "F1",
          "midi": 29,
          "time": 32.249999999999915,
          "velocity": 0.47244094488188976,
          "duration": 0.0833333333333357
        },
        {
          "name": "G#2",
          "midi": 44,
          "time": 32.249999999999915,
          "velocity": 0.4881889763779528,
          "duration": 0.2447916666666714
        },
        {
          "name": "E1",
          "midi": 28,
          "time": 32.49999999999992,
          "velocity": 0.6299212598425197,
          "duration": 0.125
        },
        {
          "name": "F#2",
          "midi": 42,
          "time": 32.49999999999992,
          "velocity": 0.5354330708661418,
          "duration": 0.2447916666666643
        },
        {
          "name": "F1",
          "midi": 29,
          "time": 32.74999999999992,
          "velocity": 0.4645669291338583,
          "duration": 0.0833333333333357
        },
        {
          "name": "G#2",
          "midi": 44,
          "time": 32.74999999999992,
          "velocity": 0.4881889763779528,
          "duration": 0.2447916666666714
        },
        {
          "name": "E1",
          "midi": 28,
          "time": 32.99999999999993,
          "velocity": 0.6299212598425197,
          "duration": 0.125
        },
        {
          "name": "F#2",
          "midi": 42,
          "time": 32.99999999999993,
          "velocity": 0.5354330708661418,
          "duration": 0.2447916666666643
        },
        {
          "name": "F1",
          "midi": 29,
          "time": 33.24999999999993,
          "velocity": 0.4645669291338583,
          "duration": 0.0833333333333357
        },
        {
          "name": "G#2",
          "midi": 44,
          "time": 33.24999999999993,
          "velocity": 0.4881889763779528,
          "duration": 0.2447916666666714
        },
        {
          "name": "E1",
          "midi": 28,
          "time": 33.499999999999936,
          "velocity": 0.6299212598425197,
          "duration": 0.125
        },
        {
          "name": "F#2",
          "midi": 42,
          "time": 33.499999999999936,
          "velocity": 0.5354330708661418,
          "duration": 0.2447916666666643
        },
        {
          "name": "F1",
          "midi": 29,
          "time": 33.749999999999936,
          "velocity": 0.4645669291338583,
          "duration": 0.0833333333333357
        },
        {
          "name": "G#2",
          "midi": 44,
          "time": 33.749999999999936,
          "velocity": 0.4881889763779528,
          "duration": 0.2447916666666714
        },
        {
          "name": "E1",
          "midi": 28,
          "time": 33.99999999999994,
          "velocity": 0.6299212598425197,
          "duration": 0.125
        },
        {
          "name": "F#2",
          "midi": 42,
          "time": 33.99999999999994,
          "velocity": 0.5354330708661418,
          "duration": 0.2447916666666643
        },
        {
          "name": "F1",
          "midi": 29,
          "time": 34.24999999999994,
          "velocity": 0.47244094488188976,
          "duration": 0.0833333333333357
        },
        {
          "name": "G#2",
          "midi": 44,
          "time": 34.24999999999994,
          "velocity": 0.47244094488188976,
          "duration": 0.2447916666666714
        },
        {
          "name": "E1",
          "midi": 28,
          "time": 34.49999999999995,
          "velocity": 0.6299212598425197,
          "duration": 0.125
        },
        {
          "name": "F#2",
          "midi": 42,
          "time": 34.49999999999995,
          "velocity": 0.5275590551181102,
          "duration": 0.2447916666666643
        },
        {
          "name": "F1",
          "midi": 29,
          "time": 34.74999999999995,
          "velocity": 0.47244094488188976,
          "duration": 0.0833333333333357
        },
        {
          "name": "G#2",
          "midi": 44,
          "time": 34.74999999999995,
          "velocity": 0.47244094488188976,
          "duration": 0.2447916666666714
        },
        {
          "name": "E1",
          "midi": 28,
          "time": 34.99999999999996,
          "velocity": 0.6299212598425197,
          "duration": 0.125
        },
        {
          "name": "F#2",
          "midi": 42,
          "time": 34.99999999999996,
          "velocity": 0.5354330708661418,
          "duration": 0.2447916666666643
        },
        {
          "name": "F1",
          "midi": 29,
          "time": 35.24999999999996,
          "velocity": 0.4645669291338583,
          "duration": 0.0833333333333357
        },
        {
          "name": "G#2",
          "midi": 44,
          "time": 35.24999999999996,
          "velocity": 0.4881889763779528,
          "duration": 0.2447916666666714
        },
        {
          "name": "E1",
          "midi": 28,
          "time": 35.499999999999964,
          "velocity": 0.6299212598425197,
          "duration": 0.125
        },
        {
          "name": "F1",
          "midi": 29,
          "time": 35.499999999999964,
          "velocity": 0.4645669291338583,
          "duration": 0.0833333333333357
        },
        {
          "name": "F#2",
          "midi": 42,
          "time": 35.499999999999964,
          "velocity": 0.5354330708661418,
          "duration": 0.2447916666666643
        },
        {
          "name": "F1",
          "midi": 29,
          "time": 35.749999999999964,
          "velocity": 0.47244094488188976,
          "duration": 0.0833333333333357
        },
        {
          "name": "G#2",
          "midi": 44,
          "time": 35.749999999999964,
          "velocity": 0.5039370078740157,
          "duration": 0.2447916666666714
        },
        {
          "name": "E1",
          "midi": 28,
          "time": 35.99999999999997,
          "velocity": 0.6299212598425197,
          "duration": 0.125
        },
        {
          "name": "F#2",
          "midi": 42,
          "time": 35.99999999999997,
          "velocity": 0.5354330708661418,
          "duration": 0.2447916666666643
        },
        {
          "name": "F1",
          "midi": 29,
          "time": 36.24999999999997,
          "velocity": 0.4645669291338583,
          "duration": 0.0833333333333357
        },
        {
          "name": "G#2",
          "midi": 44,
          "time": 36.24999999999997,
          "velocity": 0.4881889763779528,
          "duration": 0.2447916666666714
        },
        {
          "name": "E1",
          "midi": 28,
          "time": 36.49999999999998,
          "velocity": 0.6299212598425197,
          "duration": 0.125
        },
        {
          "name": "F#2",
          "midi": 42,
          "time": 36.49999999999998,
          "velocity": 0.5354330708661418,
          "duration": 0.2447916666666643
        },
        {
          "name": "F1",
          "midi": 29,
          "time": 36.74999999999998,
          "velocity": 0.47244094488188976,
          "duration": 0.0833333333333357
        },
        {
          "name": "G#2",
          "midi": 44,
          "time": 36.74999999999998,
          "velocity": 0.4881889763779528,
          "duration": 0.2447916666666714
        },
        {
          "name": "E1",
          "midi": 28,
          "time": 36.999999999999986,
          "velocity": 0.6299212598425197,
          "duration": 0.125
        },
        {
          "name": "F#2",
          "midi": 42,
          "time": 36.999999999999986,
          "velocity": 0.5354330708661418,
          "duration": 0.2447916666666643
        },
        {
          "name": "F1",
          "midi": 29,
          "time": 37.249999999999986,
          "velocity": 0.47244094488188976,
          "duration": 0.0833333333333357
        },
        {
          "name": "G#2",
          "midi": 44,
          "time": 37.249999999999986,
          "velocity": 0.47244094488188976,
          "duration": 0.2447916666666714
        },
        {
          "name": "E1",
          "midi": 28,
          "time": 37.49999999999999,
          "velocity": 0.6299212598425197,
          "duration": 0.125
        },
        {
          "name": "F#2",
          "midi": 42,
          "time": 37.49999999999999,
          "velocity": 0.5511811023622047,
          "duration": 0.2447916666666643
        },
        {
          "name": "F1",
          "midi": 29,
          "time": 37.74999999999999,
          "velocity": 0.4645669291338583,
          "duration": 0.0833333333333357
        },
        {
          "name": "G#2",
          "midi": 44,
          "time": 37.74999999999999,
          "velocity": 0.47244094488188976,
          "duration": 0.2447916666666714
        },
        {
          "name": "E1",
          "midi": 28,
          "time": 38,
          "velocity": 0.6299212598425197,
          "duration": 0.125
        },
        {
          "name": "F#2",
          "midi": 42,
          "time": 38,
          "velocity": 0.5354330708661418,
          "duration": 0.2447916666666643
        },
        {
          "name": "F1",
          "midi": 29,
          "time": 38.25,
          "velocity": 0.47244094488188976,
          "duration": 0.0833333333333357
        },
        {
          "name": "G#2",
          "midi": 44,
          "time": 38.25,
          "velocity": 0.4881889763779528,
          "duration": 0.2447916666666714
        },
        {
          "name": "E1",
          "midi": 28,
          "time": 38.50000000000001,
          "velocity": 0.6299212598425197,
          "duration": 0.125
        },
        {
          "name": "F#2",
          "midi": 42,
          "time": 38.50000000000001,
          "velocity": 0.5354330708661418,
          "duration": 0.2447916666666643
        },
        {
          "name": "F1",
          "midi": 29,
          "time": 38.75000000000001,
          "velocity": 0.4645669291338583,
          "duration": 0.0833333333333357
        },
        {
          "name": "G#2",
          "midi": 44,
          "time": 38.75000000000001,
          "velocity": 0.4881889763779528,
          "duration": 0.2447916666666714
        },
        {
          "name": "E1",
          "midi": 28,
          "time": 39.000000000000014,
          "velocity": 0.6299212598425197,
          "duration": 0.125
        },
        {
          "name": "F#2",
          "midi": 42,
          "time": 39.000000000000014,
          "velocity": 0.5354330708661418,
          "duration": 0.2447916666666643
        },
        {
          "name": "F1",
          "midi": 29,
          "time": 39.250000000000014,
          "velocity": 0.5118110236220472,
          "duration": 0.0833333333333357
        },
        {
          "name": "G#2",
          "midi": 44,
          "time": 39.250000000000014,
          "velocity": 0.4881889763779528,
          "duration": 0.2447916666666714
        },
        {
          "name": "F1",
          "midi": 29,
          "time": 39.375000000000014,
          "velocity": 0.5511811023622047,
          "duration": 0.0833333333333357
        },
        {
          "name": "E1",
          "midi": 28,
          "time": 39.50000000000002,
          "velocity": 0.6299212598425197,
          "duration": 0.125
        },
        {
          "name": "F1",
          "midi": 29,
          "time": 39.50000000000002,
          "velocity": 0.5748031496062992,
          "duration": 0.0833333333333357
        },
        {
          "name": "F#2",
          "midi": 42,
          "time": 39.50000000000002,
          "velocity": 0.5354330708661418,
          "duration": 0.2447916666666643
        },
        {
          "name": "A3",
          "midi": 57,
          "time": 39.50000000000002,
          "velocity": 0.5669291338582677,
          "duration": 0.4895833333333357
        },
        {
          "name": "F1",
          "midi": 29,
          "time": 39.75000000000002,
          "velocity": 0.6141732283464567,
          "duration": 0.0833333333333357
        },
        {
          "name": "G#2",
          "midi": 44,
          "time": 39.75000000000002,
          "velocity": 0.5039370078740157,
          "duration": 0.2395833333333357
        },
        {
          "name": "E1",
          "midi": 28,
          "time": 40.00000000000002,
          "velocity": 0.6299212598425197,
          "duration": 0.125
        },
        {
          "name": "F#2",
          "midi": 42,
          "time": 40.00000000000002,
          "velocity": 0.5511811023622047,
          "duration": 0.2447916666666643
        },
        {
          "name": "C#3",
          "midi": 49,
          "time": 40.00000000000002,
          "velocity": 0.5669291338582677,
          "duration": 2.0000000000000284
        },
        {
          "name": "F1",
          "midi": 29,
          "time": 40.25000000000002,
          "velocity": 0.47244094488188976,
          "duration": 0.0833333333333357
        },
        {
          "name": "G#2",
          "midi": 44,
          "time": 40.25000000000002,
          "velocity": 0.4881889763779528,
          "duration": 0.2447916666666714
        },
        {
          "name": "E1",
          "midi": 28,
          "time": 40.50000000000003,
          "velocity": 0.6299212598425197,
          "duration": 0.125
        },
        {
          "name": "F#2",
          "midi": 42,
          "time": 40.50000000000003,
          "velocity": 0.5354330708661418,
          "duration": 0.2447916666666643
        },
        {
          "name": "F1",
          "midi": 29,
          "time": 40.75000000000003,
          "velocity": 0.4645669291338583,
          "duration": 0.0833333333333357
        },
        {
          "name": "G#2",
          "midi": 44,
          "time": 40.75000000000003,
          "velocity": 0.4881889763779528,
          "duration": 0.2447916666666714
        },
        {
          "name": "E1",
          "midi": 28,
          "time": 41.000000000000036,
          "velocity": 0.6299212598425197,
          "duration": 0.125
        },
        {
          "name": "F#2",
          "midi": 42,
          "time": 41.000000000000036,
          "velocity": 0.5354330708661418,
          "duration": 0.2447916666666643
        },
        {
          "name": "F1",
          "midi": 29,
          "time": 41.250000000000036,
          "velocity": 0.4645669291338583,
          "duration": 0.0833333333333357
        },
        {
          "name": "G#2",
          "midi": 44,
          "time": 41.250000000000036,
          "velocity": 0.4881889763779528,
          "duration": 0.2447916666666714
        },
        {
          "name": "E1",
          "midi": 28,
          "time": 41.50000000000004,
          "velocity": 0.6299212598425197,
          "duration": 0.125
        },
        {
          "name": "F#2",
          "midi": 42,
          "time": 41.50000000000004,
          "velocity": 0.5354330708661418,
          "duration": 0.2447916666666643
        },
        {
          "name": "F1",
          "midi": 29,
          "time": 41.75000000000004,
          "velocity": 0.4645669291338583,
          "duration": 0.0833333333333357
        },
        {
          "name": "G#2",
          "midi": 44,
          "time": 41.75000000000004,
          "velocity": 0.4881889763779528,
          "duration": 0.2447916666666714
        },
        {
          "name": "E1",
          "midi": 28,
          "time": 42.00000000000005,
          "velocity": 0.6299212598425197,
          "duration": 0.125
        },
        {
          "name": "F#2",
          "midi": 42,
          "time": 42.00000000000005,
          "velocity": 0.5354330708661418,
          "duration": 0.2447916666666643
        },
        {
          "name": "F1",
          "midi": 29,
          "time": 42.25000000000005,
          "velocity": 0.47244094488188976,
          "duration": 0.0833333333333357
        },
        {
          "name": "G#2",
          "midi": 44,
          "time": 42.25000000000005,
          "velocity": 0.47244094488188976,
          "duration": 0.2447916666666714
        },
        {
          "name": "E1",
          "midi": 28,
          "time": 42.50000000000006,
          "velocity": 0.6299212598425197,
          "duration": 0.125
        },
        {
          "name": "F#2",
          "midi": 42,
          "time": 42.50000000000006,
          "velocity": 0.5275590551181102,
          "duration": 0.2447916666666643
        },
        {
          "name": "F1",
          "midi": 29,
          "time": 42.75000000000006,
          "velocity": 0.47244094488188976,
          "duration": 0.0833333333333357
        },
        {
          "name": "G#2",
          "midi": 44,
          "time": 42.75000000000006,
          "velocity": 0.47244094488188976,
          "duration": 0.2447916666666714
        },
        {
          "name": "E1",
          "midi": 28,
          "time": 43.000000000000064,
          "velocity": 0.6299212598425197,
          "duration": 0.125
        },
        {
          "name": "F#2",
          "midi": 42,
          "time": 43.000000000000064,
          "velocity": 0.5354330708661418,
          "duration": 0.2447916666666643
        },
        {
          "name": "F1",
          "midi": 29,
          "time": 43.250000000000064,
          "velocity": 0.4645669291338583,
          "duration": 0.0833333333333357
        },
        {
          "name": "G#2",
          "midi": 44,
          "time": 43.250000000000064,
          "velocity": 0.4881889763779528,
          "duration": 0.2447916666666714
        },
        {
          "name": "E1",
          "midi": 28,
          "time": 43.50000000000007,
          "velocity": 0.6299212598425197,
          "duration": 0.125
        },
        {
          "name": "F1",
          "midi": 29,
          "time": 43.50000000000007,
          "velocity": 0.4645669291338583,
          "duration": 0.0833333333333357
        },
        {
          "name": "F#2",
          "midi": 42,
          "time": 43.50000000000007,
          "velocity": 0.5354330708661418,
          "duration": 0.2447916666666643
        },
        {
          "name": "F1",
          "midi": 29,
          "time": 43.75000000000007,
          "velocity": 0.47244094488188976,
          "duration": 0.0833333333333357
        },
        {
          "name": "G#2",
          "midi": 44,
          "time": 43.75000000000007,
          "velocity": 0.5039370078740157,
          "duration": 0.2447916666666714
        },
        {
          "name": "E1",
          "midi": 28,
          "time": 44.00000000000008,
          "velocity": 0.6299212598425197,
          "duration": 0.125
        },
        {
          "name": "F#2",
          "midi": 42,
          "time": 44.00000000000008,
          "velocity": 0.5511811023622047,
          "duration": 0.2447916666666643
        },
        {
          "name": "C#3",
          "midi": 49,
          "time": 44.00000000000008,
          "velocity": 0.5669291338582677,
          "duration": 2.0000000000000213
        },
        {
          "name": "G#2",
          "midi": 44,
          "time": 44.25000000000008,
          "velocity": 0.4881889763779528,
          "duration": 0.2447916666666643
        },
        {
          "name": "F1",
          "midi": 29,
          "time": 44.31250000000008,
          "velocity": 0.23622047244094488,
          "duration": 0.0625
        },
        {
          "name": "F1",
          "midi": 29,
          "time": 44.37500000000008,
          "velocity": 0.33858267716535434,
          "duration": 0.0625
        },
        {
          "name": "F1",
          "midi": 29,
          "time": 44.43750000000008,
          "velocity": 0.44881889763779526,
          "duration": 0.0625
        },
        {
          "name": "E1",
          "midi": 28,
          "time": 44.50000000000008,
          "velocity": 0.6299212598425197,
          "duration": 0.125
        },
        {
          "name": "F1",
          "midi": 29,
          "time": 44.50000000000008,
          "velocity": 0.5118110236220472,
          "duration": 0.0833333333333357
        },
        {
          "name": "F#2",
          "midi": 42,
          "time": 44.50000000000008,
          "velocity": 0.5354330708661418,
          "duration": 0.2447916666666643
        },
        {
          "name": "F1",
          "midi": 29,
          "time": 44.75000000000008,
          "velocity": 0.5748031496062992,
          "duration": 0.0833333333333357
        },
        {
          "name": "G#2",
          "midi": 44,
          "time": 44.75000000000008,
          "velocity": 0.4881889763779528,
          "duration": 0.2447916666666714
        },
        {
          "name": "E1",
          "midi": 28,
          "time": 45.000000000000085,
          "velocity": 0.6299212598425197,
          "duration": 0.125
        },
        {
          "name": "F#2",
          "midi": 42,
          "time": 45.000000000000085,
          "velocity": 0.5354330708661418,
          "duration": 0.2447916666666643
        },
        {
          "name": "A3",
          "midi": 57,
          "time": 45.000000000000085,
          "velocity": 0.5669291338582677,
          "duration": 1.5000000000000213
        },
        {
          "name": "F1",
          "midi": 29,
          "time": 45.250000000000085,
          "velocity": 0.47244094488188976,
          "duration": 0.0833333333333357
        },
        {
          "name": "G#2",
          "midi": 44,
          "time": 45.250000000000085,
          "velocity": 0.4881889763779528,
          "duration": 0.2447916666666714
        },
        {
          "name": "F1",
          "midi": 29,
          "time": 45.375000000000085,
          "velocity": 0.4881889763779528,
          "duration": 0.0833333333333357
        },
        {
          "name": "E1",
          "midi": 28,
          "time": 45.50000000000009,
          "velocity": 0.6299212598425197,
          "duration": 0.125
        },
        {
          "name": "F1",
          "midi": 29,
          "time": 45.50000000000009,
          "velocity": 0.4881889763779528,
          "duration": 0.0833333333333357
        },
        {
          "name": "F#2",
          "midi": 42,
          "time": 45.50000000000009,
          "velocity": 0.5354330708661418,
          "duration": 0.2447916666666643
        },
        {
          "name": "F1",
          "midi": 29,
          "time": 45.75000000000009,
          "velocity": 0.4881889763779528,
          "duration": 0.0833333333333357
        },
        {
          "name": "G#2",
          "midi": 44,
          "time": 45.75000000000009,
          "velocity": 0.4881889763779528,
          "duration": 0.2447916666666714
        },
        {
          "name": "E1",
          "midi": 28,
          "time": 46.0000000000001,
          "velocity": 0.6299212598425197,
          "duration": 0.125
        },
        {
          "name": "F#2",
          "midi": 42,
          "time": 46.0000000000001,
          "velocity": 0.5354330708661418,
          "duration": 0.2447916666666643
        },
        {
          "name": "C#3",
          "midi": 49,
          "time": 46.0000000000001,
          "velocity": 0.5669291338582677,
          "duration": 1.989583333333357
        },
        {
          "name": "F1",
          "midi": 29,
          "time": 46.2500000000001,
          "velocity": 0.4645669291338583,
          "duration": 0.0833333333333357
        },
        {
          "name": "G#2",
          "midi": 44,
          "time": 46.2500000000001,
          "velocity": 0.47244094488188976,
          "duration": 0.2447916666666714
        },
        {
          "name": "E1",
          "midi": 28,
          "time": 46.50000000000011,
          "velocity": 0.6299212598425197,
          "duration": 0.125
        },
        {
          "name": "F#2",
          "midi": 42,
          "time": 46.50000000000011,
          "velocity": 0.5275590551181102,
          "duration": 0.2447916666666643
        },
        {
          "name": "A3",
          "midi": 57,
          "time": 46.50000000000011,
          "velocity": 0.5669291338582677,
          "duration": 1.48958333333335
        },
        {
          "name": "F1",
          "midi": 29,
          "time": 46.75000000000011,
          "velocity": 0.4645669291338583,
          "duration": 0.0833333333333357
        },
        {
          "name": "G#2",
          "midi": 44,
          "time": 46.75000000000011,
          "velocity": 0.47244094488188976,
          "duration": 0.2447916666666714
        },
        {
          "name": "E1",
          "midi": 28,
          "time": 47.000000000000114,
          "velocity": 0.6299212598425197,
          "duration": 0.125
        },
        {
          "name": "F1",
          "midi": 29,
          "time": 47.000000000000114,
          "velocity": 0.5511811023622047,
          "duration": 0.0625
        },
        {
          "name": "F#2",
          "midi": 42,
          "time": 47.000000000000114,
          "velocity": 0.5354330708661418,
          "duration": 0.2447916666666643
        },
        {
          "name": "C#3",
          "midi": 49,
          "time": 47.000000000000114,
          "velocity": 0.5669291338582677,
          "duration": 0.9895833333333428
        },
        {
          "name": "F1",
          "midi": 29,
          "time": 47.062500000000114,
          "velocity": 0.2755905511811024,
          "duration": 0.0625
        },
        {
          "name": "F1",
          "midi": 29,
          "time": 47.125000000000114,
          "velocity": 0.33858267716535434,
          "duration": 0.0625
        },
        {
          "name": "F1",
          "midi": 29,
          "time": 47.187500000000114,
          "velocity": 0.44881889763779526,
          "duration": 0.0625
        },
        {
          "name": "F1",
          "midi": 29,
          "time": 47.250000000000114,
          "velocity": 0.5118110236220472,
          "duration": 0.0833333333333357
        },
        {
          "name": "G#2",
          "midi": 44,
          "time": 47.250000000000114,
          "velocity": 0.4881889763779528,
          "duration": 0.2447916666666714
        },
        {
          "name": "F1",
          "midi": 29,
          "time": 47.375000000000114,
          "velocity": 0.5511811023622047,
          "duration": 0.0833333333333357
        },
        {
          "name": "E1",
          "midi": 28,
          "time": 47.50000000000012,
          "velocity": 0.6299212598425197,
          "duration": 0.125
        },
        {
          "name": "F1",
          "midi": 29,
          "time": 47.50000000000012,
          "velocity": 0.5748031496062992,
          "duration": 0.0833333333333357
        },
        {
          "name": "F#2",
          "midi": 42,
          "time": 47.50000000000012,
          "velocity": 0.5354330708661418,
          "duration": 0.2447916666666643
        },
        {
          "name": "A3",
          "midi": 57,
          "time": 47.50000000000012,
          "velocity": 0.5669291338582677,
          "duration": 0.4895833333333357
        },
        {
          "name": "F1",
          "midi": 29,
          "time": 47.75000000000012,
          "velocity": 0.6141732283464567,
          "duration": 0.0833333333333357
        },
        {
          "name": "G#2",
          "midi": 44,
          "time": 47.75000000000012,
          "velocity": 0.5039370078740157,
          "duration": 0.2395833333333357
        },
        {
          "name": "E1",
          "midi": 28,
          "time": 48.00000000000012,
          "velocity": 0.6299212598425197,
          "duration": 0.125
        },
        {
          "name": "D#3",
          "midi": 51,
          "time": 48.00000000000012,
          "velocity": 0.5511811023622047,
          "duration": 0.2447916666666643
        },
        {
          "name": "C#3",
          "midi": 49,
          "time": 48.00000000000012,
          "velocity": 0.5669291338582677,
          "duration": 2.0000000000000284
        },
        {
          "name": "F1",
          "midi": 29,
          "time": 48.25000000000012,
          "velocity": 0.47244094488188976,
          "duration": 0.0833333333333357
        },
        {
          "name": "G#2",
          "midi": 44,
          "time": 48.25000000000012,
          "velocity": 0.4881889763779528,
          "duration": 0.2447916666666714
        },
        {
          "name": "E1",
          "midi": 28,
          "time": 48.50000000000013,
          "velocity": 0.6299212598425197,
          "duration": 0.125
        },
        {
          "name": "D#3",
          "midi": 51,
          "time": 48.50000000000013,
          "velocity": 0.5354330708661418,
          "duration": 0.2447916666666643
        },
        {
          "name": "F1",
          "midi": 29,
          "time": 48.75000000000013,
          "velocity": 0.4645669291338583,
          "duration": 0.0833333333333357
        },
        {
          "name": "G#2",
          "midi": 44,
          "time": 48.75000000000013,
          "velocity": 0.4881889763779528,
          "duration": 0.2447916666666714
        },
        {
          "name": "E1",
          "midi": 28,
          "time": 49.000000000000135,
          "velocity": 0.6299212598425197,
          "duration": 0.125
        },
        {
          "name": "D#3",
          "midi": 51,
          "time": 49.000000000000135,
          "velocity": 0.5354330708661418,
          "duration": 0.2447916666666643
        },
        {
          "name": "F1",
          "midi": 29,
          "time": 49.250000000000135,
          "velocity": 0.4645669291338583,
          "duration": 0.0833333333333357
        },
        {
          "name": "G#2",
          "midi": 44,
          "time": 49.250000000000135,
          "velocity": 0.4881889763779528,
          "duration": 0.2447916666666714
        },
        {
          "name": "E1",
          "midi": 28,
          "time": 49.50000000000014,
          "velocity": 0.6299212598425197,
          "duration": 0.125
        },
        {
          "name": "D#3",
          "midi": 51,
          "time": 49.50000000000014,
          "velocity": 0.5354330708661418,
          "duration": 0.2447916666666643
        },
        {
          "name": "F1",
          "midi": 29,
          "time": 49.75000000000014,
          "velocity": 0.4645669291338583,
          "duration": 0.0833333333333357
        },
        {
          "name": "G#2",
          "midi": 44,
          "time": 49.75000000000014,
          "velocity": 0.4881889763779528,
          "duration": 0.2447916666666714
        },
        {
          "name": "E1",
          "midi": 28,
          "time": 50.00000000000015,
          "velocity": 0.6299212598425197,
          "duration": 0.125
        },
        {
          "name": "D#3",
          "midi": 51,
          "time": 50.00000000000015,
          "velocity": 0.5354330708661418,
          "duration": 0.2447916666666643
        },
        {
          "name": "A3",
          "midi": 57,
          "time": 50.00000000000015,
          "velocity": 0.5669291338582677,
          "duration": 2.0000000000000284
        },
        {
          "name": "F1",
          "midi": 29,
          "time": 50.25000000000015,
          "velocity": 0.47244094488188976,
          "duration": 0.0833333333333357
        },
        {
          "name": "G#2",
          "midi": 44,
          "time": 50.25000000000015,
          "velocity": 0.47244094488188976,
          "duration": 0.2447916666666714
        },
        {
          "name": "E1",
          "midi": 28,
          "time": 50.500000000000156,
          "velocity": 0.6299212598425197,
          "duration": 0.125
        },
        {
          "name": "D#3",
          "midi": 51,
          "time": 50.500000000000156,
          "velocity": 0.5275590551181102,
          "duration": 0.2447916666666643
        },
        {
          "name": "F1",
          "midi": 29,
          "time": 50.750000000000156,
          "velocity": 0.4645669291338583,
          "duration": 0.0833333333333357
        },
        {
          "name": "G#2",
          "midi": 44,
          "time": 50.750000000000156,
          "velocity": 0.47244094488188976,
          "duration": 0.2447916666666714
        },
        {
          "name": "E1",
          "midi": 28,
          "time": 51.00000000000016,
          "velocity": 0.6299212598425197,
          "duration": 0.125
        },
        {
          "name": "D#3",
          "midi": 51,
          "time": 51.00000000000016,
          "velocity": 0.5354330708661418,
          "duration": 0.2447916666666643
        },
        {
          "name": "F1",
          "midi": 29,
          "time": 51.25000000000016,
          "velocity": 0.4645669291338583,
          "duration": 0.0833333333333357
        },
        {
          "name": "G#2",
          "midi": 44,
          "time": 51.25000000000016,
          "velocity": 0.4881889763779528,
          "duration": 0.2447916666666714
        },
        {
          "name": "F1",
          "midi": 29,
          "time": 51.37500000000016,
          "velocity": 0.4645669291338583,
          "duration": 0.0833333333333357
        },
        {
          "name": "E1",
          "midi": 28,
          "time": 51.50000000000017,
          "velocity": 0.6299212598425197,
          "duration": 0.125
        },
        {
          "name": "F1",
          "midi": 29,
          "time": 51.50000000000017,
          "velocity": 0.4645669291338583,
          "duration": 0.0833333333333357
        },
        {
          "name": "D#3",
          "midi": 51,
          "time": 51.50000000000017,
          "velocity": 0.5354330708661418,
          "duration": 0.2447916666666643
        },
        {
          "name": "F1",
          "midi": 29,
          "time": 51.75000000000017,
          "velocity": 0.47244094488188976,
          "duration": 0.0833333333333357
        },
        {
          "name": "G#2",
          "midi": 44,
          "time": 51.75000000000017,
          "velocity": 0.5039370078740157,
          "duration": 0.2447916666666714
        },
        {
          "name": "E1",
          "midi": 28,
          "time": 52.00000000000018,
          "velocity": 0.6299212598425197,
          "duration": 0.125
        },
        {
          "name": "D#3",
          "midi": 51,
          "time": 52.00000000000018,
          "velocity": 0.5511811023622047,
          "duration": 0.2447916666666643
        },
        {
          "name": "C#3",
          "midi": 49,
          "time": 52.00000000000018,
          "velocity": 0.5669291338582677,
          "duration": 2.0000000000000284
        },
        {
          "name": "F1",
          "midi": 29,
          "time": 52.25000000000018,
          "velocity": 0.47244094488188976,
          "duration": 0.0833333333333357
        },
        {
          "name": "G#2",
          "midi": 44,
          "time": 52.25000000000018,
          "velocity": 0.4881889763779528,
          "duration": 0.2447916666666714
        },
        {
          "name": "E1",
          "midi": 28,
          "time": 52.500000000000185,
          "velocity": 0.6299212598425197,
          "duration": 0.125
        },
        {
          "name": "D#3",
          "midi": 51,
          "time": 52.500000000000185,
          "velocity": 0.5354330708661418,
          "duration": 0.2447916666666643
        },
        {
          "name": "F1",
          "midi": 29,
          "time": 52.750000000000185,
          "velocity": 0.4645669291338583,
          "duration": 0.0833333333333357
        },
        {
          "name": "G#2",
          "midi": 44,
          "time": 52.750000000000185,
          "velocity": 0.4881889763779528,
          "duration": 0.2447916666666714
        },
        {
          "name": "E1",
          "midi": 28,
          "time": 53.00000000000019,
          "velocity": 0.6299212598425197,
          "duration": 0.125
        },
        {
          "name": "D#3",
          "midi": 51,
          "time": 53.00000000000019,
          "velocity": 0.5354330708661418,
          "duration": 0.2447916666666643
        },
        {
          "name": "F1",
          "midi": 29,
          "time": 53.25000000000019,
          "velocity": 0.4645669291338583,
          "duration": 0.0833333333333357
        },
        {
          "name": "G#2",
          "midi": 44,
          "time": 53.25000000000019,
          "velocity": 0.4881889763779528,
          "duration": 0.2447916666666714
        },
        {
          "name": "E1",
          "midi": 28,
          "time": 53.5000000000002,
          "velocity": 0.6299212598425197,
          "duration": 0.125
        },
        {
          "name": "D#3",
          "midi": 51,
          "time": 53.5000000000002,
          "velocity": 0.5354330708661418,
          "duration": 0.2447916666666643
        },
        {
          "name": "F1",
          "midi": 29,
          "time": 53.7500000000002,
          "velocity": 0.4645669291338583,
          "duration": 0.0833333333333357
        },
        {
          "name": "G#2",
          "midi": 44,
          "time": 53.7500000000002,
          "velocity": 0.4881889763779528,
          "duration": 0.2447916666666714
        },
        {
          "name": "E1",
          "midi": 28,
          "time": 54.000000000000206,
          "velocity": 0.6299212598425197,
          "duration": 0.125
        },
        {
          "name": "D#3",
          "midi": 51,
          "time": 54.000000000000206,
          "velocity": 0.5354330708661418,
          "duration": 0.2447916666666643
        },
        {
          "name": "A3",
          "midi": 57,
          "time": 54.000000000000206,
          "velocity": 0.5669291338582677,
          "duration": 2.0000000000000213
        },
        {
          "name": "F1",
          "midi": 29,
          "time": 54.250000000000206,
          "velocity": 0.47244094488188976,
          "duration": 0.0833333333333357
        },
        {
          "name": "G#2",
          "midi": 44,
          "time": 54.250000000000206,
          "velocity": 0.4881889763779528,
          "duration": 0.2447916666666714
        },
        {
          "name": "E1",
          "midi": 28,
          "time": 54.50000000000021,
          "velocity": 0.6299212598425197,
          "duration": 0.125
        },
        {
          "name": "D#3",
          "midi": 51,
          "time": 54.50000000000021,
          "velocity": 0.5354330708661418,
          "duration": 0.2447916666666643
        },
        {
          "name": "F1",
          "midi": 29,
          "time": 54.75000000000021,
          "velocity": 0.4645669291338583,
          "duration": 0.0833333333333357
        },
        {
          "name": "G#2",
          "midi": 44,
          "time": 54.75000000000021,
          "velocity": 0.4881889763779528,
          "duration": 0.2447916666666714
        },
        {
          "name": "E1",
          "midi": 28,
          "time": 55.00000000000022,
          "velocity": 0.6299212598425197,
          "duration": 0.125
        },
        {
          "name": "D#3",
          "midi": 51,
          "time": 55.00000000000022,
          "velocity": 0.5354330708661418,
          "duration": 0.2447916666666643
        },
        {
          "name": "F1",
          "midi": 29,
          "time": 55.25000000000022,
          "velocity": 0.4645669291338583,
          "duration": 0.0833333333333357
        },
        {
          "name": "G#2",
          "midi": 44,
          "time": 55.25000000000022,
          "velocity": 0.4881889763779528,
          "duration": 0.2447916666666714
        },
        {
          "name": "F1",
          "midi": 29,
          "time": 55.37500000000022,
          "velocity": 0.4645669291338583,
          "duration": 0.0833333333333357
        },
        {
          "name": "E1",
          "midi": 28,
          "time": 55.50000000000023,
          "velocity": 0.6299212598425197,
          "duration": 0.125
        },
        {
          "name": "F1",
          "midi": 29,
          "time": 55.50000000000023,
          "velocity": 0.4645669291338583,
          "duration": 0.0833333333333357
        },
        {
          "name": "D#3",
          "midi": 51,
          "time": 55.50000000000023,
          "velocity": 0.5354330708661418,
          "duration": 0.2447916666666643
        },
        {
          "name": "F1",
          "midi": 29,
          "time": 55.75000000000023,
          "velocity": 0.47244094488188976,
          "duration": 0.0833333333333357
        },
        {
          "name": "G#2",
          "midi": 44,
          "time": 55.75000000000023,
          "velocity": 0.4881889763779528,
          "duration": 0.2447916666666643
        },
        {
          "name": "F1",
          "midi": 29,
          "time": 55.87500000000023,
          "velocity": 0.4645669291338583,
          "duration": 0.0625
        },
        {
          "name": "F1",
          "midi": 29,
          "time": 55.93750000000023,
          "velocity": 0.4645669291338583,
          "duration": 0.0625
        },
        {
          "name": "E1",
          "midi": 28,
          "time": 56.00000000000023,
          "velocity": 0.6299212598425197,
          "duration": 0.125
        },
        {
          "name": "D#3",
          "midi": 51,
          "time": 56.00000000000023,
          "velocity": 0.5511811023622047,
          "duration": 0.2447916666666643
        },
        {
          "name": "C#3",
          "midi": 49,
          "time": 56.00000000000023,
          "velocity": 0.5669291338582677,
          "duration": 2.0000000000000284
        },
        {
          "name": "F1",
          "midi": 29,
          "time": 56.25000000000023,
          "velocity": 0.47244094488188976,
          "duration": 0.0833333333333357
        },
        {
          "name": "G#2",
          "midi": 44,
          "time": 56.25000000000023,
          "velocity": 0.4881889763779528,
          "duration": 0.2447916666666714
        },
        {
          "name": "E1",
          "midi": 28,
          "time": 56.500000000000234,
          "velocity": 0.6299212598425197,
          "duration": 0.125
        },
        {
          "name": "D#3",
          "midi": 51,
          "time": 56.500000000000234,
          "velocity": 0.5354330708661418,
          "duration": 0.2447916666666643
        },
        {
          "name": "F1",
          "midi": 29,
          "time": 56.750000000000234,
          "velocity": 0.4645669291338583,
          "duration": 0.0833333333333357
        },
        {
          "name": "G#2",
          "midi": 44,
          "time": 56.750000000000234,
          "velocity": 0.4881889763779528,
          "duration": 0.2447916666666714
        },
        {
          "name": "E1",
          "midi": 28,
          "time": 57.00000000000024,
          "velocity": 0.6299212598425197,
          "duration": 0.125
        },
        {
          "name": "D#3",
          "midi": 51,
          "time": 57.00000000000024,
          "velocity": 0.5354330708661418,
          "duration": 0.2447916666666643
        },
        {
          "name": "F1",
          "midi": 29,
          "time": 57.25000000000024,
          "velocity": 0.4645669291338583,
          "duration": 0.0833333333333357
        },
        {
          "name": "G#2",
          "midi": 44,
          "time": 57.25000000000024,
          "velocity": 0.4881889763779528,
          "duration": 0.2447916666666714
        },
        {
          "name": "E1",
          "midi": 28,
          "time": 57.50000000000025,
          "velocity": 0.6299212598425197,
          "duration": 0.125
        },
        {
          "name": "D#3",
          "midi": 51,
          "time": 57.50000000000025,
          "velocity": 0.5354330708661418,
          "duration": 0.2447916666666643
        },
        {
          "name": "F1",
          "midi": 29,
          "time": 57.75000000000025,
          "velocity": 0.4645669291338583,
          "duration": 0.0833333333333357
        },
        {
          "name": "G#2",
          "midi": 44,
          "time": 57.75000000000025,
          "velocity": 0.4881889763779528,
          "duration": 0.2447916666666714
        },
        {
          "name": "E1",
          "midi": 28,
          "time": 58.000000000000256,
          "velocity": 0.6299212598425197,
          "duration": 0.125
        },
        {
          "name": "D#3",
          "midi": 51,
          "time": 58.000000000000256,
          "velocity": 0.5354330708661418,
          "duration": 0.2447916666666643
        },
        {
          "name": "A3",
          "midi": 57,
          "time": 58.000000000000256,
          "velocity": 0.5669291338582677,
          "duration": 2.0000000000000284
        },
        {
          "name": "F1",
          "midi": 29,
          "time": 58.250000000000256,
          "velocity": 0.47244094488188976,
          "duration": 0.0833333333333357
        },
        {
          "name": "G#2",
          "midi": 44,
          "time": 58.250000000000256,
          "velocity": 0.47244094488188976,
          "duration": 0.2447916666666714
        },
        {
          "name": "E1",
          "midi": 28,
          "time": 58.50000000000026,
          "velocity": 0.6299212598425197,
          "duration": 0.125
        },
        {
          "name": "D#3",
          "midi": 51,
          "time": 58.50000000000026,
          "velocity": 0.5275590551181102,
          "duration": 0.2447916666666643
        },
        {
          "name": "F1",
          "midi": 29,
          "time": 58.75000000000026,
          "velocity": 0.4645669291338583,
          "duration": 0.0833333333333357
        },
        {
          "name": "G#2",
          "midi": 44,
          "time": 58.75000000000026,
          "velocity": 0.47244094488188976,
          "duration": 0.2447916666666714
        },
        {
          "name": "E1",
          "midi": 28,
          "time": 59.00000000000027,
          "velocity": 0.6299212598425197,
          "duration": 0.125
        },
        {
          "name": "D#3",
          "midi": 51,
          "time": 59.00000000000027,
          "velocity": 0.5354330708661418,
          "duration": 0.2447916666666643
        },
        {
          "name": "F1",
          "midi": 29,
          "time": 59.25000000000027,
          "velocity": 0.4645669291338583,
          "duration": 0.0833333333333357
        },
        {
          "name": "G#2",
          "midi": 44,
          "time": 59.25000000000027,
          "velocity": 0.4881889763779528,
          "duration": 0.2447916666666714
        },
        {
          "name": "F1",
          "midi": 29,
          "time": 59.37500000000027,
          "velocity": 0.4645669291338583,
          "duration": 0.0833333333333357
        },
        {
          "name": "E1",
          "midi": 28,
          "time": 59.50000000000028,
          "velocity": 0.6299212598425197,
          "duration": 0.125
        },
        {
          "name": "F1",
          "midi": 29,
          "time": 59.50000000000028,
          "velocity": 0.4645669291338583,
          "duration": 0.0833333333333357
        },
        {
          "name": "D#3",
          "midi": 51,
          "time": 59.50000000000028,
          "velocity": 0.5354330708661418,
          "duration": 0.2447916666666643
        },
        {
          "name": "F1",
          "midi": 29,
          "time": 59.75000000000028,
          "velocity": 0.47244094488188976,
          "duration": 0.0833333333333357
        },
        {
          "name": "G#2",
          "midi": 44,
          "time": 59.75000000000028,
          "velocity": 0.5039370078740157,
          "duration": 0.2447916666666714
        },
        {
          "name": "E1",
          "midi": 28,
          "time": 60.000000000000284,
          "velocity": 0.6299212598425197,
          "duration": 0.125
        },
        {
          "name": "D#3",
          "midi": 51,
          "time": 60.000000000000284,
          "velocity": 0.5511811023622047,
          "duration": 0.2447916666666643
        },
        {
          "name": "C#3",
          "midi": 49,
          "time": 60.000000000000284,
          "velocity": 0.5669291338582677,
          "duration": 2.0000000000000213
        },
        {
          "name": "G#2",
          "midi": 44,
          "time": 60.250000000000284,
          "velocity": 0.4881889763779528,
          "duration": 0.2447916666666643
        },
        {
          "name": "F1",
          "midi": 29,
          "time": 60.312500000000284,
          "velocity": 0.23622047244094488,
          "duration": 0.0625
        },
        {
          "name": "F1",
          "midi": 29,
          "time": 60.375000000000284,
          "velocity": 0.33858267716535434,
          "duration": 0.0625
        },
        {
          "name": "F1",
          "midi": 29,
          "time": 60.437500000000284,
          "velocity": 0.44881889763779526,
          "duration": 0.0625
        },
        {
          "name": "E1",
          "midi": 28,
          "time": 60.500000000000284,
          "velocity": 0.6299212598425197,
          "duration": 0.125
        },
        {
          "name": "F1",
          "midi": 29,
          "time": 60.500000000000284,
          "velocity": 0.5118110236220472,
          "duration": 0.0833333333333357
        },
        {
          "name": "D#3",
          "midi": 51,
          "time": 60.500000000000284,
          "velocity": 0.5354330708661418,
          "duration": 0.2447916666666643
        },
        {
          "name": "F1",
          "midi": 29,
          "time": 60.750000000000284,
          "velocity": 0.5748031496062992,
          "duration": 0.0833333333333357
        },
        {
          "name": "G#2",
          "midi": 44,
          "time": 60.750000000000284,
          "velocity": 0.4881889763779528,
          "duration": 0.2447916666666714
        },
        {
          "name": "E1",
          "midi": 28,
          "time": 61.00000000000029,
          "velocity": 0.6299212598425197,
          "duration": 0.125
        },
        {
          "name": "D#3",
          "midi": 51,
          "time": 61.00000000000029,
          "velocity": 0.5354330708661418,
          "duration": 0.2447916666666643
        },
        {
          "name": "A3",
          "midi": 57,
          "time": 61.00000000000029,
          "velocity": 0.5669291338582677,
          "duration": 1.5000000000000213
        },
        {
          "name": "F1",
          "midi": 29,
          "time": 61.25000000000029,
          "velocity": 0.47244094488188976,
          "duration": 0.0833333333333357
        },
        {
          "name": "G#2",
          "midi": 44,
          "time": 61.25000000000029,
          "velocity": 0.4881889763779528,
          "duration": 0.2447916666666714
        },
        {
          "name": "F1",
          "midi": 29,
          "time": 61.37500000000029,
          "velocity": 0.4881889763779528,
          "duration": 0.0833333333333357
        },
        {
          "name": "E1",
          "midi": 28,
          "time": 61.5000000000003,
          "velocity": 0.6299212598425197,
          "duration": 0.125
        },
        {
          "name": "F1",
          "midi": 29,
          "time": 61.5000000000003,
          "velocity": 0.4881889763779528,
          "duration": 0.0833333333333357
        },
        {
          "name": "D#3",
          "midi": 51,
          "time": 61.5000000000003,
          "velocity": 0.5354330708661418,
          "duration": 0.2447916666666643
        },
        {
          "name": "F1",
          "midi": 29,
          "time": 61.7500000000003,
          "velocity": 0.4881889763779528,
          "duration": 0.0833333333333357
        },
        {
          "name": "G#2",
          "midi": 44,
          "time": 61.7500000000003,
          "velocity": 0.4881889763779528,
          "duration": 0.2447916666666714
        },
        {
          "name": "E1",
          "midi": 28,
          "time": 62.000000000000306,
          "velocity": 0.6299212598425197,
          "duration": 0.125
        },
        {
          "name": "D#3",
          "midi": 51,
          "time": 62.000000000000306,
          "velocity": 0.5354330708661418,
          "duration": 0.2447916666666643
        },
        {
          "name": "C#3",
          "midi": 49,
          "time": 62.000000000000306,
          "velocity": 0.5669291338582677,
          "duration": 1.989583333333357
        },
        {
          "name": "F1",
          "midi": 29,
          "time": 62.250000000000306,
          "velocity": 0.4645669291338583,
          "duration": 0.0833333333333357
        },
        {
          "name": "G#2",
          "midi": 44,
          "time": 62.250000000000306,
          "velocity": 0.47244094488188976,
          "duration": 0.2447916666666714
        },
        {
          "name": "E1",
          "midi": 28,
          "time": 62.50000000000031,
          "velocity": 0.6299212598425197,
          "duration": 0.125
        },
        {
          "name": "D#3",
          "midi": 51,
          "time": 62.50000000000031,
          "velocity": 0.5275590551181102,
          "duration": 0.2447916666666643
        },
        {
          "name": "A3",
          "midi": 57,
          "time": 62.50000000000031,
          "velocity": 0.5669291338582677,
          "duration": 1.48958333333335
        },
        {
          "name": "F1",
          "midi": 29,
          "time": 62.75000000000031,
          "velocity": 0.4645669291338583,
          "duration": 0.0833333333333357
        },
        {
          "name": "G#2",
          "midi": 44,
          "time": 62.75000000000031,
          "velocity": 0.47244094488188976,
          "duration": 0.2447916666666714
        },
        {
          "name": "E1",
          "midi": 28,
          "time": 63.00000000000032,
          "velocity": 0.6299212598425197,
          "duration": 0.125
        },
        {
          "name": "F1",
          "midi": 29,
          "time": 63.00000000000032,
          "velocity": 0.5511811023622047,
          "duration": 0.0625
        },
        {
          "name": "D#3",
          "midi": 51,
          "time": 63.00000000000032,
          "velocity": 0.5354330708661418,
          "duration": 0.2447916666666643
        },
        {
          "name": "C#3",
          "midi": 49,
          "time": 63.00000000000032,
          "velocity": 0.5669291338582677,
          "duration": 0.9895833333333428
        },
        {
          "name": "F1",
          "midi": 29,
          "time": 63.06250000000032,
          "velocity": 0.2755905511811024,
          "duration": 0.0625
        },
        {
          "name": "F1",
          "midi": 29,
          "time": 63.12500000000032,
          "velocity": 0.33858267716535434,
          "duration": 0.0625
        },
        {
          "name": "F1",
          "midi": 29,
          "time": 63.18750000000032,
          "velocity": 0.44881889763779526,
          "duration": 0.0625
        },
        {
          "name": "F1",
          "midi": 29,
          "time": 63.25000000000032,
          "velocity": 0.5118110236220472,
          "duration": 0.0833333333333357
        },
        {
          "name": "G#2",
          "midi": 44,
          "time": 63.25000000000032,
          "velocity": 0.4881889763779528,
          "duration": 0.2447916666666714
        },
        {
          "name": "F1",
          "midi": 29,
          "time": 63.37500000000032,
          "velocity": 0.5511811023622047,
          "duration": 0.0833333333333357
        },
        {
          "name": "E1",
          "midi": 28,
          "time": 63.50000000000033,
          "velocity": 0.6299212598425197,
          "duration": 0.125
        },
        {
          "name": "F1",
          "midi": 29,
          "time": 63.50000000000033,
          "velocity": 0.5748031496062992,
          "duration": 0.0833333333333357
        },
        {
          "name": "D#3",
          "midi": 51,
          "time": 63.50000000000033,
          "velocity": 0.5354330708661418,
          "duration": 0.2447916666666643
        },
        {
          "name": "A3",
          "midi": 57,
          "time": 63.50000000000033,
          "velocity": 0.5669291338582677,
          "duration": 0.4895833333333357
        },
        {
          "name": "F1",
          "midi": 29,
          "time": 63.75000000000033,
          "velocity": 0.6141732283464567,
          "duration": 0.0833333333333357
        },
        {
          "name": "G#2",
          "midi": 44,
          "time": 63.75000000000033,
          "velocity": 0.5039370078740157,
          "duration": 0.2395833333333357
        },
        {
          "name": "E1",
          "midi": 28,
          "time": 64.00000000000033,
          "velocity": 0.6299212598425197,
          "duration": 0.125
        },
        {
          "name": "F#2",
          "midi": 42,
          "time": 64.00000000000033,
          "velocity": 0.5511811023622047,
          "duration": 0.2447916666666714
        },
        {
          "name": "C#3",
          "midi": 49,
          "time": 64.00000000000033,
          "velocity": 0.5669291338582677,
          "duration": 1.9999999999999432
        },
        {
          "name": "F1",
          "midi": 29,
          "time": 64.25000000000033,
          "velocity": 0.47244094488188976,
          "duration": 0.0833333333333286
        },
        {
          "name": "G#2",
          "midi": 44,
          "time": 64.25000000000033,
          "velocity": 0.4881889763779528,
          "duration": 0.2447916666666572
        },
        {
          "name": "E1",
          "midi": 28,
          "time": 64.50000000000031,
          "velocity": 0.6299212598425197,
          "duration": 0.125
        },
        {
          "name": "F#2",
          "midi": 42,
          "time": 64.50000000000031,
          "velocity": 0.5354330708661418,
          "duration": 0.2447916666666714
        },
        {
          "name": "F1",
          "midi": 29,
          "time": 64.75000000000031,
          "velocity": 0.4645669291338583,
          "duration": 0.0833333333333286
        },
        {
          "name": "G#2",
          "midi": 44,
          "time": 64.75000000000031,
          "velocity": 0.4881889763779528,
          "duration": 0.2447916666666572
        },
        {
          "name": "E1",
          "midi": 28,
          "time": 65.0000000000003,
          "velocity": 0.6299212598425197,
          "duration": 0.125
        },
        {
          "name": "F#2",
          "midi": 42,
          "time": 65.0000000000003,
          "velocity": 0.5354330708661418,
          "duration": 0.2447916666666714
        },
        {
          "name": "F1",
          "midi": 29,
          "time": 65.2500000000003,
          "velocity": 0.4645669291338583,
          "duration": 0.0833333333333286
        },
        {
          "name": "G#2",
          "midi": 44,
          "time": 65.2500000000003,
          "velocity": 0.4881889763779528,
          "duration": 0.2447916666666572
        },
        {
          "name": "E1",
          "midi": 28,
          "time": 65.50000000000028,
          "velocity": 0.6299212598425197,
          "duration": 0.125
        },
        {
          "name": "F#2",
          "midi": 42,
          "time": 65.50000000000028,
          "velocity": 0.5354330708661418,
          "duration": 0.2447916666666714
        },
        {
          "name": "F1",
          "midi": 29,
          "time": 65.75000000000028,
          "velocity": 0.4645669291338583,
          "duration": 0.0833333333333286
        },
        {
          "name": "G#2",
          "midi": 44,
          "time": 65.75000000000028,
          "velocity": 0.4881889763779528,
          "duration": 0.2447916666666572
        },
        {
          "name": "E1",
          "midi": 28,
          "time": 66.00000000000027,
          "velocity": 0.6299212598425197,
          "duration": 0.125
        },
        {
          "name": "F#2",
          "midi": 42,
          "time": 66.00000000000027,
          "velocity": 0.5354330708661418,
          "duration": 0.2447916666666714
        },
        {
          "name": "F1",
          "midi": 29,
          "time": 66.25000000000027,
          "velocity": 0.47244094488188976,
          "duration": 0.0833333333333286
        },
        {
          "name": "G#2",
          "midi": 44,
          "time": 66.25000000000027,
          "velocity": 0.47244094488188976,
          "duration": 0.2447916666666572
        },
        {
          "name": "E1",
          "midi": 28,
          "time": 66.50000000000026,
          "velocity": 0.6299212598425197,
          "duration": 0.125
        },
        {
          "name": "F#2",
          "midi": 42,
          "time": 66.50000000000026,
          "velocity": 0.5275590551181102,
          "duration": 0.2447916666666714
        },
        {
          "name": "F1",
          "midi": 29,
          "time": 66.75000000000026,
          "velocity": 0.47244094488188976,
          "duration": 0.0833333333333286
        },
        {
          "name": "G#2",
          "midi": 44,
          "time": 66.75000000000026,
          "velocity": 0.47244094488188976,
          "duration": 0.2447916666666572
        },
        {
          "name": "E1",
          "midi": 28,
          "time": 67.00000000000024,
          "velocity": 0.6299212598425197,
          "duration": 0.125
        },
        {
          "name": "F#2",
          "midi": 42,
          "time": 67.00000000000024,
          "velocity": 0.5354330708661418,
          "duration": 0.2447916666666714
        },
        {
          "name": "F1",
          "midi": 29,
          "time": 67.25000000000024,
          "velocity": 0.4645669291338583,
          "duration": 0.0833333333333286
        },
        {
          "name": "G#2",
          "midi": 44,
          "time": 67.25000000000024,
          "velocity": 0.4881889763779528,
          "duration": 0.2447916666666572
        },
        {
          "name": "E1",
          "midi": 28,
          "time": 67.50000000000023,
          "velocity": 0.6299212598425197,
          "duration": 0.125
        },
        {
          "name": "F1",
          "midi": 29,
          "time": 67.50000000000023,
          "velocity": 0.4645669291338583,
          "duration": 0.0833333333333286
        },
        {
          "name": "F#2",
          "midi": 42,
          "time": 67.50000000000023,
          "velocity": 0.5354330708661418,
          "duration": 0.2447916666666714
        },
        {
          "name": "F1",
          "midi": 29,
          "time": 67.75000000000023,
          "velocity": 0.47244094488188976,
          "duration": 0.0833333333333286
        },
        {
          "name": "G#2",
          "midi": 44,
          "time": 67.75000000000023,
          "velocity": 0.5039370078740157,
          "duration": 0.2447916666666572
        },
        {
          "name": "E1",
          "midi": 28,
          "time": 68.00000000000021,
          "velocity": 0.6299212598425197,
          "duration": 0.125
        },
        {
          "name": "F#2",
          "midi": 42,
          "time": 68.00000000000021,
          "velocity": 0.5354330708661418,
          "duration": 0.2447916666666714
        },
        {
          "name": "F1",
          "midi": 29,
          "time": 68.25000000000021,
          "velocity": 0.4645669291338583,
          "duration": 0.0833333333333286
        },
        {
          "name": "G#2",
          "midi": 44,
          "time": 68.25000000000021,
          "velocity": 0.4881889763779528,
          "duration": 0.2447916666666572
        },
        {
          "name": "E1",
          "midi": 28,
          "time": 68.5000000000002,
          "velocity": 0.6299212598425197,
          "duration": 0.125
        },
        {
          "name": "F#2",
          "midi": 42,
          "time": 68.5000000000002,
          "velocity": 0.5354330708661418,
          "duration": 0.2447916666666714
        },
        {
          "name": "F1",
          "midi": 29,
          "time": 68.7500000000002,
          "velocity": 0.47244094488188976,
          "duration": 0.0833333333333286
        },
        {
          "name": "G#2",
          "midi": 44,
          "time": 68.7500000000002,
          "velocity": 0.4881889763779528,
          "duration": 0.2447916666666572
        },
        {
          "name": "E1",
          "midi": 28,
          "time": 69.00000000000018,
          "velocity": 0.6299212598425197,
          "duration": 0.125
        },
        {
          "name": "F#2",
          "midi": 42,
          "time": 69.00000000000018,
          "velocity": 0.5354330708661418,
          "duration": 0.2447916666666714
        },
        {
          "name": "F1",
          "midi": 29,
          "time": 69.25000000000018,
          "velocity": 0.47244094488188976,
          "duration": 0.0833333333333286
        },
        {
          "name": "G#2",
          "midi": 44,
          "time": 69.25000000000018,
          "velocity": 0.47244094488188976,
          "duration": 0.2447916666666572
        },
        {
          "name": "E1",
          "midi": 28,
          "time": 69.50000000000017,
          "velocity": 0.6299212598425197,
          "duration": 0.125
        },
        {
          "name": "F#2",
          "midi": 42,
          "time": 69.50000000000017,
          "velocity": 0.5511811023622047,
          "duration": 0.2447916666666714
        },
        {
          "name": "F1",
          "midi": 29,
          "time": 69.75000000000017,
          "velocity": 0.4645669291338583,
          "duration": 0.0833333333333286
        },
        {
          "name": "G#2",
          "midi": 44,
          "time": 69.75000000000017,
          "velocity": 0.47244094488188976,
          "duration": 0.2447916666666572
        },
        {
          "name": "E1",
          "midi": 28,
          "time": 70.00000000000016,
          "velocity": 0.6299212598425197,
          "duration": 0.125
        },
        {
          "name": "F#2",
          "midi": 42,
          "time": 70.00000000000016,
          "velocity": 0.5354330708661418,
          "duration": 0.2447916666666714
        },
        {
          "name": "F1",
          "midi": 29,
          "time": 70.25000000000016,
          "velocity": 0.47244094488188976,
          "duration": 0.0833333333333286
        },
        {
          "name": "G#2",
          "midi": 44,
          "time": 70.25000000000016,
          "velocity": 0.4881889763779528,
          "duration": 0.2447916666666572
        },
        {
          "name": "E1",
          "midi": 28,
          "time": 70.50000000000014,
          "velocity": 0.6299212598425197,
          "duration": 0.125
        },
        {
          "name": "F#2",
          "midi": 42,
          "time": 70.50000000000014,
          "velocity": 0.5354330708661418,
          "duration": 0.2447916666666714
        },
        {
          "name": "F1",
          "midi": 29,
          "time": 70.75000000000014,
          "velocity": 0.4645669291338583,
          "duration": 0.0833333333333286
        },
        {
          "name": "G#2",
          "midi": 44,
          "time": 70.75000000000014,
          "velocity": 0.4881889763779528,
          "duration": 0.2447916666666572
        },
        {
          "name": "E1",
          "midi": 28,
          "time": 71.00000000000013,
          "velocity": 0.6299212598425197,
          "duration": 0.125
        },
        {
          "name": "F#2",
          "midi": 42,
          "time": 71.00000000000013,
          "velocity": 0.5354330708661418,
          "duration": 0.2447916666666714
        },
        {
          "name": "F1",
          "midi": 29,
          "time": 71.25000000000013,
          "velocity": 0.4645669291338583,
          "duration": 0.0833333333333286
        },
        {
          "name": "G#2",
          "midi": 44,
          "time": 71.25000000000013,
          "velocity": 0.4881889763779528,
          "duration": 0.2447916666666572
        },
        {
          "name": "F1",
          "midi": 29,
          "time": 71.37500000000013,
          "velocity": 0.4645669291338583,
          "duration": 0.0833333333333286
        },
        {
          "name": "E1",
          "midi": 28,
          "time": 71.50000000000011,
          "velocity": 0.6299212598425197,
          "duration": 0.125
        },
        {
          "name": "F1",
          "midi": 29,
          "time": 71.50000000000011,
          "velocity": 0.4645669291338583,
          "duration": 0.0833333333333286
        },
        {
          "name": "F#2",
          "midi": 42,
          "time": 71.50000000000011,
          "velocity": 0.5354330708661418,
          "duration": 0.2447916666666714
        },
        {
          "name": "F1",
          "midi": 29,
          "time": 71.75000000000011,
          "velocity": 0.47244094488188976,
          "duration": 0.0833333333333286
        },
        {
          "name": "G#2",
          "midi": 44,
          "time": 71.75000000000011,
          "velocity": 0.4881889763779528,
          "duration": 0.2447916666666714
        },
        {
          "name": "F1",
          "midi": 29,
          "time": 71.87500000000011,
          "velocity": 0.4645669291338583,
          "duration": 0.0625
        },
        {
          "name": "F1",
          "midi": 29,
          "time": 71.93750000000011,
          "velocity": 0.4645669291338583,
          "duration": 0.0625
        },
        {
          "name": "E1",
          "midi": 28,
          "time": 72.00000000000011,
          "velocity": 0.6299212598425197,
          "duration": 0.125
        },
        {
          "name": "F#2",
          "midi": 42,
          "time": 72.00000000000011,
          "velocity": 0.5511811023622047,
          "duration": 0.2447916666666714
        },
        {
          "name": "C#3",
          "midi": 49,
          "time": 72.00000000000011,
          "velocity": 0.5669291338582677,
          "duration": 1.9999999999999432
        },
        {
          "name": "F1",
          "midi": 29,
          "time": 72.25000000000011,
          "velocity": 0.47244094488188976,
          "duration": 0.0833333333333286
        },
        {
          "name": "G#2",
          "midi": 44,
          "time": 72.25000000000011,
          "velocity": 0.4881889763779528,
          "duration": 0.2447916666666572
        },
        {
          "name": "E1",
          "midi": 28,
          "time": 72.5000000000001,
          "velocity": 0.6299212598425197,
          "duration": 0.125
        },
        {
          "name": "F#2",
          "midi": 42,
          "time": 72.5000000000001,
          "velocity": 0.5354330708661418,
          "duration": 0.2447916666666714
        },
        {
          "name": "F1",
          "midi": 29,
          "time": 72.7500000000001,
          "velocity": 0.4645669291338583,
          "duration": 0.0833333333333286
        },
        {
          "name": "G#2",
          "midi": 44,
          "time": 72.7500000000001,
          "velocity": 0.4881889763779528,
          "duration": 0.2447916666666572
        },
        {
          "name": "E1",
          "midi": 28,
          "time": 73.00000000000009,
          "velocity": 0.6299212598425197,
          "duration": 0.125
        },
        {
          "name": "F#2",
          "midi": 42,
          "time": 73.00000000000009,
          "velocity": 0.5354330708661418,
          "duration": 0.2447916666666714
        },
        {
          "name": "F1",
          "midi": 29,
          "time": 73.25000000000009,
          "velocity": 0.4645669291338583,
          "duration": 0.0833333333333286
        },
        {
          "name": "G#2",
          "midi": 44,
          "time": 73.25000000000009,
          "velocity": 0.4881889763779528,
          "duration": 0.2447916666666572
        },
        {
          "name": "E1",
          "midi": 28,
          "time": 73.50000000000007,
          "velocity": 0.6299212598425197,
          "duration": 0.125
        },
        {
          "name": "F#2",
          "midi": 42,
          "time": 73.50000000000007,
          "velocity": 0.5354330708661418,
          "duration": 0.2447916666666714
        },
        {
          "name": "F1",
          "midi": 29,
          "time": 73.75000000000007,
          "velocity": 0.4645669291338583,
          "duration": 0.0833333333333286
        },
        {
          "name": "G#2",
          "midi": 44,
          "time": 73.75000000000007,
          "velocity": 0.4881889763779528,
          "duration": 0.2447916666666572
        },
        {
          "name": "E1",
          "midi": 28,
          "time": 74.00000000000006,
          "velocity": 0.6299212598425197,
          "duration": 0.125
        },
        {
          "name": "F#2",
          "midi": 42,
          "time": 74.00000000000006,
          "velocity": 0.5354330708661418,
          "duration": 0.2447916666666714
        },
        {
          "name": "F1",
          "midi": 29,
          "time": 74.25000000000006,
          "velocity": 0.47244094488188976,
          "duration": 0.0833333333333286
        },
        {
          "name": "G#2",
          "midi": 44,
          "time": 74.25000000000006,
          "velocity": 0.47244094488188976,
          "duration": 0.2447916666666572
        },
        {
          "name": "E1",
          "midi": 28,
          "time": 74.50000000000004,
          "velocity": 0.6299212598425197,
          "duration": 0.125
        },
        {
          "name": "F#2",
          "midi": 42,
          "time": 74.50000000000004,
          "velocity": 0.5275590551181102,
          "duration": 0.2447916666666714
        },
        {
          "name": "F1",
          "midi": 29,
          "time": 74.75000000000004,
          "velocity": 0.47244094488188976,
          "duration": 0.0833333333333286
        },
        {
          "name": "G#2",
          "midi": 44,
          "time": 74.75000000000004,
          "velocity": 0.47244094488188976,
          "duration": 0.2447916666666572
        },
        {
          "name": "E1",
          "midi": 28,
          "time": 75.00000000000003,
          "velocity": 0.6299212598425197,
          "duration": 0.125
        },
        {
          "name": "F#2",
          "midi": 42,
          "time": 75.00000000000003,
          "velocity": 0.5354330708661418,
          "duration": 0.2447916666666714
        },
        {
          "name": "F1",
          "midi": 29,
          "time": 75.25000000000003,
          "velocity": 0.4645669291338583,
          "duration": 0.0833333333333286
        },
        {
          "name": "G#2",
          "midi": 44,
          "time": 75.25000000000003,
          "velocity": 0.4881889763779528,
          "duration": 0.2447916666666572
        },
        {
          "name": "E1",
          "midi": 28,
          "time": 75.50000000000001,
          "velocity": 0.6299212598425197,
          "duration": 0.125
        },
        {
          "name": "F1",
          "midi": 29,
          "time": 75.50000000000001,
          "velocity": 0.4645669291338583,
          "duration": 0.0833333333333286
        },
        {
          "name": "F#2",
          "midi": 42,
          "time": 75.50000000000001,
          "velocity": 0.5354330708661418,
          "duration": 0.2447916666666714
        },
        {
          "name": "F1",
          "midi": 29,
          "time": 75.75000000000001,
          "velocity": 0.47244094488188976,
          "duration": 0.0833333333333286
        },
        {
          "name": "G#2",
          "midi": 44,
          "time": 75.75000000000001,
          "velocity": 0.5039370078740157,
          "duration": 0.2447916666666572
        },
        {
          "name": "E1",
          "midi": 28,
          "time": 76,
          "velocity": 0.6299212598425197,
          "duration": 0.125
        },
        {
          "name": "D#3",
          "midi": 51,
          "time": 76,
          "velocity": 0.5511811023622047,
          "duration": 0.2447916666666714
        },
        {
          "name": "C#3",
          "midi": 49,
          "time": 76,
          "velocity": 0.5669291338582677,
          "duration": 1.9999999999999574
        },
        {
          "name": "G#2",
          "midi": 44,
          "time": 76.25,
          "velocity": 0.4881889763779528,
          "duration": 0.2447916666666714
        },
        {
          "name": "F1",
          "midi": 29,
          "time": 76.3125,
          "velocity": 0.23622047244094488,
          "duration": 0.0625
        },
        {
          "name": "F1",
          "midi": 29,
          "time": 76.375,
          "velocity": 0.33858267716535434,
          "duration": 0.0625
        },
        {
          "name": "F1",
          "midi": 29,
          "time": 76.4375,
          "velocity": 0.44881889763779526,
          "duration": 0.0625
        },
        {
          "name": "E1",
          "midi": 28,
          "time": 76.5,
          "velocity": 0.6299212598425197,
          "duration": 0.125
        },
        {
          "name": "F1",
          "midi": 29,
          "time": 76.5,
          "velocity": 0.5118110236220472,
          "duration": 0.0833333333333286
        },
        {
          "name": "D#3",
          "midi": 51,
          "time": 76.5,
          "velocity": 0.5354330708661418,
          "duration": 0.2447916666666714
        },
        {
          "name": "F1",
          "midi": 29,
          "time": 76.75,
          "velocity": 0.5748031496062992,
          "duration": 0.0833333333333286
        },
        {
          "name": "G#2",
          "midi": 44,
          "time": 76.75,
          "velocity": 0.4881889763779528,
          "duration": 0.2447916666666572
        },
        {
          "name": "E1",
          "midi": 28,
          "time": 76.99999999999999,
          "velocity": 0.6299212598425197,
          "duration": 0.125
        },
        {
          "name": "D#3",
          "midi": 51,
          "time": 76.99999999999999,
          "velocity": 0.5354330708661418,
          "duration": 0.2447916666666714
        },
        {
          "name": "A3",
          "midi": 57,
          "time": 76.99999999999999,
          "velocity": 0.5669291338582677,
          "duration": 1.4999999999999574
        },
        {
          "name": "F1",
          "midi": 29,
          "time": 77.24999999999999,
          "velocity": 0.47244094488188976,
          "duration": 0.0833333333333286
        },
        {
          "name": "G#2",
          "midi": 44,
          "time": 77.24999999999999,
          "velocity": 0.4881889763779528,
          "duration": 0.2447916666666572
        },
        {
          "name": "F1",
          "midi": 29,
          "time": 77.37499999999999,
          "velocity": 0.4881889763779528,
          "duration": 0.0833333333333286
        },
        {
          "name": "E1",
          "midi": 28,
          "time": 77.49999999999997,
          "velocity": 0.6299212598425197,
          "duration": 0.125
        },
        {
          "name": "F1",
          "midi": 29,
          "time": 77.49999999999997,
          "velocity": 0.4881889763779528,
          "duration": 0.0833333333333286
        },
        {
          "name": "D#3",
          "midi": 51,
          "time": 77.49999999999997,
          "velocity": 0.5354330708661418,
          "duration": 0.2447916666666714
        },
        {
          "name": "F1",
          "midi": 29,
          "time": 77.74999999999997,
          "velocity": 0.4881889763779528,
          "duration": 0.0833333333333286
        },
        {
          "name": "G#2",
          "midi": 44,
          "time": 77.74999999999997,
          "velocity": 0.4881889763779528,
          "duration": 0.2447916666666572
        },
        {
          "name": "E1",
          "midi": 28,
          "time": 77.99999999999996,
          "velocity": 0.6299212598425197,
          "duration": 0.125
        },
        {
          "name": "D#3",
          "midi": 51,
          "time": 77.99999999999996,
          "velocity": 0.5354330708661418,
          "duration": 0.2447916666666714
        },
        {
          "name": "C#3",
          "midi": 49,
          "time": 77.99999999999996,
          "velocity": 0.5669291338582677,
          "duration": 1.989583333333286
        },
        {
          "name": "F1",
          "midi": 29,
          "time": 78.24999999999996,
          "velocity": 0.4645669291338583,
          "duration": 0.0833333333333286
        },
        {
          "name": "G#2",
          "midi": 44,
          "time": 78.24999999999996,
          "velocity": 0.47244094488188976,
          "duration": 0.2447916666666572
        },
        {
          "name": "E1",
          "midi": 28,
          "time": 78.49999999999994,
          "velocity": 0.6299212598425197,
          "duration": 0.125
        },
        {
          "name": "D#3",
          "midi": 51,
          "time": 78.49999999999994,
          "velocity": 0.5275590551181102,
          "duration": 0.2447916666666714
        },
        {
          "name": "A3",
          "midi": 57,
          "time": 78.49999999999994,
          "velocity": 0.5669291338582677,
          "duration": 1.4895833333333002
        },
        {
          "name": "F1",
          "midi": 29,
          "time": 78.74999999999994,
          "velocity": 0.4645669291338583,
          "duration": 0.0833333333333286
        },
        {
          "name": "G#2",
          "midi": 44,
          "time": 78.74999999999994,
          "velocity": 0.47244094488188976,
          "duration": 0.2447916666666572
        },
        {
          "name": "E1",
          "midi": 28,
          "time": 78.99999999999993,
          "velocity": 0.6299212598425197,
          "duration": 0.125
        },
        {
          "name": "F1",
          "midi": 29,
          "time": 78.99999999999993,
          "velocity": 0.5511811023622047,
          "duration": 0.0625
        },
        {
          "name": "D#3",
          "midi": 51,
          "time": 78.99999999999993,
          "velocity": 0.5354330708661418,
          "duration": 0.2447916666666714
        },
        {
          "name": "C#3",
          "midi": 49,
          "time": 78.99999999999993,
          "velocity": 0.5669291338582677,
          "duration": 0.9895833333333144
        },
        {
          "name": "F1",
          "midi": 29,
          "time": 79.06249999999993,
          "velocity": 0.2755905511811024,
          "duration": 0.0625
        },
        {
          "name": "F1",
          "midi": 29,
          "time": 79.12499999999993,
          "velocity": 0.33858267716535434,
          "duration": 0.0625
        },
        {
          "name": "F1",
          "midi": 29,
          "time": 79.18749999999993,
          "velocity": 0.44881889763779526,
          "duration": 0.0625
        },
        {
          "name": "F1",
          "midi": 29,
          "time": 79.24999999999993,
          "velocity": 0.5118110236220472,
          "duration": 0.0833333333333286
        },
        {
          "name": "G#2",
          "midi": 44,
          "time": 79.24999999999993,
          "velocity": 0.4881889763779528,
          "duration": 0.2447916666666572
        },
        {
          "name": "F1",
          "midi": 29,
          "time": 79.37499999999993,
          "velocity": 0.5511811023622047,
          "duration": 0.0833333333333286
        },
        {
          "name": "E1",
          "midi": 28,
          "time": 79.49999999999991,
          "velocity": 0.6299212598425197,
          "duration": 0.125
        },
        {
          "name": "F1",
          "midi": 29,
          "time": 79.49999999999991,
          "velocity": 0.5748031496062992,
          "duration": 0.0833333333333286
        },
        {
          "name": "D#3",
          "midi": 51,
          "time": 79.49999999999991,
          "velocity": 0.5354330708661418,
          "duration": 0.2447916666666714
        },
        {
          "name": "A3",
          "midi": 57,
          "time": 79.49999999999991,
          "velocity": 0.5669291338582677,
          "duration": 0.4895833333333286
        },
        {
          "name": "F1",
          "midi": 29,
          "time": 79.74999999999991,
          "velocity": 0.6141732283464567,
          "duration": 0.0833333333333286
        },
        {
          "name": "G#2",
          "midi": 44,
          "time": 79.74999999999991,
          "velocity": 0.5039370078740157,
          "duration": 0.2395833333333286
        },
        {
          "name": "E1",
          "midi": 28,
          "time": 79.99999999999991,
          "velocity": 0.6299212598425197,
          "duration": 0.125
        },
        {
          "name": "F#2",
          "midi": 42,
          "time": 79.99999999999991,
          "velocity": 0.5511811023622047,
          "duration": 0.2447916666666714
        },
        {
          "name": "C#3",
          "midi": 49,
          "time": 79.99999999999991,
          "velocity": 0.5669291338582677,
          "duration": 1.9999999999999432
        },
        {
          "name": "F1",
          "midi": 29,
          "time": 80.24999999999991,
          "velocity": 0.47244094488188976,
          "duration": 0.0833333333333286
        },
        {
          "name": "G#2",
          "midi": 44,
          "time": 80.24999999999991,
          "velocity": 0.4881889763779528,
          "duration": 0.2447916666666572
        },
        {
          "name": "E1",
          "midi": 28,
          "time": 80.4999999999999,
          "velocity": 0.6299212598425197,
          "duration": 0.125
        },
        {
          "name": "F#2",
          "midi": 42,
          "time": 80.4999999999999,
          "velocity": 0.5354330708661418,
          "duration": 0.2447916666666714
        },
        {
          "name": "F1",
          "midi": 29,
          "time": 80.7499999999999,
          "velocity": 0.4645669291338583,
          "duration": 0.0833333333333286
        },
        {
          "name": "G#2",
          "midi": 44,
          "time": 80.7499999999999,
          "velocity": 0.4881889763779528,
          "duration": 0.2447916666666572
        },
        {
          "name": "E1",
          "midi": 28,
          "time": 80.99999999999989,
          "velocity": 0.6299212598425197,
          "duration": 0.125
        },
        {
          "name": "F#2",
          "midi": 42,
          "time": 80.99999999999989,
          "velocity": 0.5354330708661418,
          "duration": 0.2447916666666714
        },
        {
          "name": "F1",
          "midi": 29,
          "time": 81.24999999999989,
          "velocity": 0.4645669291338583,
          "duration": 0.0833333333333286
        },
        {
          "name": "G#2",
          "midi": 44,
          "time": 81.24999999999989,
          "velocity": 0.4881889763779528,
          "duration": 0.2447916666666572
        },
        {
          "name": "E1",
          "midi": 28,
          "time": 81.49999999999987,
          "velocity": 0.6299212598425197,
          "duration": 0.125
        },
        {
          "name": "F#2",
          "midi": 42,
          "time": 81.49999999999987,
          "velocity": 0.5354330708661418,
          "duration": 0.2447916666666714
        },
        {
          "name": "F1",
          "midi": 29,
          "time": 81.74999999999987,
          "velocity": 0.4645669291338583,
          "duration": 0.0833333333333286
        },
        {
          "name": "G#2",
          "midi": 44,
          "time": 81.74999999999987,
          "velocity": 0.4881889763779528,
          "duration": 0.2447916666666572
        },
        {
          "name": "E1",
          "midi": 28,
          "time": 81.99999999999986,
          "velocity": 0.6299212598425197,
          "duration": 0.125
        },
        {
          "name": "F#2",
          "midi": 42,
          "time": 81.99999999999986,
          "velocity": 0.5354330708661418,
          "duration": 0.2447916666666714
        },
        {
          "name": "F1",
          "midi": 29,
          "time": 82.24999999999986,
          "velocity": 0.47244094488188976,
          "duration": 0.0833333333333286
        },
        {
          "name": "G#2",
          "midi": 44,
          "time": 82.24999999999986,
          "velocity": 0.47244094488188976,
          "duration": 0.2447916666666572
        },
        {
          "name": "E1",
          "midi": 28,
          "time": 82.49999999999984,
          "velocity": 0.6299212598425197,
          "duration": 0.125
        },
        {
          "name": "F#2",
          "midi": 42,
          "time": 82.49999999999984,
          "velocity": 0.5275590551181102,
          "duration": 0.2447916666666714
        },
        {
          "name": "F1",
          "midi": 29,
          "time": 82.74999999999984,
          "velocity": 0.47244094488188976,
          "duration": 0.0833333333333286
        },
        {
          "name": "G#2",
          "midi": 44,
          "time": 82.74999999999984,
          "velocity": 0.47244094488188976,
          "duration": 0.2447916666666572
        },
        {
          "name": "E1",
          "midi": 28,
          "time": 82.99999999999983,
          "velocity": 0.6299212598425197,
          "duration": 0.125
        },
        {
          "name": "F#2",
          "midi": 42,
          "time": 82.99999999999983,
          "velocity": 0.5354330708661418,
          "duration": 0.2447916666666714
        },
        {
          "name": "F1",
          "midi": 29,
          "time": 83.24999999999983,
          "velocity": 0.4645669291338583,
          "duration": 0.0833333333333286
        },
        {
          "name": "G#2",
          "midi": 44,
          "time": 83.24999999999983,
          "velocity": 0.4881889763779528,
          "duration": 0.2447916666666572
        },
        {
          "name": "E1",
          "midi": 28,
          "time": 83.49999999999982,
          "velocity": 0.6299212598425197,
          "duration": 0.125
        },
        {
          "name": "F1",
          "midi": 29,
          "time": 83.49999999999982,
          "velocity": 0.4645669291338583,
          "duration": 0.0833333333333286
        },
        {
          "name": "F#2",
          "midi": 42,
          "time": 83.49999999999982,
          "velocity": 0.5354330708661418,
          "duration": 0.2447916666666714
        },
        {
          "name": "F1",
          "midi": 29,
          "time": 83.74999999999982,
          "velocity": 0.47244094488188976,
          "duration": 0.0833333333333286
        },
        {
          "name": "G#2",
          "midi": 44,
          "time": 83.74999999999982,
          "velocity": 0.5039370078740157,
          "duration": 0.2447916666666572
        },
        {
          "name": "E1",
          "midi": 28,
          "time": 83.9999999999998,
          "velocity": 0.6299212598425197,
          "duration": 0.125
        },
        {
          "name": "F#2",
          "midi": 42,
          "time": 83.9999999999998,
          "velocity": 0.5354330708661418,
          "duration": 0.2447916666666714
        },
        {
          "name": "F1",
          "midi": 29,
          "time": 84.2499999999998,
          "velocity": 0.4645669291338583,
          "duration": 0.0833333333333286
        },
        {
          "name": "G#2",
          "midi": 44,
          "time": 84.2499999999998,
          "velocity": 0.4881889763779528,
          "duration": 0.2447916666666572
        },
        {
          "name": "E1",
          "midi": 28,
          "time": 84.49999999999979,
          "velocity": 0.6299212598425197,
          "duration": 0.125
        },
        {
          "name": "F#2",
          "midi": 42,
          "time": 84.49999999999979,
          "velocity": 0.5354330708661418,
          "duration": 0.2447916666666714
        },
        {
          "name": "F1",
          "midi": 29,
          "time": 84.74999999999979,
          "velocity": 0.47244094488188976,
          "duration": 0.0833333333333286
        },
        {
          "name": "G#2",
          "midi": 44,
          "time": 84.74999999999979,
          "velocity": 0.4881889763779528,
          "duration": 0.2447916666666572
        },
        {
          "name": "E1",
          "midi": 28,
          "time": 84.99999999999977,
          "velocity": 0.6299212598425197,
          "duration": 0.125
        },
        {
          "name": "F#2",
          "midi": 42,
          "time": 84.99999999999977,
          "velocity": 0.5354330708661418,
          "duration": 0.2447916666666714
        },
        {
          "name": "F1",
          "midi": 29,
          "time": 85.24999999999977,
          "velocity": 0.47244094488188976,
          "duration": 0.0833333333333286
        },
        {
          "name": "G#2",
          "midi": 44,
          "time": 85.24999999999977,
          "velocity": 0.47244094488188976,
          "duration": 0.2447916666666572
        },
        {
          "name": "E1",
          "midi": 28,
          "time": 85.49999999999976,
          "velocity": 0.6299212598425197,
          "duration": 0.125
        },
        {
          "name": "F#2",
          "midi": 42,
          "time": 85.49999999999976,
          "velocity": 0.5511811023622047,
          "duration": 0.2447916666666714
        },
        {
          "name": "F1",
          "midi": 29,
          "time": 85.74999999999976,
          "velocity": 0.4645669291338583,
          "duration": 0.0833333333333286
        },
        {
          "name": "G#2",
          "midi": 44,
          "time": 85.74999999999976,
          "velocity": 0.47244094488188976,
          "duration": 0.2447916666666572
        },
        {
          "name": "E1",
          "midi": 28,
          "time": 85.99999999999974,
          "velocity": 0.6299212598425197,
          "duration": 0.125
        },
        {
          "name": "F#2",
          "midi": 42,
          "time": 85.99999999999974,
          "velocity": 0.5354330708661418,
          "duration": 0.2447916666666714
        },
        {
          "name": "F1",
          "midi": 29,
          "time": 86.24999999999974,
          "velocity": 0.47244094488188976,
          "duration": 0.0833333333333286
        },
        {
          "name": "G#2",
          "midi": 44,
          "time": 86.24999999999974,
          "velocity": 0.4881889763779528,
          "duration": 0.2447916666666572
        },
        {
          "name": "E1",
          "midi": 28,
          "time": 86.49999999999973,
          "velocity": 0.6299212598425197,
          "duration": 0.125
        },
        {
          "name": "F#2",
          "midi": 42,
          "time": 86.49999999999973,
          "velocity": 0.5354330708661418,
          "duration": 0.2447916666666714
        },
        {
          "name": "F1",
          "midi": 29,
          "time": 86.74999999999973,
          "velocity": 0.4645669291338583,
          "duration": 0.0833333333333286
        },
        {
          "name": "G#2",
          "midi": 44,
          "time": 86.74999999999973,
          "velocity": 0.4881889763779528,
          "duration": 0.2447916666666572
        },
        {
          "name": "E1",
          "midi": 28,
          "time": 86.99999999999972,
          "velocity": 0.6299212598425197,
          "duration": 0.125
        },
        {
          "name": "F#2",
          "midi": 42,
          "time": 86.99999999999972,
          "velocity": 0.5354330708661418,
          "duration": 0.2447916666666714
        },
        {
          "name": "F1",
          "midi": 29,
          "time": 87.24999999999972,
          "velocity": 0.4645669291338583,
          "duration": 0.0833333333333286
        },
        {
          "name": "G#2",
          "midi": 44,
          "time": 87.24999999999972,
          "velocity": 0.4881889763779528,
          "duration": 0.2447916666666572
        },
        {
          "name": "F1",
          "midi": 29,
          "time": 87.37499999999972,
          "velocity": 0.4645669291338583,
          "duration": 0.0833333333333286
        },
        {
          "name": "E1",
          "midi": 28,
          "time": 87.4999999999997,
          "velocity": 0.6299212598425197,
          "duration": 0.125
        },
        {
          "name": "F1",
          "midi": 29,
          "time": 87.4999999999997,
          "velocity": 0.4645669291338583,
          "duration": 0.0833333333333286
        },
        {
          "name": "F#2",
          "midi": 42,
          "time": 87.4999999999997,
          "velocity": 0.5354330708661418,
          "duration": 0.2447916666666714
        },
        {
          "name": "F1",
          "midi": 29,
          "time": 87.7499999999997,
          "velocity": 0.47244094488188976,
          "duration": 0.0833333333333286
        },
        {
          "name": "G#2",
          "midi": 44,
          "time": 87.7499999999997,
          "velocity": 0.4881889763779528,
          "duration": 0.2447916666666714
        },
        {
          "name": "F1",
          "midi": 29,
          "time": 87.8749999999997,
          "velocity": 0.4645669291338583,
          "duration": 0.0625
        },
        {
          "name": "F1",
          "midi": 29,
          "time": 87.9374999999997,
          "velocity": 0.4645669291338583,
          "duration": 0.0625
        },
        {
          "name": "E1",
          "midi": 28,
          "time": 87.9999999999997,
          "velocity": 0.6299212598425197,
          "duration": 0.125
        },
        {
          "name": "F#2",
          "midi": 42,
          "time": 87.9999999999997,
          "velocity": 0.5511811023622047,
          "duration": 0.2447916666666714
        },
        {
          "name": "C#3",
          "midi": 49,
          "time": 87.9999999999997,
          "velocity": 0.5669291338582677,
          "duration": 1.9999999999999432
        },
        {
          "name": "F1",
          "midi": 29,
          "time": 88.2499999999997,
          "velocity": 0.47244094488188976,
          "duration": 0.0833333333333286
        },
        {
          "name": "G#2",
          "midi": 44,
          "time": 88.2499999999997,
          "velocity": 0.4881889763779528,
          "duration": 0.2447916666666572
        },
        {
          "name": "E1",
          "midi": 28,
          "time": 88.49999999999969,
          "velocity": 0.6299212598425197,
          "duration": 0.125
        },
        {
          "name": "F#2",
          "midi": 42,
          "time": 88.49999999999969,
          "velocity": 0.5354330708661418,
          "duration": 0.2447916666666714
        },
        {
          "name": "F1",
          "midi": 29,
          "time": 88.74999999999969,
          "velocity": 0.4645669291338583,
          "duration": 0.0833333333333286
        },
        {
          "name": "G#2",
          "midi": 44,
          "time": 88.74999999999969,
          "velocity": 0.4881889763779528,
          "duration": 0.2447916666666572
        },
        {
          "name": "E1",
          "midi": 28,
          "time": 88.99999999999967,
          "velocity": 0.6299212598425197,
          "duration": 0.125
        },
        {
          "name": "F#2",
          "midi": 42,
          "time": 88.99999999999967,
          "velocity": 0.5354330708661418,
          "duration": 0.2447916666666714
        },
        {
          "name": "F1",
          "midi": 29,
          "time": 89.24999999999967,
          "velocity": 0.4645669291338583,
          "duration": 0.0833333333333286
        },
        {
          "name": "G#2",
          "midi": 44,
          "time": 89.24999999999967,
          "velocity": 0.4881889763779528,
          "duration": 0.2447916666666572
        },
        {
          "name": "E1",
          "midi": 28,
          "time": 89.49999999999966,
          "velocity": 0.6299212598425197,
          "duration": 0.125
        },
        {
          "name": "F#2",
          "midi": 42,
          "time": 89.49999999999966,
          "velocity": 0.5354330708661418,
          "duration": 0.2447916666666714
        },
        {
          "name": "F1",
          "midi": 29,
          "time": 89.74999999999966,
          "velocity": 0.4645669291338583,
          "duration": 0.0833333333333286
        },
        {
          "name": "G#2",
          "midi": 44,
          "time": 89.74999999999966,
          "velocity": 0.4881889763779528,
          "duration": 0.2447916666666572
        },
        {
          "name": "E1",
          "midi": 28,
          "time": 89.99999999999964,
          "velocity": 0.6299212598425197,
          "duration": 0.125
        },
        {
          "name": "F#2",
          "midi": 42,
          "time": 89.99999999999964,
          "velocity": 0.5354330708661418,
          "duration": 0.2447916666666714
        },
        {
          "name": "F1",
          "midi": 29,
          "time": 90.24999999999964,
          "velocity": 0.47244094488188976,
          "duration": 0.0833333333333286
        },
        {
          "name": "G#2",
          "midi": 44,
          "time": 90.24999999999964,
          "velocity": 0.47244094488188976,
          "duration": 0.2447916666666572
        },
        {
          "name": "E1",
          "midi": 28,
          "time": 90.49999999999963,
          "velocity": 0.6299212598425197,
          "duration": 0.125
        },
        {
          "name": "F#2",
          "midi": 42,
          "time": 90.49999999999963,
          "velocity": 0.5275590551181102,
          "duration": 0.2447916666666714
        },
        {
          "name": "F1",
          "midi": 29,
          "time": 90.74999999999963,
          "velocity": 0.47244094488188976,
          "duration": 0.0833333333333286
        },
        {
          "name": "G#2",
          "midi": 44,
          "time": 90.74999999999963,
          "velocity": 0.47244094488188976,
          "duration": 0.2447916666666572
        },
        {
          "name": "E1",
          "midi": 28,
          "time": 90.99999999999962,
          "velocity": 0.6299212598425197,
          "duration": 0.125
        },
        {
          "name": "F#2",
          "midi": 42,
          "time": 90.99999999999962,
          "velocity": 0.5354330708661418,
          "duration": 0.2447916666666714
        },
        {
          "name": "F1",
          "midi": 29,
          "time": 91.24999999999962,
          "velocity": 0.4645669291338583,
          "duration": 0.0833333333333286
        },
        {
          "name": "G#2",
          "midi": 44,
          "time": 91.24999999999962,
          "velocity": 0.4881889763779528,
          "duration": 0.2447916666666572
        },
        {
          "name": "E1",
          "midi": 28,
          "time": 91.4999999999996,
          "velocity": 0.6299212598425197,
          "duration": 0.125
        },
        {
          "name": "F1",
          "midi": 29,
          "time": 91.4999999999996,
          "velocity": 0.4645669291338583,
          "duration": 0.0833333333333286
        },
        {
          "name": "F#2",
          "midi": 42,
          "time": 91.4999999999996,
          "velocity": 0.5354330708661418,
          "duration": 0.2447916666666714
        },
        {
          "name": "F1",
          "midi": 29,
          "time": 91.7499999999996,
          "velocity": 0.47244094488188976,
          "duration": 0.0833333333333286
        },
        {
          "name": "G#2",
          "midi": 44,
          "time": 91.7499999999996,
          "velocity": 0.5039370078740157,
          "duration": 0.2447916666666572
        },
        {
          "name": "E1",
          "midi": 28,
          "time": 91.99999999999959,
          "velocity": 0.6299212598425197,
          "duration": 0.125
        },
        {
          "name": "F#2",
          "midi": 42,
          "time": 91.99999999999959,
          "velocity": 0.5354330708661418,
          "duration": 0.2447916666666714
        },
        {
          "name": "F1",
          "midi": 29,
          "time": 92.24999999999959,
          "velocity": 0.4645669291338583,
          "duration": 0.0833333333333286
        },
        {
          "name": "G#2",
          "midi": 44,
          "time": 92.24999999999959,
          "velocity": 0.4881889763779528,
          "duration": 0.2447916666666572
        },
        {
          "name": "E1",
          "midi": 28,
          "time": 92.49999999999957,
          "velocity": 0.6299212598425197,
          "duration": 0.125
        },
        {
          "name": "F#2",
          "midi": 42,
          "time": 92.49999999999957,
          "velocity": 0.5354330708661418,
          "duration": 0.2447916666666714
        },
        {
          "name": "F1",
          "midi": 29,
          "time": 92.74999999999957,
          "velocity": 0.47244094488188976,
          "duration": 0.0833333333333286
        },
        {
          "name": "G#2",
          "midi": 44,
          "time": 92.74999999999957,
          "velocity": 0.4881889763779528,
          "duration": 0.2447916666666572
        },
        {
          "name": "E1",
          "midi": 28,
          "time": 92.99999999999956,
          "velocity": 0.6299212598425197,
          "duration": 0.125
        },
        {
          "name": "F#2",
          "midi": 42,
          "time": 92.99999999999956,
          "velocity": 0.5354330708661418,
          "duration": 0.2447916666666714
        },
        {
          "name": "F1",
          "midi": 29,
          "time": 93.24999999999956,
          "velocity": 0.47244094488188976,
          "duration": 0.0833333333333286
        },
        {
          "name": "G#2",
          "midi": 44,
          "time": 93.24999999999956,
          "velocity": 0.47244094488188976,
          "duration": 0.2447916666666572
        },
        {
          "name": "E1",
          "midi": 28,
          "time": 93.49999999999955,
          "velocity": 0.6299212598425197,
          "duration": 0.125
        },
        {
          "name": "F#2",
          "midi": 42,
          "time": 93.49999999999955,
          "velocity": 0.5511811023622047,
          "duration": 0.2447916666666714
        },
        {
          "name": "F1",
          "midi": 29,
          "time": 93.74999999999955,
          "velocity": 0.4645669291338583,
          "duration": 0.0833333333333286
        },
        {
          "name": "G#2",
          "midi": 44,
          "time": 93.74999999999955,
          "velocity": 0.47244094488188976,
          "duration": 0.2447916666666572
        },
        {
          "name": "E1",
          "midi": 28,
          "time": 93.99999999999953,
          "velocity": 0.6299212598425197,
          "duration": 0.125
        },
        {
          "name": "F#2",
          "midi": 42,
          "time": 93.99999999999953,
          "velocity": 0.5511811023622047,
          "duration": 0.2447916666666714
        },
        {
          "name": "F1",
          "midi": 29,
          "time": 94.24999999999953,
          "velocity": 0.4645669291338583,
          "duration": 0.0833333333333286
        },
        {
          "name": "G#2",
          "midi": 44,
          "time": 94.24999999999953,
          "velocity": 0.47244094488188976,
          "duration": 0.2447916666666572
        },
        {
          "name": "E1",
          "midi": 28,
          "time": 94.49999999999952,
          "velocity": 0.6299212598425197,
          "duration": 0.125
        },
        {
          "name": "F#2",
          "midi": 42,
          "time": 94.49999999999952,
          "velocity": 0.5511811023622047,
          "duration": 0.2447916666666714
        },
        {
          "name": "F1",
          "midi": 29,
          "time": 94.74999999999952,
          "velocity": 0.47244094488188976,
          "duration": 0.0833333333333286
        },
        {
          "name": "G#2",
          "midi": 44,
          "time": 94.74999999999952,
          "velocity": 0.4881889763779528,
          "duration": 0.2447916666666572
        },
        {
          "name": "E1",
          "midi": 28,
          "time": 94.9999999999995,
          "velocity": 0.6299212598425197,
          "duration": 0.125
        },
        {
          "name": "F1",
          "midi": 29,
          "time": 94.9999999999995,
          "velocity": 0.4881889763779528,
          "duration": 0.0833333333333286
        },
        {
          "name": "F#2",
          "midi": 42,
          "time": 94.9999999999995,
          "velocity": 0.5511811023622047,
          "duration": 0.2447916666666714
        },
        {
          "name": "F1",
          "midi": 29,
          "time": 95.1249999999995,
          "velocity": 0.4645669291338583,
          "duration": 0.0625
        },
        {
          "name": "F1",
          "midi": 29,
          "time": 95.1874999999995,
          "velocity": 0.4645669291338583,
          "duration": 0.0625
        },
        {
          "name": "F1",
          "midi": 29,
          "time": 95.2499999999995,
          "velocity": 0.4645669291338583,
          "duration": 0.0833333333333286
        },
        {
          "name": "G#2",
          "midi": 44,
          "time": 95.2499999999995,
          "velocity": 0.4881889763779528,
          "duration": 0.2447916666666572
        },
        {
          "name": "F1",
          "midi": 29,
          "time": 95.3749999999995,
          "velocity": 0.4645669291338583,
          "duration": 0.0833333333333286
        },
        {
          "name": "E1",
          "midi": 28,
          "time": 95.49999999999949,
          "velocity": 0.6299212598425197,
          "duration": 0.125
        },
        {
          "name": "F1",
          "midi": 29,
          "time": 95.49999999999949,
          "velocity": 0.4881889763779528,
          "duration": 0.0833333333333286
        },
        {
          "name": "F#2",
          "midi": 42,
          "time": 95.49999999999949,
          "velocity": 0.5511811023622047,
          "duration": 0.2447916666666714
        },
        {
          "name": "F1",
          "midi": 29,
          "time": 95.74999999999949,
          "velocity": 0.4881889763779528,
          "duration": 0.0833333333333286
        },
        {
          "name": "G#2",
          "midi": 44,
          "time": 95.74999999999949,
          "velocity": 0.4881889763779528,
          "duration": 0.2395833333333286
        },
        {
          "name": "E1",
          "midi": 28,
          "time": 95.99999999999949,
          "velocity": 0.6299212598425197,
          "duration": 0.125
        },
        {
          "name": "F#2",
          "midi": 42,
          "time": 95.99999999999949,
          "velocity": 0.5511811023622047,
          "duration": 0.2447916666666714
        },
        {
          "name": "C#3",
          "midi": 49,
          "time": 95.99999999999949,
          "velocity": 0.5669291338582677,
          "duration": 1.9999999999999432
        },
        {
          "name": "F1",
          "midi": 29,
          "time": 96.24999999999949,
          "velocity": 0.47244094488188976,
          "duration": 0.0833333333333286
        },
        {
          "name": "G#2",
          "midi": 44,
          "time": 96.24999999999949,
          "velocity": 0.4881889763779528,
          "duration": 0.2447916666666572
        },
        {
          "name": "E1",
          "midi": 28,
          "time": 96.49999999999947,
          "velocity": 0.6299212598425197,
          "duration": 0.125
        },
        {
          "name": "F#2",
          "midi": 42,
          "time": 96.49999999999947,
          "velocity": 0.5354330708661418,
          "duration": 0.2447916666666714
        },
        {
          "name": "F1",
          "midi": 29,
          "time": 96.74999999999947,
          "velocity": 0.4645669291338583,
          "duration": 0.0833333333333286
        },
        {
          "name": "G#2",
          "midi": 44,
          "time": 96.74999999999947,
          "velocity": 0.4881889763779528,
          "duration": 0.2447916666666572
        },
        {
          "name": "E1",
          "midi": 28,
          "time": 96.99999999999946,
          "velocity": 0.6299212598425197,
          "duration": 0.125
        },
        {
          "name": "F#2",
          "midi": 42,
          "time": 96.99999999999946,
          "velocity": 0.5354330708661418,
          "duration": 0.2447916666666714
        },
        {
          "name": "F1",
          "midi": 29,
          "time": 97.24999999999946,
          "velocity": 0.4645669291338583,
          "duration": 0.0833333333333286
        },
        {
          "name": "G#2",
          "midi": 44,
          "time": 97.24999999999946,
          "velocity": 0.4881889763779528,
          "duration": 0.2447916666666572
        },
        {
          "name": "E1",
          "midi": 28,
          "time": 97.49999999999945,
          "velocity": 0.6299212598425197,
          "duration": 0.125
        },
        {
          "name": "F#2",
          "midi": 42,
          "time": 97.49999999999945,
          "velocity": 0.5354330708661418,
          "duration": 0.2447916666666714
        },
        {
          "name": "F1",
          "midi": 29,
          "time": 97.74999999999945,
          "velocity": 0.4645669291338583,
          "duration": 0.0833333333333286
        },
        {
          "name": "G#2",
          "midi": 44,
          "time": 97.74999999999945,
          "velocity": 0.4881889763779528,
          "duration": 0.2447916666666572
        },
        {
          "name": "E1",
          "midi": 28,
          "time": 97.99999999999943,
          "velocity": 0.6299212598425197,
          "duration": 0.125
        },
        {
          "name": "F#2",
          "midi": 42,
          "time": 97.99999999999943,
          "velocity": 0.5354330708661418,
          "duration": 0.2447916666666714
        },
        {
          "name": "F1",
          "midi": 29,
          "time": 98.24999999999943,
          "velocity": 0.47244094488188976,
          "duration": 0.0833333333333286
        },
        {
          "name": "G#2",
          "midi": 44,
          "time": 98.24999999999943,
          "velocity": 0.47244094488188976,
          "duration": 0.2447916666666572
        },
        {
          "name": "E1",
          "midi": 28,
          "time": 98.49999999999942,
          "velocity": 0.6299212598425197,
          "duration": 0.125
        },
        {
          "name": "F#2",
          "midi": 42,
          "time": 98.49999999999942,
          "velocity": 0.5275590551181102,
          "duration": 0.2447916666666714
        },
        {
          "name": "A3",
          "midi": 57,
          "time": 98.49999999999942,
          "velocity": 0.5669291338582677,
          "duration": 1.4895833333333002
        },
        {
          "name": "F1",
          "midi": 29,
          "time": 98.74999999999942,
          "velocity": 0.4645669291338583,
          "duration": 0.0833333333333286
        },
        {
          "name": "G#2",
          "midi": 44,
          "time": 98.74999999999942,
          "velocity": 0.47244094488188976,
          "duration": 0.2447916666666572
        },
        {
          "name": "E1",
          "midi": 28,
          "time": 98.9999999999994,
          "velocity": 0.6299212598425197,
          "duration": 0.125
        },
        {
          "name": "F1",
          "midi": 29,
          "time": 98.9999999999994,
          "velocity": 0.5511811023622047,
          "duration": 0.0625
        },
        {
          "name": "F#2",
          "midi": 42,
          "time": 98.9999999999994,
          "velocity": 0.5354330708661418,
          "duration": 0.2447916666666714
        },
        {
          "name": "C#3",
          "midi": 49,
          "time": 98.9999999999994,
          "velocity": 0.5669291338582677,
          "duration": 0.9895833333333144
        },
        {
          "name": "F1",
          "midi": 29,
          "time": 99.0624999999994,
          "velocity": 0.2755905511811024,
          "duration": 0.0625
        },
        {
          "name": "F1",
          "midi": 29,
          "time": 99.1249999999994,
          "velocity": 0.33858267716535434,
          "duration": 0.0625
        },
        {
          "name": "F1",
          "midi": 29,
          "time": 99.1874999999994,
          "velocity": 0.44881889763779526,
          "duration": 0.0625
        },
        {
          "name": "F1",
          "midi": 29,
          "time": 99.2499999999994,
          "velocity": 0.5118110236220472,
          "duration": 0.0833333333333286
        },
        {
          "name": "G#2",
          "midi": 44,
          "time": 99.2499999999994,
          "velocity": 0.4881889763779528,
          "duration": 0.2447916666666572
        },
        {
          "name": "F1",
          "midi": 29,
          "time": 99.3749999999994,
          "velocity": 0.5511811023622047,
          "duration": 0.0833333333333286
        },
        {
          "name": "E1",
          "midi": 28,
          "time": 99.49999999999939,
          "velocity": 0.6299212598425197,
          "duration": 0.125
        },
        {
          "name": "F1",
          "midi": 29,
          "time": 99.49999999999939,
          "velocity": 0.5748031496062992,
          "duration": 0.0833333333333286
        },
        {
          "name": "F#2",
          "midi": 42,
          "time": 99.49999999999939,
          "velocity": 0.5354330708661418,
          "duration": 0.2447916666666714
        },
        {
          "name": "A3",
          "midi": 57,
          "time": 99.49999999999939,
          "velocity": 0.5669291338582677,
          "duration": 0.4895833333333286
        },
        {
          "name": "F1",
          "midi": 29,
          "time": 99.74999999999939,
          "velocity": 0.6141732283464567,
          "duration": 0.0833333333333286
        },
        {
          "name": "G#2",
          "midi": 44,
          "time": 99.74999999999939,
          "velocity": 0.5039370078740157,
          "duration": 0.2395833333333286
        },
        {
          "name": "E1",
          "midi": 28,
          "time": 99.99999999999939,
          "velocity": 0.6299212598425197,
          "duration": 0.125
        },
        {
          "name": "D#3",
          "midi": 51,
          "time": 99.99999999999939,
          "velocity": 0.5511811023622047,
          "duration": 0.2447916666666714
        },
        {
          "name": "C#3",
          "midi": 49,
          "time": 99.99999999999939,
          "velocity": 0.5669291338582677,
          "duration": 1.9999999999999432
        },
        {
          "name": "F1",
          "midi": 29,
          "time": 100.24999999999939,
          "velocity": 0.47244094488188976,
          "duration": 0.0833333333333286
        },
        {
          "name": "G#2",
          "midi": 44,
          "time": 100.24999999999939,
          "velocity": 0.4881889763779528,
          "duration": 0.2447916666666572
        },
        {
          "name": "E1",
          "midi": 28,
          "time": 100.49999999999937,
          "velocity": 0.6299212598425197,
          "duration": 0.125
        },
        {
          "name": "D#3",
          "midi": 51,
          "time": 100.49999999999937,
          "velocity": 0.5354330708661418,
          "duration": 0.2447916666666714
        },
        {
          "name": "F1",
          "midi": 29,
          "time": 100.74999999999937,
          "velocity": 0.4645669291338583,
          "duration": 0.0833333333333286
        },
        {
          "name": "G#2",
          "midi": 44,
          "time": 100.74999999999937,
          "velocity": 0.4881889763779528,
          "duration": 0.2447916666666572
        },
        {
          "name": "E1",
          "midi": 28,
          "time": 100.99999999999936,
          "velocity": 0.6299212598425197,
          "duration": 0.125
        },
        {
          "name": "D#3",
          "midi": 51,
          "time": 100.99999999999936,
          "velocity": 0.5354330708661418,
          "duration": 0.2447916666666714
        },
        {
          "name": "F1",
          "midi": 29,
          "time": 101.24999999999936,
          "velocity": 0.4645669291338583,
          "duration": 0.0833333333333286
        },
        {
          "name": "G#2",
          "midi": 44,
          "time": 101.24999999999936,
          "velocity": 0.4881889763779528,
          "duration": 0.2447916666666572
        },
        {
          "name": "E1",
          "midi": 28,
          "time": 101.49999999999935,
          "velocity": 0.6299212598425197,
          "duration": 0.125
        },
        {
          "name": "D#3",
          "midi": 51,
          "time": 101.49999999999935,
          "velocity": 0.5354330708661418,
          "duration": 0.2447916666666714
        },
        {
          "name": "F1",
          "midi": 29,
          "time": 101.74999999999935,
          "velocity": 0.4645669291338583,
          "duration": 0.0833333333333286
        },
        {
          "name": "G#2",
          "midi": 44,
          "time": 101.74999999999935,
          "velocity": 0.4881889763779528,
          "duration": 0.2447916666666572
        },
        {
          "name": "E1",
          "midi": 28,
          "time": 101.99999999999933,
          "velocity": 0.6299212598425197,
          "duration": 0.125
        },
        {
          "name": "D#3",
          "midi": 51,
          "time": 101.99999999999933,
          "velocity": 0.5354330708661418,
          "duration": 0.2447916666666714
        },
        {
          "name": "A3",
          "midi": 57,
          "time": 101.99999999999933,
          "velocity": 0.5669291338582677,
          "duration": 1.9999999999999432
        },
        {
          "name": "F1",
          "midi": 29,
          "time": 102.24999999999933,
          "velocity": 0.47244094488188976,
          "duration": 0.0833333333333286
        },
        {
          "name": "G#2",
          "midi": 44,
          "time": 102.24999999999933,
          "velocity": 0.47244094488188976,
          "duration": 0.2447916666666572
        },
        {
          "name": "E1",
          "midi": 28,
          "time": 102.49999999999932,
          "velocity": 0.6299212598425197,
          "duration": 0.125
        },
        {
          "name": "D#3",
          "midi": 51,
          "time": 102.49999999999932,
          "velocity": 0.5275590551181102,
          "duration": 0.2447916666666714
        },
        {
          "name": "F1",
          "midi": 29,
          "time": 102.74999999999932,
          "velocity": 0.4645669291338583,
          "duration": 0.0833333333333286
        },
        {
          "name": "G#2",
          "midi": 44,
          "time": 102.74999999999932,
          "velocity": 0.47244094488188976,
          "duration": 0.2447916666666572
        },
        {
          "name": "E1",
          "midi": 28,
          "time": 102.9999999999993,
          "velocity": 0.6299212598425197,
          "duration": 0.125
        },
        {
          "name": "D#3",
          "midi": 51,
          "time": 102.9999999999993,
          "velocity": 0.5354330708661418,
          "duration": 0.2447916666666714
        },
        {
          "name": "F1",
          "midi": 29,
          "time": 103.2499999999993,
          "velocity": 0.4645669291338583,
          "duration": 0.0833333333333286
        },
        {
          "name": "G#2",
          "midi": 44,
          "time": 103.2499999999993,
          "velocity": 0.4881889763779528,
          "duration": 0.2447916666666572
        },
        {
          "name": "F1",
          "midi": 29,
          "time": 103.3749999999993,
          "velocity": 0.4645669291338583,
          "duration": 0.0833333333333286
        },
        {
          "name": "E1",
          "midi": 28,
          "time": 103.49999999999929,
          "velocity": 0.6299212598425197,
          "duration": 0.125
        },
        {
          "name": "F1",
          "midi": 29,
          "time": 103.49999999999929,
          "velocity": 0.4645669291338583,
          "duration": 0.0833333333333286
        },
        {
          "name": "D#3",
          "midi": 51,
          "time": 103.49999999999929,
          "velocity": 0.5354330708661418,
          "duration": 0.2447916666666714
        },
        {
          "name": "F1",
          "midi": 29,
          "time": 103.74999999999929,
          "velocity": 0.47244094488188976,
          "duration": 0.0833333333333286
        },
        {
          "name": "G#2",
          "midi": 44,
          "time": 103.74999999999929,
          "velocity": 0.5039370078740157,
          "duration": 0.2447916666666572
        },
        {
          "name": "E1",
          "midi": 28,
          "time": 103.99999999999928,
          "velocity": 0.6299212598425197,
          "duration": 0.125
        },
        {
          "name": "D#3",
          "midi": 51,
          "time": 103.99999999999928,
          "velocity": 0.5511811023622047,
          "duration": 0.2447916666666714
        },
        {
          "name": "C#3",
          "midi": 49,
          "time": 103.99999999999928,
          "velocity": 0.5669291338582677,
          "duration": 1.9999999999999432
        },
        {
          "name": "F1",
          "midi": 29,
          "time": 104.24999999999928,
          "velocity": 0.47244094488188976,
          "duration": 0.0833333333333286
        },
        {
          "name": "G#2",
          "midi": 44,
          "time": 104.24999999999928,
          "velocity": 0.4881889763779528,
          "duration": 0.2447916666666572
        },
        {
          "name": "E1",
          "midi": 28,
          "time": 104.49999999999926,
          "velocity": 0.6299212598425197,
          "duration": 0.125
        },
        {
          "name": "D#3",
          "midi": 51,
          "time": 104.49999999999926,
          "velocity": 0.5354330708661418,
          "duration": 0.2447916666666714
        },
        {
          "name": "F1",
          "midi": 29,
          "time": 104.74999999999926,
          "velocity": 0.4645669291338583,
          "duration": 0.0833333333333286
        },
        {
          "name": "G#2",
          "midi": 44,
          "time": 104.74999999999926,
          "velocity": 0.4881889763779528,
          "duration": 0.2447916666666572
        },
        {
          "name": "E1",
          "midi": 28,
          "time": 104.99999999999925,
          "velocity": 0.6299212598425197,
          "duration": 0.125
        },
        {
          "name": "D#3",
          "midi": 51,
          "time": 104.99999999999925,
          "velocity": 0.5354330708661418,
          "duration": 0.2447916666666714
        },
        {
          "name": "F1",
          "midi": 29,
          "time": 105.24999999999925,
          "velocity": 0.4645669291338583,
          "duration": 0.0833333333333286
        },
        {
          "name": "G#2",
          "midi": 44,
          "time": 105.24999999999925,
          "velocity": 0.4881889763779528,
          "duration": 0.2447916666666572
        },
        {
          "name": "E1",
          "midi": 28,
          "time": 105.49999999999923,
          "velocity": 0.6299212598425197,
          "duration": 0.125
        },
        {
          "name": "D#3",
          "midi": 51,
          "time": 105.49999999999923,
          "velocity": 0.5354330708661418,
          "duration": 0.2447916666666714
        },
        {
          "name": "F1",
          "midi": 29,
          "time": 105.74999999999923,
          "velocity": 0.4645669291338583,
          "duration": 0.0833333333333286
        },
        {
          "name": "G#2",
          "midi": 44,
          "time": 105.74999999999923,
          "velocity": 0.4881889763779528,
          "duration": 0.2447916666666572
        },
        {
          "name": "E1",
          "midi": 28,
          "time": 105.99999999999922,
          "velocity": 0.6299212598425197,
          "duration": 0.125
        },
        {
          "name": "D#3",
          "midi": 51,
          "time": 105.99999999999922,
          "velocity": 0.5354330708661418,
          "duration": 0.2447916666666714
        },
        {
          "name": "C#3",
          "midi": 49,
          "time": 105.99999999999922,
          "velocity": 0.5669291338582677,
          "duration": 1.989583333333286
        },
        {
          "name": "F1",
          "midi": 29,
          "time": 106.24999999999922,
          "velocity": 0.4645669291338583,
          "duration": 0.0833333333333286
        },
        {
          "name": "G#2",
          "midi": 44,
          "time": 106.24999999999922,
          "velocity": 0.47244094488188976,
          "duration": 0.2447916666666572
        },
        {
          "name": "E1",
          "midi": 28,
          "time": 106.4999999999992,
          "velocity": 0.6299212598425197,
          "duration": 0.125
        },
        {
          "name": "D#3",
          "midi": 51,
          "time": 106.4999999999992,
          "velocity": 0.5275590551181102,
          "duration": 0.2447916666666714
        },
        {
          "name": "A3",
          "midi": 57,
          "time": 106.4999999999992,
          "velocity": 0.5669291338582677,
          "duration": 1.4895833333333002
        },
        {
          "name": "F1",
          "midi": 29,
          "time": 106.7499999999992,
          "velocity": 0.4645669291338583,
          "duration": 0.0833333333333286
        },
        {
          "name": "G#2",
          "midi": 44,
          "time": 106.7499999999992,
          "velocity": 0.47244094488188976,
          "duration": 0.2447916666666572
        },
        {
          "name": "E1",
          "midi": 28,
          "time": 106.99999999999919,
          "velocity": 0.6299212598425197,
          "duration": 0.125
        },
        {
          "name": "F1",
          "midi": 29,
          "time": 106.99999999999919,
          "velocity": 0.5511811023622047,
          "duration": 0.0625
        },
        {
          "name": "D#3",
          "midi": 51,
          "time": 106.99999999999919,
          "velocity": 0.5354330708661418,
          "duration": 0.2447916666666714
        },
        {
          "name": "C#3",
          "midi": 49,
          "time": 106.99999999999919,
          "velocity": 0.5669291338582677,
          "duration": 0.9895833333333144
        },
        {
          "name": "F1",
          "midi": 29,
          "time": 107.06249999999919,
          "velocity": 0.2755905511811024,
          "duration": 0.0625
        },
        {
          "name": "F1",
          "midi": 29,
          "time": 107.12499999999919,
          "velocity": 0.33858267716535434,
          "duration": 0.0625
        },
        {
          "name": "F1",
          "midi": 29,
          "time": 107.18749999999919,
          "velocity": 0.44881889763779526,
          "duration": 0.0625
        },
        {
          "name": "F1",
          "midi": 29,
          "time": 107.24999999999919,
          "velocity": 0.5118110236220472,
          "duration": 0.0833333333333286
        },
        {
          "name": "G#2",
          "midi": 44,
          "time": 107.24999999999919,
          "velocity": 0.4881889763779528,
          "duration": 0.2447916666666572
        },
        {
          "name": "F1",
          "midi": 29,
          "time": 107.37499999999919,
          "velocity": 0.5511811023622047,
          "duration": 0.0833333333333286
        },
        {
          "name": "E1",
          "midi": 28,
          "time": 107.49999999999918,
          "velocity": 0.6299212598425197,
          "duration": 0.125
        },
        {
          "name": "F1",
          "midi": 29,
          "time": 107.49999999999918,
          "velocity": 0.5748031496062992,
          "duration": 0.0833333333333286
        },
        {
          "name": "D#3",
          "midi": 51,
          "time": 107.49999999999918,
          "velocity": 0.5354330708661418,
          "duration": 0.2447916666666714
        },
        {
          "name": "A3",
          "midi": 57,
          "time": 107.49999999999918,
          "velocity": 0.5669291338582677,
          "duration": 0.4895833333333286
        },
        {
          "name": "F1",
          "midi": 29,
          "time": 107.74999999999918,
          "velocity": 0.6141732283464567,
          "duration": 0.0833333333333286
        },
        {
          "name": "G#2",
          "midi": 44,
          "time": 107.74999999999918,
          "velocity": 0.5039370078740157,
          "duration": 0.2395833333333286
        },
        {
          "name": "E1",
          "midi": 28,
          "time": 107.99999999999918,
          "velocity": 0.6299212598425197,
          "duration": 0.125
        },
        {
          "name": "F#2",
          "midi": 42,
          "time": 107.99999999999918,
          "velocity": 0.5511811023622047,
          "duration": 0.2447916666666714
        },
        {
          "name": "C#3",
          "midi": 49,
          "time": 107.99999999999918,
          "velocity": 0.5669291338582677,
          "duration": 1.9999999999999432
        },
        {
          "name": "F1",
          "midi": 29,
          "time": 108.24999999999918,
          "velocity": 0.47244094488188976,
          "duration": 0.0833333333333286
        },
        {
          "name": "G#2",
          "midi": 44,
          "time": 108.24999999999918,
          "velocity": 0.4881889763779528,
          "duration": 0.2447916666666572
        },
        {
          "name": "E1",
          "midi": 28,
          "time": 108.49999999999916,
          "velocity": 0.6299212598425197,
          "duration": 0.125
        },
        {
          "name": "F#2",
          "midi": 42,
          "time": 108.49999999999916,
          "velocity": 0.5354330708661418,
          "duration": 0.2447916666666714
        },
        {
          "name": "F1",
          "midi": 29,
          "time": 108.74999999999916,
          "velocity": 0.4645669291338583,
          "duration": 0.0833333333333286
        },
        {
          "name": "G#2",
          "midi": 44,
          "time": 108.74999999999916,
          "velocity": 0.4881889763779528,
          "duration": 0.2447916666666572
        },
        {
          "name": "E1",
          "midi": 28,
          "time": 108.99999999999915,
          "velocity": 0.6299212598425197,
          "duration": 0.125
        },
        {
          "name": "F#2",
          "midi": 42,
          "time": 108.99999999999915,
          "velocity": 0.5354330708661418,
          "duration": 0.2447916666666714
        },
        {
          "name": "F1",
          "midi": 29,
          "time": 109.24999999999915,
          "velocity": 0.4645669291338583,
          "duration": 0.0833333333333286
        },
        {
          "name": "G#2",
          "midi": 44,
          "time": 109.24999999999915,
          "velocity": 0.4881889763779528,
          "duration": 0.2447916666666572
        },
        {
          "name": "E1",
          "midi": 28,
          "time": 109.49999999999913,
          "velocity": 0.6299212598425197,
          "duration": 0.125
        },
        {
          "name": "F#2",
          "midi": 42,
          "time": 109.49999999999913,
          "velocity": 0.5354330708661418,
          "duration": 0.2447916666666714
        },
        {
          "name": "F1",
          "midi": 29,
          "time": 109.74999999999913,
          "velocity": 0.4645669291338583,
          "duration": 0.0833333333333286
        },
        {
          "name": "G#2",
          "midi": 44,
          "time": 109.74999999999913,
          "velocity": 0.4881889763779528,
          "duration": 0.2447916666666572
        },
        {
          "name": "E1",
          "midi": 28,
          "time": 109.99999999999912,
          "velocity": 0.6299212598425197,
          "duration": 0.125
        },
        {
          "name": "F#2",
          "midi": 42,
          "time": 109.99999999999912,
          "velocity": 0.5354330708661418,
          "duration": 0.2447916666666714
        },
        {
          "name": "F1",
          "midi": 29,
          "time": 110.24999999999912,
          "velocity": 0.47244094488188976,
          "duration": 0.0833333333333286
        },
        {
          "name": "G#2",
          "midi": 44,
          "time": 110.24999999999912,
          "velocity": 0.47244094488188976,
          "duration": 0.2447916666666572
        },
        {
          "name": "E1",
          "midi": 28,
          "time": 110.4999999999991,
          "velocity": 0.6299212598425197,
          "duration": 0.125
        },
        {
          "name": "F#2",
          "midi": 42,
          "time": 110.4999999999991,
          "velocity": 0.5275590551181102,
          "duration": 0.2447916666666714
        },
        {
          "name": "F1",
          "midi": 29,
          "time": 110.7499999999991,
          "velocity": 0.47244094488188976,
          "duration": 0.0833333333333286
        },
        {
          "name": "G#2",
          "midi": 44,
          "time": 110.7499999999991,
          "velocity": 0.47244094488188976,
          "duration": 0.2447916666666572
        },
        {
          "name": "E1",
          "midi": 28,
          "time": 110.99999999999909,
          "velocity": 0.6299212598425197,
          "duration": 0.125
        },
        {
          "name": "F#2",
          "midi": 42,
          "time": 110.99999999999909,
          "velocity": 0.5354330708661418,
          "duration": 0.2447916666666714
        },
        {
          "name": "F1",
          "midi": 29,
          "time": 111.24999999999909,
          "velocity": 0.4645669291338583,
          "duration": 0.0833333333333286
        },
        {
          "name": "G#2",
          "midi": 44,
          "time": 111.24999999999909,
          "velocity": 0.4881889763779528,
          "duration": 0.2447916666666572
        },
        {
          "name": "E1",
          "midi": 28,
          "time": 111.49999999999908,
          "velocity": 0.6299212598425197,
          "duration": 0.125
        },
        {
          "name": "F1",
          "midi": 29,
          "time": 111.49999999999908,
          "velocity": 0.4645669291338583,
          "duration": 0.0833333333333286
        },
        {
          "name": "F#2",
          "midi": 42,
          "time": 111.49999999999908,
          "velocity": 0.5354330708661418,
          "duration": 0.2447916666666714
        },
        {
          "name": "F1",
          "midi": 29,
          "time": 111.74999999999908,
          "velocity": 0.47244094488188976,
          "duration": 0.0833333333333286
        },
        {
          "name": "G#2",
          "midi": 44,
          "time": 111.74999999999908,
          "velocity": 0.5039370078740157,
          "duration": 0.2447916666666572
        },
        {
          "name": "E1",
          "midi": 28,
          "time": 111.99999999999906,
          "velocity": 0.6299212598425197,
          "duration": 0.125
        },
        {
          "name": "F#2",
          "midi": 42,
          "time": 111.99999999999906,
          "velocity": 0.5354330708661418,
          "duration": 0.2447916666666714
        },
        {
          "name": "F1",
          "midi": 29,
          "time": 112.24999999999906,
          "velocity": 0.4645669291338583,
          "duration": 0.0833333333333286
        },
        {
          "name": "G#2",
          "midi": 44,
          "time": 112.24999999999906,
          "velocity": 0.4881889763779528,
          "duration": 0.2447916666666572
        },
        {
          "name": "E1",
          "midi": 28,
          "time": 112.49999999999905,
          "velocity": 0.6299212598425197,
          "duration": 0.125
        },
        {
          "name": "F#2",
          "midi": 42,
          "time": 112.49999999999905,
          "velocity": 0.5354330708661418,
          "duration": 0.2447916666666714
        },
        {
          "name": "F1",
          "midi": 29,
          "time": 112.74999999999905,
          "velocity": 0.47244094488188976,
          "duration": 0.0833333333333286
        },
        {
          "name": "G#2",
          "midi": 44,
          "time": 112.74999999999905,
          "velocity": 0.4881889763779528,
          "duration": 0.2447916666666572
        },
        {
          "name": "E1",
          "midi": 28,
          "time": 112.99999999999903,
          "velocity": 0.6299212598425197,
          "duration": 0.125
        },
        {
          "name": "F#2",
          "midi": 42,
          "time": 112.99999999999903,
          "velocity": 0.5354330708661418,
          "duration": 0.2447916666666714
        },
        {
          "name": "F1",
          "midi": 29,
          "time": 113.24999999999903,
          "velocity": 0.47244094488188976,
          "duration": 0.0833333333333286
        },
        {
          "name": "G#2",
          "midi": 44,
          "time": 113.24999999999903,
          "velocity": 0.47244094488188976,
          "duration": 0.2447916666666572
        },
        {
          "name": "E1",
          "midi": 28,
          "time": 113.49999999999902,
          "velocity": 0.6299212598425197,
          "duration": 0.125
        },
        {
          "name": "F#2",
          "midi": 42,
          "time": 113.49999999999902,
          "velocity": 0.5511811023622047,
          "duration": 0.2447916666666714
        },
        {
          "name": "F1",
          "midi": 29,
          "time": 113.74999999999902,
          "velocity": 0.4645669291338583,
          "duration": 0.0833333333333286
        },
        {
          "name": "G#2",
          "midi": 44,
          "time": 113.74999999999902,
          "velocity": 0.47244094488188976,
          "duration": 0.2447916666666572
        },
        {
          "name": "E1",
          "midi": 28,
          "time": 113.999999999999,
          "velocity": 0.6299212598425197,
          "duration": 0.125
        },
        {
          "name": "F#2",
          "midi": 42,
          "time": 113.999999999999,
          "velocity": 0.5354330708661418,
          "duration": 0.2447916666666714
        },
        {
          "name": "F1",
          "midi": 29,
          "time": 114.249999999999,
          "velocity": 0.47244094488188976,
          "duration": 0.0833333333333286
        },
        {
          "name": "G#2",
          "midi": 44,
          "time": 114.249999999999,
          "velocity": 0.4881889763779528,
          "duration": 0.2447916666666572
        },
        {
          "name": "E1",
          "midi": 28,
          "time": 114.49999999999899,
          "velocity": 0.6299212598425197,
          "duration": 0.125
        },
        {
          "name": "F#2",
          "midi": 42,
          "time": 114.49999999999899,
          "velocity": 0.5354330708661418,
          "duration": 0.2447916666666714
        },
        {
          "name": "F1",
          "midi": 29,
          "time": 114.74999999999899,
          "velocity": 0.4645669291338583,
          "duration": 0.0833333333333286
        },
        {
          "name": "G#2",
          "midi": 44,
          "time": 114.74999999999899,
          "velocity": 0.4881889763779528,
          "duration": 0.2447916666666572
        },
        {
          "name": "E1",
          "midi": 28,
          "time": 114.99999999999898,
          "velocity": 0.6299212598425197,
          "duration": 0.125
        },
        {
          "name": "F#2",
          "midi": 42,
          "time": 114.99999999999898,
          "velocity": 0.5354330708661418,
          "duration": 0.2447916666666714
        },
        {
          "name": "F1",
          "midi": 29,
          "time": 115.24999999999898,
          "velocity": 0.4645669291338583,
          "duration": 0.0833333333333286
        },
        {
          "name": "G#2",
          "midi": 44,
          "time": 115.24999999999898,
          "velocity": 0.4881889763779528,
          "duration": 0.2447916666666572
        },
        {
          "name": "F1",
          "midi": 29,
          "time": 115.37499999999898,
          "velocity": 0.4645669291338583,
          "duration": 0.0833333333333286
        },
        {
          "name": "E1",
          "midi": 28,
          "time": 115.49999999999896,
          "velocity": 0.6299212598425197,
          "duration": 0.125
        },
        {
          "name": "F1",
          "midi": 29,
          "time": 115.49999999999896,
          "velocity": 0.4645669291338583,
          "duration": 0.0833333333333286
        },
        {
          "name": "F#2",
          "midi": 42,
          "time": 115.49999999999896,
          "velocity": 0.5354330708661418,
          "duration": 0.2447916666666714
        },
        {
          "name": "F1",
          "midi": 29,
          "time": 115.74999999999896,
          "velocity": 0.47244094488188976,
          "duration": 0.0833333333333286
        },
        {
          "name": "G#2",
          "midi": 44,
          "time": 115.74999999999896,
          "velocity": 0.4881889763779528,
          "duration": 0.2447916666666714
        },
        {
          "name": "F1",
          "midi": 29,
          "time": 115.87499999999896,
          "velocity": 0.4645669291338583,
          "duration": 0.0625
        },
        {
          "name": "F1",
          "midi": 29,
          "time": 115.93749999999896,
          "velocity": 0.4645669291338583,
          "duration": 0.0625
        },
        {
          "name": "E1",
          "midi": 28,
          "time": 115.99999999999896,
          "velocity": 0.6299212598425197,
          "duration": 0.125
        },
        {
          "name": "F1",
          "midi": 29,
          "time": 115.99999999999896,
          "velocity": 0.4881889763779528,
          "duration": 0.0833333333333286
        },
        {
          "name": "A3",
          "midi": 57,
          "time": 115.99999999999896,
          "velocity": 0.5669291338582677,
          "duration": 1
        },
        {
          "name": "F1",
          "midi": 29,
          "time": 116.24999999999896,
          "velocity": 0.4881889763779528,
          "duration": 0.0833333333333286
        },
        {
          "name": "F1",
          "midi": 29,
          "time": 116.37499999999896,
          "velocity": 0.4881889763779528,
          "duration": 0.0833333333333286
        },
        {
          "name": "E1",
          "midi": 28,
          "time": 116.49999999999896,
          "velocity": 0.6299212598425197,
          "duration": 0.125
        },
        {
          "name": "F1",
          "midi": 29,
          "time": 116.49999999999896,
          "velocity": 0.4881889763779528,
          "duration": 0.0833333333333286
        },
        {
          "name": "C#3",
          "midi": 49,
          "time": 116.49999999999896,
          "velocity": 0.5669291338582677,
          "duration": 1
        },
        {
          "name": "F1",
          "midi": 29,
          "time": 116.74999999999896,
          "velocity": 0.4881889763779528,
          "duration": 0.0833333333333286
        },
        {
          "name": "F1",
          "midi": 29,
          "time": 116.87499999999896,
          "velocity": 0.4881889763779528,
          "duration": 0.0833333333333286
        },
        {
          "name": "E1",
          "midi": 28,
          "time": 116.99999999999896,
          "velocity": 0.6299212598425197,
          "duration": 0.125
        },
        {
          "name": "F1",
          "midi": 29,
          "time": 116.99999999999896,
          "velocity": 0.4881889763779528,
          "duration": 0.0833333333333286
        },
        {
          "name": "A3",
          "midi": 57,
          "time": 116.99999999999896,
          "velocity": 0.5669291338582677,
          "duration": 1
        },
        {
          "name": "F1",
          "midi": 29,
          "time": 117.24999999999896,
          "velocity": 0.4881889763779528,
          "duration": 0.0833333333333286
        },
        {
          "name": "F1",
          "midi": 29,
          "time": 117.37499999999896,
          "velocity": 0.4881889763779528,
          "duration": 0.0833333333333286
        },
        {
          "name": "E1",
          "midi": 28,
          "time": 117.49999999999896,
          "velocity": 0.6299212598425197,
          "duration": 0.125
        },
        {
          "name": "F1",
          "midi": 29,
          "time": 117.49999999999896,
          "velocity": 0.4881889763779528,
          "duration": 0.0833333333333286
        },
        {
          "name": "C#3",
          "midi": 49,
          "time": 117.49999999999896,
          "velocity": 0.5669291338582677,
          "duration": 0.5
        },
        {
          "name": "F1",
          "midi": 29,
          "time": 117.62499999999896,
          "velocity": 0.4881889763779528,
          "duration": 0.0833333333333286
        },
        {
          "name": "F1",
          "midi": 29,
          "time": 117.74999999999896,
          "velocity": 0.4881889763779528,
          "duration": 0.0833333333333286
        },
        {
          "name": "F1",
          "midi": 29,
          "time": 117.87499999999896,
          "velocity": 0.4881889763779528,
          "duration": 0.0833333333333286
        },
        {
          "name": "E1",
          "midi": 28,
          "time": 117.99999999999896,
          "velocity": 0.6299212598425197,
          "duration": 0.125
        },
        {
          "name": "F1",
          "midi": 29,
          "time": 117.99999999999896,
          "velocity": 0.4881889763779528,
          "duration": 0.0833333333333286
        },
        {
          "name": "A3",
          "midi": 57,
          "time": 117.99999999999896,
          "velocity": 0.5669291338582677,
          "duration": 1
        },
        {
          "name": "F1",
          "midi": 29,
          "time": 118.24999999999896,
          "velocity": 0.4881889763779528,
          "duration": 0.0833333333333286
        },
        {
          "name": "F1",
          "midi": 29,
          "time": 118.37499999999896,
          "velocity": 0.4881889763779528,
          "duration": 0.0833333333333286
        },
        {
          "name": "E1",
          "midi": 28,
          "time": 118.49999999999896,
          "velocity": 0.6299212598425197,
          "duration": 0.125
        },
        {
          "name": "F1",
          "midi": 29,
          "time": 118.49999999999896,
          "velocity": 0.4881889763779528,
          "duration": 0.0833333333333286
        },
        {
          "name": "C#3",
          "midi": 49,
          "time": 118.49999999999896,
          "velocity": 0.5669291338582677,
          "duration": 1
        },
        {
          "name": "F1",
          "midi": 29,
          "time": 118.68749999999896,
          "velocity": 0.2125984251968504,
          "duration": 0.0625
        },
        {
          "name": "F1",
          "midi": 29,
          "time": 118.74999999999896,
          "velocity": 0.2992125984251969,
          "duration": 0.0625
        },
        {
          "name": "F1",
          "midi": 29,
          "time": 118.81249999999896,
          "velocity": 0.4015748031496063,
          "duration": 0.0625
        },
        {
          "name": "F1",
          "midi": 29,
          "time": 118.87499999999896,
          "velocity": 0.4881889763779528,
          "duration": 0.0625
        },
        {
          "name": "F1",
          "midi": 29,
          "time": 118.93749999999896,
          "velocity": 0.5511811023622047,
          "duration": 0.0625
        },
        {
          "name": "E1",
          "midi": 28,
          "time": 118.99999999999896,
          "velocity": 0.6299212598425197,
          "duration": 0.125
        },
        {
          "name": "F1",
          "midi": 29,
          "time": 118.99999999999896,
          "velocity": 0.5748031496062992,
          "duration": 0.0833333333333286
        },
        {
          "name": "A3",
          "midi": 57,
          "time": 118.99999999999896,
          "velocity": 0.5669291338582677,
          "duration": 0.9895833333333286
        },
        {
          "name": "F1",
          "midi": 29,
          "time": 119.24999999999896,
          "velocity": 0.6141732283464567,
          "duration": 0.0833333333333286
        },
        {
          "name": "F1",
          "midi": 29,
          "time": 119.37499999999896,
          "velocity": 0.6377952755905512,
          "duration": 0.0833333333333286
        },
        {
          "name": "E1",
          "midi": 28,
          "time": 119.49999999999896,
          "velocity": 0.6299212598425197,
          "duration": 0.125
        },
        {
          "name": "F1",
          "midi": 29,
          "time": 119.49999999999896,
          "velocity": 0.6771653543307087,
          "duration": 0.0833333333333286
        },
        {
          "name": "C#3",
          "midi": 49,
          "time": 119.49999999999896,
          "velocity": 0.5669291338582677,
          "duration": 0.4895833333333286
        }
      ],
      "controlChanges": {
        "7": [
          {
            "number": 7,
            "time": 0.75,
            "value": 0.7559055118110236
          }
        ],
        "10": [
          {
            "number": 10,
            "time": 0.75,
            "value": 0.5039370078740157
          }
        ],
        "93": [
          {
            "number": 93,
            "time": 2,
            "value": 0.4094488188976378
          }
        ]
      },
      "id": 2,
      "name": "in \"Little Bavaria\"",
      "instrumentNumber": 0,
      "instrument": "standard kit",
      "instrumentFamily": "drums",
      "channelNumber": 9,
      "isPercussion": true
    },
    {
      "startTime": 2.25,
      "duration": 119.58333333333333,
      "length": 322,
      "notes": [
        {
          "name": "F#1",
          "midi": 30,
          "time": 2.25,
          "velocity": 0.7874015748031497,
          "duration": 0.08333333333333348
        },
        {
          "name": "F#1",
          "midi": 30,
          "time": 2.75,
          "velocity": 0.7874015748031497,
          "duration": 0.08333333333333348
        },
        {
          "name": "F#1",
          "midi": 30,
          "time": 3.25,
          "velocity": 0.7874015748031497,
          "duration": 0.08333333333333348
        },
        {
          "name": "F#1",
          "midi": 30,
          "time": 3.75,
          "velocity": 0.7874015748031497,
          "duration": 0.08333333333333348
        },
        {
          "name": "F#1",
          "midi": 30,
          "time": 4.25,
          "velocity": 0.7874015748031497,
          "duration": 0.08333333333333304
        },
        {
          "name": "F#1",
          "midi": 30,
          "time": 4.75,
          "velocity": 0.7874015748031497,
          "duration": 0.08333333333333304
        },
        {
          "name": "F#1",
          "midi": 30,
          "time": 5.25,
          "velocity": 0.7874015748031497,
          "duration": 0.08333333333333304
        },
        {
          "name": "F#1",
          "midi": 30,
          "time": 5.75,
          "velocity": 0.7874015748031497,
          "duration": 0.08333333333333304
        },
        {
          "name": "F#1",
          "midi": 30,
          "time": 6.25,
          "velocity": 0.7874015748031497,
          "duration": 0.08333333333333304
        },
        {
          "name": "F#1",
          "midi": 30,
          "time": 6.75,
          "velocity": 0.7874015748031497,
          "duration": 0.08333333333333304
        },
        {
          "name": "F#1",
          "midi": 30,
          "time": 7.25,
          "velocity": 0.7874015748031497,
          "duration": 0.08333333333333304
        },
        {
          "name": "F#1",
          "midi": 30,
          "time": 7.75,
          "velocity": 0.7874015748031497,
          "duration": 0.08333333333333304
        },
        {
          "name": "F#1",
          "midi": 30,
          "time": 8.25,
          "velocity": 0.7874015748031497,
          "duration": 0.08333333333333393
        },
        {
          "name": "F#1",
          "midi": 30,
          "time": 8.75,
          "velocity": 0.7874015748031497,
          "duration": 0.08333333333333393
        },
        {
          "name": "F#1",
          "midi": 30,
          "time": 9.25,
          "velocity": 0.7874015748031497,
          "duration": 0.08333333333333393
        },
        {
          "name": "F#1",
          "midi": 30,
          "time": 9.75,
          "velocity": 0.7874015748031497,
          "duration": 0.08333333333333393
        },
        {
          "name": "F#1",
          "midi": 30,
          "time": 10.25,
          "velocity": 0.7874015748031497,
          "duration": 0.08333333333333393
        },
        {
          "name": "F#1",
          "midi": 30,
          "time": 10.75,
          "velocity": 0.7874015748031497,
          "duration": 0.08333333333333393
        },
        {
          "name": "F#1",
          "midi": 30,
          "time": 11.25,
          "velocity": 0.7874015748031497,
          "duration": 0.08333333333333393
        },
        {
          "name": "F#1",
          "midi": 30,
          "time": 11.75,
          "velocity": 0.7874015748031497,
          "duration": 0.08333333333333393
        },
        {
          "name": "F#1",
          "midi": 30,
          "time": 12.25,
          "velocity": 0.7874015748031497,
          "duration": 0.08333333333333393
        },
        {
          "name": "F#1",
          "midi": 30,
          "time": 12.75,
          "velocity": 0.7874015748031497,
          "duration": 0.08333333333333393
        },
        {
          "name": "F#1",
          "midi": 30,
          "time": 13.25,
          "velocity": 0.7874015748031497,
          "duration": 0.08333333333333393
        },
        {
          "name": "F#1",
          "midi": 30,
          "time": 13.75,
          "velocity": 0.7874015748031497,
          "duration": 0.08333333333333393
        },
        {
          "name": "F#1",
          "midi": 30,
          "time": 14.25,
          "velocity": 0.7874015748031497,
          "duration": 0.08333333333333393
        },
        {
          "name": "F#1",
          "midi": 30,
          "time": 14.75,
          "velocity": 0.7874015748031497,
          "duration": 0.08333333333333393
        },
        {
          "name": "F#1",
          "midi": 30,
          "time": 15.25,
          "velocity": 0.7874015748031497,
          "duration": 0.08333333333333393
        },
        {
          "name": "F#1",
          "midi": 30,
          "time": 15.75,
          "velocity": 0.7874015748031497,
          "duration": 0.08333333333333393
        },
        {
          "name": "F#1",
          "midi": 30,
          "time": 16.25,
          "velocity": 0.7874015748031497,
          "duration": 0.08333333333333215
        },
        {
          "name": "F#1",
          "midi": 30,
          "time": 16.75,
          "velocity": 0.7874015748031497,
          "duration": 0.08333333333333215
        },
        {
          "name": "F#1",
          "midi": 30,
          "time": 17.25,
          "velocity": 0.7874015748031497,
          "duration": 0.08333333333333215
        },
        {
          "name": "F#1",
          "midi": 30,
          "time": 17.375,
          "velocity": 0.7874015748031497,
          "duration": 0.08333333333333215
        },
        {
          "name": "F#1",
          "midi": 30,
          "time": 17.5,
          "velocity": 0.7874015748031497,
          "duration": 0.08333333333333215
        },
        {
          "name": "F#1",
          "midi": 30,
          "time": 17.75,
          "velocity": 0.7874015748031497,
          "duration": 0.08333333333333215
        },
        {
          "name": "F#1",
          "midi": 30,
          "time": 18.25,
          "velocity": 0.7874015748031497,
          "duration": 0.08333333333333215
        },
        {
          "name": "F#1",
          "midi": 30,
          "time": 18.75,
          "velocity": 0.7874015748031497,
          "duration": 0.08333333333333215
        },
        {
          "name": "F#1",
          "midi": 30,
          "time": 19.25,
          "velocity": 0.7874015748031497,
          "duration": 0.08333333333333215
        },
        {
          "name": "F#1",
          "midi": 30,
          "time": 19.75,
          "velocity": 0.7874015748031497,
          "duration": 0.08333333333333215
        },
        {
          "name": "F#1",
          "midi": 30,
          "time": 20.25,
          "velocity": 0.7874015748031497,
          "duration": 0.08333333333333215
        },
        {
          "name": "F#1",
          "midi": 30,
          "time": 20.75,
          "velocity": 0.7874015748031497,
          "duration": 0.08333333333333215
        },
        {
          "name": "F#1",
          "midi": 30,
          "time": 21.25,
          "velocity": 0.7874015748031497,
          "duration": 0.08333333333333215
        },
        {
          "name": "F#1",
          "midi": 30,
          "time": 21.75,
          "velocity": 0.7874015748031497,
          "duration": 0.08333333333333215
        },
        {
          "name": "F#1",
          "midi": 30,
          "time": 22.25,
          "velocity": 0.7874015748031497,
          "duration": 0.08333333333333215
        },
        {
          "name": "F#1",
          "midi": 30,
          "time": 22.75,
          "velocity": 0.7874015748031497,
          "duration": 0.08333333333333215
        },
        {
          "name": "F#1",
          "midi": 30,
          "time": 23.25,
          "velocity": 0.7874015748031497,
          "duration": 0.08333333333333215
        },
        {
          "name": "F#1",
          "midi": 30,
          "time": 23.75,
          "velocity": 0.7874015748031497,
          "duration": 0.08333333333333215
        },
        {
          "name": "F#1",
          "midi": 30,
          "time": 24.25,
          "velocity": 0.7874015748031497,
          "duration": 0.08333333333333215
        },
        {
          "name": "F#1",
          "midi": 30,
          "time": 24.75,
          "velocity": 0.7874015748031497,
          "duration": 0.08333333333333215
        },
        {
          "name": "F#1",
          "midi": 30,
          "time": 25.25,
          "velocity": 0.7874015748031497,
          "duration": 0.08333333333333215
        },
        {
          "name": "F#1",
          "midi": 30,
          "time": 25.75,
          "velocity": 0.7874015748031497,
          "duration": 0.08333333333333215
        },
        {
          "name": "F#1",
          "midi": 30,
          "time": 26.25,
          "velocity": 0.7874015748031497,
          "duration": 0.08333333333333215
        },
        {
          "name": "F#1",
          "midi": 30,
          "time": 26.75,
          "velocity": 0.7874015748031497,
          "duration": 0.08333333333333215
        },
        {
          "name": "F#1",
          "midi": 30,
          "time": 27.25,
          "velocity": 0.7874015748031497,
          "duration": 0.08333333333333215
        },
        {
          "name": "F#1",
          "midi": 30,
          "time": 27.75,
          "velocity": 0.7874015748031497,
          "duration": 0.08333333333333215
        },
        {
          "name": "C4",
          "midi": 60,
          "time": 28.25,
          "velocity": 0.7874015748031497,
          "duration": 0.08333333333333215
        },
        {
          "name": "F#1",
          "midi": 30,
          "time": 28.25,
          "velocity": 0.7874015748031497,
          "duration": 0.08333333333333215
        },
        {
          "name": "C4",
          "midi": 60,
          "time": 28.75,
          "velocity": 0.7874015748031497,
          "duration": 0.08333333333333215
        },
        {
          "name": "F#1",
          "midi": 30,
          "time": 28.75,
          "velocity": 0.7874015748031497,
          "duration": 0.08333333333333215
        },
        {
          "name": "C4",
          "midi": 60,
          "time": 29.25,
          "velocity": 0.7874015748031497,
          "duration": 0.08333333333333215
        },
        {
          "name": "F#1",
          "midi": 30,
          "time": 29.25,
          "velocity": 0.7874015748031497,
          "duration": 0.08333333333333215
        },
        {
          "name": "C4",
          "midi": 60,
          "time": 29.5,
          "velocity": 0.7874015748031497,
          "duration": 0.08333333333333215
        },
        {
          "name": "C4",
          "midi": 60,
          "time": 29.75,
          "velocity": 0.7874015748031497,
          "duration": 0.08333333333333215
        },
        {
          "name": "F#1",
          "midi": 30,
          "time": 29.75,
          "velocity": 0.7874015748031497,
          "duration": 0.08333333333333215
        },
        {
          "name": "C4",
          "midi": 60,
          "time": 30.25,
          "velocity": 0.7874015748031497,
          "duration": 0.08333333333333215
        },
        {
          "name": "F#1",
          "midi": 30,
          "time": 30.25,
          "velocity": 0.7874015748031497,
          "duration": 0.08333333333333215
        },
        {
          "name": "C4",
          "midi": 60,
          "time": 30.75,
          "velocity": 0.7874015748031497,
          "duration": 0.08333333333333215
        },
        {
          "name": "F#1",
          "midi": 30,
          "time": 30.75,
          "velocity": 0.7874015748031497,
          "duration": 0.08333333333333215
        },
        {
          "name": "C4",
          "midi": 60,
          "time": 31.25,
          "velocity": 0.7874015748031497,
          "duration": 0.08333333333333215
        },
        {
          "name": "F#1",
          "midi": 30,
          "time": 31.25,
          "velocity": 0.7874015748031497,
          "duration": 0.08333333333333215
        },
        {
          "name": "C4",
          "midi": 60,
          "time": 31.75,
          "velocity": 0.7874015748031497,
          "duration": 0.08333333333333215
        },
        {
          "name": "F#1",
          "midi": 30,
          "time": 31.75,
          "velocity": 0.7874015748031497,
          "duration": 0.08333333333333215
        },
        {
          "name": "F#1",
          "midi": 30,
          "time": 32.25,
          "velocity": 0.7874015748031497,
          "duration": 0.0833333333333357
        },
        {
          "name": "F#1",
          "midi": 30,
          "time": 32.75,
          "velocity": 0.7874015748031497,
          "duration": 0.0833333333333357
        },
        {
          "name": "F#1",
          "midi": 30,
          "time": 33.25,
          "velocity": 0.7874015748031497,
          "duration": 0.0833333333333357
        },
        {
          "name": "F#1",
          "midi": 30,
          "time": 33.75,
          "velocity": 0.7874015748031497,
          "duration": 0.0833333333333357
        },
        {
          "name": "F#1",
          "midi": 30,
          "time": 34.25,
          "velocity": 0.7874015748031497,
          "duration": 0.0833333333333357
        },
        {
          "name": "F#1",
          "midi": 30,
          "time": 34.75,
          "velocity": 0.7874015748031497,
          "duration": 0.0833333333333357
        },
        {
          "name": "F#1",
          "midi": 30,
          "time": 35.25,
          "velocity": 0.7874015748031497,
          "duration": 0.0833333333333357
        },
        {
          "name": "F#1",
          "midi": 30,
          "time": 35.75,
          "velocity": 0.7874015748031497,
          "duration": 0.0833333333333357
        },
        {
          "name": "F#1",
          "midi": 30,
          "time": 36.25,
          "velocity": 0.7874015748031497,
          "duration": 0.0833333333333357
        },
        {
          "name": "F#1",
          "midi": 30,
          "time": 36.75,
          "velocity": 0.7874015748031497,
          "duration": 0.0833333333333357
        },
        {
          "name": "F#1",
          "midi": 30,
          "time": 37.25,
          "velocity": 0.7874015748031497,
          "duration": 0.0833333333333357
        },
        {
          "name": "F#1",
          "midi": 30,
          "time": 37.75,
          "velocity": 0.7874015748031497,
          "duration": 0.0833333333333357
        },
        {
          "name": "F#1",
          "midi": 30,
          "time": 38.25,
          "velocity": 0.7874015748031497,
          "duration": 0.0833333333333357
        },
        {
          "name": "F#1",
          "midi": 30,
          "time": 38.75,
          "velocity": 0.7874015748031497,
          "duration": 0.0833333333333357
        },
        {
          "name": "C4",
          "midi": 60,
          "time": 39.25,
          "velocity": 0.7874015748031497,
          "duration": 0.0833333333333357
        },
        {
          "name": "F#1",
          "midi": 30,
          "time": 39.25,
          "velocity": 0.7874015748031497,
          "duration": 0.0833333333333357
        },
        {
          "name": "C4",
          "midi": 60,
          "time": 39.75,
          "velocity": 0.7874015748031497,
          "duration": 0.0833333333333357
        },
        {
          "name": "F#1",
          "midi": 30,
          "time": 39.75,
          "velocity": 0.7874015748031497,
          "duration": 0.0833333333333357
        },
        {
          "name": "F#1",
          "midi": 30,
          "time": 40.25,
          "velocity": 0.7874015748031497,
          "duration": 0.0833333333333357
        },
        {
          "name": "F#1",
          "midi": 30,
          "time": 40.75,
          "velocity": 0.7874015748031497,
          "duration": 0.0833333333333357
        },
        {
          "name": "F#1",
          "midi": 30,
          "time": 41.25,
          "velocity": 0.7874015748031497,
          "duration": 0.0833333333333357
        },
        {
          "name": "F#1",
          "midi": 30,
          "time": 41.75,
          "velocity": 0.7874015748031497,
          "duration": 0.0833333333333357
        },
        {
          "name": "F#1",
          "midi": 30,
          "time": 42.25,
          "velocity": 0.7874015748031497,
          "duration": 0.0833333333333357
        },
        {
          "name": "F#1",
          "midi": 30,
          "time": 42.75,
          "velocity": 0.7874015748031497,
          "duration": 0.0833333333333357
        },
        {
          "name": "F#1",
          "midi": 30,
          "time": 43.25,
          "velocity": 0.7874015748031497,
          "duration": 0.0833333333333357
        },
        {
          "name": "F#1",
          "midi": 30,
          "time": 43.75,
          "velocity": 0.7874015748031497,
          "duration": 0.0833333333333357
        },
        {
          "name": "C4",
          "midi": 60,
          "time": 44.25,
          "velocity": 0.7874015748031497,
          "duration": 0.0833333333333357
        },
        {
          "name": "F#1",
          "midi": 30,
          "time": 44.25,
          "velocity": 0.7874015748031497,
          "duration": 0.0833333333333357
        },
        {
          "name": "C4",
          "midi": 60,
          "time": 44.75,
          "velocity": 0.7874015748031497,
          "duration": 0.0833333333333357
        },
        {
          "name": "F#1",
          "midi": 30,
          "time": 44.75,
          "velocity": 0.7874015748031497,
          "duration": 0.0833333333333357
        },
        {
          "name": "C4",
          "midi": 60,
          "time": 45.25,
          "velocity": 0.7874015748031497,
          "duration": 0.0833333333333357
        },
        {
          "name": "F#1",
          "midi": 30,
          "time": 45.25,
          "velocity": 0.7874015748031497,
          "duration": 0.0833333333333357
        },
        {
          "name": "C4",
          "midi": 60,
          "time": 45.75,
          "velocity": 0.7874015748031497,
          "duration": 0.0833333333333357
        },
        {
          "name": "F#1",
          "midi": 30,
          "time": 45.75,
          "velocity": 0.7874015748031497,
          "duration": 0.0833333333333357
        },
        {
          "name": "C4",
          "midi": 60,
          "time": 46.25,
          "velocity": 0.7874015748031497,
          "duration": 0.0833333333333357
        },
        {
          "name": "F#1",
          "midi": 30,
          "time": 46.25,
          "velocity": 0.7874015748031497,
          "duration": 0.0833333333333357
        },
        {
          "name": "C4",
          "midi": 60,
          "time": 46.75,
          "velocity": 0.7874015748031497,
          "duration": 0.0833333333333357
        },
        {
          "name": "F#1",
          "midi": 30,
          "time": 46.75,
          "velocity": 0.7874015748031497,
          "duration": 0.0833333333333357
        },
        {
          "name": "C4",
          "midi": 60,
          "time": 47.25,
          "velocity": 0.7874015748031497,
          "duration": 0.0833333333333357
        },
        {
          "name": "F#1",
          "midi": 30,
          "time": 47.25,
          "velocity": 0.7874015748031497,
          "duration": 0.0833333333333357
        },
        {
          "name": "C4",
          "midi": 60,
          "time": 47.75,
          "velocity": 0.7874015748031497,
          "duration": 0.0833333333333357
        },
        {
          "name": "F#1",
          "midi": 30,
          "time": 47.75,
          "velocity": 0.7874015748031497,
          "duration": 0.0833333333333357
        },
        {
          "name": "C4",
          "midi": 60,
          "time": 48.25,
          "velocity": 0.7874015748031497,
          "duration": 0.0833333333333357
        },
        {
          "name": "F#1",
          "midi": 30,
          "time": 48.25,
          "velocity": 0.7874015748031497,
          "duration": 0.0833333333333357
        },
        {
          "name": "C4",
          "midi": 60,
          "time": 48.75,
          "velocity": 0.7874015748031497,
          "duration": 0.0833333333333357
        },
        {
          "name": "F#1",
          "midi": 30,
          "time": 48.75,
          "velocity": 0.7874015748031497,
          "duration": 0.0833333333333357
        },
        {
          "name": "C4",
          "midi": 60,
          "time": 49.25,
          "velocity": 0.7874015748031497,
          "duration": 0.0833333333333357
        },
        {
          "name": "F#1",
          "midi": 30,
          "time": 49.25,
          "velocity": 0.7874015748031497,
          "duration": 0.0833333333333357
        },
        {
          "name": "C4",
          "midi": 60,
          "time": 49.75,
          "velocity": 0.7874015748031497,
          "duration": 0.0833333333333357
        },
        {
          "name": "F#1",
          "midi": 30,
          "time": 49.75,
          "velocity": 0.7874015748031497,
          "duration": 0.0833333333333357
        },
        {
          "name": "C4",
          "midi": 60,
          "time": 50.25,
          "velocity": 0.7874015748031497,
          "duration": 0.0833333333333357
        },
        {
          "name": "F#1",
          "midi": 30,
          "time": 50.25,
          "velocity": 0.7874015748031497,
          "duration": 0.0833333333333357
        },
        {
          "name": "C4",
          "midi": 60,
          "time": 50.75,
          "velocity": 0.7874015748031497,
          "duration": 0.0833333333333357
        },
        {
          "name": "F#1",
          "midi": 30,
          "time": 50.75,
          "velocity": 0.7874015748031497,
          "duration": 0.0833333333333357
        },
        {
          "name": "C4",
          "midi": 60,
          "time": 51.25,
          "velocity": 0.7874015748031497,
          "duration": 0.0833333333333357
        },
        {
          "name": "F#1",
          "midi": 30,
          "time": 51.25,
          "velocity": 0.7874015748031497,
          "duration": 0.0833333333333357
        },
        {
          "name": "C4",
          "midi": 60,
          "time": 51.75,
          "velocity": 0.7874015748031497,
          "duration": 0.0833333333333357
        },
        {
          "name": "F#1",
          "midi": 30,
          "time": 51.75,
          "velocity": 0.7874015748031497,
          "duration": 0.0833333333333357
        },
        {
          "name": "C4",
          "midi": 60,
          "time": 52.25,
          "velocity": 0.7874015748031497,
          "duration": 0.0833333333333357
        },
        {
          "name": "F#1",
          "midi": 30,
          "time": 52.25,
          "velocity": 0.7874015748031497,
          "duration": 0.0833333333333357
        },
        {
          "name": "C4",
          "midi": 60,
          "time": 52.75,
          "velocity": 0.7874015748031497,
          "duration": 0.0833333333333357
        },
        {
          "name": "F#1",
          "midi": 30,
          "time": 52.75,
          "velocity": 0.7874015748031497,
          "duration": 0.0833333333333357
        },
        {
          "name": "C4",
          "midi": 60,
          "time": 53.25,
          "velocity": 0.7874015748031497,
          "duration": 0.0833333333333357
        },
        {
          "name": "F#1",
          "midi": 30,
          "time": 53.25,
          "velocity": 0.7874015748031497,
          "duration": 0.0833333333333357
        },
        {
          "name": "C4",
          "midi": 60,
          "time": 53.75,
          "velocity": 0.7874015748031497,
          "duration": 0.0833333333333357
        },
        {
          "name": "F#1",
          "midi": 30,
          "time": 53.75,
          "velocity": 0.7874015748031497,
          "duration": 0.0833333333333357
        },
        {
          "name": "C4",
          "midi": 60,
          "time": 54.25,
          "velocity": 0.7874015748031497,
          "duration": 0.0833333333333357
        },
        {
          "name": "F#1",
          "midi": 30,
          "time": 54.25,
          "velocity": 0.7874015748031497,
          "duration": 0.0833333333333357
        },
        {
          "name": "C4",
          "midi": 60,
          "time": 54.75,
          "velocity": 0.7874015748031497,
          "duration": 0.0833333333333357
        },
        {
          "name": "F#1",
          "midi": 30,
          "time": 54.75,
          "velocity": 0.7874015748031497,
          "duration": 0.0833333333333357
        },
        {
          "name": "C4",
          "midi": 60,
          "time": 55.25,
          "velocity": 0.7874015748031497,
          "duration": 0.0833333333333357
        },
        {
          "name": "F#1",
          "midi": 30,
          "time": 55.25,
          "velocity": 0.7874015748031497,
          "duration": 0.0833333333333357
        },
        {
          "name": "C4",
          "midi": 60,
          "time": 55.375,
          "velocity": 0.7874015748031497,
          "duration": 0.0833333333333357
        },
        {
          "name": "C4",
          "midi": 60,
          "time": 55.5,
          "velocity": 0.7874015748031497,
          "duration": 0.0833333333333357
        },
        {
          "name": "C4",
          "midi": 60,
          "time": 55.75,
          "velocity": 0.7874015748031497,
          "duration": 0.0833333333333357
        },
        {
          "name": "F#1",
          "midi": 30,
          "time": 55.75,
          "velocity": 0.7874015748031497,
          "duration": 0.0833333333333357
        },
        {
          "name": "F#1",
          "midi": 30,
          "time": 55.875,
          "velocity": 0.7874015748031497,
          "duration": 0.0833333333333357
        },
        {
          "name": "C4",
          "midi": 60,
          "time": 56.25,
          "velocity": 0.7874015748031497,
          "duration": 0.0833333333333357
        },
        {
          "name": "F#1",
          "midi": 30,
          "time": 56.25,
          "velocity": 0.7874015748031497,
          "duration": 0.0833333333333357
        },
        {
          "name": "C4",
          "midi": 60,
          "time": 56.75,
          "velocity": 0.7874015748031497,
          "duration": 0.0833333333333357
        },
        {
          "name": "F#1",
          "midi": 30,
          "time": 56.75,
          "velocity": 0.7874015748031497,
          "duration": 0.0833333333333357
        },
        {
          "name": "C4",
          "midi": 60,
          "time": 57.25,
          "velocity": 0.7874015748031497,
          "duration": 0.0833333333333357
        },
        {
          "name": "F#1",
          "midi": 30,
          "time": 57.25,
          "velocity": 0.7874015748031497,
          "duration": 0.0833333333333357
        },
        {
          "name": "C4",
          "midi": 60,
          "time": 57.75,
          "velocity": 0.7874015748031497,
          "duration": 0.0833333333333357
        },
        {
          "name": "F#1",
          "midi": 30,
          "time": 57.75,
          "velocity": 0.7874015748031497,
          "duration": 0.0833333333333357
        },
        {
          "name": "C4",
          "midi": 60,
          "time": 58.25,
          "velocity": 0.7874015748031497,
          "duration": 0.0833333333333357
        },
        {
          "name": "F#1",
          "midi": 30,
          "time": 58.25,
          "velocity": 0.7874015748031497,
          "duration": 0.0833333333333357
        },
        {
          "name": "C4",
          "midi": 60,
          "time": 58.75,
          "velocity": 0.7874015748031497,
          "duration": 0.0833333333333357
        },
        {
          "name": "F#1",
          "midi": 30,
          "time": 58.75,
          "velocity": 0.7874015748031497,
          "duration": 0.0833333333333357
        },
        {
          "name": "C4",
          "midi": 60,
          "time": 59.25,
          "velocity": 0.7874015748031497,
          "duration": 0.0833333333333357
        },
        {
          "name": "F#1",
          "midi": 30,
          "time": 59.25,
          "velocity": 0.7874015748031497,
          "duration": 0.0833333333333357
        },
        {
          "name": "C4",
          "midi": 60,
          "time": 59.5,
          "velocity": 0.7874015748031497,
          "duration": 0.0833333333333357
        },
        {
          "name": "C4",
          "midi": 60,
          "time": 59.75,
          "velocity": 0.7874015748031497,
          "duration": 0.0833333333333357
        },
        {
          "name": "F#1",
          "midi": 30,
          "time": 59.75,
          "velocity": 0.7874015748031497,
          "duration": 0.0833333333333357
        },
        {
          "name": "C4",
          "midi": 60,
          "time": 60.25,
          "velocity": 0.7874015748031497,
          "duration": 0.0833333333333357
        },
        {
          "name": "F#1",
          "midi": 30,
          "time": 60.25,
          "velocity": 0.7874015748031497,
          "duration": 0.0833333333333357
        },
        {
          "name": "C4",
          "midi": 60,
          "time": 60.75,
          "velocity": 0.7874015748031497,
          "duration": 0.0833333333333357
        },
        {
          "name": "F#1",
          "midi": 30,
          "time": 60.75,
          "velocity": 0.7874015748031497,
          "duration": 0.0833333333333357
        },
        {
          "name": "C4",
          "midi": 60,
          "time": 61.25,
          "velocity": 0.7874015748031497,
          "duration": 0.0833333333333357
        },
        {
          "name": "F#1",
          "midi": 30,
          "time": 61.25,
          "velocity": 0.7874015748031497,
          "duration": 0.0833333333333357
        },
        {
          "name": "C4",
          "midi": 60,
          "time": 61.75,
          "velocity": 0.7874015748031497,
          "duration": 0.0833333333333357
        },
        {
          "name": "F#1",
          "midi": 30,
          "time": 61.75,
          "velocity": 0.7874015748031497,
          "duration": 0.0833333333333357
        },
        {
          "name": "C4",
          "midi": 60,
          "time": 62.25,
          "velocity": 0.7874015748031497,
          "duration": 0.0833333333333357
        },
        {
          "name": "F#1",
          "midi": 30,
          "time": 62.25,
          "velocity": 0.7874015748031497,
          "duration": 0.0833333333333357
        },
        {
          "name": "C4",
          "midi": 60,
          "time": 62.75,
          "velocity": 0.7874015748031497,
          "duration": 0.0833333333333357
        },
        {
          "name": "F#1",
          "midi": 30,
          "time": 62.75,
          "velocity": 0.7874015748031497,
          "duration": 0.0833333333333357
        },
        {
          "name": "C4",
          "midi": 60,
          "time": 63.25,
          "velocity": 0.7874015748031497,
          "duration": 0.0833333333333357
        },
        {
          "name": "F#1",
          "midi": 30,
          "time": 63.25,
          "velocity": 0.7874015748031497,
          "duration": 0.0833333333333357
        },
        {
          "name": "C4",
          "midi": 60,
          "time": 63.75,
          "velocity": 0.7874015748031497,
          "duration": 0.0833333333333357
        },
        {
          "name": "F#1",
          "midi": 30,
          "time": 63.75,
          "velocity": 0.7874015748031497,
          "duration": 0.0833333333333357
        },
        {
          "name": "F#1",
          "midi": 30,
          "time": 64.25,
          "velocity": 0.7874015748031497,
          "duration": 0.0833333333333286
        },
        {
          "name": "F#1",
          "midi": 30,
          "time": 64.75,
          "velocity": 0.7874015748031497,
          "duration": 0.0833333333333286
        },
        {
          "name": "F#1",
          "midi": 30,
          "time": 65.25,
          "velocity": 0.7874015748031497,
          "duration": 0.0833333333333286
        },
        {
          "name": "F#1",
          "midi": 30,
          "time": 65.75,
          "velocity": 0.7874015748031497,
          "duration": 0.0833333333333286
        },
        {
          "name": "F#1",
          "midi": 30,
          "time": 66.25,
          "velocity": 0.7874015748031497,
          "duration": 0.0833333333333286
        },
        {
          "name": "F#1",
          "midi": 30,
          "time": 66.75,
          "velocity": 0.7874015748031497,
          "duration": 0.0833333333333286
        },
        {
          "name": "F#1",
          "midi": 30,
          "time": 67.25,
          "velocity": 0.7874015748031497,
          "duration": 0.0833333333333286
        },
        {
          "name": "F#1",
          "midi": 30,
          "time": 67.75,
          "velocity": 0.7874015748031497,
          "duration": 0.0833333333333286
        },
        {
          "name": "F#1",
          "midi": 30,
          "time": 68.25,
          "velocity": 0.7874015748031497,
          "duration": 0.0833333333333286
        },
        {
          "name": "F#1",
          "midi": 30,
          "time": 68.75,
          "velocity": 0.7874015748031497,
          "duration": 0.0833333333333286
        },
        {
          "name": "F#1",
          "midi": 30,
          "time": 69.25,
          "velocity": 0.7874015748031497,
          "duration": 0.0833333333333286
        },
        {
          "name": "F#1",
          "midi": 30,
          "time": 69.75,
          "velocity": 0.7874015748031497,
          "duration": 0.0833333333333286
        },
        {
          "name": "F#1",
          "midi": 30,
          "time": 70.25,
          "velocity": 0.7874015748031497,
          "duration": 0.0833333333333286
        },
        {
          "name": "F#1",
          "midi": 30,
          "time": 70.75,
          "velocity": 0.7874015748031497,
          "duration": 0.0833333333333286
        },
        {
          "name": "F#1",
          "midi": 30,
          "time": 71.25,
          "velocity": 0.7874015748031497,
          "duration": 0.0833333333333286
        },
        {
          "name": "F#1",
          "midi": 30,
          "time": 71.75,
          "velocity": 0.7874015748031497,
          "duration": 0.0833333333333286
        },
        {
          "name": "F#1",
          "midi": 30,
          "time": 72.25,
          "velocity": 0.7874015748031497,
          "duration": 0.0833333333333286
        },
        {
          "name": "F#1",
          "midi": 30,
          "time": 72.75,
          "velocity": 0.7874015748031497,
          "duration": 0.0833333333333286
        },
        {
          "name": "F#1",
          "midi": 30,
          "time": 73.25,
          "velocity": 0.7874015748031497,
          "duration": 0.0833333333333286
        },
        {
          "name": "F#1",
          "midi": 30,
          "time": 73.75,
          "velocity": 0.7874015748031497,
          "duration": 0.0833333333333286
        },
        {
          "name": "F#1",
          "midi": 30,
          "time": 74.25,
          "velocity": 0.7874015748031497,
          "duration": 0.0833333333333286
        },
        {
          "name": "F#1",
          "midi": 30,
          "time": 74.75,
          "velocity": 0.7874015748031497,
          "duration": 0.0833333333333286
        },
        {
          "name": "F#1",
          "midi": 30,
          "time": 75.25,
          "velocity": 0.7874015748031497,
          "duration": 0.0833333333333286
        },
        {
          "name": "F#1",
          "midi": 30,
          "time": 75.75,
          "velocity": 0.7874015748031497,
          "duration": 0.0833333333333286
        },
        {
          "name": "C4",
          "midi": 60,
          "time": 76.25,
          "velocity": 0.7874015748031497,
          "duration": 0.0833333333333286
        },
        {
          "name": "F#1",
          "midi": 30,
          "time": 76.25,
          "velocity": 0.7874015748031497,
          "duration": 0.0833333333333286
        },
        {
          "name": "C4",
          "midi": 60,
          "time": 76.75,
          "velocity": 0.7874015748031497,
          "duration": 0.0833333333333286
        },
        {
          "name": "F#1",
          "midi": 30,
          "time": 76.75,
          "velocity": 0.7874015748031497,
          "duration": 0.0833333333333286
        },
        {
          "name": "C4",
          "midi": 60,
          "time": 77.25,
          "velocity": 0.7874015748031497,
          "duration": 0.0833333333333286
        },
        {
          "name": "F#1",
          "midi": 30,
          "time": 77.25,
          "velocity": 0.7874015748031497,
          "duration": 0.0833333333333286
        },
        {
          "name": "C4",
          "midi": 60,
          "time": 77.75,
          "velocity": 0.7874015748031497,
          "duration": 0.0833333333333286
        },
        {
          "name": "F#1",
          "midi": 30,
          "time": 77.75,
          "velocity": 0.7874015748031497,
          "duration": 0.0833333333333286
        },
        {
          "name": "C4",
          "midi": 60,
          "time": 78.25,
          "velocity": 0.7874015748031497,
          "duration": 0.0833333333333286
        },
        {
          "name": "F#1",
          "midi": 30,
          "time": 78.25,
          "velocity": 0.7874015748031497,
          "duration": 0.0833333333333286
        },
        {
          "name": "C4",
          "midi": 60,
          "time": 78.75,
          "velocity": 0.7874015748031497,
          "duration": 0.0833333333333286
        },
        {
          "name": "F#1",
          "midi": 30,
          "time": 78.75,
          "velocity": 0.7874015748031497,
          "duration": 0.0833333333333286
        },
        {
          "name": "C4",
          "midi": 60,
          "time": 79.25,
          "velocity": 0.7874015748031497,
          "duration": 0.0833333333333286
        },
        {
          "name": "F#1",
          "midi": 30,
          "time": 79.25,
          "velocity": 0.7874015748031497,
          "duration": 0.0833333333333286
        },
        {
          "name": "C4",
          "midi": 60,
          "time": 79.75,
          "velocity": 0.7874015748031497,
          "duration": 0.0833333333333286
        },
        {
          "name": "F#1",
          "midi": 30,
          "time": 79.75,
          "velocity": 0.7874015748031497,
          "duration": 0.0833333333333286
        },
        {
          "name": "F#1",
          "midi": 30,
          "time": 80.25,
          "velocity": 0.7874015748031497,
          "duration": 0.0833333333333286
        },
        {
          "name": "F#1",
          "midi": 30,
          "time": 80.75,
          "velocity": 0.7874015748031497,
          "duration": 0.0833333333333286
        },
        {
          "name": "F#1",
          "midi": 30,
          "time": 81.25,
          "velocity": 0.7874015748031497,
          "duration": 0.0833333333333286
        },
        {
          "name": "F#1",
          "midi": 30,
          "time": 81.75,
          "velocity": 0.7874015748031497,
          "duration": 0.0833333333333286
        },
        {
          "name": "F#1",
          "midi": 30,
          "time": 82.25,
          "velocity": 0.7874015748031497,
          "duration": 0.0833333333333286
        },
        {
          "name": "F#1",
          "midi": 30,
          "time": 82.75,
          "velocity": 0.7874015748031497,
          "duration": 0.0833333333333286
        },
        {
          "name": "F#1",
          "midi": 30,
          "time": 83.25,
          "velocity": 0.7874015748031497,
          "duration": 0.0833333333333286
        },
        {
          "name": "F#1",
          "midi": 30,
          "time": 83.75,
          "velocity": 0.7874015748031497,
          "duration": 0.0833333333333286
        },
        {
          "name": "F#1",
          "midi": 30,
          "time": 84.25,
          "velocity": 0.7874015748031497,
          "duration": 0.0833333333333286
        },
        {
          "name": "F#1",
          "midi": 30,
          "time": 84.75,
          "velocity": 0.7874015748031497,
          "duration": 0.0833333333333286
        },
        {
          "name": "F#1",
          "midi": 30,
          "time": 85.25,
          "velocity": 0.7874015748031497,
          "duration": 0.0833333333333286
        },
        {
          "name": "F#1",
          "midi": 30,
          "time": 85.75,
          "velocity": 0.7874015748031497,
          "duration": 0.0833333333333286
        },
        {
          "name": "F#1",
          "midi": 30,
          "time": 86.25,
          "velocity": 0.7874015748031497,
          "duration": 0.0833333333333286
        },
        {
          "name": "F#1",
          "midi": 30,
          "time": 86.75,
          "velocity": 0.7874015748031497,
          "duration": 0.0833333333333286
        },
        {
          "name": "F#1",
          "midi": 30,
          "time": 87.25,
          "velocity": 0.7874015748031497,
          "duration": 0.0833333333333286
        },
        {
          "name": "F#1",
          "midi": 30,
          "time": 87.75,
          "velocity": 0.7874015748031497,
          "duration": 0.0833333333333286
        },
        {
          "name": "F#1",
          "midi": 30,
          "time": 88.25,
          "velocity": 0.7874015748031497,
          "duration": 0.0833333333333286
        },
        {
          "name": "F#1",
          "midi": 30,
          "time": 88.75,
          "velocity": 0.7874015748031497,
          "duration": 0.0833333333333286
        },
        {
          "name": "F#1",
          "midi": 30,
          "time": 89.25,
          "velocity": 0.7874015748031497,
          "duration": 0.0833333333333286
        },
        {
          "name": "F#1",
          "midi": 30,
          "time": 89.75,
          "velocity": 0.7874015748031497,
          "duration": 0.0833333333333286
        },
        {
          "name": "F#1",
          "midi": 30,
          "time": 90.25,
          "velocity": 0.7874015748031497,
          "duration": 0.0833333333333286
        },
        {
          "name": "F#1",
          "midi": 30,
          "time": 90.75,
          "velocity": 0.7874015748031497,
          "duration": 0.0833333333333286
        },
        {
          "name": "F#1",
          "midi": 30,
          "time": 91.25,
          "velocity": 0.7874015748031497,
          "duration": 0.0833333333333286
        },
        {
          "name": "F#1",
          "midi": 30,
          "time": 91.75,
          "velocity": 0.7874015748031497,
          "duration": 0.0833333333333286
        },
        {
          "name": "F#1",
          "midi": 30,
          "time": 92.25,
          "velocity": 0.7874015748031497,
          "duration": 0.0833333333333286
        },
        {
          "name": "F#1",
          "midi": 30,
          "time": 92.75,
          "velocity": 0.7874015748031497,
          "duration": 0.0833333333333286
        },
        {
          "name": "F#1",
          "midi": 30,
          "time": 93.25,
          "velocity": 0.7874015748031497,
          "duration": 0.0833333333333286
        },
        {
          "name": "F#1",
          "midi": 30,
          "time": 93.75,
          "velocity": 0.7874015748031497,
          "duration": 0.0833333333333286
        },
        {
          "name": "F#1",
          "midi": 30,
          "time": 94.25,
          "velocity": 0.7874015748031497,
          "duration": 0.0833333333333286
        },
        {
          "name": "F#1",
          "midi": 30,
          "time": 94.75,
          "velocity": 0.7874015748031497,
          "duration": 0.0833333333333286
        },
        {
          "name": "F#1",
          "midi": 30,
          "time": 95.25,
          "velocity": 0.7874015748031497,
          "duration": 0.0833333333333286
        },
        {
          "name": "F#1",
          "midi": 30,
          "time": 95.375,
          "velocity": 0.7874015748031497,
          "duration": 0.0833333333333286
        },
        {
          "name": "F#1",
          "midi": 30,
          "time": 95.5,
          "velocity": 0.7874015748031497,
          "duration": 0.0833333333333286
        },
        {
          "name": "F#1",
          "midi": 30,
          "time": 95.75,
          "velocity": 0.7874015748031497,
          "duration": 0.0833333333333286
        },
        {
          "name": "F#1",
          "midi": 30,
          "time": 96.25,
          "velocity": 0.7874015748031497,
          "duration": 0.0833333333333286
        },
        {
          "name": "F#1",
          "midi": 30,
          "time": 96.75,
          "velocity": 0.7874015748031497,
          "duration": 0.0833333333333286
        },
        {
          "name": "F#1",
          "midi": 30,
          "time": 97.25,
          "velocity": 0.7874015748031497,
          "duration": 0.0833333333333286
        },
        {
          "name": "F#1",
          "midi": 30,
          "time": 97.75,
          "velocity": 0.7874015748031497,
          "duration": 0.0833333333333286
        },
        {
          "name": "F#1",
          "midi": 30,
          "time": 98.25,
          "velocity": 0.7874015748031497,
          "duration": 0.0833333333333286
        },
        {
          "name": "C4",
          "midi": 60,
          "time": 98.75,
          "velocity": 0.7874015748031497,
          "duration": 0.0833333333333286
        },
        {
          "name": "F#1",
          "midi": 30,
          "time": 98.75,
          "velocity": 0.7874015748031497,
          "duration": 0.0833333333333286
        },
        {
          "name": "C4",
          "midi": 60,
          "time": 99.25,
          "velocity": 0.7874015748031497,
          "duration": 0.0833333333333286
        },
        {
          "name": "F#1",
          "midi": 30,
          "time": 99.25,
          "velocity": 0.7874015748031497,
          "duration": 0.0833333333333286
        },
        {
          "name": "C4",
          "midi": 60,
          "time": 99.75,
          "velocity": 0.7874015748031497,
          "duration": 0.0833333333333286
        },
        {
          "name": "F#1",
          "midi": 30,
          "time": 99.75,
          "velocity": 0.7874015748031497,
          "duration": 0.0833333333333286
        },
        {
          "name": "C4",
          "midi": 60,
          "time": 100.25,
          "velocity": 0.7874015748031497,
          "duration": 0.0833333333333286
        },
        {
          "name": "F#1",
          "midi": 30,
          "time": 100.25,
          "velocity": 0.7874015748031497,
          "duration": 0.0833333333333286
        },
        {
          "name": "C4",
          "midi": 60,
          "time": 100.75,
          "velocity": 0.7874015748031497,
          "duration": 0.0833333333333286
        },
        {
          "name": "F#1",
          "midi": 30,
          "time": 100.75,
          "velocity": 0.7874015748031497,
          "duration": 0.0833333333333286
        },
        {
          "name": "C4",
          "midi": 60,
          "time": 101.25,
          "velocity": 0.7874015748031497,
          "duration": 0.0833333333333286
        },
        {
          "name": "F#1",
          "midi": 30,
          "time": 101.25,
          "velocity": 0.7874015748031497,
          "duration": 0.0833333333333286
        },
        {
          "name": "C4",
          "midi": 60,
          "time": 101.75,
          "velocity": 0.7874015748031497,
          "duration": 0.0833333333333286
        },
        {
          "name": "F#1",
          "midi": 30,
          "time": 101.75,
          "velocity": 0.7874015748031497,
          "duration": 0.0833333333333286
        },
        {
          "name": "C4",
          "midi": 60,
          "time": 102.25,
          "velocity": 0.7874015748031497,
          "duration": 0.0833333333333286
        },
        {
          "name": "F#1",
          "midi": 30,
          "time": 102.25,
          "velocity": 0.7874015748031497,
          "duration": 0.0833333333333286
        },
        {
          "name": "C4",
          "midi": 60,
          "time": 102.75,
          "velocity": 0.7874015748031497,
          "duration": 0.0833333333333286
        },
        {
          "name": "F#1",
          "midi": 30,
          "time": 102.75,
          "velocity": 0.7874015748031497,
          "duration": 0.0833333333333286
        },
        {
          "name": "C4",
          "midi": 60,
          "time": 103.25,
          "velocity": 0.7874015748031497,
          "duration": 0.0833333333333286
        },
        {
          "name": "F#1",
          "midi": 30,
          "time": 103.25,
          "velocity": 0.7874015748031497,
          "duration": 0.0833333333333286
        },
        {
          "name": "C4",
          "midi": 60,
          "time": 103.75,
          "velocity": 0.7874015748031497,
          "duration": 0.0833333333333286
        },
        {
          "name": "F#1",
          "midi": 30,
          "time": 103.75,
          "velocity": 0.7874015748031497,
          "duration": 0.0833333333333286
        },
        {
          "name": "C4",
          "midi": 60,
          "time": 104.25,
          "velocity": 0.7874015748031497,
          "duration": 0.0833333333333286
        },
        {
          "name": "F#1",
          "midi": 30,
          "time": 104.25,
          "velocity": 0.7874015748031497,
          "duration": 0.0833333333333286
        },
        {
          "name": "C4",
          "midi": 60,
          "time": 104.75,
          "velocity": 0.7874015748031497,
          "duration": 0.0833333333333286
        },
        {
          "name": "F#1",
          "midi": 30,
          "time": 104.75,
          "velocity": 0.7874015748031497,
          "duration": 0.0833333333333286
        },
        {
          "name": "C4",
          "midi": 60,
          "time": 105.25,
          "velocity": 0.7874015748031497,
          "duration": 0.0833333333333286
        },
        {
          "name": "F#1",
          "midi": 30,
          "time": 105.25,
          "velocity": 0.7874015748031497,
          "duration": 0.0833333333333286
        },
        {
          "name": "C4",
          "midi": 60,
          "time": 105.75,
          "velocity": 0.7874015748031497,
          "duration": 0.0833333333333286
        },
        {
          "name": "F#1",
          "midi": 30,
          "time": 105.75,
          "velocity": 0.7874015748031497,
          "duration": 0.0833333333333286
        },
        {
          "name": "C4",
          "midi": 60,
          "time": 106.25,
          "velocity": 0.7874015748031497,
          "duration": 0.0833333333333286
        },
        {
          "name": "F#1",
          "midi": 30,
          "time": 106.25,
          "velocity": 0.7874015748031497,
          "duration": 0.0833333333333286
        },
        {
          "name": "C4",
          "midi": 60,
          "time": 106.75,
          "velocity": 0.7874015748031497,
          "duration": 0.0833333333333286
        },
        {
          "name": "F#1",
          "midi": 30,
          "time": 106.75,
          "velocity": 0.7874015748031497,
          "duration": 0.0833333333333286
        },
        {
          "name": "C4",
          "midi": 60,
          "time": 107.25,
          "velocity": 0.7874015748031497,
          "duration": 0.0833333333333286
        },
        {
          "name": "F#1",
          "midi": 30,
          "time": 107.25,
          "velocity": 0.7874015748031497,
          "duration": 0.0833333333333286
        },
        {
          "name": "C4",
          "midi": 60,
          "time": 107.75,
          "velocity": 0.7874015748031497,
          "duration": 0.0833333333333286
        },
        {
          "name": "F#1",
          "midi": 30,
          "time": 107.75,
          "velocity": 0.7874015748031497,
          "duration": 0.0833333333333286
        },
        {
          "name": "F#1",
          "midi": 30,
          "time": 108.25,
          "velocity": 0.7874015748031497,
          "duration": 0.0833333333333286
        },
        {
          "name": "F#1",
          "midi": 30,
          "time": 108.75,
          "velocity": 0.7874015748031497,
          "duration": 0.0833333333333286
        },
        {
          "name": "F#1",
          "midi": 30,
          "time": 109.25,
          "velocity": 0.7874015748031497,
          "duration": 0.0833333333333286
        },
        {
          "name": "F#1",
          "midi": 30,
          "time": 109.75,
          "velocity": 0.7874015748031497,
          "duration": 0.0833333333333286
        },
        {
          "name": "F#1",
          "midi": 30,
          "time": 110.25,
          "velocity": 0.7874015748031497,
          "duration": 0.0833333333333286
        },
        {
          "name": "F#1",
          "midi": 30,
          "time": 110.75,
          "velocity": 0.7874015748031497,
          "duration": 0.0833333333333286
        },
        {
          "name": "F#1",
          "midi": 30,
          "time": 111.25,
          "velocity": 0.7874015748031497,
          "duration": 0.0833333333333286
        },
        {
          "name": "F#1",
          "midi": 30,
          "time": 111.75,
          "velocity": 0.7874015748031497,
          "duration": 0.0833333333333286
        },
        {
          "name": "F#1",
          "midi": 30,
          "time": 112.25,
          "velocity": 0.7874015748031497,
          "duration": 0.0833333333333286
        },
        {
          "name": "F#1",
          "midi": 30,
          "time": 112.75,
          "velocity": 0.7874015748031497,
          "duration": 0.0833333333333286
        },
        {
          "name": "F#1",
          "midi": 30,
          "time": 113.25,
          "velocity": 0.7874015748031497,
          "duration": 0.0833333333333286
        },
        {
          "name": "F#1",
          "midi": 30,
          "time": 113.75,
          "velocity": 0.7874015748031497,
          "duration": 0.0833333333333286
        },
        {
          "name": "F#1",
          "midi": 30,
          "time": 114.25,
          "velocity": 0.7874015748031497,
          "duration": 0.0833333333333286
        },
        {
          "name": "F#1",
          "midi": 30,
          "time": 114.75,
          "velocity": 0.7874015748031497,
          "duration": 0.0833333333333286
        },
        {
          "name": "F#1",
          "midi": 30,
          "time": 115.25,
          "velocity": 0.7874015748031497,
          "duration": 0.0833333333333286
        },
        {
          "name": "F#1",
          "midi": 30,
          "time": 115.75,
          "velocity": 0.7874015748031497,
          "duration": 0.0833333333333286
        },
        {
          "name": "F#1",
          "midi": 30,
          "time": 116.25,
          "velocity": 0.7874015748031497,
          "duration": 0.0833333333333286
        },
        {
          "name": "F#1",
          "midi": 30,
          "time": 116.75,
          "velocity": 0.7874015748031497,
          "duration": 0.0833333333333286
        },
        {
          "name": "F#1",
          "midi": 30,
          "time": 117.25,
          "velocity": 0.7874015748031497,
          "duration": 0.0833333333333286
        },
        {
          "name": "F#1",
          "midi": 30,
          "time": 117.75,
          "velocity": 0.7874015748031497,
          "duration": 0.0833333333333286
        },
        {
          "name": "F#1",
          "midi": 30,
          "time": 118.25,
          "velocity": 0.7874015748031497,
          "duration": 0.0833333333333286
        },
        {
          "name": "F#1",
          "midi": 30,
          "time": 118.75,
          "velocity": 0.7874015748031497,
          "duration": 0.0833333333333286
        },
        {
          "name": "F#1",
          "midi": 30,
          "time": 119.25,
          "velocity": 0.7874015748031497,
          "duration": 0.0833333333333286
        },
        {
          "name": "F#1",
          "midi": 30,
          "time": 119.5,
          "velocity": 0.7874015748031497,
          "duration": 0.0833333333333286
        }
      ],
      "controlChanges": {
        "7": [
          {
            "number": 7,
            "time": 0.75,
            "value": 0.7559055118110236
          }
        ],
        "10": [
          {
            "number": 10,
            "time": 0.75,
            "value": 0.5039370078740157
          }
        ],
        "91": [
          {
            "number": 91,
            "time": 2,
            "value": 1
          }
        ],
        "93": [
          {
            "number": 93,
            "time": 2,
            "value": 1
          }
        ]
      },
      "id": 3,
      "name": "Sequenced by ",
      "instrumentNumber": 0,
      "instrument": "standard kit",
      "instrumentFamily": "drums",
      "channelNumber": 9,
      "isPercussion": true
    },
    {
      "startTime": 2,
      "duration": 119.578125,
      "length": 311,
      "notes": [
        {
          "name": "F2",
          "midi": 41,
          "time": 2,
          "velocity": 1,
          "duration": 0.4947916666666665
        },
        {
          "name": "C2",
          "midi": 36,
          "time": 2.5,
          "velocity": 1,
          "duration": 0.453125
        },
        {
          "name": "F2",
          "midi": 41,
          "time": 3,
          "velocity": 1,
          "duration": 0.46875
        },
        {
          "name": "C2",
          "midi": 36,
          "time": 3.5,
          "velocity": 1,
          "duration": 0.4635416666666665
        },
        {
          "name": "F2",
          "midi": 41,
          "time": 4,
          "velocity": 1,
          "duration": 0.49479166666666696
        },
        {
          "name": "C2",
          "midi": 36,
          "time": 4.5,
          "velocity": 1,
          "duration": 0.49479166666666696
        },
        {
          "name": "F2",
          "midi": 41,
          "time": 5,
          "velocity": 1,
          "duration": 0.21354166666666696
        },
        {
          "name": "C2",
          "midi": 36,
          "time": 5.25,
          "velocity": 1,
          "duration": 0.203125
        },
        {
          "name": "D2",
          "midi": 38,
          "time": 5.5,
          "velocity": 1,
          "duration": 0.234375
        },
        {
          "name": "C2",
          "midi": 36,
          "time": 5.75,
          "velocity": 1,
          "duration": 0.203125
        },
        {
          "name": "F2",
          "midi": 41,
          "time": 6,
          "velocity": 1,
          "duration": 0.484375
        },
        {
          "name": "C2",
          "midi": 36,
          "time": 6.5,
          "velocity": 1,
          "duration": 0.44791666666666696
        },
        {
          "name": "F2",
          "midi": 41,
          "time": 7,
          "velocity": 1,
          "duration": 0.44270833333333304
        },
        {
          "name": "C2",
          "midi": 36,
          "time": 7.5,
          "velocity": 1,
          "duration": 0.47916666666666696
        },
        {
          "name": "F2",
          "midi": 41,
          "time": 8,
          "velocity": 1,
          "duration": 0.4947916666666661
        },
        {
          "name": "C2",
          "midi": 36,
          "time": 8.5,
          "velocity": 1,
          "duration": 0.4166666666666661
        },
        {
          "name": "F2",
          "midi": 41,
          "time": 9,
          "velocity": 1,
          "duration": 0.234375
        },
        {
          "name": "C2",
          "midi": 36,
          "time": 9.25,
          "velocity": 1,
          "duration": 0.24479166666666607
        },
        {
          "name": "A1",
          "midi": 33,
          "time": 9.5,
          "velocity": 1,
          "duration": 0.24479166666666607
        },
        {
          "name": "C2",
          "midi": 36,
          "time": 9.75,
          "velocity": 1,
          "duration": 0.24479166666666607
        },
        {
          "name": "F2",
          "midi": 41,
          "time": 10,
          "velocity": 1,
          "duration": 0.453125
        },
        {
          "name": "C2",
          "midi": 36,
          "time": 10.5,
          "velocity": 1,
          "duration": 0.4895833333333339
        },
        {
          "name": "F2",
          "midi": 41,
          "time": 11,
          "velocity": 1,
          "duration": 0.4947916666666661
        },
        {
          "name": "C2",
          "midi": 36,
          "time": 11.5,
          "velocity": 1,
          "duration": 0.4947916666666661
        },
        {
          "name": "F2",
          "midi": 41,
          "time": 12,
          "velocity": 1,
          "duration": 0.4635416666666661
        },
        {
          "name": "C2",
          "midi": 36,
          "time": 12.5,
          "velocity": 1,
          "duration": 0.4583333333333339
        },
        {
          "name": "F2",
          "midi": 41,
          "time": 13,
          "velocity": 1,
          "duration": 0.22395833333333393
        },
        {
          "name": "A2",
          "midi": 45,
          "time": 13.25,
          "velocity": 1,
          "duration": 0.24479166666666607
        },
        {
          "name": "C3",
          "midi": 48,
          "time": 13.5,
          "velocity": 1,
          "duration": 0.24479166666666607
        },
        {
          "name": "A2",
          "midi": 45,
          "time": 13.75,
          "velocity": 1,
          "duration": 0.24479166666666607
        },
        {
          "name": "F2",
          "midi": 41,
          "time": 14,
          "velocity": 1,
          "duration": 0.453125
        },
        {
          "name": "C2",
          "midi": 36,
          "time": 14.5,
          "velocity": 1,
          "duration": 0.4739583333333339
        },
        {
          "name": "A#1",
          "midi": 34,
          "time": 15,
          "velocity": 1,
          "duration": 0.4947916666666661
        },
        {
          "name": "F1",
          "midi": 29,
          "time": 15.5,
          "velocity": 1,
          "duration": 0.4947916666666661
        },
        {
          "name": "A#1",
          "midi": 34,
          "time": 16,
          "velocity": 1,
          "duration": 0.49479166666666785
        },
        {
          "name": "F1",
          "midi": 29,
          "time": 16.5,
          "velocity": 1,
          "duration": 0.46354166666666785
        },
        {
          "name": "C3",
          "midi": 48,
          "time": 17,
          "velocity": 1,
          "duration": 0.24479166666666785
        },
        {
          "name": "A2",
          "midi": 45,
          "time": 17.25,
          "velocity": 1,
          "duration": 0.24479166666666785
        },
        {
          "name": "G2",
          "midi": 43,
          "time": 17.5,
          "velocity": 1,
          "duration": 0.21354166666666785
        },
        {
          "name": "E2",
          "midi": 40,
          "time": 17.75,
          "velocity": 1,
          "duration": 0.16666666666666785
        },
        {
          "name": "C2",
          "midi": 36,
          "time": 18,
          "velocity": 1,
          "duration": 0.49479166666666785
        },
        {
          "name": "G1",
          "midi": 31,
          "time": 18.5,
          "velocity": 1,
          "duration": 0.453125
        },
        {
          "name": "F2",
          "midi": 41,
          "time": 19,
          "velocity": 1,
          "duration": 0.46875
        },
        {
          "name": "C2",
          "midi": 36,
          "time": 19.5,
          "velocity": 1,
          "duration": 0.46354166666666785
        },
        {
          "name": "F2",
          "midi": 41,
          "time": 20,
          "velocity": 1,
          "duration": 0.49479166666666785
        },
        {
          "name": "C2",
          "midi": 36,
          "time": 20.5,
          "velocity": 1,
          "duration": 0.49479166666666785
        },
        {
          "name": "F2",
          "midi": 41,
          "time": 21,
          "velocity": 1,
          "duration": 0.21354166666666785
        },
        {
          "name": "C2",
          "midi": 36,
          "time": 21.25,
          "velocity": 1,
          "duration": 0.203125
        },
        {
          "name": "D2",
          "midi": 38,
          "time": 21.5,
          "velocity": 1,
          "duration": 0.234375
        },
        {
          "name": "C2",
          "midi": 36,
          "time": 21.75,
          "velocity": 1,
          "duration": 0.203125
        },
        {
          "name": "F2",
          "midi": 41,
          "time": 22,
          "velocity": 1,
          "duration": 0.484375
        },
        {
          "name": "C2",
          "midi": 36,
          "time": 22.5,
          "velocity": 1,
          "duration": 0.44791666666666785
        },
        {
          "name": "A#1",
          "midi": 34,
          "time": 23,
          "velocity": 1,
          "duration": 0.44270833333333215
        },
        {
          "name": "F1",
          "midi": 29,
          "time": 23.5,
          "velocity": 1,
          "duration": 0.47916666666666785
        },
        {
          "name": "A#1",
          "midi": 34,
          "time": 24,
          "velocity": 1,
          "duration": 0.49479166666666785
        },
        {
          "name": "F1",
          "midi": 29,
          "time": 24.5,
          "velocity": 1,
          "duration": 0.41666666666666785
        },
        {
          "name": "C2",
          "midi": 36,
          "time": 25,
          "velocity": 1,
          "duration": 0.234375
        },
        {
          "name": "G1",
          "midi": 31,
          "time": 25.25,
          "velocity": 1,
          "duration": 0.24479166666666785
        },
        {
          "name": "E1",
          "midi": 28,
          "time": 25.5,
          "velocity": 1,
          "duration": 0.24479166666666785
        },
        {
          "name": "G1",
          "midi": 31,
          "time": 25.75,
          "velocity": 1,
          "duration": 0.24479166666666785
        },
        {
          "name": "C2",
          "midi": 36,
          "time": 26,
          "velocity": 1,
          "duration": 0.453125
        },
        {
          "name": "G1",
          "midi": 31,
          "time": 26.5,
          "velocity": 1,
          "duration": 0.48958333333333215
        },
        {
          "name": "F2",
          "midi": 41,
          "time": 27,
          "velocity": 1,
          "duration": 0.49479166666666785
        },
        {
          "name": "C2",
          "midi": 36,
          "time": 27.5,
          "velocity": 1,
          "duration": 0.49479166666666785
        },
        {
          "name": "F2",
          "midi": 41,
          "time": 28,
          "velocity": 1,
          "duration": 0.46354166666666785
        },
        {
          "name": "C2",
          "midi": 36,
          "time": 28.5,
          "velocity": 1,
          "duration": 0.45833333333333215
        },
        {
          "name": "F2",
          "midi": 41,
          "time": 29,
          "velocity": 1,
          "duration": 0.22395833333333215
        },
        {
          "name": "A2",
          "midi": 45,
          "time": 29.25,
          "velocity": 1,
          "duration": 0.24479166666666785
        },
        {
          "name": "C3",
          "midi": 48,
          "time": 29.5,
          "velocity": 1,
          "duration": 0.24479166666666785
        },
        {
          "name": "A2",
          "midi": 45,
          "time": 29.75,
          "velocity": 1,
          "duration": 0.24479166666666785
        },
        {
          "name": "F2",
          "midi": 41,
          "time": 30,
          "velocity": 1,
          "duration": 0.453125
        },
        {
          "name": "C2",
          "midi": 36,
          "time": 30.5,
          "velocity": 1,
          "duration": 0.47395833333333215
        },
        {
          "name": "F3",
          "midi": 53,
          "time": 31,
          "velocity": 1,
          "duration": 0.05729166666666785
        },
        {
          "name": "F3",
          "midi": 53,
          "time": 31.25,
          "velocity": 1,
          "duration": 0.06770833333333215
        },
        {
          "name": "F3",
          "midi": 53,
          "time": 31.375,
          "velocity": 1,
          "duration": 0.06770833333333215
        },
        {
          "name": "F3",
          "midi": 53,
          "time": 31.5,
          "velocity": 1,
          "duration": 0.05208333333333215
        },
        {
          "name": "F3",
          "midi": 53,
          "time": 31.75,
          "velocity": 1,
          "duration": 0.05208333333333215
        },
        {
          "name": "F2",
          "midi": 41,
          "time": 32,
          "velocity": 1,
          "duration": 0.25
        },
        {
          "name": "A#1",
          "midi": 34,
          "time": 32.25,
          "velocity": 1,
          "duration": 0.2447916666666643
        },
        {
          "name": "F1",
          "midi": 29,
          "time": 32.5,
          "velocity": 1,
          "duration": 0.453125
        },
        {
          "name": "F2",
          "midi": 41,
          "time": 33,
          "velocity": 1,
          "duration": 0.46875
        },
        {
          "name": "C2",
          "midi": 36,
          "time": 33.5,
          "velocity": 1,
          "duration": 0.4635416666666643
        },
        {
          "name": "G2",
          "midi": 43,
          "time": 34,
          "velocity": 1,
          "duration": 0.4947916666666643
        },
        {
          "name": "D2",
          "midi": 38,
          "time": 34.5,
          "velocity": 1,
          "duration": 0.4947916666666643
        },
        {
          "name": "C2",
          "midi": 36,
          "time": 35,
          "velocity": 1,
          "duration": 0.2135416666666643
        },
        {
          "name": "G1",
          "midi": 31,
          "time": 35.25,
          "velocity": 1,
          "duration": 0.203125
        },
        {
          "name": "A1",
          "midi": 33,
          "time": 35.5,
          "velocity": 1,
          "duration": 0.234375
        },
        {
          "name": "G1",
          "midi": 31,
          "time": 35.75,
          "velocity": 1,
          "duration": 0.203125
        },
        {
          "name": "C2",
          "midi": 36,
          "time": 36,
          "velocity": 1,
          "duration": 0.25
        },
        {
          "name": "F2",
          "midi": 41,
          "time": 36.25,
          "velocity": 1,
          "duration": 0.234375
        },
        {
          "name": "C2",
          "midi": 36,
          "time": 36.5,
          "velocity": 1,
          "duration": 0.4479166666666643
        },
        {
          "name": "F2",
          "midi": 41,
          "time": 37,
          "velocity": 1,
          "duration": 0.4427083333333357
        },
        {
          "name": "C2",
          "midi": 36,
          "time": 37.5,
          "velocity": 1,
          "duration": 0.4791666666666643
        },
        {
          "name": "F2",
          "midi": 41,
          "time": 38,
          "velocity": 1,
          "duration": 0.4947916666666643
        },
        {
          "name": "C2",
          "midi": 36,
          "time": 38.5,
          "velocity": 1,
          "duration": 0.4166666666666643
        },
        {
          "name": "F2",
          "midi": 41,
          "time": 39,
          "velocity": 1,
          "duration": 0.234375
        },
        {
          "name": "C3",
          "midi": 48,
          "time": 39.25,
          "velocity": 1,
          "duration": 0.2447916666666643
        },
        {
          "name": "A2",
          "midi": 45,
          "time": 39.5,
          "velocity": 1,
          "duration": 0.3541666666666643
        },
        {
          "name": "F2",
          "midi": 41,
          "time": 40,
          "velocity": 1,
          "duration": 0.25
        },
        {
          "name": "A#1",
          "midi": 34,
          "time": 40.25,
          "velocity": 1,
          "duration": 0.2447916666666643
        },
        {
          "name": "F1",
          "midi": 29,
          "time": 40.5,
          "velocity": 1,
          "duration": 0.453125
        },
        {
          "name": "F2",
          "midi": 41,
          "time": 41,
          "velocity": 1,
          "duration": 0.46875
        },
        {
          "name": "C2",
          "midi": 36,
          "time": 41.5,
          "velocity": 1,
          "duration": 0.4635416666666643
        },
        {
          "name": "C2",
          "midi": 36,
          "time": 42,
          "velocity": 1,
          "duration": 0.4947916666666643
        },
        {
          "name": "G1",
          "midi": 31,
          "time": 42.5,
          "velocity": 1,
          "duration": 0.4947916666666643
        },
        {
          "name": "F2",
          "midi": 41,
          "time": 43,
          "velocity": 1,
          "duration": 0.2135416666666643
        },
        {
          "name": "C2",
          "midi": 36,
          "time": 43.25,
          "velocity": 1,
          "duration": 0.203125
        },
        {
          "name": "D2",
          "midi": 38,
          "time": 43.5,
          "velocity": 1,
          "duration": 0.234375
        },
        {
          "name": "C2",
          "midi": 36,
          "time": 43.75,
          "velocity": 1,
          "duration": 0.203125
        },
        {
          "name": "F2",
          "midi": 41,
          "time": 44,
          "velocity": 1,
          "duration": 0.2552083333333357
        },
        {
          "name": "F2",
          "midi": 41,
          "time": 44.375,
          "velocity": 1,
          "duration": 0.09375
        },
        {
          "name": "A2",
          "midi": 45,
          "time": 44.5,
          "velocity": 1,
          "duration": 0.0885416666666643
        },
        {
          "name": "C3",
          "midi": 48,
          "time": 44.75,
          "velocity": 1,
          "duration": 0.0625
        },
        {
          "name": "F3",
          "midi": 53,
          "time": 45,
          "velocity": 1,
          "duration": 0.0572916666666643
        },
        {
          "name": "F3",
          "midi": 53,
          "time": 45.25,
          "velocity": 1,
          "duration": 0.0677083333333357
        },
        {
          "name": "F3",
          "midi": 53,
          "time": 45.375,
          "velocity": 1,
          "duration": 0.0677083333333357
        },
        {
          "name": "F3",
          "midi": 53,
          "time": 45.5,
          "velocity": 1,
          "duration": 0.0520833333333357
        },
        {
          "name": "F3",
          "midi": 53,
          "time": 45.75,
          "velocity": 1,
          "duration": 0.0520833333333357
        },
        {
          "name": "F3",
          "midi": 53,
          "time": 46,
          "velocity": 1,
          "duration": 0.4739583333333357
        },
        {
          "name": "D3",
          "midi": 50,
          "time": 46.5,
          "velocity": 1,
          "duration": 0.4583333333333357
        },
        {
          "name": "C3",
          "midi": 48,
          "time": 47,
          "velocity": 1,
          "duration": 0.25
        },
        {
          "name": "A#1",
          "midi": 34,
          "time": 47.25,
          "velocity": 1,
          "duration": 0.2447916666666643
        },
        {
          "name": "D2",
          "midi": 38,
          "time": 47.5,
          "velocity": 1,
          "duration": 0.3541666666666643
        },
        {
          "name": "A#1",
          "midi": 34,
          "time": 48,
          "velocity": 1,
          "duration": 0.4947916666666643
        },
        {
          "name": "F1",
          "midi": 29,
          "time": 48.5,
          "velocity": 1,
          "duration": 0.453125
        },
        {
          "name": "C2",
          "midi": 36,
          "time": 49,
          "velocity": 1,
          "duration": 0.46875
        },
        {
          "name": "G1",
          "midi": 31,
          "time": 49.5,
          "velocity": 1,
          "duration": 0.4635416666666643
        },
        {
          "name": "C2",
          "midi": 36,
          "time": 50,
          "velocity": 1,
          "duration": 0.4947916666666643
        },
        {
          "name": "G1",
          "midi": 31,
          "time": 50.5,
          "velocity": 1,
          "duration": 0.4947916666666643
        },
        {
          "name": "C2",
          "midi": 36,
          "time": 51,
          "velocity": 1,
          "duration": 0.2135416666666643
        },
        {
          "name": "F1",
          "midi": 29,
          "time": 51.25,
          "velocity": 1,
          "duration": 0.203125
        },
        {
          "name": "D2",
          "midi": 38,
          "time": 51.5,
          "velocity": 1,
          "duration": 0.234375
        },
        {
          "name": "F1",
          "midi": 29,
          "time": 51.75,
          "velocity": 1,
          "duration": 0.203125
        },
        {
          "name": "F2",
          "midi": 41,
          "time": 52,
          "velocity": 1,
          "duration": 0.484375
        },
        {
          "name": "C2",
          "midi": 36,
          "time": 52.5,
          "velocity": 1,
          "duration": 0.4479166666666643
        },
        {
          "name": "F2",
          "midi": 41,
          "time": 53,
          "velocity": 1,
          "duration": 0.4427083333333357
        },
        {
          "name": "C2",
          "midi": 36,
          "time": 53.5,
          "velocity": 1,
          "duration": 0.4791666666666643
        },
        {
          "name": "F2",
          "midi": 41,
          "time": 54,
          "velocity": 1,
          "duration": 0.4947916666666643
        },
        {
          "name": "C2",
          "midi": 36,
          "time": 54.5,
          "velocity": 1,
          "duration": 0.4166666666666643
        },
        {
          "name": "F2",
          "midi": 41,
          "time": 55,
          "velocity": 1,
          "duration": 0.234375
        },
        {
          "name": "A#0",
          "midi": 22,
          "time": 55.25,
          "velocity": 1,
          "duration": 0.2447916666666643
        },
        {
          "name": "D1",
          "midi": 26,
          "time": 55.5,
          "velocity": 1,
          "duration": 0.2447916666666643
        },
        {
          "name": "A#0",
          "midi": 22,
          "time": 55.75,
          "velocity": 1,
          "duration": 0.2447916666666643
        },
        {
          "name": "A#1",
          "midi": 34,
          "time": 56,
          "velocity": 1,
          "duration": 0.453125
        },
        {
          "name": "F1",
          "midi": 29,
          "time": 56.5,
          "velocity": 1,
          "duration": 0.4895833333333357
        },
        {
          "name": "C2",
          "midi": 36,
          "time": 57,
          "velocity": 1,
          "duration": 0.4947916666666643
        },
        {
          "name": "G1",
          "midi": 31,
          "time": 57.5,
          "velocity": 1,
          "duration": 0.4947916666666643
        },
        {
          "name": "C2",
          "midi": 36,
          "time": 58,
          "velocity": 1,
          "duration": 0.4635416666666643
        },
        {
          "name": "G1",
          "midi": 31,
          "time": 58.5,
          "velocity": 1,
          "duration": 0.4583333333333357
        },
        {
          "name": "C2",
          "midi": 36,
          "time": 59,
          "velocity": 1,
          "duration": 0.2239583333333357
        },
        {
          "name": "F2",
          "midi": 41,
          "time": 59.25,
          "velocity": 1,
          "duration": 0.2447916666666643
        },
        {
          "name": "C3",
          "midi": 48,
          "time": 59.5,
          "velocity": 1,
          "duration": 0.2447916666666643
        },
        {
          "name": "F2",
          "midi": 41,
          "time": 59.75,
          "velocity": 1,
          "duration": 0.2447916666666643
        },
        {
          "name": "F2",
          "midi": 41,
          "time": 60,
          "velocity": 1,
          "duration": 0.2552083333333357
        },
        {
          "name": "F2",
          "midi": 41,
          "time": 60.375,
          "velocity": 1,
          "duration": 0.09375
        },
        {
          "name": "A2",
          "midi": 45,
          "time": 60.5,
          "velocity": 1,
          "duration": 0.0885416666666643
        },
        {
          "name": "C3",
          "midi": 48,
          "time": 60.75,
          "velocity": 1,
          "duration": 0.0625
        },
        {
          "name": "F3",
          "midi": 53,
          "time": 61,
          "velocity": 1,
          "duration": 0.0572916666666643
        },
        {
          "name": "F3",
          "midi": 53,
          "time": 61.25,
          "velocity": 1,
          "duration": 0.0677083333333357
        },
        {
          "name": "F3",
          "midi": 53,
          "time": 61.375,
          "velocity": 1,
          "duration": 0.0677083333333357
        },
        {
          "name": "F3",
          "midi": 53,
          "time": 61.5,
          "velocity": 1,
          "duration": 0.0520833333333357
        },
        {
          "name": "F3",
          "midi": 53,
          "time": 61.75,
          "velocity": 1,
          "duration": 0.0520833333333357
        },
        {
          "name": "F3",
          "midi": 53,
          "time": 62,
          "velocity": 1,
          "duration": 0.4739583333333357
        },
        {
          "name": "D3",
          "midi": 50,
          "time": 62.5,
          "velocity": 1,
          "duration": 0.4583333333333357
        },
        {
          "name": "C3",
          "midi": 48,
          "time": 63,
          "velocity": 1,
          "duration": 0.4947916666666643
        },
        {
          "name": "A2",
          "midi": 45,
          "time": 63.5,
          "velocity": 1,
          "duration": 0.3541666666666643
        },
        {
          "name": "A#1",
          "midi": 34,
          "time": 64,
          "velocity": 1,
          "duration": 0.4947916666666714
        },
        {
          "name": "F1",
          "midi": 29,
          "time": 64.5,
          "velocity": 1,
          "duration": 0.453125
        },
        {
          "name": "A#1",
          "midi": 34,
          "time": 65,
          "velocity": 1,
          "duration": 0.25
        },
        {
          "name": "F2",
          "midi": 41,
          "time": 65.25,
          "velocity": 1,
          "duration": 0.21875
        },
        {
          "name": "C2",
          "midi": 36,
          "time": 65.5,
          "velocity": 1,
          "duration": 0.4635416666666714
        },
        {
          "name": "G2",
          "midi": 43,
          "time": 66,
          "velocity": 1,
          "duration": 0.4947916666666714
        },
        {
          "name": "D2",
          "midi": 38,
          "time": 66.5,
          "velocity": 1,
          "duration": 0.4947916666666714
        },
        {
          "name": "C2",
          "midi": 36,
          "time": 67,
          "velocity": 1,
          "duration": 0.2135416666666714
        },
        {
          "name": "G1",
          "midi": 31,
          "time": 67.25,
          "velocity": 1,
          "duration": 0.203125
        },
        {
          "name": "A1",
          "midi": 33,
          "time": 67.5,
          "velocity": 1,
          "duration": 0.234375
        },
        {
          "name": "G1",
          "midi": 31,
          "time": 67.75,
          "velocity": 1,
          "duration": 0.203125
        },
        {
          "name": "C2",
          "midi": 36,
          "time": 68,
          "velocity": 1,
          "duration": 0.25
        },
        {
          "name": "F2",
          "midi": 41,
          "time": 68.25,
          "velocity": 1,
          "duration": 0.234375
        },
        {
          "name": "C2",
          "midi": 36,
          "time": 68.5,
          "velocity": 1,
          "duration": 0.4479166666666714
        },
        {
          "name": "F2",
          "midi": 41,
          "time": 69,
          "velocity": 1,
          "duration": 0.4427083333333286
        },
        {
          "name": "C2",
          "midi": 36,
          "time": 69.5,
          "velocity": 1,
          "duration": 0.4791666666666714
        },
        {
          "name": "F2",
          "midi": 41,
          "time": 70,
          "velocity": 1,
          "duration": 0.4947916666666714
        },
        {
          "name": "C2",
          "midi": 36,
          "time": 70.5,
          "velocity": 1,
          "duration": 0.4166666666666714
        },
        {
          "name": "F2",
          "midi": 41,
          "time": 71,
          "velocity": 1,
          "duration": 0.234375
        },
        {
          "name": "C2",
          "midi": 36,
          "time": 71.25,
          "velocity": 1,
          "duration": 0.2447916666666714
        },
        {
          "name": "A1",
          "midi": 33,
          "time": 71.5,
          "velocity": 1,
          "duration": 0.2447916666666714
        },
        {
          "name": "C2",
          "midi": 36,
          "time": 71.75,
          "velocity": 1,
          "duration": 0.2447916666666714
        },
        {
          "name": "A#1",
          "midi": 34,
          "time": 72,
          "velocity": 1,
          "duration": 0.453125
        },
        {
          "name": "F1",
          "midi": 29,
          "time": 72.5,
          "velocity": 1,
          "duration": 0.4895833333333286
        },
        {
          "name": "A#1",
          "midi": 34,
          "time": 73,
          "velocity": 1,
          "duration": 0.25
        },
        {
          "name": "F2",
          "midi": 41,
          "time": 73.25,
          "velocity": 1,
          "duration": 0.2447916666666714
        },
        {
          "name": "C2",
          "midi": 36,
          "time": 73.5,
          "velocity": 1,
          "duration": 0.4947916666666714
        },
        {
          "name": "C2",
          "midi": 36,
          "time": 74,
          "velocity": 1,
          "duration": 0.4635416666666714
        },
        {
          "name": "G1",
          "midi": 31,
          "time": 74.5,
          "velocity": 1,
          "duration": 0.4583333333333286
        },
        {
          "name": "F2",
          "midi": 41,
          "time": 75,
          "velocity": 1,
          "duration": 0.2239583333333286
        },
        {
          "name": "A2",
          "midi": 45,
          "time": 75.25,
          "velocity": 1,
          "duration": 0.2447916666666714
        },
        {
          "name": "C3",
          "midi": 48,
          "time": 75.5,
          "velocity": 1,
          "duration": 0.2447916666666714
        },
        {
          "name": "A2",
          "midi": 45,
          "time": 75.75,
          "velocity": 1,
          "duration": 0.2447916666666714
        },
        {
          "name": "F2",
          "midi": 41,
          "time": 76,
          "velocity": 1,
          "duration": 0.25
        },
        {
          "name": "F2",
          "midi": 41,
          "time": 76.25,
          "velocity": 1,
          "duration": 0.005208333333328596
        },
        {
          "name": "F2",
          "midi": 41,
          "time": 76.375,
          "velocity": 1,
          "duration": 0.09375
        },
        {
          "name": "A2",
          "midi": 45,
          "time": 76.5,
          "velocity": 1,
          "duration": 0.0885416666666714
        },
        {
          "name": "C3",
          "midi": 48,
          "time": 76.75,
          "velocity": 1,
          "duration": 0.0625
        },
        {
          "name": "F3",
          "midi": 53,
          "time": 77,
          "velocity": 1,
          "duration": 0.057291666666671404
        },
        {
          "name": "F3",
          "midi": 53,
          "time": 77.25,
          "velocity": 1,
          "duration": 0.0677083333333286
        },
        {
          "name": "F3",
          "midi": 53,
          "time": 77.375,
          "velocity": 1,
          "duration": 0.0677083333333286
        },
        {
          "name": "F3",
          "midi": 53,
          "time": 77.5,
          "velocity": 1,
          "duration": 0.052083333333328596
        },
        {
          "name": "F3",
          "midi": 53,
          "time": 77.75,
          "velocity": 1,
          "duration": 0.052083333333328596
        },
        {
          "name": "F3",
          "midi": 53,
          "time": 78,
          "velocity": 1,
          "duration": 0.4739583333333286
        },
        {
          "name": "D3",
          "midi": 50,
          "time": 78.5,
          "velocity": 1,
          "duration": 0.4583333333333286
        },
        {
          "name": "C3",
          "midi": 48,
          "time": 79,
          "velocity": 1,
          "duration": 0.4947916666666714
        },
        {
          "name": "A2",
          "midi": 45,
          "time": 79.5,
          "velocity": 1,
          "duration": 0.3541666666666714
        },
        {
          "name": "F2",
          "midi": 41,
          "time": 80,
          "velocity": 1,
          "duration": 0.4947916666666714
        },
        {
          "name": "C2",
          "midi": 36,
          "time": 80.5,
          "velocity": 1,
          "duration": 0.453125
        },
        {
          "name": "F2",
          "midi": 41,
          "time": 81,
          "velocity": 1,
          "duration": 0.46875
        },
        {
          "name": "C2",
          "midi": 36,
          "time": 81.5,
          "velocity": 1,
          "duration": 0.4635416666666714
        },
        {
          "name": "F2",
          "midi": 41,
          "time": 82,
          "velocity": 1,
          "duration": 0.4947916666666714
        },
        {
          "name": "C2",
          "midi": 36,
          "time": 82.5,
          "velocity": 1,
          "duration": 0.4947916666666714
        },
        {
          "name": "F2",
          "midi": 41,
          "time": 83,
          "velocity": 1,
          "duration": 0.2135416666666714
        },
        {
          "name": "C2",
          "midi": 36,
          "time": 83.25,
          "velocity": 1,
          "duration": 0.203125
        },
        {
          "name": "D2",
          "midi": 38,
          "time": 83.5,
          "velocity": 1,
          "duration": 0.234375
        },
        {
          "name": "C2",
          "midi": 36,
          "time": 83.75,
          "velocity": 1,
          "duration": 0.203125
        },
        {
          "name": "F2",
          "midi": 41,
          "time": 84,
          "velocity": 1,
          "duration": 0.484375
        },
        {
          "name": "C2",
          "midi": 36,
          "time": 84.5,
          "velocity": 1,
          "duration": 0.4479166666666714
        },
        {
          "name": "A#1",
          "midi": 34,
          "time": 85,
          "velocity": 1,
          "duration": 0.4427083333333286
        },
        {
          "name": "F1",
          "midi": 29,
          "time": 85.5,
          "velocity": 1,
          "duration": 0.4791666666666714
        },
        {
          "name": "A#1",
          "midi": 34,
          "time": 86,
          "velocity": 1,
          "duration": 0.4947916666666714
        },
        {
          "name": "F1",
          "midi": 29,
          "time": 86.5,
          "velocity": 1,
          "duration": 0.4166666666666714
        },
        {
          "name": "C2",
          "midi": 36,
          "time": 87,
          "velocity": 1,
          "duration": 0.234375
        },
        {
          "name": "G1",
          "midi": 31,
          "time": 87.25,
          "velocity": 1,
          "duration": 0.2447916666666714
        },
        {
          "name": "E1",
          "midi": 28,
          "time": 87.5,
          "velocity": 1,
          "duration": 0.2447916666666714
        },
        {
          "name": "G1",
          "midi": 31,
          "time": 87.75,
          "velocity": 1,
          "duration": 0.2447916666666714
        },
        {
          "name": "C2",
          "midi": 36,
          "time": 88,
          "velocity": 1,
          "duration": 0.453125
        },
        {
          "name": "G1",
          "midi": 31,
          "time": 88.5,
          "velocity": 1,
          "duration": 0.4895833333333286
        },
        {
          "name": "F2",
          "midi": 41,
          "time": 89,
          "velocity": 1,
          "duration": 0.4947916666666714
        },
        {
          "name": "C2",
          "midi": 36,
          "time": 89.5,
          "velocity": 1,
          "duration": 0.4947916666666714
        },
        {
          "name": "F2",
          "midi": 41,
          "time": 90,
          "velocity": 1,
          "duration": 0.4635416666666714
        },
        {
          "name": "C2",
          "midi": 36,
          "time": 90.5,
          "velocity": 1,
          "duration": 0.4583333333333286
        },
        {
          "name": "F2",
          "midi": 41,
          "time": 91,
          "velocity": 1,
          "duration": 0.2239583333333286
        },
        {
          "name": "A2",
          "midi": 45,
          "time": 91.25,
          "velocity": 1,
          "duration": 0.2447916666666714
        },
        {
          "name": "C3",
          "midi": 48,
          "time": 91.5,
          "velocity": 1,
          "duration": 0.2447916666666714
        },
        {
          "name": "A2",
          "midi": 45,
          "time": 91.75,
          "velocity": 1,
          "duration": 0.2447916666666714
        },
        {
          "name": "F2",
          "midi": 41,
          "time": 92,
          "velocity": 1,
          "duration": 0.453125
        },
        {
          "name": "C2",
          "midi": 36,
          "time": 92.5,
          "velocity": 1,
          "duration": 0.4739583333333286
        },
        {
          "name": "A#1",
          "midi": 34,
          "time": 93,
          "velocity": 1,
          "duration": 0.4947916666666714
        },
        {
          "name": "F1",
          "midi": 29,
          "time": 93.5,
          "velocity": 1,
          "duration": 0.4947916666666714
        },
        {
          "name": "A#1",
          "midi": 34,
          "time": 94,
          "velocity": 1,
          "duration": 0.4947916666666714
        },
        {
          "name": "F1",
          "midi": 29,
          "time": 94.5,
          "velocity": 1,
          "duration": 0.4635416666666714
        },
        {
          "name": "C3",
          "midi": 48,
          "time": 95,
          "velocity": 1,
          "duration": 0.2447916666666714
        },
        {
          "name": "A2",
          "midi": 45,
          "time": 95.25,
          "velocity": 1,
          "duration": 0.2447916666666714
        },
        {
          "name": "G2",
          "midi": 43,
          "time": 95.5,
          "velocity": 1,
          "duration": 0.2135416666666714
        },
        {
          "name": "E2",
          "midi": 40,
          "time": 95.75,
          "velocity": 1,
          "duration": 0.1666666666666714
        },
        {
          "name": "C2",
          "midi": 36,
          "time": 96,
          "velocity": 1,
          "duration": 0.4947916666666714
        },
        {
          "name": "G1",
          "midi": 31,
          "time": 96.5,
          "velocity": 1,
          "duration": 0.453125
        },
        {
          "name": "C2",
          "midi": 36,
          "time": 97,
          "velocity": 1,
          "duration": 0.25
        },
        {
          "name": "F2",
          "midi": 41,
          "time": 97.25,
          "velocity": 1,
          "duration": 0.21875
        },
        {
          "name": "C2",
          "midi": 36,
          "time": 97.5,
          "velocity": 1,
          "duration": 0.4635416666666714
        },
        {
          "name": "F2",
          "midi": 41,
          "time": 98,
          "velocity": 1,
          "duration": 0.4947916666666714
        },
        {
          "name": "D3",
          "midi": 50,
          "time": 98.5,
          "velocity": 1,
          "duration": 0.4583333333333286
        },
        {
          "name": "C3",
          "midi": 48,
          "time": 99,
          "velocity": 1,
          "duration": 0.4947916666666714
        },
        {
          "name": "A2",
          "midi": 45,
          "time": 99.5,
          "velocity": 1,
          "duration": 0.3541666666666714
        },
        {
          "name": "F2",
          "midi": 41,
          "time": 100,
          "velocity": 1,
          "duration": 0.4947916666666714
        },
        {
          "name": "C2",
          "midi": 36,
          "time": 100.5,
          "velocity": 1,
          "duration": 0.453125
        },
        {
          "name": "F2",
          "midi": 41,
          "time": 101,
          "velocity": 1,
          "duration": 0.46875
        },
        {
          "name": "C2",
          "midi": 36,
          "time": 101.5,
          "velocity": 1,
          "duration": 0.4635416666666714
        },
        {
          "name": "A#1",
          "midi": 34,
          "time": 102,
          "velocity": 1,
          "duration": 0.4947916666666714
        },
        {
          "name": "F1",
          "midi": 29,
          "time": 102.5,
          "velocity": 1,
          "duration": 0.4947916666666714
        },
        {
          "name": "A#1",
          "midi": 34,
          "time": 103,
          "velocity": 1,
          "duration": 0.2135416666666714
        },
        {
          "name": "F1",
          "midi": 29,
          "time": 103.25,
          "velocity": 1,
          "duration": 0.203125
        },
        {
          "name": "D2",
          "midi": 38,
          "time": 103.5,
          "velocity": 1,
          "duration": 0.234375
        },
        {
          "name": "F1",
          "midi": 29,
          "time": 103.75,
          "velocity": 1,
          "duration": 0.203125
        },
        {
          "name": "G2",
          "midi": 43,
          "time": 104,
          "velocity": 1,
          "duration": 0.484375
        },
        {
          "name": "D2",
          "midi": 38,
          "time": 104.5,
          "velocity": 1,
          "duration": 0.4479166666666714
        },
        {
          "name": "C2",
          "midi": 36,
          "time": 105,
          "velocity": 1,
          "duration": 0.4427083333333286
        },
        {
          "name": "G1",
          "midi": 31,
          "time": 105.5,
          "velocity": 1,
          "duration": 0.4791666666666714
        },
        {
          "name": "C3",
          "midi": 48,
          "time": 106,
          "velocity": 1,
          "duration": 0.25
        },
        {
          "name": "F3",
          "midi": 53,
          "time": 106.25,
          "velocity": 1,
          "duration": 0.2239583333333286
        },
        {
          "name": "D3",
          "midi": 50,
          "time": 106.5,
          "velocity": 1,
          "duration": 0.4583333333333286
        },
        {
          "name": "C3",
          "midi": 48,
          "time": 107,
          "velocity": 1,
          "duration": 0.4947916666666714
        },
        {
          "name": "A2",
          "midi": 45,
          "time": 107.5,
          "velocity": 1,
          "duration": 0.3541666666666714
        },
        {
          "name": "F2",
          "midi": 41,
          "time": 108,
          "velocity": 1,
          "duration": 0.4947916666666714
        },
        {
          "name": "C2",
          "midi": 36,
          "time": 108.5,
          "velocity": 1,
          "duration": 0.453125
        },
        {
          "name": "F2",
          "midi": 41,
          "time": 109,
          "velocity": 1,
          "duration": 0.46875
        },
        {
          "name": "C2",
          "midi": 36,
          "time": 109.5,
          "velocity": 1,
          "duration": 0.4635416666666714
        },
        {
          "name": "A#1",
          "midi": 34,
          "time": 110,
          "velocity": 1,
          "duration": 0.4947916666666714
        },
        {
          "name": "F1",
          "midi": 29,
          "time": 110.5,
          "velocity": 1,
          "duration": 0.4947916666666714
        },
        {
          "name": "A#1",
          "midi": 34,
          "time": 111,
          "velocity": 1,
          "duration": 0.2135416666666714
        },
        {
          "name": "F1",
          "midi": 29,
          "time": 111.25,
          "velocity": 1,
          "duration": 0.203125
        },
        {
          "name": "D2",
          "midi": 38,
          "time": 111.5,
          "velocity": 1,
          "duration": 0.234375
        },
        {
          "name": "F1",
          "midi": 29,
          "time": 111.75,
          "velocity": 1,
          "duration": 0.203125
        },
        {
          "name": "C2",
          "midi": 36,
          "time": 112,
          "velocity": 1,
          "duration": 0.484375
        },
        {
          "name": "G1",
          "midi": 31,
          "time": 112.5,
          "velocity": 1,
          "duration": 0.4479166666666714
        },
        {
          "name": "C2",
          "midi": 36,
          "time": 113,
          "velocity": 1,
          "duration": 0.4427083333333286
        },
        {
          "name": "G1",
          "midi": 31,
          "time": 113.5,
          "velocity": 1,
          "duration": 0.4791666666666714
        },
        {
          "name": "F2",
          "midi": 41,
          "time": 114,
          "velocity": 1,
          "duration": 0.4947916666666714
        },
        {
          "name": "C2",
          "midi": 36,
          "time": 114.5,
          "velocity": 1,
          "duration": 0.4166666666666714
        },
        {
          "name": "F2",
          "midi": 41,
          "time": 115,
          "velocity": 1,
          "duration": 0.234375
        },
        {
          "name": "C2",
          "midi": 36,
          "time": 115.25,
          "velocity": 1,
          "duration": 0.2447916666666714
        },
        {
          "name": "A1",
          "midi": 33,
          "time": 115.5,
          "velocity": 1,
          "duration": 0.2447916666666714
        },
        {
          "name": "C2",
          "midi": 36,
          "time": 115.75,
          "velocity": 1,
          "duration": 0.2447916666666714
        },
        {
          "name": "F2",
          "midi": 41,
          "time": 116,
          "velocity": 1,
          "duration": 0.296875
        },
        {
          "name": "F2",
          "midi": 41,
          "time": 116.5,
          "velocity": 1,
          "duration": 0.4375
        },
        {
          "name": "C2",
          "midi": 36,
          "time": 117,
          "velocity": 1,
          "duration": 0.4895833333333286
        },
        {
          "name": "C3",
          "midi": 48,
          "time": 117.5,
          "velocity": 1,
          "duration": 0.4427083333333286
        },
        {
          "name": "F2",
          "midi": 41,
          "time": 118,
          "velocity": 1,
          "duration": 0.0625
        },
        {
          "name": "C2",
          "midi": 36,
          "time": 118.5,
          "velocity": 1,
          "duration": 0.46875
        },
        {
          "name": "F2",
          "midi": 41,
          "time": 119,
          "velocity": 1,
          "duration": 0.0625
        },
        {
          "name": "F2",
          "midi": 41,
          "time": 119.25,
          "velocity": 1,
          "duration": 0.041666666666671404
        },
        {
          "name": "F2",
          "midi": 41,
          "time": 119.375,
          "velocity": 1,
          "duration": 0.052083333333328596
        },
        {
          "name": "F2",
          "midi": 41,
          "time": 119.5,
          "velocity": 1,
          "duration": 0.078125
        }
      ],
      "controlChanges": {
        "7": [
          {
            "number": 7,
            "time": 0.5677083333333335,
            "value": 0.9448818897637795
          }
        ],
        "10": [
          {
            "number": 10,
            "time": 0.5677083333333335,
            "value": 0.5039370078740157
          }
        ],
        "32": [
          {
            "number": 32,
            "time": 0.5572916666666667,
            "value": 0
          }
        ],
        "91": [
          {
            "number": 91,
            "time": 2,
            "value": 0.6141732283464567
          }
        ],
        "93": [
          {
            "number": 93,
            "time": 2,
            "value": 0.6141732283464567
          }
        ]
      },
      "id": 4,
      "name": "Larrie Dee at the",
      "instrumentNumber": 45,
      "instrument": "pizzicato strings",
      "instrumentFamily": "strings",
      "channelNumber": 2,
      "isPercussion": false
    },
    {
      "startTime": 2,
      "duration": 119.5312499999999,
      "length": 1332,
      "notes": [
        {
          "name": "A4",
          "midi": 69,
          "time": 2,
          "velocity": 0.8188976377952756,
          "duration": 0.08333333333333348
        },
        {
          "name": "C4",
          "midi": 60,
          "time": 2.125,
          "velocity": 0.8188976377952756,
          "duration": 0.08333333333333348
        },
        {
          "name": "F4",
          "midi": 65,
          "time": 2.25,
          "velocity": 0.8188976377952756,
          "duration": 0.08333333333333348
        },
        {
          "name": "A4",
          "midi": 69,
          "time": 2.375,
          "velocity": 0.8188976377952756,
          "duration": 0.09895833333333348
        },
        {
          "name": "C5",
          "midi": 72,
          "time": 2.5,
          "velocity": 0.8188976377952756,
          "duration": 0.08333333333333348
        },
        {
          "name": "F4",
          "midi": 65,
          "time": 2.625,
          "velocity": 0.8188976377952756,
          "duration": 0.08333333333333348
        },
        {
          "name": "A4",
          "midi": 69,
          "time": 2.75,
          "velocity": 0.8188976377952756,
          "duration": 0.08854166666666652
        },
        {
          "name": "C5",
          "midi": 72,
          "time": 2.875,
          "velocity": 0.8188976377952756,
          "duration": 0.08854166666666652
        },
        {
          "name": "A4",
          "midi": 69,
          "time": 3,
          "velocity": 0.8188976377952756,
          "duration": 0.08333333333333348
        },
        {
          "name": "C4",
          "midi": 60,
          "time": 3.125,
          "velocity": 0.8188976377952756,
          "duration": 0.08333333333333348
        },
        {
          "name": "F4",
          "midi": 65,
          "time": 3.25,
          "velocity": 0.8188976377952756,
          "duration": 0.08333333333333348
        },
        {
          "name": "A4",
          "midi": 69,
          "time": 3.375,
          "velocity": 0.8188976377952756,
          "duration": 0.09895833333333348
        },
        {
          "name": "C5",
          "midi": 72,
          "time": 3.5,
          "velocity": 0.8188976377952756,
          "duration": 0.08333333333333348
        },
        {
          "name": "F4",
          "midi": 65,
          "time": 3.625,
          "velocity": 0.8188976377952756,
          "duration": 0.09895833333333348
        },
        {
          "name": "A4",
          "midi": 69,
          "time": 3.75,
          "velocity": 0.8188976377952756,
          "duration": 0.08854166666666652
        },
        {
          "name": "C5",
          "midi": 72,
          "time": 3.875,
          "velocity": 0.8188976377952756,
          "duration": 0.08854166666666652
        },
        {
          "name": "A4",
          "midi": 69,
          "time": 4,
          "velocity": 0.8188976377952756,
          "duration": 0.08333333333333304
        },
        {
          "name": "C4",
          "midi": 60,
          "time": 4.125,
          "velocity": 0.8188976377952756,
          "duration": 0.08854166666666696
        },
        {
          "name": "F4",
          "midi": 65,
          "time": 4.25,
          "velocity": 0.8188976377952756,
          "duration": 0.09375
        },
        {
          "name": "A4",
          "midi": 69,
          "time": 4.375,
          "velocity": 0.8188976377952756,
          "duration": 0.09895833333333304
        },
        {
          "name": "C5",
          "midi": 72,
          "time": 4.5,
          "velocity": 0.8188976377952756,
          "duration": 0.08854166666666696
        },
        {
          "name": "F4",
          "midi": 65,
          "time": 4.625,
          "velocity": 0.8188976377952756,
          "duration": 0.08854166666666696
        },
        {
          "name": "A4",
          "midi": 69,
          "time": 4.75,
          "velocity": 0.8188976377952756,
          "duration": 0.09375
        },
        {
          "name": "C5",
          "midi": 72,
          "time": 4.875,
          "velocity": 0.8188976377952756,
          "duration": 0.09375
        },
        {
          "name": "C4",
          "midi": 60,
          "time": 5,
          "velocity": 0.8188976377952756,
          "duration": 0.109375
        },
        {
          "name": "F4",
          "midi": 65,
          "time": 5.125,
          "velocity": 0.8188976377952756,
          "duration": 0.109375
        },
        {
          "name": "A4",
          "midi": 69,
          "time": 5.25,
          "velocity": 0.8188976377952756,
          "duration": 0.08854166666666696
        },
        {
          "name": "F4",
          "midi": 65,
          "time": 5.375,
          "velocity": 0.8188976377952756,
          "duration": 0.11458333333333304
        },
        {
          "name": "A4",
          "midi": 69,
          "time": 5.5,
          "velocity": 0.8188976377952756,
          "duration": 0.11458333333333304
        },
        {
          "name": "C5",
          "midi": 72,
          "time": 5.625,
          "velocity": 0.8188976377952756,
          "duration": 0.08333333333333304
        },
        {
          "name": "A4",
          "midi": 69,
          "time": 5.75,
          "velocity": 0.8188976377952756,
          "duration": 0.11458333333333304
        },
        {
          "name": "F5",
          "midi": 77,
          "time": 5.875,
          "velocity": 0.8188976377952756,
          "duration": 0.08333333333333304
        },
        {
          "name": "A4",
          "midi": 69,
          "time": 6,
          "velocity": 0.8188976377952756,
          "duration": 0.08333333333333304
        },
        {
          "name": "C4",
          "midi": 60,
          "time": 6.125,
          "velocity": 0.8188976377952756,
          "duration": 0.08333333333333304
        },
        {
          "name": "F4",
          "midi": 65,
          "time": 6.25,
          "velocity": 0.8188976377952756,
          "duration": 0.08333333333333304
        },
        {
          "name": "A4",
          "midi": 69,
          "time": 6.375,
          "velocity": 0.8188976377952756,
          "duration": 0.09895833333333304
        },
        {
          "name": "C5",
          "midi": 72,
          "time": 6.5,
          "velocity": 0.8188976377952756,
          "duration": 0.08333333333333304
        },
        {
          "name": "F4",
          "midi": 65,
          "time": 6.625,
          "velocity": 0.8188976377952756,
          "duration": 0.08333333333333304
        },
        {
          "name": "A4",
          "midi": 69,
          "time": 6.75,
          "velocity": 0.8188976377952756,
          "duration": 0.08854166666666696
        },
        {
          "name": "C5",
          "midi": 72,
          "time": 6.875,
          "velocity": 0.8188976377952756,
          "duration": 0.08854166666666696
        },
        {
          "name": "A4",
          "midi": 69,
          "time": 7,
          "velocity": 0.8188976377952756,
          "duration": 0.08333333333333304
        },
        {
          "name": "C4",
          "midi": 60,
          "time": 7.125,
          "velocity": 0.8188976377952756,
          "duration": 0.08333333333333304
        },
        {
          "name": "F4",
          "midi": 65,
          "time": 7.25,
          "velocity": 0.8188976377952756,
          "duration": 0.08333333333333304
        },
        {
          "name": "A4",
          "midi": 69,
          "time": 7.375,
          "velocity": 0.8188976377952756,
          "duration": 0.09895833333333304
        },
        {
          "name": "C5",
          "midi": 72,
          "time": 7.5,
          "velocity": 0.8188976377952756,
          "duration": 0.08333333333333304
        },
        {
          "name": "F4",
          "midi": 65,
          "time": 7.625,
          "velocity": 0.8188976377952756,
          "duration": 0.09895833333333304
        },
        {
          "name": "A4",
          "midi": 69,
          "time": 7.75,
          "velocity": 0.8188976377952756,
          "duration": 0.08854166666666696
        },
        {
          "name": "C5",
          "midi": 72,
          "time": 7.875,
          "velocity": 0.8188976377952756,
          "duration": 0.08854166666666696
        },
        {
          "name": "A4",
          "midi": 69,
          "time": 8,
          "velocity": 0.8188976377952756,
          "duration": 0.08854166666666607
        },
        {
          "name": "C4",
          "midi": 60,
          "time": 8.125,
          "velocity": 0.8188976377952756,
          "duration": 0.11458333333333393
        },
        {
          "name": "F4",
          "midi": 65,
          "time": 8.25,
          "velocity": 0.8188976377952756,
          "duration": 0.11458333333333393
        },
        {
          "name": "A4",
          "midi": 69,
          "time": 8.375,
          "velocity": 0.8188976377952756,
          "duration": 0.10416666666666607
        },
        {
          "name": "F4",
          "midi": 65,
          "time": 8.5,
          "velocity": 0.8188976377952756,
          "duration": 0.11458333333333393
        },
        {
          "name": "A4",
          "midi": 69,
          "time": 8.625,
          "velocity": 0.8188976377952756,
          "duration": 0.109375
        },
        {
          "name": "C5",
          "midi": 72,
          "time": 8.75,
          "velocity": 0.8188976377952756,
          "duration": 0.09375
        },
        {
          "name": "A4",
          "midi": 69,
          "time": 8.875,
          "velocity": 0.8188976377952756,
          "duration": 0.08854166666666607
        },
        {
          "name": "C5",
          "midi": 72,
          "time": 9,
          "velocity": 0.8188976377952756,
          "duration": 0.10416666666666607
        },
        {
          "name": "F5",
          "midi": 77,
          "time": 9.125,
          "velocity": 0.8188976377952756,
          "duration": 0.109375
        },
        {
          "name": "C5",
          "midi": 72,
          "time": 9.25,
          "velocity": 0.8188976377952756,
          "duration": 0.109375
        },
        {
          "name": "A4",
          "midi": 69,
          "time": 9.375,
          "velocity": 0.8188976377952756,
          "duration": 0.09895833333333393
        },
        {
          "name": "C5",
          "midi": 72,
          "time": 9.5,
          "velocity": 0.8188976377952756,
          "duration": 0.10416666666666607
        },
        {
          "name": "A4",
          "midi": 69,
          "time": 9.625,
          "velocity": 0.8188976377952756,
          "duration": 0.09895833333333393
        },
        {
          "name": "F4",
          "midi": 65,
          "time": 9.75,
          "velocity": 0.8188976377952756,
          "duration": 0.09375
        },
        {
          "name": "C4",
          "midi": 60,
          "time": 9.875,
          "velocity": 0.8188976377952756,
          "duration": 0.08333333333333393
        },
        {
          "name": "A4",
          "midi": 69,
          "time": 10,
          "velocity": 0.8188976377952756,
          "duration": 0.08333333333333393
        },
        {
          "name": "C4",
          "midi": 60,
          "time": 10.125,
          "velocity": 0.8188976377952756,
          "duration": 0.08333333333333393
        },
        {
          "name": "F4",
          "midi": 65,
          "time": 10.25,
          "velocity": 0.8188976377952756,
          "duration": 0.08333333333333393
        },
        {
          "name": "A4",
          "midi": 69,
          "time": 10.375,
          "velocity": 0.8188976377952756,
          "duration": 0.09895833333333393
        },
        {
          "name": "C5",
          "midi": 72,
          "time": 10.5,
          "velocity": 0.8188976377952756,
          "duration": 0.08333333333333393
        },
        {
          "name": "F4",
          "midi": 65,
          "time": 10.625,
          "velocity": 0.8188976377952756,
          "duration": 0.08333333333333393
        },
        {
          "name": "A4",
          "midi": 69,
          "time": 10.75,
          "velocity": 0.8188976377952756,
          "duration": 0.08854166666666607
        },
        {
          "name": "C5",
          "midi": 72,
          "time": 10.875,
          "velocity": 0.8188976377952756,
          "duration": 0.08854166666666607
        },
        {
          "name": "A4",
          "midi": 69,
          "time": 11,
          "velocity": 0.8188976377952756,
          "duration": 0.08333333333333393
        },
        {
          "name": "C4",
          "midi": 60,
          "time": 11.125,
          "velocity": 0.8188976377952756,
          "duration": 0.08333333333333393
        },
        {
          "name": "F4",
          "midi": 65,
          "time": 11.25,
          "velocity": 0.8188976377952756,
          "duration": 0.08333333333333393
        },
        {
          "name": "A4",
          "midi": 69,
          "time": 11.375,
          "velocity": 0.8188976377952756,
          "duration": 0.09895833333333393
        },
        {
          "name": "C5",
          "midi": 72,
          "time": 11.5,
          "velocity": 0.8188976377952756,
          "duration": 0.08333333333333393
        },
        {
          "name": "F4",
          "midi": 65,
          "time": 11.625,
          "velocity": 0.8188976377952756,
          "duration": 0.09895833333333393
        },
        {
          "name": "A4",
          "midi": 69,
          "time": 11.75,
          "velocity": 0.8188976377952756,
          "duration": 0.08854166666666607
        },
        {
          "name": "C5",
          "midi": 72,
          "time": 11.875,
          "velocity": 0.8188976377952756,
          "duration": 0.08854166666666607
        },
        {
          "name": "A4",
          "midi": 69,
          "time": 12,
          "velocity": 0.8188976377952756,
          "duration": 0.08333333333333393
        },
        {
          "name": "C4",
          "midi": 60,
          "time": 12.125,
          "velocity": 0.8188976377952756,
          "duration": 0.10416666666666607
        },
        {
          "name": "F4",
          "midi": 65,
          "time": 12.25,
          "velocity": 0.8188976377952756,
          "duration": 0.09895833333333393
        },
        {
          "name": "A4",
          "midi": 69,
          "time": 12.375,
          "velocity": 0.8188976377952756,
          "duration": 0.09375
        },
        {
          "name": "C5",
          "midi": 72,
          "time": 12.5,
          "velocity": 0.8188976377952756,
          "duration": 0.08854166666666607
        },
        {
          "name": "F4",
          "midi": 65,
          "time": 12.625,
          "velocity": 0.8188976377952756,
          "duration": 0.09375
        },
        {
          "name": "A4",
          "midi": 69,
          "time": 12.75,
          "velocity": 0.8188976377952756,
          "duration": 0.09895833333333393
        },
        {
          "name": "C5",
          "midi": 72,
          "time": 12.875,
          "velocity": 0.8188976377952756,
          "duration": 0.09375
        },
        {
          "name": "C4",
          "midi": 60,
          "time": 13,
          "velocity": 0.8188976377952756,
          "duration": 0.13020833333333393
        },
        {
          "name": "F4",
          "midi": 65,
          "time": 13.125,
          "velocity": 0.8188976377952756,
          "duration": 0.11458333333333393
        },
        {
          "name": "A4",
          "midi": 69,
          "time": 13.25,
          "velocity": 0.8188976377952756,
          "duration": 0.09375
        },
        {
          "name": "F4",
          "midi": 65,
          "time": 13.375,
          "velocity": 0.8188976377952756,
          "duration": 0.16145833333333393
        },
        {
          "name": "A4",
          "midi": 69,
          "time": 13.5,
          "velocity": 0.8188976377952756,
          "duration": 0.08333333333333393
        },
        {
          "name": "A4",
          "midi": 69,
          "time": 13.625,
          "velocity": 0.8188976377952756,
          "duration": 0.08333333333333393
        },
        {
          "name": "F5",
          "midi": 77,
          "time": 13.625,
          "velocity": 0.8188976377952756,
          "duration": 0.08333333333333393
        },
        {
          "name": "A4",
          "midi": 69,
          "time": 13.75,
          "velocity": 0.8188976377952756,
          "duration": 0.08333333333333393
        },
        {
          "name": "F5",
          "midi": 77,
          "time": 13.75,
          "velocity": 0.8188976377952756,
          "duration": 0.08333333333333393
        },
        {
          "name": "A4",
          "midi": 69,
          "time": 13.875,
          "velocity": 0.8188976377952756,
          "duration": 0.08333333333333393
        },
        {
          "name": "F5",
          "midi": 77,
          "time": 13.875,
          "velocity": 0.8188976377952756,
          "duration": 0.08333333333333393
        },
        {
          "name": "A4",
          "midi": 69,
          "time": 14,
          "velocity": 0.8188976377952756,
          "duration": 0.08333333333333393
        },
        {
          "name": "C4",
          "midi": 60,
          "time": 14.125,
          "velocity": 0.8188976377952756,
          "duration": 0.08333333333333393
        },
        {
          "name": "F4",
          "midi": 65,
          "time": 14.25,
          "velocity": 0.8188976377952756,
          "duration": 0.08333333333333393
        },
        {
          "name": "A4",
          "midi": 69,
          "time": 14.375,
          "velocity": 0.8188976377952756,
          "duration": 0.09895833333333393
        },
        {
          "name": "C5",
          "midi": 72,
          "time": 14.5,
          "velocity": 0.8188976377952756,
          "duration": 0.08333333333333393
        },
        {
          "name": "F4",
          "midi": 65,
          "time": 14.625,
          "velocity": 0.8188976377952756,
          "duration": 0.08333333333333393
        },
        {
          "name": "A4",
          "midi": 69,
          "time": 14.75,
          "velocity": 0.8188976377952756,
          "duration": 0.08854166666666607
        },
        {
          "name": "C5",
          "midi": 72,
          "time": 14.875,
          "velocity": 0.8188976377952756,
          "duration": 0.08854166666666607
        },
        {
          "name": "D4",
          "midi": 62,
          "time": 15,
          "velocity": 0.8188976377952756,
          "duration": 0.08333333333333393
        },
        {
          "name": "F3",
          "midi": 53,
          "time": 15.125,
          "velocity": 0.8188976377952756,
          "duration": 0.08333333333333393
        },
        {
          "name": "A#3",
          "midi": 58,
          "time": 15.25,
          "velocity": 0.8188976377952756,
          "duration": 0.08333333333333393
        },
        {
          "name": "D4",
          "midi": 62,
          "time": 15.375,
          "velocity": 0.8188976377952756,
          "duration": 0.09895833333333393
        },
        {
          "name": "F4",
          "midi": 65,
          "time": 15.5,
          "velocity": 0.8188976377952756,
          "duration": 0.08333333333333393
        },
        {
          "name": "A#3",
          "midi": 58,
          "time": 15.625,
          "velocity": 0.8188976377952756,
          "duration": 0.09895833333333393
        },
        {
          "name": "D4",
          "midi": 62,
          "time": 15.75,
          "velocity": 0.8188976377952756,
          "duration": 0.08854166666666607
        },
        {
          "name": "F4",
          "midi": 65,
          "time": 15.875,
          "velocity": 0.8188976377952756,
          "duration": 0.08854166666666607
        },
        {
          "name": "F3",
          "midi": 53,
          "time": 16,
          "velocity": 0.8188976377952756,
          "duration": 0.09375
        },
        {
          "name": "A#3",
          "midi": 58,
          "time": 16.125,
          "velocity": 0.8188976377952756,
          "duration": 0.11458333333333215
        },
        {
          "name": "D4",
          "midi": 62,
          "time": 16.25,
          "velocity": 0.8188976377952756,
          "duration": 0.09375
        },
        {
          "name": "A#3",
          "midi": 58,
          "time": 16.375,
          "velocity": 0.8188976377952756,
          "duration": 0.09375
        },
        {
          "name": "D4",
          "midi": 62,
          "time": 16.5,
          "velocity": 0.8188976377952756,
          "duration": 0.109375
        },
        {
          "name": "F4",
          "midi": 65,
          "time": 16.625,
          "velocity": 0.8188976377952756,
          "duration": 0.08854166666666785
        },
        {
          "name": "D4",
          "midi": 62,
          "time": 16.75,
          "velocity": 0.8188976377952756,
          "duration": 0.109375
        },
        {
          "name": "F4",
          "midi": 65,
          "time": 16.875,
          "velocity": 0.8188976377952756,
          "duration": 0.109375
        },
        {
          "name": "E4",
          "midi": 64,
          "time": 17,
          "velocity": 0.8188976377952756,
          "duration": 0.09375
        },
        {
          "name": "G4",
          "midi": 67,
          "time": 17.125,
          "velocity": 0.8188976377952756,
          "duration": 0.11979166666666785
        },
        {
          "name": "A#4",
          "midi": 70,
          "time": 17.25,
          "velocity": 0.8188976377952756,
          "duration": 0.15625
        },
        {
          "name": "G4",
          "midi": 67,
          "time": 17.375,
          "velocity": 0.8188976377952756,
          "duration": 0.13541666666666785
        },
        {
          "name": "E4",
          "midi": 64,
          "time": 17.5,
          "velocity": 0.8188976377952756,
          "duration": 0.109375
        },
        {
          "name": "A#3",
          "midi": 58,
          "time": 17.625,
          "velocity": 0.8188976377952756,
          "duration": 0.09895833333333215
        },
        {
          "name": "G3",
          "midi": 55,
          "time": 17.75,
          "velocity": 0.8188976377952756,
          "duration": 0.10416666666666785
        },
        {
          "name": "E3",
          "midi": 52,
          "time": 17.875,
          "velocity": 0.8188976377952756,
          "duration": 0.08333333333333215
        },
        {
          "name": "E4",
          "midi": 64,
          "time": 18,
          "velocity": 0.8188976377952756,
          "duration": 0.08333333333333215
        },
        {
          "name": "G3",
          "midi": 55,
          "time": 18.125,
          "velocity": 0.8188976377952756,
          "duration": 0.08333333333333215
        },
        {
          "name": "A#3",
          "midi": 58,
          "time": 18.25,
          "velocity": 0.8188976377952756,
          "duration": 0.08333333333333215
        },
        {
          "name": "E4",
          "midi": 64,
          "time": 18.375,
          "velocity": 0.8188976377952756,
          "duration": 0.09895833333333215
        },
        {
          "name": "G4",
          "midi": 67,
          "time": 18.5,
          "velocity": 0.8188976377952756,
          "duration": 0.08333333333333215
        },
        {
          "name": "A#3",
          "midi": 58,
          "time": 18.625,
          "velocity": 0.8188976377952756,
          "duration": 0.08333333333333215
        },
        {
          "name": "E4",
          "midi": 64,
          "time": 18.75,
          "velocity": 0.8188976377952756,
          "duration": 0.08854166666666785
        },
        {
          "name": "G4",
          "midi": 67,
          "time": 18.875,
          "velocity": 0.8188976377952756,
          "duration": 0.08854166666666785
        },
        {
          "name": "A4",
          "midi": 69,
          "time": 19,
          "velocity": 0.8188976377952756,
          "duration": 0.08333333333333215
        },
        {
          "name": "C4",
          "midi": 60,
          "time": 19.125,
          "velocity": 0.8188976377952756,
          "duration": 0.08333333333333215
        },
        {
          "name": "F4",
          "midi": 65,
          "time": 19.25,
          "velocity": 0.8188976377952756,
          "duration": 0.08333333333333215
        },
        {
          "name": "A4",
          "midi": 69,
          "time": 19.375,
          "velocity": 0.8188976377952756,
          "duration": 0.09895833333333215
        },
        {
          "name": "C5",
          "midi": 72,
          "time": 19.5,
          "velocity": 0.8188976377952756,
          "duration": 0.08333333333333215
        },
        {
          "name": "F4",
          "midi": 65,
          "time": 19.625,
          "velocity": 0.8188976377952756,
          "duration": 0.09895833333333215
        },
        {
          "name": "A4",
          "midi": 69,
          "time": 19.75,
          "velocity": 0.8188976377952756,
          "duration": 0.08854166666666785
        },
        {
          "name": "C5",
          "midi": 72,
          "time": 19.875,
          "velocity": 0.8188976377952756,
          "duration": 0.08854166666666785
        },
        {
          "name": "A4",
          "midi": 69,
          "time": 20,
          "velocity": 0.8188976377952756,
          "duration": 0.08333333333333215
        },
        {
          "name": "C4",
          "midi": 60,
          "time": 20.125,
          "velocity": 0.8188976377952756,
          "duration": 0.08854166666666785
        },
        {
          "name": "F4",
          "midi": 65,
          "time": 20.25,
          "velocity": 0.8188976377952756,
          "duration": 0.09375
        },
        {
          "name": "A4",
          "midi": 69,
          "time": 20.375,
          "velocity": 0.8188976377952756,
          "duration": 0.09895833333333215
        },
        {
          "name": "C5",
          "midi": 72,
          "time": 20.5,
          "velocity": 0.8188976377952756,
          "duration": 0.08854166666666785
        },
        {
          "name": "F4",
          "midi": 65,
          "time": 20.625,
          "velocity": 0.8188976377952756,
          "duration": 0.08854166666666785
        },
        {
          "name": "A4",
          "midi": 69,
          "time": 20.75,
          "velocity": 0.8188976377952756,
          "duration": 0.09375
        },
        {
          "name": "C5",
          "midi": 72,
          "time": 20.875,
          "velocity": 0.8188976377952756,
          "duration": 0.09375
        },
        {
          "name": "C4",
          "midi": 60,
          "time": 21,
          "velocity": 0.8188976377952756,
          "duration": 0.109375
        },
        {
          "name": "F4",
          "midi": 65,
          "time": 21.125,
          "velocity": 0.8188976377952756,
          "duration": 0.109375
        },
        {
          "name": "A4",
          "midi": 69,
          "time": 21.25,
          "velocity": 0.8188976377952756,
          "duration": 0.08854166666666785
        },
        {
          "name": "F4",
          "midi": 65,
          "time": 21.375,
          "velocity": 0.8188976377952756,
          "duration": 0.11458333333333215
        },
        {
          "name": "A4",
          "midi": 69,
          "time": 21.5,
          "velocity": 0.8188976377952756,
          "duration": 0.11458333333333215
        },
        {
          "name": "C5",
          "midi": 72,
          "time": 21.625,
          "velocity": 0.8188976377952756,
          "duration": 0.08333333333333215
        },
        {
          "name": "A4",
          "midi": 69,
          "time": 21.75,
          "velocity": 0.8188976377952756,
          "duration": 0.11458333333333215
        },
        {
          "name": "F5",
          "midi": 77,
          "time": 21.875,
          "velocity": 0.8188976377952756,
          "duration": 0.08333333333333215
        },
        {
          "name": "A4",
          "midi": 69,
          "time": 22,
          "velocity": 0.8188976377952756,
          "duration": 0.08333333333333215
        },
        {
          "name": "C4",
          "midi": 60,
          "time": 22.125,
          "velocity": 0.8188976377952756,
          "duration": 0.08333333333333215
        },
        {
          "name": "F4",
          "midi": 65,
          "time": 22.25,
          "velocity": 0.8188976377952756,
          "duration": 0.08333333333333215
        },
        {
          "name": "A4",
          "midi": 69,
          "time": 22.375,
          "velocity": 0.8188976377952756,
          "duration": 0.09895833333333215
        },
        {
          "name": "C5",
          "midi": 72,
          "time": 22.5,
          "velocity": 0.8188976377952756,
          "duration": 0.08333333333333215
        },
        {
          "name": "F4",
          "midi": 65,
          "time": 22.625,
          "velocity": 0.8188976377952756,
          "duration": 0.08333333333333215
        },
        {
          "name": "A4",
          "midi": 69,
          "time": 22.75,
          "velocity": 0.8188976377952756,
          "duration": 0.08854166666666785
        },
        {
          "name": "C5",
          "midi": 72,
          "time": 22.875,
          "velocity": 0.8188976377952756,
          "duration": 0.08854166666666785
        },
        {
          "name": "D4",
          "midi": 62,
          "time": 23,
          "velocity": 0.8188976377952756,
          "duration": 0.08333333333333215
        },
        {
          "name": "F3",
          "midi": 53,
          "time": 23.125,
          "velocity": 0.8188976377952756,
          "duration": 0.08333333333333215
        },
        {
          "name": "A#3",
          "midi": 58,
          "time": 23.25,
          "velocity": 0.8188976377952756,
          "duration": 0.08333333333333215
        },
        {
          "name": "D4",
          "midi": 62,
          "time": 23.375,
          "velocity": 0.8188976377952756,
          "duration": 0.09895833333333215
        },
        {
          "name": "F4",
          "midi": 65,
          "time": 23.5,
          "velocity": 0.8188976377952756,
          "duration": 0.08333333333333215
        },
        {
          "name": "A#3",
          "midi": 58,
          "time": 23.625,
          "velocity": 0.8188976377952756,
          "duration": 0.09895833333333215
        },
        {
          "name": "D4",
          "midi": 62,
          "time": 23.75,
          "velocity": 0.8188976377952756,
          "duration": 0.08854166666666785
        },
        {
          "name": "F4",
          "midi": 65,
          "time": 23.875,
          "velocity": 0.8188976377952756,
          "duration": 0.08854166666666785
        },
        {
          "name": "D4",
          "midi": 62,
          "time": 24,
          "velocity": 0.8188976377952756,
          "duration": 0.08854166666666785
        },
        {
          "name": "F3",
          "midi": 53,
          "time": 24.125,
          "velocity": 0.8188976377952756,
          "duration": 0.11458333333333215
        },
        {
          "name": "A#3",
          "midi": 58,
          "time": 24.25,
          "velocity": 0.8188976377952756,
          "duration": 0.11458333333333215
        },
        {
          "name": "D4",
          "midi": 62,
          "time": 24.375,
          "velocity": 0.8188976377952756,
          "duration": 0.10416666666666785
        },
        {
          "name": "A#3",
          "midi": 58,
          "time": 24.5,
          "velocity": 0.8188976377952756,
          "duration": 0.11458333333333215
        },
        {
          "name": "D4",
          "midi": 62,
          "time": 24.625,
          "velocity": 0.8188976377952756,
          "duration": 0.109375
        },
        {
          "name": "F4",
          "midi": 65,
          "time": 24.75,
          "velocity": 0.8188976377952756,
          "duration": 0.09375
        },
        {
          "name": "D4",
          "midi": 62,
          "time": 24.875,
          "velocity": 0.8188976377952756,
          "duration": 0.08854166666666785
        },
        {
          "name": "G4",
          "midi": 67,
          "time": 25,
          "velocity": 0.8188976377952756,
          "duration": 0.10416666666666785
        },
        {
          "name": "A#4",
          "midi": 70,
          "time": 25.125,
          "velocity": 0.8188976377952756,
          "duration": 0.109375
        },
        {
          "name": "G4",
          "midi": 67,
          "time": 25.25,
          "velocity": 0.8188976377952756,
          "duration": 0.109375
        },
        {
          "name": "E4",
          "midi": 64,
          "time": 25.375,
          "velocity": 0.8188976377952756,
          "duration": 0.09895833333333215
        },
        {
          "name": "G4",
          "midi": 67,
          "time": 25.5,
          "velocity": 0.8188976377952756,
          "duration": 0.10416666666666785
        },
        {
          "name": "E4",
          "midi": 64,
          "time": 25.625,
          "velocity": 0.8188976377952756,
          "duration": 0.09895833333333215
        },
        {
          "name": "A#3",
          "midi": 58,
          "time": 25.75,
          "velocity": 0.8188976377952756,
          "duration": 0.09375
        },
        {
          "name": "G3",
          "midi": 55,
          "time": 25.875,
          "velocity": 0.8188976377952756,
          "duration": 0.08333333333333215
        },
        {
          "name": "E4",
          "midi": 64,
          "time": 26,
          "velocity": 0.8188976377952756,
          "duration": 0.08333333333333215
        },
        {
          "name": "G3",
          "midi": 55,
          "time": 26.125,
          "velocity": 0.8188976377952756,
          "duration": 0.08333333333333215
        },
        {
          "name": "A#3",
          "midi": 58,
          "time": 26.25,
          "velocity": 0.8188976377952756,
          "duration": 0.08333333333333215
        },
        {
          "name": "E4",
          "midi": 64,
          "time": 26.375,
          "velocity": 0.8188976377952756,
          "duration": 0.09895833333333215
        },
        {
          "name": "G4",
          "midi": 67,
          "time": 26.5,
          "velocity": 0.8188976377952756,
          "duration": 0.08333333333333215
        },
        {
          "name": "A#3",
          "midi": 58,
          "time": 26.625,
          "velocity": 0.8188976377952756,
          "duration": 0.08333333333333215
        },
        {
          "name": "E4",
          "midi": 64,
          "time": 26.75,
          "velocity": 0.8188976377952756,
          "duration": 0.08854166666666785
        },
        {
          "name": "G4",
          "midi": 67,
          "time": 26.875,
          "velocity": 0.8188976377952756,
          "duration": 0.08854166666666785
        },
        {
          "name": "A4",
          "midi": 69,
          "time": 27,
          "velocity": 0.8188976377952756,
          "duration": 0.08333333333333215
        },
        {
          "name": "C4",
          "midi": 60,
          "time": 27.125,
          "velocity": 0.8188976377952756,
          "duration": 0.08333333333333215
        },
        {
          "name": "G4",
          "midi": 67,
          "time": 27.25,
          "velocity": 0.8188976377952756,
          "duration": 0.08333333333333215
        },
        {
          "name": "A4",
          "midi": 69,
          "time": 27.375,
          "velocity": 0.8188976377952756,
          "duration": 0.09895833333333215
        },
        {
          "name": "C5",
          "midi": 72,
          "time": 27.5,
          "velocity": 0.8188976377952756,
          "duration": 0.08333333333333215
        },
        {
          "name": "G4",
          "midi": 67,
          "time": 27.625,
          "velocity": 0.8188976377952756,
          "duration": 0.09895833333333215
        },
        {
          "name": "A4",
          "midi": 69,
          "time": 27.75,
          "velocity": 0.8188976377952756,
          "duration": 0.08854166666666785
        },
        {
          "name": "C5",
          "midi": 72,
          "time": 27.875,
          "velocity": 0.8188976377952756,
          "duration": 0.08854166666666785
        },
        {
          "name": "F4",
          "midi": 65,
          "time": 28,
          "velocity": 0.8188976377952756,
          "duration": 0.06770833333333215
        },
        {
          "name": "C5",
          "midi": 72,
          "time": 28.125,
          "velocity": 0.8031496062992126,
          "duration": 0.0572916666666643
        },
        {
          "name": "G5",
          "midi": 79,
          "time": 28.125,
          "velocity": 0.8188976377952756,
          "duration": 0.05208333333333215
        },
        {
          "name": "A5",
          "midi": 81,
          "time": 28.125,
          "velocity": 0.8188976377952756,
          "duration": 0.05208333333333215
        },
        {
          "name": "C5",
          "midi": 72,
          "time": 28.249999999999996,
          "velocity": 0.8031496062992126,
          "duration": 0.0572916666666643
        },
        {
          "name": "F5",
          "midi": 77,
          "time": 28.249999999999996,
          "velocity": 0.8188976377952756,
          "duration": 0.05208333333333215
        },
        {
          "name": "A5",
          "midi": 81,
          "time": 28.249999999999996,
          "velocity": 0.8188976377952756,
          "duration": 0.05208333333333215
        },
        {
          "name": "C5",
          "midi": 72,
          "time": 28.374999999999993,
          "velocity": 0.8031496062992126,
          "duration": 0.06770833333333215
        },
        {
          "name": "F5",
          "midi": 77,
          "time": 28.374999999999993,
          "velocity": 0.8031496062992126,
          "duration": 0.05208333333333215
        },
        {
          "name": "A5",
          "midi": 81,
          "time": 28.374999999999993,
          "velocity": 0.8188976377952756,
          "duration": 0.05208333333333215
        },
        {
          "name": "A4",
          "midi": 69,
          "time": 28.499999999999993,
          "velocity": 0.8188976377952756,
          "duration": 0.06770833333333215
        },
        {
          "name": "C5",
          "midi": 72,
          "time": 28.624999999999993,
          "velocity": 0.8031496062992126,
          "duration": 0.0572916666666643
        },
        {
          "name": "F5",
          "midi": 77,
          "time": 28.624999999999993,
          "velocity": 0.8188976377952756,
          "duration": 0.05208333333333215
        },
        {
          "name": "A5",
          "midi": 81,
          "time": 28.624999999999993,
          "velocity": 0.8188976377952756,
          "duration": 0.05208333333333215
        },
        {
          "name": "C5",
          "midi": 72,
          "time": 28.74999999999999,
          "velocity": 0.8031496062992126,
          "duration": 0.0572916666666643
        },
        {
          "name": "F5",
          "midi": 77,
          "time": 28.74999999999999,
          "velocity": 0.8188976377952756,
          "duration": 0.05208333333333215
        },
        {
          "name": "A5",
          "midi": 81,
          "time": 28.74999999999999,
          "velocity": 0.8188976377952756,
          "duration": 0.05208333333333215
        },
        {
          "name": "C5",
          "midi": 72,
          "time": 28.874999999999986,
          "velocity": 0.8188976377952756,
          "duration": 0.0625
        },
        {
          "name": "F5",
          "midi": 77,
          "time": 28.874999999999986,
          "velocity": 0.8188976377952756,
          "duration": 0.05208333333333215
        },
        {
          "name": "A5",
          "midi": 81,
          "time": 28.874999999999986,
          "velocity": 0.8188976377952756,
          "duration": 0.05208333333333215
        },
        {
          "name": "F4",
          "midi": 65,
          "time": 28.999999999999986,
          "velocity": 0.8188976377952756,
          "duration": 0.0625
        },
        {
          "name": "C5",
          "midi": 72,
          "time": 29.124999999999986,
          "velocity": 0.8031496062992126,
          "duration": 0.05208333333333215
        },
        {
          "name": "F5",
          "midi": 77,
          "time": 29.124999999999986,
          "velocity": 0.8188976377952756,
          "duration": 0.05208333333333215
        },
        {
          "name": "A5",
          "midi": 81,
          "time": 29.124999999999986,
          "velocity": 0.8188976377952756,
          "duration": 0.05208333333333215
        },
        {
          "name": "C5",
          "midi": 72,
          "time": 29.249999999999986,
          "velocity": 0.7874015748031497,
          "duration": 0.05208333333333215
        },
        {
          "name": "F5",
          "midi": 77,
          "time": 29.249999999999986,
          "velocity": 0.8188976377952756,
          "duration": 0.05208333333333215
        },
        {
          "name": "A5",
          "midi": 81,
          "time": 29.249999999999986,
          "velocity": 0.8188976377952756,
          "duration": 0.05208333333333215
        },
        {
          "name": "C5",
          "midi": 72,
          "time": 29.374999999999986,
          "velocity": 0.8188976377952756,
          "duration": 0.0572916666666643
        },
        {
          "name": "F5",
          "midi": 77,
          "time": 29.374999999999986,
          "velocity": 0.8188976377952756,
          "duration": 0.05208333333333215
        },
        {
          "name": "A5",
          "midi": 81,
          "time": 29.374999999999986,
          "velocity": 0.8188976377952756,
          "duration": 0.05208333333333215
        },
        {
          "name": "A4",
          "midi": 69,
          "time": 29.499999999999982,
          "velocity": 0.8188976377952756,
          "duration": 0.05208333333333215
        },
        {
          "name": "C5",
          "midi": 72,
          "time": 29.624999999999982,
          "velocity": 0.8188976377952756,
          "duration": 0.05208333333333215
        },
        {
          "name": "F5",
          "midi": 77,
          "time": 29.624999999999982,
          "velocity": 0.8188976377952756,
          "duration": 0.05208333333333215
        },
        {
          "name": "A5",
          "midi": 81,
          "time": 29.624999999999982,
          "velocity": 0.8188976377952756,
          "duration": 0.05208333333333215
        },
        {
          "name": "C5",
          "midi": 72,
          "time": 29.749999999999982,
          "velocity": 0.8188976377952756,
          "duration": 0.11979166666666785
        },
        {
          "name": "F5",
          "midi": 77,
          "time": 29.749999999999982,
          "velocity": 0.8188976377952756,
          "duration": 0.0625
        },
        {
          "name": "A5",
          "midi": 81,
          "time": 29.749999999999982,
          "velocity": 0.8188976377952756,
          "duration": 0.07291666666666785
        },
        {
          "name": "C6",
          "midi": 84,
          "time": 29.874999999999982,
          "velocity": 0.8188976377952756,
          "duration": 0.07291666666666785
        },
        {
          "name": "F4",
          "midi": 65,
          "time": 29.999999999999982,
          "velocity": 0.8188976377952756,
          "duration": 0.05208333333333215
        },
        {
          "name": "C5",
          "midi": 72,
          "time": 30.124999999999982,
          "velocity": 0.8188976377952756,
          "duration": 0.05208333333333215
        },
        {
          "name": "F5",
          "midi": 77,
          "time": 30.124999999999982,
          "velocity": 0.8188976377952756,
          "duration": 0.05208333333333215
        },
        {
          "name": "A5",
          "midi": 81,
          "time": 30.124999999999982,
          "velocity": 0.8188976377952756,
          "duration": 0.05208333333333215
        },
        {
          "name": "C5",
          "midi": 72,
          "time": 30.249999999999982,
          "velocity": 0.8031496062992126,
          "duration": 0.05208333333333215
        },
        {
          "name": "F5",
          "midi": 77,
          "time": 30.249999999999982,
          "velocity": 0.8188976377952756,
          "duration": 0.05208333333333215
        },
        {
          "name": "A5",
          "midi": 81,
          "time": 30.249999999999982,
          "velocity": 0.8031496062992126,
          "duration": 0.05208333333333215
        },
        {
          "name": "C5",
          "midi": 72,
          "time": 30.374999999999982,
          "velocity": 0.8031496062992126,
          "duration": 0.05208333333333215
        },
        {
          "name": "F5",
          "midi": 77,
          "time": 30.374999999999982,
          "velocity": 0.8188976377952756,
          "duration": 0.05208333333333215
        },
        {
          "name": "A5",
          "midi": 81,
          "time": 30.374999999999982,
          "velocity": 0.8188976377952756,
          "duration": 0.05208333333333215
        },
        {
          "name": "A4",
          "midi": 69,
          "time": 30.499999999999982,
          "velocity": 0.8188976377952756,
          "duration": 0.05208333333333215
        },
        {
          "name": "C5",
          "midi": 72,
          "time": 30.624999999999982,
          "velocity": 0.8188976377952756,
          "duration": 0.05208333333333215
        },
        {
          "name": "F5",
          "midi": 77,
          "time": 30.624999999999982,
          "velocity": 0.8188976377952756,
          "duration": 0.05208333333333215
        },
        {
          "name": "A5",
          "midi": 81,
          "time": 30.624999999999982,
          "velocity": 0.8188976377952756,
          "duration": 0.05208333333333215
        },
        {
          "name": "C5",
          "midi": 72,
          "time": 30.749999999999982,
          "velocity": 0.8188976377952756,
          "duration": 0.05208333333333215
        },
        {
          "name": "F5",
          "midi": 77,
          "time": 30.749999999999982,
          "velocity": 0.8188976377952756,
          "duration": 0.05208333333333215
        },
        {
          "name": "A5",
          "midi": 81,
          "time": 30.749999999999982,
          "velocity": 0.8188976377952756,
          "duration": 0.05208333333333215
        },
        {
          "name": "C5",
          "midi": 72,
          "time": 30.874999999999982,
          "velocity": 0.8188976377952756,
          "duration": 0.05208333333333215
        },
        {
          "name": "F5",
          "midi": 77,
          "time": 30.874999999999982,
          "velocity": 0.8188976377952756,
          "duration": 0.05208333333333215
        },
        {
          "name": "A5",
          "midi": 81,
          "time": 30.874999999999982,
          "velocity": 0.8188976377952756,
          "duration": 0.05208333333333215
        },
        {
          "name": "A4",
          "midi": 69,
          "time": 30.999999999999982,
          "velocity": 0.8188976377952756,
          "duration": 0.5
        },
        {
          "name": "C5",
          "midi": 72,
          "time": 30.999999999999982,
          "velocity": 0.8188976377952756,
          "duration": 0.5
        },
        {
          "name": "F4",
          "midi": 65,
          "time": 31.499999999999982,
          "velocity": 0.8188976377952756,
          "duration": 0.203125
        },
        {
          "name": "A4",
          "midi": 69,
          "time": 31.499999999999982,
          "velocity": 0.8188976377952756,
          "duration": 0.21875
        },
        {
          "name": "C5",
          "midi": 72,
          "time": 31.749999999999982,
          "velocity": 0.8188976377952756,
          "duration": 0.109375
        },
        {
          "name": "A4",
          "midi": 69,
          "time": 31.874999999999982,
          "velocity": 0.8188976377952756,
          "duration": 0.06770833333333215
        },
        {
          "name": "F4",
          "midi": 65,
          "time": 31.999999999999982,
          "velocity": 0.7874015748031497,
          "duration": 0.25000000000000355
        },
        {
          "name": "A4",
          "midi": 69,
          "time": 31.999999999999982,
          "velocity": 0.7874015748031497,
          "duration": 0.25000000000000355
        },
        {
          "name": "A#3",
          "midi": 58,
          "time": 32.249999999999986,
          "velocity": 0.7874015748031497,
          "duration": 0.2083333333333357
        },
        {
          "name": "D4",
          "midi": 62,
          "time": 32.249999999999986,
          "velocity": 0.7874015748031497,
          "duration": 0.1770833333333357
        },
        {
          "name": "D4",
          "midi": 62,
          "time": 32.499999999999986,
          "velocity": 0.7716535433070866,
          "duration": 0.4479166666666643
        },
        {
          "name": "F4",
          "midi": 65,
          "time": 32.499999999999986,
          "velocity": 0.8188976377952756,
          "duration": 0.4583333333333286
        },
        {
          "name": "F4",
          "midi": 65,
          "time": 32.99999999999998,
          "velocity": 0.8188976377952756,
          "duration": 0.4583333333333357
        },
        {
          "name": "A4",
          "midi": 69,
          "time": 32.99999999999998,
          "velocity": 0.7874015748031497,
          "duration": 0.3802083333333357
        },
        {
          "name": "A4",
          "midi": 69,
          "time": 33.49999999999998,
          "velocity": 0.7874015748031497,
          "duration": 0.421875
        },
        {
          "name": "C5",
          "midi": 72,
          "time": 33.49999999999998,
          "velocity": 0.7716535433070866,
          "duration": 0.4375
        },
        {
          "name": "B3",
          "midi": 59,
          "time": 33.99999999999998,
          "velocity": 0.7716535433070866,
          "duration": 0.4166666666666643
        },
        {
          "name": "G4",
          "midi": 67,
          "time": 33.99999999999998,
          "velocity": 0.8031496062992126,
          "duration": 0.4895833333333286
        },
        {
          "name": "B3",
          "midi": 59,
          "time": 34.49999999999997,
          "velocity": 0.7874015748031497,
          "duration": 0.4114583333333357
        },
        {
          "name": "D4",
          "midi": 62,
          "time": 34.49999999999997,
          "velocity": 0.7716535433070866,
          "duration": 0.453125
        },
        {
          "name": "C4",
          "midi": 60,
          "time": 34.99999999999997,
          "velocity": 0.7401574803149606,
          "duration": 0.0833333333333286
        },
        {
          "name": "E4",
          "midi": 64,
          "time": 34.99999999999997,
          "velocity": 0.7716535433070866,
          "duration": 0.0729166666666643
        },
        {
          "name": "C4",
          "midi": 60,
          "time": 35.249999999999964,
          "velocity": 0.8031496062992126,
          "duration": 0.0520833333333357
        },
        {
          "name": "E4",
          "midi": 64,
          "time": 35.249999999999964,
          "velocity": 0.7874015748031497,
          "duration": 0.0520833333333357
        },
        {
          "name": "C4",
          "midi": 60,
          "time": 35.374999999999964,
          "velocity": 0.7401574803149606,
          "duration": 0.0520833333333357
        },
        {
          "name": "E4",
          "midi": 64,
          "time": 35.374999999999964,
          "velocity": 0.7401574803149606,
          "duration": 0.0520833333333357
        },
        {
          "name": "C4",
          "midi": 60,
          "time": 35.499999999999964,
          "velocity": 0.7401574803149606,
          "duration": 0.0520833333333357
        },
        {
          "name": "E4",
          "midi": 64,
          "time": 35.499999999999964,
          "velocity": 0.7401574803149606,
          "duration": 0.057291666666671404
        },
        {
          "name": "C4",
          "midi": 60,
          "time": 35.74999999999997,
          "velocity": 0.8188976377952756,
          "duration": 0.0520833333333357
        },
        {
          "name": "E4",
          "midi": 64,
          "time": 35.74999999999997,
          "velocity": 0.8188976377952756,
          "duration": 0.0520833333333357
        },
        {
          "name": "C4",
          "midi": 60,
          "time": 35.99999999999997,
          "velocity": 0.8031496062992126,
          "duration": 0.25
        },
        {
          "name": "E4",
          "midi": 64,
          "time": 35.99999999999997,
          "velocity": 0.7874015748031497,
          "duration": 0.25
        },
        {
          "name": "F4",
          "midi": 65,
          "time": 36.24999999999997,
          "velocity": 0.8031496062992126,
          "duration": 0.21875
        },
        {
          "name": "A4",
          "midi": 69,
          "time": 36.24999999999997,
          "velocity": 0.7874015748031497,
          "duration": 0.171875
        },
        {
          "name": "A4",
          "midi": 69,
          "time": 36.49999999999997,
          "velocity": 0.7874015748031497,
          "duration": 0.4375
        },
        {
          "name": "C5",
          "midi": 72,
          "time": 36.49999999999997,
          "velocity": 0.7559055118110236,
          "duration": 0.4427083333333357
        },
        {
          "name": "F4",
          "midi": 65,
          "time": 36.99999999999997,
          "velocity": 0.7874015748031497,
          "duration": 0.4791666666666643
        },
        {
          "name": "A4",
          "midi": 69,
          "time": 36.99999999999997,
          "velocity": 0.7716535433070866,
          "duration": 0.421875
        },
        {
          "name": "A4",
          "midi": 69,
          "time": 37.49999999999997,
          "velocity": 0.8188976377952756,
          "duration": 0.5208333333333357
        },
        {
          "name": "C5",
          "midi": 72,
          "time": 37.49999999999997,
          "velocity": 0.7716535433070866,
          "duration": 1.0104166666666643
        },
        {
          "name": "A5",
          "midi": 81,
          "time": 37.99999999999997,
          "velocity": 0.8188976377952756,
          "duration": 0.421875
        },
        {
          "name": "A4",
          "midi": 69,
          "time": 38.49999999999997,
          "velocity": 0.7401574803149606,
          "duration": 0.40625
        },
        {
          "name": "F5",
          "midi": 77,
          "time": 38.49999999999997,
          "velocity": 0.8188976377952756,
          "duration": 0.453125
        },
        {
          "name": "A4",
          "midi": 69,
          "time": 38.99999999999997,
          "velocity": 0.7401574803149606,
          "duration": 0.1979166666666643
        },
        {
          "name": "C5",
          "midi": 72,
          "time": 38.99999999999997,
          "velocity": 0.7716535433070866,
          "duration": 0.125
        },
        {
          "name": "D5",
          "midi": 74,
          "time": 39.12499999999997,
          "velocity": 0.7401574803149606,
          "duration": 0.0520833333333357
        },
        {
          "name": "C5",
          "midi": 72,
          "time": 39.18749999999997,
          "velocity": 0.8188976377952756,
          "duration": 0.0625
        },
        {
          "name": "C4",
          "midi": 60,
          "time": 39.24999999999997,
          "velocity": 0.7401574803149606,
          "duration": 0.0625
        },
        {
          "name": "F4",
          "midi": 65,
          "time": 39.24999999999997,
          "velocity": 0.7401574803149606,
          "duration": 0.0625
        },
        {
          "name": "A4",
          "midi": 69,
          "time": 39.24999999999997,
          "velocity": 0.7401574803149606,
          "duration": 0.0625
        },
        {
          "name": "A5",
          "midi": 81,
          "time": 39.24999999999997,
          "velocity": 0.8188976377952756,
          "duration": 0.0833333333333357
        },
        {
          "name": "C4",
          "midi": 60,
          "time": 39.37499999999997,
          "velocity": 0.7401574803149606,
          "duration": 0.0625
        },
        {
          "name": "F4",
          "midi": 65,
          "time": 39.37499999999997,
          "velocity": 0.7559055118110236,
          "duration": 0.0625
        },
        {
          "name": "A4",
          "midi": 69,
          "time": 39.37499999999997,
          "velocity": 0.7874015748031497,
          "duration": 0.0625
        },
        {
          "name": "C6",
          "midi": 84,
          "time": 39.37499999999997,
          "velocity": 0.8188976377952756,
          "duration": 0.0833333333333357
        },
        {
          "name": "A5",
          "midi": 81,
          "time": 39.49999999999997,
          "velocity": 0.8188976377952756,
          "duration": 0.0833333333333357
        },
        {
          "name": "C4",
          "midi": 60,
          "time": 39.62499999999997,
          "velocity": 0.7559055118110236,
          "duration": 0.0625
        },
        {
          "name": "F4",
          "midi": 65,
          "time": 39.62499999999997,
          "velocity": 0.8031496062992126,
          "duration": 0.0625
        },
        {
          "name": "A4",
          "midi": 69,
          "time": 39.62499999999997,
          "velocity": 0.8031496062992126,
          "duration": 0.0625
        },
        {
          "name": "F5",
          "midi": 77,
          "time": 39.62499999999997,
          "velocity": 0.8188976377952756,
          "duration": 0.078125
        },
        {
          "name": "C4",
          "midi": 60,
          "time": 39.74999999999997,
          "velocity": 0.7401574803149606,
          "duration": 0.0625
        },
        {
          "name": "F4",
          "midi": 65,
          "time": 39.74999999999997,
          "velocity": 0.7401574803149606,
          "duration": 0.0625
        },
        {
          "name": "A4",
          "midi": 69,
          "time": 39.74999999999997,
          "velocity": 0.7716535433070866,
          "duration": 0.0625
        },
        {
          "name": "C5",
          "midi": 72,
          "time": 39.74999999999997,
          "velocity": 0.8188976377952756,
          "duration": 0.0729166666666643
        },
        {
          "name": "C4",
          "midi": 60,
          "time": 39.87499999999997,
          "velocity": 0.7559055118110236,
          "duration": 0.0625
        },
        {
          "name": "F4",
          "midi": 65,
          "time": 39.87499999999997,
          "velocity": 0.7874015748031497,
          "duration": 0.0625
        },
        {
          "name": "A4",
          "midi": 69,
          "time": 39.87499999999997,
          "velocity": 0.8188976377952756,
          "duration": 0.0625
        },
        {
          "name": "F4",
          "midi": 65,
          "time": 39.99999999999997,
          "velocity": 0.7874015748031497,
          "duration": 0.25
        },
        {
          "name": "A4",
          "midi": 69,
          "time": 39.99999999999997,
          "velocity": 0.7874015748031497,
          "duration": 0.25
        },
        {
          "name": "A#3",
          "midi": 58,
          "time": 40.24999999999997,
          "velocity": 0.7874015748031497,
          "duration": 0.2083333333333357
        },
        {
          "name": "D4",
          "midi": 62,
          "time": 40.24999999999997,
          "velocity": 0.7874015748031497,
          "duration": 0.1770833333333357
        },
        {
          "name": "D4",
          "midi": 62,
          "time": 40.49999999999997,
          "velocity": 0.7716535433070866,
          "duration": 0.4479166666666643
        },
        {
          "name": "F4",
          "midi": 65,
          "time": 40.49999999999997,
          "velocity": 0.8188976377952756,
          "duration": 0.4583333333333286
        },
        {
          "name": "F4",
          "midi": 65,
          "time": 40.999999999999964,
          "velocity": 0.8188976377952756,
          "duration": 0.4583333333333357
        },
        {
          "name": "A4",
          "midi": 69,
          "time": 40.999999999999964,
          "velocity": 0.7874015748031497,
          "duration": 0.3802083333333357
        },
        {
          "name": "A4",
          "midi": 69,
          "time": 41.499999999999964,
          "velocity": 0.7874015748031497,
          "duration": 0.421875
        },
        {
          "name": "C5",
          "midi": 72,
          "time": 41.499999999999964,
          "velocity": 0.7716535433070866,
          "duration": 0.4375
        },
        {
          "name": "E4",
          "midi": 64,
          "time": 41.999999999999964,
          "velocity": 0.7716535433070866,
          "duration": 0.4166666666666643
        },
        {
          "name": "A#4",
          "midi": 70,
          "time": 41.999999999999964,
          "velocity": 0.8031496062992126,
          "duration": 0.4895833333333286
        },
        {
          "name": "E4",
          "midi": 64,
          "time": 42.49999999999996,
          "velocity": 0.7874015748031497,
          "duration": 0.4114583333333357
        },
        {
          "name": "G4",
          "midi": 67,
          "time": 42.49999999999996,
          "velocity": 0.7716535433070866,
          "duration": 0.453125
        },
        {
          "name": "F4",
          "midi": 65,
          "time": 42.99999999999996,
          "velocity": 0.7401574803149606,
          "duration": 0.0833333333333286
        },
        {
          "name": "A4",
          "midi": 69,
          "time": 42.99999999999996,
          "velocity": 0.7716535433070866,
          "duration": 0.0729166666666643
        },
        {
          "name": "F4",
          "midi": 65,
          "time": 43.24999999999995,
          "velocity": 0.8031496062992126,
          "duration": 0.0520833333333357
        },
        {
          "name": "A4",
          "midi": 69,
          "time": 43.24999999999995,
          "velocity": 0.7874015748031497,
          "duration": 0.0520833333333357
        },
        {
          "name": "F4",
          "midi": 65,
          "time": 43.37499999999995,
          "velocity": 0.7401574803149606,
          "duration": 0.0520833333333357
        },
        {
          "name": "A4",
          "midi": 69,
          "time": 43.37499999999995,
          "velocity": 0.7401574803149606,
          "duration": 0.0520833333333357
        },
        {
          "name": "F4",
          "midi": 65,
          "time": 43.49999999999995,
          "velocity": 0.7401574803149606,
          "duration": 0.0520833333333357
        },
        {
          "name": "A4",
          "midi": 69,
          "time": 43.49999999999995,
          "velocity": 0.7401574803149606,
          "duration": 0.057291666666671404
        },
        {
          "name": "F4",
          "midi": 65,
          "time": 43.74999999999996,
          "velocity": 0.8188976377952756,
          "duration": 0.0520833333333357
        },
        {
          "name": "A4",
          "midi": 69,
          "time": 43.74999999999996,
          "velocity": 0.8188976377952756,
          "duration": 0.0520833333333357
        },
        {
          "name": "C5",
          "midi": 72,
          "time": 43.99999999999996,
          "velocity": 0.8188976377952756,
          "duration": 0.3125
        },
        {
          "name": "A5",
          "midi": 81,
          "time": 43.99999999999996,
          "velocity": 0.8188976377952756,
          "duration": 0.3125
        },
        {
          "name": "A4",
          "midi": 69,
          "time": 44.37499999999996,
          "velocity": 0.8188976377952756,
          "duration": 0.0677083333333357
        },
        {
          "name": "F5",
          "midi": 77,
          "time": 44.37499999999996,
          "velocity": 0.8188976377952756,
          "duration": 0.0625
        },
        {
          "name": "A4",
          "midi": 69,
          "time": 44.49999999999996,
          "velocity": 0.8188976377952756,
          "duration": 0.0833333333333357
        },
        {
          "name": "F5",
          "midi": 77,
          "time": 44.49999999999996,
          "velocity": 0.8188976377952756,
          "duration": 0.078125
        },
        {
          "name": "A4",
          "midi": 69,
          "time": 44.74999999999996,
          "velocity": 0.8188976377952756,
          "duration": 0.0520833333333357
        },
        {
          "name": "C5",
          "midi": 72,
          "time": 44.74999999999996,
          "velocity": 0.8188976377952756,
          "duration": 0.0520833333333357
        },
        {
          "name": "A4",
          "midi": 69,
          "time": 44.99999999999996,
          "velocity": 0.8188976377952756,
          "duration": 0.5
        },
        {
          "name": "C5",
          "midi": 72,
          "time": 44.99999999999996,
          "velocity": 0.8188976377952756,
          "duration": 0.5
        },
        {
          "name": "F4",
          "midi": 65,
          "time": 45.49999999999996,
          "velocity": 0.8188976377952756,
          "duration": 0.203125
        },
        {
          "name": "A4",
          "midi": 69,
          "time": 45.49999999999996,
          "velocity": 0.8188976377952756,
          "duration": 0.21875
        },
        {
          "name": "C5",
          "midi": 72,
          "time": 45.74999999999996,
          "velocity": 0.8188976377952756,
          "duration": 0.109375
        },
        {
          "name": "A4",
          "midi": 69,
          "time": 45.87499999999996,
          "velocity": 0.8188976377952756,
          "duration": 0.0677083333333357
        },
        {
          "name": "F4",
          "midi": 65,
          "time": 45.99999999999996,
          "velocity": 0.8188976377952756,
          "duration": 0.078125
        },
        {
          "name": "C4",
          "midi": 60,
          "time": 46.12499999999996,
          "velocity": 0.7401574803149606,
          "duration": 0.0625
        },
        {
          "name": "F4",
          "midi": 65,
          "time": 46.12499999999996,
          "velocity": 0.7401574803149606,
          "duration": 0.0625
        },
        {
          "name": "A4",
          "midi": 69,
          "time": 46.12499999999996,
          "velocity": 0.8188976377952756,
          "duration": 0.0833333333333357
        },
        {
          "name": "C4",
          "midi": 60,
          "time": 46.24999999999996,
          "velocity": 0.7401574803149606,
          "duration": 0.0625
        },
        {
          "name": "F4",
          "midi": 65,
          "time": 46.24999999999996,
          "velocity": 0.7401574803149606,
          "duration": 0.0625
        },
        {
          "name": "A4",
          "midi": 69,
          "time": 46.24999999999996,
          "velocity": 0.7401574803149606,
          "duration": 0.0572916666666643
        },
        {
          "name": "C5",
          "midi": 72,
          "time": 46.24999999999996,
          "velocity": 0.8188976377952756,
          "duration": 0.0572916666666643
        },
        {
          "name": "C4",
          "midi": 60,
          "time": 46.37499999999996,
          "velocity": 0.7401574803149606,
          "duration": 0.0625
        },
        {
          "name": "F4",
          "midi": 65,
          "time": 46.37499999999996,
          "velocity": 0.7401574803149606,
          "duration": 0.0625
        },
        {
          "name": "A4",
          "midi": 69,
          "time": 46.37499999999996,
          "velocity": 0.8188976377952756,
          "duration": 0.0833333333333357
        },
        {
          "name": "C5",
          "midi": 72,
          "time": 46.49999999999996,
          "velocity": 0.8188976377952756,
          "duration": 0.0989583333333357
        },
        {
          "name": "C4",
          "midi": 60,
          "time": 46.62499999999996,
          "velocity": 0.7401574803149606,
          "duration": 0.0625
        },
        {
          "name": "F4",
          "midi": 65,
          "time": 46.62499999999996,
          "velocity": 0.7401574803149606,
          "duration": 0.0625
        },
        {
          "name": "A4",
          "midi": 69,
          "time": 46.62499999999996,
          "velocity": 0.7401574803149606,
          "duration": 0.0625
        },
        {
          "name": "F5",
          "midi": 77,
          "time": 46.62499999999996,
          "velocity": 0.8188976377952756,
          "duration": 0.0729166666666643
        },
        {
          "name": "C4",
          "midi": 60,
          "time": 46.74999999999996,
          "velocity": 0.7401574803149606,
          "duration": 0.0625
        },
        {
          "name": "F4",
          "midi": 65,
          "time": 46.74999999999996,
          "velocity": 0.7401574803149606,
          "duration": 0.0625
        },
        {
          "name": "A4",
          "midi": 69,
          "time": 46.74999999999996,
          "velocity": 0.7401574803149606,
          "duration": 0.0625
        },
        {
          "name": "C5",
          "midi": 72,
          "time": 46.74999999999996,
          "velocity": 0.8188976377952756,
          "duration": 0.078125
        },
        {
          "name": "C4",
          "midi": 60,
          "time": 46.87499999999996,
          "velocity": 0.7401574803149606,
          "duration": 0.0625
        },
        {
          "name": "F4",
          "midi": 65,
          "time": 46.87499999999996,
          "velocity": 0.7401574803149606,
          "duration": 0.0625
        },
        {
          "name": "A4",
          "midi": 69,
          "time": 46.87499999999996,
          "velocity": 0.7716535433070866,
          "duration": 0.0625
        },
        {
          "name": "F5",
          "midi": 77,
          "time": 46.87499999999996,
          "velocity": 0.8188976377952756,
          "duration": 0.0989583333333357
        },
        {
          "name": "A5",
          "midi": 81,
          "time": 46.99999999999996,
          "velocity": 0.8188976377952756,
          "duration": 0.0729166666666643
        },
        {
          "name": "C4",
          "midi": 60,
          "time": 47.12499999999996,
          "velocity": 0.7401574803149606,
          "duration": 0.0625
        },
        {
          "name": "F4",
          "midi": 65,
          "time": 47.12499999999996,
          "velocity": 0.7401574803149606,
          "duration": 0.0625
        },
        {
          "name": "A4",
          "midi": 69,
          "time": 47.12499999999996,
          "velocity": 0.7716535433070866,
          "duration": 0.0625
        },
        {
          "name": "F5",
          "midi": 77,
          "time": 47.12499999999996,
          "velocity": 0.8188976377952756,
          "duration": 0.0677083333333357
        },
        {
          "name": "F3",
          "midi": 53,
          "time": 47.24999999999996,
          "velocity": 0.7401574803149606,
          "duration": 0.0625
        },
        {
          "name": "A#3",
          "midi": 58,
          "time": 47.24999999999996,
          "velocity": 0.7401574803149606,
          "duration": 0.0625
        },
        {
          "name": "D4",
          "midi": 62,
          "time": 47.24999999999996,
          "velocity": 0.7401574803149606,
          "duration": 0.0625
        },
        {
          "name": "D5",
          "midi": 74,
          "time": 47.24999999999996,
          "velocity": 0.8188976377952756,
          "duration": 0.0833333333333357
        },
        {
          "name": "F3",
          "midi": 53,
          "time": 47.37499999999996,
          "velocity": 0.7401574803149606,
          "duration": 0.0625
        },
        {
          "name": "A#3",
          "midi": 58,
          "time": 47.37499999999996,
          "velocity": 0.7559055118110236,
          "duration": 0.0625
        },
        {
          "name": "D4",
          "midi": 62,
          "time": 47.37499999999996,
          "velocity": 0.7874015748031497,
          "duration": 0.0625
        },
        {
          "name": "F5",
          "midi": 77,
          "time": 47.37499999999996,
          "velocity": 0.8188976377952756,
          "duration": 0.0833333333333357
        },
        {
          "name": "D5",
          "midi": 74,
          "time": 47.49999999999996,
          "velocity": 0.8188976377952756,
          "duration": 0.0833333333333357
        },
        {
          "name": "F3",
          "midi": 53,
          "time": 47.62499999999996,
          "velocity": 0.7559055118110236,
          "duration": 0.0625
        },
        {
          "name": "A#3",
          "midi": 58,
          "time": 47.62499999999996,
          "velocity": 0.8031496062992126,
          "duration": 0.0625
        },
        {
          "name": "D4",
          "midi": 62,
          "time": 47.62499999999996,
          "velocity": 0.8031496062992126,
          "duration": 0.0625
        },
        {
          "name": "A#4",
          "midi": 70,
          "time": 47.62499999999996,
          "velocity": 0.8188976377952756,
          "duration": 0.078125
        },
        {
          "name": "F3",
          "midi": 53,
          "time": 47.74999999999996,
          "velocity": 0.7401574803149606,
          "duration": 0.0625
        },
        {
          "name": "A#3",
          "midi": 58,
          "time": 47.74999999999996,
          "velocity": 0.7401574803149606,
          "duration": 0.0625
        },
        {
          "name": "D4",
          "midi": 62,
          "time": 47.74999999999996,
          "velocity": 0.7716535433070866,
          "duration": 0.0625
        },
        {
          "name": "F4",
          "midi": 65,
          "time": 47.74999999999996,
          "velocity": 0.8188976377952756,
          "duration": 0.0729166666666643
        },
        {
          "name": "F3",
          "midi": 53,
          "time": 47.87499999999996,
          "velocity": 0.7559055118110236,
          "duration": 0.0625
        },
        {
          "name": "A#3",
          "midi": 58,
          "time": 47.87499999999996,
          "velocity": 0.7874015748031497,
          "duration": 0.0625
        },
        {
          "name": "D4",
          "midi": 62,
          "time": 47.87499999999996,
          "velocity": 0.8188976377952756,
          "duration": 0.0625
        },
        {
          "name": "A#3",
          "midi": 58,
          "time": 47.99999999999996,
          "velocity": 0.8188976377952756,
          "duration": 0.0520833333333357
        },
        {
          "name": "F4",
          "midi": 65,
          "time": 48.12499999999996,
          "velocity": 0.8188976377952756,
          "duration": 0.0520833333333357
        },
        {
          "name": "A#4",
          "midi": 70,
          "time": 48.12499999999996,
          "velocity": 0.8188976377952756,
          "duration": 0.0520833333333357
        },
        {
          "name": "D5",
          "midi": 74,
          "time": 48.12499999999996,
          "velocity": 0.8188976377952756,
          "duration": 0.0520833333333357
        },
        {
          "name": "F4",
          "midi": 65,
          "time": 48.24999999999996,
          "velocity": 0.8031496062992126,
          "duration": 0.0520833333333357
        },
        {
          "name": "A#4",
          "midi": 70,
          "time": 48.24999999999996,
          "velocity": 0.8188976377952756,
          "duration": 0.0520833333333357
        },
        {
          "name": "D5",
          "midi": 74,
          "time": 48.24999999999996,
          "velocity": 0.8031496062992126,
          "duration": 0.0520833333333357
        },
        {
          "name": "F4",
          "midi": 65,
          "time": 48.37499999999996,
          "velocity": 0.8031496062992126,
          "duration": 0.0520833333333357
        },
        {
          "name": "A#4",
          "midi": 70,
          "time": 48.37499999999996,
          "velocity": 0.8188976377952756,
          "duration": 0.0520833333333357
        },
        {
          "name": "D5",
          "midi": 74,
          "time": 48.37499999999996,
          "velocity": 0.8188976377952756,
          "duration": 0.0520833333333357
        },
        {
          "name": "D4",
          "midi": 62,
          "time": 48.49999999999996,
          "velocity": 0.8188976377952756,
          "duration": 0.0520833333333357
        },
        {
          "name": "F4",
          "midi": 65,
          "time": 48.62499999999996,
          "velocity": 0.8188976377952756,
          "duration": 0.0520833333333357
        },
        {
          "name": "A#4",
          "midi": 70,
          "time": 48.62499999999996,
          "velocity": 0.8188976377952756,
          "duration": 0.0520833333333357
        },
        {
          "name": "D5",
          "midi": 74,
          "time": 48.62499999999996,
          "velocity": 0.8188976377952756,
          "duration": 0.0520833333333357
        },
        {
          "name": "F4",
          "midi": 65,
          "time": 48.74999999999996,
          "velocity": 0.8188976377952756,
          "duration": 0.0520833333333357
        },
        {
          "name": "A#4",
          "midi": 70,
          "time": 48.74999999999996,
          "velocity": 0.8188976377952756,
          "duration": 0.0520833333333357
        },
        {
          "name": "D5",
          "midi": 74,
          "time": 48.74999999999996,
          "velocity": 0.8188976377952756,
          "duration": 0.0520833333333357
        },
        {
          "name": "F4",
          "midi": 65,
          "time": 48.87499999999996,
          "velocity": 0.8188976377952756,
          "duration": 0.0520833333333357
        },
        {
          "name": "A#4",
          "midi": 70,
          "time": 48.87499999999996,
          "velocity": 0.8188976377952756,
          "duration": 0.0520833333333357
        },
        {
          "name": "D5",
          "midi": 74,
          "time": 48.87499999999996,
          "velocity": 0.8188976377952756,
          "duration": 0.0520833333333357
        },
        {
          "name": "C4",
          "midi": 60,
          "time": 48.99999999999996,
          "velocity": 0.8188976377952756,
          "duration": 0.0520833333333357
        },
        {
          "name": "G4",
          "midi": 67,
          "time": 49.12499999999996,
          "velocity": 0.8188976377952756,
          "duration": 0.0520833333333357
        },
        {
          "name": "A#4",
          "midi": 70,
          "time": 49.12499999999996,
          "velocity": 0.8188976377952756,
          "duration": 0.0520833333333357
        },
        {
          "name": "E5",
          "midi": 76,
          "time": 49.12499999999996,
          "velocity": 0.8188976377952756,
          "duration": 0.0520833333333357
        },
        {
          "name": "G4",
          "midi": 67,
          "time": 49.24999999999996,
          "velocity": 0.7874015748031497,
          "duration": 0.0520833333333357
        },
        {
          "name": "A#4",
          "midi": 70,
          "time": 49.24999999999996,
          "velocity": 0.8188976377952756,
          "duration": 0.0520833333333357
        },
        {
          "name": "E5",
          "midi": 76,
          "time": 49.24999999999996,
          "velocity": 0.8188976377952756,
          "duration": 0.0520833333333357
        },
        {
          "name": "G4",
          "midi": 67,
          "time": 49.37499999999996,
          "velocity": 0.8188976377952756,
          "duration": 0.0520833333333357
        },
        {
          "name": "A#4",
          "midi": 70,
          "time": 49.37499999999996,
          "velocity": 0.8188976377952756,
          "duration": 0.0520833333333357
        },
        {
          "name": "E5",
          "midi": 76,
          "time": 49.37499999999996,
          "velocity": 0.8188976377952756,
          "duration": 0.0520833333333357
        },
        {
          "name": "E4",
          "midi": 64,
          "time": 49.49999999999996,
          "velocity": 0.8188976377952756,
          "duration": 0.0520833333333357
        },
        {
          "name": "G4",
          "midi": 67,
          "time": 49.62499999999996,
          "velocity": 0.8031496062992126,
          "duration": 0.0520833333333357
        },
        {
          "name": "A#4",
          "midi": 70,
          "time": 49.62499999999996,
          "velocity": 0.8188976377952756,
          "duration": 0.0520833333333357
        },
        {
          "name": "E5",
          "midi": 76,
          "time": 49.62499999999996,
          "velocity": 0.8188976377952756,
          "duration": 0.0520833333333357
        },
        {
          "name": "G4",
          "midi": 67,
          "time": 49.74999999999996,
          "velocity": 0.7874015748031497,
          "duration": 0.0520833333333357
        },
        {
          "name": "A#4",
          "midi": 70,
          "time": 49.74999999999996,
          "velocity": 0.8188976377952756,
          "duration": 0.0520833333333357
        },
        {
          "name": "E5",
          "midi": 76,
          "time": 49.74999999999996,
          "velocity": 0.8188976377952756,
          "duration": 0.0520833333333357
        },
        {
          "name": "G4",
          "midi": 67,
          "time": 49.87499999999996,
          "velocity": 0.8031496062992126,
          "duration": 0.057291666666671404
        },
        {
          "name": "A#4",
          "midi": 70,
          "time": 49.87499999999996,
          "velocity": 0.8188976377952756,
          "duration": 0.0520833333333357
        },
        {
          "name": "E5",
          "midi": 76,
          "time": 49.87499999999996,
          "velocity": 0.8188976377952756,
          "duration": 0.057291666666671404
        },
        {
          "name": "C4",
          "midi": 60,
          "time": 49.999999999999964,
          "velocity": 0.8188976377952756,
          "duration": 0.0520833333333357
        },
        {
          "name": "G4",
          "midi": 67,
          "time": 50.124999999999964,
          "velocity": 0.8188976377952756,
          "duration": 0.0520833333333357
        },
        {
          "name": "A#4",
          "midi": 70,
          "time": 50.124999999999964,
          "velocity": 0.8188976377952756,
          "duration": 0.0520833333333357
        },
        {
          "name": "E5",
          "midi": 76,
          "time": 50.124999999999964,
          "velocity": 0.8188976377952756,
          "duration": 0.0520833333333357
        },
        {
          "name": "G4",
          "midi": 67,
          "time": 50.249999999999964,
          "velocity": 0.8188976377952756,
          "duration": 0.0520833333333357
        },
        {
          "name": "A#4",
          "midi": 70,
          "time": 50.249999999999964,
          "velocity": 0.8188976377952756,
          "duration": 0.0520833333333357
        },
        {
          "name": "E5",
          "midi": 76,
          "time": 50.249999999999964,
          "velocity": 0.8188976377952756,
          "duration": 0.0520833333333357
        },
        {
          "name": "G4",
          "midi": 67,
          "time": 50.374999999999964,
          "velocity": 0.8188976377952756,
          "duration": 0.057291666666671404
        },
        {
          "name": "A#4",
          "midi": 70,
          "time": 50.374999999999964,
          "velocity": 0.8188976377952756,
          "duration": 0.0520833333333357
        },
        {
          "name": "E5",
          "midi": 76,
          "time": 50.374999999999964,
          "velocity": 0.8188976377952756,
          "duration": 0.0520833333333357
        },
        {
          "name": "E4",
          "midi": 64,
          "time": 50.49999999999997,
          "velocity": 0.8188976377952756,
          "duration": 0.0520833333333357
        },
        {
          "name": "G4",
          "midi": 67,
          "time": 50.62499999999997,
          "velocity": 0.7874015748031497,
          "duration": 0.0520833333333357
        },
        {
          "name": "A#4",
          "midi": 70,
          "time": 50.62499999999997,
          "velocity": 0.8031496062992126,
          "duration": 0.0520833333333357
        },
        {
          "name": "E5",
          "midi": 76,
          "time": 50.62499999999997,
          "velocity": 0.8188976377952756,
          "duration": 0.0520833333333357
        },
        {
          "name": "G4",
          "midi": 67,
          "time": 50.74999999999997,
          "velocity": 0.8031496062992126,
          "duration": 0.0520833333333357
        },
        {
          "name": "A#4",
          "midi": 70,
          "time": 50.74999999999997,
          "velocity": 0.8188976377952756,
          "duration": 0.0520833333333357
        },
        {
          "name": "E5",
          "midi": 76,
          "time": 50.74999999999997,
          "velocity": 0.8188976377952756,
          "duration": 0.0520833333333357
        },
        {
          "name": "G4",
          "midi": 67,
          "time": 50.87499999999997,
          "velocity": 0.8031496062992126,
          "duration": 0.0520833333333357
        },
        {
          "name": "A#4",
          "midi": 70,
          "time": 50.87499999999997,
          "velocity": 0.8188976377952756,
          "duration": 0.0520833333333357
        },
        {
          "name": "E5",
          "midi": 76,
          "time": 50.87499999999997,
          "velocity": 0.8188976377952756,
          "duration": 0.0520833333333357
        },
        {
          "name": "C4",
          "midi": 60,
          "time": 50.99999999999997,
          "velocity": 0.8188976377952756,
          "duration": 0.0520833333333357
        },
        {
          "name": "G4",
          "midi": 67,
          "time": 51.12499999999997,
          "velocity": 0.8188976377952756,
          "duration": 0.057291666666671404
        },
        {
          "name": "A#4",
          "midi": 70,
          "time": 51.12499999999997,
          "velocity": 0.8188976377952756,
          "duration": 0.0520833333333357
        },
        {
          "name": "E5",
          "midi": 76,
          "time": 51.12499999999997,
          "velocity": 0.8188976377952756,
          "duration": 0.0520833333333357
        },
        {
          "name": "A4",
          "midi": 69,
          "time": 51.24999999999998,
          "velocity": 0.8188976377952756,
          "duration": 0.0520833333333357
        },
        {
          "name": "C5",
          "midi": 72,
          "time": 51.37499999999998,
          "velocity": 0.8188976377952756,
          "duration": 0.0520833333333357
        },
        {
          "name": "F5",
          "midi": 77,
          "time": 51.37499999999998,
          "velocity": 0.8031496062992126,
          "duration": 0.0520833333333357
        },
        {
          "name": "A5",
          "midi": 81,
          "time": 51.37499999999998,
          "velocity": 0.8188976377952756,
          "duration": 0.0520833333333357
        },
        {
          "name": "F5",
          "midi": 77,
          "time": 51.62499999999998,
          "velocity": 0.7716535433070866,
          "duration": 0.0520833333333357
        },
        {
          "name": "A5",
          "midi": 81,
          "time": 51.62499999999998,
          "velocity": 0.8031496062992126,
          "duration": 0.0520833333333357
        },
        {
          "name": "C6",
          "midi": 84,
          "time": 51.62499999999998,
          "velocity": 0.8188976377952756,
          "duration": 0.0520833333333357
        },
        {
          "name": "C5",
          "midi": 72,
          "time": 51.74999999999998,
          "velocity": 0.8188976377952756,
          "duration": 0.0520833333333357
        },
        {
          "name": "C5",
          "midi": 72,
          "time": 51.87499999999998,
          "velocity": 0.8188976377952756,
          "duration": 0.0520833333333357
        },
        {
          "name": "F5",
          "midi": 77,
          "time": 51.87499999999998,
          "velocity": 0.8188976377952756,
          "duration": 0.0520833333333357
        },
        {
          "name": "A5",
          "midi": 81,
          "time": 51.87499999999998,
          "velocity": 0.8188976377952756,
          "duration": 0.0520833333333357
        },
        {
          "name": "F4",
          "midi": 65,
          "time": 51.99999999999998,
          "velocity": 0.8188976377952756,
          "duration": 0.0520833333333357
        },
        {
          "name": "C5",
          "midi": 72,
          "time": 52.12499999999998,
          "velocity": 0.8188976377952756,
          "duration": 0.0520833333333357
        },
        {
          "name": "F5",
          "midi": 77,
          "time": 52.12499999999998,
          "velocity": 0.8188976377952756,
          "duration": 0.0520833333333357
        },
        {
          "name": "A5",
          "midi": 81,
          "time": 52.12499999999998,
          "velocity": 0.8188976377952756,
          "duration": 0.0520833333333357
        },
        {
          "name": "C5",
          "midi": 72,
          "time": 52.24999999999998,
          "velocity": 0.8031496062992126,
          "duration": 0.0520833333333357
        },
        {
          "name": "F5",
          "midi": 77,
          "time": 52.24999999999998,
          "velocity": 0.8188976377952756,
          "duration": 0.0520833333333357
        },
        {
          "name": "A5",
          "midi": 81,
          "time": 52.24999999999998,
          "velocity": 0.8031496062992126,
          "duration": 0.0520833333333357
        },
        {
          "name": "C5",
          "midi": 72,
          "time": 52.37499999999998,
          "velocity": 0.8031496062992126,
          "duration": 0.0520833333333357
        },
        {
          "name": "F5",
          "midi": 77,
          "time": 52.37499999999998,
          "velocity": 0.8188976377952756,
          "duration": 0.0520833333333357
        },
        {
          "name": "A5",
          "midi": 81,
          "time": 52.37499999999998,
          "velocity": 0.8188976377952756,
          "duration": 0.0520833333333357
        },
        {
          "name": "A4",
          "midi": 69,
          "time": 52.49999999999998,
          "velocity": 0.8188976377952756,
          "duration": 0.0520833333333357
        },
        {
          "name": "C5",
          "midi": 72,
          "time": 52.62499999999998,
          "velocity": 0.8188976377952756,
          "duration": 0.0520833333333357
        },
        {
          "name": "F5",
          "midi": 77,
          "time": 52.62499999999998,
          "velocity": 0.8188976377952756,
          "duration": 0.0520833333333357
        },
        {
          "name": "A5",
          "midi": 81,
          "time": 52.62499999999998,
          "velocity": 0.8188976377952756,
          "duration": 0.0520833333333357
        },
        {
          "name": "C5",
          "midi": 72,
          "time": 52.74999999999998,
          "velocity": 0.8188976377952756,
          "duration": 0.0520833333333357
        },
        {
          "name": "F5",
          "midi": 77,
          "time": 52.74999999999998,
          "velocity": 0.8188976377952756,
          "duration": 0.0520833333333357
        },
        {
          "name": "A5",
          "midi": 81,
          "time": 52.74999999999998,
          "velocity": 0.8188976377952756,
          "duration": 0.0520833333333357
        },
        {
          "name": "C5",
          "midi": 72,
          "time": 52.87499999999998,
          "velocity": 0.8188976377952756,
          "duration": 0.0520833333333357
        },
        {
          "name": "F5",
          "midi": 77,
          "time": 52.87499999999998,
          "velocity": 0.8188976377952756,
          "duration": 0.0520833333333357
        },
        {
          "name": "A5",
          "midi": 81,
          "time": 52.87499999999998,
          "velocity": 0.8188976377952756,
          "duration": 0.0520833333333357
        },
        {
          "name": "F4",
          "midi": 65,
          "time": 52.99999999999998,
          "velocity": 0.8188976377952756,
          "duration": 0.0520833333333357
        },
        {
          "name": "C5",
          "midi": 72,
          "time": 53.12499999999998,
          "velocity": 0.8188976377952756,
          "duration": 0.0520833333333357
        },
        {
          "name": "F5",
          "midi": 77,
          "time": 53.12499999999998,
          "velocity": 0.8188976377952756,
          "duration": 0.0520833333333357
        },
        {
          "name": "A5",
          "midi": 81,
          "time": 53.12499999999998,
          "velocity": 0.8188976377952756,
          "duration": 0.0520833333333357
        },
        {
          "name": "C5",
          "midi": 72,
          "time": 53.24999999999998,
          "velocity": 0.7874015748031497,
          "duration": 0.0520833333333357
        },
        {
          "name": "F5",
          "midi": 77,
          "time": 53.24999999999998,
          "velocity": 0.8188976377952756,
          "duration": 0.0520833333333357
        },
        {
          "name": "A5",
          "midi": 81,
          "time": 53.24999999999998,
          "velocity": 0.8188976377952756,
          "duration": 0.0520833333333357
        },
        {
          "name": "C5",
          "midi": 72,
          "time": 53.37499999999998,
          "velocity": 0.8188976377952756,
          "duration": 0.0520833333333357
        },
        {
          "name": "F5",
          "midi": 77,
          "time": 53.37499999999998,
          "velocity": 0.8188976377952756,
          "duration": 0.0520833333333357
        },
        {
          "name": "A5",
          "midi": 81,
          "time": 53.37499999999998,
          "velocity": 0.8188976377952756,
          "duration": 0.0520833333333357
        },
        {
          "name": "A4",
          "midi": 69,
          "time": 53.49999999999998,
          "velocity": 0.8188976377952756,
          "duration": 0.0520833333333357
        },
        {
          "name": "C5",
          "midi": 72,
          "time": 53.62499999999998,
          "velocity": 0.8031496062992126,
          "duration": 0.0520833333333357
        },
        {
          "name": "F5",
          "midi": 77,
          "time": 53.62499999999998,
          "velocity": 0.8188976377952756,
          "duration": 0.0520833333333357
        },
        {
          "name": "A5",
          "midi": 81,
          "time": 53.62499999999998,
          "velocity": 0.8188976377952756,
          "duration": 0.0520833333333357
        },
        {
          "name": "C5",
          "midi": 72,
          "time": 53.74999999999998,
          "velocity": 0.7874015748031497,
          "duration": 0.0520833333333357
        },
        {
          "name": "F5",
          "midi": 77,
          "time": 53.74999999999998,
          "velocity": 0.8188976377952756,
          "duration": 0.0520833333333357
        },
        {
          "name": "A5",
          "midi": 81,
          "time": 53.74999999999998,
          "velocity": 0.8188976377952756,
          "duration": 0.0520833333333357
        },
        {
          "name": "C5",
          "midi": 72,
          "time": 53.87499999999998,
          "velocity": 0.8031496062992126,
          "duration": 0.057291666666671404
        },
        {
          "name": "F5",
          "midi": 77,
          "time": 53.87499999999998,
          "velocity": 0.8188976377952756,
          "duration": 0.0520833333333357
        },
        {
          "name": "A5",
          "midi": 81,
          "time": 53.87499999999998,
          "velocity": 0.8188976377952756,
          "duration": 0.057291666666671404
        },
        {
          "name": "F4",
          "midi": 65,
          "time": 53.999999999999986,
          "velocity": 0.8188976377952756,
          "duration": 0.0677083333333357
        },
        {
          "name": "C5",
          "midi": 72,
          "time": 54.124999999999986,
          "velocity": 0.8031496062992126,
          "duration": 0.0520833333333357
        },
        {
          "name": "F5",
          "midi": 77,
          "time": 54.124999999999986,
          "velocity": 0.8188976377952756,
          "duration": 0.0520833333333357
        },
        {
          "name": "A5",
          "midi": 81,
          "time": 54.124999999999986,
          "velocity": 0.8188976377952756,
          "duration": 0.0520833333333357
        },
        {
          "name": "C5",
          "midi": 72,
          "time": 54.249999999999986,
          "velocity": 0.8031496062992126,
          "duration": 0.0520833333333357
        },
        {
          "name": "F5",
          "midi": 77,
          "time": 54.249999999999986,
          "velocity": 0.8031496062992126,
          "duration": 0.0520833333333357
        },
        {
          "name": "A5",
          "midi": 81,
          "time": 54.249999999999986,
          "velocity": 0.8188976377952756,
          "duration": 0.0520833333333357
        },
        {
          "name": "C5",
          "midi": 72,
          "time": 54.374999999999986,
          "velocity": 0.7874015748031497,
          "duration": 0.0520833333333357
        },
        {
          "name": "F5",
          "midi": 77,
          "time": 54.374999999999986,
          "velocity": 0.8188976377952756,
          "duration": 0.0520833333333357
        },
        {
          "name": "A5",
          "midi": 81,
          "time": 54.374999999999986,
          "velocity": 0.8188976377952756,
          "duration": 0.0520833333333357
        },
        {
          "name": "A4",
          "midi": 69,
          "time": 54.499999999999986,
          "velocity": 0.8188976377952756,
          "duration": 0.0520833333333357
        },
        {
          "name": "F5",
          "midi": 77,
          "time": 54.624999999999986,
          "velocity": 0.7874015748031497,
          "duration": 0.0520833333333357
        },
        {
          "name": "C5",
          "midi": 72,
          "time": 54.749999999999986,
          "velocity": 0.8188976377952756,
          "duration": 0.0520833333333357
        },
        {
          "name": "F5",
          "midi": 77,
          "time": 54.749999999999986,
          "velocity": 0.8188976377952756,
          "duration": 0.0520833333333357
        },
        {
          "name": "A5",
          "midi": 81,
          "time": 54.749999999999986,
          "velocity": 0.8188976377952756,
          "duration": 0.0520833333333357
        },
        {
          "name": "C5",
          "midi": 72,
          "time": 54.874999999999986,
          "velocity": 0.8188976377952756,
          "duration": 0.0520833333333357
        },
        {
          "name": "F5",
          "midi": 77,
          "time": 54.874999999999986,
          "velocity": 0.8188976377952756,
          "duration": 0.0520833333333357
        },
        {
          "name": "A5",
          "midi": 81,
          "time": 54.874999999999986,
          "velocity": 0.8188976377952756,
          "duration": 0.0520833333333357
        },
        {
          "name": "F4",
          "midi": 65,
          "time": 54.999999999999986,
          "velocity": 0.8188976377952756,
          "duration": 0.0677083333333357
        },
        {
          "name": "C5",
          "midi": 72,
          "time": 55.124999999999986,
          "velocity": 0.8188976377952756,
          "duration": 0.0520833333333357
        },
        {
          "name": "F5",
          "midi": 77,
          "time": 55.124999999999986,
          "velocity": 0.8188976377952756,
          "duration": 0.0520833333333357
        },
        {
          "name": "A5",
          "midi": 81,
          "time": 55.124999999999986,
          "velocity": 0.8188976377952756,
          "duration": 0.0520833333333357
        },
        {
          "name": "F4",
          "midi": 65,
          "time": 55.249999999999986,
          "velocity": 0.8188976377952756,
          "duration": 0.0520833333333357
        },
        {
          "name": "A#4",
          "midi": 70,
          "time": 55.249999999999986,
          "velocity": 0.7716535433070866,
          "duration": 0.0520833333333357
        },
        {
          "name": "D5",
          "midi": 74,
          "time": 55.249999999999986,
          "velocity": 0.8188976377952756,
          "duration": 0.0520833333333357
        },
        {
          "name": "D4",
          "midi": 62,
          "time": 55.374999999999986,
          "velocity": 0.8188976377952756,
          "duration": 0.0520833333333357
        },
        {
          "name": "F4",
          "midi": 65,
          "time": 55.374999999999986,
          "velocity": 0.8188976377952756,
          "duration": 0.0520833333333357
        },
        {
          "name": "A#4",
          "midi": 70,
          "time": 55.374999999999986,
          "velocity": 0.8188976377952756,
          "duration": 0.0520833333333357
        },
        {
          "name": "D5",
          "midi": 74,
          "time": 55.374999999999986,
          "velocity": 0.8188976377952756,
          "duration": 0.0520833333333357
        },
        {
          "name": "D4",
          "midi": 62,
          "time": 55.499999999999986,
          "velocity": 0.8188976377952756,
          "duration": 0.0572916666666643
        },
        {
          "name": "F4",
          "midi": 65,
          "time": 55.624999999999986,
          "velocity": 0.8188976377952756,
          "duration": 0.0520833333333357
        },
        {
          "name": "A#4",
          "midi": 70,
          "time": 55.624999999999986,
          "velocity": 0.8188976377952756,
          "duration": 0.0520833333333357
        },
        {
          "name": "D5",
          "midi": 74,
          "time": 55.624999999999986,
          "velocity": 0.8188976377952756,
          "duration": 0.0520833333333357
        },
        {
          "name": "D4",
          "midi": 62,
          "time": 55.749999999999986,
          "velocity": 0.8188976377952756,
          "duration": 0.0520833333333357
        },
        {
          "name": "F4",
          "midi": 65,
          "time": 55.874999999999986,
          "velocity": 0.8188976377952756,
          "duration": 0.0520833333333357
        },
        {
          "name": "A#4",
          "midi": 70,
          "time": 55.874999999999986,
          "velocity": 0.8188976377952756,
          "duration": 0.0520833333333357
        },
        {
          "name": "D5",
          "midi": 74,
          "time": 55.874999999999986,
          "velocity": 0.8188976377952756,
          "duration": 0.0520833333333357
        },
        {
          "name": "A#3",
          "midi": 58,
          "time": 55.999999999999986,
          "velocity": 0.8188976377952756,
          "duration": 0.0520833333333357
        },
        {
          "name": "F4",
          "midi": 65,
          "time": 56.124999999999986,
          "velocity": 0.8188976377952756,
          "duration": 0.0520833333333357
        },
        {
          "name": "A#4",
          "midi": 70,
          "time": 56.124999999999986,
          "velocity": 0.8188976377952756,
          "duration": 0.0520833333333357
        },
        {
          "name": "D5",
          "midi": 74,
          "time": 56.124999999999986,
          "velocity": 0.8188976377952756,
          "duration": 0.0520833333333357
        },
        {
          "name": "F4",
          "midi": 65,
          "time": 56.249999999999986,
          "velocity": 0.8031496062992126,
          "duration": 0.0520833333333357
        },
        {
          "name": "A#4",
          "midi": 70,
          "time": 56.249999999999986,
          "velocity": 0.8188976377952756,
          "duration": 0.0520833333333357
        },
        {
          "name": "D5",
          "midi": 74,
          "time": 56.249999999999986,
          "velocity": 0.8031496062992126,
          "duration": 0.0520833333333357
        },
        {
          "name": "F4",
          "midi": 65,
          "time": 56.374999999999986,
          "velocity": 0.8031496062992126,
          "duration": 0.0520833333333357
        },
        {
          "name": "A#4",
          "midi": 70,
          "time": 56.374999999999986,
          "velocity": 0.8188976377952756,
          "duration": 0.0520833333333357
        },
        {
          "name": "D5",
          "midi": 74,
          "time": 56.374999999999986,
          "velocity": 0.8188976377952756,
          "duration": 0.0520833333333357
        },
        {
          "name": "D4",
          "midi": 62,
          "time": 56.499999999999986,
          "velocity": 0.8188976377952756,
          "duration": 0.0520833333333357
        },
        {
          "name": "F4",
          "midi": 65,
          "time": 56.624999999999986,
          "velocity": 0.8188976377952756,
          "duration": 0.0520833333333357
        },
        {
          "name": "A#4",
          "midi": 70,
          "time": 56.624999999999986,
          "velocity": 0.8188976377952756,
          "duration": 0.0520833333333357
        },
        {
          "name": "D5",
          "midi": 74,
          "time": 56.624999999999986,
          "velocity": 0.8188976377952756,
          "duration": 0.0520833333333357
        },
        {
          "name": "F4",
          "midi": 65,
          "time": 56.749999999999986,
          "velocity": 0.8188976377952756,
          "duration": 0.0520833333333357
        },
        {
          "name": "A#4",
          "midi": 70,
          "time": 56.749999999999986,
          "velocity": 0.8188976377952756,
          "duration": 0.0520833333333357
        },
        {
          "name": "D5",
          "midi": 74,
          "time": 56.749999999999986,
          "velocity": 0.8188976377952756,
          "duration": 0.0520833333333357
        },
        {
          "name": "F4",
          "midi": 65,
          "time": 56.874999999999986,
          "velocity": 0.8188976377952756,
          "duration": 0.0520833333333357
        },
        {
          "name": "A#4",
          "midi": 70,
          "time": 56.874999999999986,
          "velocity": 0.8188976377952756,
          "duration": 0.0520833333333357
        },
        {
          "name": "D5",
          "midi": 74,
          "time": 56.874999999999986,
          "velocity": 0.8188976377952756,
          "duration": 0.0520833333333357
        },
        {
          "name": "C4",
          "midi": 60,
          "time": 56.999999999999986,
          "velocity": 0.8188976377952756,
          "duration": 0.0520833333333357
        },
        {
          "name": "G4",
          "midi": 67,
          "time": 57.124999999999986,
          "velocity": 0.8188976377952756,
          "duration": 0.0520833333333357
        },
        {
          "name": "A#4",
          "midi": 70,
          "time": 57.124999999999986,
          "velocity": 0.8188976377952756,
          "duration": 0.0520833333333357
        },
        {
          "name": "E5",
          "midi": 76,
          "time": 57.124999999999986,
          "velocity": 0.8188976377952756,
          "duration": 0.0520833333333357
        },
        {
          "name": "G4",
          "midi": 67,
          "time": 57.249999999999986,
          "velocity": 0.7874015748031497,
          "duration": 0.0520833333333357
        },
        {
          "name": "A#4",
          "midi": 70,
          "time": 57.249999999999986,
          "velocity": 0.8188976377952756,
          "duration": 0.0520833333333357
        },
        {
          "name": "E5",
          "midi": 76,
          "time": 57.249999999999986,
          "velocity": 0.8188976377952756,
          "duration": 0.0520833333333357
        },
        {
          "name": "G4",
          "midi": 67,
          "time": 57.374999999999986,
          "velocity": 0.8188976377952756,
          "duration": 0.0520833333333357
        },
        {
          "name": "A#4",
          "midi": 70,
          "time": 57.374999999999986,
          "velocity": 0.8188976377952756,
          "duration": 0.0520833333333357
        },
        {
          "name": "E5",
          "midi": 76,
          "time": 57.374999999999986,
          "velocity": 0.8188976377952756,
          "duration": 0.0520833333333357
        },
        {
          "name": "E4",
          "midi": 64,
          "time": 57.499999999999986,
          "velocity": 0.8188976377952756,
          "duration": 0.0520833333333357
        },
        {
          "name": "G4",
          "midi": 67,
          "time": 57.624999999999986,
          "velocity": 0.8031496062992126,
          "duration": 0.0520833333333357
        },
        {
          "name": "A#4",
          "midi": 70,
          "time": 57.624999999999986,
          "velocity": 0.8188976377952756,
          "duration": 0.0520833333333357
        },
        {
          "name": "E5",
          "midi": 76,
          "time": 57.624999999999986,
          "velocity": 0.8188976377952756,
          "duration": 0.0520833333333357
        },
        {
          "name": "G4",
          "midi": 67,
          "time": 57.749999999999986,
          "velocity": 0.7874015748031497,
          "duration": 0.0520833333333357
        },
        {
          "name": "A#4",
          "midi": 70,
          "time": 57.749999999999986,
          "velocity": 0.8188976377952756,
          "duration": 0.0520833333333357
        },
        {
          "name": "E5",
          "midi": 76,
          "time": 57.749999999999986,
          "velocity": 0.8188976377952756,
          "duration": 0.0520833333333357
        },
        {
          "name": "G4",
          "midi": 67,
          "time": 57.874999999999986,
          "velocity": 0.8031496062992126,
          "duration": 0.057291666666671404
        },
        {
          "name": "A#4",
          "midi": 70,
          "time": 57.874999999999986,
          "velocity": 0.8188976377952756,
          "duration": 0.0520833333333357
        },
        {
          "name": "E5",
          "midi": 76,
          "time": 57.874999999999986,
          "velocity": 0.8188976377952756,
          "duration": 0.057291666666671404
        },
        {
          "name": "C4",
          "midi": 60,
          "time": 57.99999999999999,
          "velocity": 0.8188976377952756,
          "duration": 0.0677083333333357
        },
        {
          "name": "G4",
          "midi": 67,
          "time": 58.12499999999999,
          "velocity": 0.8031496062992126,
          "duration": 0.057291666666671404
        },
        {
          "name": "A#4",
          "midi": 70,
          "time": 58.12499999999999,
          "velocity": 0.8188976377952756,
          "duration": 0.0520833333333357
        },
        {
          "name": "E5",
          "midi": 76,
          "time": 58.12499999999999,
          "velocity": 0.8188976377952756,
          "duration": 0.0520833333333357
        },
        {
          "name": "G4",
          "midi": 67,
          "time": 58.25,
          "velocity": 0.8031496062992126,
          "duration": 0.057291666666671404
        },
        {
          "name": "A#4",
          "midi": 70,
          "time": 58.25,
          "velocity": 0.8188976377952756,
          "duration": 0.0520833333333357
        },
        {
          "name": "E5",
          "midi": 76,
          "time": 58.25,
          "velocity": 0.8188976377952756,
          "duration": 0.0520833333333357
        },
        {
          "name": "G4",
          "midi": 67,
          "time": 58.37500000000001,
          "velocity": 0.8031496062992126,
          "duration": 0.0677083333333357
        },
        {
          "name": "A#4",
          "midi": 70,
          "time": 58.37500000000001,
          "velocity": 0.8031496062992126,
          "duration": 0.0520833333333357
        },
        {
          "name": "E5",
          "midi": 76,
          "time": 58.37500000000001,
          "velocity": 0.8188976377952756,
          "duration": 0.0520833333333357
        },
        {
          "name": "E4",
          "midi": 64,
          "time": 58.50000000000001,
          "velocity": 0.8188976377952756,
          "duration": 0.0677083333333357
        },
        {
          "name": "G4",
          "midi": 67,
          "time": 58.62500000000001,
          "velocity": 0.8031496062992126,
          "duration": 0.057291666666671404
        },
        {
          "name": "A#4",
          "midi": 70,
          "time": 58.62500000000001,
          "velocity": 0.8188976377952756,
          "duration": 0.0520833333333357
        },
        {
          "name": "E5",
          "midi": 76,
          "time": 58.62500000000001,
          "velocity": 0.8188976377952756,
          "duration": 0.0520833333333357
        },
        {
          "name": "G4",
          "midi": 67,
          "time": 58.750000000000014,
          "velocity": 0.8031496062992126,
          "duration": 0.057291666666671404
        },
        {
          "name": "A#4",
          "midi": 70,
          "time": 58.750000000000014,
          "velocity": 0.8188976377952756,
          "duration": 0.0520833333333357
        },
        {
          "name": "E5",
          "midi": 76,
          "time": 58.750000000000014,
          "velocity": 0.8188976377952756,
          "duration": 0.0520833333333357
        },
        {
          "name": "G4",
          "midi": 67,
          "time": 58.87500000000002,
          "velocity": 0.8188976377952756,
          "duration": 0.0625
        },
        {
          "name": "A#4",
          "midi": 70,
          "time": 58.87500000000002,
          "velocity": 0.8188976377952756,
          "duration": 0.0520833333333357
        },
        {
          "name": "E5",
          "midi": 76,
          "time": 58.87500000000002,
          "velocity": 0.8188976377952756,
          "duration": 0.0520833333333357
        },
        {
          "name": "C4",
          "midi": 60,
          "time": 59.00000000000002,
          "velocity": 0.8188976377952756,
          "duration": 0.0625
        },
        {
          "name": "G4",
          "midi": 67,
          "time": 59.12500000000002,
          "velocity": 0.8031496062992126,
          "duration": 0.0520833333333357
        },
        {
          "name": "A#4",
          "midi": 70,
          "time": 59.12500000000002,
          "velocity": 0.8188976377952756,
          "duration": 0.0520833333333357
        },
        {
          "name": "E5",
          "midi": 76,
          "time": 59.12500000000002,
          "velocity": 0.8188976377952756,
          "duration": 0.0520833333333357
        },
        {
          "name": "C5",
          "midi": 72,
          "time": 59.25000000000002,
          "velocity": 0.7874015748031497,
          "duration": 0.0520833333333357
        },
        {
          "name": "F5",
          "midi": 77,
          "time": 59.25000000000002,
          "velocity": 0.8188976377952756,
          "duration": 0.0520833333333357
        },
        {
          "name": "A5",
          "midi": 81,
          "time": 59.25000000000002,
          "velocity": 0.8188976377952756,
          "duration": 0.0520833333333357
        },
        {
          "name": "C5",
          "midi": 72,
          "time": 59.37500000000002,
          "velocity": 0.8188976377952756,
          "duration": 0.057291666666671404
        },
        {
          "name": "F5",
          "midi": 77,
          "time": 59.37500000000002,
          "velocity": 0.8188976377952756,
          "duration": 0.0520833333333357
        },
        {
          "name": "A5",
          "midi": 81,
          "time": 59.37500000000002,
          "velocity": 0.8188976377952756,
          "duration": 0.0520833333333357
        },
        {
          "name": "A4",
          "midi": 69,
          "time": 59.50000000000003,
          "velocity": 0.8188976377952756,
          "duration": 0.0520833333333357
        },
        {
          "name": "C5",
          "midi": 72,
          "time": 59.62500000000003,
          "velocity": 0.8188976377952756,
          "duration": 0.0520833333333357
        },
        {
          "name": "F5",
          "midi": 77,
          "time": 59.62500000000003,
          "velocity": 0.8188976377952756,
          "duration": 0.0520833333333357
        },
        {
          "name": "A5",
          "midi": 81,
          "time": 59.62500000000003,
          "velocity": 0.8188976377952756,
          "duration": 0.0520833333333357
        },
        {
          "name": "C5",
          "midi": 72,
          "time": 59.75000000000003,
          "velocity": 0.8188976377952756,
          "duration": 0.1197916666666643
        },
        {
          "name": "F5",
          "midi": 77,
          "time": 59.75000000000003,
          "velocity": 0.8188976377952756,
          "duration": 0.0625
        },
        {
          "name": "A5",
          "midi": 81,
          "time": 59.75000000000003,
          "velocity": 0.8188976377952756,
          "duration": 0.0729166666666643
        },
        {
          "name": "C6",
          "midi": 84,
          "time": 59.87500000000003,
          "velocity": 0.8188976377952756,
          "duration": 0.0729166666666643
        },
        {
          "name": "C5",
          "midi": 72,
          "time": 60.00000000000003,
          "velocity": 0.8188976377952756,
          "duration": 0.3125
        },
        {
          "name": "A5",
          "midi": 81,
          "time": 60.00000000000003,
          "velocity": 0.8188976377952756,
          "duration": 0.3125
        },
        {
          "name": "A4",
          "midi": 69,
          "time": 60.37500000000003,
          "velocity": 0.8188976377952756,
          "duration": 0.0677083333333357
        },
        {
          "name": "F5",
          "midi": 77,
          "time": 60.37500000000003,
          "velocity": 0.8188976377952756,
          "duration": 0.0625
        },
        {
          "name": "A4",
          "midi": 69,
          "time": 60.50000000000003,
          "velocity": 0.8188976377952756,
          "duration": 0.0833333333333357
        },
        {
          "name": "F5",
          "midi": 77,
          "time": 60.50000000000003,
          "velocity": 0.8188976377952756,
          "duration": 0.078125
        },
        {
          "name": "A4",
          "midi": 69,
          "time": 60.75000000000003,
          "velocity": 0.8188976377952756,
          "duration": 0.0520833333333357
        },
        {
          "name": "C5",
          "midi": 72,
          "time": 60.75000000000003,
          "velocity": 0.8188976377952756,
          "duration": 0.0520833333333357
        },
        {
          "name": "A4",
          "midi": 69,
          "time": 61.00000000000003,
          "velocity": 0.8188976377952756,
          "duration": 0.5
        },
        {
          "name": "C5",
          "midi": 72,
          "time": 61.00000000000003,
          "velocity": 0.8188976377952756,
          "duration": 0.5
        },
        {
          "name": "F4",
          "midi": 65,
          "time": 61.50000000000003,
          "velocity": 0.8188976377952756,
          "duration": 0.203125
        },
        {
          "name": "A4",
          "midi": 69,
          "time": 61.50000000000003,
          "velocity": 0.8188976377952756,
          "duration": 0.21875
        },
        {
          "name": "C5",
          "midi": 72,
          "time": 61.75000000000003,
          "velocity": 0.8188976377952756,
          "duration": 0.109375
        },
        {
          "name": "A4",
          "midi": 69,
          "time": 61.87500000000003,
          "velocity": 0.8188976377952756,
          "duration": 0.0677083333333357
        },
        {
          "name": "F4",
          "midi": 65,
          "time": 62.00000000000003,
          "velocity": 0.8188976377952756,
          "duration": 0.078125
        },
        {
          "name": "C4",
          "midi": 60,
          "time": 62.12500000000003,
          "velocity": 0.7401574803149606,
          "duration": 0.0625
        },
        {
          "name": "F4",
          "midi": 65,
          "time": 62.12500000000003,
          "velocity": 0.7401574803149606,
          "duration": 0.0625
        },
        {
          "name": "A4",
          "midi": 69,
          "time": 62.12500000000003,
          "velocity": 0.8188976377952756,
          "duration": 0.0833333333333357
        },
        {
          "name": "C4",
          "midi": 60,
          "time": 62.25000000000003,
          "velocity": 0.7401574803149606,
          "duration": 0.0625
        },
        {
          "name": "F4",
          "midi": 65,
          "time": 62.25000000000003,
          "velocity": 0.7401574803149606,
          "duration": 0.0625
        },
        {
          "name": "A4",
          "midi": 69,
          "time": 62.25000000000003,
          "velocity": 0.7401574803149606,
          "duration": 0.0572916666666643
        },
        {
          "name": "C5",
          "midi": 72,
          "time": 62.25000000000003,
          "velocity": 0.8188976377952756,
          "duration": 0.0572916666666643
        },
        {
          "name": "C4",
          "midi": 60,
          "time": 62.37500000000003,
          "velocity": 0.7401574803149606,
          "duration": 0.0625
        },
        {
          "name": "F4",
          "midi": 65,
          "time": 62.37500000000003,
          "velocity": 0.7401574803149606,
          "duration": 0.0625
        },
        {
          "name": "A4",
          "midi": 69,
          "time": 62.37500000000003,
          "velocity": 0.8188976377952756,
          "duration": 0.0833333333333357
        },
        {
          "name": "C5",
          "midi": 72,
          "time": 62.50000000000003,
          "velocity": 0.8188976377952756,
          "duration": 0.0989583333333357
        },
        {
          "name": "C4",
          "midi": 60,
          "time": 62.62500000000003,
          "velocity": 0.7401574803149606,
          "duration": 0.0625
        },
        {
          "name": "F4",
          "midi": 65,
          "time": 62.62500000000003,
          "velocity": 0.7401574803149606,
          "duration": 0.0625
        },
        {
          "name": "A4",
          "midi": 69,
          "time": 62.62500000000003,
          "velocity": 0.7401574803149606,
          "duration": 0.0625
        },
        {
          "name": "F5",
          "midi": 77,
          "time": 62.62500000000003,
          "velocity": 0.8188976377952756,
          "duration": 0.0729166666666643
        },
        {
          "name": "C4",
          "midi": 60,
          "time": 62.75000000000003,
          "velocity": 0.7401574803149606,
          "duration": 0.0625
        },
        {
          "name": "F4",
          "midi": 65,
          "time": 62.75000000000003,
          "velocity": 0.7401574803149606,
          "duration": 0.0625
        },
        {
          "name": "A4",
          "midi": 69,
          "time": 62.75000000000003,
          "velocity": 0.7401574803149606,
          "duration": 0.0625
        },
        {
          "name": "C5",
          "midi": 72,
          "time": 62.75000000000003,
          "velocity": 0.8188976377952756,
          "duration": 0.078125
        },
        {
          "name": "C4",
          "midi": 60,
          "time": 62.87500000000003,
          "velocity": 0.7401574803149606,
          "duration": 0.0625
        },
        {
          "name": "F4",
          "midi": 65,
          "time": 62.87500000000003,
          "velocity": 0.7401574803149606,
          "duration": 0.0625
        },
        {
          "name": "A4",
          "midi": 69,
          "time": 62.87500000000003,
          "velocity": 0.7716535433070866,
          "duration": 0.0625
        },
        {
          "name": "F5",
          "midi": 77,
          "time": 62.87500000000003,
          "velocity": 0.8188976377952756,
          "duration": 0.0989583333333357
        },
        {
          "name": "A5",
          "midi": 81,
          "time": 63.00000000000003,
          "velocity": 0.8188976377952756,
          "duration": 0.0729166666666643
        },
        {
          "name": "C4",
          "midi": 60,
          "time": 63.12500000000003,
          "velocity": 0.7401574803149606,
          "duration": 0.0625
        },
        {
          "name": "F4",
          "midi": 65,
          "time": 63.12500000000003,
          "velocity": 0.7401574803149606,
          "duration": 0.0625
        },
        {
          "name": "A4",
          "midi": 69,
          "time": 63.12500000000003,
          "velocity": 0.7716535433070866,
          "duration": 0.0625
        },
        {
          "name": "F5",
          "midi": 77,
          "time": 63.12500000000003,
          "velocity": 0.8188976377952756,
          "duration": 0.0677083333333357
        },
        {
          "name": "C4",
          "midi": 60,
          "time": 63.25000000000003,
          "velocity": 0.7401574803149606,
          "duration": 0.0625
        },
        {
          "name": "F4",
          "midi": 65,
          "time": 63.25000000000003,
          "velocity": 0.7401574803149606,
          "duration": 0.0625
        },
        {
          "name": "A4",
          "midi": 69,
          "time": 63.25000000000003,
          "velocity": 0.7401574803149606,
          "duration": 0.0625
        },
        {
          "name": "A5",
          "midi": 81,
          "time": 63.25000000000003,
          "velocity": 0.8188976377952756,
          "duration": 0.0833333333333357
        },
        {
          "name": "C4",
          "midi": 60,
          "time": 63.37500000000003,
          "velocity": 0.7401574803149606,
          "duration": 0.0625
        },
        {
          "name": "F4",
          "midi": 65,
          "time": 63.37500000000003,
          "velocity": 0.7559055118110236,
          "duration": 0.0625
        },
        {
          "name": "A4",
          "midi": 69,
          "time": 63.37500000000003,
          "velocity": 0.7874015748031497,
          "duration": 0.0625
        },
        {
          "name": "C6",
          "midi": 84,
          "time": 63.37500000000003,
          "velocity": 0.8188976377952756,
          "duration": 0.0833333333333357
        },
        {
          "name": "A5",
          "midi": 81,
          "time": 63.50000000000003,
          "velocity": 0.8188976377952756,
          "duration": 0.0833333333333357
        },
        {
          "name": "C4",
          "midi": 60,
          "time": 63.62500000000003,
          "velocity": 0.7559055118110236,
          "duration": 0.0625
        },
        {
          "name": "F4",
          "midi": 65,
          "time": 63.62500000000003,
          "velocity": 0.8031496062992126,
          "duration": 0.0625
        },
        {
          "name": "A4",
          "midi": 69,
          "time": 63.62500000000003,
          "velocity": 0.8031496062992126,
          "duration": 0.0625
        },
        {
          "name": "F5",
          "midi": 77,
          "time": 63.62500000000003,
          "velocity": 0.8188976377952756,
          "duration": 0.078125
        },
        {
          "name": "C4",
          "midi": 60,
          "time": 63.75000000000003,
          "velocity": 0.7401574803149606,
          "duration": 0.0625
        },
        {
          "name": "F4",
          "midi": 65,
          "time": 63.75000000000003,
          "velocity": 0.7401574803149606,
          "duration": 0.0625
        },
        {
          "name": "A4",
          "midi": 69,
          "time": 63.75000000000003,
          "velocity": 0.7716535433070866,
          "duration": 0.0625
        },
        {
          "name": "C5",
          "midi": 72,
          "time": 63.75000000000003,
          "velocity": 0.8188976377952756,
          "duration": 0.0729166666666643
        },
        {
          "name": "C4",
          "midi": 60,
          "time": 63.87500000000003,
          "velocity": 0.7559055118110236,
          "duration": 0.0625
        },
        {
          "name": "F4",
          "midi": 65,
          "time": 63.87500000000003,
          "velocity": 0.7874015748031497,
          "duration": 0.0625
        },
        {
          "name": "A4",
          "midi": 69,
          "time": 63.87500000000003,
          "velocity": 0.8188976377952756,
          "duration": 0.0625
        },
        {
          "name": "D4",
          "midi": 62,
          "time": 64.00000000000003,
          "velocity": 0.8188976377952756,
          "duration": 0.0833333333333286
        },
        {
          "name": "F3",
          "midi": 53,
          "time": 64.12500000000003,
          "velocity": 0.8188976377952756,
          "duration": 0.0833333333333286
        },
        {
          "name": "A#3",
          "midi": 58,
          "time": 64.25000000000003,
          "velocity": 0.8188976377952756,
          "duration": 0.0833333333333286
        },
        {
          "name": "D4",
          "midi": 62,
          "time": 64.37500000000003,
          "velocity": 0.8188976377952756,
          "duration": 0.0989583333333286
        },
        {
          "name": "F4",
          "midi": 65,
          "time": 64.50000000000003,
          "velocity": 0.8188976377952756,
          "duration": 0.0833333333333286
        },
        {
          "name": "A#3",
          "midi": 58,
          "time": 64.62500000000003,
          "velocity": 0.8188976377952756,
          "duration": 0.0833333333333286
        },
        {
          "name": "D4",
          "midi": 62,
          "time": 64.75000000000003,
          "velocity": 0.8188976377952756,
          "duration": 0.0885416666666714
        },
        {
          "name": "F4",
          "midi": 65,
          "time": 64.87500000000003,
          "velocity": 0.8188976377952756,
          "duration": 0.0885416666666714
        },
        {
          "name": "D4",
          "midi": 62,
          "time": 65.00000000000003,
          "velocity": 0.8188976377952756,
          "duration": 0.0833333333333286
        },
        {
          "name": "F3",
          "midi": 53,
          "time": 65.12500000000003,
          "velocity": 0.8188976377952756,
          "duration": 0.0833333333333286
        },
        {
          "name": "F4",
          "midi": 65,
          "time": 65.25000000000003,
          "velocity": 0.8188976377952756,
          "duration": 0.0833333333333286
        },
        {
          "name": "A4",
          "midi": 69,
          "time": 65.37500000000003,
          "velocity": 0.8188976377952756,
          "duration": 0.0989583333333286
        },
        {
          "name": "C5",
          "midi": 72,
          "time": 65.50000000000003,
          "velocity": 0.8188976377952756,
          "duration": 0.0833333333333286
        },
        {
          "name": "F4",
          "midi": 65,
          "time": 65.62500000000003,
          "velocity": 0.8188976377952756,
          "duration": 0.0989583333333286
        },
        {
          "name": "A4",
          "midi": 69,
          "time": 65.75000000000003,
          "velocity": 0.8188976377952756,
          "duration": 0.0885416666666714
        },
        {
          "name": "C5",
          "midi": 72,
          "time": 65.87500000000003,
          "velocity": 0.8188976377952756,
          "duration": 0.0885416666666714
        },
        {
          "name": "B3",
          "midi": 59,
          "time": 66.00000000000003,
          "velocity": 0.8188976377952756,
          "duration": 0.0833333333333286
        },
        {
          "name": "D3",
          "midi": 50,
          "time": 66.12500000000003,
          "velocity": 0.8188976377952756,
          "duration": 0.0885416666666714
        },
        {
          "name": "G3",
          "midi": 55,
          "time": 66.25000000000003,
          "velocity": 0.8188976377952756,
          "duration": 0.09375
        },
        {
          "name": "B3",
          "midi": 59,
          "time": 66.37500000000003,
          "velocity": 0.8188976377952756,
          "duration": 0.0989583333333286
        },
        {
          "name": "D4",
          "midi": 62,
          "time": 66.50000000000003,
          "velocity": 0.8188976377952756,
          "duration": 0.0885416666666714
        },
        {
          "name": "G3",
          "midi": 55,
          "time": 66.62500000000003,
          "velocity": 0.8188976377952756,
          "duration": 0.0885416666666714
        },
        {
          "name": "B3",
          "midi": 59,
          "time": 66.75000000000003,
          "velocity": 0.8188976377952756,
          "duration": 0.09375
        },
        {
          "name": "D4",
          "midi": 62,
          "time": 66.87500000000003,
          "velocity": 0.8188976377952756,
          "duration": 0.09375
        },
        {
          "name": "G3",
          "midi": 55,
          "time": 67.00000000000003,
          "velocity": 0.8188976377952756,
          "duration": 0.109375
        },
        {
          "name": "A#3",
          "midi": 58,
          "time": 67.12500000000003,
          "velocity": 0.8188976377952756,
          "duration": 0.109375
        },
        {
          "name": "E4",
          "midi": 64,
          "time": 67.25000000000003,
          "velocity": 0.8188976377952756,
          "duration": 0.0885416666666714
        },
        {
          "name": "A#3",
          "midi": 58,
          "time": 67.37500000000003,
          "velocity": 0.8188976377952756,
          "duration": 0.1145833333333286
        },
        {
          "name": "E4",
          "midi": 64,
          "time": 67.50000000000003,
          "velocity": 0.8188976377952756,
          "duration": 0.1145833333333286
        },
        {
          "name": "G4",
          "midi": 67,
          "time": 67.62500000000003,
          "velocity": 0.8188976377952756,
          "duration": 0.0833333333333286
        },
        {
          "name": "E4",
          "midi": 64,
          "time": 67.75000000000003,
          "velocity": 0.8188976377952756,
          "duration": 0.1145833333333286
        },
        {
          "name": "A#4",
          "midi": 70,
          "time": 67.87500000000003,
          "velocity": 0.8188976377952756,
          "duration": 0.0833333333333286
        },
        {
          "name": "E4",
          "midi": 64,
          "time": 68.00000000000003,
          "velocity": 0.8188976377952756,
          "duration": 0.0833333333333286
        },
        {
          "name": "G3",
          "midi": 55,
          "time": 68.12500000000003,
          "velocity": 0.8188976377952756,
          "duration": 0.0833333333333286
        },
        {
          "name": "F4",
          "midi": 65,
          "time": 68.25000000000003,
          "velocity": 0.8188976377952756,
          "duration": 0.0833333333333286
        },
        {
          "name": "A4",
          "midi": 69,
          "time": 68.37500000000003,
          "velocity": 0.8188976377952756,
          "duration": 0.0989583333333286
        },
        {
          "name": "C5",
          "midi": 72,
          "time": 68.50000000000003,
          "velocity": 0.8188976377952756,
          "duration": 0.0833333333333286
        },
        {
          "name": "F4",
          "midi": 65,
          "time": 68.62500000000003,
          "velocity": 0.8188976377952756,
          "duration": 0.0833333333333286
        },
        {
          "name": "A4",
          "midi": 69,
          "time": 68.75000000000003,
          "velocity": 0.8188976377952756,
          "duration": 0.0885416666666714
        },
        {
          "name": "C5",
          "midi": 72,
          "time": 68.87500000000003,
          "velocity": 0.8188976377952756,
          "duration": 0.0885416666666714
        },
        {
          "name": "A4",
          "midi": 69,
          "time": 69.00000000000003,
          "velocity": 0.8188976377952756,
          "duration": 0.0833333333333286
        },
        {
          "name": "C4",
          "midi": 60,
          "time": 69.12500000000003,
          "velocity": 0.8188976377952756,
          "duration": 0.0833333333333286
        },
        {
          "name": "F4",
          "midi": 65,
          "time": 69.25000000000003,
          "velocity": 0.8188976377952756,
          "duration": 0.0833333333333286
        },
        {
          "name": "A4",
          "midi": 69,
          "time": 69.37500000000003,
          "velocity": 0.8188976377952756,
          "duration": 0.0989583333333286
        },
        {
          "name": "C5",
          "midi": 72,
          "time": 69.50000000000003,
          "velocity": 0.8188976377952756,
          "duration": 0.0833333333333286
        },
        {
          "name": "F4",
          "midi": 65,
          "time": 69.62500000000003,
          "velocity": 0.8188976377952756,
          "duration": 0.0989583333333286
        },
        {
          "name": "A4",
          "midi": 69,
          "time": 69.75000000000003,
          "velocity": 0.8188976377952756,
          "duration": 0.0885416666666714
        },
        {
          "name": "C5",
          "midi": 72,
          "time": 69.87500000000003,
          "velocity": 0.8188976377952756,
          "duration": 0.0885416666666714
        },
        {
          "name": "A4",
          "midi": 69,
          "time": 70.00000000000003,
          "velocity": 0.8188976377952756,
          "duration": 0.0885416666666714
        },
        {
          "name": "C4",
          "midi": 60,
          "time": 70.12500000000003,
          "velocity": 0.8188976377952756,
          "duration": 0.1145833333333286
        },
        {
          "name": "F4",
          "midi": 65,
          "time": 70.25000000000003,
          "velocity": 0.8188976377952756,
          "duration": 0.1145833333333286
        },
        {
          "name": "A4",
          "midi": 69,
          "time": 70.37500000000003,
          "velocity": 0.8188976377952756,
          "duration": 0.1041666666666714
        },
        {
          "name": "F4",
          "midi": 65,
          "time": 70.50000000000003,
          "velocity": 0.8188976377952756,
          "duration": 0.1145833333333286
        },
        {
          "name": "A4",
          "midi": 69,
          "time": 70.62500000000003,
          "velocity": 0.8188976377952756,
          "duration": 0.109375
        },
        {
          "name": "C5",
          "midi": 72,
          "time": 70.75000000000003,
          "velocity": 0.8188976377952756,
          "duration": 0.09375
        },
        {
          "name": "A4",
          "midi": 69,
          "time": 70.87500000000003,
          "velocity": 0.8188976377952756,
          "duration": 0.0885416666666714
        },
        {
          "name": "C5",
          "midi": 72,
          "time": 71.00000000000003,
          "velocity": 0.8188976377952756,
          "duration": 0.1041666666666714
        },
        {
          "name": "F5",
          "midi": 77,
          "time": 71.12500000000003,
          "velocity": 0.8188976377952756,
          "duration": 0.109375
        },
        {
          "name": "C5",
          "midi": 72,
          "time": 71.25000000000003,
          "velocity": 0.8188976377952756,
          "duration": 0.109375
        },
        {
          "name": "A4",
          "midi": 69,
          "time": 71.37500000000003,
          "velocity": 0.8188976377952756,
          "duration": 0.0989583333333286
        },
        {
          "name": "C5",
          "midi": 72,
          "time": 71.50000000000003,
          "velocity": 0.8188976377952756,
          "duration": 0.1041666666666714
        },
        {
          "name": "A4",
          "midi": 69,
          "time": 71.62500000000003,
          "velocity": 0.8188976377952756,
          "duration": 0.0989583333333286
        },
        {
          "name": "F4",
          "midi": 65,
          "time": 71.75000000000003,
          "velocity": 0.8188976377952756,
          "duration": 0.09375
        },
        {
          "name": "C4",
          "midi": 60,
          "time": 71.87500000000003,
          "velocity": 0.8188976377952756,
          "duration": 0.0833333333333286
        },
        {
          "name": "D4",
          "midi": 62,
          "time": 72.00000000000003,
          "velocity": 0.8188976377952756,
          "duration": 0.0833333333333286
        },
        {
          "name": "F3",
          "midi": 53,
          "time": 72.12500000000003,
          "velocity": 0.8188976377952756,
          "duration": 0.0833333333333286
        },
        {
          "name": "A#3",
          "midi": 58,
          "time": 72.25000000000003,
          "velocity": 0.8188976377952756,
          "duration": 0.0833333333333286
        },
        {
          "name": "D4",
          "midi": 62,
          "time": 72.37500000000003,
          "velocity": 0.8188976377952756,
          "duration": 0.0989583333333286
        },
        {
          "name": "F4",
          "midi": 65,
          "time": 72.50000000000003,
          "velocity": 0.8188976377952756,
          "duration": 0.0833333333333286
        },
        {
          "name": "A#3",
          "midi": 58,
          "time": 72.62500000000003,
          "velocity": 0.8188976377952756,
          "duration": 0.0833333333333286
        },
        {
          "name": "D4",
          "midi": 62,
          "time": 72.75000000000003,
          "velocity": 0.8188976377952756,
          "duration": 0.0885416666666714
        },
        {
          "name": "F4",
          "midi": 65,
          "time": 72.87500000000003,
          "velocity": 0.8188976377952756,
          "duration": 0.0885416666666714
        },
        {
          "name": "D4",
          "midi": 62,
          "time": 73.00000000000003,
          "velocity": 0.8188976377952756,
          "duration": 0.0833333333333286
        },
        {
          "name": "F3",
          "midi": 53,
          "time": 73.12500000000003,
          "velocity": 0.8188976377952756,
          "duration": 0.0833333333333286
        },
        {
          "name": "F4",
          "midi": 65,
          "time": 73.25000000000003,
          "velocity": 0.8188976377952756,
          "duration": 0.0833333333333286
        },
        {
          "name": "A4",
          "midi": 69,
          "time": 73.37500000000003,
          "velocity": 0.8188976377952756,
          "duration": 0.0989583333333286
        },
        {
          "name": "C5",
          "midi": 72,
          "time": 73.50000000000003,
          "velocity": 0.8188976377952756,
          "duration": 0.0833333333333286
        },
        {
          "name": "F4",
          "midi": 65,
          "time": 73.62500000000003,
          "velocity": 0.8188976377952756,
          "duration": 0.0989583333333286
        },
        {
          "name": "A4",
          "midi": 69,
          "time": 73.75000000000003,
          "velocity": 0.8188976377952756,
          "duration": 0.0885416666666714
        },
        {
          "name": "C5",
          "midi": 72,
          "time": 73.87500000000003,
          "velocity": 0.8188976377952756,
          "duration": 0.0885416666666714
        },
        {
          "name": "E4",
          "midi": 64,
          "time": 74.00000000000003,
          "velocity": 0.8188976377952756,
          "duration": 0.0833333333333286
        },
        {
          "name": "G3",
          "midi": 55,
          "time": 74.12500000000003,
          "velocity": 0.8188976377952756,
          "duration": 0.1041666666666714
        },
        {
          "name": "A#3",
          "midi": 58,
          "time": 74.25000000000003,
          "velocity": 0.8188976377952756,
          "duration": 0.0989583333333286
        },
        {
          "name": "E4",
          "midi": 64,
          "time": 74.37500000000003,
          "velocity": 0.8188976377952756,
          "duration": 0.09375
        },
        {
          "name": "G4",
          "midi": 67,
          "time": 74.50000000000003,
          "velocity": 0.8188976377952756,
          "duration": 0.0885416666666714
        },
        {
          "name": "A#3",
          "midi": 58,
          "time": 74.62500000000003,
          "velocity": 0.8188976377952756,
          "duration": 0.09375
        },
        {
          "name": "E4",
          "midi": 64,
          "time": 74.75000000000003,
          "velocity": 0.8188976377952756,
          "duration": 0.0989583333333286
        },
        {
          "name": "G4",
          "midi": 67,
          "time": 74.87500000000003,
          "velocity": 0.8188976377952756,
          "duration": 0.09375
        },
        {
          "name": "C4",
          "midi": 60,
          "time": 75.00000000000003,
          "velocity": 0.8188976377952756,
          "duration": 0.1302083333333286
        },
        {
          "name": "F4",
          "midi": 65,
          "time": 75.12500000000003,
          "velocity": 0.8188976377952756,
          "duration": 0.1145833333333286
        },
        {
          "name": "A4",
          "midi": 69,
          "time": 75.25000000000003,
          "velocity": 0.8188976377952756,
          "duration": 0.09375
        },
        {
          "name": "F4",
          "midi": 65,
          "time": 75.37500000000003,
          "velocity": 0.8188976377952756,
          "duration": 0.1614583333333286
        },
        {
          "name": "A4",
          "midi": 69,
          "time": 75.50000000000003,
          "velocity": 0.8188976377952756,
          "duration": 0.0833333333333286
        },
        {
          "name": "A4",
          "midi": 69,
          "time": 75.62500000000003,
          "velocity": 0.8188976377952756,
          "duration": 0.0833333333333286
        },
        {
          "name": "F5",
          "midi": 77,
          "time": 75.62500000000003,
          "velocity": 0.8188976377952756,
          "duration": 0.0833333333333286
        },
        {
          "name": "A4",
          "midi": 69,
          "time": 75.75000000000003,
          "velocity": 0.8188976377952756,
          "duration": 0.0833333333333286
        },
        {
          "name": "F5",
          "midi": 77,
          "time": 75.75000000000003,
          "velocity": 0.8188976377952756,
          "duration": 0.0833333333333286
        },
        {
          "name": "A4",
          "midi": 69,
          "time": 75.87500000000003,
          "velocity": 0.8188976377952756,
          "duration": 0.0833333333333286
        },
        {
          "name": "F5",
          "midi": 77,
          "time": 75.87500000000003,
          "velocity": 0.8188976377952756,
          "duration": 0.0833333333333286
        },
        {
          "name": "F4",
          "midi": 65,
          "time": 76.00000000000003,
          "velocity": 0.8188976377952756,
          "duration": 0.052083333333328596
        },
        {
          "name": "C5",
          "midi": 72,
          "time": 76.12500000000003,
          "velocity": 0.8188976377952756,
          "duration": 0.052083333333328596
        },
        {
          "name": "F5",
          "midi": 77,
          "time": 76.12500000000003,
          "velocity": 0.8188976377952756,
          "duration": 0.052083333333328596
        },
        {
          "name": "A5",
          "midi": 81,
          "time": 76.12500000000003,
          "velocity": 0.8188976377952756,
          "duration": 0.052083333333328596
        },
        {
          "name": "A4",
          "midi": 69,
          "time": 76.25000000000003,
          "velocity": 0.7874015748031497,
          "duration": 0.0625
        },
        {
          "name": "C5",
          "midi": 72,
          "time": 76.25000000000003,
          "velocity": 0.8031496062992126,
          "duration": 0.0625
        },
        {
          "name": "F5",
          "midi": 77,
          "time": 76.25000000000003,
          "velocity": 0.8188976377952756,
          "duration": 0.0625
        },
        {
          "name": "A4",
          "midi": 69,
          "time": 76.37500000000003,
          "velocity": 0.7559055118110236,
          "duration": 0.0625
        },
        {
          "name": "C5",
          "midi": 72,
          "time": 76.37500000000003,
          "velocity": 0.8031496062992126,
          "duration": 0.0625
        },
        {
          "name": "F5",
          "midi": 77,
          "time": 76.37500000000003,
          "velocity": 0.7874015748031497,
          "duration": 0.0625
        },
        {
          "name": "A4",
          "midi": 69,
          "time": 76.50000000000003,
          "velocity": 0.8031496062992126,
          "duration": 0.0625
        },
        {
          "name": "C5",
          "midi": 72,
          "time": 76.50000000000003,
          "velocity": 0.8188976377952756,
          "duration": 0.0625
        },
        {
          "name": "F5",
          "midi": 77,
          "time": 76.50000000000003,
          "velocity": 0.8188976377952756,
          "duration": 0.0625
        },
        {
          "name": "A4",
          "midi": 69,
          "time": 76.75000000000003,
          "velocity": 0.8188976377952756,
          "duration": 0.0625
        },
        {
          "name": "C5",
          "midi": 72,
          "time": 76.75000000000003,
          "velocity": 0.8188976377952756,
          "duration": 0.0625
        },
        {
          "name": "F5",
          "midi": 77,
          "time": 76.75000000000003,
          "velocity": 0.8188976377952756,
          "duration": 0.0625
        },
        {
          "name": "A4",
          "midi": 69,
          "time": 76.87500000000003,
          "velocity": 0.7559055118110236,
          "duration": 0.0625
        },
        {
          "name": "C5",
          "midi": 72,
          "time": 76.87500000000003,
          "velocity": 0.7874015748031497,
          "duration": 0.0625
        },
        {
          "name": "F5",
          "midi": 77,
          "time": 76.87500000000003,
          "velocity": 0.7874015748031497,
          "duration": 0.0625
        },
        {
          "name": "C5",
          "midi": 72,
          "time": 77.00000000000003,
          "velocity": 0.8188976377952756,
          "duration": 0.0625
        },
        {
          "name": "F5",
          "midi": 77,
          "time": 77.00000000000003,
          "velocity": 0.8188976377952756,
          "duration": 0.0625
        },
        {
          "name": "A5",
          "midi": 81,
          "time": 77.00000000000003,
          "velocity": 0.8188976377952756,
          "duration": 0.0625
        },
        {
          "name": "A4",
          "midi": 69,
          "time": 77.25000000000003,
          "velocity": 0.7874015748031497,
          "duration": 0.0625
        },
        {
          "name": "C5",
          "midi": 72,
          "time": 77.25000000000003,
          "velocity": 0.8188976377952756,
          "duration": 0.0625
        },
        {
          "name": "F5",
          "midi": 77,
          "time": 77.25000000000003,
          "velocity": 0.8188976377952756,
          "duration": 0.0625
        },
        {
          "name": "A4",
          "midi": 69,
          "time": 77.37500000000003,
          "velocity": 0.7716535433070866,
          "duration": 0.0625
        },
        {
          "name": "C5",
          "midi": 72,
          "time": 77.37500000000003,
          "velocity": 0.8031496062992126,
          "duration": 0.0625
        },
        {
          "name": "F5",
          "midi": 77,
          "time": 77.37500000000003,
          "velocity": 0.8188976377952756,
          "duration": 0.0625
        },
        {
          "name": "A4",
          "midi": 69,
          "time": 77.50000000000003,
          "velocity": 0.8188976377952756,
          "duration": 0.0625
        },
        {
          "name": "C5",
          "midi": 72,
          "time": 77.50000000000003,
          "velocity": 0.8188976377952756,
          "duration": 0.0625
        },
        {
          "name": "F5",
          "midi": 77,
          "time": 77.50000000000003,
          "velocity": 0.8188976377952756,
          "duration": 0.0625
        },
        {
          "name": "A4",
          "midi": 69,
          "time": 77.75000000000003,
          "velocity": 0.8188976377952756,
          "duration": 0.0625
        },
        {
          "name": "C5",
          "midi": 72,
          "time": 77.75000000000003,
          "velocity": 0.8188976377952756,
          "duration": 0.0625
        },
        {
          "name": "F5",
          "midi": 77,
          "time": 77.75000000000003,
          "velocity": 0.8188976377952756,
          "duration": 0.0625
        },
        {
          "name": "A4",
          "midi": 69,
          "time": 77.87500000000003,
          "velocity": 0.7716535433070866,
          "duration": 0.0625
        },
        {
          "name": "C5",
          "midi": 72,
          "time": 77.87500000000003,
          "velocity": 0.8188976377952756,
          "duration": 0.0625
        },
        {
          "name": "F5",
          "midi": 77,
          "time": 77.87500000000003,
          "velocity": 0.8188976377952756,
          "duration": 0.0625
        },
        {
          "name": "A4",
          "midi": 69,
          "time": 78.00000000000003,
          "velocity": 0.8188976377952756,
          "duration": 0.125
        },
        {
          "name": "C5",
          "midi": 72,
          "time": 78.00000000000003,
          "velocity": 0.8188976377952756,
          "duration": 0.125
        },
        {
          "name": "F5",
          "midi": 77,
          "time": 78.12500000000003,
          "velocity": 0.8188976377952756,
          "duration": 0.0625
        },
        {
          "name": "A5",
          "midi": 81,
          "time": 78.12500000000003,
          "velocity": 0.8188976377952756,
          "duration": 0.0625
        },
        {
          "name": "C6",
          "midi": 84,
          "time": 78.12500000000003,
          "velocity": 0.8188976377952756,
          "duration": 0.0625
        },
        {
          "name": "A4",
          "midi": 69,
          "time": 78.25000000000003,
          "velocity": 0.8188976377952756,
          "duration": 0.125
        },
        {
          "name": "C5",
          "midi": 72,
          "time": 78.25000000000003,
          "velocity": 0.7401574803149606,
          "duration": 0.125
        },
        {
          "name": "F5",
          "midi": 77,
          "time": 78.37500000000003,
          "velocity": 0.8188976377952756,
          "duration": 0.0625
        },
        {
          "name": "A5",
          "midi": 81,
          "time": 78.37500000000003,
          "velocity": 0.8188976377952756,
          "duration": 0.0625
        },
        {
          "name": "C6",
          "midi": 84,
          "time": 78.37500000000003,
          "velocity": 0.8188976377952756,
          "duration": 0.0625
        },
        {
          "name": "F4",
          "midi": 65,
          "time": 78.50000000000003,
          "velocity": 0.7401574803149606,
          "duration": 0.125
        },
        {
          "name": "A4",
          "midi": 69,
          "time": 78.50000000000003,
          "velocity": 0.7401574803149606,
          "duration": 0.125
        },
        {
          "name": "C5",
          "midi": 72,
          "time": 78.62500000000003,
          "velocity": 0.8188976377952756,
          "duration": 0.0625
        },
        {
          "name": "F5",
          "midi": 77,
          "time": 78.62500000000003,
          "velocity": 0.8188976377952756,
          "duration": 0.0625
        },
        {
          "name": "A5",
          "midi": 81,
          "time": 78.62500000000003,
          "velocity": 0.8188976377952756,
          "duration": 0.0625
        },
        {
          "name": "F4",
          "midi": 65,
          "time": 78.75000000000003,
          "velocity": 0.7401574803149606,
          "duration": 0.125
        },
        {
          "name": "A4",
          "midi": 69,
          "time": 78.75000000000003,
          "velocity": 0.7401574803149606,
          "duration": 0.125
        },
        {
          "name": "C5",
          "midi": 72,
          "time": 78.87500000000003,
          "velocity": 0.8188976377952756,
          "duration": 0.0625
        },
        {
          "name": "F5",
          "midi": 77,
          "time": 78.87500000000003,
          "velocity": 0.8188976377952756,
          "duration": 0.0625
        },
        {
          "name": "A5",
          "midi": 81,
          "time": 78.87500000000003,
          "velocity": 0.8188976377952756,
          "duration": 0.0625
        },
        {
          "name": "C4",
          "midi": 60,
          "time": 79.00000000000003,
          "velocity": 0.7401574803149606,
          "duration": 0.125
        },
        {
          "name": "F4",
          "midi": 65,
          "time": 79.00000000000003,
          "velocity": 0.7401574803149606,
          "duration": 0.125
        },
        {
          "name": "A4",
          "midi": 69,
          "time": 79.12500000000003,
          "velocity": 0.8188976377952756,
          "duration": 0.0625
        },
        {
          "name": "C5",
          "midi": 72,
          "time": 79.12500000000003,
          "velocity": 0.8188976377952756,
          "duration": 0.0625
        },
        {
          "name": "F5",
          "midi": 77,
          "time": 79.12500000000003,
          "velocity": 0.8188976377952756,
          "duration": 0.0625
        },
        {
          "name": "C4",
          "midi": 60,
          "time": 79.25000000000003,
          "velocity": 0.7401574803149606,
          "duration": 0.125
        },
        {
          "name": "F4",
          "midi": 65,
          "time": 79.25000000000003,
          "velocity": 0.7401574803149606,
          "duration": 0.125
        },
        {
          "name": "A4",
          "midi": 69,
          "time": 79.37500000000003,
          "velocity": 0.8188976377952756,
          "duration": 0.0625
        },
        {
          "name": "C5",
          "midi": 72,
          "time": 79.37500000000003,
          "velocity": 0.8188976377952756,
          "duration": 0.0625
        },
        {
          "name": "F5",
          "midi": 77,
          "time": 79.37500000000003,
          "velocity": 0.8188976377952756,
          "duration": 0.0625
        },
        {
          "name": "A3",
          "midi": 57,
          "time": 79.50000000000003,
          "velocity": 0.7401574803149606,
          "duration": 0.125
        },
        {
          "name": "C4",
          "midi": 60,
          "time": 79.50000000000003,
          "velocity": 0.7401574803149606,
          "duration": 0.125
        },
        {
          "name": "F4",
          "midi": 65,
          "time": 79.62500000000003,
          "velocity": 0.8188976377952756,
          "duration": 0.0625
        },
        {
          "name": "A4",
          "midi": 69,
          "time": 79.62500000000003,
          "velocity": 0.8188976377952756,
          "duration": 0.0625
        },
        {
          "name": "C5",
          "midi": 72,
          "time": 79.62500000000003,
          "velocity": 0.8188976377952756,
          "duration": 0.0625
        },
        {
          "name": "A3",
          "midi": 57,
          "time": 79.75000000000003,
          "velocity": 0.7401574803149606,
          "duration": 0.125
        },
        {
          "name": "C4",
          "midi": 60,
          "time": 79.75000000000003,
          "velocity": 0.7401574803149606,
          "duration": 0.125
        },
        {
          "name": "F4",
          "midi": 65,
          "time": 79.87500000000003,
          "velocity": 0.8188976377952756,
          "duration": 0.0625
        },
        {
          "name": "A4",
          "midi": 69,
          "time": 79.87500000000003,
          "velocity": 0.8188976377952756,
          "duration": 0.0625
        },
        {
          "name": "C5",
          "midi": 72,
          "time": 79.87500000000003,
          "velocity": 0.8188976377952756,
          "duration": 0.0625
        },
        {
          "name": "A4",
          "midi": 69,
          "time": 80.00000000000003,
          "velocity": 0.8188976377952756,
          "duration": 0.0833333333333286
        },
        {
          "name": "C4",
          "midi": 60,
          "time": 80.12500000000003,
          "velocity": 0.8188976377952756,
          "duration": 0.0833333333333286
        },
        {
          "name": "F4",
          "midi": 65,
          "time": 80.25000000000003,
          "velocity": 0.8188976377952756,
          "duration": 0.0833333333333286
        },
        {
          "name": "A4",
          "midi": 69,
          "time": 80.37500000000003,
          "velocity": 0.8188976377952756,
          "duration": 0.0989583333333286
        },
        {
          "name": "C5",
          "midi": 72,
          "time": 80.50000000000003,
          "velocity": 0.8188976377952756,
          "duration": 0.0833333333333286
        },
        {
          "name": "F4",
          "midi": 65,
          "time": 80.62500000000003,
          "velocity": 0.8188976377952756,
          "duration": 0.0833333333333286
        },
        {
          "name": "A4",
          "midi": 69,
          "time": 80.75000000000003,
          "velocity": 0.8188976377952756,
          "duration": 0.0885416666666714
        },
        {
          "name": "C5",
          "midi": 72,
          "time": 80.87500000000003,
          "velocity": 0.8188976377952756,
          "duration": 0.0885416666666714
        },
        {
          "name": "A4",
          "midi": 69,
          "time": 81.00000000000003,
          "velocity": 0.8188976377952756,
          "duration": 0.0833333333333286
        },
        {
          "name": "C4",
          "midi": 60,
          "time": 81.12500000000003,
          "velocity": 0.8188976377952756,
          "duration": 0.0833333333333286
        },
        {
          "name": "F4",
          "midi": 65,
          "time": 81.25000000000003,
          "velocity": 0.8188976377952756,
          "duration": 0.0833333333333286
        },
        {
          "name": "A4",
          "midi": 69,
          "time": 81.37500000000003,
          "velocity": 0.8188976377952756,
          "duration": 0.0989583333333286
        },
        {
          "name": "C5",
          "midi": 72,
          "time": 81.50000000000003,
          "velocity": 0.8188976377952756,
          "duration": 0.0833333333333286
        },
        {
          "name": "F4",
          "midi": 65,
          "time": 81.62500000000003,
          "velocity": 0.8188976377952756,
          "duration": 0.0989583333333286
        },
        {
          "name": "A4",
          "midi": 69,
          "time": 81.75000000000003,
          "velocity": 0.8188976377952756,
          "duration": 0.0885416666666714
        },
        {
          "name": "C5",
          "midi": 72,
          "time": 81.87500000000003,
          "velocity": 0.8188976377952756,
          "duration": 0.0885416666666714
        },
        {
          "name": "A4",
          "midi": 69,
          "time": 82.00000000000003,
          "velocity": 0.8188976377952756,
          "duration": 0.0833333333333286
        },
        {
          "name": "C4",
          "midi": 60,
          "time": 82.12500000000003,
          "velocity": 0.8188976377952756,
          "duration": 0.0885416666666714
        },
        {
          "name": "F4",
          "midi": 65,
          "time": 82.25000000000003,
          "velocity": 0.8188976377952756,
          "duration": 0.09375
        },
        {
          "name": "A4",
          "midi": 69,
          "time": 82.37500000000003,
          "velocity": 0.8188976377952756,
          "duration": 0.0989583333333286
        },
        {
          "name": "C5",
          "midi": 72,
          "time": 82.50000000000003,
          "velocity": 0.8188976377952756,
          "duration": 0.0885416666666714
        },
        {
          "name": "F4",
          "midi": 65,
          "time": 82.62500000000003,
          "velocity": 0.8188976377952756,
          "duration": 0.0885416666666714
        },
        {
          "name": "A4",
          "midi": 69,
          "time": 82.75000000000003,
          "velocity": 0.8188976377952756,
          "duration": 0.09375
        },
        {
          "name": "C5",
          "midi": 72,
          "time": 82.87500000000003,
          "velocity": 0.8188976377952756,
          "duration": 0.09375
        },
        {
          "name": "C4",
          "midi": 60,
          "time": 83.00000000000003,
          "velocity": 0.8188976377952756,
          "duration": 0.109375
        },
        {
          "name": "F4",
          "midi": 65,
          "time": 83.12500000000003,
          "velocity": 0.8188976377952756,
          "duration": 0.109375
        },
        {
          "name": "A4",
          "midi": 69,
          "time": 83.25000000000003,
          "velocity": 0.8188976377952756,
          "duration": 0.0885416666666714
        },
        {
          "name": "F4",
          "midi": 65,
          "time": 83.37500000000003,
          "velocity": 0.8188976377952756,
          "duration": 0.1145833333333286
        },
        {
          "name": "A4",
          "midi": 69,
          "time": 83.50000000000003,
          "velocity": 0.8188976377952756,
          "duration": 0.1145833333333286
        },
        {
          "name": "C5",
          "midi": 72,
          "time": 83.62500000000003,
          "velocity": 0.8188976377952756,
          "duration": 0.0833333333333286
        },
        {
          "name": "A4",
          "midi": 69,
          "time": 83.75000000000003,
          "velocity": 0.8188976377952756,
          "duration": 0.1145833333333286
        },
        {
          "name": "F5",
          "midi": 77,
          "time": 83.87500000000003,
          "velocity": 0.8188976377952756,
          "duration": 0.0833333333333286
        },
        {
          "name": "A4",
          "midi": 69,
          "time": 84.00000000000003,
          "velocity": 0.8188976377952756,
          "duration": 0.0833333333333286
        },
        {
          "name": "C4",
          "midi": 60,
          "time": 84.12500000000003,
          "velocity": 0.8188976377952756,
          "duration": 0.0833333333333286
        },
        {
          "name": "F4",
          "midi": 65,
          "time": 84.25000000000003,
          "velocity": 0.8188976377952756,
          "duration": 0.0833333333333286
        },
        {
          "name": "A4",
          "midi": 69,
          "time": 84.37500000000003,
          "velocity": 0.8188976377952756,
          "duration": 0.0989583333333286
        },
        {
          "name": "C5",
          "midi": 72,
          "time": 84.50000000000003,
          "velocity": 0.8188976377952756,
          "duration": 0.0833333333333286
        },
        {
          "name": "F4",
          "midi": 65,
          "time": 84.62500000000003,
          "velocity": 0.8188976377952756,
          "duration": 0.0833333333333286
        },
        {
          "name": "A4",
          "midi": 69,
          "time": 84.75000000000003,
          "velocity": 0.8188976377952756,
          "duration": 0.0885416666666714
        },
        {
          "name": "C5",
          "midi": 72,
          "time": 84.87500000000003,
          "velocity": 0.8188976377952756,
          "duration": 0.0885416666666714
        },
        {
          "name": "D4",
          "midi": 62,
          "time": 85.00000000000003,
          "velocity": 0.8188976377952756,
          "duration": 0.0833333333333286
        },
        {
          "name": "F3",
          "midi": 53,
          "time": 85.12500000000003,
          "velocity": 0.8188976377952756,
          "duration": 0.0833333333333286
        },
        {
          "name": "A#3",
          "midi": 58,
          "time": 85.25000000000003,
          "velocity": 0.8188976377952756,
          "duration": 0.0833333333333286
        },
        {
          "name": "D4",
          "midi": 62,
          "time": 85.37500000000003,
          "velocity": 0.8188976377952756,
          "duration": 0.0989583333333286
        },
        {
          "name": "F4",
          "midi": 65,
          "time": 85.50000000000003,
          "velocity": 0.8188976377952756,
          "duration": 0.0833333333333286
        },
        {
          "name": "A#3",
          "midi": 58,
          "time": 85.62500000000003,
          "velocity": 0.8188976377952756,
          "duration": 0.0989583333333286
        },
        {
          "name": "D4",
          "midi": 62,
          "time": 85.75000000000003,
          "velocity": 0.8188976377952756,
          "duration": 0.0885416666666714
        },
        {
          "name": "F4",
          "midi": 65,
          "time": 85.87500000000003,
          "velocity": 0.8188976377952756,
          "duration": 0.0885416666666714
        },
        {
          "name": "D4",
          "midi": 62,
          "time": 86.00000000000003,
          "velocity": 0.8188976377952756,
          "duration": 0.0885416666666714
        },
        {
          "name": "F3",
          "midi": 53,
          "time": 86.12500000000003,
          "velocity": 0.8188976377952756,
          "duration": 0.1145833333333286
        },
        {
          "name": "A#3",
          "midi": 58,
          "time": 86.25000000000003,
          "velocity": 0.8188976377952756,
          "duration": 0.1145833333333286
        },
        {
          "name": "D4",
          "midi": 62,
          "time": 86.37500000000003,
          "velocity": 0.8188976377952756,
          "duration": 0.1041666666666714
        },
        {
          "name": "A#3",
          "midi": 58,
          "time": 86.50000000000003,
          "velocity": 0.8188976377952756,
          "duration": 0.1145833333333286
        },
        {
          "name": "D4",
          "midi": 62,
          "time": 86.62500000000003,
          "velocity": 0.8188976377952756,
          "duration": 0.109375
        },
        {
          "name": "F4",
          "midi": 65,
          "time": 86.75000000000003,
          "velocity": 0.8188976377952756,
          "duration": 0.09375
        },
        {
          "name": "D4",
          "midi": 62,
          "time": 86.87500000000003,
          "velocity": 0.8188976377952756,
          "duration": 0.0885416666666714
        },
        {
          "name": "G4",
          "midi": 67,
          "time": 87.00000000000003,
          "velocity": 0.8188976377952756,
          "duration": 0.1041666666666714
        },
        {
          "name": "A#4",
          "midi": 70,
          "time": 87.12500000000003,
          "velocity": 0.8188976377952756,
          "duration": 0.109375
        },
        {
          "name": "G4",
          "midi": 67,
          "time": 87.25000000000003,
          "velocity": 0.8188976377952756,
          "duration": 0.109375
        },
        {
          "name": "E4",
          "midi": 64,
          "time": 87.37500000000003,
          "velocity": 0.8188976377952756,
          "duration": 0.0989583333333286
        },
        {
          "name": "G4",
          "midi": 67,
          "time": 87.50000000000003,
          "velocity": 0.8188976377952756,
          "duration": 0.1041666666666714
        },
        {
          "name": "E4",
          "midi": 64,
          "time": 87.62500000000003,
          "velocity": 0.8188976377952756,
          "duration": 0.0989583333333286
        },
        {
          "name": "A#3",
          "midi": 58,
          "time": 87.75000000000003,
          "velocity": 0.8188976377952756,
          "duration": 0.09375
        },
        {
          "name": "G3",
          "midi": 55,
          "time": 87.87500000000003,
          "velocity": 0.8188976377952756,
          "duration": 0.0833333333333286
        },
        {
          "name": "E4",
          "midi": 64,
          "time": 88.00000000000003,
          "velocity": 0.8188976377952756,
          "duration": 0.0833333333333286
        },
        {
          "name": "G3",
          "midi": 55,
          "time": 88.12500000000003,
          "velocity": 0.8188976377952756,
          "duration": 0.0833333333333286
        },
        {
          "name": "A#3",
          "midi": 58,
          "time": 88.25000000000003,
          "velocity": 0.8188976377952756,
          "duration": 0.0833333333333286
        },
        {
          "name": "E4",
          "midi": 64,
          "time": 88.37500000000003,
          "velocity": 0.8188976377952756,
          "duration": 0.0989583333333286
        },
        {
          "name": "G4",
          "midi": 67,
          "time": 88.50000000000003,
          "velocity": 0.8188976377952756,
          "duration": 0.0833333333333286
        },
        {
          "name": "A#3",
          "midi": 58,
          "time": 88.62500000000003,
          "velocity": 0.8188976377952756,
          "duration": 0.0833333333333286
        },
        {
          "name": "E4",
          "midi": 64,
          "time": 88.75000000000003,
          "velocity": 0.8188976377952756,
          "duration": 0.0885416666666714
        },
        {
          "name": "G4",
          "midi": 67,
          "time": 88.87500000000003,
          "velocity": 0.8188976377952756,
          "duration": 0.0885416666666714
        },
        {
          "name": "A4",
          "midi": 69,
          "time": 89.00000000000003,
          "velocity": 0.8188976377952756,
          "duration": 0.0833333333333286
        },
        {
          "name": "C4",
          "midi": 60,
          "time": 89.12500000000003,
          "velocity": 0.8188976377952756,
          "duration": 0.0833333333333286
        },
        {
          "name": "F4",
          "midi": 65,
          "time": 89.25000000000003,
          "velocity": 0.8188976377952756,
          "duration": 0.0833333333333286
        },
        {
          "name": "A4",
          "midi": 69,
          "time": 89.37500000000003,
          "velocity": 0.8188976377952756,
          "duration": 0.0989583333333286
        },
        {
          "name": "C5",
          "midi": 72,
          "time": 89.50000000000003,
          "velocity": 0.8188976377952756,
          "duration": 0.0833333333333286
        },
        {
          "name": "F4",
          "midi": 65,
          "time": 89.62500000000003,
          "velocity": 0.8188976377952756,
          "duration": 0.0989583333333286
        },
        {
          "name": "A4",
          "midi": 69,
          "time": 89.75000000000003,
          "velocity": 0.8188976377952756,
          "duration": 0.0885416666666714
        },
        {
          "name": "C5",
          "midi": 72,
          "time": 89.87500000000003,
          "velocity": 0.8188976377952756,
          "duration": 0.0885416666666714
        },
        {
          "name": "A4",
          "midi": 69,
          "time": 90.00000000000003,
          "velocity": 0.8188976377952756,
          "duration": 0.0833333333333286
        },
        {
          "name": "C4",
          "midi": 60,
          "time": 90.12500000000003,
          "velocity": 0.8188976377952756,
          "duration": 0.1041666666666714
        },
        {
          "name": "F4",
          "midi": 65,
          "time": 90.25000000000003,
          "velocity": 0.8188976377952756,
          "duration": 0.0989583333333286
        },
        {
          "name": "A4",
          "midi": 69,
          "time": 90.37500000000003,
          "velocity": 0.8188976377952756,
          "duration": 0.09375
        },
        {
          "name": "C5",
          "midi": 72,
          "time": 90.50000000000003,
          "velocity": 0.8188976377952756,
          "duration": 0.0885416666666714
        },
        {
          "name": "F4",
          "midi": 65,
          "time": 90.62500000000003,
          "velocity": 0.8188976377952756,
          "duration": 0.09375
        },
        {
          "name": "A4",
          "midi": 69,
          "time": 90.75000000000003,
          "velocity": 0.8188976377952756,
          "duration": 0.0989583333333286
        },
        {
          "name": "C5",
          "midi": 72,
          "time": 90.87500000000003,
          "velocity": 0.8188976377952756,
          "duration": 0.09375
        },
        {
          "name": "C4",
          "midi": 60,
          "time": 91.00000000000003,
          "velocity": 0.8188976377952756,
          "duration": 0.1302083333333286
        },
        {
          "name": "F4",
          "midi": 65,
          "time": 91.12500000000003,
          "velocity": 0.8188976377952756,
          "duration": 0.1145833333333286
        },
        {
          "name": "A4",
          "midi": 69,
          "time": 91.25000000000003,
          "velocity": 0.8188976377952756,
          "duration": 0.09375
        },
        {
          "name": "F4",
          "midi": 65,
          "time": 91.37500000000003,
          "velocity": 0.8188976377952756,
          "duration": 0.1614583333333286
        },
        {
          "name": "A4",
          "midi": 69,
          "time": 91.50000000000003,
          "velocity": 0.8188976377952756,
          "duration": 0.0833333333333286
        },
        {
          "name": "A4",
          "midi": 69,
          "time": 91.62500000000003,
          "velocity": 0.8188976377952756,
          "duration": 0.0833333333333286
        },
        {
          "name": "F5",
          "midi": 77,
          "time": 91.62500000000003,
          "velocity": 0.8188976377952756,
          "duration": 0.0833333333333286
        },
        {
          "name": "A4",
          "midi": 69,
          "time": 91.75000000000003,
          "velocity": 0.8188976377952756,
          "duration": 0.0833333333333286
        },
        {
          "name": "F5",
          "midi": 77,
          "time": 91.75000000000003,
          "velocity": 0.8188976377952756,
          "duration": 0.0833333333333286
        },
        {
          "name": "A4",
          "midi": 69,
          "time": 91.87500000000003,
          "velocity": 0.8188976377952756,
          "duration": 0.0833333333333286
        },
        {
          "name": "F5",
          "midi": 77,
          "time": 91.87500000000003,
          "velocity": 0.8188976377952756,
          "duration": 0.0833333333333286
        },
        {
          "name": "A4",
          "midi": 69,
          "time": 92.00000000000003,
          "velocity": 0.8188976377952756,
          "duration": 0.0833333333333286
        },
        {
          "name": "C4",
          "midi": 60,
          "time": 92.12500000000003,
          "velocity": 0.8188976377952756,
          "duration": 0.0833333333333286
        },
        {
          "name": "F4",
          "midi": 65,
          "time": 92.25000000000003,
          "velocity": 0.8188976377952756,
          "duration": 0.0833333333333286
        },
        {
          "name": "A4",
          "midi": 69,
          "time": 92.37500000000003,
          "velocity": 0.8188976377952756,
          "duration": 0.0989583333333286
        },
        {
          "name": "C5",
          "midi": 72,
          "time": 92.50000000000003,
          "velocity": 0.8188976377952756,
          "duration": 0.0833333333333286
        },
        {
          "name": "F4",
          "midi": 65,
          "time": 92.62500000000003,
          "velocity": 0.8188976377952756,
          "duration": 0.0833333333333286
        },
        {
          "name": "A4",
          "midi": 69,
          "time": 92.75000000000003,
          "velocity": 0.8188976377952756,
          "duration": 0.0885416666666714
        },
        {
          "name": "C5",
          "midi": 72,
          "time": 92.87500000000003,
          "velocity": 0.8188976377952756,
          "duration": 0.0885416666666714
        },
        {
          "name": "D4",
          "midi": 62,
          "time": 93.00000000000003,
          "velocity": 0.8188976377952756,
          "duration": 0.0833333333333286
        },
        {
          "name": "F3",
          "midi": 53,
          "time": 93.12500000000003,
          "velocity": 0.8188976377952756,
          "duration": 0.0833333333333286
        },
        {
          "name": "A#3",
          "midi": 58,
          "time": 93.25000000000003,
          "velocity": 0.8188976377952756,
          "duration": 0.0833333333333286
        },
        {
          "name": "D4",
          "midi": 62,
          "time": 93.37500000000003,
          "velocity": 0.8188976377952756,
          "duration": 0.0989583333333286
        },
        {
          "name": "F4",
          "midi": 65,
          "time": 93.50000000000003,
          "velocity": 0.8188976377952756,
          "duration": 0.0833333333333286
        },
        {
          "name": "A#3",
          "midi": 58,
          "time": 93.62500000000003,
          "velocity": 0.8188976377952756,
          "duration": 0.0989583333333286
        },
        {
          "name": "D4",
          "midi": 62,
          "time": 93.75000000000003,
          "velocity": 0.8188976377952756,
          "duration": 0.0885416666666714
        },
        {
          "name": "F4",
          "midi": 65,
          "time": 93.87500000000003,
          "velocity": 0.8188976377952756,
          "duration": 0.0885416666666714
        },
        {
          "name": "F3",
          "midi": 53,
          "time": 94.00000000000003,
          "velocity": 0.8188976377952756,
          "duration": 0.09375
        },
        {
          "name": "A#3",
          "midi": 58,
          "time": 94.12500000000003,
          "velocity": 0.8188976377952756,
          "duration": 0.1145833333333286
        },
        {
          "name": "D4",
          "midi": 62,
          "time": 94.25000000000003,
          "velocity": 0.8188976377952756,
          "duration": 0.09375
        },
        {
          "name": "A#3",
          "midi": 58,
          "time": 94.37500000000003,
          "velocity": 0.8188976377952756,
          "duration": 0.09375
        },
        {
          "name": "D4",
          "midi": 62,
          "time": 94.50000000000003,
          "velocity": 0.8188976377952756,
          "duration": 0.109375
        },
        {
          "name": "F4",
          "midi": 65,
          "time": 94.62500000000003,
          "velocity": 0.8188976377952756,
          "duration": 0.0885416666666714
        },
        {
          "name": "D4",
          "midi": 62,
          "time": 94.75000000000003,
          "velocity": 0.8188976377952756,
          "duration": 0.109375
        },
        {
          "name": "F4",
          "midi": 65,
          "time": 94.87500000000003,
          "velocity": 0.8188976377952756,
          "duration": 0.109375
        },
        {
          "name": "E4",
          "midi": 64,
          "time": 95.00000000000003,
          "velocity": 0.8188976377952756,
          "duration": 0.09375
        },
        {
          "name": "G4",
          "midi": 67,
          "time": 95.12500000000003,
          "velocity": 0.8188976377952756,
          "duration": 0.1197916666666714
        },
        {
          "name": "A#4",
          "midi": 70,
          "time": 95.25000000000003,
          "velocity": 0.8188976377952756,
          "duration": 0.15625
        },
        {
          "name": "G4",
          "midi": 67,
          "time": 95.37500000000003,
          "velocity": 0.8188976377952756,
          "duration": 0.1354166666666714
        },
        {
          "name": "E4",
          "midi": 64,
          "time": 95.50000000000003,
          "velocity": 0.8188976377952756,
          "duration": 0.109375
        },
        {
          "name": "A#3",
          "midi": 58,
          "time": 95.62500000000003,
          "velocity": 0.8188976377952756,
          "duration": 0.0989583333333286
        },
        {
          "name": "G3",
          "midi": 55,
          "time": 95.75000000000003,
          "velocity": 0.8188976377952756,
          "duration": 0.1041666666666714
        },
        {
          "name": "E3",
          "midi": 52,
          "time": 95.87500000000003,
          "velocity": 0.8188976377952756,
          "duration": 0.0833333333333286
        },
        {
          "name": "E4",
          "midi": 64,
          "time": 96.00000000000003,
          "velocity": 0.8188976377952756,
          "duration": 0.0833333333333286
        },
        {
          "name": "G3",
          "midi": 55,
          "time": 96.12500000000003,
          "velocity": 0.8188976377952756,
          "duration": 0.0833333333333286
        },
        {
          "name": "A#3",
          "midi": 58,
          "time": 96.25000000000003,
          "velocity": 0.8188976377952756,
          "duration": 0.0833333333333286
        },
        {
          "name": "E4",
          "midi": 64,
          "time": 96.37500000000003,
          "velocity": 0.8188976377952756,
          "duration": 0.0989583333333286
        },
        {
          "name": "G4",
          "midi": 67,
          "time": 96.50000000000003,
          "velocity": 0.8188976377952756,
          "duration": 0.0833333333333286
        },
        {
          "name": "A#3",
          "midi": 58,
          "time": 96.62500000000003,
          "velocity": 0.8188976377952756,
          "duration": 0.0833333333333286
        },
        {
          "name": "E4",
          "midi": 64,
          "time": 96.75000000000003,
          "velocity": 0.8188976377952756,
          "duration": 0.0885416666666714
        },
        {
          "name": "G4",
          "midi": 67,
          "time": 96.87500000000003,
          "velocity": 0.8188976377952756,
          "duration": 0.0885416666666714
        },
        {
          "name": "E4",
          "midi": 64,
          "time": 97.00000000000003,
          "velocity": 0.8188976377952756,
          "duration": 0.0833333333333286
        },
        {
          "name": "G3",
          "midi": 55,
          "time": 97.12500000000003,
          "velocity": 0.8188976377952756,
          "duration": 0.0833333333333286
        },
        {
          "name": "F4",
          "midi": 65,
          "time": 97.25000000000003,
          "velocity": 0.8188976377952756,
          "duration": 0.0833333333333286
        },
        {
          "name": "A4",
          "midi": 69,
          "time": 97.37500000000003,
          "velocity": 0.8188976377952756,
          "duration": 0.0989583333333286
        },
        {
          "name": "C5",
          "midi": 72,
          "time": 97.50000000000003,
          "velocity": 0.8188976377952756,
          "duration": 0.0833333333333286
        },
        {
          "name": "F4",
          "midi": 65,
          "time": 97.62500000000003,
          "velocity": 0.8188976377952756,
          "duration": 0.0989583333333286
        },
        {
          "name": "A4",
          "midi": 69,
          "time": 97.75000000000003,
          "velocity": 0.8188976377952756,
          "duration": 0.0885416666666714
        },
        {
          "name": "C5",
          "midi": 72,
          "time": 97.87500000000003,
          "velocity": 0.8188976377952756,
          "duration": 0.0885416666666714
        },
        {
          "name": "A4",
          "midi": 69,
          "time": 98.00000000000003,
          "velocity": 0.8188976377952756,
          "duration": 0.0833333333333286
        },
        {
          "name": "C4",
          "midi": 60,
          "time": 98.12500000000003,
          "velocity": 0.8188976377952756,
          "duration": 0.0885416666666714
        },
        {
          "name": "F4",
          "midi": 65,
          "time": 98.25000000000003,
          "velocity": 0.8188976377952756,
          "duration": 0.09375
        },
        {
          "name": "A4",
          "midi": 69,
          "time": 98.37500000000003,
          "velocity": 0.8188976377952756,
          "duration": 0.0989583333333286
        },
        {
          "name": "C5",
          "midi": 72,
          "time": 98.50000000000003,
          "velocity": 0.8188976377952756,
          "duration": 0.0989583333333286
        },
        {
          "name": "C4",
          "midi": 60,
          "time": 98.62500000000003,
          "velocity": 0.7401574803149606,
          "duration": 0.0625
        },
        {
          "name": "F4",
          "midi": 65,
          "time": 98.62500000000003,
          "velocity": 0.7401574803149606,
          "duration": 0.0625
        },
        {
          "name": "A4",
          "midi": 69,
          "time": 98.62500000000003,
          "velocity": 0.7401574803149606,
          "duration": 0.0625
        },
        {
          "name": "F5",
          "midi": 77,
          "time": 98.62500000000003,
          "velocity": 0.8188976377952756,
          "duration": 0.0729166666666714
        },
        {
          "name": "C4",
          "midi": 60,
          "time": 98.75000000000003,
          "velocity": 0.7401574803149606,
          "duration": 0.0625
        },
        {
          "name": "F4",
          "midi": 65,
          "time": 98.75000000000003,
          "velocity": 0.7401574803149606,
          "duration": 0.0625
        },
        {
          "name": "A4",
          "midi": 69,
          "time": 98.75000000000003,
          "velocity": 0.7401574803149606,
          "duration": 0.0625
        },
        {
          "name": "C5",
          "midi": 72,
          "time": 98.75000000000003,
          "velocity": 0.8188976377952756,
          "duration": 0.078125
        },
        {
          "name": "C4",
          "midi": 60,
          "time": 98.87500000000003,
          "velocity": 0.7401574803149606,
          "duration": 0.0625
        },
        {
          "name": "F4",
          "midi": 65,
          "time": 98.87500000000003,
          "velocity": 0.7401574803149606,
          "duration": 0.0625
        },
        {
          "name": "A4",
          "midi": 69,
          "time": 98.87500000000003,
          "velocity": 0.7716535433070866,
          "duration": 0.0625
        },
        {
          "name": "F5",
          "midi": 77,
          "time": 98.87500000000003,
          "velocity": 0.8188976377952756,
          "duration": 0.0989583333333286
        },
        {
          "name": "A5",
          "midi": 81,
          "time": 99.00000000000003,
          "velocity": 0.8188976377952756,
          "duration": 0.0729166666666714
        },
        {
          "name": "C4",
          "midi": 60,
          "time": 99.12500000000003,
          "velocity": 0.7401574803149606,
          "duration": 0.0625
        },
        {
          "name": "F4",
          "midi": 65,
          "time": 99.12500000000003,
          "velocity": 0.7401574803149606,
          "duration": 0.0625
        },
        {
          "name": "A4",
          "midi": 69,
          "time": 99.12500000000003,
          "velocity": 0.7716535433070866,
          "duration": 0.0625
        },
        {
          "name": "F5",
          "midi": 77,
          "time": 99.12500000000003,
          "velocity": 0.8188976377952756,
          "duration": 0.0677083333333286
        },
        {
          "name": "C4",
          "midi": 60,
          "time": 99.25000000000003,
          "velocity": 0.7401574803149606,
          "duration": 0.0625
        },
        {
          "name": "F4",
          "midi": 65,
          "time": 99.25000000000003,
          "velocity": 0.7401574803149606,
          "duration": 0.0625
        },
        {
          "name": "A4",
          "midi": 69,
          "time": 99.25000000000003,
          "velocity": 0.7401574803149606,
          "duration": 0.0625
        },
        {
          "name": "A5",
          "midi": 81,
          "time": 99.25000000000003,
          "velocity": 0.8188976377952756,
          "duration": 0.0833333333333286
        },
        {
          "name": "C4",
          "midi": 60,
          "time": 99.37500000000003,
          "velocity": 0.7401574803149606,
          "duration": 0.0625
        },
        {
          "name": "F4",
          "midi": 65,
          "time": 99.37500000000003,
          "velocity": 0.7559055118110236,
          "duration": 0.0625
        },
        {
          "name": "A4",
          "midi": 69,
          "time": 99.37500000000003,
          "velocity": 0.7874015748031497,
          "duration": 0.0625
        },
        {
          "name": "C6",
          "midi": 84,
          "time": 99.37500000000003,
          "velocity": 0.8188976377952756,
          "duration": 0.0833333333333286
        },
        {
          "name": "A5",
          "midi": 81,
          "time": 99.50000000000003,
          "velocity": 0.8188976377952756,
          "duration": 0.0833333333333286
        },
        {
          "name": "C4",
          "midi": 60,
          "time": 99.62500000000003,
          "velocity": 0.7559055118110236,
          "duration": 0.0625
        },
        {
          "name": "F4",
          "midi": 65,
          "time": 99.62500000000003,
          "velocity": 0.8031496062992126,
          "duration": 0.0625
        },
        {
          "name": "A4",
          "midi": 69,
          "time": 99.62500000000003,
          "velocity": 0.8031496062992126,
          "duration": 0.0625
        },
        {
          "name": "F5",
          "midi": 77,
          "time": 99.62500000000003,
          "velocity": 0.8188976377952756,
          "duration": 0.078125
        },
        {
          "name": "C4",
          "midi": 60,
          "time": 99.75000000000003,
          "velocity": 0.7401574803149606,
          "duration": 0.0625
        },
        {
          "name": "F4",
          "midi": 65,
          "time": 99.75000000000003,
          "velocity": 0.7401574803149606,
          "duration": 0.0625
        },
        {
          "name": "A4",
          "midi": 69,
          "time": 99.75000000000003,
          "velocity": 0.7716535433070866,
          "duration": 0.0625
        },
        {
          "name": "C5",
          "midi": 72,
          "time": 99.75000000000003,
          "velocity": 0.8188976377952756,
          "duration": 0.0729166666666714
        },
        {
          "name": "C4",
          "midi": 60,
          "time": 99.87500000000003,
          "velocity": 0.7559055118110236,
          "duration": 0.0625
        },
        {
          "name": "F4",
          "midi": 65,
          "time": 99.87500000000003,
          "velocity": 0.7874015748031497,
          "duration": 0.0625
        },
        {
          "name": "A4",
          "midi": 69,
          "time": 99.87500000000003,
          "velocity": 0.8188976377952756,
          "duration": 0.0625
        },
        {
          "name": "F4",
          "midi": 65,
          "time": 100.00000000000003,
          "velocity": 0.8188976377952756,
          "duration": 0.052083333333328596
        },
        {
          "name": "C5",
          "midi": 72,
          "time": 100.12500000000003,
          "velocity": 0.8188976377952756,
          "duration": 0.052083333333328596
        },
        {
          "name": "F5",
          "midi": 77,
          "time": 100.12500000000003,
          "velocity": 0.8188976377952756,
          "duration": 0.052083333333328596
        },
        {
          "name": "A5",
          "midi": 81,
          "time": 100.12500000000003,
          "velocity": 0.8188976377952756,
          "duration": 0.052083333333328596
        },
        {
          "name": "C5",
          "midi": 72,
          "time": 100.25000000000003,
          "velocity": 0.8031496062992126,
          "duration": 0.052083333333328596
        },
        {
          "name": "F5",
          "midi": 77,
          "time": 100.25000000000003,
          "velocity": 0.8188976377952756,
          "duration": 0.052083333333328596
        },
        {
          "name": "A5",
          "midi": 81,
          "time": 100.25000000000003,
          "velocity": 0.8031496062992126,
          "duration": 0.052083333333328596
        },
        {
          "name": "C5",
          "midi": 72,
          "time": 100.37500000000003,
          "velocity": 0.8031496062992126,
          "duration": 0.052083333333328596
        },
        {
          "name": "F5",
          "midi": 77,
          "time": 100.37500000000003,
          "velocity": 0.8188976377952756,
          "duration": 0.052083333333328596
        },
        {
          "name": "A5",
          "midi": 81,
          "time": 100.37500000000003,
          "velocity": 0.8188976377952756,
          "duration": 0.052083333333328596
        },
        {
          "name": "A4",
          "midi": 69,
          "time": 100.50000000000003,
          "velocity": 0.8188976377952756,
          "duration": 0.052083333333328596
        },
        {
          "name": "C5",
          "midi": 72,
          "time": 100.62500000000003,
          "velocity": 0.8188976377952756,
          "duration": 0.052083333333328596
        },
        {
          "name": "F5",
          "midi": 77,
          "time": 100.62500000000003,
          "velocity": 0.8188976377952756,
          "duration": 0.052083333333328596
        },
        {
          "name": "A5",
          "midi": 81,
          "time": 100.62500000000003,
          "velocity": 0.8188976377952756,
          "duration": 0.052083333333328596
        },
        {
          "name": "C5",
          "midi": 72,
          "time": 100.75000000000003,
          "velocity": 0.8188976377952756,
          "duration": 0.052083333333328596
        },
        {
          "name": "F5",
          "midi": 77,
          "time": 100.75000000000003,
          "velocity": 0.8188976377952756,
          "duration": 0.052083333333328596
        },
        {
          "name": "A5",
          "midi": 81,
          "time": 100.75000000000003,
          "velocity": 0.8188976377952756,
          "duration": 0.052083333333328596
        },
        {
          "name": "C5",
          "midi": 72,
          "time": 100.87500000000003,
          "velocity": 0.8188976377952756,
          "duration": 0.052083333333328596
        },
        {
          "name": "F5",
          "midi": 77,
          "time": 100.87500000000003,
          "velocity": 0.8188976377952756,
          "duration": 0.052083333333328596
        },
        {
          "name": "A5",
          "midi": 81,
          "time": 100.87500000000003,
          "velocity": 0.8188976377952756,
          "duration": 0.052083333333328596
        },
        {
          "name": "F4",
          "midi": 65,
          "time": 101.00000000000003,
          "velocity": 0.8188976377952756,
          "duration": 0.052083333333328596
        },
        {
          "name": "C5",
          "midi": 72,
          "time": 101.12500000000003,
          "velocity": 0.8188976377952756,
          "duration": 0.052083333333328596
        },
        {
          "name": "F5",
          "midi": 77,
          "time": 101.12500000000003,
          "velocity": 0.8188976377952756,
          "duration": 0.052083333333328596
        },
        {
          "name": "A5",
          "midi": 81,
          "time": 101.12500000000003,
          "velocity": 0.8188976377952756,
          "duration": 0.052083333333328596
        },
        {
          "name": "C5",
          "midi": 72,
          "time": 101.25000000000003,
          "velocity": 0.7874015748031497,
          "duration": 0.052083333333328596
        },
        {
          "name": "F5",
          "midi": 77,
          "time": 101.25000000000003,
          "velocity": 0.8188976377952756,
          "duration": 0.052083333333328596
        },
        {
          "name": "A5",
          "midi": 81,
          "time": 101.25000000000003,
          "velocity": 0.8188976377952756,
          "duration": 0.052083333333328596
        },
        {
          "name": "C5",
          "midi": 72,
          "time": 101.37500000000003,
          "velocity": 0.8188976377952756,
          "duration": 0.052083333333328596
        },
        {
          "name": "F5",
          "midi": 77,
          "time": 101.37500000000003,
          "velocity": 0.8188976377952756,
          "duration": 0.052083333333328596
        },
        {
          "name": "A5",
          "midi": 81,
          "time": 101.37500000000003,
          "velocity": 0.8188976377952756,
          "duration": 0.052083333333328596
        },
        {
          "name": "A4",
          "midi": 69,
          "time": 101.50000000000003,
          "velocity": 0.8188976377952756,
          "duration": 0.052083333333328596
        },
        {
          "name": "C5",
          "midi": 72,
          "time": 101.62500000000003,
          "velocity": 0.8031496062992126,
          "duration": 0.052083333333328596
        },
        {
          "name": "F5",
          "midi": 77,
          "time": 101.62500000000003,
          "velocity": 0.8188976377952756,
          "duration": 0.052083333333328596
        },
        {
          "name": "A5",
          "midi": 81,
          "time": 101.62500000000003,
          "velocity": 0.8188976377952756,
          "duration": 0.052083333333328596
        },
        {
          "name": "C5",
          "midi": 72,
          "time": 101.75000000000003,
          "velocity": 0.7874015748031497,
          "duration": 0.052083333333328596
        },
        {
          "name": "F5",
          "midi": 77,
          "time": 101.75000000000003,
          "velocity": 0.8188976377952756,
          "duration": 0.052083333333328596
        },
        {
          "name": "A5",
          "midi": 81,
          "time": 101.75000000000003,
          "velocity": 0.8188976377952756,
          "duration": 0.052083333333328596
        },
        {
          "name": "C5",
          "midi": 72,
          "time": 101.87500000000003,
          "velocity": 0.8031496062992126,
          "duration": 0.05729166666665719
        },
        {
          "name": "F5",
          "midi": 77,
          "time": 101.87500000000003,
          "velocity": 0.8188976377952756,
          "duration": 0.052083333333328596
        },
        {
          "name": "A5",
          "midi": 81,
          "time": 101.87500000000003,
          "velocity": 0.8188976377952756,
          "duration": 0.05729166666665719
        },
        {
          "name": "A#3",
          "midi": 58,
          "time": 102.00000000000001,
          "velocity": 0.8188976377952756,
          "duration": 0.052083333333328596
        },
        {
          "name": "F4",
          "midi": 65,
          "time": 102.12500000000001,
          "velocity": 0.8188976377952756,
          "duration": 0.052083333333328596
        },
        {
          "name": "A#4",
          "midi": 70,
          "time": 102.12500000000001,
          "velocity": 0.8188976377952756,
          "duration": 0.052083333333328596
        },
        {
          "name": "D5",
          "midi": 74,
          "time": 102.12500000000001,
          "velocity": 0.8188976377952756,
          "duration": 0.052083333333328596
        },
        {
          "name": "F4",
          "midi": 65,
          "time": 102.25000000000001,
          "velocity": 0.8188976377952756,
          "duration": 0.052083333333328596
        },
        {
          "name": "A#4",
          "midi": 70,
          "time": 102.25000000000001,
          "velocity": 0.8188976377952756,
          "duration": 0.052083333333328596
        },
        {
          "name": "D5",
          "midi": 74,
          "time": 102.25000000000001,
          "velocity": 0.8188976377952756,
          "duration": 0.052083333333328596
        },
        {
          "name": "F4",
          "midi": 65,
          "time": 102.37500000000001,
          "velocity": 0.8188976377952756,
          "duration": 0.05729166666665719
        },
        {
          "name": "A#4",
          "midi": 70,
          "time": 102.37500000000001,
          "velocity": 0.8188976377952756,
          "duration": 0.052083333333328596
        },
        {
          "name": "D5",
          "midi": 74,
          "time": 102.37500000000001,
          "velocity": 0.8188976377952756,
          "duration": 0.052083333333328596
        },
        {
          "name": "D4",
          "midi": 62,
          "time": 102.5,
          "velocity": 0.8188976377952756,
          "duration": 0.052083333333328596
        },
        {
          "name": "F4",
          "midi": 65,
          "time": 102.625,
          "velocity": 0.7874015748031497,
          "duration": 0.052083333333328596
        },
        {
          "name": "A#4",
          "midi": 70,
          "time": 102.625,
          "velocity": 0.8031496062992126,
          "duration": 0.052083333333328596
        },
        {
          "name": "D5",
          "midi": 74,
          "time": 102.625,
          "velocity": 0.8188976377952756,
          "duration": 0.052083333333328596
        },
        {
          "name": "F4",
          "midi": 65,
          "time": 102.75,
          "velocity": 0.8031496062992126,
          "duration": 0.052083333333328596
        },
        {
          "name": "A#4",
          "midi": 70,
          "time": 102.75,
          "velocity": 0.8188976377952756,
          "duration": 0.052083333333328596
        },
        {
          "name": "D5",
          "midi": 74,
          "time": 102.75,
          "velocity": 0.8188976377952756,
          "duration": 0.052083333333328596
        },
        {
          "name": "F4",
          "midi": 65,
          "time": 102.875,
          "velocity": 0.8031496062992126,
          "duration": 0.052083333333328596
        },
        {
          "name": "A#4",
          "midi": 70,
          "time": 102.875,
          "velocity": 0.8188976377952756,
          "duration": 0.052083333333328596
        },
        {
          "name": "D5",
          "midi": 74,
          "time": 102.875,
          "velocity": 0.8188976377952756,
          "duration": 0.052083333333328596
        },
        {
          "name": "A#3",
          "midi": 58,
          "time": 103,
          "velocity": 0.8188976377952756,
          "duration": 0.052083333333328596
        },
        {
          "name": "F4",
          "midi": 65,
          "time": 103.125,
          "velocity": 0.8188976377952756,
          "duration": 0.05729166666665719
        },
        {
          "name": "A#4",
          "midi": 70,
          "time": 103.125,
          "velocity": 0.8188976377952756,
          "duration": 0.052083333333328596
        },
        {
          "name": "D5",
          "midi": 74,
          "time": 103.125,
          "velocity": 0.8188976377952756,
          "duration": 0.052083333333328596
        },
        {
          "name": "A4",
          "midi": 69,
          "time": 103.24999999999999,
          "velocity": 0.8188976377952756,
          "duration": 0.052083333333328596
        },
        {
          "name": "C5",
          "midi": 72,
          "time": 103.37499999999999,
          "velocity": 0.8188976377952756,
          "duration": 0.052083333333328596
        },
        {
          "name": "F5",
          "midi": 77,
          "time": 103.37499999999999,
          "velocity": 0.8031496062992126,
          "duration": 0.052083333333328596
        },
        {
          "name": "A5",
          "midi": 81,
          "time": 103.37499999999999,
          "velocity": 0.8188976377952756,
          "duration": 0.052083333333328596
        },
        {
          "name": "F5",
          "midi": 77,
          "time": 103.62499999999999,
          "velocity": 0.7716535433070866,
          "duration": 0.052083333333328596
        },
        {
          "name": "A5",
          "midi": 81,
          "time": 103.62499999999999,
          "velocity": 0.8031496062992126,
          "duration": 0.052083333333328596
        },
        {
          "name": "C6",
          "midi": 84,
          "time": 103.62499999999999,
          "velocity": 0.8188976377952756,
          "duration": 0.052083333333328596
        },
        {
          "name": "C5",
          "midi": 72,
          "time": 103.74999999999999,
          "velocity": 0.8188976377952756,
          "duration": 0.052083333333328596
        },
        {
          "name": "C5",
          "midi": 72,
          "time": 103.87499999999999,
          "velocity": 0.8188976377952756,
          "duration": 0.052083333333328596
        },
        {
          "name": "F5",
          "midi": 77,
          "time": 103.87499999999999,
          "velocity": 0.8188976377952756,
          "duration": 0.052083333333328596
        },
        {
          "name": "A5",
          "midi": 81,
          "time": 103.87499999999999,
          "velocity": 0.8188976377952756,
          "duration": 0.052083333333328596
        },
        {
          "name": "G3",
          "midi": 55,
          "time": 103.99999999999999,
          "velocity": 0.8188976377952756,
          "duration": 0.052083333333328596
        },
        {
          "name": "D4",
          "midi": 62,
          "time": 104.12499999999999,
          "velocity": 0.8188976377952756,
          "duration": 0.052083333333328596
        },
        {
          "name": "G4",
          "midi": 67,
          "time": 104.12499999999999,
          "velocity": 0.8188976377952756,
          "duration": 0.052083333333328596
        },
        {
          "name": "B4",
          "midi": 71,
          "time": 104.12499999999999,
          "velocity": 0.8188976377952756,
          "duration": 0.052083333333328596
        },
        {
          "name": "D4",
          "midi": 62,
          "time": 104.24999999999999,
          "velocity": 0.8031496062992126,
          "duration": 0.052083333333328596
        },
        {
          "name": "G4",
          "midi": 67,
          "time": 104.24999999999999,
          "velocity": 0.8188976377952756,
          "duration": 0.052083333333328596
        },
        {
          "name": "B4",
          "midi": 71,
          "time": 104.24999999999999,
          "velocity": 0.8031496062992126,
          "duration": 0.052083333333328596
        },
        {
          "name": "D4",
          "midi": 62,
          "time": 104.37499999999999,
          "velocity": 0.8031496062992126,
          "duration": 0.052083333333328596
        },
        {
          "name": "G4",
          "midi": 67,
          "time": 104.37499999999999,
          "velocity": 0.8188976377952756,
          "duration": 0.052083333333328596
        },
        {
          "name": "B4",
          "midi": 71,
          "time": 104.37499999999999,
          "velocity": 0.8188976377952756,
          "duration": 0.052083333333328596
        },
        {
          "name": "B3",
          "midi": 59,
          "time": 104.49999999999999,
          "velocity": 0.8188976377952756,
          "duration": 0.052083333333328596
        },
        {
          "name": "D4",
          "midi": 62,
          "time": 104.62499999999999,
          "velocity": 0.8188976377952756,
          "duration": 0.052083333333328596
        },
        {
          "name": "G4",
          "midi": 67,
          "time": 104.62499999999999,
          "velocity": 0.8188976377952756,
          "duration": 0.052083333333328596
        },
        {
          "name": "B4",
          "midi": 71,
          "time": 104.62499999999999,
          "velocity": 0.8188976377952756,
          "duration": 0.052083333333328596
        },
        {
          "name": "D4",
          "midi": 62,
          "time": 104.74999999999999,
          "velocity": 0.8188976377952756,
          "duration": 0.052083333333328596
        },
        {
          "name": "G4",
          "midi": 67,
          "time": 104.74999999999999,
          "velocity": 0.8188976377952756,
          "duration": 0.052083333333328596
        },
        {
          "name": "B4",
          "midi": 71,
          "time": 104.74999999999999,
          "velocity": 0.8188976377952756,
          "duration": 0.052083333333328596
        },
        {
          "name": "D4",
          "midi": 62,
          "time": 104.87499999999999,
          "velocity": 0.8188976377952756,
          "duration": 0.052083333333328596
        },
        {
          "name": "G4",
          "midi": 67,
          "time": 104.87499999999999,
          "velocity": 0.8188976377952756,
          "duration": 0.052083333333328596
        },
        {
          "name": "B4",
          "midi": 71,
          "time": 104.87499999999999,
          "velocity": 0.8188976377952756,
          "duration": 0.052083333333328596
        },
        {
          "name": "C4",
          "midi": 60,
          "time": 104.99999999999999,
          "velocity": 0.8188976377952756,
          "duration": 0.052083333333328596
        },
        {
          "name": "G4",
          "midi": 67,
          "time": 105.12499999999999,
          "velocity": 0.8188976377952756,
          "duration": 0.052083333333328596
        },
        {
          "name": "A#4",
          "midi": 70,
          "time": 105.12499999999999,
          "velocity": 0.8188976377952756,
          "duration": 0.052083333333328596
        },
        {
          "name": "E5",
          "midi": 76,
          "time": 105.12499999999999,
          "velocity": 0.8188976377952756,
          "duration": 0.052083333333328596
        },
        {
          "name": "G4",
          "midi": 67,
          "time": 105.24999999999999,
          "velocity": 0.7874015748031497,
          "duration": 0.052083333333328596
        },
        {
          "name": "A#4",
          "midi": 70,
          "time": 105.24999999999999,
          "velocity": 0.8188976377952756,
          "duration": 0.052083333333328596
        },
        {
          "name": "E5",
          "midi": 76,
          "time": 105.24999999999999,
          "velocity": 0.8188976377952756,
          "duration": 0.052083333333328596
        },
        {
          "name": "G4",
          "midi": 67,
          "time": 105.37499999999999,
          "velocity": 0.8188976377952756,
          "duration": 0.052083333333328596
        },
        {
          "name": "A#4",
          "midi": 70,
          "time": 105.37499999999999,
          "velocity": 0.8188976377952756,
          "duration": 0.052083333333328596
        },
        {
          "name": "E5",
          "midi": 76,
          "time": 105.37499999999999,
          "velocity": 0.8188976377952756,
          "duration": 0.052083333333328596
        },
        {
          "name": "E4",
          "midi": 64,
          "time": 105.49999999999999,
          "velocity": 0.8188976377952756,
          "duration": 0.052083333333328596
        },
        {
          "name": "G4",
          "midi": 67,
          "time": 105.62499999999999,
          "velocity": 0.8031496062992126,
          "duration": 0.052083333333328596
        },
        {
          "name": "A#4",
          "midi": 70,
          "time": 105.62499999999999,
          "velocity": 0.8188976377952756,
          "duration": 0.052083333333328596
        },
        {
          "name": "E5",
          "midi": 76,
          "time": 105.62499999999999,
          "velocity": 0.8188976377952756,
          "duration": 0.052083333333328596
        },
        {
          "name": "G4",
          "midi": 67,
          "time": 105.74999999999999,
          "velocity": 0.7874015748031497,
          "duration": 0.052083333333328596
        },
        {
          "name": "A#4",
          "midi": 70,
          "time": 105.74999999999999,
          "velocity": 0.8188976377952756,
          "duration": 0.052083333333328596
        },
        {
          "name": "E5",
          "midi": 76,
          "time": 105.74999999999999,
          "velocity": 0.8188976377952756,
          "duration": 0.052083333333328596
        },
        {
          "name": "G4",
          "midi": 67,
          "time": 105.87499999999999,
          "velocity": 0.8031496062992126,
          "duration": 0.05729166666665719
        },
        {
          "name": "A#4",
          "midi": 70,
          "time": 105.87499999999999,
          "velocity": 0.8188976377952756,
          "duration": 0.052083333333328596
        },
        {
          "name": "E5",
          "midi": 76,
          "time": 105.87499999999999,
          "velocity": 0.8188976377952756,
          "duration": 0.05729166666665719
        },
        {
          "name": "E4",
          "midi": 64,
          "time": 105.99999999999997,
          "velocity": 0.8188976377952756,
          "duration": 0.125
        },
        {
          "name": "G4",
          "midi": 67,
          "time": 105.99999999999997,
          "velocity": 0.8188976377952756,
          "duration": 0.125
        },
        {
          "name": "A#4",
          "midi": 70,
          "time": 106.12499999999997,
          "velocity": 0.8188976377952756,
          "duration": 0.0625
        },
        {
          "name": "E5",
          "midi": 76,
          "time": 106.12499999999997,
          "velocity": 0.8188976377952756,
          "duration": 0.0625
        },
        {
          "name": "G5",
          "midi": 79,
          "time": 106.12499999999997,
          "velocity": 0.8188976377952756,
          "duration": 0.0625
        },
        {
          "name": "A4",
          "midi": 69,
          "time": 106.24999999999997,
          "velocity": 0.8188976377952756,
          "duration": 0.125
        },
        {
          "name": "C5",
          "midi": 72,
          "time": 106.24999999999997,
          "velocity": 0.7401574803149606,
          "duration": 0.125
        },
        {
          "name": "F5",
          "midi": 77,
          "time": 106.37499999999997,
          "velocity": 0.8188976377952756,
          "duration": 0.0625
        },
        {
          "name": "A5",
          "midi": 81,
          "time": 106.37499999999997,
          "velocity": 0.8188976377952756,
          "duration": 0.0625
        },
        {
          "name": "C6",
          "midi": 84,
          "time": 106.37499999999997,
          "velocity": 0.8188976377952756,
          "duration": 0.0625
        },
        {
          "name": "F4",
          "midi": 65,
          "time": 106.49999999999997,
          "velocity": 0.7401574803149606,
          "duration": 0.125
        },
        {
          "name": "A4",
          "midi": 69,
          "time": 106.49999999999997,
          "velocity": 0.7401574803149606,
          "duration": 0.125
        },
        {
          "name": "C5",
          "midi": 72,
          "time": 106.62499999999997,
          "velocity": 0.8188976377952756,
          "duration": 0.0625
        },
        {
          "name": "F5",
          "midi": 77,
          "time": 106.62499999999997,
          "velocity": 0.8188976377952756,
          "duration": 0.0625
        },
        {
          "name": "A5",
          "midi": 81,
          "time": 106.62499999999997,
          "velocity": 0.8188976377952756,
          "duration": 0.0625
        },
        {
          "name": "F4",
          "midi": 65,
          "time": 106.74999999999997,
          "velocity": 0.7401574803149606,
          "duration": 0.125
        },
        {
          "name": "A4",
          "midi": 69,
          "time": 106.74999999999997,
          "velocity": 0.7401574803149606,
          "duration": 0.125
        },
        {
          "name": "C5",
          "midi": 72,
          "time": 106.87499999999997,
          "velocity": 0.8188976377952756,
          "duration": 0.0625
        },
        {
          "name": "F5",
          "midi": 77,
          "time": 106.87499999999997,
          "velocity": 0.8188976377952756,
          "duration": 0.0625
        },
        {
          "name": "A5",
          "midi": 81,
          "time": 106.87499999999997,
          "velocity": 0.8188976377952756,
          "duration": 0.0625
        },
        {
          "name": "C4",
          "midi": 60,
          "time": 106.99999999999997,
          "velocity": 0.7401574803149606,
          "duration": 0.125
        },
        {
          "name": "F4",
          "midi": 65,
          "time": 106.99999999999997,
          "velocity": 0.7401574803149606,
          "duration": 0.125
        },
        {
          "name": "A4",
          "midi": 69,
          "time": 107.12499999999997,
          "velocity": 0.8188976377952756,
          "duration": 0.0625
        },
        {
          "name": "C5",
          "midi": 72,
          "time": 107.12499999999997,
          "velocity": 0.8188976377952756,
          "duration": 0.0625
        },
        {
          "name": "F5",
          "midi": 77,
          "time": 107.12499999999997,
          "velocity": 0.8188976377952756,
          "duration": 0.0625
        },
        {
          "name": "C4",
          "midi": 60,
          "time": 107.24999999999997,
          "velocity": 0.7401574803149606,
          "duration": 0.125
        },
        {
          "name": "F4",
          "midi": 65,
          "time": 107.24999999999997,
          "velocity": 0.7401574803149606,
          "duration": 0.125
        },
        {
          "name": "A4",
          "midi": 69,
          "time": 107.37499999999997,
          "velocity": 0.8188976377952756,
          "duration": 0.0625
        },
        {
          "name": "C5",
          "midi": 72,
          "time": 107.37499999999997,
          "velocity": 0.8188976377952756,
          "duration": 0.0625
        },
        {
          "name": "F5",
          "midi": 77,
          "time": 107.37499999999997,
          "velocity": 0.8188976377952756,
          "duration": 0.0625
        },
        {
          "name": "A3",
          "midi": 57,
          "time": 107.49999999999997,
          "velocity": 0.7401574803149606,
          "duration": 0.125
        },
        {
          "name": "C4",
          "midi": 60,
          "time": 107.49999999999997,
          "velocity": 0.7401574803149606,
          "duration": 0.125
        },
        {
          "name": "F4",
          "midi": 65,
          "time": 107.62499999999997,
          "velocity": 0.8188976377952756,
          "duration": 0.0625
        },
        {
          "name": "A4",
          "midi": 69,
          "time": 107.62499999999997,
          "velocity": 0.8188976377952756,
          "duration": 0.0625
        },
        {
          "name": "C5",
          "midi": 72,
          "time": 107.62499999999997,
          "velocity": 0.8188976377952756,
          "duration": 0.0625
        },
        {
          "name": "A3",
          "midi": 57,
          "time": 107.74999999999997,
          "velocity": 0.7401574803149606,
          "duration": 0.125
        },
        {
          "name": "C4",
          "midi": 60,
          "time": 107.74999999999997,
          "velocity": 0.7401574803149606,
          "duration": 0.125
        },
        {
          "name": "F4",
          "midi": 65,
          "time": 107.87499999999997,
          "velocity": 0.8188976377952756,
          "duration": 0.0625
        },
        {
          "name": "A4",
          "midi": 69,
          "time": 107.87499999999997,
          "velocity": 0.8188976377952756,
          "duration": 0.0625
        },
        {
          "name": "C5",
          "midi": 72,
          "time": 107.87499999999997,
          "velocity": 0.8188976377952756,
          "duration": 0.0625
        },
        {
          "name": "A4",
          "midi": 69,
          "time": 107.99999999999997,
          "velocity": 0.8188976377952756,
          "duration": 0.0833333333333286
        },
        {
          "name": "C4",
          "midi": 60,
          "time": 108.12499999999997,
          "velocity": 0.8188976377952756,
          "duration": 0.0833333333333286
        },
        {
          "name": "F4",
          "midi": 65,
          "time": 108.24999999999997,
          "velocity": 0.8188976377952756,
          "duration": 0.0833333333333286
        },
        {
          "name": "A4",
          "midi": 69,
          "time": 108.37499999999997,
          "velocity": 0.8188976377952756,
          "duration": 0.0989583333333286
        },
        {
          "name": "C5",
          "midi": 72,
          "time": 108.49999999999997,
          "velocity": 0.8188976377952756,
          "duration": 0.0833333333333286
        },
        {
          "name": "F4",
          "midi": 65,
          "time": 108.62499999999997,
          "velocity": 0.8188976377952756,
          "duration": 0.0833333333333286
        },
        {
          "name": "A4",
          "midi": 69,
          "time": 108.74999999999997,
          "velocity": 0.8188976377952756,
          "duration": 0.0885416666666714
        },
        {
          "name": "C5",
          "midi": 72,
          "time": 108.87499999999997,
          "velocity": 0.8188976377952756,
          "duration": 0.0885416666666714
        },
        {
          "name": "A4",
          "midi": 69,
          "time": 108.99999999999997,
          "velocity": 0.8188976377952756,
          "duration": 0.0833333333333286
        },
        {
          "name": "C4",
          "midi": 60,
          "time": 109.12499999999997,
          "velocity": 0.8188976377952756,
          "duration": 0.0833333333333286
        },
        {
          "name": "F4",
          "midi": 65,
          "time": 109.24999999999997,
          "velocity": 0.8188976377952756,
          "duration": 0.0833333333333286
        },
        {
          "name": "A4",
          "midi": 69,
          "time": 109.37499999999997,
          "velocity": 0.8188976377952756,
          "duration": 0.0989583333333286
        },
        {
          "name": "C5",
          "midi": 72,
          "time": 109.49999999999997,
          "velocity": 0.8188976377952756,
          "duration": 0.0833333333333286
        },
        {
          "name": "F4",
          "midi": 65,
          "time": 109.62499999999997,
          "velocity": 0.8188976377952756,
          "duration": 0.0989583333333286
        },
        {
          "name": "A4",
          "midi": 69,
          "time": 109.74999999999997,
          "velocity": 0.8188976377952756,
          "duration": 0.0885416666666714
        },
        {
          "name": "C5",
          "midi": 72,
          "time": 109.87499999999997,
          "velocity": 0.8188976377952756,
          "duration": 0.0885416666666714
        },
        {
          "name": "D4",
          "midi": 62,
          "time": 109.99999999999997,
          "velocity": 0.8188976377952756,
          "duration": 0.0833333333333286
        },
        {
          "name": "F3",
          "midi": 53,
          "time": 110.12499999999997,
          "velocity": 0.8188976377952756,
          "duration": 0.0885416666666714
        },
        {
          "name": "A#3",
          "midi": 58,
          "time": 110.24999999999997,
          "velocity": 0.8188976377952756,
          "duration": 0.09375
        },
        {
          "name": "D4",
          "midi": 62,
          "time": 110.37499999999997,
          "velocity": 0.8188976377952756,
          "duration": 0.0989583333333286
        },
        {
          "name": "F4",
          "midi": 65,
          "time": 110.49999999999997,
          "velocity": 0.8188976377952756,
          "duration": 0.0885416666666714
        },
        {
          "name": "A#3",
          "midi": 58,
          "time": 110.62499999999997,
          "velocity": 0.8188976377952756,
          "duration": 0.0885416666666714
        },
        {
          "name": "D4",
          "midi": 62,
          "time": 110.74999999999997,
          "velocity": 0.8188976377952756,
          "duration": 0.09375
        },
        {
          "name": "F4",
          "midi": 65,
          "time": 110.87499999999997,
          "velocity": 0.8188976377952756,
          "duration": 0.09375
        },
        {
          "name": "F3",
          "midi": 53,
          "time": 110.99999999999997,
          "velocity": 0.8188976377952756,
          "duration": 0.109375
        },
        {
          "name": "A#3",
          "midi": 58,
          "time": 111.12499999999997,
          "velocity": 0.8188976377952756,
          "duration": 0.109375
        },
        {
          "name": "A4",
          "midi": 69,
          "time": 111.24999999999997,
          "velocity": 0.8188976377952756,
          "duration": 0.0885416666666714
        },
        {
          "name": "F4",
          "midi": 65,
          "time": 111.37499999999997,
          "velocity": 0.8188976377952756,
          "duration": 0.1145833333333286
        },
        {
          "name": "A4",
          "midi": 69,
          "time": 111.49999999999997,
          "velocity": 0.8188976377952756,
          "duration": 0.1145833333333286
        },
        {
          "name": "C5",
          "midi": 72,
          "time": 111.62499999999997,
          "velocity": 0.8188976377952756,
          "duration": 0.0833333333333286
        },
        {
          "name": "A4",
          "midi": 69,
          "time": 111.74999999999997,
          "velocity": 0.8188976377952756,
          "duration": 0.1145833333333286
        },
        {
          "name": "F5",
          "midi": 77,
          "time": 111.87499999999997,
          "velocity": 0.8188976377952756,
          "duration": 0.0833333333333286
        },
        {
          "name": "E4",
          "midi": 64,
          "time": 111.99999999999997,
          "velocity": 0.8188976377952756,
          "duration": 0.0833333333333286
        },
        {
          "name": "G3",
          "midi": 55,
          "time": 112.12499999999997,
          "velocity": 0.8188976377952756,
          "duration": 0.0833333333333286
        },
        {
          "name": "A#3",
          "midi": 58,
          "time": 112.24999999999997,
          "velocity": 0.8188976377952756,
          "duration": 0.0833333333333286
        },
        {
          "name": "E4",
          "midi": 64,
          "time": 112.37499999999997,
          "velocity": 0.8188976377952756,
          "duration": 0.0989583333333286
        },
        {
          "name": "G4",
          "midi": 67,
          "time": 112.49999999999997,
          "velocity": 0.8188976377952756,
          "duration": 0.0833333333333286
        },
        {
          "name": "A#3",
          "midi": 58,
          "time": 112.62499999999997,
          "velocity": 0.8188976377952756,
          "duration": 0.0833333333333286
        },
        {
          "name": "E4",
          "midi": 64,
          "time": 112.74999999999997,
          "velocity": 0.8188976377952756,
          "duration": 0.0885416666666714
        },
        {
          "name": "G4",
          "midi": 67,
          "time": 112.87499999999997,
          "velocity": 0.8188976377952756,
          "duration": 0.0885416666666714
        },
        {
          "name": "E4",
          "midi": 64,
          "time": 112.99999999999997,
          "velocity": 0.8188976377952756,
          "duration": 0.0833333333333286
        },
        {
          "name": "G3",
          "midi": 55,
          "time": 113.12499999999997,
          "velocity": 0.8188976377952756,
          "duration": 0.0833333333333286
        },
        {
          "name": "A#3",
          "midi": 58,
          "time": 113.24999999999997,
          "velocity": 0.8188976377952756,
          "duration": 0.0833333333333286
        },
        {
          "name": "E4",
          "midi": 64,
          "time": 113.37499999999997,
          "velocity": 0.8188976377952756,
          "duration": 0.0989583333333286
        },
        {
          "name": "G4",
          "midi": 67,
          "time": 113.49999999999997,
          "velocity": 0.8188976377952756,
          "duration": 0.0833333333333286
        },
        {
          "name": "A#3",
          "midi": 58,
          "time": 113.62499999999997,
          "velocity": 0.8188976377952756,
          "duration": 0.0989583333333286
        },
        {
          "name": "E4",
          "midi": 64,
          "time": 113.74999999999997,
          "velocity": 0.8188976377952756,
          "duration": 0.0885416666666714
        },
        {
          "name": "G4",
          "midi": 67,
          "time": 113.87499999999997,
          "velocity": 0.8188976377952756,
          "duration": 0.0885416666666714
        },
        {
          "name": "A4",
          "midi": 69,
          "time": 113.99999999999997,
          "velocity": 0.8188976377952756,
          "duration": 0.0885416666666714
        },
        {
          "name": "C4",
          "midi": 60,
          "time": 114.12499999999997,
          "velocity": 0.8188976377952756,
          "duration": 0.1145833333333286
        },
        {
          "name": "F4",
          "midi": 65,
          "time": 114.24999999999997,
          "velocity": 0.8188976377952756,
          "duration": 0.1145833333333286
        },
        {
          "name": "A4",
          "midi": 69,
          "time": 114.37499999999997,
          "velocity": 0.8188976377952756,
          "duration": 0.1041666666666714
        },
        {
          "name": "F4",
          "midi": 65,
          "time": 114.49999999999997,
          "velocity": 0.8188976377952756,
          "duration": 0.1145833333333286
        },
        {
          "name": "A4",
          "midi": 69,
          "time": 114.62499999999997,
          "velocity": 0.8188976377952756,
          "duration": 0.109375
        },
        {
          "name": "C5",
          "midi": 72,
          "time": 114.74999999999997,
          "velocity": 0.8188976377952756,
          "duration": 0.09375
        },
        {
          "name": "A4",
          "midi": 69,
          "time": 114.87499999999997,
          "velocity": 0.8188976377952756,
          "duration": 0.0885416666666714
        },
        {
          "name": "C5",
          "midi": 72,
          "time": 114.99999999999997,
          "velocity": 0.8188976377952756,
          "duration": 0.1041666666666714
        },
        {
          "name": "F5",
          "midi": 77,
          "time": 115.12499999999997,
          "velocity": 0.8188976377952756,
          "duration": 0.109375
        },
        {
          "name": "C5",
          "midi": 72,
          "time": 115.24999999999997,
          "velocity": 0.8188976377952756,
          "duration": 0.109375
        },
        {
          "name": "A4",
          "midi": 69,
          "time": 115.37499999999997,
          "velocity": 0.8188976377952756,
          "duration": 0.0989583333333286
        },
        {
          "name": "C5",
          "midi": 72,
          "time": 115.49999999999997,
          "velocity": 0.8188976377952756,
          "duration": 0.1041666666666714
        },
        {
          "name": "A4",
          "midi": 69,
          "time": 115.62499999999997,
          "velocity": 0.8188976377952756,
          "duration": 0.0989583333333286
        },
        {
          "name": "F4",
          "midi": 65,
          "time": 115.74999999999997,
          "velocity": 0.8188976377952756,
          "duration": 0.09375
        },
        {
          "name": "C4",
          "midi": 60,
          "time": 115.87499999999997,
          "velocity": 0.8188976377952756,
          "duration": 0.0833333333333286
        },
        {
          "name": "C6",
          "midi": 84,
          "time": 116.26041666666663,
          "velocity": 0.8031496062992126,
          "duration": 0.052083333333328596
        },
        {
          "name": "A5",
          "midi": 81,
          "time": 116.26562499999996,
          "velocity": 0.7716535433070866,
          "duration": 0.052083333333328596
        },
        {
          "name": "A5",
          "midi": 81,
          "time": 116.46874999999996,
          "velocity": 0.8031496062992126,
          "duration": 0.3125
        },
        {
          "name": "C6",
          "midi": 84,
          "time": 116.46874999999996,
          "velocity": 0.8188976377952756,
          "duration": 0.052083333333328596
        },
        {
          "name": "D6",
          "midi": 86,
          "time": 116.55208333333329,
          "velocity": 0.7716535433070866,
          "duration": 0.0729166666666714
        },
        {
          "name": "C6",
          "midi": 84,
          "time": 116.58333333333329,
          "velocity": 0.7559055118110236,
          "duration": 0.2083333333333428
        },
        {
          "name": "E5",
          "midi": 76,
          "time": 117.2395833333333,
          "velocity": 0.7716535433070866,
          "duration": 0.05729166666665719
        },
        {
          "name": "C6",
          "midi": 84,
          "time": 117.24479166666663,
          "velocity": 0.7874015748031497,
          "duration": 0.05729166666665719
        },
        {
          "name": "E5",
          "midi": 76,
          "time": 117.47916666666661,
          "velocity": 0.7716535433070866,
          "duration": 0.052083333333328596
        },
        {
          "name": "C6",
          "midi": 84,
          "time": 117.48437499999994,
          "velocity": 0.7874015748031497,
          "duration": 0.0625
        },
        {
          "name": "E5",
          "midi": 76,
          "time": 117.55729166666661,
          "velocity": 0.8188976377952756,
          "duration": 0.2291666666666572
        },
        {
          "name": "D6",
          "midi": 86,
          "time": 117.55729166666661,
          "velocity": 0.7874015748031497,
          "duration": 0.0677083333333286
        },
        {
          "name": "C6",
          "midi": 84,
          "time": 117.60416666666661,
          "velocity": 0.7874015748031497,
          "duration": 0.1874999999999858
        },
        {
          "name": "A5",
          "midi": 81,
          "time": 117.97395833333327,
          "velocity": 0.7874015748031497,
          "duration": 0.052083333333328596
        },
        {
          "name": "C6",
          "midi": 84,
          "time": 117.9791666666666,
          "velocity": 0.8188976377952756,
          "duration": 0.052083333333328596
        },
        {
          "name": "A5",
          "midi": 81,
          "time": 118.23958333333326,
          "velocity": 0.8188976377952756,
          "duration": 0.052083333333328596
        },
        {
          "name": "F5",
          "midi": 77,
          "time": 118.24479166666659,
          "velocity": 0.7874015748031497,
          "duration": 0.052083333333328596
        },
        {
          "name": "A#5",
          "midi": 82,
          "time": 118.47395833333324,
          "velocity": 0.8188976377952756,
          "duration": 0.2395833333333286
        },
        {
          "name": "G5",
          "midi": 79,
          "time": 118.47916666666657,
          "velocity": 0.8188976377952756,
          "duration": 0.3489583333333428
        },
        {
          "name": "E5",
          "midi": 76,
          "time": 118.73958333333324,
          "velocity": 0.7559055118110236,
          "duration": 0.078125
        },
        {
          "name": "A5",
          "midi": 81,
          "time": 118.99479166666659,
          "velocity": 0.8188976377952756,
          "duration": 0.052083333333328596
        },
        {
          "name": "C5",
          "midi": 72,
          "time": 118.99999999999991,
          "velocity": 0.7716535433070866,
          "duration": 0.052083333333328596
        },
        {
          "name": "F5",
          "midi": 77,
          "time": 118.99999999999991,
          "velocity": 0.7716535433070866,
          "duration": 0.052083333333328596
        },
        {
          "name": "A5",
          "midi": 81,
          "time": 119.26041666666657,
          "velocity": 0.7559055118110236,
          "duration": 0.052083333333328596
        },
        {
          "name": "C5",
          "midi": 72,
          "time": 119.2656249999999,
          "velocity": 0.7559055118110236,
          "duration": 0.052083333333328596
        },
        {
          "name": "F5",
          "midi": 77,
          "time": 119.2656249999999,
          "velocity": 0.7559055118110236,
          "duration": 0.052083333333328596
        },
        {
          "name": "A5",
          "midi": 81,
          "time": 119.3593749999999,
          "velocity": 0.8188976377952756,
          "duration": 0.05208333333334281
        },
        {
          "name": "C5",
          "midi": 72,
          "time": 119.36979166666657,
          "velocity": 0.7874015748031497,
          "duration": 0.05208333333334281
        },
        {
          "name": "F5",
          "midi": 77,
          "time": 119.36979166666657,
          "velocity": 0.7874015748031497,
          "duration": 0.05208333333334281
        },
        {
          "name": "A5",
          "midi": 81,
          "time": 119.47395833333324,
          "velocity": 0.8188976377952756,
          "duration": 0.05729166666665719
        },
        {
          "name": "C5",
          "midi": 72,
          "time": 119.47916666666657,
          "velocity": 0.8188976377952756,
          "duration": 0.052083333333328596
        },
        {
          "name": "F5",
          "midi": 77,
          "time": 119.47916666666657,
          "velocity": 0.8188976377952756,
          "duration": 0.052083333333328596
        }
      ],
      "controlChanges": {
        "7": [
          {
            "number": 7,
            "time": 0.5937500000000001,
            "value": 0.6692913385826772
          }
        ],
        "10": [
          {
            "number": 10,
            "time": 0.5937500000000001,
            "value": 0.16535433070866143
          }
        ],
        "32": [
          {
            "number": 32,
            "time": 0.5833333333333334,
            "value": 0
          }
        ],
        "91": [
          {
            "number": 91,
            "time": 2,
            "value": 0.6141732283464567
          }
        ],
        "93": [
          {
            "number": 93,
            "time": 2,
            "value": 0.6141732283464567
          }
        ]
      },
      "id": 5,
      "name": "Lari/Tan Studios",
      "instrumentNumber": 21,
      "instrument": "accordion",
      "instrumentFamily": "organ",
      "channelNumber": 3,
      "isPercussion": false
    },
    {
      "startTime": 2.25,
      "duration": 119.55208333333259,
      "length": 915,
      "notes": [
        {
          "name": "C4",
          "midi": 60,
          "time": 2.25,
          "velocity": 0.7559055118110236,
          "duration": 0.08333333333333348
        },
        {
          "name": "F4",
          "midi": 65,
          "time": 2.25,
          "velocity": 0.7559055118110236,
          "duration": 0.05729166666666696
        },
        {
          "name": "A4",
          "midi": 69,
          "time": 2.25,
          "velocity": 0.7401574803149606,
          "duration": 0.05208333333333348
        },
        {
          "name": "C4",
          "midi": 60,
          "time": 2.375,
          "velocity": 0.7559055118110236,
          "duration": 0.06250000000000044
        },
        {
          "name": "F4",
          "midi": 65,
          "time": 2.375,
          "velocity": 0.7716535433070866,
          "duration": 0.05729166666666696
        },
        {
          "name": "A4",
          "midi": 69,
          "time": 2.375,
          "velocity": 0.7716535433070866,
          "duration": 0.05208333333333348
        },
        {
          "name": "C4",
          "midi": 60,
          "time": 2.7500000000000004,
          "velocity": 0.7874015748031497,
          "duration": 0.05729166666666696
        },
        {
          "name": "F4",
          "midi": 65,
          "time": 2.7500000000000004,
          "velocity": 0.7716535433070866,
          "duration": 0.05208333333333348
        },
        {
          "name": "A4",
          "midi": 69,
          "time": 2.7500000000000004,
          "velocity": 0.7716535433070866,
          "duration": 0.05729166666666696
        },
        {
          "name": "C4",
          "midi": 60,
          "time": 3.250000000000001,
          "velocity": 0.7401574803149606,
          "duration": 0.05729166666666696
        },
        {
          "name": "F4",
          "midi": 65,
          "time": 3.250000000000001,
          "velocity": 0.7401574803149606,
          "duration": 0.05208333333333348
        },
        {
          "name": "A4",
          "midi": 69,
          "time": 3.250000000000001,
          "velocity": 0.7559055118110236,
          "duration": 0.05208333333333348
        },
        {
          "name": "C4",
          "midi": 60,
          "time": 3.3750000000000013,
          "velocity": 0.7401574803149606,
          "duration": 0.05729166666666696
        },
        {
          "name": "F4",
          "midi": 65,
          "time": 3.3750000000000013,
          "velocity": 0.7559055118110236,
          "duration": 0.05208333333333348
        },
        {
          "name": "A4",
          "midi": 69,
          "time": 3.3750000000000013,
          "velocity": 0.7559055118110236,
          "duration": 0.05208333333333348
        },
        {
          "name": "C4",
          "midi": 60,
          "time": 3.7500000000000018,
          "velocity": 0.7716535433070866,
          "duration": 0.06770833333333348
        },
        {
          "name": "F4",
          "midi": 65,
          "time": 3.7500000000000018,
          "velocity": 0.7716535433070866,
          "duration": 0.0625
        },
        {
          "name": "A4",
          "midi": 69,
          "time": 3.7500000000000018,
          "velocity": 0.7559055118110236,
          "duration": 0.05208333333333348
        },
        {
          "name": "C4",
          "midi": 60,
          "time": 4.250000000000002,
          "velocity": 0.7559055118110236,
          "duration": 0.06770833333333304
        },
        {
          "name": "F4",
          "midi": 65,
          "time": 4.250000000000002,
          "velocity": 0.7559055118110236,
          "duration": 0.057291666666666075
        },
        {
          "name": "A4",
          "midi": 69,
          "time": 4.250000000000002,
          "velocity": 0.7559055118110236,
          "duration": 0.05208333333333304
        },
        {
          "name": "C4",
          "midi": 60,
          "time": 4.375000000000002,
          "velocity": 0.7716535433070866,
          "duration": 0.0625
        },
        {
          "name": "F4",
          "midi": 65,
          "time": 4.375000000000002,
          "velocity": 0.7559055118110236,
          "duration": 0.05208333333333304
        },
        {
          "name": "A4",
          "midi": 69,
          "time": 4.375000000000002,
          "velocity": 0.7716535433070866,
          "duration": 0.05208333333333304
        },
        {
          "name": "C4",
          "midi": 60,
          "time": 4.750000000000002,
          "velocity": 0.7716535433070866,
          "duration": 0.06249999999999911
        },
        {
          "name": "F4",
          "midi": 65,
          "time": 4.750000000000002,
          "velocity": 0.7874015748031497,
          "duration": 0.057291666666666075
        },
        {
          "name": "A4",
          "midi": 69,
          "time": 4.750000000000002,
          "velocity": 0.7716535433070866,
          "duration": 0.05208333333333304
        },
        {
          "name": "C4",
          "midi": 60,
          "time": 5.250000000000001,
          "velocity": 0.7716535433070866,
          "duration": 0.125
        },
        {
          "name": "F4",
          "midi": 65,
          "time": 5.375000000000001,
          "velocity": 0.7716535433070866,
          "duration": 0.125
        },
        {
          "name": "A4",
          "midi": 69,
          "time": 5.500000000000001,
          "velocity": 0.7874015748031497,
          "duration": 0.25
        },
        {
          "name": "C5",
          "midi": 72,
          "time": 5.750000000000001,
          "velocity": 0.7874015748031497,
          "duration": 0.25
        },
        {
          "name": "C4",
          "midi": 60,
          "time": 6.250000000000001,
          "velocity": 0.7559055118110236,
          "duration": 0.08333333333333304
        },
        {
          "name": "F4",
          "midi": 65,
          "time": 6.250000000000001,
          "velocity": 0.7559055118110236,
          "duration": 0.057291666666666075
        },
        {
          "name": "A4",
          "midi": 69,
          "time": 6.250000000000001,
          "velocity": 0.7401574803149606,
          "duration": 0.05208333333333304
        },
        {
          "name": "C4",
          "midi": 60,
          "time": 6.375000000000001,
          "velocity": 0.7559055118110236,
          "duration": 0.06249999999999911
        },
        {
          "name": "F4",
          "midi": 65,
          "time": 6.375000000000001,
          "velocity": 0.7716535433070866,
          "duration": 0.057291666666666075
        },
        {
          "name": "A4",
          "midi": 69,
          "time": 6.375000000000001,
          "velocity": 0.7716535433070866,
          "duration": 0.05208333333333304
        },
        {
          "name": "C4",
          "midi": 60,
          "time": 6.75,
          "velocity": 0.7874015748031497,
          "duration": 0.057291666666666075
        },
        {
          "name": "F4",
          "midi": 65,
          "time": 6.75,
          "velocity": 0.7716535433070866,
          "duration": 0.05208333333333304
        },
        {
          "name": "A4",
          "midi": 69,
          "time": 6.75,
          "velocity": 0.7716535433070866,
          "duration": 0.057291666666666075
        },
        {
          "name": "C4",
          "midi": 60,
          "time": 7.249999999999999,
          "velocity": 0.7401574803149606,
          "duration": 0.057291666666666075
        },
        {
          "name": "F4",
          "midi": 65,
          "time": 7.249999999999999,
          "velocity": 0.7401574803149606,
          "duration": 0.05208333333333304
        },
        {
          "name": "A4",
          "midi": 69,
          "time": 7.249999999999999,
          "velocity": 0.7559055118110236,
          "duration": 0.05208333333333304
        },
        {
          "name": "C4",
          "midi": 60,
          "time": 7.374999999999998,
          "velocity": 0.7401574803149606,
          "duration": 0.057291666666666075
        },
        {
          "name": "F4",
          "midi": 65,
          "time": 7.374999999999998,
          "velocity": 0.7559055118110236,
          "duration": 0.05208333333333304
        },
        {
          "name": "A4",
          "midi": 69,
          "time": 7.374999999999998,
          "velocity": 0.7559055118110236,
          "duration": 0.05208333333333304
        },
        {
          "name": "C4",
          "midi": 60,
          "time": 7.749999999999997,
          "velocity": 0.7716535433070866,
          "duration": 0.06770833333333304
        },
        {
          "name": "F4",
          "midi": 65,
          "time": 7.749999999999997,
          "velocity": 0.7716535433070866,
          "duration": 0.0625
        },
        {
          "name": "A4",
          "midi": 69,
          "time": 7.749999999999997,
          "velocity": 0.7559055118110236,
          "duration": 0.05208333333333304
        },
        {
          "name": "C4",
          "midi": 60,
          "time": 8.249999999999996,
          "velocity": 0.7401574803149606,
          "duration": 0.05729166666666785
        },
        {
          "name": "F4",
          "midi": 65,
          "time": 8.249999999999996,
          "velocity": 0.7559055118110236,
          "duration": 0.05729166666666785
        },
        {
          "name": "A4",
          "midi": 69,
          "time": 8.249999999999996,
          "velocity": 0.7401574803149606,
          "duration": 0.052083333333333925
        },
        {
          "name": "C4",
          "midi": 60,
          "time": 8.374999999999998,
          "velocity": 0.7559055118110236,
          "duration": 0.0625
        },
        {
          "name": "F4",
          "midi": 65,
          "time": 8.374999999999998,
          "velocity": 0.7559055118110236,
          "duration": 0.052083333333333925
        },
        {
          "name": "A4",
          "midi": 69,
          "time": 8.374999999999998,
          "velocity": 0.7716535433070866,
          "duration": 0.052083333333333925
        },
        {
          "name": "C4",
          "midi": 60,
          "time": 8.749999999999998,
          "velocity": 0.7559055118110236,
          "duration": 0.052083333333333925
        },
        {
          "name": "F4",
          "midi": 65,
          "time": 8.749999999999998,
          "velocity": 0.7559055118110236,
          "duration": 0.052083333333333925
        },
        {
          "name": "A4",
          "midi": 69,
          "time": 8.749999999999998,
          "velocity": 0.7401574803149606,
          "duration": 0.052083333333333925
        },
        {
          "name": "C5",
          "midi": 72,
          "time": 8.999999999999998,
          "velocity": 0.7401574803149606,
          "duration": 1
        },
        {
          "name": "F5",
          "midi": 77,
          "time": 8.999999999999998,
          "velocity": 0.7874015748031497,
          "duration": 0.25
        },
        {
          "name": "A4",
          "midi": 69,
          "time": 9.249999999999998,
          "velocity": 0.7874015748031497,
          "duration": 0.75
        },
        {
          "name": "F4",
          "midi": 65,
          "time": 9.499999999999998,
          "velocity": 0.7874015748031497,
          "duration": 0.5
        },
        {
          "name": "C4",
          "midi": 60,
          "time": 9.749999999999998,
          "velocity": 0.7716535433070866,
          "duration": 0.25
        },
        {
          "name": "C4",
          "midi": 60,
          "time": 10.249999999999998,
          "velocity": 0.7559055118110236,
          "duration": 0.08333333333333393
        },
        {
          "name": "F4",
          "midi": 65,
          "time": 10.249999999999998,
          "velocity": 0.7559055118110236,
          "duration": 0.05729166666666785
        },
        {
          "name": "A4",
          "midi": 69,
          "time": 10.249999999999998,
          "velocity": 0.7401574803149606,
          "duration": 0.052083333333333925
        },
        {
          "name": "C4",
          "midi": 60,
          "time": 10.374999999999998,
          "velocity": 0.7559055118110236,
          "duration": 0.06250000000000178
        },
        {
          "name": "F4",
          "midi": 65,
          "time": 10.374999999999998,
          "velocity": 0.7716535433070866,
          "duration": 0.05729166666666785
        },
        {
          "name": "A4",
          "midi": 69,
          "time": 10.374999999999998,
          "velocity": 0.7716535433070866,
          "duration": 0.052083333333333925
        },
        {
          "name": "C4",
          "midi": 60,
          "time": 10.75,
          "velocity": 0.7874015748031497,
          "duration": 0.05729166666666785
        },
        {
          "name": "F4",
          "midi": 65,
          "time": 10.75,
          "velocity": 0.7716535433070866,
          "duration": 0.052083333333333925
        },
        {
          "name": "A4",
          "midi": 69,
          "time": 10.75,
          "velocity": 0.7716535433070866,
          "duration": 0.05729166666666785
        },
        {
          "name": "C4",
          "midi": 60,
          "time": 11.250000000000002,
          "velocity": 0.7401574803149606,
          "duration": 0.05729166666666785
        },
        {
          "name": "F4",
          "midi": 65,
          "time": 11.250000000000002,
          "velocity": 0.7401574803149606,
          "duration": 0.052083333333333925
        },
        {
          "name": "A4",
          "midi": 69,
          "time": 11.250000000000002,
          "velocity": 0.7559055118110236,
          "duration": 0.052083333333333925
        },
        {
          "name": "C4",
          "midi": 60,
          "time": 11.375000000000004,
          "velocity": 0.7401574803149606,
          "duration": 0.05729166666666785
        },
        {
          "name": "F4",
          "midi": 65,
          "time": 11.375000000000004,
          "velocity": 0.7559055118110236,
          "duration": 0.052083333333333925
        },
        {
          "name": "A4",
          "midi": 69,
          "time": 11.375000000000004,
          "velocity": 0.7559055118110236,
          "duration": 0.052083333333333925
        },
        {
          "name": "C4",
          "midi": 60,
          "time": 11.750000000000005,
          "velocity": 0.7716535433070866,
          "duration": 0.06770833333333393
        },
        {
          "name": "F4",
          "midi": 65,
          "time": 11.750000000000005,
          "velocity": 0.7716535433070866,
          "duration": 0.0625
        },
        {
          "name": "A4",
          "midi": 69,
          "time": 11.750000000000005,
          "velocity": 0.7559055118110236,
          "duration": 0.052083333333333925
        },
        {
          "name": "C4",
          "midi": 60,
          "time": 12.250000000000005,
          "velocity": 0.7559055118110236,
          "duration": 0.06770833333333393
        },
        {
          "name": "F4",
          "midi": 65,
          "time": 12.250000000000005,
          "velocity": 0.7559055118110236,
          "duration": 0.05729166666666785
        },
        {
          "name": "A4",
          "midi": 69,
          "time": 12.250000000000005,
          "velocity": 0.7559055118110236,
          "duration": 0.052083333333333925
        },
        {
          "name": "C4",
          "midi": 60,
          "time": 12.375000000000005,
          "velocity": 0.7716535433070866,
          "duration": 0.0625
        },
        {
          "name": "F4",
          "midi": 65,
          "time": 12.375000000000005,
          "velocity": 0.7559055118110236,
          "duration": 0.052083333333333925
        },
        {
          "name": "A4",
          "midi": 69,
          "time": 12.375000000000005,
          "velocity": 0.7716535433070866,
          "duration": 0.052083333333333925
        },
        {
          "name": "C4",
          "midi": 60,
          "time": 12.750000000000005,
          "velocity": 0.7716535433070866,
          "duration": 0.06250000000000178
        },
        {
          "name": "F4",
          "midi": 65,
          "time": 12.750000000000005,
          "velocity": 0.7874015748031497,
          "duration": 0.05729166666666785
        },
        {
          "name": "A4",
          "midi": 69,
          "time": 12.750000000000005,
          "velocity": 0.7716535433070866,
          "duration": 0.052083333333333925
        },
        {
          "name": "C4",
          "midi": 60,
          "time": 13.250000000000007,
          "velocity": 0.7716535433070866,
          "duration": 0.125
        },
        {
          "name": "F4",
          "midi": 65,
          "time": 13.375000000000007,
          "velocity": 0.7716535433070866,
          "duration": 0.125
        },
        {
          "name": "A4",
          "midi": 69,
          "time": 13.500000000000007,
          "velocity": 0.7874015748031497,
          "duration": 0.25
        },
        {
          "name": "C5",
          "midi": 72,
          "time": 13.750000000000007,
          "velocity": 0.7874015748031497,
          "duration": 0.25
        },
        {
          "name": "C4",
          "midi": 60,
          "time": 14.250000000000007,
          "velocity": 0.7559055118110236,
          "duration": 0.08333333333333393
        },
        {
          "name": "F4",
          "midi": 65,
          "time": 14.250000000000007,
          "velocity": 0.7559055118110236,
          "duration": 0.05729166666666785
        },
        {
          "name": "A4",
          "midi": 69,
          "time": 14.250000000000007,
          "velocity": 0.7401574803149606,
          "duration": 0.052083333333333925
        },
        {
          "name": "C4",
          "midi": 60,
          "time": 14.375000000000007,
          "velocity": 0.7559055118110236,
          "duration": 0.06250000000000178
        },
        {
          "name": "F4",
          "midi": 65,
          "time": 14.375000000000007,
          "velocity": 0.7716535433070866,
          "duration": 0.05729166666666785
        },
        {
          "name": "A4",
          "midi": 69,
          "time": 14.375000000000007,
          "velocity": 0.7716535433070866,
          "duration": 0.052083333333333925
        },
        {
          "name": "C4",
          "midi": 60,
          "time": 14.750000000000009,
          "velocity": 0.7874015748031497,
          "duration": 0.05729166666666785
        },
        {
          "name": "F4",
          "midi": 65,
          "time": 14.750000000000009,
          "velocity": 0.7716535433070866,
          "duration": 0.052083333333333925
        },
        {
          "name": "A4",
          "midi": 69,
          "time": 14.750000000000009,
          "velocity": 0.7716535433070866,
          "duration": 0.05729166666666785
        },
        {
          "name": "F3",
          "midi": 53,
          "time": 15.25000000000001,
          "velocity": 0.7401574803149606,
          "duration": 0.05729166666666785
        },
        {
          "name": "A#3",
          "midi": 58,
          "time": 15.25000000000001,
          "velocity": 0.7401574803149606,
          "duration": 0.052083333333333925
        },
        {
          "name": "D4",
          "midi": 62,
          "time": 15.25000000000001,
          "velocity": 0.7559055118110236,
          "duration": 0.052083333333333925
        },
        {
          "name": "F3",
          "midi": 53,
          "time": 15.375000000000012,
          "velocity": 0.7401574803149606,
          "duration": 0.05729166666666785
        },
        {
          "name": "A#3",
          "midi": 58,
          "time": 15.375000000000012,
          "velocity": 0.7559055118110236,
          "duration": 0.052083333333333925
        },
        {
          "name": "D4",
          "midi": 62,
          "time": 15.375000000000012,
          "velocity": 0.7559055118110236,
          "duration": 0.052083333333333925
        },
        {
          "name": "F3",
          "midi": 53,
          "time": 15.750000000000014,
          "velocity": 0.7716535433070866,
          "duration": 0.06770833333333393
        },
        {
          "name": "A#3",
          "midi": 58,
          "time": 15.750000000000014,
          "velocity": 0.7716535433070866,
          "duration": 0.0625
        },
        {
          "name": "D4",
          "midi": 62,
          "time": 15.750000000000014,
          "velocity": 0.7559055118110236,
          "duration": 0.052083333333333925
        },
        {
          "name": "F3",
          "midi": 53,
          "time": 16.250000000000014,
          "velocity": 0.7401574803149606,
          "duration": 0.05208333333333215
        },
        {
          "name": "A#3",
          "midi": 58,
          "time": 16.250000000000014,
          "velocity": 0.7559055118110236,
          "duration": 0.05208333333333215
        },
        {
          "name": "D4",
          "midi": 62,
          "time": 16.250000000000014,
          "velocity": 0.7559055118110236,
          "duration": 0.05208333333333215
        },
        {
          "name": "F3",
          "midi": 53,
          "time": 16.375000000000014,
          "velocity": 0.7401574803149606,
          "duration": 0.06770833333333215
        },
        {
          "name": "A#3",
          "midi": 58,
          "time": 16.375000000000014,
          "velocity": 0.7559055118110236,
          "duration": 0.05208333333333215
        },
        {
          "name": "D4",
          "midi": 62,
          "time": 16.375000000000014,
          "velocity": 0.7716535433070866,
          "duration": 0.05208333333333215
        },
        {
          "name": "F3",
          "midi": 53,
          "time": 16.750000000000014,
          "velocity": 0.7874015748031497,
          "duration": 0.05208333333333215
        },
        {
          "name": "A#3",
          "midi": 58,
          "time": 16.750000000000014,
          "velocity": 0.7716535433070866,
          "duration": 0.05208333333333215
        },
        {
          "name": "D4",
          "midi": 62,
          "time": 16.750000000000014,
          "velocity": 0.7874015748031497,
          "duration": 0.05208333333333215
        },
        {
          "name": "E4",
          "midi": 64,
          "time": 17.000000000000014,
          "velocity": 0.7716535433070866,
          "duration": 0.31770833333333215
        },
        {
          "name": "C5",
          "midi": 72,
          "time": 17.000000000000014,
          "velocity": 0.7874015748031497,
          "duration": 0.9895833333333321
        },
        {
          "name": "G4",
          "midi": 67,
          "time": 17.250000000000014,
          "velocity": 0.7716535433070866,
          "duration": 0.7395833333333321
        },
        {
          "name": "E4",
          "midi": 64,
          "time": 17.500000000000014,
          "velocity": 0.7874015748031497,
          "duration": 0.48958333333333215
        },
        {
          "name": "A#3",
          "midi": 58,
          "time": 17.750000000000014,
          "velocity": 0.7874015748031497,
          "duration": 0.23958333333333215
        },
        {
          "name": "G3",
          "midi": 55,
          "time": 18.250000000000014,
          "velocity": 0.7559055118110236,
          "duration": 0.08333333333333215
        },
        {
          "name": "A#3",
          "midi": 58,
          "time": 18.250000000000014,
          "velocity": 0.7559055118110236,
          "duration": 0.0572916666666643
        },
        {
          "name": "E4",
          "midi": 64,
          "time": 18.250000000000014,
          "velocity": 0.7401574803149606,
          "duration": 0.05208333333333215
        },
        {
          "name": "G3",
          "midi": 55,
          "time": 18.375000000000014,
          "velocity": 0.7559055118110236,
          "duration": 0.06249999999999645
        },
        {
          "name": "A#3",
          "midi": 58,
          "time": 18.375000000000014,
          "velocity": 0.7716535433070866,
          "duration": 0.0572916666666643
        },
        {
          "name": "E4",
          "midi": 64,
          "time": 18.375000000000014,
          "velocity": 0.7716535433070866,
          "duration": 0.05208333333333215
        },
        {
          "name": "G3",
          "midi": 55,
          "time": 18.75000000000001,
          "velocity": 0.7874015748031497,
          "duration": 0.0572916666666643
        },
        {
          "name": "A#3",
          "midi": 58,
          "time": 18.75000000000001,
          "velocity": 0.7716535433070866,
          "duration": 0.05208333333333215
        },
        {
          "name": "E4",
          "midi": 64,
          "time": 18.75000000000001,
          "velocity": 0.7716535433070866,
          "duration": 0.0572916666666643
        },
        {
          "name": "C4",
          "midi": 60,
          "time": 19.250000000000007,
          "velocity": 0.7401574803149606,
          "duration": 0.0572916666666643
        },
        {
          "name": "F4",
          "midi": 65,
          "time": 19.250000000000007,
          "velocity": 0.7401574803149606,
          "duration": 0.05208333333333215
        },
        {
          "name": "A4",
          "midi": 69,
          "time": 19.250000000000007,
          "velocity": 0.7559055118110236,
          "duration": 0.05208333333333215
        },
        {
          "name": "C4",
          "midi": 60,
          "time": 19.375000000000004,
          "velocity": 0.7401574803149606,
          "duration": 0.0572916666666643
        },
        {
          "name": "F4",
          "midi": 65,
          "time": 19.375000000000004,
          "velocity": 0.7559055118110236,
          "duration": 0.05208333333333215
        },
        {
          "name": "A4",
          "midi": 69,
          "time": 19.375000000000004,
          "velocity": 0.7559055118110236,
          "duration": 0.05208333333333215
        },
        {
          "name": "C4",
          "midi": 60,
          "time": 19.75,
          "velocity": 0.7716535433070866,
          "duration": 0.06770833333333215
        },
        {
          "name": "F4",
          "midi": 65,
          "time": 19.75,
          "velocity": 0.7716535433070866,
          "duration": 0.0625
        },
        {
          "name": "A4",
          "midi": 69,
          "time": 19.75,
          "velocity": 0.7559055118110236,
          "duration": 0.05208333333333215
        },
        {
          "name": "C4",
          "midi": 60,
          "time": 20.25,
          "velocity": 0.7559055118110236,
          "duration": 0.06770833333333215
        },
        {
          "name": "F4",
          "midi": 65,
          "time": 20.25,
          "velocity": 0.7559055118110236,
          "duration": 0.0572916666666643
        },
        {
          "name": "A4",
          "midi": 69,
          "time": 20.25,
          "velocity": 0.7559055118110236,
          "duration": 0.05208333333333215
        },
        {
          "name": "C4",
          "midi": 60,
          "time": 20.375,
          "velocity": 0.7716535433070866,
          "duration": 0.0625
        },
        {
          "name": "F4",
          "midi": 65,
          "time": 20.375,
          "velocity": 0.7559055118110236,
          "duration": 0.05208333333333215
        },
        {
          "name": "A4",
          "midi": 69,
          "time": 20.375,
          "velocity": 0.7716535433070866,
          "duration": 0.05208333333333215
        },
        {
          "name": "C4",
          "midi": 60,
          "time": 20.75,
          "velocity": 0.7716535433070866,
          "duration": 0.06249999999999645
        },
        {
          "name": "F4",
          "midi": 65,
          "time": 20.75,
          "velocity": 0.7874015748031497,
          "duration": 0.0572916666666643
        },
        {
          "name": "A4",
          "midi": 69,
          "time": 20.75,
          "velocity": 0.7716535433070866,
          "duration": 0.05208333333333215
        },
        {
          "name": "C4",
          "midi": 60,
          "time": 21.249999999999996,
          "velocity": 0.7716535433070866,
          "duration": 0.125
        },
        {
          "name": "F4",
          "midi": 65,
          "time": 21.374999999999996,
          "velocity": 0.7716535433070866,
          "duration": 0.125
        },
        {
          "name": "A4",
          "midi": 69,
          "time": 21.499999999999996,
          "velocity": 0.7874015748031497,
          "duration": 0.25
        },
        {
          "name": "C5",
          "midi": 72,
          "time": 21.749999999999996,
          "velocity": 0.7874015748031497,
          "duration": 0.25
        },
        {
          "name": "C4",
          "midi": 60,
          "time": 22.249999999999996,
          "velocity": 0.7559055118110236,
          "duration": 0.08333333333333215
        },
        {
          "name": "F4",
          "midi": 65,
          "time": 22.249999999999996,
          "velocity": 0.7559055118110236,
          "duration": 0.0572916666666643
        },
        {
          "name": "A4",
          "midi": 69,
          "time": 22.249999999999996,
          "velocity": 0.7401574803149606,
          "duration": 0.05208333333333215
        },
        {
          "name": "C4",
          "midi": 60,
          "time": 22.374999999999996,
          "velocity": 0.7559055118110236,
          "duration": 0.06249999999999645
        },
        {
          "name": "F4",
          "midi": 65,
          "time": 22.374999999999996,
          "velocity": 0.7716535433070866,
          "duration": 0.0572916666666643
        },
        {
          "name": "A4",
          "midi": 69,
          "time": 22.374999999999996,
          "velocity": 0.7716535433070866,
          "duration": 0.05208333333333215
        },
        {
          "name": "C4",
          "midi": 60,
          "time": 22.749999999999993,
          "velocity": 0.7874015748031497,
          "duration": 0.0572916666666643
        },
        {
          "name": "F4",
          "midi": 65,
          "time": 22.749999999999993,
          "velocity": 0.7716535433070866,
          "duration": 0.05208333333333215
        },
        {
          "name": "A4",
          "midi": 69,
          "time": 22.749999999999993,
          "velocity": 0.7716535433070866,
          "duration": 0.0572916666666643
        },
        {
          "name": "F3",
          "midi": 53,
          "time": 23.24999999999999,
          "velocity": 0.7401574803149606,
          "duration": 0.0572916666666643
        },
        {
          "name": "A#3",
          "midi": 58,
          "time": 23.24999999999999,
          "velocity": 0.7401574803149606,
          "duration": 0.05208333333333215
        },
        {
          "name": "D4",
          "midi": 62,
          "time": 23.24999999999999,
          "velocity": 0.7559055118110236,
          "duration": 0.05208333333333215
        },
        {
          "name": "F3",
          "midi": 53,
          "time": 23.374999999999986,
          "velocity": 0.7401574803149606,
          "duration": 0.0572916666666643
        },
        {
          "name": "A#3",
          "midi": 58,
          "time": 23.374999999999986,
          "velocity": 0.7559055118110236,
          "duration": 0.05208333333333215
        },
        {
          "name": "D4",
          "midi": 62,
          "time": 23.374999999999986,
          "velocity": 0.7559055118110236,
          "duration": 0.05208333333333215
        },
        {
          "name": "F3",
          "midi": 53,
          "time": 23.749999999999982,
          "velocity": 0.7716535433070866,
          "duration": 0.06770833333333215
        },
        {
          "name": "A#3",
          "midi": 58,
          "time": 23.749999999999982,
          "velocity": 0.7716535433070866,
          "duration": 0.0625
        },
        {
          "name": "D4",
          "midi": 62,
          "time": 23.749999999999982,
          "velocity": 0.7559055118110236,
          "duration": 0.05208333333333215
        },
        {
          "name": "F3",
          "midi": 53,
          "time": 24.249999999999982,
          "velocity": 0.7401574803149606,
          "duration": 0.0572916666666643
        },
        {
          "name": "A#3",
          "midi": 58,
          "time": 24.249999999999982,
          "velocity": 0.7559055118110236,
          "duration": 0.0572916666666643
        },
        {
          "name": "D4",
          "midi": 62,
          "time": 24.249999999999982,
          "velocity": 0.7401574803149606,
          "duration": 0.05208333333333215
        },
        {
          "name": "F3",
          "midi": 53,
          "time": 24.37499999999998,
          "velocity": 0.7559055118110236,
          "duration": 0.0625
        },
        {
          "name": "A#3",
          "midi": 58,
          "time": 24.37499999999998,
          "velocity": 0.7559055118110236,
          "duration": 0.05208333333333215
        },
        {
          "name": "D4",
          "midi": 62,
          "time": 24.37499999999998,
          "velocity": 0.7716535433070866,
          "duration": 0.05208333333333215
        },
        {
          "name": "F3",
          "midi": 53,
          "time": 24.74999999999998,
          "velocity": 0.7559055118110236,
          "duration": 0.05208333333333215
        },
        {
          "name": "A#3",
          "midi": 58,
          "time": 24.74999999999998,
          "velocity": 0.7559055118110236,
          "duration": 0.05208333333333215
        },
        {
          "name": "D4",
          "midi": 62,
          "time": 24.74999999999998,
          "velocity": 0.7401574803149606,
          "duration": 0.05208333333333215
        },
        {
          "name": "G4",
          "midi": 67,
          "time": 24.99999999999998,
          "velocity": 0.7401574803149606,
          "duration": 1
        },
        {
          "name": "A#4",
          "midi": 70,
          "time": 24.99999999999998,
          "velocity": 0.7874015748031497,
          "duration": 0.25
        },
        {
          "name": "E4",
          "midi": 64,
          "time": 25.24999999999998,
          "velocity": 0.7874015748031497,
          "duration": 0.75
        },
        {
          "name": "A#3",
          "midi": 58,
          "time": 25.49999999999998,
          "velocity": 0.7874015748031497,
          "duration": 0.5
        },
        {
          "name": "G3",
          "midi": 55,
          "time": 25.74999999999998,
          "velocity": 0.7716535433070866,
          "duration": 0.25
        },
        {
          "name": "G3",
          "midi": 55,
          "time": 26.24999999999998,
          "velocity": 0.7559055118110236,
          "duration": 0.08333333333333215
        },
        {
          "name": "A#3",
          "midi": 58,
          "time": 26.24999999999998,
          "velocity": 0.7559055118110236,
          "duration": 0.0572916666666643
        },
        {
          "name": "E4",
          "midi": 64,
          "time": 26.24999999999998,
          "velocity": 0.7401574803149606,
          "duration": 0.05208333333333215
        },
        {
          "name": "G3",
          "midi": 55,
          "time": 26.37499999999998,
          "velocity": 0.7559055118110236,
          "duration": 0.06249999999999645
        },
        {
          "name": "A#3",
          "midi": 58,
          "time": 26.37499999999998,
          "velocity": 0.7716535433070866,
          "duration": 0.0572916666666643
        },
        {
          "name": "E4",
          "midi": 64,
          "time": 26.37499999999998,
          "velocity": 0.7716535433070866,
          "duration": 0.05208333333333215
        },
        {
          "name": "G3",
          "midi": 55,
          "time": 26.749999999999975,
          "velocity": 0.7874015748031497,
          "duration": 0.0572916666666643
        },
        {
          "name": "A#3",
          "midi": 58,
          "time": 26.749999999999975,
          "velocity": 0.7716535433070866,
          "duration": 0.05208333333333215
        },
        {
          "name": "E4",
          "midi": 64,
          "time": 26.749999999999975,
          "velocity": 0.7716535433070866,
          "duration": 0.0572916666666643
        },
        {
          "name": "C4",
          "midi": 60,
          "time": 27.24999999999997,
          "velocity": 0.7401574803149606,
          "duration": 0.0572916666666643
        },
        {
          "name": "G4",
          "midi": 67,
          "time": 27.24999999999997,
          "velocity": 0.7401574803149606,
          "duration": 0.05208333333333215
        },
        {
          "name": "A4",
          "midi": 69,
          "time": 27.24999999999997,
          "velocity": 0.7559055118110236,
          "duration": 0.05208333333333215
        },
        {
          "name": "C4",
          "midi": 60,
          "time": 27.374999999999968,
          "velocity": 0.7401574803149606,
          "duration": 0.0572916666666643
        },
        {
          "name": "G4",
          "midi": 67,
          "time": 27.374999999999968,
          "velocity": 0.7559055118110236,
          "duration": 0.05208333333333215
        },
        {
          "name": "A4",
          "midi": 69,
          "time": 27.374999999999968,
          "velocity": 0.7559055118110236,
          "duration": 0.05208333333333215
        },
        {
          "name": "C4",
          "midi": 60,
          "time": 27.749999999999964,
          "velocity": 0.7716535433070866,
          "duration": 0.06770833333333215
        },
        {
          "name": "G4",
          "midi": 67,
          "time": 27.749999999999964,
          "velocity": 0.7716535433070866,
          "duration": 0.0625
        },
        {
          "name": "A4",
          "midi": 69,
          "time": 27.749999999999964,
          "velocity": 0.7559055118110236,
          "duration": 0.05208333333333215
        },
        {
          "name": "C4",
          "midi": 60,
          "time": 28.249999999999964,
          "velocity": 0.7559055118110236,
          "duration": 0.06770833333333215
        },
        {
          "name": "F4",
          "midi": 65,
          "time": 28.249999999999964,
          "velocity": 0.7559055118110236,
          "duration": 0.0572916666666643
        },
        {
          "name": "A4",
          "midi": 69,
          "time": 28.249999999999964,
          "velocity": 0.7559055118110236,
          "duration": 0.05208333333333215
        },
        {
          "name": "C4",
          "midi": 60,
          "time": 28.374999999999964,
          "velocity": 0.7716535433070866,
          "duration": 0.0625
        },
        {
          "name": "F4",
          "midi": 65,
          "time": 28.374999999999964,
          "velocity": 0.7559055118110236,
          "duration": 0.05208333333333215
        },
        {
          "name": "A4",
          "midi": 69,
          "time": 28.374999999999964,
          "velocity": 0.7716535433070866,
          "duration": 0.05208333333333215
        },
        {
          "name": "C4",
          "midi": 60,
          "time": 28.749999999999964,
          "velocity": 0.7716535433070866,
          "duration": 0.06249999999999645
        },
        {
          "name": "F4",
          "midi": 65,
          "time": 28.749999999999964,
          "velocity": 0.7874015748031497,
          "duration": 0.0572916666666643
        },
        {
          "name": "A4",
          "midi": 69,
          "time": 28.749999999999964,
          "velocity": 0.7716535433070866,
          "duration": 0.05208333333333215
        },
        {
          "name": "C4",
          "midi": 60,
          "time": 29.24999999999996,
          "velocity": 0.7716535433070866,
          "duration": 0.125
        },
        {
          "name": "F4",
          "midi": 65,
          "time": 29.37499999999996,
          "velocity": 0.7716535433070866,
          "duration": 0.125
        },
        {
          "name": "A4",
          "midi": 69,
          "time": 29.49999999999996,
          "velocity": 0.7874015748031497,
          "duration": 0.25
        },
        {
          "name": "C5",
          "midi": 72,
          "time": 29.74999999999996,
          "velocity": 0.7874015748031497,
          "duration": 0.25
        },
        {
          "name": "C4",
          "midi": 60,
          "time": 30.24999999999996,
          "velocity": 0.7559055118110236,
          "duration": 0.08333333333333215
        },
        {
          "name": "F4",
          "midi": 65,
          "time": 30.24999999999996,
          "velocity": 0.7559055118110236,
          "duration": 0.0572916666666643
        },
        {
          "name": "A4",
          "midi": 69,
          "time": 30.24999999999996,
          "velocity": 0.7401574803149606,
          "duration": 0.05208333333333215
        },
        {
          "name": "C4",
          "midi": 60,
          "time": 30.37499999999996,
          "velocity": 0.7559055118110236,
          "duration": 0.06249999999999645
        },
        {
          "name": "F4",
          "midi": 65,
          "time": 30.37499999999996,
          "velocity": 0.7716535433070866,
          "duration": 0.0572916666666643
        },
        {
          "name": "A4",
          "midi": 69,
          "time": 30.37499999999996,
          "velocity": 0.7716535433070866,
          "duration": 0.05208333333333215
        },
        {
          "name": "C4",
          "midi": 60,
          "time": 30.749999999999957,
          "velocity": 0.7874015748031497,
          "duration": 0.0572916666666643
        },
        {
          "name": "F4",
          "midi": 65,
          "time": 30.749999999999957,
          "velocity": 0.7716535433070866,
          "duration": 0.05208333333333215
        },
        {
          "name": "A4",
          "midi": 69,
          "time": 30.749999999999957,
          "velocity": 0.7716535433070866,
          "duration": 0.0572916666666643
        },
        {
          "name": "C4",
          "midi": 60,
          "time": 31.249999999999954,
          "velocity": 0.7401574803149606,
          "duration": 0.0572916666666643
        },
        {
          "name": "F4",
          "midi": 65,
          "time": 31.249999999999954,
          "velocity": 0.7401574803149606,
          "duration": 0.05208333333333215
        },
        {
          "name": "A4",
          "midi": 69,
          "time": 31.249999999999954,
          "velocity": 0.7559055118110236,
          "duration": 0.05208333333333215
        },
        {
          "name": "C4",
          "midi": 60,
          "time": 31.37499999999995,
          "velocity": 0.7401574803149606,
          "duration": 0.0572916666666643
        },
        {
          "name": "F4",
          "midi": 65,
          "time": 31.37499999999995,
          "velocity": 0.7559055118110236,
          "duration": 0.05208333333333215
        },
        {
          "name": "A4",
          "midi": 69,
          "time": 31.37499999999995,
          "velocity": 0.7559055118110236,
          "duration": 0.05208333333333215
        },
        {
          "name": "C4",
          "midi": 60,
          "time": 31.749999999999947,
          "velocity": 0.7716535433070866,
          "duration": 0.06770833333333215
        },
        {
          "name": "F4",
          "midi": 65,
          "time": 31.749999999999947,
          "velocity": 0.7716535433070866,
          "duration": 0.0625
        },
        {
          "name": "A4",
          "midi": 69,
          "time": 31.749999999999947,
          "velocity": 0.7559055118110236,
          "duration": 0.05208333333333215
        },
        {
          "name": "F3",
          "midi": 53,
          "time": 32.24999999999994,
          "velocity": 0.7559055118110236,
          "duration": 0.0729166666666714
        },
        {
          "name": "A#3",
          "midi": 58,
          "time": 32.24999999999994,
          "velocity": 0.7401574803149606,
          "duration": 0.0677083333333357
        },
        {
          "name": "D4",
          "midi": 62,
          "time": 32.24999999999994,
          "velocity": 0.7716535433070866,
          "duration": 0.0781250000000071
        },
        {
          "name": "F3",
          "midi": 53,
          "time": 32.74999999999995,
          "velocity": 0.7401574803149606,
          "duration": 0.078125
        },
        {
          "name": "A#3",
          "midi": 58,
          "time": 32.74999999999995,
          "velocity": 0.7401574803149606,
          "duration": 0.078125
        },
        {
          "name": "D4",
          "midi": 62,
          "time": 32.74999999999995,
          "velocity": 0.7401574803149606,
          "duration": 0.0729166666666643
        },
        {
          "name": "C4",
          "midi": 60,
          "time": 33.24999999999995,
          "velocity": 0.7401574803149606,
          "duration": 0.0729166666666643
        },
        {
          "name": "F4",
          "midi": 65,
          "time": 33.24999999999995,
          "velocity": 0.7401574803149606,
          "duration": 0.078125
        },
        {
          "name": "A4",
          "midi": 69,
          "time": 33.24999999999995,
          "velocity": 0.7401574803149606,
          "duration": 0.0729166666666643
        },
        {
          "name": "C4",
          "midi": 60,
          "time": 33.74999999999995,
          "velocity": 0.7401574803149606,
          "duration": 0.0729166666666643
        },
        {
          "name": "F4",
          "midi": 65,
          "time": 33.74999999999995,
          "velocity": 0.7401574803149606,
          "duration": 0.078125
        },
        {
          "name": "A4",
          "midi": 69,
          "time": 33.74999999999995,
          "velocity": 0.7401574803149606,
          "duration": 0.078125
        },
        {
          "name": "D4",
          "midi": 62,
          "time": 34.24999999999995,
          "velocity": 0.7401574803149606,
          "duration": 0.0833333333333357
        },
        {
          "name": "G4",
          "midi": 67,
          "time": 34.24999999999995,
          "velocity": 0.7401574803149606,
          "duration": 0.0833333333333357
        },
        {
          "name": "B4",
          "midi": 71,
          "time": 34.24999999999995,
          "velocity": 0.7559055118110236,
          "duration": 0.078125
        },
        {
          "name": "D4",
          "midi": 62,
          "time": 34.74999999999995,
          "velocity": 0.7401574803149606,
          "duration": 0.078125
        },
        {
          "name": "G4",
          "midi": 67,
          "time": 34.74999999999995,
          "velocity": 0.7401574803149606,
          "duration": 0.078125
        },
        {
          "name": "B4",
          "midi": 71,
          "time": 34.74999999999995,
          "velocity": 0.7401574803149606,
          "duration": 0.0729166666666643
        },
        {
          "name": "G3",
          "midi": 55,
          "time": 35.24999999999995,
          "velocity": 0.7401574803149606,
          "duration": 0.0677083333333357
        },
        {
          "name": "A#3",
          "midi": 58,
          "time": 35.24999999999995,
          "velocity": 0.7401574803149606,
          "duration": 0.0677083333333357
        },
        {
          "name": "E4",
          "midi": 64,
          "time": 35.24999999999995,
          "velocity": 0.7401574803149606,
          "duration": 0.0625
        },
        {
          "name": "G3",
          "midi": 55,
          "time": 35.37499999999995,
          "velocity": 0.7401574803149606,
          "duration": 0.0625
        },
        {
          "name": "A#3",
          "midi": 58,
          "time": 35.37499999999995,
          "velocity": 0.7401574803149606,
          "duration": 0.0520833333333357
        },
        {
          "name": "E4",
          "midi": 64,
          "time": 35.37499999999995,
          "velocity": 0.7401574803149606,
          "duration": 0.0520833333333357
        },
        {
          "name": "G3",
          "midi": 55,
          "time": 35.49999999999995,
          "velocity": 0.7401574803149606,
          "duration": 0.0520833333333357
        },
        {
          "name": "A#3",
          "midi": 58,
          "time": 35.49999999999995,
          "velocity": 0.7716535433070866,
          "duration": 0.057291666666671404
        },
        {
          "name": "E4",
          "midi": 64,
          "time": 35.49999999999995,
          "velocity": 0.7559055118110236,
          "duration": 0.0520833333333357
        },
        {
          "name": "G3",
          "midi": 55,
          "time": 35.74999999999996,
          "velocity": 0.7559055118110236,
          "duration": 0.0677083333333357
        },
        {
          "name": "A#3",
          "midi": 58,
          "time": 35.74999999999996,
          "velocity": 0.7716535433070866,
          "duration": 0.0625
        },
        {
          "name": "E4",
          "midi": 64,
          "time": 35.74999999999996,
          "velocity": 0.7401574803149606,
          "duration": 0.0520833333333357
        },
        {
          "name": "C4",
          "midi": 60,
          "time": 36.24999999999996,
          "velocity": 0.7559055118110236,
          "duration": 0.0729166666666714
        },
        {
          "name": "F4",
          "midi": 65,
          "time": 36.24999999999996,
          "velocity": 0.7401574803149606,
          "duration": 0.0677083333333357
        },
        {
          "name": "A4",
          "midi": 69,
          "time": 36.24999999999996,
          "velocity": 0.7716535433070866,
          "duration": 0.0781250000000071
        },
        {
          "name": "C4",
          "midi": 60,
          "time": 36.749999999999964,
          "velocity": 0.7401574803149606,
          "duration": 0.078125
        },
        {
          "name": "F4",
          "midi": 65,
          "time": 36.749999999999964,
          "velocity": 0.7401574803149606,
          "duration": 0.078125
        },
        {
          "name": "A4",
          "midi": 69,
          "time": 36.749999999999964,
          "velocity": 0.7401574803149606,
          "duration": 0.0729166666666643
        },
        {
          "name": "C4",
          "midi": 60,
          "time": 37.249999999999964,
          "velocity": 0.7401574803149606,
          "duration": 0.0729166666666643
        },
        {
          "name": "F4",
          "midi": 65,
          "time": 37.249999999999964,
          "velocity": 0.7401574803149606,
          "duration": 0.078125
        },
        {
          "name": "A4",
          "midi": 69,
          "time": 37.249999999999964,
          "velocity": 0.7401574803149606,
          "duration": 0.0729166666666643
        },
        {
          "name": "C4",
          "midi": 60,
          "time": 37.749999999999964,
          "velocity": 0.7401574803149606,
          "duration": 0.0729166666666643
        },
        {
          "name": "F4",
          "midi": 65,
          "time": 37.749999999999964,
          "velocity": 0.7401574803149606,
          "duration": 0.078125
        },
        {
          "name": "A4",
          "midi": 69,
          "time": 37.749999999999964,
          "velocity": 0.7401574803149606,
          "duration": 0.078125
        },
        {
          "name": "C4",
          "midi": 60,
          "time": 38.249999999999964,
          "velocity": 0.7401574803149606,
          "duration": 0.078125
        },
        {
          "name": "F4",
          "midi": 65,
          "time": 38.249999999999964,
          "velocity": 0.7559055118110236,
          "duration": 0.0729166666666643
        },
        {
          "name": "A4",
          "midi": 69,
          "time": 38.249999999999964,
          "velocity": 0.7559055118110236,
          "duration": 0.0625
        },
        {
          "name": "C4",
          "midi": 60,
          "time": 38.749999999999964,
          "velocity": 0.7401574803149606,
          "duration": 0.0885416666666714
        },
        {
          "name": "F4",
          "midi": 65,
          "time": 38.749999999999964,
          "velocity": 0.7401574803149606,
          "duration": 0.0833333333333357
        },
        {
          "name": "A4",
          "midi": 69,
          "time": 38.749999999999964,
          "velocity": 0.7559055118110236,
          "duration": 0.078125
        },
        {
          "name": "C4",
          "midi": 60,
          "time": 39.24999999999997,
          "velocity": 0.7716535433070866,
          "duration": 0.125
        },
        {
          "name": "F4",
          "midi": 65,
          "time": 39.37499999999997,
          "velocity": 0.7716535433070866,
          "duration": 0.125
        },
        {
          "name": "A4",
          "midi": 69,
          "time": 39.49999999999997,
          "velocity": 0.7874015748031497,
          "duration": 0.25
        },
        {
          "name": "C5",
          "midi": 72,
          "time": 39.74999999999997,
          "velocity": 0.7874015748031497,
          "duration": 0.2395833333333357
        },
        {
          "name": "F3",
          "midi": 53,
          "time": 40.24999999999997,
          "velocity": 0.7559055118110236,
          "duration": 0.0729166666666714
        },
        {
          "name": "A#3",
          "midi": 58,
          "time": 40.24999999999997,
          "velocity": 0.7401574803149606,
          "duration": 0.0677083333333357
        },
        {
          "name": "D4",
          "midi": 62,
          "time": 40.24999999999997,
          "velocity": 0.7716535433070866,
          "duration": 0.0781250000000071
        },
        {
          "name": "F3",
          "midi": 53,
          "time": 40.74999999999998,
          "velocity": 0.7401574803149606,
          "duration": 0.078125
        },
        {
          "name": "A#3",
          "midi": 58,
          "time": 40.74999999999998,
          "velocity": 0.7401574803149606,
          "duration": 0.078125
        },
        {
          "name": "D4",
          "midi": 62,
          "time": 40.74999999999998,
          "velocity": 0.7401574803149606,
          "duration": 0.0729166666666643
        },
        {
          "name": "C4",
          "midi": 60,
          "time": 41.24999999999998,
          "velocity": 0.7401574803149606,
          "duration": 0.0729166666666643
        },
        {
          "name": "F4",
          "midi": 65,
          "time": 41.24999999999998,
          "velocity": 0.7401574803149606,
          "duration": 0.078125
        },
        {
          "name": "A4",
          "midi": 69,
          "time": 41.24999999999998,
          "velocity": 0.7401574803149606,
          "duration": 0.0729166666666643
        },
        {
          "name": "C4",
          "midi": 60,
          "time": 41.74999999999998,
          "velocity": 0.7401574803149606,
          "duration": 0.0729166666666643
        },
        {
          "name": "F4",
          "midi": 65,
          "time": 41.74999999999998,
          "velocity": 0.7401574803149606,
          "duration": 0.078125
        },
        {
          "name": "A4",
          "midi": 69,
          "time": 41.74999999999998,
          "velocity": 0.7401574803149606,
          "duration": 0.078125
        },
        {
          "name": "G3",
          "midi": 55,
          "time": 42.24999999999998,
          "velocity": 0.7401574803149606,
          "duration": 0.0833333333333357
        },
        {
          "name": "A#3",
          "midi": 58,
          "time": 42.24999999999998,
          "velocity": 0.7401574803149606,
          "duration": 0.0833333333333357
        },
        {
          "name": "E4",
          "midi": 64,
          "time": 42.24999999999998,
          "velocity": 0.7559055118110236,
          "duration": 0.078125
        },
        {
          "name": "G3",
          "midi": 55,
          "time": 42.74999999999998,
          "velocity": 0.7401574803149606,
          "duration": 0.078125
        },
        {
          "name": "A#3",
          "midi": 58,
          "time": 42.74999999999998,
          "velocity": 0.7401574803149606,
          "duration": 0.078125
        },
        {
          "name": "E4",
          "midi": 64,
          "time": 42.74999999999998,
          "velocity": 0.7401574803149606,
          "duration": 0.0729166666666643
        },
        {
          "name": "C4",
          "midi": 60,
          "time": 43.24999999999998,
          "velocity": 0.7401574803149606,
          "duration": 0.0677083333333357
        },
        {
          "name": "F4",
          "midi": 65,
          "time": 43.24999999999998,
          "velocity": 0.7401574803149606,
          "duration": 0.0677083333333357
        },
        {
          "name": "A4",
          "midi": 69,
          "time": 43.24999999999998,
          "velocity": 0.7401574803149606,
          "duration": 0.0625
        },
        {
          "name": "C4",
          "midi": 60,
          "time": 43.37499999999998,
          "velocity": 0.7401574803149606,
          "duration": 0.0625
        },
        {
          "name": "F4",
          "midi": 65,
          "time": 43.37499999999998,
          "velocity": 0.7401574803149606,
          "duration": 0.0520833333333357
        },
        {
          "name": "A4",
          "midi": 69,
          "time": 43.37499999999998,
          "velocity": 0.7401574803149606,
          "duration": 0.0520833333333357
        },
        {
          "name": "C4",
          "midi": 60,
          "time": 43.49999999999998,
          "velocity": 0.7401574803149606,
          "duration": 0.0520833333333357
        },
        {
          "name": "F4",
          "midi": 65,
          "time": 43.49999999999998,
          "velocity": 0.7716535433070866,
          "duration": 0.057291666666671404
        },
        {
          "name": "A4",
          "midi": 69,
          "time": 43.49999999999998,
          "velocity": 0.7559055118110236,
          "duration": 0.0520833333333357
        },
        {
          "name": "C4",
          "midi": 60,
          "time": 43.749999999999986,
          "velocity": 0.7559055118110236,
          "duration": 0.0677083333333357
        },
        {
          "name": "F4",
          "midi": 65,
          "time": 43.749999999999986,
          "velocity": 0.7716535433070866,
          "duration": 0.0625
        },
        {
          "name": "A4",
          "midi": 69,
          "time": 43.749999999999986,
          "velocity": 0.7401574803149606,
          "duration": 0.0520833333333357
        },
        {
          "name": "C4",
          "midi": 60,
          "time": 44.249999999999986,
          "velocity": 0.7559055118110236,
          "duration": 0.0833333333333357
        },
        {
          "name": "F4",
          "midi": 65,
          "time": 44.249999999999986,
          "velocity": 0.7559055118110236,
          "duration": 0.057291666666671404
        },
        {
          "name": "A4",
          "midi": 69,
          "time": 44.249999999999986,
          "velocity": 0.7401574803149606,
          "duration": 0.0520833333333357
        },
        {
          "name": "C4",
          "midi": 60,
          "time": 44.374999999999986,
          "velocity": 0.7559055118110236,
          "duration": 0.0625000000000071
        },
        {
          "name": "F4",
          "midi": 65,
          "time": 44.374999999999986,
          "velocity": 0.7716535433070866,
          "duration": 0.057291666666671404
        },
        {
          "name": "A4",
          "midi": 69,
          "time": 44.374999999999986,
          "velocity": 0.7716535433070866,
          "duration": 0.0520833333333357
        },
        {
          "name": "C4",
          "midi": 60,
          "time": 44.74999999999999,
          "velocity": 0.7874015748031497,
          "duration": 0.057291666666671404
        },
        {
          "name": "F4",
          "midi": 65,
          "time": 44.74999999999999,
          "velocity": 0.7716535433070866,
          "duration": 0.0520833333333357
        },
        {
          "name": "A4",
          "midi": 69,
          "time": 44.74999999999999,
          "velocity": 0.7716535433070866,
          "duration": 0.057291666666671404
        },
        {
          "name": "C4",
          "midi": 60,
          "time": 45.25,
          "velocity": 0.7401574803149606,
          "duration": 0.057291666666671404
        },
        {
          "name": "F4",
          "midi": 65,
          "time": 45.25,
          "velocity": 0.7401574803149606,
          "duration": 0.0520833333333357
        },
        {
          "name": "A4",
          "midi": 69,
          "time": 45.25,
          "velocity": 0.7559055118110236,
          "duration": 0.0520833333333357
        },
        {
          "name": "C4",
          "midi": 60,
          "time": 45.37500000000001,
          "velocity": 0.7401574803149606,
          "duration": 0.057291666666671404
        },
        {
          "name": "F4",
          "midi": 65,
          "time": 45.37500000000001,
          "velocity": 0.7559055118110236,
          "duration": 0.0520833333333357
        },
        {
          "name": "A4",
          "midi": 69,
          "time": 45.37500000000001,
          "velocity": 0.7559055118110236,
          "duration": 0.0520833333333357
        },
        {
          "name": "C4",
          "midi": 60,
          "time": 45.750000000000014,
          "velocity": 0.7716535433070866,
          "duration": 0.0677083333333357
        },
        {
          "name": "F4",
          "midi": 65,
          "time": 45.750000000000014,
          "velocity": 0.7716535433070866,
          "duration": 0.0625
        },
        {
          "name": "A4",
          "midi": 69,
          "time": 45.750000000000014,
          "velocity": 0.7559055118110236,
          "duration": 0.0520833333333357
        },
        {
          "name": "C4",
          "midi": 60,
          "time": 46.250000000000014,
          "velocity": 0.7559055118110236,
          "duration": 0.0677083333333357
        },
        {
          "name": "F4",
          "midi": 65,
          "time": 46.250000000000014,
          "velocity": 0.7559055118110236,
          "duration": 0.057291666666671404
        },
        {
          "name": "A4",
          "midi": 69,
          "time": 46.250000000000014,
          "velocity": 0.7559055118110236,
          "duration": 0.0520833333333357
        },
        {
          "name": "C4",
          "midi": 60,
          "time": 46.375000000000014,
          "velocity": 0.7716535433070866,
          "duration": 0.0625
        },
        {
          "name": "F4",
          "midi": 65,
          "time": 46.375000000000014,
          "velocity": 0.7559055118110236,
          "duration": 0.0520833333333357
        },
        {
          "name": "A4",
          "midi": 69,
          "time": 46.375000000000014,
          "velocity": 0.7716535433070866,
          "duration": 0.0520833333333357
        },
        {
          "name": "C4",
          "midi": 60,
          "time": 46.750000000000014,
          "velocity": 0.7716535433070866,
          "duration": 0.0625000000000071
        },
        {
          "name": "F4",
          "midi": 65,
          "time": 46.750000000000014,
          "velocity": 0.7874015748031497,
          "duration": 0.057291666666671404
        },
        {
          "name": "A4",
          "midi": 69,
          "time": 46.750000000000014,
          "velocity": 0.7716535433070866,
          "duration": 0.0520833333333357
        },
        {
          "name": "F3",
          "midi": 53,
          "time": 47.25000000000002,
          "velocity": 0.7716535433070866,
          "duration": 0.125
        },
        {
          "name": "A#3",
          "midi": 58,
          "time": 47.37500000000002,
          "velocity": 0.7716535433070866,
          "duration": 0.125
        },
        {
          "name": "D4",
          "midi": 62,
          "time": 47.50000000000002,
          "velocity": 0.7874015748031497,
          "duration": 0.25
        },
        {
          "name": "F4",
          "midi": 65,
          "time": 47.75000000000002,
          "velocity": 0.7874015748031497,
          "duration": 0.2395833333333357
        },
        {
          "name": "F3",
          "midi": 53,
          "time": 48.25000000000002,
          "velocity": 0.7559055118110236,
          "duration": 0.0833333333333357
        },
        {
          "name": "A#3",
          "midi": 58,
          "time": 48.25000000000002,
          "velocity": 0.7559055118110236,
          "duration": 0.057291666666671404
        },
        {
          "name": "D4",
          "midi": 62,
          "time": 48.25000000000002,
          "velocity": 0.7401574803149606,
          "duration": 0.0520833333333357
        },
        {
          "name": "F3",
          "midi": 53,
          "time": 48.37500000000002,
          "velocity": 0.7559055118110236,
          "duration": 0.0625000000000071
        },
        {
          "name": "A#3",
          "midi": 58,
          "time": 48.37500000000002,
          "velocity": 0.7716535433070866,
          "duration": 0.057291666666671404
        },
        {
          "name": "D4",
          "midi": 62,
          "time": 48.37500000000002,
          "velocity": 0.7716535433070866,
          "duration": 0.0520833333333357
        },
        {
          "name": "F3",
          "midi": 53,
          "time": 48.75000000000003,
          "velocity": 0.7874015748031497,
          "duration": 0.057291666666671404
        },
        {
          "name": "A#3",
          "midi": 58,
          "time": 48.75000000000003,
          "velocity": 0.7716535433070866,
          "duration": 0.0520833333333357
        },
        {
          "name": "D4",
          "midi": 62,
          "time": 48.75000000000003,
          "velocity": 0.7716535433070866,
          "duration": 0.057291666666671404
        },
        {
          "name": "G3",
          "midi": 55,
          "time": 49.250000000000036,
          "velocity": 0.7401574803149606,
          "duration": 0.057291666666671404
        },
        {
          "name": "A#3",
          "midi": 58,
          "time": 49.250000000000036,
          "velocity": 0.7401574803149606,
          "duration": 0.0520833333333357
        },
        {
          "name": "E4",
          "midi": 64,
          "time": 49.250000000000036,
          "velocity": 0.7559055118110236,
          "duration": 0.0520833333333357
        },
        {
          "name": "G3",
          "midi": 55,
          "time": 49.37500000000004,
          "velocity": 0.7401574803149606,
          "duration": 0.057291666666671404
        },
        {
          "name": "A#3",
          "midi": 58,
          "time": 49.37500000000004,
          "velocity": 0.7559055118110236,
          "duration": 0.0520833333333357
        },
        {
          "name": "E4",
          "midi": 64,
          "time": 49.37500000000004,
          "velocity": 0.7559055118110236,
          "duration": 0.0520833333333357
        },
        {
          "name": "G3",
          "midi": 55,
          "time": 49.75000000000005,
          "velocity": 0.7716535433070866,
          "duration": 0.0677083333333357
        },
        {
          "name": "A#3",
          "midi": 58,
          "time": 49.75000000000005,
          "velocity": 0.7716535433070866,
          "duration": 0.0625
        },
        {
          "name": "E4",
          "midi": 64,
          "time": 49.75000000000005,
          "velocity": 0.7559055118110236,
          "duration": 0.0520833333333357
        },
        {
          "name": "G3",
          "midi": 55,
          "time": 50.25000000000005,
          "velocity": 0.7559055118110236,
          "duration": 0.0677083333333357
        },
        {
          "name": "A#3",
          "midi": 58,
          "time": 50.25000000000005,
          "velocity": 0.7559055118110236,
          "duration": 0.057291666666671404
        },
        {
          "name": "E4",
          "midi": 64,
          "time": 50.25000000000005,
          "velocity": 0.7559055118110236,
          "duration": 0.0520833333333357
        },
        {
          "name": "G3",
          "midi": 55,
          "time": 50.37500000000005,
          "velocity": 0.7716535433070866,
          "duration": 0.0625
        },
        {
          "name": "A#3",
          "midi": 58,
          "time": 50.37500000000005,
          "velocity": 0.7559055118110236,
          "duration": 0.0520833333333357
        },
        {
          "name": "E4",
          "midi": 64,
          "time": 50.37500000000005,
          "velocity": 0.7716535433070866,
          "duration": 0.0520833333333357
        },
        {
          "name": "G3",
          "midi": 55,
          "time": 50.75000000000005,
          "velocity": 0.7716535433070866,
          "duration": 0.0625000000000071
        },
        {
          "name": "A#3",
          "midi": 58,
          "time": 50.75000000000005,
          "velocity": 0.7874015748031497,
          "duration": 0.057291666666671404
        },
        {
          "name": "E4",
          "midi": 64,
          "time": 50.75000000000005,
          "velocity": 0.7716535433070866,
          "duration": 0.0520833333333357
        },
        {
          "name": "C4",
          "midi": 60,
          "time": 51.25000000000006,
          "velocity": 0.7716535433070866,
          "duration": 0.125
        },
        {
          "name": "F4",
          "midi": 65,
          "time": 51.37500000000006,
          "velocity": 0.7716535433070866,
          "duration": 0.125
        },
        {
          "name": "A4",
          "midi": 69,
          "time": 51.50000000000006,
          "velocity": 0.7874015748031497,
          "duration": 0.25
        },
        {
          "name": "C5",
          "midi": 72,
          "time": 51.75000000000006,
          "velocity": 0.7874015748031497,
          "duration": 0.25
        },
        {
          "name": "C4",
          "midi": 60,
          "time": 52.25000000000006,
          "velocity": 0.7559055118110236,
          "duration": 0.0833333333333357
        },
        {
          "name": "F4",
          "midi": 65,
          "time": 52.25000000000006,
          "velocity": 0.7559055118110236,
          "duration": 0.057291666666671404
        },
        {
          "name": "A4",
          "midi": 69,
          "time": 52.25000000000006,
          "velocity": 0.7401574803149606,
          "duration": 0.0520833333333357
        },
        {
          "name": "C4",
          "midi": 60,
          "time": 52.37500000000006,
          "velocity": 0.7559055118110236,
          "duration": 0.0625000000000071
        },
        {
          "name": "F4",
          "midi": 65,
          "time": 52.37500000000006,
          "velocity": 0.7716535433070866,
          "duration": 0.057291666666671404
        },
        {
          "name": "A4",
          "midi": 69,
          "time": 52.37500000000006,
          "velocity": 0.7716535433070866,
          "duration": 0.0520833333333357
        },
        {
          "name": "C4",
          "midi": 60,
          "time": 52.750000000000064,
          "velocity": 0.7874015748031497,
          "duration": 0.057291666666671404
        },
        {
          "name": "F4",
          "midi": 65,
          "time": 52.750000000000064,
          "velocity": 0.7716535433070866,
          "duration": 0.0520833333333357
        },
        {
          "name": "A4",
          "midi": 69,
          "time": 52.750000000000064,
          "velocity": 0.7716535433070866,
          "duration": 0.057291666666671404
        },
        {
          "name": "C4",
          "midi": 60,
          "time": 53.25000000000007,
          "velocity": 0.7401574803149606,
          "duration": 0.057291666666671404
        },
        {
          "name": "F4",
          "midi": 65,
          "time": 53.25000000000007,
          "velocity": 0.7401574803149606,
          "duration": 0.0520833333333357
        },
        {
          "name": "A4",
          "midi": 69,
          "time": 53.25000000000007,
          "velocity": 0.7559055118110236,
          "duration": 0.0520833333333357
        },
        {
          "name": "C4",
          "midi": 60,
          "time": 53.37500000000008,
          "velocity": 0.7401574803149606,
          "duration": 0.057291666666671404
        },
        {
          "name": "F4",
          "midi": 65,
          "time": 53.37500000000008,
          "velocity": 0.7559055118110236,
          "duration": 0.0520833333333357
        },
        {
          "name": "A4",
          "midi": 69,
          "time": 53.37500000000008,
          "velocity": 0.7559055118110236,
          "duration": 0.0520833333333357
        },
        {
          "name": "C4",
          "midi": 60,
          "time": 53.750000000000085,
          "velocity": 0.7716535433070866,
          "duration": 0.0677083333333357
        },
        {
          "name": "F4",
          "midi": 65,
          "time": 53.750000000000085,
          "velocity": 0.7716535433070866,
          "duration": 0.0625
        },
        {
          "name": "A4",
          "midi": 69,
          "time": 53.750000000000085,
          "velocity": 0.7559055118110236,
          "duration": 0.0520833333333357
        },
        {
          "name": "C4",
          "midi": 60,
          "time": 54.250000000000085,
          "velocity": 0.7401574803149606,
          "duration": 0.057291666666671404
        },
        {
          "name": "F4",
          "midi": 65,
          "time": 54.250000000000085,
          "velocity": 0.7559055118110236,
          "duration": 0.057291666666671404
        },
        {
          "name": "A4",
          "midi": 69,
          "time": 54.250000000000085,
          "velocity": 0.7401574803149606,
          "duration": 0.0520833333333357
        },
        {
          "name": "C4",
          "midi": 60,
          "time": 54.37500000000009,
          "velocity": 0.7559055118110236,
          "duration": 0.0625
        },
        {
          "name": "F4",
          "midi": 65,
          "time": 54.37500000000009,
          "velocity": 0.7559055118110236,
          "duration": 0.0520833333333357
        },
        {
          "name": "A4",
          "midi": 69,
          "time": 54.37500000000009,
          "velocity": 0.7716535433070866,
          "duration": 0.0520833333333357
        },
        {
          "name": "C4",
          "midi": 60,
          "time": 54.75000000000009,
          "velocity": 0.7559055118110236,
          "duration": 0.0520833333333357
        },
        {
          "name": "F4",
          "midi": 65,
          "time": 54.75000000000009,
          "velocity": 0.7559055118110236,
          "duration": 0.0520833333333357
        },
        {
          "name": "A4",
          "midi": 69,
          "time": 54.75000000000009,
          "velocity": 0.7401574803149606,
          "duration": 0.0520833333333357
        },
        {
          "name": "C5",
          "midi": 72,
          "time": 55.00000000000009,
          "velocity": 0.7401574803149606,
          "duration": 0.25
        },
        {
          "name": "F5",
          "midi": 77,
          "time": 55.00000000000009,
          "velocity": 0.7874015748031497,
          "duration": 0.25
        },
        {
          "name": "F4",
          "midi": 65,
          "time": 55.25000000000009,
          "velocity": 0.7401574803149606,
          "duration": 0.75
        },
        {
          "name": "A#4",
          "midi": 70,
          "time": 55.25000000000009,
          "velocity": 0.7874015748031497,
          "duration": 31.999999999999652
        },
        {
          "name": "D4",
          "midi": 62,
          "time": 55.25000000000009,
          "velocity": 0.7874015748031497,
          "duration": 0.75
        },
        {
          "name": "A#3",
          "midi": 58,
          "time": 55.50000000000009,
          "velocity": 0.7874015748031497,
          "duration": 0.5
        },
        {
          "name": "F3",
          "midi": 53,
          "time": 55.75000000000009,
          "velocity": 0.7716535433070866,
          "duration": 0.25
        },
        {
          "name": "F3",
          "midi": 53,
          "time": 56.25000000000009,
          "velocity": 0.7559055118110236,
          "duration": 0.0833333333333357
        },
        {
          "name": "A#3",
          "midi": 58,
          "time": 56.25000000000009,
          "velocity": 0.7559055118110236,
          "duration": 0.057291666666671404
        },
        {
          "name": "D4",
          "midi": 62,
          "time": 56.25000000000009,
          "velocity": 0.7401574803149606,
          "duration": 0.0520833333333357
        },
        {
          "name": "F3",
          "midi": 53,
          "time": 56.37500000000009,
          "velocity": 0.7559055118110236,
          "duration": 0.0625000000000071
        },
        {
          "name": "A#3",
          "midi": 58,
          "time": 56.37500000000009,
          "velocity": 0.7716535433070866,
          "duration": 0.057291666666671404
        },
        {
          "name": "D4",
          "midi": 62,
          "time": 56.37500000000009,
          "velocity": 0.7716535433070866,
          "duration": 0.0520833333333357
        },
        {
          "name": "F3",
          "midi": 53,
          "time": 56.7500000000001,
          "velocity": 0.7874015748031497,
          "duration": 0.057291666666671404
        },
        {
          "name": "A#3",
          "midi": 58,
          "time": 56.7500000000001,
          "velocity": 0.7716535433070866,
          "duration": 0.0520833333333357
        },
        {
          "name": "D4",
          "midi": 62,
          "time": 56.7500000000001,
          "velocity": 0.7716535433070866,
          "duration": 0.057291666666671404
        },
        {
          "name": "G3",
          "midi": 55,
          "time": 57.25000000000011,
          "velocity": 0.7401574803149606,
          "duration": 0.057291666666671404
        },
        {
          "name": "A#3",
          "midi": 58,
          "time": 57.25000000000011,
          "velocity": 0.7401574803149606,
          "duration": 0.0520833333333357
        },
        {
          "name": "E4",
          "midi": 64,
          "time": 57.25000000000011,
          "velocity": 0.7559055118110236,
          "duration": 0.0520833333333357
        },
        {
          "name": "G3",
          "midi": 55,
          "time": 57.375000000000114,
          "velocity": 0.7401574803149606,
          "duration": 0.057291666666671404
        },
        {
          "name": "A#3",
          "midi": 58,
          "time": 57.375000000000114,
          "velocity": 0.7559055118110236,
          "duration": 0.0520833333333357
        },
        {
          "name": "E4",
          "midi": 64,
          "time": 57.375000000000114,
          "velocity": 0.7559055118110236,
          "duration": 0.0520833333333357
        },
        {
          "name": "G3",
          "midi": 55,
          "time": 57.75000000000012,
          "velocity": 0.7716535433070866,
          "duration": 0.0677083333333357
        },
        {
          "name": "A#3",
          "midi": 58,
          "time": 57.75000000000012,
          "velocity": 0.7716535433070866,
          "duration": 0.0625
        },
        {
          "name": "E4",
          "midi": 64,
          "time": 57.75000000000012,
          "velocity": 0.7559055118110236,
          "duration": 0.0520833333333357
        },
        {
          "name": "G3",
          "midi": 55,
          "time": 58.25000000000012,
          "velocity": 0.7559055118110236,
          "duration": 0.0677083333333357
        },
        {
          "name": "A#3",
          "midi": 58,
          "time": 58.25000000000012,
          "velocity": 0.7559055118110236,
          "duration": 0.057291666666671404
        },
        {
          "name": "E4",
          "midi": 64,
          "time": 58.25000000000012,
          "velocity": 0.7559055118110236,
          "duration": 0.0520833333333357
        },
        {
          "name": "G3",
          "midi": 55,
          "time": 58.37500000000012,
          "velocity": 0.7716535433070866,
          "duration": 0.0625
        },
        {
          "name": "A#3",
          "midi": 58,
          "time": 58.37500000000012,
          "velocity": 0.7559055118110236,
          "duration": 0.0520833333333357
        },
        {
          "name": "E4",
          "midi": 64,
          "time": 58.37500000000012,
          "velocity": 0.7716535433070866,
          "duration": 0.0520833333333357
        },
        {
          "name": "G3",
          "midi": 55,
          "time": 58.75000000000012,
          "velocity": 0.7716535433070866,
          "duration": 0.0625000000000071
        },
        {
          "name": "A#3",
          "midi": 58,
          "time": 58.75000000000012,
          "velocity": 0.7874015748031497,
          "duration": 0.057291666666671404
        },
        {
          "name": "E4",
          "midi": 64,
          "time": 58.75000000000012,
          "velocity": 0.7716535433070866,
          "duration": 0.0520833333333357
        },
        {
          "name": "C4",
          "midi": 60,
          "time": 59.25000000000013,
          "velocity": 0.7716535433070866,
          "duration": 0.125
        },
        {
          "name": "F4",
          "midi": 65,
          "time": 59.37500000000013,
          "velocity": 0.7716535433070866,
          "duration": 0.125
        },
        {
          "name": "A4",
          "midi": 69,
          "time": 59.50000000000013,
          "velocity": 0.7874015748031497,
          "duration": 0.25
        },
        {
          "name": "C5",
          "midi": 72,
          "time": 59.75000000000013,
          "velocity": 0.7874015748031497,
          "duration": 0.25
        },
        {
          "name": "C4",
          "midi": 60,
          "time": 60.25000000000013,
          "velocity": 0.7559055118110236,
          "duration": 0.0833333333333357
        },
        {
          "name": "F4",
          "midi": 65,
          "time": 60.25000000000013,
          "velocity": 0.7559055118110236,
          "duration": 0.057291666666671404
        },
        {
          "name": "A4",
          "midi": 69,
          "time": 60.25000000000013,
          "velocity": 0.7401574803149606,
          "duration": 0.0520833333333357
        },
        {
          "name": "C4",
          "midi": 60,
          "time": 60.37500000000013,
          "velocity": 0.7559055118110236,
          "duration": 0.0625000000000071
        },
        {
          "name": "F4",
          "midi": 65,
          "time": 60.37500000000013,
          "velocity": 0.7716535433070866,
          "duration": 0.057291666666671404
        },
        {
          "name": "A4",
          "midi": 69,
          "time": 60.37500000000013,
          "velocity": 0.7716535433070866,
          "duration": 0.0520833333333357
        },
        {
          "name": "C4",
          "midi": 60,
          "time": 60.750000000000135,
          "velocity": 0.7874015748031497,
          "duration": 0.057291666666671404
        },
        {
          "name": "F4",
          "midi": 65,
          "time": 60.750000000000135,
          "velocity": 0.7716535433070866,
          "duration": 0.0520833333333357
        },
        {
          "name": "A4",
          "midi": 69,
          "time": 60.750000000000135,
          "velocity": 0.7716535433070866,
          "duration": 0.057291666666671404
        },
        {
          "name": "C4",
          "midi": 60,
          "time": 61.25000000000014,
          "velocity": 0.7401574803149606,
          "duration": 0.057291666666671404
        },
        {
          "name": "F4",
          "midi": 65,
          "time": 61.25000000000014,
          "velocity": 0.7401574803149606,
          "duration": 0.0520833333333357
        },
        {
          "name": "A4",
          "midi": 69,
          "time": 61.25000000000014,
          "velocity": 0.7559055118110236,
          "duration": 0.0520833333333357
        },
        {
          "name": "C4",
          "midi": 60,
          "time": 61.37500000000015,
          "velocity": 0.7401574803149606,
          "duration": 0.057291666666671404
        },
        {
          "name": "F4",
          "midi": 65,
          "time": 61.37500000000015,
          "velocity": 0.7559055118110236,
          "duration": 0.0520833333333357
        },
        {
          "name": "A4",
          "midi": 69,
          "time": 61.37500000000015,
          "velocity": 0.7559055118110236,
          "duration": 0.0520833333333357
        },
        {
          "name": "C4",
          "midi": 60,
          "time": 61.750000000000156,
          "velocity": 0.7716535433070866,
          "duration": 0.0677083333333357
        },
        {
          "name": "F4",
          "midi": 65,
          "time": 61.750000000000156,
          "velocity": 0.7716535433070866,
          "duration": 0.0625
        },
        {
          "name": "A4",
          "midi": 69,
          "time": 61.750000000000156,
          "velocity": 0.7559055118110236,
          "duration": 0.0520833333333357
        },
        {
          "name": "C4",
          "midi": 60,
          "time": 62.250000000000156,
          "velocity": 0.7559055118110236,
          "duration": 0.0677083333333357
        },
        {
          "name": "F4",
          "midi": 65,
          "time": 62.250000000000156,
          "velocity": 0.7559055118110236,
          "duration": 0.057291666666671404
        },
        {
          "name": "A4",
          "midi": 69,
          "time": 62.250000000000156,
          "velocity": 0.7559055118110236,
          "duration": 0.0520833333333357
        },
        {
          "name": "C4",
          "midi": 60,
          "time": 62.375000000000156,
          "velocity": 0.7716535433070866,
          "duration": 0.0625
        },
        {
          "name": "F4",
          "midi": 65,
          "time": 62.375000000000156,
          "velocity": 0.7559055118110236,
          "duration": 0.0520833333333357
        },
        {
          "name": "A4",
          "midi": 69,
          "time": 62.375000000000156,
          "velocity": 0.7716535433070866,
          "duration": 0.0520833333333357
        },
        {
          "name": "C4",
          "midi": 60,
          "time": 62.750000000000156,
          "velocity": 0.7716535433070866,
          "duration": 0.0625000000000071
        },
        {
          "name": "F4",
          "midi": 65,
          "time": 62.750000000000156,
          "velocity": 0.7874015748031497,
          "duration": 0.057291666666671404
        },
        {
          "name": "A4",
          "midi": 69,
          "time": 62.750000000000156,
          "velocity": 0.7716535433070866,
          "duration": 0.0520833333333357
        },
        {
          "name": "C4",
          "midi": 60,
          "time": 63.25000000000016,
          "velocity": 0.7716535433070866,
          "duration": 0.125
        },
        {
          "name": "F4",
          "midi": 65,
          "time": 63.37500000000016,
          "velocity": 0.7716535433070866,
          "duration": 0.125
        },
        {
          "name": "A4",
          "midi": 69,
          "time": 63.50000000000016,
          "velocity": 0.7874015748031497,
          "duration": 0.25
        },
        {
          "name": "C5",
          "midi": 72,
          "time": 63.75000000000016,
          "velocity": 0.7874015748031497,
          "duration": 0.2395833333333357
        },
        {
          "name": "F3",
          "midi": 53,
          "time": 64.25000000000017,
          "velocity": 0.7559055118110236,
          "duration": 0.0833333333333286
        },
        {
          "name": "A#3",
          "midi": 58,
          "time": 64.25000000000017,
          "velocity": 0.7559055118110236,
          "duration": 0.05729166666665719
        },
        {
          "name": "D4",
          "midi": 62,
          "time": 64.25000000000017,
          "velocity": 0.7401574803149606,
          "duration": 0.052083333333328596
        },
        {
          "name": "F3",
          "midi": 53,
          "time": 64.37500000000017,
          "velocity": 0.7559055118110236,
          "duration": 0.06249999999998579
        },
        {
          "name": "A#3",
          "midi": 58,
          "time": 64.37500000000017,
          "velocity": 0.7716535433070866,
          "duration": 0.05729166666665719
        },
        {
          "name": "D4",
          "midi": 62,
          "time": 64.37500000000017,
          "velocity": 0.7716535433070866,
          "duration": 0.052083333333328596
        },
        {
          "name": "F3",
          "midi": 53,
          "time": 64.75000000000016,
          "velocity": 0.7874015748031497,
          "duration": 0.05729166666665719
        },
        {
          "name": "A#3",
          "midi": 58,
          "time": 64.75000000000016,
          "velocity": 0.7716535433070866,
          "duration": 0.052083333333328596
        },
        {
          "name": "D4",
          "midi": 62,
          "time": 64.75000000000016,
          "velocity": 0.7716535433070866,
          "duration": 0.05729166666665719
        },
        {
          "name": "C4",
          "midi": 60,
          "time": 65.25000000000014,
          "velocity": 0.7401574803149606,
          "duration": 0.05729166666665719
        },
        {
          "name": "F4",
          "midi": 65,
          "time": 65.25000000000014,
          "velocity": 0.7401574803149606,
          "duration": 0.052083333333328596
        },
        {
          "name": "A4",
          "midi": 69,
          "time": 65.25000000000014,
          "velocity": 0.7559055118110236,
          "duration": 0.052083333333328596
        },
        {
          "name": "C4",
          "midi": 60,
          "time": 65.37500000000013,
          "velocity": 0.7401574803149606,
          "duration": 0.05729166666665719
        },
        {
          "name": "F4",
          "midi": 65,
          "time": 65.37500000000013,
          "velocity": 0.7559055118110236,
          "duration": 0.052083333333328596
        },
        {
          "name": "A4",
          "midi": 69,
          "time": 65.37500000000013,
          "velocity": 0.7559055118110236,
          "duration": 0.052083333333328596
        },
        {
          "name": "C4",
          "midi": 60,
          "time": 65.75000000000011,
          "velocity": 0.7716535433070866,
          "duration": 0.0677083333333286
        },
        {
          "name": "F4",
          "midi": 65,
          "time": 65.75000000000011,
          "velocity": 0.7716535433070866,
          "duration": 0.0625
        },
        {
          "name": "A4",
          "midi": 69,
          "time": 65.75000000000011,
          "velocity": 0.7559055118110236,
          "duration": 0.052083333333328596
        },
        {
          "name": "D4",
          "midi": 62,
          "time": 66.25000000000011,
          "velocity": 0.7559055118110236,
          "duration": 0.0677083333333286
        },
        {
          "name": "G4",
          "midi": 67,
          "time": 66.25000000000011,
          "velocity": 0.7559055118110236,
          "duration": 0.05729166666665719
        },
        {
          "name": "B4",
          "midi": 71,
          "time": 66.25000000000011,
          "velocity": 0.7559055118110236,
          "duration": 0.052083333333328596
        },
        {
          "name": "D4",
          "midi": 62,
          "time": 66.37500000000011,
          "velocity": 0.7716535433070866,
          "duration": 0.0625
        },
        {
          "name": "G4",
          "midi": 67,
          "time": 66.37500000000011,
          "velocity": 0.7559055118110236,
          "duration": 0.052083333333328596
        },
        {
          "name": "B4",
          "midi": 71,
          "time": 66.37500000000011,
          "velocity": 0.7716535433070866,
          "duration": 0.052083333333328596
        },
        {
          "name": "D4",
          "midi": 62,
          "time": 66.75000000000011,
          "velocity": 0.7716535433070866,
          "duration": 0.06249999999998579
        },
        {
          "name": "G4",
          "midi": 67,
          "time": 66.75000000000011,
          "velocity": 0.7874015748031497,
          "duration": 0.05729166666665719
        },
        {
          "name": "B4",
          "midi": 71,
          "time": 66.75000000000011,
          "velocity": 0.7716535433070866,
          "duration": 0.052083333333328596
        },
        {
          "name": "G3",
          "midi": 55,
          "time": 67.2500000000001,
          "velocity": 0.7716535433070866,
          "duration": 0.125
        },
        {
          "name": "A#3",
          "midi": 58,
          "time": 67.3750000000001,
          "velocity": 0.7716535433070866,
          "duration": 0.125
        },
        {
          "name": "E4",
          "midi": 64,
          "time": 67.5000000000001,
          "velocity": 0.7874015748031497,
          "duration": 0.25
        },
        {
          "name": "G4",
          "midi": 67,
          "time": 67.7500000000001,
          "velocity": 0.7874015748031497,
          "duration": 0.25
        },
        {
          "name": "C4",
          "midi": 60,
          "time": 68.2500000000001,
          "velocity": 0.7559055118110236,
          "duration": 0.0833333333333286
        },
        {
          "name": "F4",
          "midi": 65,
          "time": 68.2500000000001,
          "velocity": 0.7559055118110236,
          "duration": 0.05729166666665719
        },
        {
          "name": "A4",
          "midi": 69,
          "time": 68.2500000000001,
          "velocity": 0.7401574803149606,
          "duration": 0.052083333333328596
        },
        {
          "name": "C4",
          "midi": 60,
          "time": 68.3750000000001,
          "velocity": 0.7559055118110236,
          "duration": 0.06249999999998579
        },
        {
          "name": "F4",
          "midi": 65,
          "time": 68.3750000000001,
          "velocity": 0.7716535433070866,
          "duration": 0.05729166666665719
        },
        {
          "name": "A4",
          "midi": 69,
          "time": 68.3750000000001,
          "velocity": 0.7716535433070866,
          "duration": 0.052083333333328596
        },
        {
          "name": "C4",
          "midi": 60,
          "time": 68.75000000000009,
          "velocity": 0.7874015748031497,
          "duration": 0.05729166666665719
        },
        {
          "name": "F4",
          "midi": 65,
          "time": 68.75000000000009,
          "velocity": 0.7716535433070866,
          "duration": 0.052083333333328596
        },
        {
          "name": "A4",
          "midi": 69,
          "time": 68.75000000000009,
          "velocity": 0.7716535433070866,
          "duration": 0.05729166666665719
        },
        {
          "name": "C4",
          "midi": 60,
          "time": 69.25000000000007,
          "velocity": 0.7401574803149606,
          "duration": 0.05729166666665719
        },
        {
          "name": "F4",
          "midi": 65,
          "time": 69.25000000000007,
          "velocity": 0.7401574803149606,
          "duration": 0.052083333333328596
        },
        {
          "name": "A4",
          "midi": 69,
          "time": 69.25000000000007,
          "velocity": 0.7559055118110236,
          "duration": 0.052083333333328596
        },
        {
          "name": "C4",
          "midi": 60,
          "time": 69.37500000000006,
          "velocity": 0.7401574803149606,
          "duration": 0.05729166666665719
        },
        {
          "name": "F4",
          "midi": 65,
          "time": 69.37500000000006,
          "velocity": 0.7559055118110236,
          "duration": 0.052083333333328596
        },
        {
          "name": "A4",
          "midi": 69,
          "time": 69.37500000000006,
          "velocity": 0.7559055118110236,
          "duration": 0.052083333333328596
        },
        {
          "name": "C4",
          "midi": 60,
          "time": 69.75000000000004,
          "velocity": 0.7716535433070866,
          "duration": 0.0677083333333286
        },
        {
          "name": "F4",
          "midi": 65,
          "time": 69.75000000000004,
          "velocity": 0.7716535433070866,
          "duration": 0.0625
        },
        {
          "name": "A4",
          "midi": 69,
          "time": 69.75000000000004,
          "velocity": 0.7559055118110236,
          "duration": 0.052083333333328596
        },
        {
          "name": "C4",
          "midi": 60,
          "time": 70.25000000000004,
          "velocity": 0.7401574803149606,
          "duration": 0.05729166666665719
        },
        {
          "name": "F4",
          "midi": 65,
          "time": 70.25000000000004,
          "velocity": 0.7559055118110236,
          "duration": 0.05729166666665719
        },
        {
          "name": "A4",
          "midi": 69,
          "time": 70.25000000000004,
          "velocity": 0.7401574803149606,
          "duration": 0.052083333333328596
        },
        {
          "name": "C4",
          "midi": 60,
          "time": 70.37500000000003,
          "velocity": 0.7559055118110236,
          "duration": 0.0625
        },
        {
          "name": "F4",
          "midi": 65,
          "time": 70.37500000000003,
          "velocity": 0.7559055118110236,
          "duration": 0.052083333333328596
        },
        {
          "name": "A4",
          "midi": 69,
          "time": 70.37500000000003,
          "velocity": 0.7716535433070866,
          "duration": 0.052083333333328596
        },
        {
          "name": "C4",
          "midi": 60,
          "time": 70.75000000000003,
          "velocity": 0.7559055118110236,
          "duration": 0.052083333333328596
        },
        {
          "name": "F4",
          "midi": 65,
          "time": 70.75000000000003,
          "velocity": 0.7559055118110236,
          "duration": 0.052083333333328596
        },
        {
          "name": "A4",
          "midi": 69,
          "time": 70.75000000000003,
          "velocity": 0.7401574803149606,
          "duration": 0.052083333333328596
        },
        {
          "name": "C5",
          "midi": 72,
          "time": 71.00000000000003,
          "velocity": 0.7401574803149606,
          "duration": 1
        },
        {
          "name": "F5",
          "midi": 77,
          "time": 71.00000000000003,
          "velocity": 0.7874015748031497,
          "duration": 0.25
        },
        {
          "name": "A4",
          "midi": 69,
          "time": 71.25000000000003,
          "velocity": 0.7874015748031497,
          "duration": 0.75
        },
        {
          "name": "F4",
          "midi": 65,
          "time": 71.50000000000003,
          "velocity": 0.7874015748031497,
          "duration": 0.5
        },
        {
          "name": "C4",
          "midi": 60,
          "time": 71.75000000000003,
          "velocity": 0.7716535433070866,
          "duration": 0.25
        },
        {
          "name": "F3",
          "midi": 53,
          "time": 72.25000000000003,
          "velocity": 0.7559055118110236,
          "duration": 0.0833333333333286
        },
        {
          "name": "A#3",
          "midi": 58,
          "time": 72.25000000000003,
          "velocity": 0.7559055118110236,
          "duration": 0.05729166666665719
        },
        {
          "name": "D4",
          "midi": 62,
          "time": 72.25000000000003,
          "velocity": 0.7401574803149606,
          "duration": 0.052083333333328596
        },
        {
          "name": "F3",
          "midi": 53,
          "time": 72.37500000000003,
          "velocity": 0.7559055118110236,
          "duration": 0.06249999999998579
        },
        {
          "name": "A#3",
          "midi": 58,
          "time": 72.37500000000003,
          "velocity": 0.7716535433070866,
          "duration": 0.05729166666665719
        },
        {
          "name": "D4",
          "midi": 62,
          "time": 72.37500000000003,
          "velocity": 0.7716535433070866,
          "duration": 0.052083333333328596
        },
        {
          "name": "F3",
          "midi": 53,
          "time": 72.75000000000001,
          "velocity": 0.7874015748031497,
          "duration": 0.05729166666665719
        },
        {
          "name": "A#3",
          "midi": 58,
          "time": 72.75000000000001,
          "velocity": 0.7716535433070866,
          "duration": 0.052083333333328596
        },
        {
          "name": "D4",
          "midi": 62,
          "time": 72.75000000000001,
          "velocity": 0.7716535433070866,
          "duration": 0.05729166666665719
        },
        {
          "name": "C4",
          "midi": 60,
          "time": 73.25,
          "velocity": 0.7401574803149606,
          "duration": 0.05729166666665719
        },
        {
          "name": "F4",
          "midi": 65,
          "time": 73.25,
          "velocity": 0.7401574803149606,
          "duration": 0.052083333333328596
        },
        {
          "name": "A4",
          "midi": 69,
          "time": 73.25,
          "velocity": 0.7559055118110236,
          "duration": 0.052083333333328596
        },
        {
          "name": "C4",
          "midi": 60,
          "time": 73.37499999999999,
          "velocity": 0.7401574803149606,
          "duration": 0.05729166666665719
        },
        {
          "name": "F4",
          "midi": 65,
          "time": 73.37499999999999,
          "velocity": 0.7559055118110236,
          "duration": 0.052083333333328596
        },
        {
          "name": "A4",
          "midi": 69,
          "time": 73.37499999999999,
          "velocity": 0.7559055118110236,
          "duration": 0.052083333333328596
        },
        {
          "name": "C4",
          "midi": 60,
          "time": 73.74999999999997,
          "velocity": 0.7716535433070866,
          "duration": 0.0677083333333286
        },
        {
          "name": "F4",
          "midi": 65,
          "time": 73.74999999999997,
          "velocity": 0.7716535433070866,
          "duration": 0.0625
        },
        {
          "name": "A4",
          "midi": 69,
          "time": 73.74999999999997,
          "velocity": 0.7559055118110236,
          "duration": 0.052083333333328596
        },
        {
          "name": "G3",
          "midi": 55,
          "time": 74.24999999999997,
          "velocity": 0.7559055118110236,
          "duration": 0.0677083333333286
        },
        {
          "name": "A#3",
          "midi": 58,
          "time": 74.24999999999997,
          "velocity": 0.7559055118110236,
          "duration": 0.05729166666665719
        },
        {
          "name": "E4",
          "midi": 64,
          "time": 74.24999999999997,
          "velocity": 0.7559055118110236,
          "duration": 0.052083333333328596
        },
        {
          "name": "G3",
          "midi": 55,
          "time": 74.37499999999997,
          "velocity": 0.7716535433070866,
          "duration": 0.0625
        },
        {
          "name": "A#3",
          "midi": 58,
          "time": 74.37499999999997,
          "velocity": 0.7559055118110236,
          "duration": 0.052083333333328596
        },
        {
          "name": "E4",
          "midi": 64,
          "time": 74.37499999999997,
          "velocity": 0.7716535433070866,
          "duration": 0.052083333333328596
        },
        {
          "name": "G3",
          "midi": 55,
          "time": 74.74999999999997,
          "velocity": 0.7716535433070866,
          "duration": 0.06249999999998579
        },
        {
          "name": "A#3",
          "midi": 58,
          "time": 74.74999999999997,
          "velocity": 0.7874015748031497,
          "duration": 0.05729166666665719
        },
        {
          "name": "E4",
          "midi": 64,
          "time": 74.74999999999997,
          "velocity": 0.7716535433070866,
          "duration": 0.052083333333328596
        },
        {
          "name": "C4",
          "midi": 60,
          "time": 75.24999999999996,
          "velocity": 0.7716535433070866,
          "duration": 0.125
        },
        {
          "name": "F4",
          "midi": 65,
          "time": 75.37499999999996,
          "velocity": 0.7716535433070866,
          "duration": 0.125
        },
        {
          "name": "A4",
          "midi": 69,
          "time": 75.49999999999996,
          "velocity": 0.7874015748031497,
          "duration": 0.25
        },
        {
          "name": "C5",
          "midi": 72,
          "time": 75.74999999999996,
          "velocity": 0.7874015748031497,
          "duration": 0.25
        },
        {
          "name": "C4",
          "midi": 60,
          "time": 76.24999999999996,
          "velocity": 0.7559055118110236,
          "duration": 0.0833333333333286
        },
        {
          "name": "F4",
          "midi": 65,
          "time": 76.24999999999996,
          "velocity": 0.7559055118110236,
          "duration": 0.05729166666665719
        },
        {
          "name": "A4",
          "midi": 69,
          "time": 76.24999999999996,
          "velocity": 0.7401574803149606,
          "duration": 0.052083333333328596
        },
        {
          "name": "C4",
          "midi": 60,
          "time": 76.37499999999996,
          "velocity": 0.7559055118110236,
          "duration": 0.06249999999998579
        },
        {
          "name": "F4",
          "midi": 65,
          "time": 76.37499999999996,
          "velocity": 0.7716535433070866,
          "duration": 0.05729166666665719
        },
        {
          "name": "A4",
          "midi": 69,
          "time": 76.37499999999996,
          "velocity": 0.7716535433070866,
          "duration": 0.052083333333328596
        },
        {
          "name": "C4",
          "midi": 60,
          "time": 76.74999999999994,
          "velocity": 0.7874015748031497,
          "duration": 0.05729166666665719
        },
        {
          "name": "F4",
          "midi": 65,
          "time": 76.74999999999994,
          "velocity": 0.7716535433070866,
          "duration": 0.052083333333328596
        },
        {
          "name": "A4",
          "midi": 69,
          "time": 76.74999999999994,
          "velocity": 0.7716535433070866,
          "duration": 0.05729166666665719
        },
        {
          "name": "C4",
          "midi": 60,
          "time": 77.24999999999993,
          "velocity": 0.7401574803149606,
          "duration": 0.05729166666665719
        },
        {
          "name": "F4",
          "midi": 65,
          "time": 77.24999999999993,
          "velocity": 0.7401574803149606,
          "duration": 0.052083333333328596
        },
        {
          "name": "A4",
          "midi": 69,
          "time": 77.24999999999993,
          "velocity": 0.7559055118110236,
          "duration": 0.052083333333328596
        },
        {
          "name": "C4",
          "midi": 60,
          "time": 77.37499999999991,
          "velocity": 0.7401574803149606,
          "duration": 0.05729166666665719
        },
        {
          "name": "F4",
          "midi": 65,
          "time": 77.37499999999991,
          "velocity": 0.7559055118110236,
          "duration": 0.052083333333328596
        },
        {
          "name": "A4",
          "midi": 69,
          "time": 77.37499999999991,
          "velocity": 0.7559055118110236,
          "duration": 0.052083333333328596
        },
        {
          "name": "C4",
          "midi": 60,
          "time": 77.7499999999999,
          "velocity": 0.7716535433070866,
          "duration": 0.0677083333333286
        },
        {
          "name": "F4",
          "midi": 65,
          "time": 77.7499999999999,
          "velocity": 0.7716535433070866,
          "duration": 0.0625
        },
        {
          "name": "A4",
          "midi": 69,
          "time": 77.7499999999999,
          "velocity": 0.7559055118110236,
          "duration": 0.052083333333328596
        },
        {
          "name": "C4",
          "midi": 60,
          "time": 78.2499999999999,
          "velocity": 0.7559055118110236,
          "duration": 0.0677083333333286
        },
        {
          "name": "F4",
          "midi": 65,
          "time": 78.2499999999999,
          "velocity": 0.7559055118110236,
          "duration": 0.05729166666665719
        },
        {
          "name": "A4",
          "midi": 69,
          "time": 78.2499999999999,
          "velocity": 0.7559055118110236,
          "duration": 0.052083333333328596
        },
        {
          "name": "C4",
          "midi": 60,
          "time": 78.3749999999999,
          "velocity": 0.7716535433070866,
          "duration": 0.0625
        },
        {
          "name": "F4",
          "midi": 65,
          "time": 78.3749999999999,
          "velocity": 0.7559055118110236,
          "duration": 0.052083333333328596
        },
        {
          "name": "A4",
          "midi": 69,
          "time": 78.3749999999999,
          "velocity": 0.7716535433070866,
          "duration": 0.052083333333328596
        },
        {
          "name": "C4",
          "midi": 60,
          "time": 78.7499999999999,
          "velocity": 0.7716535433070866,
          "duration": 0.06249999999998579
        },
        {
          "name": "F4",
          "midi": 65,
          "time": 78.7499999999999,
          "velocity": 0.7874015748031497,
          "duration": 0.05729166666665719
        },
        {
          "name": "A4",
          "midi": 69,
          "time": 78.7499999999999,
          "velocity": 0.7716535433070866,
          "duration": 0.052083333333328596
        },
        {
          "name": "C4",
          "midi": 60,
          "time": 79.24999999999989,
          "velocity": 0.7716535433070866,
          "duration": 0.125
        },
        {
          "name": "F4",
          "midi": 65,
          "time": 79.37499999999989,
          "velocity": 0.7716535433070866,
          "duration": 0.125
        },
        {
          "name": "A4",
          "midi": 69,
          "time": 79.49999999999989,
          "velocity": 0.7874015748031497,
          "duration": 0.25
        },
        {
          "name": "C5",
          "midi": 72,
          "time": 79.74999999999989,
          "velocity": 0.7874015748031497,
          "duration": 0.2395833333333286
        },
        {
          "name": "C4",
          "midi": 60,
          "time": 80.24999999999989,
          "velocity": 0.7559055118110236,
          "duration": 0.0833333333333286
        },
        {
          "name": "F4",
          "midi": 65,
          "time": 80.24999999999989,
          "velocity": 0.7559055118110236,
          "duration": 0.05729166666665719
        },
        {
          "name": "A4",
          "midi": 69,
          "time": 80.24999999999989,
          "velocity": 0.7401574803149606,
          "duration": 0.052083333333328596
        },
        {
          "name": "C4",
          "midi": 60,
          "time": 80.37499999999989,
          "velocity": 0.7559055118110236,
          "duration": 0.06249999999998579
        },
        {
          "name": "F4",
          "midi": 65,
          "time": 80.37499999999989,
          "velocity": 0.7716535433070866,
          "duration": 0.05729166666665719
        },
        {
          "name": "A4",
          "midi": 69,
          "time": 80.37499999999989,
          "velocity": 0.7716535433070866,
          "duration": 0.052083333333328596
        },
        {
          "name": "C4",
          "midi": 60,
          "time": 80.74999999999987,
          "velocity": 0.7874015748031497,
          "duration": 0.05729166666665719
        },
        {
          "name": "F4",
          "midi": 65,
          "time": 80.74999999999987,
          "velocity": 0.7716535433070866,
          "duration": 0.052083333333328596
        },
        {
          "name": "A4",
          "midi": 69,
          "time": 80.74999999999987,
          "velocity": 0.7716535433070866,
          "duration": 0.05729166666665719
        },
        {
          "name": "C4",
          "midi": 60,
          "time": 81.24999999999986,
          "velocity": 0.7401574803149606,
          "duration": 0.05729166666665719
        },
        {
          "name": "F4",
          "midi": 65,
          "time": 81.24999999999986,
          "velocity": 0.7401574803149606,
          "duration": 0.052083333333328596
        },
        {
          "name": "A4",
          "midi": 69,
          "time": 81.24999999999986,
          "velocity": 0.7559055118110236,
          "duration": 0.052083333333328596
        },
        {
          "name": "C4",
          "midi": 60,
          "time": 81.37499999999984,
          "velocity": 0.7401574803149606,
          "duration": 0.05729166666665719
        },
        {
          "name": "F4",
          "midi": 65,
          "time": 81.37499999999984,
          "velocity": 0.7559055118110236,
          "duration": 0.052083333333328596
        },
        {
          "name": "A4",
          "midi": 69,
          "time": 81.37499999999984,
          "velocity": 0.7559055118110236,
          "duration": 0.052083333333328596
        },
        {
          "name": "C4",
          "midi": 60,
          "time": 81.74999999999983,
          "velocity": 0.7716535433070866,
          "duration": 0.0677083333333286
        },
        {
          "name": "F4",
          "midi": 65,
          "time": 81.74999999999983,
          "velocity": 0.7716535433070866,
          "duration": 0.0625
        },
        {
          "name": "A4",
          "midi": 69,
          "time": 81.74999999999983,
          "velocity": 0.7559055118110236,
          "duration": 0.052083333333328596
        },
        {
          "name": "C4",
          "midi": 60,
          "time": 82.24999999999983,
          "velocity": 0.7559055118110236,
          "duration": 0.0677083333333286
        },
        {
          "name": "F4",
          "midi": 65,
          "time": 82.24999999999983,
          "velocity": 0.7559055118110236,
          "duration": 0.05729166666665719
        },
        {
          "name": "A4",
          "midi": 69,
          "time": 82.24999999999983,
          "velocity": 0.7559055118110236,
          "duration": 0.052083333333328596
        },
        {
          "name": "C4",
          "midi": 60,
          "time": 82.37499999999983,
          "velocity": 0.7716535433070866,
          "duration": 0.0625
        },
        {
          "name": "F4",
          "midi": 65,
          "time": 82.37499999999983,
          "velocity": 0.7559055118110236,
          "duration": 0.052083333333328596
        },
        {
          "name": "A4",
          "midi": 69,
          "time": 82.37499999999983,
          "velocity": 0.7716535433070866,
          "duration": 0.052083333333328596
        },
        {
          "name": "C4",
          "midi": 60,
          "time": 82.74999999999983,
          "velocity": 0.7716535433070866,
          "duration": 0.06249999999998579
        },
        {
          "name": "F4",
          "midi": 65,
          "time": 82.74999999999983,
          "velocity": 0.7874015748031497,
          "duration": 0.05729166666665719
        },
        {
          "name": "A4",
          "midi": 69,
          "time": 82.74999999999983,
          "velocity": 0.7716535433070866,
          "duration": 0.052083333333328596
        },
        {
          "name": "C4",
          "midi": 60,
          "time": 83.24999999999982,
          "velocity": 0.7716535433070866,
          "duration": 0.125
        },
        {
          "name": "F4",
          "midi": 65,
          "time": 83.37499999999982,
          "velocity": 0.7716535433070866,
          "duration": 0.125
        },
        {
          "name": "A4",
          "midi": 69,
          "time": 83.49999999999982,
          "velocity": 0.7874015748031497,
          "duration": 0.25
        },
        {
          "name": "C5",
          "midi": 72,
          "time": 83.74999999999982,
          "velocity": 0.7874015748031497,
          "duration": 0.25
        },
        {
          "name": "C4",
          "midi": 60,
          "time": 84.24999999999982,
          "velocity": 0.7559055118110236,
          "duration": 0.0833333333333286
        },
        {
          "name": "F4",
          "midi": 65,
          "time": 84.24999999999982,
          "velocity": 0.7559055118110236,
          "duration": 0.05729166666665719
        },
        {
          "name": "A4",
          "midi": 69,
          "time": 84.24999999999982,
          "velocity": 0.7401574803149606,
          "duration": 0.052083333333328596
        },
        {
          "name": "C4",
          "midi": 60,
          "time": 84.37499999999982,
          "velocity": 0.7559055118110236,
          "duration": 0.06249999999998579
        },
        {
          "name": "F4",
          "midi": 65,
          "time": 84.37499999999982,
          "velocity": 0.7716535433070866,
          "duration": 0.05729166666665719
        },
        {
          "name": "A4",
          "midi": 69,
          "time": 84.37499999999982,
          "velocity": 0.7716535433070866,
          "duration": 0.052083333333328596
        },
        {
          "name": "C4",
          "midi": 60,
          "time": 84.7499999999998,
          "velocity": 0.7874015748031497,
          "duration": 0.05729166666665719
        },
        {
          "name": "F4",
          "midi": 65,
          "time": 84.7499999999998,
          "velocity": 0.7716535433070866,
          "duration": 0.052083333333328596
        },
        {
          "name": "A4",
          "midi": 69,
          "time": 84.7499999999998,
          "velocity": 0.7716535433070866,
          "duration": 0.05729166666665719
        },
        {
          "name": "F3",
          "midi": 53,
          "time": 85.24999999999979,
          "velocity": 0.7401574803149606,
          "duration": 0.05729166666665719
        },
        {
          "name": "A#3",
          "midi": 58,
          "time": 85.24999999999979,
          "velocity": 0.7401574803149606,
          "duration": 0.052083333333328596
        },
        {
          "name": "D4",
          "midi": 62,
          "time": 85.24999999999979,
          "velocity": 0.7559055118110236,
          "duration": 0.052083333333328596
        },
        {
          "name": "F3",
          "midi": 53,
          "time": 85.37499999999977,
          "velocity": 0.7401574803149606,
          "duration": 0.05729166666665719
        },
        {
          "name": "A#3",
          "midi": 58,
          "time": 85.37499999999977,
          "velocity": 0.7559055118110236,
          "duration": 0.052083333333328596
        },
        {
          "name": "D4",
          "midi": 62,
          "time": 85.37499999999977,
          "velocity": 0.7559055118110236,
          "duration": 0.052083333333328596
        },
        {
          "name": "F3",
          "midi": 53,
          "time": 85.74999999999976,
          "velocity": 0.7716535433070866,
          "duration": 0.0677083333333286
        },
        {
          "name": "A#3",
          "midi": 58,
          "time": 85.74999999999976,
          "velocity": 0.7716535433070866,
          "duration": 0.0625
        },
        {
          "name": "D4",
          "midi": 62,
          "time": 85.74999999999976,
          "velocity": 0.7559055118110236,
          "duration": 0.052083333333328596
        },
        {
          "name": "F3",
          "midi": 53,
          "time": 86.24999999999976,
          "velocity": 0.7401574803149606,
          "duration": 0.05729166666665719
        },
        {
          "name": "A#3",
          "midi": 58,
          "time": 86.24999999999976,
          "velocity": 0.7559055118110236,
          "duration": 0.05729166666665719
        },
        {
          "name": "D4",
          "midi": 62,
          "time": 86.24999999999976,
          "velocity": 0.7401574803149606,
          "duration": 0.052083333333328596
        },
        {
          "name": "F3",
          "midi": 53,
          "time": 86.37499999999974,
          "velocity": 0.7559055118110236,
          "duration": 0.0625
        },
        {
          "name": "A#3",
          "midi": 58,
          "time": 86.37499999999974,
          "velocity": 0.7559055118110236,
          "duration": 0.052083333333328596
        },
        {
          "name": "D4",
          "midi": 62,
          "time": 86.37499999999974,
          "velocity": 0.7716535433070866,
          "duration": 0.052083333333328596
        },
        {
          "name": "F3",
          "midi": 53,
          "time": 86.74999999999974,
          "velocity": 0.7559055118110236,
          "duration": 0.052083333333328596
        },
        {
          "name": "A#3",
          "midi": 58,
          "time": 86.74999999999974,
          "velocity": 0.7559055118110236,
          "duration": 0.052083333333328596
        },
        {
          "name": "D4",
          "midi": 62,
          "time": 86.74999999999974,
          "velocity": 0.7401574803149606,
          "duration": 0.052083333333328596
        },
        {
          "name": "G4",
          "midi": 67,
          "time": 86.99999999999974,
          "velocity": 0.7401574803149606,
          "duration": 1
        },
        {
          "name": "A#4",
          "midi": 70,
          "time": 86.99999999999974,
          "velocity": 0.7874015748031497,
          "duration": 0
        },
        {
          "name": "E4",
          "midi": 64,
          "time": 87.24999999999974,
          "velocity": 0.7874015748031497,
          "duration": 0.75
        },
        {
          "name": "A#3",
          "midi": 58,
          "time": 87.49999999999974,
          "velocity": 0.7874015748031497,
          "duration": 0.5
        },
        {
          "name": "G3",
          "midi": 55,
          "time": 87.74999999999974,
          "velocity": 0.7716535433070866,
          "duration": 0.25
        },
        {
          "name": "G3",
          "midi": 55,
          "time": 88.24999999999974,
          "velocity": 0.7559055118110236,
          "duration": 0.0833333333333286
        },
        {
          "name": "A#3",
          "midi": 58,
          "time": 88.24999999999974,
          "velocity": 0.7559055118110236,
          "duration": 0.05729166666665719
        },
        {
          "name": "E4",
          "midi": 64,
          "time": 88.24999999999974,
          "velocity": 0.7401574803149606,
          "duration": 0.052083333333328596
        },
        {
          "name": "G3",
          "midi": 55,
          "time": 88.37499999999974,
          "velocity": 0.7559055118110236,
          "duration": 0.06249999999998579
        },
        {
          "name": "A#3",
          "midi": 58,
          "time": 88.37499999999974,
          "velocity": 0.7716535433070866,
          "duration": 0.05729166666665719
        },
        {
          "name": "E4",
          "midi": 64,
          "time": 88.37499999999974,
          "velocity": 0.7716535433070866,
          "duration": 0.052083333333328596
        },
        {
          "name": "G3",
          "midi": 55,
          "time": 88.74999999999973,
          "velocity": 0.7874015748031497,
          "duration": 0.05729166666665719
        },
        {
          "name": "A#3",
          "midi": 58,
          "time": 88.74999999999973,
          "velocity": 0.7716535433070866,
          "duration": 0.052083333333328596
        },
        {
          "name": "E4",
          "midi": 64,
          "time": 88.74999999999973,
          "velocity": 0.7716535433070866,
          "duration": 0.05729166666665719
        },
        {
          "name": "C4",
          "midi": 60,
          "time": 89.24999999999972,
          "velocity": 0.7401574803149606,
          "duration": 0.05729166666665719
        },
        {
          "name": "F4",
          "midi": 65,
          "time": 89.24999999999972,
          "velocity": 0.7401574803149606,
          "duration": 0.052083333333328596
        },
        {
          "name": "A4",
          "midi": 69,
          "time": 89.24999999999972,
          "velocity": 0.7559055118110236,
          "duration": 0.052083333333328596
        },
        {
          "name": "C4",
          "midi": 60,
          "time": 89.3749999999997,
          "velocity": 0.7401574803149606,
          "duration": 0.05729166666665719
        },
        {
          "name": "F4",
          "midi": 65,
          "time": 89.3749999999997,
          "velocity": 0.7559055118110236,
          "duration": 0.052083333333328596
        },
        {
          "name": "A4",
          "midi": 69,
          "time": 89.3749999999997,
          "velocity": 0.7559055118110236,
          "duration": 0.052083333333328596
        },
        {
          "name": "C4",
          "midi": 60,
          "time": 89.74999999999969,
          "velocity": 0.7716535433070866,
          "duration": 0.0677083333333286
        },
        {
          "name": "F4",
          "midi": 65,
          "time": 89.74999999999969,
          "velocity": 0.7716535433070866,
          "duration": 0.0625
        },
        {
          "name": "A4",
          "midi": 69,
          "time": 89.74999999999969,
          "velocity": 0.7559055118110236,
          "duration": 0.052083333333328596
        },
        {
          "name": "C4",
          "midi": 60,
          "time": 90.24999999999969,
          "velocity": 0.7559055118110236,
          "duration": 0.0677083333333286
        },
        {
          "name": "F4",
          "midi": 65,
          "time": 90.24999999999969,
          "velocity": 0.7559055118110236,
          "duration": 0.05729166666665719
        },
        {
          "name": "A4",
          "midi": 69,
          "time": 90.24999999999969,
          "velocity": 0.7559055118110236,
          "duration": 0.052083333333328596
        },
        {
          "name": "C4",
          "midi": 60,
          "time": 90.37499999999969,
          "velocity": 0.7716535433070866,
          "duration": 0.0625
        },
        {
          "name": "F4",
          "midi": 65,
          "time": 90.37499999999969,
          "velocity": 0.7559055118110236,
          "duration": 0.052083333333328596
        },
        {
          "name": "A4",
          "midi": 69,
          "time": 90.37499999999969,
          "velocity": 0.7716535433070866,
          "duration": 0.052083333333328596
        },
        {
          "name": "C4",
          "midi": 60,
          "time": 90.74999999999969,
          "velocity": 0.7716535433070866,
          "duration": 0.06249999999998579
        },
        {
          "name": "F4",
          "midi": 65,
          "time": 90.74999999999969,
          "velocity": 0.7874015748031497,
          "duration": 0.05729166666665719
        },
        {
          "name": "A4",
          "midi": 69,
          "time": 90.74999999999969,
          "velocity": 0.7716535433070866,
          "duration": 0.052083333333328596
        },
        {
          "name": "C4",
          "midi": 60,
          "time": 91.24999999999967,
          "velocity": 0.7716535433070866,
          "duration": 0.125
        },
        {
          "name": "F4",
          "midi": 65,
          "time": 91.37499999999967,
          "velocity": 0.7716535433070866,
          "duration": 0.125
        },
        {
          "name": "A4",
          "midi": 69,
          "time": 91.49999999999967,
          "velocity": 0.7874015748031497,
          "duration": 0.25
        },
        {
          "name": "C5",
          "midi": 72,
          "time": 91.74999999999967,
          "velocity": 0.7874015748031497,
          "duration": 0.25
        },
        {
          "name": "C4",
          "midi": 60,
          "time": 92.24999999999967,
          "velocity": 0.7559055118110236,
          "duration": 0.0833333333333286
        },
        {
          "name": "F4",
          "midi": 65,
          "time": 92.24999999999967,
          "velocity": 0.7559055118110236,
          "duration": 0.05729166666665719
        },
        {
          "name": "A4",
          "midi": 69,
          "time": 92.24999999999967,
          "velocity": 0.7401574803149606,
          "duration": 0.052083333333328596
        },
        {
          "name": "C4",
          "midi": 60,
          "time": 92.37499999999967,
          "velocity": 0.7559055118110236,
          "duration": 0.06249999999998579
        },
        {
          "name": "F4",
          "midi": 65,
          "time": 92.37499999999967,
          "velocity": 0.7716535433070866,
          "duration": 0.05729166666665719
        },
        {
          "name": "A4",
          "midi": 69,
          "time": 92.37499999999967,
          "velocity": 0.7716535433070866,
          "duration": 0.052083333333328596
        },
        {
          "name": "C4",
          "midi": 60,
          "time": 92.74999999999966,
          "velocity": 0.7874015748031497,
          "duration": 0.05729166666665719
        },
        {
          "name": "F4",
          "midi": 65,
          "time": 92.74999999999966,
          "velocity": 0.7716535433070866,
          "duration": 0.052083333333328596
        },
        {
          "name": "A4",
          "midi": 69,
          "time": 92.74999999999966,
          "velocity": 0.7716535433070866,
          "duration": 0.05729166666665719
        },
        {
          "name": "F3",
          "midi": 53,
          "time": 93.24999999999964,
          "velocity": 0.7401574803149606,
          "duration": 0.05729166666665719
        },
        {
          "name": "A#3",
          "midi": 58,
          "time": 93.24999999999964,
          "velocity": 0.7401574803149606,
          "duration": 0.052083333333328596
        },
        {
          "name": "D4",
          "midi": 62,
          "time": 93.24999999999964,
          "velocity": 0.7559055118110236,
          "duration": 0.052083333333328596
        },
        {
          "name": "F3",
          "midi": 53,
          "time": 93.37499999999963,
          "velocity": 0.7401574803149606,
          "duration": 0.05729166666665719
        },
        {
          "name": "A#3",
          "midi": 58,
          "time": 93.37499999999963,
          "velocity": 0.7559055118110236,
          "duration": 0.052083333333328596
        },
        {
          "name": "D4",
          "midi": 62,
          "time": 93.37499999999963,
          "velocity": 0.7559055118110236,
          "duration": 0.052083333333328596
        },
        {
          "name": "F3",
          "midi": 53,
          "time": 93.74999999999962,
          "velocity": 0.7716535433070866,
          "duration": 0.0677083333333286
        },
        {
          "name": "A#3",
          "midi": 58,
          "time": 93.74999999999962,
          "velocity": 0.7716535433070866,
          "duration": 0.0625
        },
        {
          "name": "D4",
          "midi": 62,
          "time": 93.74999999999962,
          "velocity": 0.7559055118110236,
          "duration": 0.052083333333328596
        },
        {
          "name": "F3",
          "midi": 53,
          "time": 94.24999999999962,
          "velocity": 0.7401574803149606,
          "duration": 0.052083333333328596
        },
        {
          "name": "A#3",
          "midi": 58,
          "time": 94.24999999999962,
          "velocity": 0.7559055118110236,
          "duration": 0.052083333333328596
        },
        {
          "name": "D4",
          "midi": 62,
          "time": 94.24999999999962,
          "velocity": 0.7559055118110236,
          "duration": 0.052083333333328596
        },
        {
          "name": "F3",
          "midi": 53,
          "time": 94.37499999999962,
          "velocity": 0.7401574803149606,
          "duration": 0.0677083333333286
        },
        {
          "name": "A#3",
          "midi": 58,
          "time": 94.37499999999962,
          "velocity": 0.7559055118110236,
          "duration": 0.052083333333328596
        },
        {
          "name": "D4",
          "midi": 62,
          "time": 94.37499999999962,
          "velocity": 0.7716535433070866,
          "duration": 0.052083333333328596
        },
        {
          "name": "F3",
          "midi": 53,
          "time": 94.74999999999962,
          "velocity": 0.7874015748031497,
          "duration": 0.052083333333328596
        },
        {
          "name": "A#3",
          "midi": 58,
          "time": 94.74999999999962,
          "velocity": 0.7716535433070866,
          "duration": 0.052083333333328596
        },
        {
          "name": "D4",
          "midi": 62,
          "time": 94.74999999999962,
          "velocity": 0.7874015748031497,
          "duration": 0.052083333333328596
        },
        {
          "name": "E4",
          "midi": 64,
          "time": 94.99999999999962,
          "velocity": 0.7716535433070866,
          "duration": 0.3177083333333286
        },
        {
          "name": "C5",
          "midi": 72,
          "time": 94.99999999999962,
          "velocity": 0.7874015748031497,
          "duration": 0.9895833333333286
        },
        {
          "name": "G4",
          "midi": 67,
          "time": 95.24999999999962,
          "velocity": 0.7716535433070866,
          "duration": 0.7395833333333286
        },
        {
          "name": "E4",
          "midi": 64,
          "time": 95.49999999999962,
          "velocity": 0.7874015748031497,
          "duration": 0.4895833333333286
        },
        {
          "name": "A#3",
          "midi": 58,
          "time": 95.74999999999962,
          "velocity": 0.7874015748031497,
          "duration": 0.2395833333333286
        },
        {
          "name": "G3",
          "midi": 55,
          "time": 96.24999999999962,
          "velocity": 0.7559055118110236,
          "duration": 0.0833333333333286
        },
        {
          "name": "A#3",
          "midi": 58,
          "time": 96.24999999999962,
          "velocity": 0.7559055118110236,
          "duration": 0.05729166666665719
        },
        {
          "name": "E4",
          "midi": 64,
          "time": 96.24999999999962,
          "velocity": 0.7401574803149606,
          "duration": 0.052083333333328596
        },
        {
          "name": "G3",
          "midi": 55,
          "time": 96.37499999999962,
          "velocity": 0.7559055118110236,
          "duration": 0.06249999999998579
        },
        {
          "name": "A#3",
          "midi": 58,
          "time": 96.37499999999962,
          "velocity": 0.7716535433070866,
          "duration": 0.05729166666665719
        },
        {
          "name": "E4",
          "midi": 64,
          "time": 96.37499999999962,
          "velocity": 0.7716535433070866,
          "duration": 0.052083333333328596
        },
        {
          "name": "G3",
          "midi": 55,
          "time": 96.7499999999996,
          "velocity": 0.7874015748031497,
          "duration": 0.05729166666665719
        },
        {
          "name": "A#3",
          "midi": 58,
          "time": 96.7499999999996,
          "velocity": 0.7716535433070866,
          "duration": 0.052083333333328596
        },
        {
          "name": "E4",
          "midi": 64,
          "time": 96.7499999999996,
          "velocity": 0.7716535433070866,
          "duration": 0.05729166666665719
        },
        {
          "name": "C4",
          "midi": 60,
          "time": 97.24999999999959,
          "velocity": 0.7401574803149606,
          "duration": 0.05729166666665719
        },
        {
          "name": "F4",
          "midi": 65,
          "time": 97.24999999999959,
          "velocity": 0.7401574803149606,
          "duration": 0.052083333333328596
        },
        {
          "name": "A4",
          "midi": 69,
          "time": 97.24999999999959,
          "velocity": 0.7559055118110236,
          "duration": 0.052083333333328596
        },
        {
          "name": "C4",
          "midi": 60,
          "time": 97.37499999999957,
          "velocity": 0.7401574803149606,
          "duration": 0.05729166666665719
        },
        {
          "name": "F4",
          "midi": 65,
          "time": 97.37499999999957,
          "velocity": 0.7559055118110236,
          "duration": 0.052083333333328596
        },
        {
          "name": "A4",
          "midi": 69,
          "time": 97.37499999999957,
          "velocity": 0.7559055118110236,
          "duration": 0.052083333333328596
        },
        {
          "name": "C4",
          "midi": 60,
          "time": 97.74999999999956,
          "velocity": 0.7716535433070866,
          "duration": 0.0677083333333286
        },
        {
          "name": "F4",
          "midi": 65,
          "time": 97.74999999999956,
          "velocity": 0.7716535433070866,
          "duration": 0.0625
        },
        {
          "name": "A4",
          "midi": 69,
          "time": 97.74999999999956,
          "velocity": 0.7559055118110236,
          "duration": 0.052083333333328596
        },
        {
          "name": "C4",
          "midi": 60,
          "time": 98.24999999999956,
          "velocity": 0.7559055118110236,
          "duration": 0.0677083333333286
        },
        {
          "name": "F4",
          "midi": 65,
          "time": 98.24999999999956,
          "velocity": 0.7559055118110236,
          "duration": 0.05729166666665719
        },
        {
          "name": "A4",
          "midi": 69,
          "time": 98.24999999999956,
          "velocity": 0.7559055118110236,
          "duration": 0.052083333333328596
        },
        {
          "name": "C4",
          "midi": 60,
          "time": 98.37499999999956,
          "velocity": 0.7716535433070866,
          "duration": 0.0625
        },
        {
          "name": "F4",
          "midi": 65,
          "time": 98.37499999999956,
          "velocity": 0.7559055118110236,
          "duration": 0.052083333333328596
        },
        {
          "name": "A4",
          "midi": 69,
          "time": 98.37499999999956,
          "velocity": 0.7716535433070866,
          "duration": 0.052083333333328596
        },
        {
          "name": "C4",
          "midi": 60,
          "time": 98.74999999999956,
          "velocity": 0.7716535433070866,
          "duration": 0.06249999999998579
        },
        {
          "name": "F4",
          "midi": 65,
          "time": 98.74999999999956,
          "velocity": 0.7874015748031497,
          "duration": 0.05729166666665719
        },
        {
          "name": "A4",
          "midi": 69,
          "time": 98.74999999999956,
          "velocity": 0.7716535433070866,
          "duration": 0.052083333333328596
        },
        {
          "name": "C4",
          "midi": 60,
          "time": 99.24999999999955,
          "velocity": 0.7716535433070866,
          "duration": 0.125
        },
        {
          "name": "F4",
          "midi": 65,
          "time": 99.37499999999955,
          "velocity": 0.7716535433070866,
          "duration": 0.125
        },
        {
          "name": "A4",
          "midi": 69,
          "time": 99.49999999999955,
          "velocity": 0.7874015748031497,
          "duration": 0.25
        },
        {
          "name": "C5",
          "midi": 72,
          "time": 99.74999999999955,
          "velocity": 0.7874015748031497,
          "duration": 0.2395833333333286
        },
        {
          "name": "C4",
          "midi": 60,
          "time": 100.24999999999955,
          "velocity": 0.7559055118110236,
          "duration": 0.0833333333333286
        },
        {
          "name": "F4",
          "midi": 65,
          "time": 100.24999999999955,
          "velocity": 0.7559055118110236,
          "duration": 0.05729166666665719
        },
        {
          "name": "A4",
          "midi": 69,
          "time": 100.24999999999955,
          "velocity": 0.7401574803149606,
          "duration": 0.052083333333328596
        },
        {
          "name": "C4",
          "midi": 60,
          "time": 100.37499999999955,
          "velocity": 0.7559055118110236,
          "duration": 0.06249999999998579
        },
        {
          "name": "F4",
          "midi": 65,
          "time": 100.37499999999955,
          "velocity": 0.7716535433070866,
          "duration": 0.05729166666665719
        },
        {
          "name": "A4",
          "midi": 69,
          "time": 100.37499999999955,
          "velocity": 0.7716535433070866,
          "duration": 0.052083333333328596
        },
        {
          "name": "C4",
          "midi": 60,
          "time": 100.74999999999953,
          "velocity": 0.7874015748031497,
          "duration": 0.05729166666665719
        },
        {
          "name": "F4",
          "midi": 65,
          "time": 100.74999999999953,
          "velocity": 0.7716535433070866,
          "duration": 0.052083333333328596
        },
        {
          "name": "A4",
          "midi": 69,
          "time": 100.74999999999953,
          "velocity": 0.7716535433070866,
          "duration": 0.05729166666665719
        },
        {
          "name": "C4",
          "midi": 60,
          "time": 101.24999999999952,
          "velocity": 0.7401574803149606,
          "duration": 0.05729166666665719
        },
        {
          "name": "F4",
          "midi": 65,
          "time": 101.24999999999952,
          "velocity": 0.7401574803149606,
          "duration": 0.052083333333328596
        },
        {
          "name": "A4",
          "midi": 69,
          "time": 101.24999999999952,
          "velocity": 0.7559055118110236,
          "duration": 0.052083333333328596
        },
        {
          "name": "C4",
          "midi": 60,
          "time": 101.3749999999995,
          "velocity": 0.7401574803149606,
          "duration": 0.05729166666665719
        },
        {
          "name": "F4",
          "midi": 65,
          "time": 101.3749999999995,
          "velocity": 0.7559055118110236,
          "duration": 0.052083333333328596
        },
        {
          "name": "A4",
          "midi": 69,
          "time": 101.3749999999995,
          "velocity": 0.7559055118110236,
          "duration": 0.052083333333328596
        },
        {
          "name": "C4",
          "midi": 60,
          "time": 101.74999999999949,
          "velocity": 0.7716535433070866,
          "duration": 0.0677083333333286
        },
        {
          "name": "F4",
          "midi": 65,
          "time": 101.74999999999949,
          "velocity": 0.7716535433070866,
          "duration": 0.0625
        },
        {
          "name": "A4",
          "midi": 69,
          "time": 101.74999999999949,
          "velocity": 0.7559055118110236,
          "duration": 0.052083333333328596
        },
        {
          "name": "F3",
          "midi": 53,
          "time": 102.24999999999949,
          "velocity": 0.7559055118110236,
          "duration": 0.0677083333333286
        },
        {
          "name": "A#3",
          "midi": 58,
          "time": 102.24999999999949,
          "velocity": 0.7559055118110236,
          "duration": 0.05729166666665719
        },
        {
          "name": "D4",
          "midi": 62,
          "time": 102.24999999999949,
          "velocity": 0.7559055118110236,
          "duration": 0.052083333333328596
        },
        {
          "name": "F3",
          "midi": 53,
          "time": 102.37499999999949,
          "velocity": 0.7716535433070866,
          "duration": 0.0625
        },
        {
          "name": "A#3",
          "midi": 58,
          "time": 102.37499999999949,
          "velocity": 0.7559055118110236,
          "duration": 0.052083333333328596
        },
        {
          "name": "D4",
          "midi": 62,
          "time": 102.37499999999949,
          "velocity": 0.7716535433070866,
          "duration": 0.052083333333328596
        },
        {
          "name": "F3",
          "midi": 53,
          "time": 102.74999999999949,
          "velocity": 0.7716535433070866,
          "duration": 0.06249999999998579
        },
        {
          "name": "A#3",
          "midi": 58,
          "time": 102.74999999999949,
          "velocity": 0.7874015748031497,
          "duration": 0.05729166666665719
        },
        {
          "name": "D4",
          "midi": 62,
          "time": 102.74999999999949,
          "velocity": 0.7716535433070866,
          "duration": 0.052083333333328596
        },
        {
          "name": "C4",
          "midi": 60,
          "time": 103.24999999999947,
          "velocity": 0.7716535433070866,
          "duration": 0.125
        },
        {
          "name": "F4",
          "midi": 65,
          "time": 103.37499999999947,
          "velocity": 0.7716535433070866,
          "duration": 0.125
        },
        {
          "name": "A4",
          "midi": 69,
          "time": 103.49999999999947,
          "velocity": 0.7874015748031497,
          "duration": 0.25
        },
        {
          "name": "C5",
          "midi": 72,
          "time": 103.74999999999947,
          "velocity": 0.7874015748031497,
          "duration": 0.25
        },
        {
          "name": "D4",
          "midi": 62,
          "time": 104.24999999999947,
          "velocity": 0.7559055118110236,
          "duration": 0.0833333333333286
        },
        {
          "name": "G4",
          "midi": 67,
          "time": 104.24999999999947,
          "velocity": 0.7559055118110236,
          "duration": 0.05729166666665719
        },
        {
          "name": "B4",
          "midi": 71,
          "time": 104.24999999999947,
          "velocity": 0.7401574803149606,
          "duration": 0.052083333333328596
        },
        {
          "name": "D4",
          "midi": 62,
          "time": 104.37499999999947,
          "velocity": 0.7559055118110236,
          "duration": 0.06249999999998579
        },
        {
          "name": "G4",
          "midi": 67,
          "time": 104.37499999999947,
          "velocity": 0.7716535433070866,
          "duration": 0.05729166666665719
        },
        {
          "name": "B4",
          "midi": 71,
          "time": 104.37499999999947,
          "velocity": 0.7716535433070866,
          "duration": 0.052083333333328596
        },
        {
          "name": "D4",
          "midi": 62,
          "time": 104.74999999999946,
          "velocity": 0.7874015748031497,
          "duration": 0.05729166666665719
        },
        {
          "name": "G4",
          "midi": 67,
          "time": 104.74999999999946,
          "velocity": 0.7716535433070866,
          "duration": 0.052083333333328596
        },
        {
          "name": "B4",
          "midi": 71,
          "time": 104.74999999999946,
          "velocity": 0.7716535433070866,
          "duration": 0.05729166666665719
        },
        {
          "name": "G3",
          "midi": 55,
          "time": 105.24999999999945,
          "velocity": 0.7401574803149606,
          "duration": 0.05729166666665719
        },
        {
          "name": "A#3",
          "midi": 58,
          "time": 105.24999999999945,
          "velocity": 0.7401574803149606,
          "duration": 0.052083333333328596
        },
        {
          "name": "E4",
          "midi": 64,
          "time": 105.24999999999945,
          "velocity": 0.7559055118110236,
          "duration": 0.052083333333328596
        },
        {
          "name": "G3",
          "midi": 55,
          "time": 105.37499999999943,
          "velocity": 0.7401574803149606,
          "duration": 0.05729166666665719
        },
        {
          "name": "A#3",
          "midi": 58,
          "time": 105.37499999999943,
          "velocity": 0.7559055118110236,
          "duration": 0.052083333333328596
        },
        {
          "name": "E4",
          "midi": 64,
          "time": 105.37499999999943,
          "velocity": 0.7559055118110236,
          "duration": 0.052083333333328596
        },
        {
          "name": "G3",
          "midi": 55,
          "time": 105.74999999999942,
          "velocity": 0.7716535433070866,
          "duration": 0.0677083333333286
        },
        {
          "name": "A#3",
          "midi": 58,
          "time": 105.74999999999942,
          "velocity": 0.7716535433070866,
          "duration": 0.0625
        },
        {
          "name": "E4",
          "midi": 64,
          "time": 105.74999999999942,
          "velocity": 0.7559055118110236,
          "duration": 0.052083333333328596
        },
        {
          "name": "C4",
          "midi": 60,
          "time": 106.24999999999942,
          "velocity": 0.7559055118110236,
          "duration": 0.0677083333333286
        },
        {
          "name": "F4",
          "midi": 65,
          "time": 106.24999999999942,
          "velocity": 0.7559055118110236,
          "duration": 0.05729166666665719
        },
        {
          "name": "A4",
          "midi": 69,
          "time": 106.24999999999942,
          "velocity": 0.7559055118110236,
          "duration": 0.052083333333328596
        },
        {
          "name": "C4",
          "midi": 60,
          "time": 106.37499999999942,
          "velocity": 0.7716535433070866,
          "duration": 0.0625
        },
        {
          "name": "F4",
          "midi": 65,
          "time": 106.37499999999942,
          "velocity": 0.7559055118110236,
          "duration": 0.052083333333328596
        },
        {
          "name": "A4",
          "midi": 69,
          "time": 106.37499999999942,
          "velocity": 0.7716535433070866,
          "duration": 0.052083333333328596
        },
        {
          "name": "C4",
          "midi": 60,
          "time": 106.74999999999942,
          "velocity": 0.7716535433070866,
          "duration": 0.06249999999998579
        },
        {
          "name": "F4",
          "midi": 65,
          "time": 106.74999999999942,
          "velocity": 0.7874015748031497,
          "duration": 0.05729166666665719
        },
        {
          "name": "A4",
          "midi": 69,
          "time": 106.74999999999942,
          "velocity": 0.7716535433070866,
          "duration": 0.052083333333328596
        },
        {
          "name": "C4",
          "midi": 60,
          "time": 107.2499999999994,
          "velocity": 0.7716535433070866,
          "duration": 0.125
        },
        {
          "name": "F4",
          "midi": 65,
          "time": 107.3749999999994,
          "velocity": 0.7716535433070866,
          "duration": 0.125
        },
        {
          "name": "A4",
          "midi": 69,
          "time": 107.4999999999994,
          "velocity": 0.7874015748031497,
          "duration": 0.25
        },
        {
          "name": "C5",
          "midi": 72,
          "time": 107.7499999999994,
          "velocity": 0.7874015748031497,
          "duration": 0.2395833333333286
        },
        {
          "name": "C4",
          "midi": 60,
          "time": 108.2499999999994,
          "velocity": 0.7559055118110236,
          "duration": 0.0833333333333286
        },
        {
          "name": "F4",
          "midi": 65,
          "time": 108.2499999999994,
          "velocity": 0.7559055118110236,
          "duration": 0.05729166666665719
        },
        {
          "name": "A4",
          "midi": 69,
          "time": 108.2499999999994,
          "velocity": 0.7401574803149606,
          "duration": 0.052083333333328596
        },
        {
          "name": "C4",
          "midi": 60,
          "time": 108.3749999999994,
          "velocity": 0.7559055118110236,
          "duration": 0.06249999999998579
        },
        {
          "name": "F4",
          "midi": 65,
          "time": 108.3749999999994,
          "velocity": 0.7716535433070866,
          "duration": 0.05729166666665719
        },
        {
          "name": "A4",
          "midi": 69,
          "time": 108.3749999999994,
          "velocity": 0.7716535433070866,
          "duration": 0.052083333333328596
        },
        {
          "name": "C4",
          "midi": 60,
          "time": 108.74999999999939,
          "velocity": 0.7874015748031497,
          "duration": 0.05729166666665719
        },
        {
          "name": "F4",
          "midi": 65,
          "time": 108.74999999999939,
          "velocity": 0.7716535433070866,
          "duration": 0.052083333333328596
        },
        {
          "name": "A4",
          "midi": 69,
          "time": 108.74999999999939,
          "velocity": 0.7716535433070866,
          "duration": 0.05729166666665719
        },
        {
          "name": "C4",
          "midi": 60,
          "time": 109.24999999999937,
          "velocity": 0.7401574803149606,
          "duration": 0.05729166666665719
        },
        {
          "name": "F4",
          "midi": 65,
          "time": 109.24999999999937,
          "velocity": 0.7401574803149606,
          "duration": 0.052083333333328596
        },
        {
          "name": "A4",
          "midi": 69,
          "time": 109.24999999999937,
          "velocity": 0.7559055118110236,
          "duration": 0.052083333333328596
        },
        {
          "name": "C4",
          "midi": 60,
          "time": 109.37499999999936,
          "velocity": 0.7401574803149606,
          "duration": 0.05729166666665719
        },
        {
          "name": "F4",
          "midi": 65,
          "time": 109.37499999999936,
          "velocity": 0.7559055118110236,
          "duration": 0.052083333333328596
        },
        {
          "name": "A4",
          "midi": 69,
          "time": 109.37499999999936,
          "velocity": 0.7559055118110236,
          "duration": 0.052083333333328596
        },
        {
          "name": "C4",
          "midi": 60,
          "time": 109.74999999999935,
          "velocity": 0.7716535433070866,
          "duration": 0.0677083333333286
        },
        {
          "name": "F4",
          "midi": 65,
          "time": 109.74999999999935,
          "velocity": 0.7716535433070866,
          "duration": 0.0625
        },
        {
          "name": "A4",
          "midi": 69,
          "time": 109.74999999999935,
          "velocity": 0.7559055118110236,
          "duration": 0.052083333333328596
        },
        {
          "name": "F3",
          "midi": 53,
          "time": 110.24999999999935,
          "velocity": 0.7559055118110236,
          "duration": 0.0677083333333286
        },
        {
          "name": "A#3",
          "midi": 58,
          "time": 110.24999999999935,
          "velocity": 0.7559055118110236,
          "duration": 0.05729166666665719
        },
        {
          "name": "D4",
          "midi": 62,
          "time": 110.24999999999935,
          "velocity": 0.7559055118110236,
          "duration": 0.052083333333328596
        },
        {
          "name": "F3",
          "midi": 53,
          "time": 110.37499999999935,
          "velocity": 0.7716535433070866,
          "duration": 0.0625
        },
        {
          "name": "A#3",
          "midi": 58,
          "time": 110.37499999999935,
          "velocity": 0.7559055118110236,
          "duration": 0.052083333333328596
        },
        {
          "name": "D4",
          "midi": 62,
          "time": 110.37499999999935,
          "velocity": 0.7716535433070866,
          "duration": 0.052083333333328596
        },
        {
          "name": "F3",
          "midi": 53,
          "time": 110.74999999999935,
          "velocity": 0.7716535433070866,
          "duration": 0.06249999999998579
        },
        {
          "name": "A#3",
          "midi": 58,
          "time": 110.74999999999935,
          "velocity": 0.7874015748031497,
          "duration": 0.05729166666665719
        },
        {
          "name": "D4",
          "midi": 62,
          "time": 110.74999999999935,
          "velocity": 0.7716535433070866,
          "duration": 0.052083333333328596
        },
        {
          "name": "C4",
          "midi": 60,
          "time": 111.24999999999933,
          "velocity": 0.7716535433070866,
          "duration": 0.125
        },
        {
          "name": "F4",
          "midi": 65,
          "time": 111.37499999999933,
          "velocity": 0.7716535433070866,
          "duration": 0.125
        },
        {
          "name": "A4",
          "midi": 69,
          "time": 111.49999999999933,
          "velocity": 0.7874015748031497,
          "duration": 0.25
        },
        {
          "name": "C5",
          "midi": 72,
          "time": 111.74999999999933,
          "velocity": 0.7874015748031497,
          "duration": 0.25
        },
        {
          "name": "G3",
          "midi": 55,
          "time": 112.24999999999933,
          "velocity": 0.7559055118110236,
          "duration": 0.0833333333333286
        },
        {
          "name": "A#3",
          "midi": 58,
          "time": 112.24999999999933,
          "velocity": 0.7559055118110236,
          "duration": 0.05729166666665719
        },
        {
          "name": "E4",
          "midi": 64,
          "time": 112.24999999999933,
          "velocity": 0.7401574803149606,
          "duration": 0.052083333333328596
        },
        {
          "name": "G3",
          "midi": 55,
          "time": 112.37499999999933,
          "velocity": 0.7559055118110236,
          "duration": 0.06249999999998579
        },
        {
          "name": "A#3",
          "midi": 58,
          "time": 112.37499999999933,
          "velocity": 0.7716535433070866,
          "duration": 0.05729166666665719
        },
        {
          "name": "E4",
          "midi": 64,
          "time": 112.37499999999933,
          "velocity": 0.7716535433070866,
          "duration": 0.052083333333328596
        },
        {
          "name": "G3",
          "midi": 55,
          "time": 112.74999999999932,
          "velocity": 0.7874015748031497,
          "duration": 0.05729166666665719
        },
        {
          "name": "A#3",
          "midi": 58,
          "time": 112.74999999999932,
          "velocity": 0.7716535433070866,
          "duration": 0.052083333333328596
        },
        {
          "name": "E4",
          "midi": 64,
          "time": 112.74999999999932,
          "velocity": 0.7716535433070866,
          "duration": 0.05729166666665719
        },
        {
          "name": "G3",
          "midi": 55,
          "time": 113.2499999999993,
          "velocity": 0.7401574803149606,
          "duration": 0.05729166666665719
        },
        {
          "name": "A#3",
          "midi": 58,
          "time": 113.2499999999993,
          "velocity": 0.7401574803149606,
          "duration": 0.052083333333328596
        },
        {
          "name": "E4",
          "midi": 64,
          "time": 113.2499999999993,
          "velocity": 0.7559055118110236,
          "duration": 0.052083333333328596
        },
        {
          "name": "G3",
          "midi": 55,
          "time": 113.37499999999929,
          "velocity": 0.7401574803149606,
          "duration": 0.05729166666665719
        },
        {
          "name": "A#3",
          "midi": 58,
          "time": 113.37499999999929,
          "velocity": 0.7559055118110236,
          "duration": 0.052083333333328596
        },
        {
          "name": "E4",
          "midi": 64,
          "time": 113.37499999999929,
          "velocity": 0.7559055118110236,
          "duration": 0.052083333333328596
        },
        {
          "name": "G3",
          "midi": 55,
          "time": 113.74999999999928,
          "velocity": 0.7716535433070866,
          "duration": 0.0677083333333286
        },
        {
          "name": "A#3",
          "midi": 58,
          "time": 113.74999999999928,
          "velocity": 0.7716535433070866,
          "duration": 0.0625
        },
        {
          "name": "E4",
          "midi": 64,
          "time": 113.74999999999928,
          "velocity": 0.7559055118110236,
          "duration": 0.052083333333328596
        },
        {
          "name": "C4",
          "midi": 60,
          "time": 114.24999999999928,
          "velocity": 0.7401574803149606,
          "duration": 0.05729166666665719
        },
        {
          "name": "F4",
          "midi": 65,
          "time": 114.24999999999928,
          "velocity": 0.7559055118110236,
          "duration": 0.05729166666665719
        },
        {
          "name": "A4",
          "midi": 69,
          "time": 114.24999999999928,
          "velocity": 0.7401574803149606,
          "duration": 0.052083333333328596
        },
        {
          "name": "C4",
          "midi": 60,
          "time": 114.37499999999926,
          "velocity": 0.7559055118110236,
          "duration": 0.0625
        },
        {
          "name": "F4",
          "midi": 65,
          "time": 114.37499999999926,
          "velocity": 0.7559055118110236,
          "duration": 0.052083333333328596
        },
        {
          "name": "A4",
          "midi": 69,
          "time": 114.37499999999926,
          "velocity": 0.7716535433070866,
          "duration": 0.052083333333328596
        },
        {
          "name": "C4",
          "midi": 60,
          "time": 114.74999999999926,
          "velocity": 0.7559055118110236,
          "duration": 0.052083333333328596
        },
        {
          "name": "F4",
          "midi": 65,
          "time": 114.74999999999926,
          "velocity": 0.7559055118110236,
          "duration": 0.052083333333328596
        },
        {
          "name": "A4",
          "midi": 69,
          "time": 114.74999999999926,
          "velocity": 0.7401574803149606,
          "duration": 0.052083333333328596
        },
        {
          "name": "C5",
          "midi": 72,
          "time": 114.99999999999926,
          "velocity": 0.7401574803149606,
          "duration": 1
        },
        {
          "name": "F5",
          "midi": 77,
          "time": 114.99999999999926,
          "velocity": 0.7874015748031497,
          "duration": 0.25
        },
        {
          "name": "A4",
          "midi": 69,
          "time": 115.24999999999926,
          "velocity": 0.7874015748031497,
          "duration": 0.75
        },
        {
          "name": "F4",
          "midi": 65,
          "time": 115.49999999999926,
          "velocity": 0.7874015748031497,
          "duration": 0.5
        },
        {
          "name": "C4",
          "midi": 60,
          "time": 115.74999999999926,
          "velocity": 0.7716535433070866,
          "duration": 0.25
        },
        {
          "name": "C4",
          "midi": 60,
          "time": 116.24999999999926,
          "velocity": 0.7559055118110236,
          "duration": 0.052083333333328596
        },
        {
          "name": "F4",
          "midi": 65,
          "time": 116.24999999999926,
          "velocity": 0.7716535433070866,
          "duration": 0.052083333333328596
        },
        {
          "name": "A4",
          "midi": 69,
          "time": 116.24999999999926,
          "velocity": 0.7874015748031497,
          "duration": 0.052083333333328596
        },
        {
          "name": "C4",
          "midi": 60,
          "time": 116.74999999999926,
          "velocity": 0.7559055118110236,
          "duration": 0.052083333333328596
        },
        {
          "name": "F4",
          "midi": 65,
          "time": 116.74999999999926,
          "velocity": 0.7716535433070866,
          "duration": 0.052083333333328596
        },
        {
          "name": "A4",
          "midi": 69,
          "time": 116.74999999999926,
          "velocity": 0.7874015748031497,
          "duration": 0.052083333333328596
        },
        {
          "name": "C4",
          "midi": 60,
          "time": 117.24999999999926,
          "velocity": 0.7874015748031497,
          "duration": 0.052083333333328596
        },
        {
          "name": "E4",
          "midi": 64,
          "time": 117.24999999999926,
          "velocity": 0.7716535433070866,
          "duration": 0.052083333333328596
        },
        {
          "name": "G4",
          "midi": 67,
          "time": 117.24999999999926,
          "velocity": 0.7874015748031497,
          "duration": 0.052083333333328596
        },
        {
          "name": "C4",
          "midi": 60,
          "time": 117.74999999999926,
          "velocity": 0.7874015748031497,
          "duration": 0.052083333333328596
        },
        {
          "name": "E4",
          "midi": 64,
          "time": 117.74999999999926,
          "velocity": 0.7716535433070866,
          "duration": 0.052083333333328596
        },
        {
          "name": "G4",
          "midi": 67,
          "time": 117.74999999999926,
          "velocity": 0.7874015748031497,
          "duration": 0.052083333333328596
        },
        {
          "name": "C4",
          "midi": 60,
          "time": 118.24999999999926,
          "velocity": 0.7559055118110236,
          "duration": 0.052083333333328596
        },
        {
          "name": "F4",
          "midi": 65,
          "time": 118.24999999999926,
          "velocity": 0.7716535433070866,
          "duration": 0.052083333333328596
        },
        {
          "name": "A4",
          "midi": 69,
          "time": 118.24999999999926,
          "velocity": 0.7874015748031497,
          "duration": 0.052083333333328596
        },
        {
          "name": "C4",
          "midi": 60,
          "time": 118.74999999999926,
          "velocity": 0.7874015748031497,
          "duration": 0.052083333333328596
        },
        {
          "name": "E4",
          "midi": 64,
          "time": 118.74999999999926,
          "velocity": 0.7716535433070866,
          "duration": 0.052083333333328596
        },
        {
          "name": "G4",
          "midi": 67,
          "time": 118.74999999999926,
          "velocity": 0.7874015748031497,
          "duration": 0.052083333333328596
        },
        {
          "name": "C4",
          "midi": 60,
          "time": 118.99999999999926,
          "velocity": 0.7559055118110236,
          "duration": 0.052083333333328596
        },
        {
          "name": "F4",
          "midi": 65,
          "time": 118.99999999999926,
          "velocity": 0.7716535433070866,
          "duration": 0.052083333333328596
        },
        {
          "name": "A4",
          "midi": 69,
          "time": 118.99999999999926,
          "velocity": 0.7874015748031497,
          "duration": 0.052083333333328596
        },
        {
          "name": "C4",
          "midi": 60,
          "time": 119.24999999999926,
          "velocity": 0.7559055118110236,
          "duration": 0.052083333333328596
        },
        {
          "name": "F4",
          "midi": 65,
          "time": 119.24999999999926,
          "velocity": 0.7716535433070866,
          "duration": 0.052083333333328596
        },
        {
          "name": "A4",
          "midi": 69,
          "time": 119.24999999999926,
          "velocity": 0.7874015748031497,
          "duration": 0.052083333333328596
        },
        {
          "name": "C4",
          "midi": 60,
          "time": 119.37499999999926,
          "velocity": 0.7559055118110236,
          "duration": 0.052083333333328596
        },
        {
          "name": "F4",
          "midi": 65,
          "time": 119.37499999999926,
          "velocity": 0.7716535433070866,
          "duration": 0.052083333333328596
        },
        {
          "name": "A4",
          "midi": 69,
          "time": 119.37499999999926,
          "velocity": 0.7874015748031497,
          "duration": 0.052083333333328596
        },
        {
          "name": "C4",
          "midi": 60,
          "time": 119.49999999999926,
          "velocity": 0.7559055118110236,
          "duration": 0.052083333333328596
        },
        {
          "name": "F4",
          "midi": 65,
          "time": 119.49999999999926,
          "velocity": 0.7716535433070866,
          "duration": 0.052083333333328596
        },
        {
          "name": "A4",
          "midi": 69,
          "time": 119.49999999999926,
          "velocity": 0.7874015748031497,
          "duration": 0.052083333333328596
        }
      ],
      "controlChanges": {
        "7": [
          {
            "number": 7,
            "time": 0.6197916666666667,
            "value": 0.7480314960629921
          }
        ],
        "10": [
          {
            "number": 10,
            "time": 0.6197916666666667,
            "value": 0.8346456692913385
          }
        ],
        "32": [
          {
            "number": 32,
            "time": 0.609375,
            "value": 0
          }
        ],
        "91": [
          {
            "number": 91,
            "time": 2,
            "value": 0.6141732283464567
          }
        ],
        "93": [
          {
            "number": 93,
            "time": 2,
            "value": 0.6141732283464567
          }
        ]
      },
      "id": 6,
      "name": "Escondido, CA",
      "instrumentNumber": 57,
      "instrument": "trombone",
      "instrumentFamily": "brass",
      "channelNumber": 4,
      "isPercussion": false
    },
    {
      "startTime": 2,
      "duration": 119.55729166666642,
      "length": 886,
      "notes": [
        {
          "name": "F3",
          "midi": 53,
          "time": 2,
          "velocity": 0.8661417322834646,
          "duration": 0.43229166666666696
        },
        {
          "name": "A3",
          "midi": 57,
          "time": 2,
          "velocity": 0.8503937007874016,
          "duration": 0.4114583333333335
        },
        {
          "name": "A3",
          "midi": 57,
          "time": 2.5000000000000004,
          "velocity": 0.8503937007874016,
          "duration": 0.4583333333333335
        },
        {
          "name": "C4",
          "midi": 60,
          "time": 2.5000000000000004,
          "velocity": 0.8661417322834646,
          "duration": 0.47916666666666696
        },
        {
          "name": "F3",
          "midi": 53,
          "time": 3.000000000000001,
          "velocity": 0.8503937007874016,
          "duration": 0.453125
        },
        {
          "name": "A3",
          "midi": 57,
          "time": 3.000000000000001,
          "velocity": 0.8503937007874016,
          "duration": 0.4270833333333335
        },
        {
          "name": "A3",
          "midi": 57,
          "time": 3.500000000000001,
          "velocity": 0.8503937007874016,
          "duration": 0.4479166666666665
        },
        {
          "name": "C4",
          "midi": 60,
          "time": 3.500000000000001,
          "velocity": 0.8661417322834646,
          "duration": 0.45833333333333304
        },
        {
          "name": "F3",
          "midi": 53,
          "time": 4.000000000000001,
          "velocity": 0.8503937007874016,
          "duration": 0.4375
        },
        {
          "name": "A3",
          "midi": 57,
          "time": 4.000000000000001,
          "velocity": 0.8503937007874016,
          "duration": 0.421875
        },
        {
          "name": "A3",
          "midi": 57,
          "time": 4.500000000000001,
          "velocity": 0.8503937007874016,
          "duration": 0.41666666666666696
        },
        {
          "name": "C4",
          "midi": 60,
          "time": 4.500000000000001,
          "velocity": 0.8503937007874016,
          "duration": 0.44791666666666696
        },
        {
          "name": "A3",
          "midi": 57,
          "time": 5.000000000000001,
          "velocity": 0.8661417322834646,
          "duration": 0.05208333333333304
        },
        {
          "name": "F4",
          "midi": 65,
          "time": 5.000000000000001,
          "velocity": 0.8661417322834646,
          "duration": 0.05208333333333304
        },
        {
          "name": "A3",
          "midi": 57,
          "time": 5.250000000000001,
          "velocity": 0.8661417322834646,
          "duration": 0.05208333333333304
        },
        {
          "name": "F4",
          "midi": 65,
          "time": 5.250000000000001,
          "velocity": 0.8661417322834646,
          "duration": 0.05208333333333304
        },
        {
          "name": "A3",
          "midi": 57,
          "time": 5.375000000000001,
          "velocity": 0.8503937007874016,
          "duration": 0.057291666666666075
        },
        {
          "name": "F4",
          "midi": 65,
          "time": 5.375000000000001,
          "velocity": 0.8661417322834646,
          "duration": 0.05208333333333304
        },
        {
          "name": "A3",
          "midi": 57,
          "time": 5.5,
          "velocity": 0.8503937007874016,
          "duration": 0.05208333333333304
        },
        {
          "name": "F4",
          "midi": 65,
          "time": 5.5,
          "velocity": 0.8661417322834646,
          "duration": 0.057291666666666075
        },
        {
          "name": "C4",
          "midi": 60,
          "time": 5.624999999999999,
          "velocity": 0.8661417322834646,
          "duration": 0.07291666666666696
        },
        {
          "name": "A3",
          "midi": 57,
          "time": 5.749999999999999,
          "velocity": 0.8661417322834646,
          "duration": 0.06770833333333304
        },
        {
          "name": "F3",
          "midi": 53,
          "time": 5.874999999999999,
          "velocity": 0.8661417322834646,
          "duration": 0.05208333333333304
        },
        {
          "name": "F3",
          "midi": 53,
          "time": 5.999999999999999,
          "velocity": 0.8661417322834646,
          "duration": 0.4322916666666661
        },
        {
          "name": "A3",
          "midi": 57,
          "time": 5.999999999999999,
          "velocity": 0.8503937007874016,
          "duration": 0.41145833333333304
        },
        {
          "name": "A3",
          "midi": 57,
          "time": 6.499999999999998,
          "velocity": 0.8503937007874016,
          "duration": 0.45833333333333304
        },
        {
          "name": "C4",
          "midi": 60,
          "time": 6.499999999999998,
          "velocity": 0.8661417322834646,
          "duration": 0.4791666666666661
        },
        {
          "name": "F3",
          "midi": 53,
          "time": 6.999999999999997,
          "velocity": 0.8503937007874016,
          "duration": 0.453125
        },
        {
          "name": "A3",
          "midi": 57,
          "time": 6.999999999999997,
          "velocity": 0.8503937007874016,
          "duration": 0.42708333333333304
        },
        {
          "name": "A3",
          "midi": 57,
          "time": 7.499999999999997,
          "velocity": 0.8503937007874016,
          "duration": 0.44791666666666696
        },
        {
          "name": "C4",
          "midi": 60,
          "time": 7.499999999999997,
          "velocity": 0.8661417322834646,
          "duration": 0.4583333333333339
        },
        {
          "name": "F3",
          "midi": 53,
          "time": 7.999999999999998,
          "velocity": 0.8661417322834646,
          "duration": 0.4375
        },
        {
          "name": "A3",
          "midi": 57,
          "time": 7.999999999999998,
          "velocity": 0.8503937007874016,
          "duration": 0.4270833333333339
        },
        {
          "name": "A3",
          "midi": 57,
          "time": 8.499999999999998,
          "velocity": 0.8661417322834646,
          "duration": 0.4427083333333339
        },
        {
          "name": "C4",
          "midi": 60,
          "time": 8.499999999999998,
          "velocity": 0.8661417322834646,
          "duration": 0.421875
        },
        {
          "name": "C4",
          "midi": 60,
          "time": 8.999999999999998,
          "velocity": 0.8661417322834646,
          "duration": 0.052083333333333925
        },
        {
          "name": "A4",
          "midi": 69,
          "time": 8.999999999999998,
          "velocity": 0.8661417322834646,
          "duration": 0.052083333333333925
        },
        {
          "name": "C4",
          "midi": 60,
          "time": 9.249999999999998,
          "velocity": 0.8661417322834646,
          "duration": 0.052083333333333925
        },
        {
          "name": "A4",
          "midi": 69,
          "time": 9.249999999999998,
          "velocity": 0.8661417322834646,
          "duration": 0.052083333333333925
        },
        {
          "name": "C4",
          "midi": 60,
          "time": 9.374999999999998,
          "velocity": 0.8661417322834646,
          "duration": 0.052083333333333925
        },
        {
          "name": "A4",
          "midi": 69,
          "time": 9.374999999999998,
          "velocity": 0.8661417322834646,
          "duration": 0.052083333333333925
        },
        {
          "name": "C4",
          "midi": 60,
          "time": 9.499999999999998,
          "velocity": 0.8503937007874016,
          "duration": 0.0625
        },
        {
          "name": "A4",
          "midi": 69,
          "time": 9.499999999999998,
          "velocity": 0.8661417322834646,
          "duration": 0.078125
        },
        {
          "name": "F4",
          "midi": 65,
          "time": 9.624999999999998,
          "velocity": 0.8661417322834646,
          "duration": 0.0625
        },
        {
          "name": "C4",
          "midi": 60,
          "time": 9.749999999999998,
          "velocity": 0.8661417322834646,
          "duration": 0.078125
        },
        {
          "name": "A3",
          "midi": 57,
          "time": 9.874999999999998,
          "velocity": 0.8661417322834646,
          "duration": 0.052083333333333925
        },
        {
          "name": "F3",
          "midi": 53,
          "time": 9.999999999999998,
          "velocity": 0.8661417322834646,
          "duration": 0.43229166666666785
        },
        {
          "name": "A3",
          "midi": 57,
          "time": 9.999999999999998,
          "velocity": 0.8503937007874016,
          "duration": 0.4114583333333339
        },
        {
          "name": "A3",
          "midi": 57,
          "time": 10.5,
          "velocity": 0.8503937007874016,
          "duration": 0.4583333333333339
        },
        {
          "name": "C4",
          "midi": 60,
          "time": 10.5,
          "velocity": 0.8661417322834646,
          "duration": 0.47916666666666785
        },
        {
          "name": "F3",
          "midi": 53,
          "time": 11.000000000000002,
          "velocity": 0.8503937007874016,
          "duration": 0.453125
        },
        {
          "name": "A3",
          "midi": 57,
          "time": 11.000000000000002,
          "velocity": 0.8503937007874016,
          "duration": 0.4270833333333339
        },
        {
          "name": "A3",
          "midi": 57,
          "time": 11.500000000000002,
          "velocity": 0.8503937007874016,
          "duration": 0.4479166666666661
        },
        {
          "name": "C4",
          "midi": 60,
          "time": 11.500000000000002,
          "velocity": 0.8661417322834646,
          "duration": 0.45833333333333215
        },
        {
          "name": "F3",
          "midi": 53,
          "time": 12,
          "velocity": 0.8661417322834646,
          "duration": 0.4479166666666661
        },
        {
          "name": "A3",
          "midi": 57,
          "time": 12,
          "velocity": 0.8661417322834646,
          "duration": 0.4166666666666661
        },
        {
          "name": "A3",
          "midi": 57,
          "time": 12.5,
          "velocity": 0.8503937007874016,
          "duration": 0.5729166666666661
        },
        {
          "name": "C4",
          "midi": 60,
          "time": 12.5,
          "velocity": 0.8661417322834646,
          "duration": 0.5572916666666661
        },
        {
          "name": "F3",
          "midi": 53,
          "time": 13.125,
          "velocity": 0.8661417322834646,
          "duration": 0.09375
        },
        {
          "name": "A3",
          "midi": 57,
          "time": 13.25,
          "velocity": 0.8661417322834646,
          "duration": 0.08854166666666607
        },
        {
          "name": "C4",
          "midi": 60,
          "time": 13.375,
          "velocity": 0.8661417322834646,
          "duration": 0.078125
        },
        {
          "name": "A3",
          "midi": 57,
          "time": 13.5,
          "velocity": 0.8661417322834646,
          "duration": 0.08333333333333393
        },
        {
          "name": "C4",
          "midi": 60,
          "time": 13.625,
          "velocity": 0.8661417322834646,
          "duration": 0.09375
        },
        {
          "name": "F4",
          "midi": 65,
          "time": 13.75,
          "velocity": 0.8661417322834646,
          "duration": 0.09375
        },
        {
          "name": "C4",
          "midi": 60,
          "time": 13.875,
          "velocity": 0.8661417322834646,
          "duration": 0.052083333333333925
        },
        {
          "name": "F3",
          "midi": 53,
          "time": 14,
          "velocity": 0.8661417322834646,
          "duration": 0.43229166666666785
        },
        {
          "name": "A3",
          "midi": 57,
          "time": 14,
          "velocity": 0.8503937007874016,
          "duration": 0.4114583333333339
        },
        {
          "name": "A3",
          "midi": 57,
          "time": 14.500000000000002,
          "velocity": 0.8503937007874016,
          "duration": 0.4583333333333339
        },
        {
          "name": "C4",
          "midi": 60,
          "time": 14.500000000000002,
          "velocity": 0.8661417322834646,
          "duration": 0.47916666666666785
        },
        {
          "name": "A#3",
          "midi": 58,
          "time": 15.000000000000004,
          "velocity": 0.8503937007874016,
          "duration": 0.453125
        },
        {
          "name": "D4",
          "midi": 62,
          "time": 15.000000000000004,
          "velocity": 0.8503937007874016,
          "duration": 0.4270833333333339
        },
        {
          "name": "D4",
          "midi": 62,
          "time": 15.500000000000004,
          "velocity": 0.8503937007874016,
          "duration": 0.4479166666666661
        },
        {
          "name": "F4",
          "midi": 65,
          "time": 15.500000000000004,
          "velocity": 0.8661417322834646,
          "duration": 0.45833333333333215
        },
        {
          "name": "F4",
          "midi": 65,
          "time": 16.000000000000004,
          "velocity": 0.8661417322834646,
          "duration": 0.203125
        },
        {
          "name": "D5",
          "midi": 74,
          "time": 16.000000000000004,
          "velocity": 0.8661417322834646,
          "duration": 0.19270833333333215
        },
        {
          "name": "D4",
          "midi": 62,
          "time": 16.250000000000004,
          "velocity": 0.8661417322834646,
          "duration": 0.0572916666666643
        },
        {
          "name": "A#4",
          "midi": 70,
          "time": 16.250000000000004,
          "velocity": 0.8661417322834646,
          "duration": 0.05208333333333215
        },
        {
          "name": "D4",
          "midi": 62,
          "time": 16.5,
          "velocity": 0.8661417322834646,
          "duration": 0.18229166666666785
        },
        {
          "name": "A#4",
          "midi": 70,
          "time": 16.5,
          "velocity": 0.8661417322834646,
          "duration": 0.15625
        },
        {
          "name": "D4",
          "midi": 62,
          "time": 16.75,
          "velocity": 0.8188976377952756,
          "duration": 0.05208333333333215
        },
        {
          "name": "F4",
          "midi": 65,
          "time": 16.75,
          "velocity": 0.8188976377952756,
          "duration": 0.05208333333333215
        },
        {
          "name": "D4",
          "midi": 62,
          "time": 16.875,
          "velocity": 0.8503937007874016,
          "duration": 0.05208333333333215
        },
        {
          "name": "F4",
          "midi": 65,
          "time": 16.875,
          "velocity": 0.8346456692913385,
          "duration": 0.05208333333333215
        },
        {
          "name": "E4",
          "midi": 64,
          "time": 17,
          "velocity": 0.8661417322834646,
          "duration": 0.1875
        },
        {
          "name": "G4",
          "midi": 67,
          "time": 17,
          "velocity": 0.8661417322834646,
          "duration": 0.22395833333333215
        },
        {
          "name": "A#3",
          "midi": 58,
          "time": 17.25,
          "velocity": 0.8661417322834646,
          "duration": 0.078125
        },
        {
          "name": "E4",
          "midi": 64,
          "time": 17.25,
          "velocity": 0.8661417322834646,
          "duration": 0.06770833333333215
        },
        {
          "name": "G3",
          "midi": 55,
          "time": 17.5,
          "velocity": 0.8661417322834646,
          "duration": 0.05208333333333215
        },
        {
          "name": "A#3",
          "midi": 58,
          "time": 17.5,
          "velocity": 0.8661417322834646,
          "duration": 0.05208333333333215
        },
        {
          "name": "G3",
          "midi": 55,
          "time": 17.75,
          "velocity": 0.8661417322834646,
          "duration": 0.0625
        },
        {
          "name": "E4",
          "midi": 64,
          "time": 17.75,
          "velocity": 0.8661417322834646,
          "duration": 0.06770833333333215
        },
        {
          "name": "A#3",
          "midi": 58,
          "time": 18,
          "velocity": 0.8661417322834646,
          "duration": 0.4322916666666643
        },
        {
          "name": "E4",
          "midi": 64,
          "time": 18,
          "velocity": 0.8503937007874016,
          "duration": 0.41145833333333215
        },
        {
          "name": "E4",
          "midi": 64,
          "time": 18.499999999999996,
          "velocity": 0.8503937007874016,
          "duration": 0.45833333333333215
        },
        {
          "name": "G4",
          "midi": 67,
          "time": 18.499999999999996,
          "velocity": 0.8661417322834646,
          "duration": 0.4791666666666643
        },
        {
          "name": "F3",
          "midi": 53,
          "time": 18.999999999999993,
          "velocity": 0.8503937007874016,
          "duration": 0.453125
        },
        {
          "name": "A3",
          "midi": 57,
          "time": 18.999999999999993,
          "velocity": 0.8503937007874016,
          "duration": 0.42708333333333215
        },
        {
          "name": "A3",
          "midi": 57,
          "time": 19.499999999999993,
          "velocity": 0.8503937007874016,
          "duration": 0.44791666666666785
        },
        {
          "name": "C4",
          "midi": 60,
          "time": 19.499999999999993,
          "velocity": 0.8661417322834646,
          "duration": 0.4583333333333357
        },
        {
          "name": "F3",
          "midi": 53,
          "time": 19.999999999999996,
          "velocity": 0.8503937007874016,
          "duration": 0.4375
        },
        {
          "name": "A3",
          "midi": 57,
          "time": 19.999999999999996,
          "velocity": 0.8503937007874016,
          "duration": 0.421875
        },
        {
          "name": "A3",
          "midi": 57,
          "time": 20.499999999999996,
          "velocity": 0.8503937007874016,
          "duration": 0.41666666666666785
        },
        {
          "name": "C4",
          "midi": 60,
          "time": 20.499999999999996,
          "velocity": 0.8503937007874016,
          "duration": 0.44791666666666785
        },
        {
          "name": "A3",
          "midi": 57,
          "time": 20.999999999999996,
          "velocity": 0.8661417322834646,
          "duration": 0.05208333333333215
        },
        {
          "name": "F4",
          "midi": 65,
          "time": 20.999999999999996,
          "velocity": 0.8661417322834646,
          "duration": 0.05208333333333215
        },
        {
          "name": "A3",
          "midi": 57,
          "time": 21.249999999999996,
          "velocity": 0.8661417322834646,
          "duration": 0.05208333333333215
        },
        {
          "name": "F4",
          "midi": 65,
          "time": 21.249999999999996,
          "velocity": 0.8661417322834646,
          "duration": 0.05208333333333215
        },
        {
          "name": "A3",
          "midi": 57,
          "time": 21.374999999999996,
          "velocity": 0.8503937007874016,
          "duration": 0.0572916666666643
        },
        {
          "name": "F4",
          "midi": 65,
          "time": 21.374999999999996,
          "velocity": 0.8661417322834646,
          "duration": 0.05208333333333215
        },
        {
          "name": "A3",
          "midi": 57,
          "time": 21.499999999999993,
          "velocity": 0.8503937007874016,
          "duration": 0.05208333333333215
        },
        {
          "name": "F4",
          "midi": 65,
          "time": 21.499999999999993,
          "velocity": 0.8661417322834646,
          "duration": 0.0572916666666643
        },
        {
          "name": "C4",
          "midi": 60,
          "time": 21.62499999999999,
          "velocity": 0.8661417322834646,
          "duration": 0.07291666666666785
        },
        {
          "name": "A3",
          "midi": 57,
          "time": 21.74999999999999,
          "velocity": 0.8661417322834646,
          "duration": 0.06770833333333215
        },
        {
          "name": "F3",
          "midi": 53,
          "time": 21.87499999999999,
          "velocity": 0.8661417322834646,
          "duration": 0.05208333333333215
        },
        {
          "name": "F3",
          "midi": 53,
          "time": 21.99999999999999,
          "velocity": 0.8661417322834646,
          "duration": 0.4322916666666643
        },
        {
          "name": "A3",
          "midi": 57,
          "time": 21.99999999999999,
          "velocity": 0.8503937007874016,
          "duration": 0.41145833333333215
        },
        {
          "name": "A3",
          "midi": 57,
          "time": 22.499999999999986,
          "velocity": 0.8503937007874016,
          "duration": 0.45833333333333215
        },
        {
          "name": "C4",
          "midi": 60,
          "time": 22.499999999999986,
          "velocity": 0.8661417322834646,
          "duration": 0.4791666666666643
        },
        {
          "name": "A#3",
          "midi": 58,
          "time": 22.999999999999982,
          "velocity": 0.8503937007874016,
          "duration": 0.453125
        },
        {
          "name": "D4",
          "midi": 62,
          "time": 22.999999999999982,
          "velocity": 0.8503937007874016,
          "duration": 0.42708333333333215
        },
        {
          "name": "D4",
          "midi": 62,
          "time": 23.499999999999982,
          "velocity": 0.8503937007874016,
          "duration": 0.44791666666666785
        },
        {
          "name": "F4",
          "midi": 65,
          "time": 23.499999999999982,
          "velocity": 0.8661417322834646,
          "duration": 0.4583333333333357
        },
        {
          "name": "A#3",
          "midi": 58,
          "time": 23.999999999999986,
          "velocity": 0.8661417322834646,
          "duration": 0.4375
        },
        {
          "name": "D4",
          "midi": 62,
          "time": 23.999999999999986,
          "velocity": 0.8503937007874016,
          "duration": 0.42708333333333215
        },
        {
          "name": "D4",
          "midi": 62,
          "time": 24.499999999999986,
          "velocity": 0.8661417322834646,
          "duration": 0.44270833333333215
        },
        {
          "name": "F4",
          "midi": 65,
          "time": 24.499999999999986,
          "velocity": 0.8661417322834646,
          "duration": 0.421875
        },
        {
          "name": "G4",
          "midi": 67,
          "time": 24.999999999999986,
          "velocity": 0.8661417322834646,
          "duration": 0.05208333333333215
        },
        {
          "name": "E5",
          "midi": 76,
          "time": 24.999999999999986,
          "velocity": 0.8661417322834646,
          "duration": 0.05208333333333215
        },
        {
          "name": "G4",
          "midi": 67,
          "time": 25.249999999999986,
          "velocity": 0.8661417322834646,
          "duration": 0.05208333333333215
        },
        {
          "name": "E5",
          "midi": 76,
          "time": 25.249999999999986,
          "velocity": 0.8661417322834646,
          "duration": 0.05208333333333215
        },
        {
          "name": "G4",
          "midi": 67,
          "time": 25.374999999999986,
          "velocity": 0.8661417322834646,
          "duration": 0.05208333333333215
        },
        {
          "name": "E5",
          "midi": 76,
          "time": 25.374999999999986,
          "velocity": 0.8661417322834646,
          "duration": 0.05208333333333215
        },
        {
          "name": "G4",
          "midi": 67,
          "time": 25.499999999999986,
          "velocity": 0.8503937007874016,
          "duration": 0.0625
        },
        {
          "name": "E5",
          "midi": 76,
          "time": 25.499999999999986,
          "velocity": 0.8661417322834646,
          "duration": 0.078125
        },
        {
          "name": "A#4",
          "midi": 70,
          "time": 25.624999999999986,
          "velocity": 0.8661417322834646,
          "duration": 0.0625
        },
        {
          "name": "G4",
          "midi": 67,
          "time": 25.749999999999986,
          "velocity": 0.8661417322834646,
          "duration": 0.078125
        },
        {
          "name": "E4",
          "midi": 64,
          "time": 25.874999999999986,
          "velocity": 0.8661417322834646,
          "duration": 0.05208333333333215
        },
        {
          "name": "A#3",
          "midi": 58,
          "time": 25.999999999999986,
          "velocity": 0.8661417322834646,
          "duration": 0.4322916666666643
        },
        {
          "name": "E4",
          "midi": 64,
          "time": 25.999999999999986,
          "velocity": 0.8503937007874016,
          "duration": 0.41145833333333215
        },
        {
          "name": "E4",
          "midi": 64,
          "time": 26.499999999999982,
          "velocity": 0.8503937007874016,
          "duration": 0.45833333333333215
        },
        {
          "name": "G4",
          "midi": 67,
          "time": 26.499999999999982,
          "velocity": 0.8661417322834646,
          "duration": 0.4791666666666643
        },
        {
          "name": "F3",
          "midi": 53,
          "time": 26.99999999999998,
          "velocity": 0.8503937007874016,
          "duration": 0.453125
        },
        {
          "name": "A3",
          "midi": 57,
          "time": 26.99999999999998,
          "velocity": 0.8503937007874016,
          "duration": 0.42708333333333215
        },
        {
          "name": "A3",
          "midi": 57,
          "time": 27.49999999999998,
          "velocity": 0.8503937007874016,
          "duration": 0.44791666666666785
        },
        {
          "name": "C4",
          "midi": 60,
          "time": 27.49999999999998,
          "velocity": 0.8661417322834646,
          "duration": 0.4583333333333357
        },
        {
          "name": "F3",
          "midi": 53,
          "time": 27.999999999999982,
          "velocity": 0.8661417322834646,
          "duration": 0.09375
        },
        {
          "name": "A3",
          "midi": 57,
          "time": 27.999999999999982,
          "velocity": 0.8661417322834646,
          "duration": 0.09375
        },
        {
          "name": "A3",
          "midi": 57,
          "time": 28.124999999999982,
          "velocity": 0.8503937007874016,
          "duration": 0.09375
        },
        {
          "name": "C4",
          "midi": 60,
          "time": 28.124999999999982,
          "velocity": 0.8661417322834646,
          "duration": 0.09375
        },
        {
          "name": "C4",
          "midi": 60,
          "time": 28.249999999999982,
          "velocity": 0.8346456692913385,
          "duration": 0.09375
        },
        {
          "name": "F4",
          "midi": 65,
          "time": 28.249999999999982,
          "velocity": 0.8661417322834646,
          "duration": 0.09375
        },
        {
          "name": "A3",
          "midi": 57,
          "time": 28.374999999999982,
          "velocity": 0.8661417322834646,
          "duration": 0.09375
        },
        {
          "name": "C4",
          "midi": 60,
          "time": 28.374999999999982,
          "velocity": 0.8661417322834646,
          "duration": 0.09375
        },
        {
          "name": "F3",
          "midi": 53,
          "time": 28.499999999999982,
          "velocity": 0.8346456692913385,
          "duration": 0.09375
        },
        {
          "name": "A3",
          "midi": 57,
          "time": 28.499999999999982,
          "velocity": 0.8346456692913385,
          "duration": 0.09375
        },
        {
          "name": "C3",
          "midi": 48,
          "time": 28.624999999999982,
          "velocity": 0.8346456692913385,
          "duration": 0.09375
        },
        {
          "name": "F3",
          "midi": 53,
          "time": 28.624999999999982,
          "velocity": 0.8346456692913385,
          "duration": 0.09375
        },
        {
          "name": "C3",
          "midi": 48,
          "time": 28.749999999999982,
          "velocity": 0.8503937007874016,
          "duration": 0.09375
        },
        {
          "name": "A3",
          "midi": 57,
          "time": 28.749999999999982,
          "velocity": 0.8503937007874016,
          "duration": 0.09375
        },
        {
          "name": "F3",
          "midi": 53,
          "time": 28.874999999999982,
          "velocity": 0.8661417322834646,
          "duration": 0.09375
        },
        {
          "name": "C4",
          "midi": 60,
          "time": 28.874999999999982,
          "velocity": 0.8661417322834646,
          "duration": 0.09375
        },
        {
          "name": "F3",
          "midi": 53,
          "time": 28.999999999999982,
          "velocity": 0.8661417322834646,
          "duration": 0.09375
        },
        {
          "name": "A3",
          "midi": 57,
          "time": 28.999999999999982,
          "velocity": 0.8661417322834646,
          "duration": 0.09375
        },
        {
          "name": "F3",
          "midi": 53,
          "time": 29.124999999999982,
          "velocity": 0.8661417322834646,
          "duration": 0.09375
        },
        {
          "name": "C4",
          "midi": 60,
          "time": 29.124999999999982,
          "velocity": 0.8661417322834646,
          "duration": 0.09375
        },
        {
          "name": "C3",
          "midi": 48,
          "time": 29.249999999999982,
          "velocity": 0.8661417322834646,
          "duration": 0.09375
        },
        {
          "name": "A3",
          "midi": 57,
          "time": 29.249999999999982,
          "velocity": 0.8661417322834646,
          "duration": 0.09375
        },
        {
          "name": "C4",
          "midi": 60,
          "time": 29.374999999999982,
          "velocity": 0.8661417322834646,
          "duration": 0.09375
        },
        {
          "name": "F4",
          "midi": 65,
          "time": 29.374999999999982,
          "velocity": 0.8661417322834646,
          "duration": 0.09375
        },
        {
          "name": "A3",
          "midi": 57,
          "time": 29.499999999999982,
          "velocity": 0.8661417322834646,
          "duration": 0.5
        },
        {
          "name": "C4",
          "midi": 60,
          "time": 29.499999999999982,
          "velocity": 0.8661417322834646,
          "duration": 0.5
        },
        {
          "name": "F3",
          "midi": 53,
          "time": 29.999999999999982,
          "velocity": 0.8661417322834646,
          "duration": 0.09375
        },
        {
          "name": "A3",
          "midi": 57,
          "time": 29.999999999999982,
          "velocity": 0.8661417322834646,
          "duration": 0.09375
        },
        {
          "name": "A3",
          "midi": 57,
          "time": 30.124999999999982,
          "velocity": 0.7874015748031497,
          "duration": 0.09375
        },
        {
          "name": "C4",
          "midi": 60,
          "time": 30.124999999999982,
          "velocity": 0.8661417322834646,
          "duration": 0.09375
        },
        {
          "name": "C4",
          "midi": 60,
          "time": 30.249999999999982,
          "velocity": 0.8346456692913385,
          "duration": 0.09375
        },
        {
          "name": "F4",
          "midi": 65,
          "time": 30.249999999999982,
          "velocity": 0.8661417322834646,
          "duration": 0.09375
        },
        {
          "name": "A3",
          "midi": 57,
          "time": 30.374999999999982,
          "velocity": 0.7874015748031497,
          "duration": 0.09375
        },
        {
          "name": "C4",
          "midi": 60,
          "time": 30.374999999999982,
          "velocity": 0.8031496062992126,
          "duration": 0.09375
        },
        {
          "name": "F3",
          "midi": 53,
          "time": 30.499999999999982,
          "velocity": 0.8661417322834646,
          "duration": 0.09375
        },
        {
          "name": "A3",
          "midi": 57,
          "time": 30.499999999999982,
          "velocity": 0.8503937007874016,
          "duration": 0.09375
        },
        {
          "name": "A3",
          "midi": 57,
          "time": 30.624999999999982,
          "velocity": 0.7874015748031497,
          "duration": 0.09375
        },
        {
          "name": "C4",
          "midi": 60,
          "time": 30.624999999999982,
          "velocity": 0.8661417322834646,
          "duration": 0.09375
        },
        {
          "name": "C4",
          "midi": 60,
          "time": 30.749999999999982,
          "velocity": 0.8503937007874016,
          "duration": 0.09375
        },
        {
          "name": "F4",
          "midi": 65,
          "time": 30.749999999999982,
          "velocity": 0.8503937007874016,
          "duration": 0.09375
        },
        {
          "name": "A3",
          "midi": 57,
          "time": 30.874999999999982,
          "velocity": 0.7874015748031497,
          "duration": 0.09375
        },
        {
          "name": "C4",
          "midi": 60,
          "time": 30.874999999999982,
          "velocity": 0.8661417322834646,
          "duration": 0.09375
        },
        {
          "name": "C4",
          "midi": 60,
          "time": 30.999999999999982,
          "velocity": 0.8661417322834646,
          "duration": 0.078125
        },
        {
          "name": "A4",
          "midi": 69,
          "time": 30.999999999999982,
          "velocity": 0.8661417322834646,
          "duration": 0.09895833333333215
        },
        {
          "name": "C4",
          "midi": 60,
          "time": 31.249999999999982,
          "velocity": 0.8188976377952756,
          "duration": 0.05729166666666785
        },
        {
          "name": "A4",
          "midi": 69,
          "time": 31.249999999999982,
          "velocity": 0.7874015748031497,
          "duration": 0.05729166666666785
        },
        {
          "name": "A4",
          "midi": 69,
          "time": 31.374999999999982,
          "velocity": 0.8661417322834646,
          "duration": 0.0625
        },
        {
          "name": "C5",
          "midi": 72,
          "time": 31.374999999999982,
          "velocity": 0.8661417322834646,
          "duration": 0.0625
        },
        {
          "name": "C4",
          "midi": 60,
          "time": 31.499999999999982,
          "velocity": 0.8661417322834646,
          "duration": 0.0625
        },
        {
          "name": "A4",
          "midi": 69,
          "time": 31.499999999999982,
          "velocity": 0.8188976377952756,
          "duration": 0.05729166666666785
        },
        {
          "name": "C4",
          "midi": 60,
          "time": 31.749999999999982,
          "velocity": 0.8661417322834646,
          "duration": 0.05208333333333215
        },
        {
          "name": "A4",
          "midi": 69,
          "time": 31.749999999999982,
          "velocity": 0.8188976377952756,
          "duration": 0.0572916666666643
        },
        {
          "name": "C4",
          "midi": 60,
          "time": 33.24999999999998,
          "velocity": 0.8661417322834646,
          "duration": 0.0625
        },
        {
          "name": "A3",
          "midi": 57,
          "time": 33.24999999999998,
          "velocity": 0.8661417322834646,
          "duration": 0.0625
        },
        {
          "name": "F4",
          "midi": 65,
          "time": 33.37499999999998,
          "velocity": 0.7874015748031497,
          "duration": 0.0625
        },
        {
          "name": "C4",
          "midi": 60,
          "time": 33.37499999999998,
          "velocity": 0.7716535433070866,
          "duration": 0.0625
        },
        {
          "name": "F4",
          "midi": 65,
          "time": 33.49999999999998,
          "velocity": 0.7716535433070866,
          "duration": 0.0625
        },
        {
          "name": "A4",
          "midi": 69,
          "time": 33.49999999999998,
          "velocity": 0.7874015748031497,
          "duration": 0.0625
        },
        {
          "name": "A4",
          "midi": 69,
          "time": 33.74999999999998,
          "velocity": 0.7874015748031497,
          "duration": 0.0625
        },
        {
          "name": "C5",
          "midi": 72,
          "time": 33.74999999999998,
          "velocity": 0.7716535433070866,
          "duration": 0.0625
        },
        {
          "name": "G5",
          "midi": 79,
          "time": 35.24999999999998,
          "velocity": 0.7874015748031497,
          "duration": 0.0625
        },
        {
          "name": "E5",
          "midi": 76,
          "time": 35.24999999999998,
          "velocity": 0.7874015748031497,
          "duration": 0.0625
        },
        {
          "name": "E5",
          "midi": 76,
          "time": 35.37499999999998,
          "velocity": 0.7716535433070866,
          "duration": 0.0625
        },
        {
          "name": "C5",
          "midi": 72,
          "time": 35.37499999999998,
          "velocity": 0.7244094488188977,
          "duration": 0.0625
        },
        {
          "name": "C5",
          "midi": 72,
          "time": 35.49999999999998,
          "velocity": 0.8661417322834646,
          "duration": 0.0625
        },
        {
          "name": "G4",
          "midi": 67,
          "time": 35.49999999999998,
          "velocity": 0.8661417322834646,
          "duration": 0.0625
        },
        {
          "name": "E4",
          "midi": 64,
          "time": 35.74999999999998,
          "velocity": 0.8661417322834646,
          "duration": 0.0625
        },
        {
          "name": "G4",
          "midi": 67,
          "time": 35.74999999999998,
          "velocity": 0.7716535433070866,
          "duration": 0.0625
        },
        {
          "name": "A3",
          "midi": 57,
          "time": 37.24999999999998,
          "velocity": 0.8661417322834646,
          "duration": 0.0625
        },
        {
          "name": "C4",
          "midi": 60,
          "time": 37.24999999999998,
          "velocity": 0.7874015748031497,
          "duration": 0.0625
        },
        {
          "name": "C4",
          "midi": 60,
          "time": 37.37499999999998,
          "velocity": 0.7716535433070866,
          "duration": 0.0625
        },
        {
          "name": "F4",
          "midi": 65,
          "time": 37.37499999999998,
          "velocity": 0.7716535433070866,
          "duration": 0.0625
        },
        {
          "name": "F4",
          "midi": 65,
          "time": 37.49999999999998,
          "velocity": 0.7874015748031497,
          "duration": 0.0625
        },
        {
          "name": "A4",
          "midi": 69,
          "time": 37.49999999999998,
          "velocity": 0.8661417322834646,
          "duration": 0.0625
        },
        {
          "name": "A4",
          "midi": 69,
          "time": 37.74999999999998,
          "velocity": 0.7874015748031497,
          "duration": 0.0625
        },
        {
          "name": "C5",
          "midi": 72,
          "time": 37.74999999999998,
          "velocity": 0.7874015748031497,
          "duration": 0.0625
        },
        {
          "name": "A4",
          "midi": 69,
          "time": 38.99999999999998,
          "velocity": 0.7716535433070866,
          "duration": 0.09375
        },
        {
          "name": "C5",
          "midi": 72,
          "time": 38.99999999999998,
          "velocity": 0.7874015748031497,
          "duration": 0.09375
        },
        {
          "name": "F4",
          "midi": 65,
          "time": 39.12499999999998,
          "velocity": 0.7716535433070866,
          "duration": 0.09375
        },
        {
          "name": "A4",
          "midi": 69,
          "time": 39.12499999999998,
          "velocity": 0.7716535433070866,
          "duration": 0.09375
        },
        {
          "name": "C4",
          "midi": 60,
          "time": 39.24999999999998,
          "velocity": 0.8661417322834646,
          "duration": 0.1875
        },
        {
          "name": "F4",
          "midi": 65,
          "time": 39.24999999999998,
          "velocity": 0.8346456692913385,
          "duration": 0.1875
        },
        {
          "name": "A3",
          "midi": 57,
          "time": 39.49999999999998,
          "velocity": 0.8661417322834646,
          "duration": 0.21875
        },
        {
          "name": "C4",
          "midi": 60,
          "time": 39.49999999999998,
          "velocity": 0.8346456692913385,
          "duration": 0.203125
        },
        {
          "name": "C4",
          "midi": 60,
          "time": 39.99999999999998,
          "velocity": 0.8503937007874016,
          "duration": 0.0520833333333357
        },
        {
          "name": "A4",
          "midi": 69,
          "time": 39.99999999999998,
          "velocity": 0.8503937007874016,
          "duration": 0.057291666666671404
        },
        {
          "name": "F4",
          "midi": 65,
          "time": 40.249999999999986,
          "velocity": 0.8346456692913385,
          "duration": 0.0625
        },
        {
          "name": "D5",
          "midi": 74,
          "time": 40.249999999999986,
          "velocity": 0.8346456692913385,
          "duration": 0.0625
        },
        {
          "name": "F4",
          "midi": 65,
          "time": 40.374999999999986,
          "velocity": 0.8346456692913385,
          "duration": 0.0520833333333357
        },
        {
          "name": "D5",
          "midi": 74,
          "time": 40.374999999999986,
          "velocity": 0.8346456692913385,
          "duration": 0.0625
        },
        {
          "name": "F4",
          "midi": 65,
          "time": 40.499999999999986,
          "velocity": 0.8503937007874016,
          "duration": 0.0625
        },
        {
          "name": "D5",
          "midi": 74,
          "time": 40.499999999999986,
          "velocity": 0.8346456692913385,
          "duration": 0.0677083333333357
        },
        {
          "name": "F4",
          "midi": 65,
          "time": 40.749999999999986,
          "velocity": 0.8503937007874016,
          "duration": 0.0520833333333357
        },
        {
          "name": "D5",
          "midi": 74,
          "time": 40.749999999999986,
          "velocity": 0.8503937007874016,
          "duration": 0.057291666666671404
        },
        {
          "name": "F4",
          "midi": 65,
          "time": 40.87499999999999,
          "velocity": 0.8661417322834646,
          "duration": 0.0625
        },
        {
          "name": "D5",
          "midi": 74,
          "time": 40.87499999999999,
          "velocity": 0.8503937007874016,
          "duration": 0.0625
        },
        {
          "name": "C4",
          "midi": 60,
          "time": 40.99999999999999,
          "velocity": 0.8503937007874016,
          "duration": 0.0572916666666643
        },
        {
          "name": "A4",
          "midi": 69,
          "time": 40.99999999999999,
          "velocity": 0.8346456692913385,
          "duration": 0.0625
        },
        {
          "name": "C4",
          "midi": 60,
          "time": 41.24999999999999,
          "velocity": 0.8661417322834646,
          "duration": 0.0520833333333357
        },
        {
          "name": "A4",
          "midi": 69,
          "time": 41.24999999999999,
          "velocity": 0.8188976377952756,
          "duration": 0.0520833333333357
        },
        {
          "name": "C4",
          "midi": 60,
          "time": 41.49999999999999,
          "velocity": 0.8661417322834646,
          "duration": 0.0520833333333357
        },
        {
          "name": "A4",
          "midi": 69,
          "time": 41.49999999999999,
          "velocity": 0.8503937007874016,
          "duration": 0.0520833333333357
        },
        {
          "name": "C4",
          "midi": 60,
          "time": 41.74999999999999,
          "velocity": 0.8661417322834646,
          "duration": 0.0572916666666643
        },
        {
          "name": "A4",
          "midi": 69,
          "time": 41.74999999999999,
          "velocity": 0.8661417322834646,
          "duration": 0.0572916666666643
        },
        {
          "name": "G4",
          "midi": 67,
          "time": 41.99999999999999,
          "velocity": 0.8661417322834646,
          "duration": 0.4479166666666643
        },
        {
          "name": "E5",
          "midi": 76,
          "time": 41.99999999999999,
          "velocity": 0.8661417322834646,
          "duration": 0.4322916666666643
        },
        {
          "name": "E4",
          "midi": 64,
          "time": 42.49999999999999,
          "velocity": 0.8661417322834646,
          "duration": 0.2760416666666643
        },
        {
          "name": "A#4",
          "midi": 70,
          "time": 42.49999999999999,
          "velocity": 0.8661417322834646,
          "duration": 0.2760416666666643
        },
        {
          "name": "E4",
          "midi": 64,
          "time": 42.87499999999999,
          "velocity": 0.8503937007874016,
          "duration": 0.0625
        },
        {
          "name": "G4",
          "midi": 67,
          "time": 42.87499999999999,
          "velocity": 0.8503937007874016,
          "duration": 0.0572916666666643
        },
        {
          "name": "A3",
          "midi": 57,
          "time": 42.99999999999999,
          "velocity": 0.8503937007874016,
          "duration": 0.0625
        },
        {
          "name": "C4",
          "midi": 60,
          "time": 42.99999999999999,
          "velocity": 0.8661417322834646,
          "duration": 0.0625
        },
        {
          "name": "C4",
          "midi": 60,
          "time": 43.24999999999999,
          "velocity": 0.8661417322834646,
          "duration": 0.0520833333333357
        },
        {
          "name": "F4",
          "midi": 65,
          "time": 43.24999999999999,
          "velocity": 0.8661417322834646,
          "duration": 0.0520833333333357
        },
        {
          "name": "C4",
          "midi": 60,
          "time": 43.49999999999999,
          "velocity": 0.8661417322834646,
          "duration": 0.0677083333333357
        },
        {
          "name": "A3",
          "midi": 57,
          "time": 43.74999999999999,
          "velocity": 0.8661417322834646,
          "duration": 0.0520833333333357
        },
        {
          "name": "C4",
          "midi": 60,
          "time": 43.74999999999999,
          "velocity": 0.7874015748031497,
          "duration": 0.0520833333333357
        },
        {
          "name": "F3",
          "midi": 53,
          "time": 43.99999999999999,
          "velocity": 0.8661417322834646,
          "duration": 0.0833333333333286
        },
        {
          "name": "A3",
          "midi": 57,
          "time": 43.99999999999999,
          "velocity": 0.8188976377952756,
          "duration": 0.0729166666666643
        },
        {
          "name": "F3",
          "midi": 53,
          "time": 44.374999999999986,
          "velocity": 0.8031496062992126,
          "duration": 0.0833333333333357
        },
        {
          "name": "A3",
          "midi": 57,
          "time": 44.374999999999986,
          "velocity": 0.8346456692913385,
          "duration": 0.078125
        },
        {
          "name": "A3",
          "midi": 57,
          "time": 44.499999999999986,
          "velocity": 0.7874015748031497,
          "duration": 0.0572916666666643
        },
        {
          "name": "C4",
          "midi": 60,
          "time": 44.499999999999986,
          "velocity": 0.8031496062992126,
          "duration": 0.0572916666666643
        },
        {
          "name": "A3",
          "midi": 57,
          "time": 44.749999999999986,
          "velocity": 0.8188976377952756,
          "duration": 0.0677083333333286
        },
        {
          "name": "F4",
          "midi": 65,
          "time": 44.749999999999986,
          "velocity": 0.8661417322834646,
          "duration": 0.0572916666666643
        },
        {
          "name": "C4",
          "midi": 60,
          "time": 44.99999999999998,
          "velocity": 0.8661417322834646,
          "duration": 0.078125
        },
        {
          "name": "A4",
          "midi": 69,
          "time": 44.99999999999998,
          "velocity": 0.8661417322834646,
          "duration": 0.0989583333333357
        },
        {
          "name": "C4",
          "midi": 60,
          "time": 45.24999999999998,
          "velocity": 0.8188976377952756,
          "duration": 0.0572916666666643
        },
        {
          "name": "A4",
          "midi": 69,
          "time": 45.24999999999998,
          "velocity": 0.7874015748031497,
          "duration": 0.0572916666666643
        },
        {
          "name": "A4",
          "midi": 69,
          "time": 45.37499999999998,
          "velocity": 0.8661417322834646,
          "duration": 0.0625
        },
        {
          "name": "C5",
          "midi": 72,
          "time": 45.37499999999998,
          "velocity": 0.8661417322834646,
          "duration": 0.0625
        },
        {
          "name": "C4",
          "midi": 60,
          "time": 45.49999999999998,
          "velocity": 0.8661417322834646,
          "duration": 0.0625
        },
        {
          "name": "A4",
          "midi": 69,
          "time": 45.49999999999998,
          "velocity": 0.8188976377952756,
          "duration": 0.0572916666666643
        },
        {
          "name": "C4",
          "midi": 60,
          "time": 45.74999999999998,
          "velocity": 0.8661417322834646,
          "duration": 0.0520833333333357
        },
        {
          "name": "A4",
          "midi": 69,
          "time": 45.74999999999998,
          "velocity": 0.8188976377952756,
          "duration": 0.057291666666671404
        },
        {
          "name": "A4",
          "midi": 69,
          "time": 45.999999999999986,
          "velocity": 0.8661417322834646,
          "duration": 0.28125
        },
        {
          "name": "C5",
          "midi": 72,
          "time": 45.999999999999986,
          "velocity": 0.8661417322834646,
          "duration": 0.3072916666666643
        },
        {
          "name": "F4",
          "midi": 65,
          "time": 46.374999999999986,
          "velocity": 0.8188976377952756,
          "duration": 0.0520833333333357
        },
        {
          "name": "A4",
          "midi": 69,
          "time": 46.374999999999986,
          "velocity": 0.8031496062992126,
          "duration": 0.057291666666671404
        },
        {
          "name": "F4",
          "midi": 65,
          "time": 46.49999999999999,
          "velocity": 0.8188976377952756,
          "duration": 0.0729166666666643
        },
        {
          "name": "A4",
          "midi": 69,
          "time": 46.49999999999999,
          "velocity": 0.8346456692913385,
          "duration": 0.0625
        },
        {
          "name": "C4",
          "midi": 60,
          "time": 46.74999999999999,
          "velocity": 0.8346456692913385,
          "duration": 0.0520833333333357
        },
        {
          "name": "F4",
          "midi": 65,
          "time": 46.74999999999999,
          "velocity": 0.8346456692913385,
          "duration": 0.0520833333333357
        },
        {
          "name": "C4",
          "midi": 60,
          "time": 46.99999999999999,
          "velocity": 0.8661417322834646,
          "duration": 0.25
        },
        {
          "name": "F4",
          "midi": 65,
          "time": 46.99999999999999,
          "velocity": 0.8346456692913385,
          "duration": 0.25
        },
        {
          "name": "F4",
          "midi": 65,
          "time": 47.24999999999999,
          "velocity": 0.8661417322834646,
          "duration": 0.1875
        },
        {
          "name": "A#4",
          "midi": 70,
          "time": 47.24999999999999,
          "velocity": 0.8346456692913385,
          "duration": 0.1875
        },
        {
          "name": "D4",
          "midi": 62,
          "time": 47.49999999999999,
          "velocity": 0.8661417322834646,
          "duration": 0.21875
        },
        {
          "name": "F4",
          "midi": 65,
          "time": 47.49999999999999,
          "velocity": 0.8346456692913385,
          "duration": 0.203125
        },
        {
          "name": "A#3",
          "midi": 58,
          "time": 47.99999999999999,
          "velocity": 0.8661417322834646,
          "duration": 0.09375
        },
        {
          "name": "D4",
          "midi": 62,
          "time": 47.99999999999999,
          "velocity": 0.8661417322834646,
          "duration": 0.09375
        },
        {
          "name": "D4",
          "midi": 62,
          "time": 48.12499999999999,
          "velocity": 0.7874015748031497,
          "duration": 0.09375
        },
        {
          "name": "F4",
          "midi": 65,
          "time": 48.12499999999999,
          "velocity": 0.8503937007874016,
          "duration": 0.09375
        },
        {
          "name": "F4",
          "midi": 65,
          "time": 48.24999999999999,
          "velocity": 0.8188976377952756,
          "duration": 0.09375
        },
        {
          "name": "A#4",
          "midi": 70,
          "time": 48.24999999999999,
          "velocity": 0.8031496062992126,
          "duration": 0.09375
        },
        {
          "name": "D4",
          "midi": 62,
          "time": 48.37499999999999,
          "velocity": 0.8031496062992126,
          "duration": 0.09375
        },
        {
          "name": "F4",
          "midi": 65,
          "time": 48.37499999999999,
          "velocity": 0.8503937007874016,
          "duration": 0.09375
        },
        {
          "name": "A#3",
          "midi": 58,
          "time": 48.49999999999999,
          "velocity": 0.8661417322834646,
          "duration": 0.09375
        },
        {
          "name": "D4",
          "midi": 62,
          "time": 48.49999999999999,
          "velocity": 0.8661417322834646,
          "duration": 0.09375
        },
        {
          "name": "D4",
          "midi": 62,
          "time": 48.62499999999999,
          "velocity": 0.8503937007874016,
          "duration": 0.09375
        },
        {
          "name": "F4",
          "midi": 65,
          "time": 48.62499999999999,
          "velocity": 0.8503937007874016,
          "duration": 0.09375
        },
        {
          "name": "F4",
          "midi": 65,
          "time": 48.74999999999999,
          "velocity": 0.8346456692913385,
          "duration": 0.09375
        },
        {
          "name": "A#4",
          "midi": 70,
          "time": 48.74999999999999,
          "velocity": 0.8661417322834646,
          "duration": 0.09375
        },
        {
          "name": "D4",
          "midi": 62,
          "time": 48.87499999999999,
          "velocity": 0.8503937007874016,
          "duration": 0.09375
        },
        {
          "name": "F4",
          "midi": 65,
          "time": 48.87499999999999,
          "velocity": 0.8188976377952756,
          "duration": 0.09375
        },
        {
          "name": "C4",
          "midi": 60,
          "time": 48.99999999999999,
          "velocity": 0.8661417322834646,
          "duration": 0.09375
        },
        {
          "name": "E4",
          "midi": 64,
          "time": 48.99999999999999,
          "velocity": 0.8661417322834646,
          "duration": 0.09375
        },
        {
          "name": "E4",
          "midi": 64,
          "time": 49.12499999999999,
          "velocity": 0.8031496062992126,
          "duration": 0.09375
        },
        {
          "name": "G4",
          "midi": 67,
          "time": 49.12499999999999,
          "velocity": 0.8661417322834646,
          "duration": 0.09375
        },
        {
          "name": "G4",
          "midi": 67,
          "time": 49.24999999999999,
          "velocity": 0.8188976377952756,
          "duration": 0.09375
        },
        {
          "name": "A#4",
          "midi": 70,
          "time": 49.24999999999999,
          "velocity": 0.8661417322834646,
          "duration": 0.09375
        },
        {
          "name": "E4",
          "midi": 64,
          "time": 49.37499999999999,
          "velocity": 0.8661417322834646,
          "duration": 0.09375
        },
        {
          "name": "G4",
          "midi": 67,
          "time": 49.37499999999999,
          "velocity": 0.8661417322834646,
          "duration": 0.09375
        },
        {
          "name": "C4",
          "midi": 60,
          "time": 49.49999999999999,
          "velocity": 0.8661417322834646,
          "duration": 0.5
        },
        {
          "name": "E4",
          "midi": 64,
          "time": 49.49999999999999,
          "velocity": 0.8661417322834646,
          "duration": 0.5
        },
        {
          "name": "C4",
          "midi": 60,
          "time": 49.99999999999999,
          "velocity": 0.8661417322834646,
          "duration": 0.09375
        },
        {
          "name": "E4",
          "midi": 64,
          "time": 49.99999999999999,
          "velocity": 0.8661417322834646,
          "duration": 0.09375
        },
        {
          "name": "E4",
          "midi": 64,
          "time": 50.12499999999999,
          "velocity": 0.8503937007874016,
          "duration": 0.09375
        },
        {
          "name": "G4",
          "midi": 67,
          "time": 50.12499999999999,
          "velocity": 0.8661417322834646,
          "duration": 0.09375
        },
        {
          "name": "G4",
          "midi": 67,
          "time": 50.24999999999999,
          "velocity": 0.8346456692913385,
          "duration": 0.09375
        },
        {
          "name": "A#4",
          "midi": 70,
          "time": 50.24999999999999,
          "velocity": 0.8661417322834646,
          "duration": 0.09375
        },
        {
          "name": "E4",
          "midi": 64,
          "time": 50.37499999999999,
          "velocity": 0.8661417322834646,
          "duration": 0.09375
        },
        {
          "name": "G4",
          "midi": 67,
          "time": 50.37499999999999,
          "velocity": 0.8661417322834646,
          "duration": 0.09375
        },
        {
          "name": "C4",
          "midi": 60,
          "time": 50.49999999999999,
          "velocity": 0.8346456692913385,
          "duration": 0.09375
        },
        {
          "name": "E4",
          "midi": 64,
          "time": 50.49999999999999,
          "velocity": 0.8346456692913385,
          "duration": 0.09375
        },
        {
          "name": "G3",
          "midi": 55,
          "time": 50.62499999999999,
          "velocity": 0.8346456692913385,
          "duration": 0.09375
        },
        {
          "name": "C4",
          "midi": 60,
          "time": 50.62499999999999,
          "velocity": 0.8346456692913385,
          "duration": 0.09375
        },
        {
          "name": "G3",
          "midi": 55,
          "time": 50.74999999999999,
          "velocity": 0.8503937007874016,
          "duration": 0.09375
        },
        {
          "name": "E4",
          "midi": 64,
          "time": 50.74999999999999,
          "velocity": 0.8503937007874016,
          "duration": 0.09375
        },
        {
          "name": "C4",
          "midi": 60,
          "time": 50.87499999999999,
          "velocity": 0.8661417322834646,
          "duration": 0.09375
        },
        {
          "name": "G4",
          "midi": 67,
          "time": 50.87499999999999,
          "velocity": 0.8661417322834646,
          "duration": 0.09375
        },
        {
          "name": "C4",
          "midi": 60,
          "time": 50.99999999999999,
          "velocity": 0.8661417322834646,
          "duration": 0.09375
        },
        {
          "name": "E4",
          "midi": 64,
          "time": 50.99999999999999,
          "velocity": 0.8661417322834646,
          "duration": 0.09375
        },
        {
          "name": "C4",
          "midi": 60,
          "time": 51.12499999999999,
          "velocity": 0.8661417322834646,
          "duration": 0.09375
        },
        {
          "name": "G4",
          "midi": 67,
          "time": 51.12499999999999,
          "velocity": 0.8661417322834646,
          "duration": 0.09375
        },
        {
          "name": "C3",
          "midi": 48,
          "time": 51.24999999999999,
          "velocity": 0.8661417322834646,
          "duration": 0.09375
        },
        {
          "name": "A3",
          "midi": 57,
          "time": 51.24999999999999,
          "velocity": 0.8661417322834646,
          "duration": 0.09375
        },
        {
          "name": "C4",
          "midi": 60,
          "time": 51.37499999999999,
          "velocity": 0.8661417322834646,
          "duration": 0.09375
        },
        {
          "name": "F4",
          "midi": 65,
          "time": 51.37499999999999,
          "velocity": 0.8661417322834646,
          "duration": 0.09375
        },
        {
          "name": "A3",
          "midi": 57,
          "time": 51.49999999999999,
          "velocity": 0.8661417322834646,
          "duration": 0.5
        },
        {
          "name": "C4",
          "midi": 60,
          "time": 51.49999999999999,
          "velocity": 0.8661417322834646,
          "duration": 0.5
        },
        {
          "name": "F3",
          "midi": 53,
          "time": 51.99999999999999,
          "velocity": 0.8661417322834646,
          "duration": 0.09375
        },
        {
          "name": "A3",
          "midi": 57,
          "time": 51.99999999999999,
          "velocity": 0.8661417322834646,
          "duration": 0.09375
        },
        {
          "name": "A3",
          "midi": 57,
          "time": 52.12499999999999,
          "velocity": 0.7874015748031497,
          "duration": 0.09375
        },
        {
          "name": "C4",
          "midi": 60,
          "time": 52.12499999999999,
          "velocity": 0.8661417322834646,
          "duration": 0.09375
        },
        {
          "name": "C4",
          "midi": 60,
          "time": 52.24999999999999,
          "velocity": 0.8346456692913385,
          "duration": 0.09375
        },
        {
          "name": "F4",
          "midi": 65,
          "time": 52.24999999999999,
          "velocity": 0.8661417322834646,
          "duration": 0.09375
        },
        {
          "name": "A3",
          "midi": 57,
          "time": 52.37499999999999,
          "velocity": 0.7874015748031497,
          "duration": 0.09375
        },
        {
          "name": "C4",
          "midi": 60,
          "time": 52.37499999999999,
          "velocity": 0.8031496062992126,
          "duration": 0.09375
        },
        {
          "name": "F3",
          "midi": 53,
          "time": 52.49999999999999,
          "velocity": 0.8661417322834646,
          "duration": 0.09375
        },
        {
          "name": "A3",
          "midi": 57,
          "time": 52.49999999999999,
          "velocity": 0.8503937007874016,
          "duration": 0.09375
        },
        {
          "name": "A3",
          "midi": 57,
          "time": 52.62499999999999,
          "velocity": 0.7874015748031497,
          "duration": 0.09375
        },
        {
          "name": "C4",
          "midi": 60,
          "time": 52.62499999999999,
          "velocity": 0.8661417322834646,
          "duration": 0.09375
        },
        {
          "name": "C4",
          "midi": 60,
          "time": 52.74999999999999,
          "velocity": 0.8503937007874016,
          "duration": 0.09375
        },
        {
          "name": "F4",
          "midi": 65,
          "time": 52.74999999999999,
          "velocity": 0.8503937007874016,
          "duration": 0.09375
        },
        {
          "name": "A3",
          "midi": 57,
          "time": 52.87499999999999,
          "velocity": 0.7874015748031497,
          "duration": 0.09375
        },
        {
          "name": "C4",
          "midi": 60,
          "time": 52.87499999999999,
          "velocity": 0.8661417322834646,
          "duration": 0.09375
        },
        {
          "name": "F3",
          "midi": 53,
          "time": 52.99999999999999,
          "velocity": 0.8661417322834646,
          "duration": 0.09375
        },
        {
          "name": "A3",
          "midi": 57,
          "time": 52.99999999999999,
          "velocity": 0.8661417322834646,
          "duration": 0.09375
        },
        {
          "name": "A3",
          "midi": 57,
          "time": 53.12499999999999,
          "velocity": 0.8503937007874016,
          "duration": 0.09375
        },
        {
          "name": "C4",
          "midi": 60,
          "time": 53.12499999999999,
          "velocity": 0.8031496062992126,
          "duration": 0.09375
        },
        {
          "name": "C4",
          "midi": 60,
          "time": 53.24999999999999,
          "velocity": 0.8503937007874016,
          "duration": 0.09375
        },
        {
          "name": "F4",
          "midi": 65,
          "time": 53.24999999999999,
          "velocity": 0.8661417322834646,
          "duration": 0.09375
        },
        {
          "name": "A3",
          "midi": 57,
          "time": 53.37499999999999,
          "velocity": 0.7874015748031497,
          "duration": 0.09375
        },
        {
          "name": "C4",
          "midi": 60,
          "time": 53.37499999999999,
          "velocity": 0.8661417322834646,
          "duration": 0.09375
        },
        {
          "name": "F3",
          "midi": 53,
          "time": 53.49999999999999,
          "velocity": 0.8661417322834646,
          "duration": 0.5
        },
        {
          "name": "A3",
          "midi": 57,
          "time": 53.49999999999999,
          "velocity": 0.8661417322834646,
          "duration": 0.5
        },
        {
          "name": "F3",
          "midi": 53,
          "time": 53.99999999999999,
          "velocity": 0.8661417322834646,
          "duration": 0.09375
        },
        {
          "name": "A3",
          "midi": 57,
          "time": 53.99999999999999,
          "velocity": 0.8661417322834646,
          "duration": 0.09375
        },
        {
          "name": "A3",
          "midi": 57,
          "time": 54.12499999999999,
          "velocity": 0.8661417322834646,
          "duration": 0.09375
        },
        {
          "name": "C4",
          "midi": 60,
          "time": 54.12499999999999,
          "velocity": 0.8661417322834646,
          "duration": 0.09375
        },
        {
          "name": "C4",
          "midi": 60,
          "time": 54.24999999999999,
          "velocity": 0.8661417322834646,
          "duration": 0.09375
        },
        {
          "name": "F4",
          "midi": 65,
          "time": 54.24999999999999,
          "velocity": 0.8661417322834646,
          "duration": 0.09375
        },
        {
          "name": "A3",
          "midi": 57,
          "time": 54.37499999999999,
          "velocity": 0.8346456692913385,
          "duration": 0.09375
        },
        {
          "name": "C4",
          "midi": 60,
          "time": 54.37499999999999,
          "velocity": 0.8503937007874016,
          "duration": 0.09375
        },
        {
          "name": "F3",
          "midi": 53,
          "time": 54.49999999999999,
          "velocity": 0.8346456692913385,
          "duration": 0.09375
        },
        {
          "name": "A3",
          "midi": 57,
          "time": 54.49999999999999,
          "velocity": 0.8346456692913385,
          "duration": 0.09375
        },
        {
          "name": "A3",
          "midi": 57,
          "time": 54.62499999999999,
          "velocity": 0.8346456692913385,
          "duration": 0.09375
        },
        {
          "name": "C4",
          "midi": 60,
          "time": 54.62499999999999,
          "velocity": 0.8346456692913385,
          "duration": 0.09375
        },
        {
          "name": "F3",
          "midi": 53,
          "time": 54.74999999999999,
          "velocity": 0.8346456692913385,
          "duration": 0.09375
        },
        {
          "name": "A3",
          "midi": 57,
          "time": 54.74999999999999,
          "velocity": 0.8346456692913385,
          "duration": 0.09375
        },
        {
          "name": "C3",
          "midi": 48,
          "time": 54.87499999999999,
          "velocity": 0.8346456692913385,
          "duration": 0.09375
        },
        {
          "name": "F3",
          "midi": 53,
          "time": 54.87499999999999,
          "velocity": 0.8346456692913385,
          "duration": 0.09375
        },
        {
          "name": "F3",
          "midi": 53,
          "time": 54.99999999999999,
          "velocity": 0.8346456692913385,
          "duration": 0.09375
        },
        {
          "name": "A3",
          "midi": 57,
          "time": 54.99999999999999,
          "velocity": 0.8346456692913385,
          "duration": 0.09375
        },
        {
          "name": "C3",
          "midi": 48,
          "time": 55.12499999999999,
          "velocity": 0.8346456692913385,
          "duration": 0.09375
        },
        {
          "name": "A3",
          "midi": 57,
          "time": 55.12499999999999,
          "velocity": 0.8346456692913385,
          "duration": 0.09375
        },
        {
          "name": "A#3",
          "midi": 58,
          "time": 55.24999999999999,
          "velocity": 0.8346456692913385,
          "duration": 0.09375
        },
        {
          "name": "F4",
          "midi": 65,
          "time": 55.24999999999999,
          "velocity": 0.8346456692913385,
          "duration": 0.09375
        },
        {
          "name": "A#3",
          "midi": 58,
          "time": 55.37499999999999,
          "velocity": 0.8346456692913385,
          "duration": 0.09375
        },
        {
          "name": "D4",
          "midi": 62,
          "time": 55.37499999999999,
          "velocity": 0.8346456692913385,
          "duration": 0.09375
        },
        {
          "name": "D4",
          "midi": 62,
          "time": 55.49999999999999,
          "velocity": 0.8346456692913385,
          "duration": 0.5
        },
        {
          "name": "F4",
          "midi": 65,
          "time": 55.49999999999999,
          "velocity": 0.8346456692913385,
          "duration": 0.5
        },
        {
          "name": "A#3",
          "midi": 58,
          "time": 55.99999999999999,
          "velocity": 0.8661417322834646,
          "duration": 0.09375
        },
        {
          "name": "D4",
          "midi": 62,
          "time": 55.99999999999999,
          "velocity": 0.8661417322834646,
          "duration": 0.09375
        },
        {
          "name": "D4",
          "midi": 62,
          "time": 56.12499999999999,
          "velocity": 0.7874015748031497,
          "duration": 0.09375
        },
        {
          "name": "F4",
          "midi": 65,
          "time": 56.12499999999999,
          "velocity": 0.8503937007874016,
          "duration": 0.09375
        },
        {
          "name": "F4",
          "midi": 65,
          "time": 56.24999999999999,
          "velocity": 0.8188976377952756,
          "duration": 0.09375
        },
        {
          "name": "A#4",
          "midi": 70,
          "time": 56.24999999999999,
          "velocity": 0.8031496062992126,
          "duration": 0.09375
        },
        {
          "name": "D4",
          "midi": 62,
          "time": 56.37499999999999,
          "velocity": 0.8031496062992126,
          "duration": 0.09375
        },
        {
          "name": "F4",
          "midi": 65,
          "time": 56.37499999999999,
          "velocity": 0.8503937007874016,
          "duration": 0.09375
        },
        {
          "name": "A#3",
          "midi": 58,
          "time": 56.49999999999999,
          "velocity": 0.8661417322834646,
          "duration": 0.09375
        },
        {
          "name": "D4",
          "midi": 62,
          "time": 56.49999999999999,
          "velocity": 0.8661417322834646,
          "duration": 0.09375
        },
        {
          "name": "D4",
          "midi": 62,
          "time": 56.62499999999999,
          "velocity": 0.8503937007874016,
          "duration": 0.09375
        },
        {
          "name": "F4",
          "midi": 65,
          "time": 56.62499999999999,
          "velocity": 0.8503937007874016,
          "duration": 0.09375
        },
        {
          "name": "F4",
          "midi": 65,
          "time": 56.74999999999999,
          "velocity": 0.8346456692913385,
          "duration": 0.09375
        },
        {
          "name": "A#4",
          "midi": 70,
          "time": 56.74999999999999,
          "velocity": 0.8661417322834646,
          "duration": 0.09375
        },
        {
          "name": "D4",
          "midi": 62,
          "time": 56.87499999999999,
          "velocity": 0.8503937007874016,
          "duration": 0.09375
        },
        {
          "name": "F4",
          "midi": 65,
          "time": 56.87499999999999,
          "velocity": 0.8188976377952756,
          "duration": 0.09375
        },
        {
          "name": "C4",
          "midi": 60,
          "time": 56.99999999999999,
          "velocity": 0.8661417322834646,
          "duration": 0.09375
        },
        {
          "name": "E4",
          "midi": 64,
          "time": 56.99999999999999,
          "velocity": 0.8661417322834646,
          "duration": 0.09375
        },
        {
          "name": "E4",
          "midi": 64,
          "time": 57.12499999999999,
          "velocity": 0.8031496062992126,
          "duration": 0.09375
        },
        {
          "name": "G4",
          "midi": 67,
          "time": 57.12499999999999,
          "velocity": 0.8661417322834646,
          "duration": 0.09375
        },
        {
          "name": "G4",
          "midi": 67,
          "time": 57.24999999999999,
          "velocity": 0.8188976377952756,
          "duration": 0.09375
        },
        {
          "name": "A#4",
          "midi": 70,
          "time": 57.24999999999999,
          "velocity": 0.8661417322834646,
          "duration": 0.09375
        },
        {
          "name": "E4",
          "midi": 64,
          "time": 57.37499999999999,
          "velocity": 0.8661417322834646,
          "duration": 0.09375
        },
        {
          "name": "G4",
          "midi": 67,
          "time": 57.37499999999999,
          "velocity": 0.8661417322834646,
          "duration": 0.09375
        },
        {
          "name": "C4",
          "midi": 60,
          "time": 57.49999999999999,
          "velocity": 0.8661417322834646,
          "duration": 0.5
        },
        {
          "name": "E4",
          "midi": 64,
          "time": 57.49999999999999,
          "velocity": 0.8661417322834646,
          "duration": 0.5
        },
        {
          "name": "C4",
          "midi": 60,
          "time": 57.99999999999999,
          "velocity": 0.8661417322834646,
          "duration": 0.09375
        },
        {
          "name": "E4",
          "midi": 64,
          "time": 57.99999999999999,
          "velocity": 0.8661417322834646,
          "duration": 0.09375
        },
        {
          "name": "E4",
          "midi": 64,
          "time": 58.12499999999999,
          "velocity": 0.8503937007874016,
          "duration": 0.09375
        },
        {
          "name": "G4",
          "midi": 67,
          "time": 58.12499999999999,
          "velocity": 0.8661417322834646,
          "duration": 0.09375
        },
        {
          "name": "G4",
          "midi": 67,
          "time": 58.24999999999999,
          "velocity": 0.8346456692913385,
          "duration": 0.09375
        },
        {
          "name": "A#4",
          "midi": 70,
          "time": 58.24999999999999,
          "velocity": 0.8661417322834646,
          "duration": 0.09375
        },
        {
          "name": "E4",
          "midi": 64,
          "time": 58.37499999999999,
          "velocity": 0.8661417322834646,
          "duration": 0.09375
        },
        {
          "name": "G4",
          "midi": 67,
          "time": 58.37499999999999,
          "velocity": 0.8661417322834646,
          "duration": 0.09375
        },
        {
          "name": "C4",
          "midi": 60,
          "time": 58.49999999999999,
          "velocity": 0.8346456692913385,
          "duration": 0.09375
        },
        {
          "name": "E4",
          "midi": 64,
          "time": 58.49999999999999,
          "velocity": 0.8346456692913385,
          "duration": 0.09375
        },
        {
          "name": "G3",
          "midi": 55,
          "time": 58.62499999999999,
          "velocity": 0.8346456692913385,
          "duration": 0.09375
        },
        {
          "name": "C4",
          "midi": 60,
          "time": 58.62499999999999,
          "velocity": 0.8346456692913385,
          "duration": 0.09375
        },
        {
          "name": "G3",
          "midi": 55,
          "time": 58.74999999999999,
          "velocity": 0.8503937007874016,
          "duration": 0.09375
        },
        {
          "name": "E4",
          "midi": 64,
          "time": 58.74999999999999,
          "velocity": 0.8503937007874016,
          "duration": 0.09375
        },
        {
          "name": "C4",
          "midi": 60,
          "time": 58.87499999999999,
          "velocity": 0.8661417322834646,
          "duration": 0.09375
        },
        {
          "name": "G4",
          "midi": 67,
          "time": 58.87499999999999,
          "velocity": 0.8661417322834646,
          "duration": 0.09375
        },
        {
          "name": "C4",
          "midi": 60,
          "time": 58.99999999999999,
          "velocity": 0.8661417322834646,
          "duration": 0.09375
        },
        {
          "name": "E4",
          "midi": 64,
          "time": 58.99999999999999,
          "velocity": 0.8661417322834646,
          "duration": 0.09375
        },
        {
          "name": "C4",
          "midi": 60,
          "time": 59.12499999999999,
          "velocity": 0.8661417322834646,
          "duration": 0.09375
        },
        {
          "name": "G4",
          "midi": 67,
          "time": 59.12499999999999,
          "velocity": 0.8661417322834646,
          "duration": 0.09375
        },
        {
          "name": "C3",
          "midi": 48,
          "time": 59.24999999999999,
          "velocity": 0.8661417322834646,
          "duration": 0.09375
        },
        {
          "name": "A3",
          "midi": 57,
          "time": 59.24999999999999,
          "velocity": 0.8661417322834646,
          "duration": 0.09375
        },
        {
          "name": "C4",
          "midi": 60,
          "time": 59.37499999999999,
          "velocity": 0.8661417322834646,
          "duration": 0.09375
        },
        {
          "name": "F4",
          "midi": 65,
          "time": 59.37499999999999,
          "velocity": 0.8661417322834646,
          "duration": 0.09375
        },
        {
          "name": "A3",
          "midi": 57,
          "time": 59.49999999999999,
          "velocity": 0.8661417322834646,
          "duration": 0.5
        },
        {
          "name": "C4",
          "midi": 60,
          "time": 59.49999999999999,
          "velocity": 0.8661417322834646,
          "duration": 0.5
        },
        {
          "name": "F3",
          "midi": 53,
          "time": 59.99999999999999,
          "velocity": 0.8661417322834646,
          "duration": 0.0833333333333286
        },
        {
          "name": "A3",
          "midi": 57,
          "time": 59.99999999999999,
          "velocity": 0.8188976377952756,
          "duration": 0.0729166666666643
        },
        {
          "name": "F3",
          "midi": 53,
          "time": 60.374999999999986,
          "velocity": 0.8031496062992126,
          "duration": 0.0833333333333357
        },
        {
          "name": "A3",
          "midi": 57,
          "time": 60.374999999999986,
          "velocity": 0.8346456692913385,
          "duration": 0.078125
        },
        {
          "name": "A3",
          "midi": 57,
          "time": 60.499999999999986,
          "velocity": 0.7874015748031497,
          "duration": 0.0572916666666643
        },
        {
          "name": "C4",
          "midi": 60,
          "time": 60.499999999999986,
          "velocity": 0.8031496062992126,
          "duration": 0.0572916666666643
        },
        {
          "name": "A3",
          "midi": 57,
          "time": 60.749999999999986,
          "velocity": 0.8188976377952756,
          "duration": 0.0677083333333286
        },
        {
          "name": "F4",
          "midi": 65,
          "time": 60.749999999999986,
          "velocity": 0.8661417322834646,
          "duration": 0.0572916666666643
        },
        {
          "name": "C4",
          "midi": 60,
          "time": 60.99999999999998,
          "velocity": 0.8661417322834646,
          "duration": 0.078125
        },
        {
          "name": "A4",
          "midi": 69,
          "time": 60.99999999999998,
          "velocity": 0.8661417322834646,
          "duration": 0.0989583333333357
        },
        {
          "name": "C4",
          "midi": 60,
          "time": 61.24999999999998,
          "velocity": 0.8188976377952756,
          "duration": 0.0572916666666643
        },
        {
          "name": "A4",
          "midi": 69,
          "time": 61.24999999999998,
          "velocity": 0.7874015748031497,
          "duration": 0.0572916666666643
        },
        {
          "name": "A4",
          "midi": 69,
          "time": 61.37499999999998,
          "velocity": 0.8661417322834646,
          "duration": 0.0625
        },
        {
          "name": "C5",
          "midi": 72,
          "time": 61.37499999999998,
          "velocity": 0.8661417322834646,
          "duration": 0.0625
        },
        {
          "name": "C4",
          "midi": 60,
          "time": 61.49999999999998,
          "velocity": 0.8661417322834646,
          "duration": 0.0625
        },
        {
          "name": "A4",
          "midi": 69,
          "time": 61.49999999999998,
          "velocity": 0.8188976377952756,
          "duration": 0.0572916666666643
        },
        {
          "name": "C4",
          "midi": 60,
          "time": 61.74999999999998,
          "velocity": 0.8661417322834646,
          "duration": 0.0520833333333357
        },
        {
          "name": "A4",
          "midi": 69,
          "time": 61.74999999999998,
          "velocity": 0.8188976377952756,
          "duration": 0.057291666666671404
        },
        {
          "name": "A4",
          "midi": 69,
          "time": 61.999999999999986,
          "velocity": 0.8661417322834646,
          "duration": 0.28125
        },
        {
          "name": "C5",
          "midi": 72,
          "time": 61.999999999999986,
          "velocity": 0.8661417322834646,
          "duration": 0.3072916666666643
        },
        {
          "name": "F4",
          "midi": 65,
          "time": 62.374999999999986,
          "velocity": 0.8188976377952756,
          "duration": 0.0520833333333357
        },
        {
          "name": "A4",
          "midi": 69,
          "time": 62.374999999999986,
          "velocity": 0.8031496062992126,
          "duration": 0.057291666666671404
        },
        {
          "name": "F4",
          "midi": 65,
          "time": 62.49999999999999,
          "velocity": 0.8188976377952756,
          "duration": 0.0729166666666643
        },
        {
          "name": "A4",
          "midi": 69,
          "time": 62.49999999999999,
          "velocity": 0.8346456692913385,
          "duration": 0.0625
        },
        {
          "name": "C4",
          "midi": 60,
          "time": 62.74999999999999,
          "velocity": 0.8346456692913385,
          "duration": 0.0520833333333357
        },
        {
          "name": "F4",
          "midi": 65,
          "time": 62.74999999999999,
          "velocity": 0.8346456692913385,
          "duration": 0.0520833333333357
        },
        {
          "name": "C4",
          "midi": 60,
          "time": 62.99999999999999,
          "velocity": 0.8661417322834646,
          "duration": 0.4375
        },
        {
          "name": "F4",
          "midi": 65,
          "time": 62.99999999999999,
          "velocity": 0.8346456692913385,
          "duration": 0.4375
        },
        {
          "name": "A3",
          "midi": 57,
          "time": 63.49999999999999,
          "velocity": 0.8661417322834646,
          "duration": 0.21875
        },
        {
          "name": "C4",
          "midi": 60,
          "time": 63.49999999999999,
          "velocity": 0.8346456692913385,
          "duration": 0.203125
        },
        {
          "name": "A#3",
          "midi": 58,
          "time": 63.99999999999999,
          "velocity": 0.8661417322834646,
          "duration": 0.4322916666666643
        },
        {
          "name": "D4",
          "midi": 62,
          "time": 63.99999999999999,
          "velocity": 0.8503937007874016,
          "duration": 0.4114583333333357
        },
        {
          "name": "D4",
          "midi": 62,
          "time": 64.49999999999999,
          "velocity": 0.8503937007874016,
          "duration": 0.4583333333333286
        },
        {
          "name": "F4",
          "midi": 65,
          "time": 64.49999999999999,
          "velocity": 0.8661417322834646,
          "duration": 0.4791666666666572
        },
        {
          "name": "A#3",
          "midi": 58,
          "time": 64.99999999999997,
          "velocity": 0.8503937007874016,
          "duration": 0.25
        },
        {
          "name": "D4",
          "midi": 62,
          "time": 64.99999999999997,
          "velocity": 0.8503937007874016,
          "duration": 0.25
        },
        {
          "name": "F3",
          "midi": 53,
          "time": 65.24999999999997,
          "velocity": 0.8503937007874016,
          "duration": 0.203125
        },
        {
          "name": "A3",
          "midi": 57,
          "time": 65.24999999999997,
          "velocity": 0.8503937007874016,
          "duration": 0.1770833333333286
        },
        {
          "name": "A3",
          "midi": 57,
          "time": 65.49999999999997,
          "velocity": 0.8503937007874016,
          "duration": 0.4479166666666714
        },
        {
          "name": "C4",
          "midi": 60,
          "time": 65.49999999999997,
          "velocity": 0.8661417322834646,
          "duration": 0.4583333333333428
        },
        {
          "name": "G3",
          "midi": 55,
          "time": 65.99999999999999,
          "velocity": 0.8503937007874016,
          "duration": 0.4375
        },
        {
          "name": "B3",
          "midi": 59,
          "time": 65.99999999999999,
          "velocity": 0.8503937007874016,
          "duration": 0.421875
        },
        {
          "name": "B3",
          "midi": 59,
          "time": 66.49999999999999,
          "velocity": 0.8503937007874016,
          "duration": 0.4166666666666714
        },
        {
          "name": "D4",
          "midi": 62,
          "time": 66.49999999999999,
          "velocity": 0.8503937007874016,
          "duration": 0.4479166666666714
        },
        {
          "name": "E4",
          "midi": 64,
          "time": 66.99999999999999,
          "velocity": 0.8661417322834646,
          "duration": 0.052083333333328596
        },
        {
          "name": "A#4",
          "midi": 70,
          "time": 66.99999999999999,
          "velocity": 0.8661417322834646,
          "duration": 0.052083333333328596
        },
        {
          "name": "E4",
          "midi": 64,
          "time": 67.24999999999999,
          "velocity": 0.8661417322834646,
          "duration": 0.052083333333328596
        },
        {
          "name": "A#4",
          "midi": 70,
          "time": 67.24999999999999,
          "velocity": 0.8661417322834646,
          "duration": 0.052083333333328596
        },
        {
          "name": "E4",
          "midi": 64,
          "time": 67.37499999999999,
          "velocity": 0.8503937007874016,
          "duration": 0.05729166666665719
        },
        {
          "name": "A#4",
          "midi": 70,
          "time": 67.37499999999999,
          "velocity": 0.8661417322834646,
          "duration": 0.052083333333328596
        },
        {
          "name": "E4",
          "midi": 64,
          "time": 67.49999999999997,
          "velocity": 0.8503937007874016,
          "duration": 0.052083333333328596
        },
        {
          "name": "A#4",
          "midi": 70,
          "time": 67.49999999999997,
          "velocity": 0.8661417322834646,
          "duration": 0.05729166666665719
        },
        {
          "name": "G4",
          "midi": 67,
          "time": 67.62499999999996,
          "velocity": 0.8661417322834646,
          "duration": 0.0729166666666714
        },
        {
          "name": "E4",
          "midi": 64,
          "time": 67.74999999999996,
          "velocity": 0.8661417322834646,
          "duration": 0.0677083333333286
        },
        {
          "name": "A#3",
          "midi": 58,
          "time": 67.87499999999996,
          "velocity": 0.8661417322834646,
          "duration": 0.052083333333328596
        },
        {
          "name": "A#3",
          "midi": 58,
          "time": 67.99999999999996,
          "velocity": 0.8661417322834646,
          "duration": 0.25
        },
        {
          "name": "E4",
          "midi": 64,
          "time": 67.99999999999996,
          "velocity": 0.8503937007874016,
          "duration": 0.25
        },
        {
          "name": "F3",
          "midi": 53,
          "time": 68.24999999999996,
          "velocity": 0.8661417322834646,
          "duration": 0.1822916666666572
        },
        {
          "name": "A3",
          "midi": 57,
          "time": 68.24999999999996,
          "velocity": 0.8503937007874016,
          "duration": 0.1614583333333286
        },
        {
          "name": "A3",
          "midi": 57,
          "time": 68.49999999999994,
          "velocity": 0.8503937007874016,
          "duration": 0.4583333333333286
        },
        {
          "name": "C4",
          "midi": 60,
          "time": 68.49999999999994,
          "velocity": 0.8661417322834646,
          "duration": 0.4791666666666572
        },
        {
          "name": "F3",
          "midi": 53,
          "time": 68.99999999999993,
          "velocity": 0.8503937007874016,
          "duration": 0.453125
        },
        {
          "name": "A3",
          "midi": 57,
          "time": 68.99999999999993,
          "velocity": 0.8503937007874016,
          "duration": 0.4270833333333286
        },
        {
          "name": "A3",
          "midi": 57,
          "time": 69.49999999999993,
          "velocity": 0.8503937007874016,
          "duration": 0.4479166666666714
        },
        {
          "name": "C4",
          "midi": 60,
          "time": 69.49999999999993,
          "velocity": 0.8661417322834646,
          "duration": 0.4583333333333428
        },
        {
          "name": "F3",
          "midi": 53,
          "time": 69.99999999999994,
          "velocity": 0.8661417322834646,
          "duration": 0.4375
        },
        {
          "name": "A3",
          "midi": 57,
          "time": 69.99999999999994,
          "velocity": 0.8503937007874016,
          "duration": 0.4270833333333286
        },
        {
          "name": "A3",
          "midi": 57,
          "time": 70.49999999999994,
          "velocity": 0.8661417322834646,
          "duration": 0.4427083333333286
        },
        {
          "name": "C4",
          "midi": 60,
          "time": 70.49999999999994,
          "velocity": 0.8661417322834646,
          "duration": 0.421875
        },
        {
          "name": "C4",
          "midi": 60,
          "time": 70.99999999999994,
          "velocity": 0.8661417322834646,
          "duration": 0.052083333333328596
        },
        {
          "name": "A4",
          "midi": 69,
          "time": 70.99999999999994,
          "velocity": 0.8661417322834646,
          "duration": 0.052083333333328596
        },
        {
          "name": "C4",
          "midi": 60,
          "time": 71.24999999999994,
          "velocity": 0.8661417322834646,
          "duration": 0.052083333333328596
        },
        {
          "name": "A4",
          "midi": 69,
          "time": 71.24999999999994,
          "velocity": 0.8661417322834646,
          "duration": 0.052083333333328596
        },
        {
          "name": "C4",
          "midi": 60,
          "time": 71.37499999999994,
          "velocity": 0.8661417322834646,
          "duration": 0.052083333333328596
        },
        {
          "name": "A4",
          "midi": 69,
          "time": 71.37499999999994,
          "velocity": 0.8661417322834646,
          "duration": 0.052083333333328596
        },
        {
          "name": "C4",
          "midi": 60,
          "time": 71.49999999999994,
          "velocity": 0.8503937007874016,
          "duration": 0.0625
        },
        {
          "name": "A4",
          "midi": 69,
          "time": 71.49999999999994,
          "velocity": 0.8661417322834646,
          "duration": 0.078125
        },
        {
          "name": "F4",
          "midi": 65,
          "time": 71.62499999999994,
          "velocity": 0.8661417322834646,
          "duration": 0.0625
        },
        {
          "name": "C4",
          "midi": 60,
          "time": 71.74999999999994,
          "velocity": 0.8661417322834646,
          "duration": 0.078125
        },
        {
          "name": "A3",
          "midi": 57,
          "time": 71.87499999999994,
          "velocity": 0.8661417322834646,
          "duration": 0.052083333333328596
        },
        {
          "name": "A#3",
          "midi": 58,
          "time": 71.99999999999994,
          "velocity": 0.8661417322834646,
          "duration": 0.4322916666666572
        },
        {
          "name": "D4",
          "midi": 62,
          "time": 71.99999999999994,
          "velocity": 0.8503937007874016,
          "duration": 0.4114583333333286
        },
        {
          "name": "D4",
          "midi": 62,
          "time": 72.49999999999993,
          "velocity": 0.8503937007874016,
          "duration": 0.4583333333333286
        },
        {
          "name": "F4",
          "midi": 65,
          "time": 72.49999999999993,
          "velocity": 0.8661417322834646,
          "duration": 0.4791666666666572
        },
        {
          "name": "A#3",
          "midi": 58,
          "time": 72.99999999999991,
          "velocity": 0.8503937007874016,
          "duration": 0.25
        },
        {
          "name": "D4",
          "midi": 62,
          "time": 72.99999999999991,
          "velocity": 0.8503937007874016,
          "duration": 0.25
        },
        {
          "name": "F3",
          "midi": 53,
          "time": 73.24999999999991,
          "velocity": 0.8503937007874016,
          "duration": 0.203125
        },
        {
          "name": "A3",
          "midi": 57,
          "time": 73.24999999999991,
          "velocity": 0.8503937007874016,
          "duration": 0.1770833333333286
        },
        {
          "name": "A3",
          "midi": 57,
          "time": 73.49999999999991,
          "velocity": 0.8503937007874016,
          "duration": 0.4479166666666714
        },
        {
          "name": "C4",
          "midi": 60,
          "time": 73.49999999999991,
          "velocity": 0.8661417322834646,
          "duration": 0.4583333333333428
        },
        {
          "name": "A#3",
          "midi": 58,
          "time": 73.99999999999993,
          "velocity": 0.8661417322834646,
          "duration": 0.4479166666666714
        },
        {
          "name": "E4",
          "midi": 64,
          "time": 73.99999999999993,
          "velocity": 0.8661417322834646,
          "duration": 0.4166666666666714
        },
        {
          "name": "E4",
          "midi": 64,
          "time": 74.49999999999993,
          "velocity": 0.8503937007874016,
          "duration": 0.5
        },
        {
          "name": "G4",
          "midi": 67,
          "time": 74.49999999999993,
          "velocity": 0.8661417322834646,
          "duration": 0.5
        },
        {
          "name": "A3",
          "midi": 57,
          "time": 74.99999999999993,
          "velocity": 0.8503937007874016,
          "duration": 0.0729166666666714
        },
        {
          "name": "C4",
          "midi": 60,
          "time": 74.99999999999993,
          "velocity": 0.8661417322834646,
          "duration": 0.057291666666671404
        },
        {
          "name": "F3",
          "midi": 53,
          "time": 75.12499999999993,
          "velocity": 0.8661417322834646,
          "duration": 0.09375
        },
        {
          "name": "A3",
          "midi": 57,
          "time": 75.24999999999993,
          "velocity": 0.8661417322834646,
          "duration": 0.0885416666666714
        },
        {
          "name": "C4",
          "midi": 60,
          "time": 75.37499999999993,
          "velocity": 0.8661417322834646,
          "duration": 0.078125
        },
        {
          "name": "A3",
          "midi": 57,
          "time": 75.49999999999993,
          "velocity": 0.8661417322834646,
          "duration": 0.0833333333333286
        },
        {
          "name": "C4",
          "midi": 60,
          "time": 75.62499999999993,
          "velocity": 0.8661417322834646,
          "duration": 0.09375
        },
        {
          "name": "F4",
          "midi": 65,
          "time": 75.74999999999993,
          "velocity": 0.8661417322834646,
          "duration": 0.09375
        },
        {
          "name": "C4",
          "midi": 60,
          "time": 75.87499999999993,
          "velocity": 0.8661417322834646,
          "duration": 0.052083333333328596
        },
        {
          "name": "F3",
          "midi": 53,
          "time": 75.99999999999993,
          "velocity": 0.8661417322834646,
          "duration": 0.09375
        },
        {
          "name": "A3",
          "midi": 57,
          "time": 75.99999999999993,
          "velocity": 0.8661417322834646,
          "duration": 0.09375
        },
        {
          "name": "A3",
          "midi": 57,
          "time": 76.12499999999993,
          "velocity": 0.7874015748031497,
          "duration": 0.09375
        },
        {
          "name": "C4",
          "midi": 60,
          "time": 76.12499999999993,
          "velocity": 0.8661417322834646,
          "duration": 0.09375
        },
        {
          "name": "A3",
          "midi": 57,
          "time": 76.24999999999993,
          "velocity": 0.8188976377952756,
          "duration": 0.0625
        },
        {
          "name": "F4",
          "midi": 65,
          "time": 76.24999999999993,
          "velocity": 0.8188976377952756,
          "duration": 0.0625
        },
        {
          "name": "A3",
          "midi": 57,
          "time": 76.37499999999993,
          "velocity": 0.8188976377952756,
          "duration": 0.125
        },
        {
          "name": "F4",
          "midi": 65,
          "time": 76.37499999999993,
          "velocity": 0.8188976377952756,
          "duration": 0.125
        },
        {
          "name": "C4",
          "midi": 60,
          "time": 76.49999999999993,
          "velocity": 0.8188976377952756,
          "duration": 0.125
        },
        {
          "name": "A4",
          "midi": 69,
          "time": 76.49999999999993,
          "velocity": 0.8188976377952756,
          "duration": 0.125
        },
        {
          "name": "A3",
          "midi": 57,
          "time": 76.62499999999993,
          "velocity": 0.8188976377952756,
          "duration": 0.125
        },
        {
          "name": "F4",
          "midi": 65,
          "time": 76.62499999999993,
          "velocity": 0.8188976377952756,
          "duration": 0.125
        },
        {
          "name": "C4",
          "midi": 60,
          "time": 76.74999999999993,
          "velocity": 0.8346456692913385,
          "duration": 0.125
        },
        {
          "name": "A4",
          "midi": 69,
          "time": 76.74999999999993,
          "velocity": 0.8346456692913385,
          "duration": 0.125
        },
        {
          "name": "F4",
          "midi": 65,
          "time": 76.87499999999993,
          "velocity": 0.8031496062992126,
          "duration": 0.125
        },
        {
          "name": "C5",
          "midi": 72,
          "time": 76.87499999999993,
          "velocity": 0.8031496062992126,
          "duration": 0.125
        },
        {
          "name": "A4",
          "midi": 69,
          "time": 76.99999999999993,
          "velocity": 0.7874015748031497,
          "duration": 0.125
        },
        {
          "name": "F5",
          "midi": 77,
          "time": 76.99999999999993,
          "velocity": 0.7874015748031497,
          "duration": 0.125
        },
        {
          "name": "A4",
          "midi": 69,
          "time": 77.24999999999993,
          "velocity": 0.7874015748031497,
          "duration": 0.0625
        },
        {
          "name": "F5",
          "midi": 77,
          "time": 77.24999999999993,
          "velocity": 0.7874015748031497,
          "duration": 0.0625
        },
        {
          "name": "C5",
          "midi": 72,
          "time": 77.37499999999993,
          "velocity": 0.7874015748031497,
          "duration": 0.125
        },
        {
          "name": "F5",
          "midi": 77,
          "time": 77.37499999999993,
          "velocity": 0.7874015748031497,
          "duration": 0.125
        },
        {
          "name": "A4",
          "midi": 69,
          "time": 77.49999999999993,
          "velocity": 0.7874015748031497,
          "duration": 0.125
        },
        {
          "name": "F5",
          "midi": 77,
          "time": 77.49999999999993,
          "velocity": 0.7874015748031497,
          "duration": 0.125
        },
        {
          "name": "F4",
          "midi": 65,
          "time": 77.62499999999993,
          "velocity": 0.8031496062992126,
          "duration": 0.125
        },
        {
          "name": "C5",
          "midi": 72,
          "time": 77.62499999999993,
          "velocity": 0.8031496062992126,
          "duration": 0.125
        },
        {
          "name": "C4",
          "midi": 60,
          "time": 77.74999999999993,
          "velocity": 0.8188976377952756,
          "duration": 0.125
        },
        {
          "name": "A4",
          "midi": 69,
          "time": 77.74999999999993,
          "velocity": 0.8188976377952756,
          "duration": 0.125
        },
        {
          "name": "F4",
          "midi": 65,
          "time": 77.87499999999993,
          "velocity": 0.8188976377952756,
          "duration": 0.125
        },
        {
          "name": "C5",
          "midi": 72,
          "time": 77.87499999999993,
          "velocity": 0.8188976377952756,
          "duration": 0.125
        },
        {
          "name": "F3",
          "midi": 53,
          "time": 77.99999999999993,
          "velocity": 0.7874015748031497,
          "duration": 1.9895833333333286
        },
        {
          "name": "A3",
          "midi": 57,
          "time": 78.24999999999993,
          "velocity": 0.8661417322834646,
          "duration": 0.0625
        },
        {
          "name": "A3",
          "midi": 57,
          "time": 78.37499999999993,
          "velocity": 0.8661417322834646,
          "duration": 0.0625
        },
        {
          "name": "A3",
          "midi": 57,
          "time": 78.49999999999993,
          "velocity": 0.7874015748031497,
          "duration": 1.4895833333333286
        },
        {
          "name": "C4",
          "midi": 60,
          "time": 78.74999999999993,
          "velocity": 0.8661417322834646,
          "duration": 0.0625
        },
        {
          "name": "C4",
          "midi": 60,
          "time": 78.87499999999993,
          "velocity": 0.8661417322834646,
          "duration": 0.0625
        },
        {
          "name": "C4",
          "midi": 60,
          "time": 78.99999999999993,
          "velocity": 0.7874015748031497,
          "duration": 0.9895833333333286
        },
        {
          "name": "F4",
          "midi": 65,
          "time": 79.24999999999993,
          "velocity": 0.8661417322834646,
          "duration": 0.0625
        },
        {
          "name": "F4",
          "midi": 65,
          "time": 79.37499999999993,
          "velocity": 0.8661417322834646,
          "duration": 0.0625
        },
        {
          "name": "A4",
          "midi": 69,
          "time": 79.49999999999993,
          "velocity": 0.8661417322834646,
          "duration": 0.0625
        },
        {
          "name": "F4",
          "midi": 65,
          "time": 79.62499999999993,
          "velocity": 0.8661417322834646,
          "duration": 0.0625
        },
        {
          "name": "A4",
          "midi": 69,
          "time": 79.74999999999993,
          "velocity": 0.8661417322834646,
          "duration": 0.0625
        },
        {
          "name": "C5",
          "midi": 72,
          "time": 79.87499999999993,
          "velocity": 0.8661417322834646,
          "duration": 0.0625
        },
        {
          "name": "F3",
          "midi": 53,
          "time": 79.99999999999993,
          "velocity": 0.8661417322834646,
          "duration": 0.4322916666666572
        },
        {
          "name": "A3",
          "midi": 57,
          "time": 79.99999999999993,
          "velocity": 0.8503937007874016,
          "duration": 0.4114583333333286
        },
        {
          "name": "A3",
          "midi": 57,
          "time": 80.49999999999991,
          "velocity": 0.8503937007874016,
          "duration": 0.4583333333333286
        },
        {
          "name": "C4",
          "midi": 60,
          "time": 80.49999999999991,
          "velocity": 0.8661417322834646,
          "duration": 0.4791666666666572
        },
        {
          "name": "F3",
          "midi": 53,
          "time": 80.9999999999999,
          "velocity": 0.8503937007874016,
          "duration": 0.453125
        },
        {
          "name": "A3",
          "midi": 57,
          "time": 80.9999999999999,
          "velocity": 0.8503937007874016,
          "duration": 0.4270833333333286
        },
        {
          "name": "A3",
          "midi": 57,
          "time": 81.4999999999999,
          "velocity": 0.8503937007874016,
          "duration": 0.4479166666666714
        },
        {
          "name": "C4",
          "midi": 60,
          "time": 81.4999999999999,
          "velocity": 0.8661417322834646,
          "duration": 0.4583333333333428
        },
        {
          "name": "F3",
          "midi": 53,
          "time": 81.99999999999991,
          "velocity": 0.8503937007874016,
          "duration": 0.4375
        },
        {
          "name": "A3",
          "midi": 57,
          "time": 81.99999999999991,
          "velocity": 0.8503937007874016,
          "duration": 0.421875
        },
        {
          "name": "A3",
          "midi": 57,
          "time": 82.49999999999991,
          "velocity": 0.8503937007874016,
          "duration": 0.4166666666666714
        },
        {
          "name": "C4",
          "midi": 60,
          "time": 82.49999999999991,
          "velocity": 0.8503937007874016,
          "duration": 0.4479166666666714
        },
        {
          "name": "A3",
          "midi": 57,
          "time": 82.99999999999991,
          "velocity": 0.8661417322834646,
          "duration": 0.052083333333328596
        },
        {
          "name": "F4",
          "midi": 65,
          "time": 82.99999999999991,
          "velocity": 0.8661417322834646,
          "duration": 0.052083333333328596
        },
        {
          "name": "A3",
          "midi": 57,
          "time": 83.24999999999991,
          "velocity": 0.8661417322834646,
          "duration": 0.052083333333328596
        },
        {
          "name": "F4",
          "midi": 65,
          "time": 83.24999999999991,
          "velocity": 0.8661417322834646,
          "duration": 0.052083333333328596
        },
        {
          "name": "A3",
          "midi": 57,
          "time": 83.37499999999991,
          "velocity": 0.8503937007874016,
          "duration": 0.05729166666665719
        },
        {
          "name": "F4",
          "midi": 65,
          "time": 83.37499999999991,
          "velocity": 0.8661417322834646,
          "duration": 0.052083333333328596
        },
        {
          "name": "A3",
          "midi": 57,
          "time": 83.4999999999999,
          "velocity": 0.8503937007874016,
          "duration": 0.052083333333328596
        },
        {
          "name": "F4",
          "midi": 65,
          "time": 83.4999999999999,
          "velocity": 0.8661417322834646,
          "duration": 0.05729166666665719
        },
        {
          "name": "C4",
          "midi": 60,
          "time": 83.62499999999989,
          "velocity": 0.8661417322834646,
          "duration": 0.0729166666666714
        },
        {
          "name": "A3",
          "midi": 57,
          "time": 83.74999999999989,
          "velocity": 0.8661417322834646,
          "duration": 0.0677083333333286
        },
        {
          "name": "F3",
          "midi": 53,
          "time": 83.87499999999989,
          "velocity": 0.8661417322834646,
          "duration": 0.052083333333328596
        },
        {
          "name": "F3",
          "midi": 53,
          "time": 83.99999999999989,
          "velocity": 0.8661417322834646,
          "duration": 0.4322916666666572
        },
        {
          "name": "A3",
          "midi": 57,
          "time": 83.99999999999989,
          "velocity": 0.8503937007874016,
          "duration": 0.4114583333333286
        },
        {
          "name": "A3",
          "midi": 57,
          "time": 84.49999999999987,
          "velocity": 0.8503937007874016,
          "duration": 0.4583333333333286
        },
        {
          "name": "C4",
          "midi": 60,
          "time": 84.49999999999987,
          "velocity": 0.8661417322834646,
          "duration": 0.4791666666666572
        },
        {
          "name": "A#3",
          "midi": 58,
          "time": 84.99999999999986,
          "velocity": 0.8503937007874016,
          "duration": 0.453125
        },
        {
          "name": "D4",
          "midi": 62,
          "time": 84.99999999999986,
          "velocity": 0.8503937007874016,
          "duration": 0.4270833333333286
        },
        {
          "name": "D4",
          "midi": 62,
          "time": 85.49999999999986,
          "velocity": 0.8503937007874016,
          "duration": 0.4479166666666714
        },
        {
          "name": "F4",
          "midi": 65,
          "time": 85.49999999999986,
          "velocity": 0.8661417322834646,
          "duration": 0.4583333333333428
        },
        {
          "name": "A#3",
          "midi": 58,
          "time": 85.99999999999987,
          "velocity": 0.8661417322834646,
          "duration": 0.4375
        },
        {
          "name": "D4",
          "midi": 62,
          "time": 85.99999999999987,
          "velocity": 0.8503937007874016,
          "duration": 0.4270833333333286
        },
        {
          "name": "D4",
          "midi": 62,
          "time": 86.49999999999987,
          "velocity": 0.8661417322834646,
          "duration": 0.4427083333333286
        },
        {
          "name": "F4",
          "midi": 65,
          "time": 86.49999999999987,
          "velocity": 0.8661417322834646,
          "duration": 0.421875
        },
        {
          "name": "G4",
          "midi": 67,
          "time": 86.99999999999987,
          "velocity": 0.8661417322834646,
          "duration": 0.052083333333328596
        },
        {
          "name": "E5",
          "midi": 76,
          "time": 86.99999999999987,
          "velocity": 0.8661417322834646,
          "duration": 0.052083333333328596
        },
        {
          "name": "G4",
          "midi": 67,
          "time": 87.24999999999987,
          "velocity": 0.8661417322834646,
          "duration": 0.052083333333328596
        },
        {
          "name": "E5",
          "midi": 76,
          "time": 87.24999999999987,
          "velocity": 0.8661417322834646,
          "duration": 0.052083333333328596
        },
        {
          "name": "G4",
          "midi": 67,
          "time": 87.37499999999987,
          "velocity": 0.8661417322834646,
          "duration": 0.052083333333328596
        },
        {
          "name": "E5",
          "midi": 76,
          "time": 87.37499999999987,
          "velocity": 0.8661417322834646,
          "duration": 0.052083333333328596
        },
        {
          "name": "G4",
          "midi": 67,
          "time": 87.49999999999987,
          "velocity": 0.8503937007874016,
          "duration": 0.0625
        },
        {
          "name": "E5",
          "midi": 76,
          "time": 87.49999999999987,
          "velocity": 0.8661417322834646,
          "duration": 0.078125
        },
        {
          "name": "A#4",
          "midi": 70,
          "time": 87.62499999999987,
          "velocity": 0.8661417322834646,
          "duration": 0.0625
        },
        {
          "name": "G4",
          "midi": 67,
          "time": 87.74999999999987,
          "velocity": 0.8661417322834646,
          "duration": 0.078125
        },
        {
          "name": "E4",
          "midi": 64,
          "time": 87.87499999999987,
          "velocity": 0.8661417322834646,
          "duration": 0.052083333333328596
        },
        {
          "name": "A#3",
          "midi": 58,
          "time": 87.99999999999987,
          "velocity": 0.8661417322834646,
          "duration": 0.4322916666666572
        },
        {
          "name": "E4",
          "midi": 64,
          "time": 87.99999999999987,
          "velocity": 0.8503937007874016,
          "duration": 0.4114583333333286
        },
        {
          "name": "E4",
          "midi": 64,
          "time": 88.49999999999986,
          "velocity": 0.8503937007874016,
          "duration": 0.4583333333333286
        },
        {
          "name": "G4",
          "midi": 67,
          "time": 88.49999999999986,
          "velocity": 0.8661417322834646,
          "duration": 0.4791666666666572
        },
        {
          "name": "F3",
          "midi": 53,
          "time": 88.99999999999984,
          "velocity": 0.8503937007874016,
          "duration": 0.453125
        },
        {
          "name": "A3",
          "midi": 57,
          "time": 88.99999999999984,
          "velocity": 0.8503937007874016,
          "duration": 0.4270833333333286
        },
        {
          "name": "A3",
          "midi": 57,
          "time": 89.49999999999984,
          "velocity": 0.8503937007874016,
          "duration": 0.4479166666666714
        },
        {
          "name": "C4",
          "midi": 60,
          "time": 89.49999999999984,
          "velocity": 0.8661417322834646,
          "duration": 0.4583333333333428
        },
        {
          "name": "F3",
          "midi": 53,
          "time": 89.99999999999986,
          "velocity": 0.8661417322834646,
          "duration": 0.4479166666666714
        },
        {
          "name": "A3",
          "midi": 57,
          "time": 89.99999999999986,
          "velocity": 0.8661417322834646,
          "duration": 0.4166666666666714
        },
        {
          "name": "A3",
          "midi": 57,
          "time": 90.49999999999986,
          "velocity": 0.8503937007874016,
          "duration": 0.5729166666666714
        },
        {
          "name": "C4",
          "midi": 60,
          "time": 90.49999999999986,
          "velocity": 0.8661417322834646,
          "duration": 0.5572916666666714
        },
        {
          "name": "F3",
          "midi": 53,
          "time": 91.12499999999986,
          "velocity": 0.8661417322834646,
          "duration": 0.09375
        },
        {
          "name": "A3",
          "midi": 57,
          "time": 91.24999999999986,
          "velocity": 0.8661417322834646,
          "duration": 0.0885416666666714
        },
        {
          "name": "C4",
          "midi": 60,
          "time": 91.37499999999986,
          "velocity": 0.8661417322834646,
          "duration": 0.078125
        },
        {
          "name": "A3",
          "midi": 57,
          "time": 91.49999999999986,
          "velocity": 0.8661417322834646,
          "duration": 0.0833333333333286
        },
        {
          "name": "C4",
          "midi": 60,
          "time": 91.62499999999986,
          "velocity": 0.8661417322834646,
          "duration": 0.09375
        },
        {
          "name": "F4",
          "midi": 65,
          "time": 91.74999999999986,
          "velocity": 0.8661417322834646,
          "duration": 0.09375
        },
        {
          "name": "C4",
          "midi": 60,
          "time": 91.87499999999986,
          "velocity": 0.8661417322834646,
          "duration": 0.052083333333328596
        },
        {
          "name": "F3",
          "midi": 53,
          "time": 91.99999999999986,
          "velocity": 0.8661417322834646,
          "duration": 0.4322916666666572
        },
        {
          "name": "A3",
          "midi": 57,
          "time": 91.99999999999986,
          "velocity": 0.8503937007874016,
          "duration": 0.4114583333333286
        },
        {
          "name": "A3",
          "midi": 57,
          "time": 92.49999999999984,
          "velocity": 0.8503937007874016,
          "duration": 0.4583333333333286
        },
        {
          "name": "C4",
          "midi": 60,
          "time": 92.49999999999984,
          "velocity": 0.8661417322834646,
          "duration": 0.4791666666666572
        },
        {
          "name": "A#3",
          "midi": 58,
          "time": 92.99999999999983,
          "velocity": 0.8503937007874016,
          "duration": 0.453125
        },
        {
          "name": "D4",
          "midi": 62,
          "time": 92.99999999999983,
          "velocity": 0.8503937007874016,
          "duration": 0.4270833333333286
        },
        {
          "name": "D4",
          "midi": 62,
          "time": 93.49999999999983,
          "velocity": 0.8503937007874016,
          "duration": 0.4479166666666714
        },
        {
          "name": "F4",
          "midi": 65,
          "time": 93.49999999999983,
          "velocity": 0.8661417322834646,
          "duration": 0.4583333333333428
        },
        {
          "name": "F4",
          "midi": 65,
          "time": 93.99999999999984,
          "velocity": 0.8661417322834646,
          "duration": 0.203125
        },
        {
          "name": "D5",
          "midi": 74,
          "time": 93.99999999999984,
          "velocity": 0.8661417322834646,
          "duration": 0.1927083333333286
        },
        {
          "name": "D4",
          "midi": 62,
          "time": 94.24999999999984,
          "velocity": 0.8661417322834646,
          "duration": 0.05729166666665719
        },
        {
          "name": "A#4",
          "midi": 70,
          "time": 94.24999999999984,
          "velocity": 0.8661417322834646,
          "duration": 0.052083333333328596
        },
        {
          "name": "D4",
          "midi": 62,
          "time": 94.49999999999983,
          "velocity": 0.8661417322834646,
          "duration": 0.1822916666666714
        },
        {
          "name": "A#4",
          "midi": 70,
          "time": 94.49999999999983,
          "velocity": 0.8661417322834646,
          "duration": 0.15625
        },
        {
          "name": "D4",
          "midi": 62,
          "time": 94.74999999999983,
          "velocity": 0.8188976377952756,
          "duration": 0.052083333333328596
        },
        {
          "name": "F4",
          "midi": 65,
          "time": 94.74999999999983,
          "velocity": 0.8188976377952756,
          "duration": 0.052083333333328596
        },
        {
          "name": "D4",
          "midi": 62,
          "time": 94.87499999999983,
          "velocity": 0.8503937007874016,
          "duration": 0.052083333333328596
        },
        {
          "name": "F4",
          "midi": 65,
          "time": 94.87499999999983,
          "velocity": 0.8346456692913385,
          "duration": 0.052083333333328596
        },
        {
          "name": "E4",
          "midi": 64,
          "time": 94.99999999999983,
          "velocity": 0.8661417322834646,
          "duration": 0.1875
        },
        {
          "name": "G4",
          "midi": 67,
          "time": 94.99999999999983,
          "velocity": 0.8661417322834646,
          "duration": 0.2239583333333286
        },
        {
          "name": "A#3",
          "midi": 58,
          "time": 95.24999999999983,
          "velocity": 0.8661417322834646,
          "duration": 0.078125
        },
        {
          "name": "E4",
          "midi": 64,
          "time": 95.24999999999983,
          "velocity": 0.8661417322834646,
          "duration": 0.0677083333333286
        },
        {
          "name": "G3",
          "midi": 55,
          "time": 95.49999999999983,
          "velocity": 0.8661417322834646,
          "duration": 0.052083333333328596
        },
        {
          "name": "A#3",
          "midi": 58,
          "time": 95.49999999999983,
          "velocity": 0.8661417322834646,
          "duration": 0.052083333333328596
        },
        {
          "name": "G3",
          "midi": 55,
          "time": 95.74999999999983,
          "velocity": 0.8661417322834646,
          "duration": 0.0625
        },
        {
          "name": "E4",
          "midi": 64,
          "time": 95.74999999999983,
          "velocity": 0.8661417322834646,
          "duration": 0.0677083333333286
        },
        {
          "name": "A#3",
          "midi": 58,
          "time": 95.99999999999983,
          "velocity": 0.8661417322834646,
          "duration": 0.4322916666666572
        },
        {
          "name": "E4",
          "midi": 64,
          "time": 95.99999999999983,
          "velocity": 0.8503937007874016,
          "duration": 0.4114583333333286
        },
        {
          "name": "E4",
          "midi": 64,
          "time": 96.49999999999982,
          "velocity": 0.8503937007874016,
          "duration": 0.4583333333333286
        },
        {
          "name": "G4",
          "midi": 67,
          "time": 96.49999999999982,
          "velocity": 0.8661417322834646,
          "duration": 0.4791666666666572
        },
        {
          "name": "A#3",
          "midi": 58,
          "time": 96.9999999999998,
          "velocity": 0.8503937007874016,
          "duration": 0.25
        },
        {
          "name": "E4",
          "midi": 64,
          "time": 96.9999999999998,
          "velocity": 0.8503937007874016,
          "duration": 0.25
        },
        {
          "name": "F3",
          "midi": 53,
          "time": 97.2499999999998,
          "velocity": 0.8503937007874016,
          "duration": 0.203125
        },
        {
          "name": "A3",
          "midi": 57,
          "time": 97.2499999999998,
          "velocity": 0.8503937007874016,
          "duration": 0.1770833333333286
        },
        {
          "name": "A3",
          "midi": 57,
          "time": 97.4999999999998,
          "velocity": 0.8503937007874016,
          "duration": 0.4479166666666714
        },
        {
          "name": "C4",
          "midi": 60,
          "time": 97.4999999999998,
          "velocity": 0.8661417322834646,
          "duration": 0.4583333333333428
        },
        {
          "name": "F3",
          "midi": 53,
          "time": 97.99999999999982,
          "velocity": 0.8503937007874016,
          "duration": 0.4375
        },
        {
          "name": "A3",
          "midi": 57,
          "time": 97.99999999999982,
          "velocity": 0.8503937007874016,
          "duration": 0.421875
        },
        {
          "name": "F4",
          "midi": 65,
          "time": 98.49999999999982,
          "velocity": 0.8188976377952756,
          "duration": 0.0729166666666714
        },
        {
          "name": "A4",
          "midi": 69,
          "time": 98.49999999999982,
          "velocity": 0.8346456692913385,
          "duration": 0.0625
        },
        {
          "name": "C4",
          "midi": 60,
          "time": 98.74999999999982,
          "velocity": 0.8346456692913385,
          "duration": 0.052083333333328596
        },
        {
          "name": "F4",
          "midi": 65,
          "time": 98.74999999999982,
          "velocity": 0.8346456692913385,
          "duration": 0.052083333333328596
        },
        {
          "name": "C4",
          "midi": 60,
          "time": 98.99999999999982,
          "velocity": 0.8661417322834646,
          "duration": 0.4375
        },
        {
          "name": "F4",
          "midi": 65,
          "time": 98.99999999999982,
          "velocity": 0.8346456692913385,
          "duration": 0.4375
        },
        {
          "name": "A3",
          "midi": 57,
          "time": 99.49999999999982,
          "velocity": 0.8661417322834646,
          "duration": 0.21875
        },
        {
          "name": "C4",
          "midi": 60,
          "time": 99.49999999999982,
          "velocity": 0.8346456692913385,
          "duration": 0.203125
        },
        {
          "name": "F3",
          "midi": 53,
          "time": 99.99999999999982,
          "velocity": 0.8661417322834646,
          "duration": 0.09375
        },
        {
          "name": "A3",
          "midi": 57,
          "time": 99.99999999999982,
          "velocity": 0.8661417322834646,
          "duration": 0.09375
        },
        {
          "name": "A3",
          "midi": 57,
          "time": 100.12499999999982,
          "velocity": 0.7874015748031497,
          "duration": 0.09375
        },
        {
          "name": "C4",
          "midi": 60,
          "time": 100.12499999999982,
          "velocity": 0.8503937007874016,
          "duration": 0.09375
        },
        {
          "name": "C4",
          "midi": 60,
          "time": 100.24999999999982,
          "velocity": 0.8188976377952756,
          "duration": 0.09375
        },
        {
          "name": "F4",
          "midi": 65,
          "time": 100.24999999999982,
          "velocity": 0.8031496062992126,
          "duration": 0.09375
        },
        {
          "name": "A3",
          "midi": 57,
          "time": 100.37499999999982,
          "velocity": 0.8031496062992126,
          "duration": 0.09375
        },
        {
          "name": "C4",
          "midi": 60,
          "time": 100.37499999999982,
          "velocity": 0.8503937007874016,
          "duration": 0.09375
        },
        {
          "name": "F3",
          "midi": 53,
          "time": 100.49999999999982,
          "velocity": 0.8661417322834646,
          "duration": 0.09375
        },
        {
          "name": "A3",
          "midi": 57,
          "time": 100.49999999999982,
          "velocity": 0.8661417322834646,
          "duration": 0.09375
        },
        {
          "name": "A3",
          "midi": 57,
          "time": 100.62499999999982,
          "velocity": 0.8503937007874016,
          "duration": 0.09375
        },
        {
          "name": "C4",
          "midi": 60,
          "time": 100.62499999999982,
          "velocity": 0.8503937007874016,
          "duration": 0.09375
        },
        {
          "name": "C4",
          "midi": 60,
          "time": 100.74999999999982,
          "velocity": 0.8346456692913385,
          "duration": 0.09375
        },
        {
          "name": "F4",
          "midi": 65,
          "time": 100.74999999999982,
          "velocity": 0.8661417322834646,
          "duration": 0.09375
        },
        {
          "name": "A3",
          "midi": 57,
          "time": 100.87499999999982,
          "velocity": 0.8503937007874016,
          "duration": 0.09375
        },
        {
          "name": "C4",
          "midi": 60,
          "time": 100.87499999999982,
          "velocity": 0.8188976377952756,
          "duration": 0.09375
        },
        {
          "name": "F3",
          "midi": 53,
          "time": 100.99999999999982,
          "velocity": 0.8661417322834646,
          "duration": 0.09375
        },
        {
          "name": "A3",
          "midi": 57,
          "time": 100.99999999999982,
          "velocity": 0.8661417322834646,
          "duration": 0.09375
        },
        {
          "name": "A3",
          "midi": 57,
          "time": 101.12499999999982,
          "velocity": 0.8031496062992126,
          "duration": 0.09375
        },
        {
          "name": "C4",
          "midi": 60,
          "time": 101.12499999999982,
          "velocity": 0.8661417322834646,
          "duration": 0.09375
        },
        {
          "name": "C4",
          "midi": 60,
          "time": 101.24999999999982,
          "velocity": 0.8188976377952756,
          "duration": 0.09375
        },
        {
          "name": "F4",
          "midi": 65,
          "time": 101.24999999999982,
          "velocity": 0.8661417322834646,
          "duration": 0.09375
        },
        {
          "name": "A3",
          "midi": 57,
          "time": 101.37499999999982,
          "velocity": 0.8661417322834646,
          "duration": 0.09375
        },
        {
          "name": "C4",
          "midi": 60,
          "time": 101.37499999999982,
          "velocity": 0.8661417322834646,
          "duration": 0.09375
        },
        {
          "name": "F3",
          "midi": 53,
          "time": 101.49999999999982,
          "velocity": 0.8661417322834646,
          "duration": 0.5
        },
        {
          "name": "A3",
          "midi": 57,
          "time": 101.49999999999982,
          "velocity": 0.8661417322834646,
          "duration": 0.5
        },
        {
          "name": "A#3",
          "midi": 58,
          "time": 101.99999999999982,
          "velocity": 0.8661417322834646,
          "duration": 0.09375
        },
        {
          "name": "D4",
          "midi": 62,
          "time": 101.99999999999982,
          "velocity": 0.8661417322834646,
          "duration": 0.09375
        },
        {
          "name": "D4",
          "midi": 62,
          "time": 102.12499999999982,
          "velocity": 0.8503937007874016,
          "duration": 0.09375
        },
        {
          "name": "F4",
          "midi": 65,
          "time": 102.12499999999982,
          "velocity": 0.8661417322834646,
          "duration": 0.09375
        },
        {
          "name": "F4",
          "midi": 65,
          "time": 102.24999999999982,
          "velocity": 0.8346456692913385,
          "duration": 0.09375
        },
        {
          "name": "A#4",
          "midi": 70,
          "time": 102.24999999999982,
          "velocity": 0.8661417322834646,
          "duration": 0.09375
        },
        {
          "name": "D4",
          "midi": 62,
          "time": 102.37499999999982,
          "velocity": 0.8661417322834646,
          "duration": 0.09375
        },
        {
          "name": "F4",
          "midi": 65,
          "time": 102.37499999999982,
          "velocity": 0.8661417322834646,
          "duration": 0.09375
        },
        {
          "name": "A#3",
          "midi": 58,
          "time": 102.49999999999982,
          "velocity": 0.8346456692913385,
          "duration": 0.09375
        },
        {
          "name": "D4",
          "midi": 62,
          "time": 102.49999999999982,
          "velocity": 0.8346456692913385,
          "duration": 0.09375
        },
        {
          "name": "F3",
          "midi": 53,
          "time": 102.62499999999982,
          "velocity": 0.8346456692913385,
          "duration": 0.09375
        },
        {
          "name": "A#3",
          "midi": 58,
          "time": 102.62499999999982,
          "velocity": 0.8346456692913385,
          "duration": 0.09375
        },
        {
          "name": "F3",
          "midi": 53,
          "time": 102.74999999999982,
          "velocity": 0.8503937007874016,
          "duration": 0.09375
        },
        {
          "name": "D4",
          "midi": 62,
          "time": 102.74999999999982,
          "velocity": 0.8503937007874016,
          "duration": 0.09375
        },
        {
          "name": "A#3",
          "midi": 58,
          "time": 102.87499999999982,
          "velocity": 0.8661417322834646,
          "duration": 0.09375
        },
        {
          "name": "F4",
          "midi": 65,
          "time": 102.87499999999982,
          "velocity": 0.8661417322834646,
          "duration": 0.09375
        },
        {
          "name": "A#3",
          "midi": 58,
          "time": 102.99999999999982,
          "velocity": 0.8661417322834646,
          "duration": 0.09375
        },
        {
          "name": "D4",
          "midi": 62,
          "time": 102.99999999999982,
          "velocity": 0.8661417322834646,
          "duration": 0.09375
        },
        {
          "name": "A#3",
          "midi": 58,
          "time": 103.12499999999982,
          "velocity": 0.8661417322834646,
          "duration": 0.09375
        },
        {
          "name": "F4",
          "midi": 65,
          "time": 103.12499999999982,
          "velocity": 0.8661417322834646,
          "duration": 0.09375
        },
        {
          "name": "C3",
          "midi": 48,
          "time": 103.24999999999982,
          "velocity": 0.8661417322834646,
          "duration": 0.09375
        },
        {
          "name": "A3",
          "midi": 57,
          "time": 103.24999999999982,
          "velocity": 0.8661417322834646,
          "duration": 0.09375
        },
        {
          "name": "C4",
          "midi": 60,
          "time": 103.37499999999982,
          "velocity": 0.8661417322834646,
          "duration": 0.09375
        },
        {
          "name": "F4",
          "midi": 65,
          "time": 103.37499999999982,
          "velocity": 0.8661417322834646,
          "duration": 0.09375
        },
        {
          "name": "A3",
          "midi": 57,
          "time": 103.49999999999982,
          "velocity": 0.8661417322834646,
          "duration": 0.5
        },
        {
          "name": "C4",
          "midi": 60,
          "time": 103.49999999999982,
          "velocity": 0.8661417322834646,
          "duration": 0.5
        },
        {
          "name": "G3",
          "midi": 55,
          "time": 103.99999999999982,
          "velocity": 0.8661417322834646,
          "duration": 0.09375
        },
        {
          "name": "B3",
          "midi": 59,
          "time": 103.99999999999982,
          "velocity": 0.8661417322834646,
          "duration": 0.09375
        },
        {
          "name": "B3",
          "midi": 59,
          "time": 104.12499999999982,
          "velocity": 0.7874015748031497,
          "duration": 0.09375
        },
        {
          "name": "D4",
          "midi": 62,
          "time": 104.12499999999982,
          "velocity": 0.8661417322834646,
          "duration": 0.09375
        },
        {
          "name": "D4",
          "midi": 62,
          "time": 104.24999999999982,
          "velocity": 0.8346456692913385,
          "duration": 0.09375
        },
        {
          "name": "G4",
          "midi": 67,
          "time": 104.24999999999982,
          "velocity": 0.8661417322834646,
          "duration": 0.09375
        },
        {
          "name": "B3",
          "midi": 59,
          "time": 104.37499999999982,
          "velocity": 0.7874015748031497,
          "duration": 0.09375
        },
        {
          "name": "D4",
          "midi": 62,
          "time": 104.37499999999982,
          "velocity": 0.8031496062992126,
          "duration": 0.09375
        },
        {
          "name": "G3",
          "midi": 55,
          "time": 104.49999999999982,
          "velocity": 0.8661417322834646,
          "duration": 0.09375
        },
        {
          "name": "B3",
          "midi": 59,
          "time": 104.49999999999982,
          "velocity": 0.8503937007874016,
          "duration": 0.09375
        },
        {
          "name": "B3",
          "midi": 59,
          "time": 104.62499999999982,
          "velocity": 0.7874015748031497,
          "duration": 0.09375
        },
        {
          "name": "D4",
          "midi": 62,
          "time": 104.62499999999982,
          "velocity": 0.8661417322834646,
          "duration": 0.09375
        },
        {
          "name": "D4",
          "midi": 62,
          "time": 104.74999999999982,
          "velocity": 0.8503937007874016,
          "duration": 0.09375
        },
        {
          "name": "G4",
          "midi": 67,
          "time": 104.74999999999982,
          "velocity": 0.8503937007874016,
          "duration": 0.09375
        },
        {
          "name": "B3",
          "midi": 59,
          "time": 104.87499999999982,
          "velocity": 0.7874015748031497,
          "duration": 0.09375
        },
        {
          "name": "D4",
          "midi": 62,
          "time": 104.87499999999982,
          "velocity": 0.8661417322834646,
          "duration": 0.09375
        },
        {
          "name": "C4",
          "midi": 60,
          "time": 104.99999999999982,
          "velocity": 0.8661417322834646,
          "duration": 0.09375
        },
        {
          "name": "E4",
          "midi": 64,
          "time": 104.99999999999982,
          "velocity": 0.8661417322834646,
          "duration": 0.09375
        },
        {
          "name": "E4",
          "midi": 64,
          "time": 105.12499999999982,
          "velocity": 0.8503937007874016,
          "duration": 0.09375
        },
        {
          "name": "G4",
          "midi": 67,
          "time": 105.12499999999982,
          "velocity": 0.8031496062992126,
          "duration": 0.09375
        },
        {
          "name": "G4",
          "midi": 67,
          "time": 105.24999999999982,
          "velocity": 0.8503937007874016,
          "duration": 0.09375
        },
        {
          "name": "A#4",
          "midi": 70,
          "time": 105.24999999999982,
          "velocity": 0.8661417322834646,
          "duration": 0.09375
        },
        {
          "name": "E4",
          "midi": 64,
          "time": 105.37499999999982,
          "velocity": 0.7874015748031497,
          "duration": 0.09375
        },
        {
          "name": "G4",
          "midi": 67,
          "time": 105.37499999999982,
          "velocity": 0.8661417322834646,
          "duration": 0.09375
        },
        {
          "name": "C4",
          "midi": 60,
          "time": 105.49999999999982,
          "velocity": 0.8661417322834646,
          "duration": 0.5
        },
        {
          "name": "E4",
          "midi": 64,
          "time": 105.49999999999982,
          "velocity": 0.8661417322834646,
          "duration": 0.5
        },
        {
          "name": "C4",
          "midi": 60,
          "time": 105.99999999999982,
          "velocity": 0.7874015748031497,
          "duration": 0.25
        },
        {
          "name": "F3",
          "midi": 53,
          "time": 106.24999999999982,
          "velocity": 0.7874015748031497,
          "duration": 1.7395833333333286
        },
        {
          "name": "A3",
          "midi": 57,
          "time": 106.24999999999982,
          "velocity": 0.8661417322834646,
          "duration": 0.0625
        },
        {
          "name": "A3",
          "midi": 57,
          "time": 106.37499999999982,
          "velocity": 0.8661417322834646,
          "duration": 0.0625
        },
        {
          "name": "A3",
          "midi": 57,
          "time": 106.49999999999982,
          "velocity": 0.7874015748031497,
          "duration": 1.4895833333333286
        },
        {
          "name": "C4",
          "midi": 60,
          "time": 106.74999999999982,
          "velocity": 0.8661417322834646,
          "duration": 0.0625
        },
        {
          "name": "C4",
          "midi": 60,
          "time": 106.87499999999982,
          "velocity": 0.8661417322834646,
          "duration": 0.0625
        },
        {
          "name": "C4",
          "midi": 60,
          "time": 106.99999999999982,
          "velocity": 0.7874015748031497,
          "duration": 0.9895833333333286
        },
        {
          "name": "F4",
          "midi": 65,
          "time": 107.24999999999982,
          "velocity": 0.8661417322834646,
          "duration": 0.0625
        },
        {
          "name": "F4",
          "midi": 65,
          "time": 107.37499999999982,
          "velocity": 0.8661417322834646,
          "duration": 0.0625
        },
        {
          "name": "A4",
          "midi": 69,
          "time": 107.49999999999982,
          "velocity": 0.8661417322834646,
          "duration": 0.0625
        },
        {
          "name": "F4",
          "midi": 65,
          "time": 107.62499999999982,
          "velocity": 0.8661417322834646,
          "duration": 0.0625
        },
        {
          "name": "A4",
          "midi": 69,
          "time": 107.74999999999982,
          "velocity": 0.8661417322834646,
          "duration": 0.0625
        },
        {
          "name": "C5",
          "midi": 72,
          "time": 107.87499999999982,
          "velocity": 0.8661417322834646,
          "duration": 0.0625
        },
        {
          "name": "F3",
          "midi": 53,
          "time": 107.99999999999982,
          "velocity": 0.8661417322834646,
          "duration": 0.4322916666666572
        },
        {
          "name": "A3",
          "midi": 57,
          "time": 107.99999999999982,
          "velocity": 0.8503937007874016,
          "duration": 0.4114583333333286
        },
        {
          "name": "A3",
          "midi": 57,
          "time": 108.4999999999998,
          "velocity": 0.8503937007874016,
          "duration": 0.4583333333333286
        },
        {
          "name": "C4",
          "midi": 60,
          "time": 108.4999999999998,
          "velocity": 0.8661417322834646,
          "duration": 0.4791666666666572
        },
        {
          "name": "F3",
          "midi": 53,
          "time": 108.99999999999979,
          "velocity": 0.8503937007874016,
          "duration": 0.453125
        },
        {
          "name": "A3",
          "midi": 57,
          "time": 108.99999999999979,
          "velocity": 0.8503937007874016,
          "duration": 0.4270833333333286
        },
        {
          "name": "A3",
          "midi": 57,
          "time": 109.49999999999979,
          "velocity": 0.8503937007874016,
          "duration": 0.4479166666666714
        },
        {
          "name": "C4",
          "midi": 60,
          "time": 109.49999999999979,
          "velocity": 0.8661417322834646,
          "duration": 0.4583333333333428
        },
        {
          "name": "A#3",
          "midi": 58,
          "time": 109.9999999999998,
          "velocity": 0.8503937007874016,
          "duration": 0.4375
        },
        {
          "name": "D4",
          "midi": 62,
          "time": 109.9999999999998,
          "velocity": 0.8503937007874016,
          "duration": 0.421875
        },
        {
          "name": "D4",
          "midi": 62,
          "time": 110.4999999999998,
          "velocity": 0.8503937007874016,
          "duration": 0.4166666666666714
        },
        {
          "name": "F4",
          "midi": 65,
          "time": 110.4999999999998,
          "velocity": 0.8503937007874016,
          "duration": 0.4479166666666714
        },
        {
          "name": "D4",
          "midi": 62,
          "time": 110.9999999999998,
          "velocity": 0.8661417322834646,
          "duration": 0.052083333333328596
        },
        {
          "name": "A#4",
          "midi": 70,
          "time": 110.9999999999998,
          "velocity": 0.8661417322834646,
          "duration": 0.052083333333328596
        },
        {
          "name": "A3",
          "midi": 57,
          "time": 111.2499999999998,
          "velocity": 0.8661417322834646,
          "duration": 0.052083333333328596
        },
        {
          "name": "F4",
          "midi": 65,
          "time": 111.2499999999998,
          "velocity": 0.8661417322834646,
          "duration": 0.052083333333328596
        },
        {
          "name": "A3",
          "midi": 57,
          "time": 111.3749999999998,
          "velocity": 0.8503937007874016,
          "duration": 0.05729166666665719
        },
        {
          "name": "F4",
          "midi": 65,
          "time": 111.3749999999998,
          "velocity": 0.8661417322834646,
          "duration": 0.052083333333328596
        },
        {
          "name": "A3",
          "midi": 57,
          "time": 111.49999999999979,
          "velocity": 0.8503937007874016,
          "duration": 0.052083333333328596
        },
        {
          "name": "F4",
          "midi": 65,
          "time": 111.49999999999979,
          "velocity": 0.8661417322834646,
          "duration": 0.05729166666665719
        },
        {
          "name": "C4",
          "midi": 60,
          "time": 111.62499999999977,
          "velocity": 0.8661417322834646,
          "duration": 0.0729166666666714
        },
        {
          "name": "A3",
          "midi": 57,
          "time": 111.74999999999977,
          "velocity": 0.8661417322834646,
          "duration": 0.0677083333333286
        },
        {
          "name": "F3",
          "midi": 53,
          "time": 111.87499999999977,
          "velocity": 0.8661417322834646,
          "duration": 0.052083333333328596
        },
        {
          "name": "A#3",
          "midi": 58,
          "time": 111.99999999999977,
          "velocity": 0.8661417322834646,
          "duration": 0.4322916666666572
        },
        {
          "name": "E4",
          "midi": 64,
          "time": 111.99999999999977,
          "velocity": 0.8503937007874016,
          "duration": 0.4114583333333286
        },
        {
          "name": "E4",
          "midi": 64,
          "time": 112.49999999999976,
          "velocity": 0.8503937007874016,
          "duration": 0.4583333333333286
        },
        {
          "name": "G4",
          "midi": 67,
          "time": 112.49999999999976,
          "velocity": 0.8661417322834646,
          "duration": 0.4791666666666572
        },
        {
          "name": "A#3",
          "midi": 58,
          "time": 112.99999999999974,
          "velocity": 0.8503937007874016,
          "duration": 0.453125
        },
        {
          "name": "E4",
          "midi": 64,
          "time": 112.99999999999974,
          "velocity": 0.8503937007874016,
          "duration": 0.4270833333333286
        },
        {
          "name": "E4",
          "midi": 64,
          "time": 113.49999999999974,
          "velocity": 0.8503937007874016,
          "duration": 0.4479166666666714
        },
        {
          "name": "G4",
          "midi": 67,
          "time": 113.49999999999974,
          "velocity": 0.8661417322834646,
          "duration": 0.4583333333333428
        },
        {
          "name": "F3",
          "midi": 53,
          "time": 113.99999999999976,
          "velocity": 0.8661417322834646,
          "duration": 0.4375
        },
        {
          "name": "A3",
          "midi": 57,
          "time": 113.99999999999976,
          "velocity": 0.8503937007874016,
          "duration": 0.4270833333333286
        },
        {
          "name": "A3",
          "midi": 57,
          "time": 114.49999999999976,
          "velocity": 0.8661417322834646,
          "duration": 0.4427083333333286
        },
        {
          "name": "C4",
          "midi": 60,
          "time": 114.49999999999976,
          "velocity": 0.8661417322834646,
          "duration": 0.421875
        },
        {
          "name": "C4",
          "midi": 60,
          "time": 114.99999999999976,
          "velocity": 0.8661417322834646,
          "duration": 0.052083333333328596
        },
        {
          "name": "A4",
          "midi": 69,
          "time": 114.99999999999976,
          "velocity": 0.8661417322834646,
          "duration": 0.052083333333328596
        },
        {
          "name": "C4",
          "midi": 60,
          "time": 115.24999999999976,
          "velocity": 0.8661417322834646,
          "duration": 0.052083333333328596
        },
        {
          "name": "A4",
          "midi": 69,
          "time": 115.24999999999976,
          "velocity": 0.8661417322834646,
          "duration": 0.052083333333328596
        },
        {
          "name": "C4",
          "midi": 60,
          "time": 115.37499999999976,
          "velocity": 0.8661417322834646,
          "duration": 0.052083333333328596
        },
        {
          "name": "A4",
          "midi": 69,
          "time": 115.37499999999976,
          "velocity": 0.8661417322834646,
          "duration": 0.052083333333328596
        },
        {
          "name": "C4",
          "midi": 60,
          "time": 115.49999999999976,
          "velocity": 0.8503937007874016,
          "duration": 0.0625
        },
        {
          "name": "A4",
          "midi": 69,
          "time": 115.49999999999976,
          "velocity": 0.8661417322834646,
          "duration": 0.078125
        },
        {
          "name": "F4",
          "midi": 65,
          "time": 115.62499999999976,
          "velocity": 0.8661417322834646,
          "duration": 0.0625
        },
        {
          "name": "C4",
          "midi": 60,
          "time": 115.74999999999976,
          "velocity": 0.8661417322834646,
          "duration": 0.078125
        },
        {
          "name": "A3",
          "midi": 57,
          "time": 115.87499999999976,
          "velocity": 0.8661417322834646,
          "duration": 0.052083333333328596
        },
        {
          "name": "A3",
          "midi": 57,
          "time": 115.99999999999976,
          "velocity": 0.8346456692913385,
          "duration": 0.052083333333328596
        },
        {
          "name": "C4",
          "midi": 60,
          "time": 115.99999999999976,
          "velocity": 0.8346456692913385,
          "duration": 0.052083333333328596
        },
        {
          "name": "F4",
          "midi": 65,
          "time": 115.99999999999976,
          "velocity": 0.8503937007874016,
          "duration": 0.052083333333328596
        },
        {
          "name": "A3",
          "midi": 57,
          "time": 116.24999999999976,
          "velocity": 0.7874015748031497,
          "duration": 0.052083333333328596
        },
        {
          "name": "C4",
          "midi": 60,
          "time": 116.24999999999976,
          "velocity": 0.7874015748031497,
          "duration": 0.052083333333328596
        },
        {
          "name": "F4",
          "midi": 65,
          "time": 116.24999999999976,
          "velocity": 0.7874015748031497,
          "duration": 0.052083333333328596
        },
        {
          "name": "A3",
          "midi": 57,
          "time": 116.37499999999976,
          "velocity": 0.7874015748031497,
          "duration": 0.06770833333334281
        },
        {
          "name": "C4",
          "midi": 60,
          "time": 116.37499999999976,
          "velocity": 0.7874015748031497,
          "duration": 0.057291666666671404
        },
        {
          "name": "F4",
          "midi": 65,
          "time": 116.37499999999976,
          "velocity": 0.7874015748031497,
          "duration": 0.057291666666671404
        },
        {
          "name": "A3",
          "midi": 57,
          "time": 116.49999999999977,
          "velocity": 0.8661417322834646,
          "duration": 0.4010416666666714
        },
        {
          "name": "C4",
          "midi": 60,
          "time": 116.49999999999977,
          "velocity": 0.8661417322834646,
          "duration": 0.4739583333333428
        },
        {
          "name": "F4",
          "midi": 65,
          "time": 116.49999999999977,
          "velocity": 0.8661417322834646,
          "duration": 0.4739583333333428
        },
        {
          "name": "C4",
          "midi": 60,
          "time": 116.99999999999979,
          "velocity": 0.7874015748031497,
          "duration": 0.052083333333328596
        },
        {
          "name": "E4",
          "midi": 64,
          "time": 116.99999999999979,
          "velocity": 0.7874015748031497,
          "duration": 0.052083333333328596
        },
        {
          "name": "C4",
          "midi": 60,
          "time": 117.24999999999979,
          "velocity": 0.7874015748031497,
          "duration": 0.0625
        },
        {
          "name": "E4",
          "midi": 64,
          "time": 117.24999999999979,
          "velocity": 0.7874015748031497,
          "duration": 0.052083333333328596
        },
        {
          "name": "D4",
          "midi": 62,
          "time": 117.37499999999979,
          "velocity": 0.7874015748031497,
          "duration": 0.052083333333328596
        },
        {
          "name": "F4",
          "midi": 65,
          "time": 117.37499999999979,
          "velocity": 0.7874015748031497,
          "duration": 0.05729166666665719
        },
        {
          "name": "E4",
          "midi": 64,
          "time": 117.49999999999977,
          "velocity": 0.8503937007874016,
          "duration": 0.1614583333333286
        },
        {
          "name": "G4",
          "midi": 67,
          "time": 117.49999999999977,
          "velocity": 0.8503937007874016,
          "duration": 0.1666666666666572
        },
        {
          "name": "C4",
          "midi": 60,
          "time": 117.74999999999976,
          "velocity": 0.7874015748031497,
          "duration": 0.0677083333333286
        },
        {
          "name": "E4",
          "midi": 64,
          "time": 117.74999999999976,
          "velocity": 0.7874015748031497,
          "duration": 0.0625
        },
        {
          "name": "A3",
          "midi": 57,
          "time": 117.99999999999976,
          "velocity": 0.7874015748031497,
          "duration": 0.052083333333328596
        },
        {
          "name": "C4",
          "midi": 60,
          "time": 117.99999999999976,
          "velocity": 0.8188976377952756,
          "duration": 0.052083333333328596
        },
        {
          "name": "F4",
          "midi": 65,
          "time": 117.99999999999976,
          "velocity": 0.8188976377952756,
          "duration": 0.052083333333328596
        },
        {
          "name": "C4",
          "midi": 60,
          "time": 118.24999999999976,
          "velocity": 0.7874015748031497,
          "duration": 0.052083333333328596
        },
        {
          "name": "A4",
          "midi": 69,
          "time": 118.24999999999976,
          "velocity": 0.8188976377952756,
          "duration": 0.052083333333328596
        },
        {
          "name": "A#3",
          "midi": 58,
          "time": 118.49999999999976,
          "velocity": 0.8503937007874016,
          "duration": 0.3802083333333286
        },
        {
          "name": "G4",
          "midi": 67,
          "time": 118.49999999999976,
          "velocity": 0.8346456692913385,
          "duration": 0.4375
        },
        {
          "name": "A3",
          "midi": 57,
          "time": 118.99999999999976,
          "velocity": 0.8661417322834646,
          "duration": 0.0625
        },
        {
          "name": "C4",
          "midi": 60,
          "time": 118.99999999999976,
          "velocity": 0.8503937007874016,
          "duration": 0.052083333333328596
        },
        {
          "name": "F4",
          "midi": 65,
          "time": 118.99999999999976,
          "velocity": 0.8503937007874016,
          "duration": 0.052083333333328596
        },
        {
          "name": "A3",
          "midi": 57,
          "time": 119.24999999999976,
          "velocity": 0.8031496062992126,
          "duration": 0.052083333333328596
        },
        {
          "name": "C4",
          "midi": 60,
          "time": 119.24999999999976,
          "velocity": 0.8031496062992126,
          "duration": 0.052083333333328596
        },
        {
          "name": "F4",
          "midi": 65,
          "time": 119.24999999999976,
          "velocity": 0.8031496062992126,
          "duration": 0.052083333333328596
        },
        {
          "name": "A3",
          "midi": 57,
          "time": 119.37499999999976,
          "velocity": 0.8503937007874016,
          "duration": 0.05729166666665719
        },
        {
          "name": "C4",
          "midi": 60,
          "time": 119.37499999999976,
          "velocity": 0.8503937007874016,
          "duration": 0.052083333333328596
        },
        {
          "name": "F4",
          "midi": 65,
          "time": 119.37499999999976,
          "velocity": 0.8503937007874016,
          "duration": 0.052083333333328596
        },
        {
          "name": "A3",
          "midi": 57,
          "time": 119.49999999999974,
          "velocity": 0.8661417322834646,
          "duration": 0.0625
        },
        {
          "name": "C4",
          "midi": 60,
          "time": 119.49999999999974,
          "velocity": 0.8661417322834646,
          "duration": 0.057291666666671404
        },
        {
          "name": "F4",
          "midi": 65,
          "time": 119.49999999999974,
          "velocity": 0.8661417322834646,
          "duration": 0.057291666666671404
        }
      ],
      "controlChanges": {
        "7": [
          {
            "number": 7,
            "time": 0.6458333333333335,
            "value": 0.7322834645669292
          }
        ],
        "10": [
          {
            "number": 10,
            "time": 0.6458333333333335,
            "value": 1
          }
        ],
        "32": [
          {
            "number": 32,
            "time": 0.6354166666666667,
            "value": 0
          }
        ],
        "91": [
          {
            "number": 91,
            "time": 2,
            "value": 0.6141732283464567
          }
        ],
        "93": [
          {
            "number": 93,
            "time": 2,
            "value": 0.6141732283464567
          }
        ]
      },
      "id": 7,
      "name": "(Play thru Module",
      "instrumentNumber": 21,
      "instrument": "accordion",
      "instrumentFamily": "organ",
      "channelNumber": 5,
      "isPercussion": false
    },
    {
      "startTime": 4.578125,
      "duration": 114.63020833333329,
      "length": 172,
      "notes": [
        {
          "name": "F3",
          "midi": 53,
          "time": 4.578125,
          "velocity": 0.6299212598425197,
          "duration": 11.9375
        },
        {
          "name": "A3",
          "midi": 57,
          "time": 5.114583333333333,
          "velocity": 0.2204724409448819,
          "duration": 9.697916666666664
        },
        {
          "name": "C4",
          "midi": 60,
          "time": 5.838541666666666,
          "velocity": 0.3937007874015748,
          "duration": 7.3125
        },
        {
          "name": "C4",
          "midi": 60,
          "time": 13.239583333333332,
          "velocity": 0.6614173228346457,
          "duration": 0.171875
        },
        {
          "name": "C4",
          "midi": 60,
          "time": 13.489583333333332,
          "velocity": 0.5984251968503937,
          "duration": 0.1875
        },
        {
          "name": "C4",
          "midi": 60,
          "time": 13.734374999999998,
          "velocity": 0.6771653543307087,
          "duration": 1.067708333333334
        },
        {
          "name": "A#3",
          "midi": 58,
          "time": 14.958333333333332,
          "velocity": 0.7086614173228346,
          "duration": 1.6093750000000036
        },
        {
          "name": "D4",
          "midi": 62,
          "time": 14.968749999999998,
          "velocity": 0.7401574803149606,
          "duration": 1.5885416666666696
        },
        {
          "name": "E3",
          "midi": 52,
          "time": 16.963541666666668,
          "velocity": 0.6929133858267716,
          "duration": 1.921875
        },
        {
          "name": "A#3",
          "midi": 58,
          "time": 16.96875,
          "velocity": 0.7086614173228346,
          "duration": 1.9322916666666679
        },
        {
          "name": "C4",
          "midi": 60,
          "time": 16.96875,
          "velocity": 0.7086614173228346,
          "duration": 5.869791666666664
        },
        {
          "name": "A3",
          "midi": 57,
          "time": 19.015625,
          "velocity": 0.7874015748031497,
          "duration": 3.8541666666666643
        },
        {
          "name": "F3",
          "midi": 53,
          "time": 19.020833333333332,
          "velocity": 0.7559055118110236,
          "duration": 5.645833333333332
        },
        {
          "name": "A#3",
          "midi": 58,
          "time": 22.984374999999996,
          "velocity": 0.6614173228346457,
          "duration": 1.7291666666666679
        },
        {
          "name": "D4",
          "midi": 62,
          "time": 22.994791666666664,
          "velocity": 0.6929133858267716,
          "duration": 1.703125
        },
        {
          "name": "E3",
          "midi": 52,
          "time": 24.989583333333332,
          "velocity": 0.7086614173228346,
          "duration": 1.8489583333333321
        },
        {
          "name": "C4",
          "midi": 60,
          "time": 24.994791666666664,
          "velocity": 0.5669291338582677,
          "duration": 1.9375
        },
        {
          "name": "A#3",
          "midi": 58,
          "time": 25.015624999999996,
          "velocity": 0.6771653543307087,
          "duration": 1.8333333333333357
        },
        {
          "name": "C4",
          "midi": 60,
          "time": 26.968749999999996,
          "velocity": 0.5984251968503937,
          "duration": 0.09895833333333215
        },
        {
          "name": "A3",
          "midi": 57,
          "time": 26.97395833333333,
          "velocity": 0.8346456692913385,
          "duration": 0.11458333333333215
        },
        {
          "name": "F3",
          "midi": 53,
          "time": 26.984374999999996,
          "velocity": 0.7559055118110236,
          "duration": 0.0729166666666643
        },
        {
          "name": "G3",
          "midi": 55,
          "time": 26.984374999999996,
          "velocity": 0.7559055118110236,
          "duration": 0.06770833333333215
        },
        {
          "name": "A3",
          "midi": 57,
          "time": 28.218749999999993,
          "velocity": 0.7559055118110236,
          "duration": 1.84375
        },
        {
          "name": "F3",
          "midi": 53,
          "time": 28.234374999999993,
          "velocity": 0.7401574803149606,
          "duration": 1.8229166666666679
        },
        {
          "name": "C4",
          "midi": 60,
          "time": 28.24479166666666,
          "velocity": 0.7401574803149606,
          "duration": 0.28125
        },
        {
          "name": "C4",
          "midi": 60,
          "time": 28.74479166666666,
          "velocity": 0.7559055118110236,
          "duration": 0.140625
        },
        {
          "name": "C4",
          "midi": 60,
          "time": 29.015624999999993,
          "velocity": 0.6614173228346457,
          "duration": 0.140625
        },
        {
          "name": "C4",
          "midi": 60,
          "time": 29.515624999999993,
          "velocity": 0.6141732283464567,
          "duration": 0.15104166666666785
        },
        {
          "name": "C4",
          "midi": 60,
          "time": 29.73958333333333,
          "velocity": 0.6929133858267716,
          "duration": 0.28645833333333215
        },
        {
          "name": "F3",
          "midi": 53,
          "time": 32.03124999999999,
          "velocity": 0.7401574803149606,
          "duration": 1.687500000000007
        },
        {
          "name": "A#3",
          "midi": 58,
          "time": 32.03124999999999,
          "velocity": 0.7086614173228346,
          "duration": 0.8645833333333357
        },
        {
          "name": "D4",
          "midi": 62,
          "time": 32.03645833333333,
          "velocity": 0.7559055118110236,
          "duration": 0.8333333333333357
        },
        {
          "name": "A3",
          "midi": 57,
          "time": 32.994791666666664,
          "velocity": 0.7874015748031497,
          "duration": 0.703125
        },
        {
          "name": "C4",
          "midi": 60,
          "time": 33.010416666666664,
          "velocity": 0.7559055118110236,
          "duration": 0.6875
        },
        {
          "name": "B3",
          "midi": 59,
          "time": 33.958333333333336,
          "velocity": 0.7559055118110236,
          "duration": 0.8697916666666714
        },
        {
          "name": "G3",
          "midi": 55,
          "time": 33.973958333333336,
          "velocity": 0.7874015748031497,
          "duration": 0.8541666666666714
        },
        {
          "name": "D4",
          "midi": 62,
          "time": 34.270833333333336,
          "velocity": 0.7086614173228346,
          "duration": 0.5364583333333357
        },
        {
          "name": "A#3",
          "midi": 58,
          "time": 34.98958333333334,
          "velocity": 0.3779527559055118,
          "duration": 0.9635416666666643
        },
        {
          "name": "C4",
          "midi": 60,
          "time": 35.00000000000001,
          "velocity": 0.2992125984251969,
          "duration": 1.671875
        },
        {
          "name": "E3",
          "midi": 52,
          "time": 35.01041666666667,
          "velocity": 0.36220472440944884,
          "duration": 0.921875
        },
        {
          "name": "A3",
          "midi": 57,
          "time": 36.04687500000001,
          "velocity": 0.7559055118110236,
          "duration": 2.7135416666666643
        },
        {
          "name": "F3",
          "midi": 53,
          "time": 36.05208333333334,
          "velocity": 0.6929133858267716,
          "duration": 2.7083333333333286
        },
        {
          "name": "C4",
          "midi": 60,
          "time": 36.71354166666667,
          "velocity": 0.6614173228346457,
          "duration": 2.046875
        },
        {
          "name": "F3",
          "midi": 53,
          "time": 40.01562500000001,
          "velocity": 0.7086614173228346,
          "duration": 1.6979166666666643
        },
        {
          "name": "D4",
          "midi": 62,
          "time": 40.02083333333334,
          "velocity": 0.7401574803149606,
          "duration": 0.8125
        },
        {
          "name": "A#3",
          "midi": 58,
          "time": 40.02604166666668,
          "velocity": 0.7086614173228346,
          "duration": 0.8385416666666643
        },
        {
          "name": "A3",
          "midi": 57,
          "time": 41.01562500000001,
          "velocity": 0.7401574803149606,
          "duration": 0.1510416666666643
        },
        {
          "name": "C4",
          "midi": 60,
          "time": 41.02604166666667,
          "velocity": 0.7874015748031497,
          "duration": 0.90625
        },
        {
          "name": "A3",
          "midi": 57,
          "time": 41.26562500000001,
          "velocity": 0.7086614173228346,
          "duration": 0.4583333333333286
        },
        {
          "name": "E3",
          "midi": 52,
          "time": 41.973958333333336,
          "velocity": 0.7401574803149606,
          "duration": 0.90625
        },
        {
          "name": "A#3",
          "midi": 58,
          "time": 41.984375,
          "velocity": 0.6929133858267716,
          "duration": 0.90625
        },
        {
          "name": "C4",
          "midi": 60,
          "time": 41.989583333333336,
          "velocity": 0.7086614173228346,
          "duration": 1.4166666666666714
        },
        {
          "name": "A3",
          "midi": 57,
          "time": 42.984375,
          "velocity": 0.8346456692913385,
          "duration": 0.4218750000000071
        },
        {
          "name": "F3",
          "midi": 53,
          "time": 42.989583333333336,
          "velocity": 0.7559055118110236,
          "duration": 0.3958333333333357
        },
        {
          "name": "A3",
          "midi": 57,
          "time": 44.97916666666667,
          "velocity": 0.7559055118110236,
          "duration": 1.9687500000000142
        },
        {
          "name": "F3",
          "midi": 53,
          "time": 44.98437500000001,
          "velocity": 0.7401574803149606,
          "duration": 3.63020833333335
        },
        {
          "name": "C4",
          "midi": 60,
          "time": 45.26562500000001,
          "velocity": 0.6929133858267716,
          "duration": 0.109375
        },
        {
          "name": "C4",
          "midi": 60,
          "time": 45.77083333333334,
          "velocity": 0.6299212598425197,
          "duration": 0.1145833333333357
        },
        {
          "name": "C4",
          "midi": 60,
          "time": 46.02604166666668,
          "velocity": 0.6771653543307087,
          "duration": 0.2083333333333357
        },
        {
          "name": "C4",
          "midi": 60,
          "time": 46.343750000000014,
          "velocity": 0.6299212598425197,
          "duration": 0.2083333333333357
        },
        {
          "name": "C4",
          "midi": 60,
          "time": 46.807291666666686,
          "velocity": 0.6141732283464567,
          "duration": 0.1197916666666643
        },
        {
          "name": "A#3",
          "midi": 58,
          "time": 47.03125000000002,
          "velocity": 0.7401574803149606,
          "duration": 1.6302083333333357
        },
        {
          "name": "D4",
          "midi": 62,
          "time": 47.041666666666686,
          "velocity": 0.6929133858267716,
          "duration": 0.1510416666666643
        },
        {
          "name": "D4",
          "midi": 62,
          "time": 47.27083333333335,
          "velocity": 0.6929133858267716,
          "duration": 0.4010416666666643
        },
        {
          "name": "D4",
          "midi": 62,
          "time": 47.70833333333335,
          "velocity": 0.6141732283464567,
          "duration": 0.1770833333333357
        },
        {
          "name": "D4",
          "midi": 62,
          "time": 47.95312500000002,
          "velocity": 0.6299212598425197,
          "duration": 0.6614583333333357
        },
        {
          "name": "C4",
          "midi": 60,
          "time": 48.98437500000002,
          "velocity": 0.6929133858267716,
          "duration": 5.90625
        },
        {
          "name": "E3",
          "midi": 52,
          "time": 48.98437500000002,
          "velocity": 0.6929133858267716,
          "duration": 1.9114583333333357
        },
        {
          "name": "A#3",
          "midi": 58,
          "time": 48.98958333333336,
          "velocity": 0.6771653543307087,
          "duration": 1.9322916666666643
        },
        {
          "name": "A3",
          "midi": 57,
          "time": 51.02083333333336,
          "velocity": 0.8346456692913385,
          "duration": 3.90625
        },
        {
          "name": "F3",
          "midi": 53,
          "time": 51.03125000000002,
          "velocity": 0.7559055118110236,
          "duration": 5.609375
        },
        {
          "name": "A#3",
          "midi": 58,
          "time": 55.02083333333336,
          "velocity": 0.7086614173228346,
          "duration": 1.6666666666666643
        },
        {
          "name": "D4",
          "midi": 62,
          "time": 55.03125000000002,
          "velocity": 0.7086614173228346,
          "duration": 1.6041666666666643
        },
        {
          "name": "C4",
          "midi": 60,
          "time": 56.97395833333336,
          "velocity": 0.47244094488188976,
          "duration": 2.296875
        },
        {
          "name": "E3",
          "midi": 52,
          "time": 56.97395833333336,
          "velocity": 0.7401574803149606,
          "duration": 1.953125
        },
        {
          "name": "A#3",
          "midi": 58,
          "time": 56.98958333333336,
          "velocity": 0.6299212598425197,
          "duration": 1.9427083333333357
        },
        {
          "name": "F3",
          "midi": 53,
          "time": 59.02604166666669,
          "velocity": 0.8031496062992126,
          "duration": 0.2447916666666643
        },
        {
          "name": "A3",
          "midi": 57,
          "time": 59.02604166666669,
          "velocity": 0.8503937007874016,
          "duration": 0.25
        },
        {
          "name": "F3",
          "midi": 53,
          "time": 60.57291666666669,
          "velocity": 0.7086614173228346,
          "duration": 5.2604166666666785
        },
        {
          "name": "A3",
          "midi": 57,
          "time": 60.57812500000003,
          "velocity": 0.7401574803149606,
          "duration": 3.2604166666666714
        },
        {
          "name": "C4",
          "midi": 60,
          "time": 60.583333333333364,
          "velocity": 0.6141732283464567,
          "duration": 1.0364583333333357
        },
        {
          "name": "C4",
          "midi": 60,
          "time": 61.718750000000036,
          "velocity": 0.7401574803149606,
          "duration": 0.6979166666666643
        },
        {
          "name": "C4",
          "midi": 60,
          "time": 62.515625000000036,
          "velocity": 0.5826771653543307,
          "duration": 0.140625
        },
        {
          "name": "C4",
          "midi": 60,
          "time": 62.73958333333337,
          "velocity": 0.5984251968503937,
          "duration": 0.15625
        },
        {
          "name": "C4",
          "midi": 60,
          "time": 63.015625000000036,
          "velocity": 0.6771653543307087,
          "duration": 0.140625
        },
        {
          "name": "C4",
          "midi": 60,
          "time": 63.265625000000036,
          "velocity": 0.6614173228346457,
          "duration": 0.1510416666666643
        },
        {
          "name": "C4",
          "midi": 60,
          "time": 63.520833333333364,
          "velocity": 0.6771653543307087,
          "duration": 0.1510416666666643
        },
        {
          "name": "C4",
          "midi": 60,
          "time": 63.770833333333364,
          "velocity": 0.47244094488188976,
          "duration": 0.0833333333333357
        },
        {
          "name": "A#3",
          "midi": 58,
          "time": 64.01562500000003,
          "velocity": 0.8031496062992126,
          "duration": 0.953125
        },
        {
          "name": "D4",
          "midi": 62,
          "time": 64.01562500000003,
          "velocity": 0.7874015748031497,
          "duration": 0.921875
        },
        {
          "name": "A3",
          "midi": 57,
          "time": 65.0260416666667,
          "velocity": 0.8346456692913385,
          "duration": 0.8020833333333428
        },
        {
          "name": "C4",
          "midi": 60,
          "time": 65.05208333333337,
          "velocity": 0.7401574803149606,
          "duration": 0.9270833333333286
        },
        {
          "name": "B3",
          "midi": 59,
          "time": 65.9479166666667,
          "velocity": 0.7401574803149606,
          "duration": 0.9375
        },
        {
          "name": "G3",
          "midi": 55,
          "time": 65.95312500000003,
          "velocity": 0.7086614173228346,
          "duration": 0.9322916666666714
        },
        {
          "name": "D4",
          "midi": 62,
          "time": 66.22395833333337,
          "velocity": 0.8346456692913385,
          "duration": 0.65625
        },
        {
          "name": "A#3",
          "midi": 58,
          "time": 66.98437500000003,
          "velocity": 0.7401574803149606,
          "duration": 0.9895833333333286
        },
        {
          "name": "C4",
          "midi": 60,
          "time": 66.9947916666667,
          "velocity": 0.7874015748031497,
          "duration": 0.7291666666666572
        },
        {
          "name": "E3",
          "midi": 52,
          "time": 67.04687500000003,
          "velocity": 0.4881889763779528,
          "duration": 0.8645833333333286
        },
        {
          "name": "C4",
          "midi": 60,
          "time": 67.76562500000003,
          "velocity": 0.5826771653543307,
          "duration": 0.3437499999999858
        },
        {
          "name": "A3",
          "midi": 57,
          "time": 68.02604166666669,
          "velocity": 0.8503937007874016,
          "duration": 1.828125
        },
        {
          "name": "F3",
          "midi": 53,
          "time": 68.03125000000001,
          "velocity": 0.7086614173228346,
          "duration": 5.734375
        },
        {
          "name": "C4",
          "midi": 60,
          "time": 68.51041666666669,
          "velocity": 0.7401574803149606,
          "duration": 0.1302083333333286
        },
        {
          "name": "C4",
          "midi": 60,
          "time": 68.72916666666669,
          "velocity": 0.7559055118110236,
          "duration": 0.84375
        },
        {
          "name": "C4",
          "midi": 60,
          "time": 69.69270833333336,
          "velocity": 0.7559055118110236,
          "duration": 2.0208333333333286
        },
        {
          "name": "A3",
          "midi": 57,
          "time": 69.93229166666669,
          "velocity": 0.7086614173228346,
          "duration": 1.8020833333333286
        },
        {
          "name": "D4",
          "midi": 62,
          "time": 71.98437500000001,
          "velocity": 0.7086614173228346,
          "duration": 0.9947916666666714
        },
        {
          "name": "A#3",
          "midi": 58,
          "time": 71.98437500000001,
          "velocity": 0.6929133858267716,
          "duration": 1.0104166666666714
        },
        {
          "name": "A3",
          "midi": 57,
          "time": 73.06250000000001,
          "velocity": 0.8503937007874016,
          "duration": 0.7083333333333286
        },
        {
          "name": "C4",
          "midi": 60,
          "time": 73.31250000000001,
          "velocity": 0.7874015748031497,
          "duration": 1.5885416666666572
        },
        {
          "name": "A#3",
          "midi": 58,
          "time": 73.97395833333334,
          "velocity": 0.47244094488188976,
          "duration": 0.8489583333333286
        },
        {
          "name": "E3",
          "midi": 52,
          "time": 73.97916666666667,
          "velocity": 0.6299212598425197,
          "duration": 0.8229166666666714
        },
        {
          "name": "F3",
          "midi": 53,
          "time": 74.96354166666667,
          "velocity": 0.7874015748031497,
          "duration": 0.2552083333333286
        },
        {
          "name": "A3",
          "midi": 57,
          "time": 74.96875,
          "velocity": 0.7559055118110236,
          "duration": 0.28125
        },
        {
          "name": "C4",
          "midi": 60,
          "time": 74.97395833333333,
          "velocity": 0.7401574803149606,
          "duration": 0.234375
        },
        {
          "name": "A3",
          "midi": 57,
          "time": 82.015625,
          "velocity": 0.7559055118110236,
          "duration": 2.9114583333333286
        },
        {
          "name": "F3",
          "midi": 53,
          "time": 82.02083333333333,
          "velocity": 0.7086614173228346,
          "duration": 4.526041666666657
        },
        {
          "name": "C4",
          "midi": 60,
          "time": 82.28125,
          "velocity": 0.6614173228346457,
          "duration": 0.6041666666666714
        },
        {
          "name": "C4",
          "midi": 60,
          "time": 83.265625,
          "velocity": 0.6141732283464567,
          "duration": 1.609375
        },
        {
          "name": "A#3",
          "midi": 58,
          "time": 84.99479166666666,
          "velocity": 0.5826771653543307,
          "duration": 1.6041666666666572
        },
        {
          "name": "D4",
          "midi": 62,
          "time": 85.01562499999999,
          "velocity": 0.7086614173228346,
          "duration": 1.5625
        },
        {
          "name": "E3",
          "midi": 52,
          "time": 86.95833333333331,
          "velocity": 0.7401574803149606,
          "duration": 1.9427083333333428
        },
        {
          "name": "A#3",
          "midi": 58,
          "time": 86.96874999999999,
          "velocity": 0.7086614173228346,
          "duration": 1.9635416666666714
        },
        {
          "name": "C4",
          "midi": 60,
          "time": 86.96874999999999,
          "velocity": 0.7086614173228346,
          "duration": 5.895833333333329
        },
        {
          "name": "A3",
          "midi": 57,
          "time": 89.01562499999999,
          "velocity": 0.8346456692913385,
          "duration": 3.8958333333333286
        },
        {
          "name": "F3",
          "midi": 53,
          "time": 89.02083333333331,
          "velocity": 0.7874015748031497,
          "duration": 5.609375
        },
        {
          "name": "A#3",
          "midi": 58,
          "time": 92.99999999999999,
          "velocity": 0.6929133858267716,
          "duration": 1.6718749999999858
        },
        {
          "name": "D4",
          "midi": 62,
          "time": 93.01562499999999,
          "velocity": 0.7086614173228346,
          "duration": 1.6510416666666572
        },
        {
          "name": "C4",
          "midi": 60,
          "time": 94.98437499999997,
          "velocity": 0.5354330708661418,
          "duration": 2.901041666666643
        },
        {
          "name": "E3",
          "midi": 52,
          "time": 94.98437499999997,
          "velocity": 0.7401574803149606,
          "duration": 1.9322916666666572
        },
        {
          "name": "A#3",
          "midi": 58,
          "time": 94.9895833333333,
          "velocity": 0.7086614173228346,
          "duration": 1.9479166666666572
        },
        {
          "name": "A3",
          "midi": 57,
          "time": 97.02083333333329,
          "velocity": 0.8818897637795275,
          "duration": 1.0520833333333286
        },
        {
          "name": "F3",
          "midi": 53,
          "time": 97.02604166666661,
          "velocity": 0.7559055118110236,
          "duration": 1.0104166666666714
        },
        {
          "name": "C4",
          "midi": 60,
          "time": 97.97395833333329,
          "velocity": 0.8031496062992126,
          "duration": 0.10416666666665719
        },
        {
          "name": "A3",
          "midi": 57,
          "time": 100.02083333333327,
          "velocity": 0.8031496062992126,
          "duration": 1.8333333333333428
        },
        {
          "name": "F3",
          "midi": 53,
          "time": 100.03124999999994,
          "velocity": 0.7401574803149606,
          "duration": 3.8072916666666856
        },
        {
          "name": "C4",
          "midi": 60,
          "time": 100.03124999999994,
          "velocity": 0.6929133858267716,
          "duration": 1.1145833333333286
        },
        {
          "name": "C4",
          "midi": 60,
          "time": 101.23437499999994,
          "velocity": 0.6771653543307087,
          "duration": 0.1822916666666714
        },
        {
          "name": "C4",
          "midi": 60,
          "time": 101.51562499999994,
          "velocity": 0.6929133858267716,
          "duration": 0.2916666666666714
        },
        {
          "name": "A#3",
          "midi": 58,
          "time": 102.02083333333329,
          "velocity": 0.7401574803149606,
          "duration": 1.0260416666666714
        },
        {
          "name": "D4",
          "midi": 62,
          "time": 102.02083333333329,
          "velocity": 0.7559055118110236,
          "duration": 0.9947916666666714
        },
        {
          "name": "A3",
          "midi": 57,
          "time": 103.08333333333329,
          "velocity": 0.8503937007874016,
          "duration": 0.7447916666666714
        },
        {
          "name": "C4",
          "midi": 60,
          "time": 103.11458333333329,
          "velocity": 0.7874015748031497,
          "duration": 0.8125000000000142
        },
        {
          "name": "B3",
          "midi": 59,
          "time": 103.93749999999997,
          "velocity": 0.7401574803149606,
          "duration": 0.8802083333333286
        },
        {
          "name": "G3",
          "midi": 55,
          "time": 103.95312499999997,
          "velocity": 0.6141732283464567,
          "duration": 0.8541666666666714
        },
        {
          "name": "D4",
          "midi": 62,
          "time": 104.05729166666664,
          "velocity": 0.6929133858267716,
          "duration": 0.7552083333333286
        },
        {
          "name": "C4",
          "midi": 60,
          "time": 104.95312499999997,
          "velocity": 0.5826771653543307,
          "duration": 0.453125
        },
        {
          "name": "A#3",
          "midi": 58,
          "time": 104.96354166666664,
          "velocity": 0.47244094488188976,
          "duration": 0.4479166666666572
        },
        {
          "name": "E3",
          "midi": 52,
          "time": 104.97395833333331,
          "velocity": 0.47244094488188976,
          "duration": 0.3958333333333286
        },
        {
          "name": "A3",
          "midi": 57,
          "time": 106.0208333333333,
          "velocity": 0.5354330708661418,
          "duration": 3.708333333333343
        },
        {
          "name": "C4",
          "midi": 60,
          "time": 106.03124999999997,
          "velocity": 0.6771653543307087,
          "duration": 0.5416666666666714
        },
        {
          "name": "F3",
          "midi": 53,
          "time": 106.04687499999997,
          "velocity": 0.7874015748031497,
          "duration": 5.734374999999986
        },
        {
          "name": "C4",
          "midi": 60,
          "time": 106.77083333333331,
          "velocity": 0.7874015748031497,
          "duration": 0.3697916666666714
        },
        {
          "name": "C4",
          "midi": 60,
          "time": 107.23958333333331,
          "velocity": 0.7086614173228346,
          "duration": 0.1614583333333286
        },
        {
          "name": "C4",
          "midi": 60,
          "time": 107.52083333333331,
          "velocity": 0.6929133858267716,
          "duration": 0.0885416666666714
        },
        {
          "name": "C4",
          "midi": 60,
          "time": 107.70833333333331,
          "velocity": 0.7401574803149606,
          "duration": 0.140625
        },
        {
          "name": "C4",
          "midi": 60,
          "time": 107.92187499999999,
          "velocity": 0.7559055118110236,
          "duration": 0.2552083333333286
        },
        {
          "name": "C4",
          "midi": 60,
          "time": 108.28645833333331,
          "velocity": 0.5669291338582677,
          "duration": 0.0989583333333286
        },
        {
          "name": "C4",
          "midi": 60,
          "time": 108.48958333333331,
          "velocity": 0.6771653543307087,
          "duration": 0.140625
        },
        {
          "name": "C4",
          "midi": 60,
          "time": 108.73437499999999,
          "velocity": 0.7086614173228346,
          "duration": 0.1354166666666714
        },
        {
          "name": "C4",
          "midi": 60,
          "time": 108.99999999999999,
          "velocity": 0.7874015748031497,
          "duration": 0.140625
        },
        {
          "name": "C4",
          "midi": 60,
          "time": 109.26041666666666,
          "velocity": 0.7559055118110236,
          "duration": 0.125
        },
        {
          "name": "C4",
          "midi": 60,
          "time": 109.51562499999999,
          "velocity": 0.8031496062992126,
          "duration": 0.1770833333333286
        },
        {
          "name": "A#3",
          "midi": 58,
          "time": 109.99999999999997,
          "velocity": 0.7559055118110236,
          "duration": 0.9895833333333286
        },
        {
          "name": "D4",
          "midi": 62,
          "time": 109.99999999999997,
          "velocity": 0.8031496062992126,
          "duration": 0.96875
        },
        {
          "name": "A3",
          "midi": 57,
          "time": 111.0989583333333,
          "velocity": 0.6771653543307087,
          "duration": 0.036458333333328596
        },
        {
          "name": "A3",
          "midi": 57,
          "time": 111.2708333333333,
          "velocity": 0.8346456692913385,
          "duration": 0.5052083333333286
        },
        {
          "name": "C4",
          "midi": 60,
          "time": 111.2708333333333,
          "velocity": 0.8346456692913385,
          "duration": 2.151041666666657
        },
        {
          "name": "A#3",
          "midi": 58,
          "time": 111.94270833333329,
          "velocity": 0.5039370078740157,
          "duration": 1.9635416666666714
        },
        {
          "name": "E3",
          "midi": 52,
          "time": 111.95833333333329,
          "velocity": 0.6771653543307087,
          "duration": 1.90625
        },
        {
          "name": "C4",
          "midi": 60,
          "time": 113.48958333333329,
          "velocity": 0.7559055118110236,
          "duration": 1.125
        },
        {
          "name": "A3",
          "midi": 57,
          "time": 113.99479166666663,
          "velocity": 0.8346456692913385,
          "duration": 0.6458333333333286
        },
        {
          "name": "F3",
          "midi": 53,
          "time": 114.01562499999996,
          "velocity": 0.7874015748031497,
          "duration": 0.6145833333333286
        }
      ],
      "controlChanges": {
        "7": [
          {
            "number": 7,
            "time": 0.671875,
            "value": 0.6692913385826772
          }
        ],
        "10": [
          {
            "number": 10,
            "time": 0.671875,
            "value": 0.5039370078740157
          }
        ],
        "91": [
          {
            "number": 91,
            "time": 2,
            "value": 0.5118110236220472
          }
        ],
        "93": [
          {
            "number": 93,
            "time": 2,
            "value": 0.5118110236220472
          }
        ]
      },
      "id": 8,
      "name": "not Sound Card)",
      "instrumentNumber": 21,
      "instrument": "accordion",
      "instrumentFamily": "organ",
      "channelNumber": 6,
      "isPercussion": false
    },
    {
      "startTime": 4.067708333333333,
      "duration": 122.20833333333334,
      "length": 113,
      "notes": [
        {
          "name": "F5",
          "midi": 77,
          "time": 4.067708333333333,
          "velocity": 0.984251968503937,
          "duration": 0.96875
        },
        {
          "name": "F4",
          "midi": 65,
          "time": 5.057291666666666,
          "velocity": 0.905511811023622,
          "duration": 1.020833333333333
        },
        {
          "name": "F5",
          "midi": 77,
          "time": 6.041666666666666,
          "velocity": 0.968503937007874,
          "duration": 1.005208333333333
        },
        {
          "name": "F4",
          "midi": 65,
          "time": 7.052083333333332,
          "velocity": 0.905511811023622,
          "duration": 1
        },
        {
          "name": "F5",
          "midi": 77,
          "time": 8.010416666666666,
          "velocity": 0.9212598425196851,
          "duration": 1.0208333333333321
        },
        {
          "name": "F4",
          "midi": 65,
          "time": 9.031249999999998,
          "velocity": 0.9212598425196851,
          "duration": 0.8489583333333339
        },
        {
          "name": "F4",
          "midi": 65,
          "time": 10.031249999999998,
          "velocity": 0.889763779527559,
          "duration": 1.067708333333334
        },
        {
          "name": "F5",
          "midi": 77,
          "time": 11.020833333333332,
          "velocity": 0.889763779527559,
          "duration": 0.8958333333333339
        },
        {
          "name": "F5",
          "midi": 77,
          "time": 12,
          "velocity": 0.905511811023622,
          "duration": 1.895833333333334
        },
        {
          "name": "F5",
          "midi": 77,
          "time": 14.03125,
          "velocity": 0.905511811023622,
          "duration": 0.9479166666666661
        },
        {
          "name": "A#4",
          "midi": 70,
          "time": 15.067708333333332,
          "velocity": 0.8661417322834646,
          "duration": 0.9114583333333339
        },
        {
          "name": "A#4",
          "midi": 70,
          "time": 16.072916666666664,
          "velocity": 0.9448818897637795,
          "duration": 0.8385416666666679
        },
        {
          "name": "G4",
          "midi": 67,
          "time": 17.041666666666664,
          "velocity": 0.9212598425196851,
          "duration": 0.8489583333333321
        },
        {
          "name": "G4",
          "midi": 67,
          "time": 18.041666666666664,
          "velocity": 0.952755905511811,
          "duration": 0.9322916666666679
        },
        {
          "name": "F4",
          "midi": 65,
          "time": 19.036458333333332,
          "velocity": 0.984251968503937,
          "duration": 0.8802083333333321
        },
        {
          "name": "F4",
          "midi": 65,
          "time": 20.026041666666664,
          "velocity": 0.889763779527559,
          "duration": 0.9010416666666679
        },
        {
          "name": "F4",
          "midi": 65,
          "time": 20.994791666666664,
          "velocity": 0.8110236220472441,
          "duration": 0.953125
        },
        {
          "name": "F4",
          "midi": 65,
          "time": 22.046874999999996,
          "velocity": 0.8740157480314961,
          "duration": 0.921875
        },
        {
          "name": "A#4",
          "midi": 70,
          "time": 23.046874999999996,
          "velocity": 0.9133858267716536,
          "duration": 0.8645833333333321
        },
        {
          "name": "A#4",
          "midi": 70,
          "time": 24.046874999999996,
          "velocity": 0.8818897637795275,
          "duration": 0.8385416666666679
        },
        {
          "name": "G4",
          "midi": 67,
          "time": 25.041666666666664,
          "velocity": 0.952755905511811,
          "duration": 0.78125
        },
        {
          "name": "G4",
          "midi": 67,
          "time": 26.031249999999996,
          "velocity": 0.84251968503937,
          "duration": 0.20833333333333215
        },
        {
          "name": "C4",
          "midi": 60,
          "time": 26.24479166666666,
          "velocity": 0.6220472440944882,
          "duration": 0.5989583333333357
        },
        {
          "name": "B3",
          "midi": 59,
          "time": 26.24479166666666,
          "velocity": 0.7007874015748031,
          "duration": 0.203125
        },
        {
          "name": "D4",
          "midi": 62,
          "time": 26.81770833333333,
          "velocity": 0.8740157480314961,
          "duration": 0.1770833333333357
        },
        {
          "name": "F4",
          "midi": 65,
          "time": 27.036458333333332,
          "velocity": 0.984251968503937,
          "duration": 1.8645833333333321
        },
        {
          "name": "F4",
          "midi": 65,
          "time": 29.005208333333332,
          "velocity": 0.8740157480314961,
          "duration": 0.890625
        },
        {
          "name": "F4",
          "midi": 65,
          "time": 30.026041666666664,
          "velocity": 0.937007874015748,
          "duration": 0.9166666666666679
        },
        {
          "name": "F4",
          "midi": 65,
          "time": 31.020833333333332,
          "velocity": 0.8582677165354331,
          "duration": 0.9479166666666679
        },
        {
          "name": "A#4",
          "midi": 70,
          "time": 32.005208333333336,
          "velocity": 0.8661417322834646,
          "duration": 0.9583333333333357
        },
        {
          "name": "A#4",
          "midi": 70,
          "time": 33.07291666666667,
          "velocity": 0.8031496062992126,
          "duration": 0.890625
        },
        {
          "name": "G4",
          "midi": 67,
          "time": 34.052083333333336,
          "velocity": 0.968503937007874,
          "duration": 0.8333333333333357
        },
        {
          "name": "G4",
          "midi": 67,
          "time": 35.020833333333336,
          "velocity": 0.952755905511811,
          "duration": 0.796875
        },
        {
          "name": "F4",
          "midi": 65,
          "time": 36.01041666666667,
          "velocity": 0.9212598425196851,
          "duration": 0.9635416666666643
        },
        {
          "name": "F4",
          "midi": 65,
          "time": 37.052083333333336,
          "velocity": 0.889763779527559,
          "duration": 0.859375
        },
        {
          "name": "F4",
          "midi": 65,
          "time": 38.036458333333336,
          "velocity": 0.952755905511811,
          "duration": 0.8541666666666643
        },
        {
          "name": "F4",
          "midi": 65,
          "time": 39.010416666666664,
          "velocity": 0.8740157480314961,
          "duration": 0.7760416666666643
        },
        {
          "name": "A#4",
          "midi": 70,
          "time": 40.057291666666664,
          "velocity": 0.8818897637795275,
          "duration": 0.8958333333333357
        },
        {
          "name": "A#4",
          "midi": 70,
          "time": 41.0625,
          "velocity": 0.8346456692913385,
          "duration": 0.90625
        },
        {
          "name": "F4",
          "midi": 65,
          "time": 42.052083333333336,
          "velocity": 0.952755905511811,
          "duration": 0.875
        },
        {
          "name": "F4",
          "midi": 65,
          "time": 43.015625,
          "velocity": 0.7637795275590551,
          "duration": 0.9791666666666643
        },
        {
          "name": "F4",
          "midi": 65,
          "time": 44.03125,
          "velocity": 0.6377952755905512,
          "duration": 1.890625
        },
        {
          "name": "F4",
          "midi": 65,
          "time": 46.026041666666664,
          "velocity": 0.9212598425196851,
          "duration": 1.4895833333333357
        },
        {
          "name": "A#4",
          "midi": 70,
          "time": 48.078125,
          "velocity": 0.8188976377952756,
          "duration": 0.8541666666666643
        },
        {
          "name": "A#4",
          "midi": 70,
          "time": 49.026041666666664,
          "velocity": 0.8661417322834646,
          "duration": 0.8541666666666643
        },
        {
          "name": "G4",
          "midi": 67,
          "time": 50.03124999999999,
          "velocity": 0.984251968503937,
          "duration": 0.8697916666666643
        },
        {
          "name": "A4",
          "midi": 69,
          "time": 51.05208333333332,
          "velocity": 0.984251968503937,
          "duration": 0.8385416666666643
        },
        {
          "name": "F4",
          "midi": 65,
          "time": 52.02604166666665,
          "velocity": 0.968503937007874,
          "duration": 0.9166666666666643
        },
        {
          "name": "F4",
          "midi": 65,
          "time": 53.04166666666665,
          "velocity": 0.889763779527559,
          "duration": 0.8489583333333357
        },
        {
          "name": "F4",
          "midi": 65,
          "time": 54.03645833333332,
          "velocity": 0.9212598425196851,
          "duration": 0.9635416666666643
        },
        {
          "name": "A#4",
          "midi": 70,
          "time": 55.046874999999986,
          "velocity": 0.8661417322834646,
          "duration": 0.828125
        },
        {
          "name": "A#4",
          "midi": 70,
          "time": 56.02083333333332,
          "velocity": 0.8818897637795275,
          "duration": 0.890625
        },
        {
          "name": "C4",
          "midi": 60,
          "time": 58.44791666666666,
          "velocity": 0.7637795275590551,
          "duration": 0.1770833333333357
        },
        {
          "name": "D4",
          "midi": 62,
          "time": 58.65104166666666,
          "velocity": 0.7952755905511811,
          "duration": 0.328125
        },
        {
          "name": "E4",
          "midi": 64,
          "time": 58.96874999999999,
          "velocity": 0.952755905511811,
          "duration": 0.0729166666666643
        },
        {
          "name": "F4",
          "midi": 65,
          "time": 59.11979166666666,
          "velocity": 0.952755905511811,
          "duration": 1.3697916666666643
        },
        {
          "name": "F4",
          "midi": 65,
          "time": 60.55208333333332,
          "velocity": 0.8267716535433071,
          "duration": 0.390625
        },
        {
          "name": "F4",
          "midi": 65,
          "time": 61.02083333333332,
          "velocity": 0.8740157480314961,
          "duration": 0.4583333333333357
        },
        {
          "name": "F4",
          "midi": 65,
          "time": 61.54166666666666,
          "velocity": 0.8110236220472441,
          "duration": 0.3958333333333357
        },
        {
          "name": "F4",
          "midi": 65,
          "time": 62.01562499999999,
          "velocity": 0.8110236220472441,
          "duration": 0.9583333333333357
        },
        {
          "name": "F4",
          "midi": 65,
          "time": 63.04687499999999,
          "velocity": 0.8267716535433071,
          "duration": 0.9895833333333357
        },
        {
          "name": "A#4",
          "midi": 70,
          "time": 64.05729166666666,
          "velocity": 0.8661417322834646,
          "duration": 1.3333333333333286
        },
        {
          "name": "A4",
          "midi": 69,
          "time": 65.56770833333331,
          "velocity": 0.9212598425196851,
          "duration": 0.5260416666666714
        },
        {
          "name": "G4",
          "midi": 67,
          "time": 66.10937499999999,
          "velocity": 0.8740157480314961,
          "duration": 0.7604166666666572
        },
        {
          "name": "F4",
          "midi": 65,
          "time": 66.11458333333331,
          "velocity": 0.8582677165354331,
          "duration": 0.020833333333328596
        },
        {
          "name": "G4",
          "midi": 67,
          "time": 67.56249999999997,
          "velocity": 0.905511811023622,
          "duration": 0.34375
        },
        {
          "name": "F4",
          "midi": 65,
          "time": 68.0208333333333,
          "velocity": 0.968503937007874,
          "duration": 0.9010416666666714
        },
        {
          "name": "F4",
          "midi": 65,
          "time": 69.01562499999997,
          "velocity": 0.84251968503937,
          "duration": 0.8802083333333286
        },
        {
          "name": "F4",
          "midi": 65,
          "time": 69.99999999999997,
          "velocity": 0.8740157480314961,
          "duration": 0.875
        },
        {
          "name": "F4",
          "midi": 65,
          "time": 70.99999999999997,
          "velocity": 0.8740157480314961,
          "duration": 0.9947916666666714
        },
        {
          "name": "A#4",
          "midi": 70,
          "time": 72.03645833333331,
          "velocity": 0.8661417322834646,
          "duration": 0.9114583333333286
        },
        {
          "name": "A#4",
          "midi": 70,
          "time": 73.04687499999997,
          "velocity": 0.7480314960629921,
          "duration": 1.8854166666666714
        },
        {
          "name": "F4",
          "midi": 65,
          "time": 74.99999999999997,
          "velocity": 0.84251968503937,
          "duration": 2.765625
        },
        {
          "name": "F4",
          "midi": 65,
          "time": 78.0208333333333,
          "velocity": 0.905511811023622,
          "duration": 1.8177083333333286
        },
        {
          "name": "F4",
          "midi": 65,
          "time": 80.0052083333333,
          "velocity": 0.84251968503937,
          "duration": 1.875
        },
        {
          "name": "F4",
          "midi": 65,
          "time": 82.01041666666663,
          "velocity": 0.8267716535433071,
          "duration": 0.9270833333333286
        },
        {
          "name": "F4",
          "midi": 65,
          "time": 82.99999999999996,
          "velocity": 0.8267716535433071,
          "duration": 0.921875
        },
        {
          "name": "F4",
          "midi": 65,
          "time": 84.03124999999996,
          "velocity": 0.8267716535433071,
          "duration": 0.9583333333333286
        },
        {
          "name": "A#4",
          "midi": 70,
          "time": 85.04687499999996,
          "velocity": 0.8188976377952756,
          "duration": 0.890625
        },
        {
          "name": "A#4",
          "midi": 70,
          "time": 86.04166666666663,
          "velocity": 0.8188976377952756,
          "duration": 0.4322916666666714
        },
        {
          "name": "A#4",
          "midi": 70,
          "time": 86.54687499999997,
          "velocity": 0.7559055118110236,
          "duration": 0.4114583333333286
        },
        {
          "name": "G4",
          "midi": 67,
          "time": 86.99999999999997,
          "velocity": 0.84251968503937,
          "duration": 0.8958333333333286
        },
        {
          "name": "G4",
          "midi": 67,
          "time": 88.01562499999997,
          "velocity": 0.8582677165354331,
          "duration": 0.4270833333333286
        },
        {
          "name": "G4",
          "midi": 67,
          "time": 88.5208333333333,
          "velocity": 0.8110236220472441,
          "duration": 0.5208333333333286
        },
        {
          "name": "A4",
          "midi": 69,
          "time": 89.0677083333333,
          "velocity": 0.905511811023622,
          "duration": 0.9114583333333286
        },
        {
          "name": "F4",
          "midi": 65,
          "time": 90.06249999999996,
          "velocity": 0.9212598425196851,
          "duration": 0.9791666666666714
        },
        {
          "name": "F4",
          "midi": 65,
          "time": 91.09374999999996,
          "velocity": 0.889763779527559,
          "duration": 0.890625
        },
        {
          "name": "F4",
          "midi": 65,
          "time": 92.06249999999996,
          "velocity": 0.8740157480314961,
          "duration": 0.9166666666666714
        },
        {
          "name": "A#4",
          "midi": 70,
          "time": 93.06249999999996,
          "velocity": 0.8346456692913385,
          "duration": 0.8697916666666714
        },
        {
          "name": "A#4",
          "midi": 70,
          "time": 94.03124999999996,
          "velocity": 0.8346456692913385,
          "duration": 0.4322916666666714
        },
        {
          "name": "A#4",
          "midi": 70,
          "time": 94.54687499999996,
          "velocity": 0.7716535433070866,
          "duration": 0.4583333333333286
        },
        {
          "name": "G4",
          "midi": 67,
          "time": 95.01562499999996,
          "velocity": 0.905511811023622,
          "duration": 0.9322916666666714
        },
        {
          "name": "G4",
          "midi": 67,
          "time": 96.0520833333333,
          "velocity": 0.889763779527559,
          "duration": 0.9739583333333286
        },
        {
          "name": "A4",
          "midi": 69,
          "time": 97.02604166666663,
          "velocity": 0.889763779527559,
          "duration": 0.5052083333333286
        },
        {
          "name": "F4",
          "midi": 65,
          "time": 97.53124999999996,
          "velocity": 0.937007874015748,
          "duration": 0.3854166666666714
        },
        {
          "name": "F4",
          "midi": 65,
          "time": 98.03124999999996,
          "velocity": 0.905511811023622,
          "duration": 1.015625
        },
        {
          "name": "F4",
          "midi": 65,
          "time": 99.07812499999996,
          "velocity": 0.1889763779527559,
          "duration": 0.8385416666666714
        },
        {
          "name": "F4",
          "midi": 65,
          "time": 100.03124999999996,
          "velocity": 0.889763779527559,
          "duration": 0.9322916666666714
        },
        {
          "name": "F4",
          "midi": 65,
          "time": 101.04687499999996,
          "velocity": 0.905511811023622,
          "duration": 1.0364583333333286
        },
        {
          "name": "A#4",
          "midi": 70,
          "time": 102.08333333333329,
          "velocity": 0.8976377952755905,
          "duration": 0.9479166666666714
        },
        {
          "name": "A#4",
          "midi": 70,
          "time": 103.09374999999996,
          "velocity": 0.5590551181102362,
          "duration": 0.4010416666666714
        },
        {
          "name": "A4",
          "midi": 69,
          "time": 103.5677083333333,
          "velocity": 0.905511811023622,
          "duration": 0.4479166666666714
        },
        {
          "name": "G4",
          "midi": 67,
          "time": 104.02604166666664,
          "velocity": 0.889763779527559,
          "duration": 0.7760416666666714
        },
        {
          "name": "G4",
          "midi": 67,
          "time": 104.99999999999999,
          "velocity": 0.8110236220472441,
          "duration": 0.8072916666666714
        },
        {
          "name": "F4",
          "midi": 65,
          "time": 105.99479166666666,
          "velocity": 0.9212598425196851,
          "duration": 0.90625
        },
        {
          "name": "F4",
          "midi": 65,
          "time": 107.04166666666666,
          "velocity": 0.9212598425196851,
          "duration": 0.890625
        },
        {
          "name": "F4",
          "midi": 65,
          "time": 108.04687499999999,
          "velocity": 0.8110236220472441,
          "duration": 0.8645833333333286
        },
        {
          "name": "F4",
          "midi": 65,
          "time": 109.05208333333331,
          "velocity": 0.8267716535433071,
          "duration": 0.9947916666666714
        },
        {
          "name": "A#4",
          "midi": 70,
          "time": 110.05729166666666,
          "velocity": 0.8661417322834646,
          "duration": 2.9427083333333286
        },
        {
          "name": "C4",
          "midi": 60,
          "time": 113.02604166666666,
          "velocity": 0.8267716535433071,
          "duration": 0.5416666666666714
        },
        {
          "name": "E4",
          "midi": 64,
          "time": 113.578125,
          "velocity": 0.8740157480314961,
          "duration": 0.4166666666666714
        },
        {
          "name": "F4",
          "midi": 65,
          "time": 114.04166666666667,
          "velocity": 0.937007874015748,
          "duration": 3.2395833333333286
        },
        {
          "name": "F4",
          "midi": 65,
          "time": 119.99479166666667,
          "velocity": 0.984251968503937,
          "duration": 2.2135416666666714
        }
      ],
      "controlChanges": {
        "7": [
          {
            "number": 7,
            "time": 0.6979166666666667,
            "value": 0.7086614173228346
          }
        ],
        "10": [
          {
            "number": 10,
            "time": 0.6979166666666667,
            "value": 0.25984251968503935
          }
        ]
      },
      "id": 9,
      "name": "larrie@pacbell.net",
      "instrumentNumber": 14,
      "instrument": "tubular bells",
      "instrumentFamily": "chromatic percussion",
      "channelNumber": 7,
      "isPercussion": false
    },
    {
      "startTime": 4.010416666666667,
      "duration": 116.13541666666666,
      "length": 214,
      "notes": [
        {
          "name": "C5",
          "midi": 72,
          "time": 4.010416666666667,
          "velocity": 0.6692913385826772,
          "duration": 0.08854166666666696
        },
        {
          "name": "C5",
          "midi": 72,
          "time": 4.291666666666667,
          "velocity": 0.7480314960629921,
          "duration": 0.0625
        },
        {
          "name": "C5",
          "midi": 72,
          "time": 4.421875,
          "velocity": 0.7007874015748031,
          "duration": 0.07291666666666696
        },
        {
          "name": "F5",
          "midi": 77,
          "time": 4.552083333333334,
          "velocity": 0.7322834645669292,
          "duration": 0.06770833333333304
        },
        {
          "name": "E5",
          "midi": 76,
          "time": 4.562500000000001,
          "velocity": 0.6220472440944882,
          "duration": 0.020833333333333037
        },
        {
          "name": "F5",
          "midi": 77,
          "time": 4.796875,
          "velocity": 0.8110236220472441,
          "duration": 0.08854166666666696
        },
        {
          "name": "A5",
          "midi": 81,
          "time": 5.036458333333334,
          "velocity": 0.6062992125984252,
          "duration": 0.08333333333333304
        },
        {
          "name": "G5",
          "midi": 79,
          "time": 5.041666666666667,
          "velocity": 0.7795275590551181,
          "duration": 0.020833333333333037
        },
        {
          "name": "A5",
          "midi": 81,
          "time": 5.302083333333334,
          "velocity": 0.6535433070866141,
          "duration": 0.09375
        },
        {
          "name": "F5",
          "midi": 77,
          "time": 5.531250000000001,
          "velocity": 0.7952755905511811,
          "duration": 0.33333333333333304
        },
        {
          "name": "C5",
          "midi": 72,
          "time": 5.989583333333334,
          "velocity": 0.8110236220472441,
          "duration": 0.08333333333333304
        },
        {
          "name": "C5",
          "midi": 72,
          "time": 6.255208333333334,
          "velocity": 0.6850393700787402,
          "duration": 0.06770833333333304
        },
        {
          "name": "C5",
          "midi": 72,
          "time": 6.380208333333334,
          "velocity": 0.7637795275590551,
          "duration": 0.109375
        },
        {
          "name": "F5",
          "midi": 77,
          "time": 6.510416666666667,
          "velocity": 0.84251968503937,
          "duration": 0.07291666666666696
        },
        {
          "name": "F5",
          "midi": 77,
          "time": 6.750000000000001,
          "velocity": 0.7165354330708661,
          "duration": 0.078125
        },
        {
          "name": "A5",
          "midi": 81,
          "time": 6.979166666666668,
          "velocity": 0.6220472440944882,
          "duration": 0.078125
        },
        {
          "name": "A5",
          "midi": 81,
          "time": 7.213541666666668,
          "velocity": 0.5039370078740157,
          "duration": 0.08854166666666696
        },
        {
          "name": "F5",
          "midi": 77,
          "time": 7.489583333333335,
          "velocity": 0.7165354330708661,
          "duration": 0.46354166666666696
        },
        {
          "name": "C5",
          "midi": 72,
          "time": 8.000000000000002,
          "velocity": 0.7480314960629921,
          "duration": 0.13020833333333393
        },
        {
          "name": "C5",
          "midi": 72,
          "time": 8.234375000000002,
          "velocity": 0.6850393700787402,
          "duration": 0.09895833333333393
        },
        {
          "name": "C5",
          "midi": 72,
          "time": 8.390625000000002,
          "velocity": 0.6850393700787402,
          "duration": 0.15625
        },
        {
          "name": "F5",
          "midi": 77,
          "time": 8.526041666666668,
          "velocity": 0.7952755905511811,
          "duration": 0.078125
        },
        {
          "name": "F5",
          "midi": 77,
          "time": 8.744791666666668,
          "velocity": 0.6062992125984252,
          "duration": 0.09895833333333393
        },
        {
          "name": "A5",
          "midi": 81,
          "time": 8.989583333333336,
          "velocity": 0.6062992125984252,
          "duration": 0.09375
        },
        {
          "name": "A5",
          "midi": 81,
          "time": 9.234375000000002,
          "velocity": 0.5275590551181102,
          "duration": 0.109375
        },
        {
          "name": "F5",
          "midi": 77,
          "time": 9.500000000000002,
          "velocity": 0.6220472440944882,
          "duration": 0.109375
        },
        {
          "name": "F5",
          "midi": 77,
          "time": 9.734375000000002,
          "velocity": 0.5196850393700787,
          "duration": 0.11458333333333393
        },
        {
          "name": "C5",
          "midi": 72,
          "time": 9.989583333333336,
          "velocity": 0.84251968503937,
          "duration": 1.927083333333334
        },
        {
          "name": "C5",
          "midi": 72,
          "time": 12.000000000000004,
          "velocity": 0.7480314960629921,
          "duration": 0.90625
        },
        {
          "name": "C5",
          "midi": 72,
          "time": 12.989583333333337,
          "velocity": 0.8110236220472441,
          "duration": 0.921875
        },
        {
          "name": "C5",
          "midi": 72,
          "time": 14.046875000000004,
          "velocity": 0.8740157480314961,
          "duration": 0.3802083333333339
        },
        {
          "name": "C5",
          "midi": 72,
          "time": 14.541666666666671,
          "velocity": 0.8582677165354331,
          "duration": 0.16145833333333393
        },
        {
          "name": "C#5",
          "midi": 73,
          "time": 14.791666666666671,
          "velocity": 0.8188976377952756,
          "duration": 0.14583333333333393
        },
        {
          "name": "D5",
          "midi": 74,
          "time": 15.03645833333334,
          "velocity": 0.889763779527559,
          "duration": 0.8958333333333339
        },
        {
          "name": "D5",
          "midi": 74,
          "time": 16.031250000000007,
          "velocity": 0.7952755905511811,
          "duration": 0.38020833333333215
        },
        {
          "name": "D5",
          "midi": 74,
          "time": 16.53645833333334,
          "velocity": 0.7795275590551181,
          "duration": 0.15104166666666785
        },
        {
          "name": "D#5",
          "midi": 75,
          "time": 16.760416666666675,
          "velocity": 0.7480314960629921,
          "duration": 0.17708333333333215
        },
        {
          "name": "E5",
          "midi": 76,
          "time": 17.02083333333334,
          "velocity": 0.8267716535433071,
          "duration": 0.8854166666666679
        },
        {
          "name": "E5",
          "midi": 76,
          "time": 18.041666666666675,
          "velocity": 0.7007874015748031,
          "duration": 0.41145833333333215
        },
        {
          "name": "E5",
          "midi": 76,
          "time": 18.546875000000007,
          "velocity": 0.6062992125984252,
          "duration": 0.15625
        },
        {
          "name": "D5",
          "midi": 74,
          "time": 18.77083333333334,
          "velocity": 0.7795275590551181,
          "duration": 0.140625
        },
        {
          "name": "C5",
          "midi": 72,
          "time": 19.00520833333334,
          "velocity": 0.84251968503937,
          "duration": 0.9010416666666679
        },
        {
          "name": "C5",
          "midi": 72,
          "time": 20.041666666666675,
          "velocity": 0.8267716535433071,
          "duration": 0.40104166666666785
        },
        {
          "name": "C5",
          "midi": 72,
          "time": 20.51562500000001,
          "velocity": 0.6377952755905512,
          "duration": 0.109375
        },
        {
          "name": "C5",
          "midi": 72,
          "time": 20.739583333333343,
          "velocity": 0.7007874015748031,
          "duration": 0.09375
        },
        {
          "name": "C5",
          "midi": 72,
          "time": 21.005208333333343,
          "velocity": 0.8267716535433071,
          "duration": 0.875
        },
        {
          "name": "C5",
          "midi": 72,
          "time": 22.03125000000001,
          "velocity": 0.84251968503937,
          "duration": 0.39583333333333215
        },
        {
          "name": "C5",
          "midi": 72,
          "time": 22.520833333333343,
          "velocity": 0.7952755905511811,
          "duration": 0.13020833333333215
        },
        {
          "name": "C#5",
          "midi": 73,
          "time": 22.744791666666675,
          "velocity": 0.7874015748031497,
          "duration": 0.13020833333333215
        },
        {
          "name": "D5",
          "midi": 74,
          "time": 23.00520833333334,
          "velocity": 0.84251968503937,
          "duration": 0.8854166666666679
        },
        {
          "name": "D5",
          "midi": 74,
          "time": 24.026041666666675,
          "velocity": 0.84251968503937,
          "duration": 0.3125
        },
        {
          "name": "D5",
          "midi": 74,
          "time": 24.411458333333343,
          "velocity": 0.6377952755905512,
          "duration": 0.078125
        },
        {
          "name": "D5",
          "midi": 74,
          "time": 24.541666666666675,
          "velocity": 0.7007874015748031,
          "duration": 0.11458333333333215
        },
        {
          "name": "D5",
          "midi": 74,
          "time": 24.75520833333334,
          "velocity": 0.7795275590551181,
          "duration": 0.11458333333333215
        },
        {
          "name": "E5",
          "midi": 76,
          "time": 25.015625000000004,
          "velocity": 0.7322834645669292,
          "duration": 0.9010416666666679
        },
        {
          "name": "E5",
          "midi": 76,
          "time": 26.02604166666667,
          "velocity": 0.7637795275590551,
          "duration": 0.859375
        },
        {
          "name": "F5",
          "midi": 77,
          "time": 27.000000000000004,
          "velocity": 0.5905511811023622,
          "duration": 2.432291666666668
        },
        {
          "name": "A4",
          "midi": 69,
          "time": 29.031250000000004,
          "velocity": 0.7952755905511811,
          "duration": 0.4427083333333357
        },
        {
          "name": "C5",
          "midi": 72,
          "time": 29.52083333333334,
          "velocity": 0.84251968503937,
          "duration": 0.48958333333333215
        },
        {
          "name": "A4",
          "midi": 69,
          "time": 30.03645833333334,
          "velocity": 0.7637795275590551,
          "duration": 0.28125
        },
        {
          "name": "C5",
          "midi": 72,
          "time": 30.296875000000007,
          "velocity": 0.7165354330708661,
          "duration": 0.27083333333333215
        },
        {
          "name": "A4",
          "midi": 69,
          "time": 30.55729166666667,
          "velocity": 0.7637795275590551,
          "duration": 0.26041666666666785
        },
        {
          "name": "C5",
          "midi": 72,
          "time": 30.78645833333334,
          "velocity": 0.7007874015748031,
          "duration": 0.16145833333333215
        },
        {
          "name": "A4",
          "midi": 69,
          "time": 31.02083333333334,
          "velocity": 0.8110236220472441,
          "duration": 0.8645833333333321
        },
        {
          "name": "A#4",
          "midi": 70,
          "time": 32.01041666666667,
          "velocity": 0.7559055118110236,
          "duration": 0.4322916666666643
        },
        {
          "name": "A#4",
          "midi": 70,
          "time": 32.54166666666667,
          "velocity": 0.7480314960629921,
          "duration": 0.421875
        },
        {
          "name": "A#4",
          "midi": 70,
          "time": 33.04687500000001,
          "velocity": 0.7480314960629921,
          "duration": 0.15625
        },
        {
          "name": "A4",
          "midi": 69,
          "time": 33.27604166666667,
          "velocity": 0.889763779527559,
          "duration": 0.1458333333333357
        },
        {
          "name": "A4",
          "midi": 69,
          "time": 33.52604166666667,
          "velocity": 0.8740157480314961,
          "duration": 0.4114583333333357
        },
        {
          "name": "B4",
          "midi": 71,
          "time": 34.03125000000001,
          "velocity": 0.889763779527559,
          "duration": 0.7135416666666643
        },
        {
          "name": "B4",
          "midi": 71,
          "time": 34.78125000000001,
          "velocity": 0.5275590551181102,
          "duration": 0.140625
        },
        {
          "name": "C5",
          "midi": 72,
          "time": 35.00520833333334,
          "velocity": 0.905511811023622,
          "duration": 0.8958333333333357
        },
        {
          "name": "A4",
          "midi": 69,
          "time": 35.97916666666668,
          "velocity": 0.8110236220472441,
          "duration": 0.4583333333333357
        },
        {
          "name": "F4",
          "midi": 65,
          "time": 36.51041666666668,
          "velocity": 0.7795275590551181,
          "duration": 0.421875
        },
        {
          "name": "A4",
          "midi": 69,
          "time": 37.015625000000014,
          "velocity": 0.7480314960629921,
          "duration": 0.421875
        },
        {
          "name": "F4",
          "midi": 65,
          "time": 37.51041666666668,
          "velocity": 0.7480314960629921,
          "duration": 0.4322916666666643
        },
        {
          "name": "A4",
          "midi": 69,
          "time": 38.01562500000001,
          "velocity": 0.7165354330708661,
          "duration": 0.4479166666666643
        },
        {
          "name": "F4",
          "midi": 65,
          "time": 38.505208333333336,
          "velocity": 0.6692913385826772,
          "duration": 0.2864583333333357
        },
        {
          "name": "G4",
          "midi": 67,
          "time": 38.76041666666667,
          "velocity": 0.7322834645669292,
          "duration": 0.1145833333333357
        },
        {
          "name": "A4",
          "midi": 69,
          "time": 39.00000000000001,
          "velocity": 0.7637795275590551,
          "duration": 0.875
        },
        {
          "name": "A#4",
          "midi": 70,
          "time": 40.02083333333334,
          "velocity": 0.8346456692913385,
          "duration": 0.734375
        },
        {
          "name": "A#4",
          "midi": 70,
          "time": 40.81770833333334,
          "velocity": 0.7480314960629921,
          "duration": 0.1197916666666643
        },
        {
          "name": "A#4",
          "midi": 70,
          "time": 41.04166666666667,
          "velocity": 0.7716535433070866,
          "duration": 0.140625
        },
        {
          "name": "A4",
          "midi": 69,
          "time": 41.27604166666667,
          "velocity": 0.889763779527559,
          "duration": 0.1354166666666643
        },
        {
          "name": "A4",
          "midi": 69,
          "time": 41.53125,
          "velocity": 0.8582677165354331,
          "duration": 0.4427083333333357
        },
        {
          "name": "A4",
          "midi": 69,
          "time": 42.015625,
          "velocity": 0.49606299212598426,
          "duration": 0.1614583333333357
        },
        {
          "name": "A4",
          "midi": 69,
          "time": 42.22916666666667,
          "velocity": 0.44881889763779526,
          "duration": 0.1927083333333357
        },
        {
          "name": "A4",
          "midi": 69,
          "time": 42.47916666666667,
          "velocity": 0.4330708661417323,
          "duration": 0.1614583333333357
        },
        {
          "name": "A4",
          "midi": 69,
          "time": 42.70312500000001,
          "velocity": 0.41732283464566927,
          "duration": 0.1510416666666643
        },
        {
          "name": "F4",
          "midi": 65,
          "time": 42.96354166666667,
          "velocity": 0.7637795275590551,
          "duration": 2.1822916666666643
        },
        {
          "name": "C5",
          "midi": 72,
          "time": 45.25,
          "velocity": 0.7637795275590551,
          "duration": 0.125
        },
        {
          "name": "A4",
          "midi": 69,
          "time": 45.515625,
          "velocity": 0.8582677165354331,
          "duration": 0.140625
        },
        {
          "name": "D5",
          "midi": 74,
          "time": 47.260416666666664,
          "velocity": 0.5905511811023622,
          "duration": 0.0989583333333357
        },
        {
          "name": "C5",
          "midi": 72,
          "time": 47.265625,
          "velocity": 0.5905511811023622,
          "duration": 0.0625
        },
        {
          "name": "A#4",
          "midi": 70,
          "time": 47.520833333333336,
          "velocity": 0.8188976377952756,
          "duration": 0.203125
        },
        {
          "name": "C5",
          "midi": 72,
          "time": 49.265625,
          "velocity": 0.7952755905511811,
          "duration": 0.171875
        },
        {
          "name": "E5",
          "midi": 76,
          "time": 49.515625,
          "velocity": 0.8582677165354331,
          "duration": 0.2239583333333357
        },
        {
          "name": "C5",
          "midi": 72,
          "time": 51.28125,
          "velocity": 0.84251968503937,
          "duration": 0.1458333333333357
        },
        {
          "name": "D5",
          "midi": 74,
          "time": 51.520833333333336,
          "velocity": 0.8110236220472441,
          "duration": 0.1145833333333357
        },
        {
          "name": "E5",
          "midi": 76,
          "time": 51.74479166666667,
          "velocity": 0.6220472440944882,
          "duration": 0.1354166666666643
        },
        {
          "name": "F5",
          "midi": 77,
          "time": 52,
          "velocity": 0.7637795275590551,
          "duration": 0.953125
        },
        {
          "name": "E5",
          "midi": 76,
          "time": 53.010416666666664,
          "velocity": 0.7795275590551181,
          "duration": 0.4270833333333357
        },
        {
          "name": "D5",
          "midi": 74,
          "time": 53.53125,
          "velocity": 0.7952755905511811,
          "duration": 0.4375
        },
        {
          "name": "C5",
          "midi": 72,
          "time": 54.03125,
          "velocity": 0.7637795275590551,
          "duration": 0.8645833333333357
        },
        {
          "name": "A#4",
          "midi": 70,
          "time": 55.02604166666667,
          "velocity": 0.8188976377952756,
          "duration": 0.890625
        },
        {
          "name": "A#4",
          "midi": 70,
          "time": 56.02604166666667,
          "velocity": 0.7559055118110236,
          "duration": 0.4322916666666643
        },
        {
          "name": "A#4",
          "midi": 70,
          "time": 56.54166666666667,
          "velocity": 0.7244094488188977,
          "duration": 0.1354166666666643
        },
        {
          "name": "A#4",
          "midi": 70,
          "time": 56.75,
          "velocity": 0.6929133858267716,
          "duration": 0.1822916666666643
        },
        {
          "name": "G4",
          "midi": 67,
          "time": 57.015625,
          "velocity": 0.8110236220472441,
          "duration": 0.8854166666666643
        },
        {
          "name": "G4",
          "midi": 67,
          "time": 58.046875,
          "velocity": 0.7007874015748031,
          "duration": 0.4322916666666643
        },
        {
          "name": "A4",
          "midi": 69,
          "time": 58.046875,
          "velocity": 0.8110236220472441,
          "duration": 0.1197916666666643
        },
        {
          "name": "G4",
          "midi": 67,
          "time": 58.510416666666664,
          "velocity": 0.11023622047244094,
          "duration": 0.1614583333333357
        },
        {
          "name": "G4",
          "midi": 67,
          "time": 58.760416666666664,
          "velocity": 0.8267716535433071,
          "duration": 0.1302083333333357
        },
        {
          "name": "F4",
          "midi": 65,
          "time": 58.989583333333336,
          "velocity": 0.84251968503937,
          "duration": 1.125
        },
        {
          "name": "A4",
          "midi": 69,
          "time": 60.020833333333336,
          "velocity": 0.7637795275590551,
          "duration": 0.078125
        },
        {
          "name": "A4",
          "midi": 69,
          "time": 60.255208333333336,
          "velocity": 0.8110236220472441,
          "duration": 0.0677083333333286
        },
        {
          "name": "F4",
          "midi": 65,
          "time": 60.265625,
          "velocity": 0.5748031496062992,
          "duration": 0.0677083333333286
        },
        {
          "name": "F4",
          "midi": 65,
          "time": 60.385416666666664,
          "velocity": 0.6062992125984252,
          "duration": 0.2031250000000071
        },
        {
          "name": "A4",
          "midi": 69,
          "time": 60.390625,
          "velocity": 0.7007874015748031,
          "duration": 0.0625000000000071
        },
        {
          "name": "C5",
          "midi": 72,
          "time": 60.395833333333336,
          "velocity": 0.6377952755905512,
          "duration": 0.0520833333333357
        },
        {
          "name": "A4",
          "midi": 69,
          "time": 60.49479166666667,
          "velocity": 0.6692913385826772,
          "duration": 0.078125
        },
        {
          "name": "C5",
          "midi": 72,
          "time": 60.50000000000001,
          "velocity": 0.5590551181102362,
          "duration": 0.0729166666666643
        },
        {
          "name": "A4",
          "midi": 69,
          "time": 61.00000000000001,
          "velocity": 0.84251968503937,
          "duration": 0.078125
        },
        {
          "name": "F4",
          "midi": 65,
          "time": 61.00000000000001,
          "velocity": 0.7165354330708661,
          "duration": 0.078125
        },
        {
          "name": "F4",
          "midi": 65,
          "time": 61.21354166666667,
          "velocity": 0.6220472440944882,
          "duration": 0.0833333333333357
        },
        {
          "name": "A4",
          "midi": 69,
          "time": 61.21875000000001,
          "velocity": 0.7480314960629921,
          "duration": 0.0729166666666643
        },
        {
          "name": "A4",
          "midi": 69,
          "time": 61.52083333333334,
          "velocity": 0.889763779527559,
          "duration": 0.0729166666666643
        },
        {
          "name": "F4",
          "midi": 65,
          "time": 61.52083333333334,
          "velocity": 0.7637795275590551,
          "duration": 0.0729166666666643
        },
        {
          "name": "A4",
          "midi": 69,
          "time": 62.00520833333334,
          "velocity": 0.84251968503937,
          "duration": 0.2604166666666714
        },
        {
          "name": "F4",
          "midi": 65,
          "time": 62.02083333333334,
          "velocity": 0.5590551181102362,
          "duration": 0.0520833333333357
        },
        {
          "name": "C5",
          "midi": 72,
          "time": 62.02083333333334,
          "velocity": 0.7007874015748031,
          "duration": 0.4531250000000071
        },
        {
          "name": "A4",
          "midi": 69,
          "time": 62.31770833333335,
          "velocity": 0.12598425196850394,
          "duration": 0.125
        },
        {
          "name": "F4",
          "midi": 65,
          "time": 62.510416666666686,
          "velocity": 0.7480314960629921,
          "duration": 0.2760416666666714
        },
        {
          "name": "G4",
          "midi": 67,
          "time": 62.76562500000002,
          "velocity": 0.6220472440944882,
          "duration": 0.0989583333333357
        },
        {
          "name": "A4",
          "midi": 69,
          "time": 63.01041666666669,
          "velocity": 0.7165354330708661,
          "duration": 0.8697916666666643
        },
        {
          "name": "G4",
          "midi": 67,
          "time": 64.04687500000003,
          "velocity": 0.7795275590551181,
          "duration": 0.7864583333333286
        },
        {
          "name": "A#4",
          "midi": 70,
          "time": 64.05208333333336,
          "velocity": 0.8031496062992126,
          "duration": 0.8125
        },
        {
          "name": "F4",
          "midi": 65,
          "time": 64.98958333333336,
          "velocity": 0.7637795275590551,
          "duration": 0.875
        },
        {
          "name": "A4",
          "midi": 69,
          "time": 64.99479166666669,
          "velocity": 0.8740157480314961,
          "duration": 0.890625
        },
        {
          "name": "B4",
          "midi": 71,
          "time": 66.03645833333336,
          "velocity": 0.8582677165354331,
          "duration": 0.9010416666666572
        },
        {
          "name": "G4",
          "midi": 67,
          "time": 66.04166666666669,
          "velocity": 0.7637795275590551,
          "duration": 0.8489583333333286
        },
        {
          "name": "C5",
          "midi": 72,
          "time": 67.03645833333334,
          "velocity": 0.8110236220472441,
          "duration": 0.8645833333333428
        },
        {
          "name": "G4",
          "midi": 67,
          "time": 67.03645833333334,
          "velocity": 0.7637795275590551,
          "duration": 0.8229166666666714
        },
        {
          "name": "F4",
          "midi": 65,
          "time": 68.04166666666669,
          "velocity": 0.8110236220472441,
          "duration": 0.8541666666666714
        },
        {
          "name": "A4",
          "midi": 69,
          "time": 68.04166666666669,
          "velocity": 0.889763779527559,
          "duration": 0.8645833333333428
        },
        {
          "name": "F4",
          "midi": 65,
          "time": 69.03125000000003,
          "velocity": 0.7795275590551181,
          "duration": 0.84375
        },
        {
          "name": "A4",
          "midi": 69,
          "time": 69.03125000000003,
          "velocity": 0.8582677165354331,
          "duration": 0.8645833333333286
        },
        {
          "name": "F4",
          "midi": 65,
          "time": 70.02604166666669,
          "velocity": 0.7480314960629921,
          "duration": 0.859375
        },
        {
          "name": "A4",
          "midi": 69,
          "time": 70.02604166666669,
          "velocity": 0.84251968503937,
          "duration": 0.8854166666666714
        },
        {
          "name": "F4",
          "midi": 65,
          "time": 71.01562500000003,
          "velocity": 0.7480314960629921,
          "duration": 0.8385416666666714
        },
        {
          "name": "A4",
          "midi": 69,
          "time": 71.01562500000003,
          "velocity": 0.8267716535433071,
          "duration": 0.8541666666666714
        },
        {
          "name": "A#4",
          "midi": 70,
          "time": 72.04687500000003,
          "velocity": 0.7559055118110236,
          "duration": 0.9479166666666714
        },
        {
          "name": "G4",
          "midi": 67,
          "time": 72.04687500000003,
          "velocity": 0.7322834645669292,
          "duration": 1.1354166666666714
        },
        {
          "name": "A#4",
          "midi": 70,
          "time": 73.02083333333337,
          "velocity": 0.11023622047244094,
          "duration": 0.1822916666666572
        },
        {
          "name": "A4",
          "midi": 69,
          "time": 73.2760416666667,
          "velocity": 0.8110236220472441,
          "duration": 0.1197916666666714
        },
        {
          "name": "F4",
          "midi": 65,
          "time": 73.2760416666667,
          "velocity": 0.7637795275590551,
          "duration": 0.1302083333333428
        },
        {
          "name": "F4",
          "midi": 65,
          "time": 73.53125000000004,
          "velocity": 0.7165354330708661,
          "duration": 1.3020833333333286
        },
        {
          "name": "A4",
          "midi": 69,
          "time": 73.53125000000004,
          "velocity": 0.7795275590551181,
          "duration": 1.3125
        },
        {
          "name": "F4",
          "midi": 65,
          "time": 74.97395833333337,
          "velocity": 0.8267716535433071,
          "duration": 1.6354166666666714
        },
        {
          "name": "F4",
          "midi": 65,
          "time": 82.00520833333337,
          "velocity": 0.7795275590551181,
          "duration": 0.5833333333333428
        },
        {
          "name": "A4",
          "midi": 69,
          "time": 82.53125000000004,
          "velocity": 0.8110236220472441,
          "duration": 0.4583333333333428
        },
        {
          "name": "F4",
          "midi": 65,
          "time": 83.02083333333339,
          "velocity": 0.7637795275590551,
          "duration": 1.0677083333333286
        },
        {
          "name": "A4",
          "midi": 69,
          "time": 84.05208333333339,
          "velocity": 0.8267716535433071,
          "duration": 0.4635416666666572
        },
        {
          "name": "F4",
          "midi": 65,
          "time": 84.54687500000004,
          "velocity": 0.8582677165354331,
          "duration": 0.546875
        },
        {
          "name": "A#4",
          "midi": 70,
          "time": 85.06250000000004,
          "velocity": 0.8503937007874016,
          "duration": 0.9010416666666714
        },
        {
          "name": "A#4",
          "midi": 70,
          "time": 86.05729166666671,
          "velocity": 0.8031496062992126,
          "duration": 0.484375
        },
        {
          "name": "G4",
          "midi": 67,
          "time": 86.54687500000004,
          "velocity": 0.8740157480314961,
          "duration": 0.40625
        },
        {
          "name": "C5",
          "midi": 72,
          "time": 87.02083333333337,
          "velocity": 0.8740157480314961,
          "duration": 0.953125
        },
        {
          "name": "C5",
          "midi": 72,
          "time": 88.04687500000004,
          "velocity": 0.8740157480314961,
          "duration": 0.4322916666666714
        },
        {
          "name": "G#4",
          "midi": 68,
          "time": 88.52604166666671,
          "velocity": 0.8031496062992126,
          "duration": 0.40625
        },
        {
          "name": "A4",
          "midi": 69,
          "time": 89.01041666666671,
          "velocity": 0.8582677165354331,
          "duration": 0.9791666666666714
        },
        {
          "name": "A4",
          "midi": 69,
          "time": 90.04166666666671,
          "velocity": 0.7637795275590551,
          "duration": 0.484375
        },
        {
          "name": "F4",
          "midi": 65,
          "time": 90.53125000000004,
          "velocity": 0.889763779527559,
          "duration": 0.5052083333333286
        },
        {
          "name": "A4",
          "midi": 69,
          "time": 91.00520833333337,
          "velocity": 0.8267716535433071,
          "duration": 0.9166666666666714
        },
        {
          "name": "A4",
          "midi": 69,
          "time": 92.04166666666671,
          "velocity": 0.8582677165354331,
          "duration": 0.5
        },
        {
          "name": "F4",
          "midi": 65,
          "time": 92.54166666666671,
          "velocity": 0.889763779527559,
          "duration": 0.515625
        },
        {
          "name": "A#4",
          "midi": 70,
          "time": 93.03125000000004,
          "velocity": 0.8661417322834646,
          "duration": 0.9010416666666714
        },
        {
          "name": "A#4",
          "midi": 70,
          "time": 94.02083333333339,
          "velocity": 0.8346456692913385,
          "duration": 0.453125
        },
        {
          "name": "A#4",
          "midi": 70,
          "time": 94.55208333333339,
          "velocity": 0.8188976377952756,
          "duration": 0.40625
        },
        {
          "name": "C5",
          "midi": 72,
          "time": 95.02083333333339,
          "velocity": 0.8582677165354331,
          "duration": 0.953125
        },
        {
          "name": "C5",
          "midi": 72,
          "time": 96.05208333333339,
          "velocity": 0.8582677165354331,
          "duration": 0.4270833333333286
        },
        {
          "name": "C5",
          "midi": 72,
          "time": 96.54687500000004,
          "velocity": 0.84251968503937,
          "duration": 0.4322916666666714
        },
        {
          "name": "F4",
          "midi": 65,
          "time": 97.00520833333339,
          "velocity": 0.84251968503937,
          "duration": 2.9270833333333144
        },
        {
          "name": "A4",
          "midi": 69,
          "time": 98.31770833333339,
          "velocity": 0.4330708661417323,
          "duration": 0.0989583333333286
        },
        {
          "name": "A4",
          "midi": 69,
          "time": 98.54166666666671,
          "velocity": 0.5590551181102362,
          "duration": 0.1614583333333286
        },
        {
          "name": "A4",
          "midi": 69,
          "time": 99.02083333333337,
          "velocity": 0.6377952755905512,
          "duration": 0.0989583333333286
        },
        {
          "name": "A4",
          "midi": 69,
          "time": 99.5104166666667,
          "velocity": 0.5905511811023622,
          "duration": 0.0833333333333286
        },
        {
          "name": "F4",
          "midi": 65,
          "time": 100.01562500000003,
          "velocity": 0.7795275590551181,
          "duration": 1.9114583333333286
        },
        {
          "name": "A#4",
          "midi": 70,
          "time": 102.02083333333336,
          "velocity": 0.8661417322834646,
          "duration": 1.3802083333333286
        },
        {
          "name": "A4",
          "midi": 69,
          "time": 103.53125000000001,
          "velocity": 0.8267716535433071,
          "duration": 0.4479166666666714
        },
        {
          "name": "G4",
          "midi": 67,
          "time": 104.04687500000001,
          "velocity": 0.8110236220472441,
          "duration": 1.796875
        },
        {
          "name": "A4",
          "midi": 69,
          "time": 106.00520833333334,
          "velocity": 0.8582677165354331,
          "duration": 0.921875
        },
        {
          "name": "F4",
          "midi": 65,
          "time": 106.02083333333334,
          "velocity": 0.6377952755905512,
          "duration": 0.041666666666671404
        },
        {
          "name": "F4",
          "midi": 65,
          "time": 107.01041666666667,
          "velocity": 0.8267716535433071,
          "duration": 0.9375
        },
        {
          "name": "A4",
          "midi": 69,
          "time": 108.05729166666667,
          "velocity": 0.7637795275590551,
          "duration": 0.4114583333333286
        },
        {
          "name": "F4",
          "midi": 65,
          "time": 108.53645833333333,
          "velocity": 0.8110236220472441,
          "duration": 0.3802083333333286
        },
        {
          "name": "A4",
          "midi": 69,
          "time": 108.99999999999999,
          "velocity": 0.7322834645669292,
          "duration": 0.921875
        },
        {
          "name": "A#4",
          "midi": 70,
          "time": 110.06249999999999,
          "velocity": 0.7716535433070866,
          "duration": 0.890625
        },
        {
          "name": "A#4",
          "midi": 70,
          "time": 111.02604166666666,
          "velocity": 0.7086614173228346,
          "duration": 0.2916666666666714
        },
        {
          "name": "A4",
          "midi": 69,
          "time": 111.46354166666666,
          "velocity": 0.7952755905511811,
          "duration": 0.9895833333333286
        },
        {
          "name": "A4",
          "midi": 69,
          "time": 112.53645833333331,
          "velocity": 0.7007874015748031,
          "duration": 1.3385416666666714
        },
        {
          "name": "F4",
          "midi": 65,
          "time": 114.03124999999999,
          "velocity": 0.7322834645669292,
          "duration": 0.1145833333333286
        },
        {
          "name": "F4",
          "midi": 65,
          "time": 114.26041666666664,
          "velocity": 0.5905511811023622,
          "duration": 0.0885416666666714
        },
        {
          "name": "F4",
          "midi": 65,
          "time": 114.40624999999999,
          "velocity": 0.6062992125984252,
          "duration": 0.078125
        },
        {
          "name": "F4",
          "midi": 65,
          "time": 114.52083333333331,
          "velocity": 0.49606299212598426,
          "duration": 0.0989583333333286
        },
        {
          "name": "F4",
          "midi": 65,
          "time": 114.75520833333331,
          "velocity": 0.7795275590551181,
          "duration": 0.078125
        },
        {
          "name": "F4",
          "midi": 65,
          "time": 114.98437499999999,
          "velocity": 0.889763779527559,
          "duration": 0.078125
        },
        {
          "name": "F4",
          "midi": 65,
          "time": 115.22916666666666,
          "velocity": 0.8267716535433071,
          "duration": 0.0625
        },
        {
          "name": "F4",
          "midi": 65,
          "time": 115.36458333333333,
          "velocity": 0.7637795275590551,
          "duration": 0.0677083333333286
        },
        {
          "name": "F4",
          "midi": 65,
          "time": 115.48437499999999,
          "velocity": 0.8110236220472441,
          "duration": 0.0729166666666714
        },
        {
          "name": "F4",
          "midi": 65,
          "time": 115.61458333333333,
          "velocity": 0.7637795275590551,
          "duration": 0.0729166666666714
        },
        {
          "name": "F4",
          "midi": 65,
          "time": 115.73958333333333,
          "velocity": 0.7637795275590551,
          "duration": 0.0833333333333286
        },
        {
          "name": "F4",
          "midi": 65,
          "time": 115.87499999999999,
          "velocity": 0.7480314960629921,
          "duration": 0.0885416666666714
        },
        {
          "name": "F4",
          "midi": 65,
          "time": 116.03645833333333,
          "velocity": 0.9212598425196851,
          "duration": 0.0989583333333286
        }
      ],
      "controlChanges": {
        "7": [
          {
            "number": 7,
            "time": 0.7239583333333334,
            "value": 0.7165354330708661
          }
        ],
        "10": [
          {
            "number": 10,
            "time": 0.7239583333333334,
            "value": 0.18110236220472442
          }
        ]
      },
      "id": 10,
      "name": "\"Especially sequenced",
      "instrumentNumber": 56,
      "instrument": "trumpet",
      "instrumentFamily": "brass",
      "channelNumber": 8,
      "isPercussion": false
    },
    {
      "startTime": 5.973958333333333,
      "duration": 123.56770833333347,
      "length": 471,
      "notes": [
        {
          "name": "B5",
          "midi": 83,
          "time": 5.973958333333333,
          "velocity": 0.6299212598425197,
          "duration": 0.09375
        },
        {
          "name": "B5",
          "midi": 83,
          "time": 6.223958333333333,
          "velocity": 0.47244094488188976,
          "duration": 0.11458333333333304
        },
        {
          "name": "B5",
          "midi": 83,
          "time": 6.473958333333333,
          "velocity": 0.6299212598425197,
          "duration": 0.09375
        },
        {
          "name": "B5",
          "midi": 83,
          "time": 6.723958333333333,
          "velocity": 0.47244094488188976,
          "duration": 0.11458333333333304
        },
        {
          "name": "B5",
          "midi": 83,
          "time": 6.973958333333333,
          "velocity": 0.6299212598425197,
          "duration": 0.09375
        },
        {
          "name": "B5",
          "midi": 83,
          "time": 7.223958333333333,
          "velocity": 0.47244094488188976,
          "duration": 0.11458333333333304
        },
        {
          "name": "B5",
          "midi": 83,
          "time": 7.473958333333333,
          "velocity": 0.6299212598425197,
          "duration": 0.09375
        },
        {
          "name": "B5",
          "midi": 83,
          "time": 7.723958333333333,
          "velocity": 0.47244094488188976,
          "duration": 0.11458333333333304
        },
        {
          "name": "B5",
          "midi": 83,
          "time": 7.973958333333333,
          "velocity": 0.6299212598425197,
          "duration": 0.09374999999999911
        },
        {
          "name": "B5",
          "midi": 83,
          "time": 8.223958333333332,
          "velocity": 0.47244094488188976,
          "duration": 0.11458333333333393
        },
        {
          "name": "B5",
          "midi": 83,
          "time": 8.473958333333332,
          "velocity": 0.6299212598425197,
          "duration": 0.09375
        },
        {
          "name": "B5",
          "midi": 83,
          "time": 8.723958333333332,
          "velocity": 0.47244094488188976,
          "duration": 0.11458333333333393
        },
        {
          "name": "B5",
          "midi": 83,
          "time": 8.973958333333332,
          "velocity": 0.6299212598425197,
          "duration": 0.09375
        },
        {
          "name": "B5",
          "midi": 83,
          "time": 9.223958333333332,
          "velocity": 0.47244094488188976,
          "duration": 0.11458333333333393
        },
        {
          "name": "B5",
          "midi": 83,
          "time": 9.473958333333332,
          "velocity": 0.6299212598425197,
          "duration": 0.09375
        },
        {
          "name": "B5",
          "midi": 83,
          "time": 9.723958333333332,
          "velocity": 0.47244094488188976,
          "duration": 0.11458333333333393
        },
        {
          "name": "B5",
          "midi": 83,
          "time": 9.973958333333332,
          "velocity": 0.6299212598425197,
          "duration": 0.09375
        },
        {
          "name": "B5",
          "midi": 83,
          "time": 10.223958333333332,
          "velocity": 0.47244094488188976,
          "duration": 0.11458333333333393
        },
        {
          "name": "B5",
          "midi": 83,
          "time": 10.473958333333332,
          "velocity": 0.6299212598425197,
          "duration": 0.09375
        },
        {
          "name": "B5",
          "midi": 83,
          "time": 10.723958333333332,
          "velocity": 0.47244094488188976,
          "duration": 0.11458333333333393
        },
        {
          "name": "B5",
          "midi": 83,
          "time": 10.973958333333332,
          "velocity": 0.6299212598425197,
          "duration": 0.09375
        },
        {
          "name": "B5",
          "midi": 83,
          "time": 11.223958333333332,
          "velocity": 0.47244094488188976,
          "duration": 0.11458333333333393
        },
        {
          "name": "B5",
          "midi": 83,
          "time": 11.473958333333332,
          "velocity": 0.6299212598425197,
          "duration": 0.09375
        },
        {
          "name": "B5",
          "midi": 83,
          "time": 11.723958333333332,
          "velocity": 0.47244094488188976,
          "duration": 0.11458333333333393
        },
        {
          "name": "B5",
          "midi": 83,
          "time": 11.973958333333332,
          "velocity": 0.6299212598425197,
          "duration": 0.09375
        },
        {
          "name": "B5",
          "midi": 83,
          "time": 12.223958333333332,
          "velocity": 0.47244094488188976,
          "duration": 0.11458333333333393
        },
        {
          "name": "B5",
          "midi": 83,
          "time": 12.473958333333332,
          "velocity": 0.6299212598425197,
          "duration": 0.09375
        },
        {
          "name": "B5",
          "midi": 83,
          "time": 12.723958333333332,
          "velocity": 0.47244094488188976,
          "duration": 0.11458333333333393
        },
        {
          "name": "B5",
          "midi": 83,
          "time": 12.973958333333332,
          "velocity": 0.6299212598425197,
          "duration": 0.09375
        },
        {
          "name": "B5",
          "midi": 83,
          "time": 13.223958333333332,
          "velocity": 0.47244094488188976,
          "duration": 0.11458333333333393
        },
        {
          "name": "B5",
          "midi": 83,
          "time": 13.473958333333332,
          "velocity": 0.6299212598425197,
          "duration": 0.09375
        },
        {
          "name": "B5",
          "midi": 83,
          "time": 13.723958333333332,
          "velocity": 0.47244094488188976,
          "duration": 0.11458333333333393
        },
        {
          "name": "B5",
          "midi": 83,
          "time": 13.973958333333332,
          "velocity": 0.6299212598425197,
          "duration": 0.09375
        },
        {
          "name": "B5",
          "midi": 83,
          "time": 14.223958333333332,
          "velocity": 0.47244094488188976,
          "duration": 0.11458333333333393
        },
        {
          "name": "B5",
          "midi": 83,
          "time": 14.473958333333332,
          "velocity": 0.6299212598425197,
          "duration": 0.09375
        },
        {
          "name": "B5",
          "midi": 83,
          "time": 14.723958333333332,
          "velocity": 0.47244094488188976,
          "duration": 0.11458333333333393
        },
        {
          "name": "B5",
          "midi": 83,
          "time": 14.973958333333332,
          "velocity": 0.6299212598425197,
          "duration": 0.09375
        },
        {
          "name": "B5",
          "midi": 83,
          "time": 15.223958333333332,
          "velocity": 0.47244094488188976,
          "duration": 0.11458333333333393
        },
        {
          "name": "B5",
          "midi": 83,
          "time": 15.473958333333332,
          "velocity": 0.6299212598425197,
          "duration": 0.09375
        },
        {
          "name": "B5",
          "midi": 83,
          "time": 15.723958333333332,
          "velocity": 0.47244094488188976,
          "duration": 0.11458333333333393
        },
        {
          "name": "B5",
          "midi": 83,
          "time": 15.973958333333332,
          "velocity": 0.6299212598425197,
          "duration": 0.09375
        },
        {
          "name": "B5",
          "midi": 83,
          "time": 16.223958333333332,
          "velocity": 0.47244094488188976,
          "duration": 0.11458333333333215
        },
        {
          "name": "B5",
          "midi": 83,
          "time": 16.473958333333332,
          "velocity": 0.6299212598425197,
          "duration": 0.09375
        },
        {
          "name": "B5",
          "midi": 83,
          "time": 16.723958333333332,
          "velocity": 0.47244094488188976,
          "duration": 0.11458333333333215
        },
        {
          "name": "B5",
          "midi": 83,
          "time": 16.973958333333332,
          "velocity": 0.6299212598425197,
          "duration": 0.09375
        },
        {
          "name": "B5",
          "midi": 83,
          "time": 17.223958333333332,
          "velocity": 0.47244094488188976,
          "duration": 0.11458333333333215
        },
        {
          "name": "B5",
          "midi": 83,
          "time": 17.473958333333332,
          "velocity": 0.6299212598425197,
          "duration": 0.09375
        },
        {
          "name": "B5",
          "midi": 83,
          "time": 17.723958333333332,
          "velocity": 0.47244094488188976,
          "duration": 0.11458333333333215
        },
        {
          "name": "B5",
          "midi": 83,
          "time": 17.973958333333332,
          "velocity": 0.6299212598425197,
          "duration": 0.09375
        },
        {
          "name": "B5",
          "midi": 83,
          "time": 18.223958333333332,
          "velocity": 0.47244094488188976,
          "duration": 0.11458333333333215
        },
        {
          "name": "B5",
          "midi": 83,
          "time": 18.473958333333332,
          "velocity": 0.6299212598425197,
          "duration": 0.09375
        },
        {
          "name": "B5",
          "midi": 83,
          "time": 18.723958333333332,
          "velocity": 0.47244094488188976,
          "duration": 0.11458333333333215
        },
        {
          "name": "B5",
          "midi": 83,
          "time": 18.973958333333332,
          "velocity": 0.6299212598425197,
          "duration": 0.09375
        },
        {
          "name": "B5",
          "midi": 83,
          "time": 19.223958333333332,
          "velocity": 0.47244094488188976,
          "duration": 0.11458333333333215
        },
        {
          "name": "B5",
          "midi": 83,
          "time": 19.473958333333332,
          "velocity": 0.6299212598425197,
          "duration": 0.09375
        },
        {
          "name": "B5",
          "midi": 83,
          "time": 19.723958333333332,
          "velocity": 0.47244094488188976,
          "duration": 0.11458333333333215
        },
        {
          "name": "B5",
          "midi": 83,
          "time": 19.973958333333332,
          "velocity": 0.6299212598425197,
          "duration": 0.09375
        },
        {
          "name": "B5",
          "midi": 83,
          "time": 20.223958333333332,
          "velocity": 0.47244094488188976,
          "duration": 0.11458333333333215
        },
        {
          "name": "B5",
          "midi": 83,
          "time": 20.473958333333332,
          "velocity": 0.6299212598425197,
          "duration": 0.09375
        },
        {
          "name": "B5",
          "midi": 83,
          "time": 20.723958333333332,
          "velocity": 0.47244094488188976,
          "duration": 0.11458333333333215
        },
        {
          "name": "B5",
          "midi": 83,
          "time": 20.973958333333332,
          "velocity": 0.6299212598425197,
          "duration": 0.09375
        },
        {
          "name": "B5",
          "midi": 83,
          "time": 21.223958333333332,
          "velocity": 0.47244094488188976,
          "duration": 0.11458333333333215
        },
        {
          "name": "B5",
          "midi": 83,
          "time": 21.473958333333332,
          "velocity": 0.6299212598425197,
          "duration": 0.09375
        },
        {
          "name": "B5",
          "midi": 83,
          "time": 21.723958333333332,
          "velocity": 0.47244094488188976,
          "duration": 0.11458333333333215
        },
        {
          "name": "B5",
          "midi": 83,
          "time": 21.973958333333332,
          "velocity": 0.6299212598425197,
          "duration": 0.09375
        },
        {
          "name": "B5",
          "midi": 83,
          "time": 22.223958333333332,
          "velocity": 0.47244094488188976,
          "duration": 0.11458333333333215
        },
        {
          "name": "B5",
          "midi": 83,
          "time": 22.473958333333332,
          "velocity": 0.6299212598425197,
          "duration": 0.09375
        },
        {
          "name": "B5",
          "midi": 83,
          "time": 22.723958333333332,
          "velocity": 0.47244094488188976,
          "duration": 0.11458333333333215
        },
        {
          "name": "B5",
          "midi": 83,
          "time": 22.973958333333332,
          "velocity": 0.6299212598425197,
          "duration": 0.09375
        },
        {
          "name": "B5",
          "midi": 83,
          "time": 23.223958333333332,
          "velocity": 0.47244094488188976,
          "duration": 0.11458333333333215
        },
        {
          "name": "B5",
          "midi": 83,
          "time": 23.473958333333332,
          "velocity": 0.6299212598425197,
          "duration": 0.09375
        },
        {
          "name": "B5",
          "midi": 83,
          "time": 23.723958333333332,
          "velocity": 0.47244094488188976,
          "duration": 0.11458333333333215
        },
        {
          "name": "B5",
          "midi": 83,
          "time": 23.973958333333332,
          "velocity": 0.6299212598425197,
          "duration": 0.09375
        },
        {
          "name": "B5",
          "midi": 83,
          "time": 24.223958333333332,
          "velocity": 0.47244094488188976,
          "duration": 0.11458333333333215
        },
        {
          "name": "B5",
          "midi": 83,
          "time": 24.473958333333332,
          "velocity": 0.6299212598425197,
          "duration": 0.09375
        },
        {
          "name": "B5",
          "midi": 83,
          "time": 24.723958333333332,
          "velocity": 0.47244094488188976,
          "duration": 0.11458333333333215
        },
        {
          "name": "B5",
          "midi": 83,
          "time": 24.973958333333332,
          "velocity": 0.6299212598425197,
          "duration": 0.09375
        },
        {
          "name": "B5",
          "midi": 83,
          "time": 25.223958333333332,
          "velocity": 0.47244094488188976,
          "duration": 0.11458333333333215
        },
        {
          "name": "B5",
          "midi": 83,
          "time": 25.473958333333332,
          "velocity": 0.6299212598425197,
          "duration": 0.09375
        },
        {
          "name": "B5",
          "midi": 83,
          "time": 25.723958333333332,
          "velocity": 0.47244094488188976,
          "duration": 0.11458333333333215
        },
        {
          "name": "B5",
          "midi": 83,
          "time": 25.973958333333332,
          "velocity": 0.6299212598425197,
          "duration": 0.09375
        },
        {
          "name": "B5",
          "midi": 83,
          "time": 26.223958333333332,
          "velocity": 0.47244094488188976,
          "duration": 0.11458333333333215
        },
        {
          "name": "B5",
          "midi": 83,
          "time": 26.473958333333332,
          "velocity": 0.6299212598425197,
          "duration": 0.09375
        },
        {
          "name": "B5",
          "midi": 83,
          "time": 26.723958333333332,
          "velocity": 0.47244094488188976,
          "duration": 0.11458333333333215
        },
        {
          "name": "B5",
          "midi": 83,
          "time": 26.973958333333332,
          "velocity": 0.6299212598425197,
          "duration": 0.09375
        },
        {
          "name": "B5",
          "midi": 83,
          "time": 27.223958333333332,
          "velocity": 0.47244094488188976,
          "duration": 0.11458333333333215
        },
        {
          "name": "B5",
          "midi": 83,
          "time": 27.473958333333332,
          "velocity": 0.6299212598425197,
          "duration": 0.09375
        },
        {
          "name": "B5",
          "midi": 83,
          "time": 27.723958333333332,
          "velocity": 0.47244094488188976,
          "duration": 0.11458333333333215
        },
        {
          "name": "B5",
          "midi": 83,
          "time": 27.973958333333332,
          "velocity": 0.6299212598425197,
          "duration": 0.09375
        },
        {
          "name": "B5",
          "midi": 83,
          "time": 28.223958333333332,
          "velocity": 0.47244094488188976,
          "duration": 0.11458333333333215
        },
        {
          "name": "B5",
          "midi": 83,
          "time": 28.473958333333332,
          "velocity": 0.6299212598425197,
          "duration": 0.09375
        },
        {
          "name": "B5",
          "midi": 83,
          "time": 28.723958333333332,
          "velocity": 0.47244094488188976,
          "duration": 0.11458333333333215
        },
        {
          "name": "B5",
          "midi": 83,
          "time": 28.973958333333332,
          "velocity": 0.6299212598425197,
          "duration": 0.09375
        },
        {
          "name": "B5",
          "midi": 83,
          "time": 29.223958333333332,
          "velocity": 0.47244094488188976,
          "duration": 0.11458333333333215
        },
        {
          "name": "B5",
          "midi": 83,
          "time": 29.473958333333332,
          "velocity": 0.6299212598425197,
          "duration": 0.09375
        },
        {
          "name": "B5",
          "midi": 83,
          "time": 29.723958333333332,
          "velocity": 0.47244094488188976,
          "duration": 0.11458333333333215
        },
        {
          "name": "B5",
          "midi": 83,
          "time": 29.973958333333332,
          "velocity": 0.6299212598425197,
          "duration": 0.09375
        },
        {
          "name": "B5",
          "midi": 83,
          "time": 30.223958333333332,
          "velocity": 0.47244094488188976,
          "duration": 0.11458333333333215
        },
        {
          "name": "B5",
          "midi": 83,
          "time": 30.473958333333332,
          "velocity": 0.6299212598425197,
          "duration": 0.09375
        },
        {
          "name": "B5",
          "midi": 83,
          "time": 30.723958333333332,
          "velocity": 0.47244094488188976,
          "duration": 0.11458333333333215
        },
        {
          "name": "B5",
          "midi": 83,
          "time": 30.973958333333332,
          "velocity": 0.6299212598425197,
          "duration": 0.09375
        },
        {
          "name": "B5",
          "midi": 83,
          "time": 31.223958333333332,
          "velocity": 0.47244094488188976,
          "duration": 0.11458333333333215
        },
        {
          "name": "B5",
          "midi": 83,
          "time": 31.473958333333332,
          "velocity": 0.6299212598425197,
          "duration": 0.09375
        },
        {
          "name": "B5",
          "midi": 83,
          "time": 31.723958333333332,
          "velocity": 0.47244094488188976,
          "duration": 0.11458333333333215
        },
        {
          "name": "B5",
          "midi": 83,
          "time": 31.973958333333332,
          "velocity": 0.6299212598425197,
          "duration": 0.09374999999999645
        },
        {
          "name": "B5",
          "midi": 83,
          "time": 32.22395833333333,
          "velocity": 0.47244094488188976,
          "duration": 0.1145833333333357
        },
        {
          "name": "B5",
          "midi": 83,
          "time": 32.47395833333333,
          "velocity": 0.6299212598425197,
          "duration": 0.09375
        },
        {
          "name": "B5",
          "midi": 83,
          "time": 32.72395833333333,
          "velocity": 0.47244094488188976,
          "duration": 0.1145833333333357
        },
        {
          "name": "B5",
          "midi": 83,
          "time": 32.97395833333333,
          "velocity": 0.6299212598425197,
          "duration": 0.09375
        },
        {
          "name": "B5",
          "midi": 83,
          "time": 33.22395833333333,
          "velocity": 0.47244094488188976,
          "duration": 0.1145833333333357
        },
        {
          "name": "B5",
          "midi": 83,
          "time": 33.47395833333333,
          "velocity": 0.6299212598425197,
          "duration": 0.09375
        },
        {
          "name": "B5",
          "midi": 83,
          "time": 33.72395833333333,
          "velocity": 0.47244094488188976,
          "duration": 0.1145833333333357
        },
        {
          "name": "B5",
          "midi": 83,
          "time": 33.97395833333333,
          "velocity": 0.6299212598425197,
          "duration": 0.09375
        },
        {
          "name": "B5",
          "midi": 83,
          "time": 34.22395833333333,
          "velocity": 0.47244094488188976,
          "duration": 0.1145833333333357
        },
        {
          "name": "B5",
          "midi": 83,
          "time": 34.47395833333333,
          "velocity": 0.6299212598425197,
          "duration": 0.09375
        },
        {
          "name": "B5",
          "midi": 83,
          "time": 34.72395833333333,
          "velocity": 0.47244094488188976,
          "duration": 0.1145833333333357
        },
        {
          "name": "B5",
          "midi": 83,
          "time": 34.97395833333333,
          "velocity": 0.6299212598425197,
          "duration": 0.09375
        },
        {
          "name": "B5",
          "midi": 83,
          "time": 35.22395833333333,
          "velocity": 0.47244094488188976,
          "duration": 0.1145833333333357
        },
        {
          "name": "B5",
          "midi": 83,
          "time": 35.47395833333333,
          "velocity": 0.6299212598425197,
          "duration": 0.09375
        },
        {
          "name": "B5",
          "midi": 83,
          "time": 35.72395833333333,
          "velocity": 0.47244094488188976,
          "duration": 0.1145833333333357
        },
        {
          "name": "B5",
          "midi": 83,
          "time": 35.97395833333333,
          "velocity": 0.6299212598425197,
          "duration": 0.09375
        },
        {
          "name": "B5",
          "midi": 83,
          "time": 36.22395833333333,
          "velocity": 0.47244094488188976,
          "duration": 0.1145833333333357
        },
        {
          "name": "B5",
          "midi": 83,
          "time": 36.47395833333333,
          "velocity": 0.6299212598425197,
          "duration": 0.09375
        },
        {
          "name": "B5",
          "midi": 83,
          "time": 36.72395833333333,
          "velocity": 0.47244094488188976,
          "duration": 0.1145833333333357
        },
        {
          "name": "B5",
          "midi": 83,
          "time": 36.97395833333333,
          "velocity": 0.6299212598425197,
          "duration": 0.09375
        },
        {
          "name": "B5",
          "midi": 83,
          "time": 37.22395833333333,
          "velocity": 0.47244094488188976,
          "duration": 0.1145833333333357
        },
        {
          "name": "B5",
          "midi": 83,
          "time": 37.47395833333333,
          "velocity": 0.6299212598425197,
          "duration": 0.09375
        },
        {
          "name": "B5",
          "midi": 83,
          "time": 37.72395833333333,
          "velocity": 0.47244094488188976,
          "duration": 0.1145833333333357
        },
        {
          "name": "B5",
          "midi": 83,
          "time": 37.97395833333333,
          "velocity": 0.6299212598425197,
          "duration": 0.09375
        },
        {
          "name": "B5",
          "midi": 83,
          "time": 38.22395833333333,
          "velocity": 0.47244094488188976,
          "duration": 0.1145833333333357
        },
        {
          "name": "B5",
          "midi": 83,
          "time": 38.47395833333333,
          "velocity": 0.6299212598425197,
          "duration": 0.09375
        },
        {
          "name": "B5",
          "midi": 83,
          "time": 38.72395833333333,
          "velocity": 0.47244094488188976,
          "duration": 0.1145833333333357
        },
        {
          "name": "B5",
          "midi": 83,
          "time": 38.97395833333333,
          "velocity": 0.6299212598425197,
          "duration": 0.09375
        },
        {
          "name": "B5",
          "midi": 83,
          "time": 39.22395833333333,
          "velocity": 0.47244094488188976,
          "duration": 0.1145833333333357
        },
        {
          "name": "B5",
          "midi": 83,
          "time": 39.47395833333333,
          "velocity": 0.6299212598425197,
          "duration": 0.09375
        },
        {
          "name": "B5",
          "midi": 83,
          "time": 39.72395833333333,
          "velocity": 0.47244094488188976,
          "duration": 0.1145833333333357
        },
        {
          "name": "B5",
          "midi": 83,
          "time": 39.97395833333333,
          "velocity": 0.6299212598425197,
          "duration": 0.09375
        },
        {
          "name": "B5",
          "midi": 83,
          "time": 40.22395833333333,
          "velocity": 0.47244094488188976,
          "duration": 0.1145833333333357
        },
        {
          "name": "B5",
          "midi": 83,
          "time": 40.47395833333333,
          "velocity": 0.6299212598425197,
          "duration": 0.09375
        },
        {
          "name": "B5",
          "midi": 83,
          "time": 40.72395833333333,
          "velocity": 0.47244094488188976,
          "duration": 0.1145833333333357
        },
        {
          "name": "B5",
          "midi": 83,
          "time": 40.97395833333333,
          "velocity": 0.6299212598425197,
          "duration": 0.09375
        },
        {
          "name": "B5",
          "midi": 83,
          "time": 41.22395833333333,
          "velocity": 0.47244094488188976,
          "duration": 0.1145833333333357
        },
        {
          "name": "B5",
          "midi": 83,
          "time": 41.47395833333333,
          "velocity": 0.6299212598425197,
          "duration": 0.09375
        },
        {
          "name": "B5",
          "midi": 83,
          "time": 41.72395833333333,
          "velocity": 0.47244094488188976,
          "duration": 0.1145833333333357
        },
        {
          "name": "B5",
          "midi": 83,
          "time": 41.97395833333333,
          "velocity": 0.6299212598425197,
          "duration": 0.09375
        },
        {
          "name": "B5",
          "midi": 83,
          "time": 42.22395833333333,
          "velocity": 0.47244094488188976,
          "duration": 0.1145833333333357
        },
        {
          "name": "B5",
          "midi": 83,
          "time": 42.47395833333333,
          "velocity": 0.6299212598425197,
          "duration": 0.09375
        },
        {
          "name": "B5",
          "midi": 83,
          "time": 42.72395833333333,
          "velocity": 0.47244094488188976,
          "duration": 0.1145833333333357
        },
        {
          "name": "B5",
          "midi": 83,
          "time": 42.97395833333333,
          "velocity": 0.6299212598425197,
          "duration": 0.09375
        },
        {
          "name": "B5",
          "midi": 83,
          "time": 43.22395833333333,
          "velocity": 0.47244094488188976,
          "duration": 0.1145833333333357
        },
        {
          "name": "B5",
          "midi": 83,
          "time": 43.47395833333333,
          "velocity": 0.6299212598425197,
          "duration": 0.09375
        },
        {
          "name": "B5",
          "midi": 83,
          "time": 43.72395833333333,
          "velocity": 0.47244094488188976,
          "duration": 0.1145833333333357
        },
        {
          "name": "B5",
          "midi": 83,
          "time": 43.97395833333333,
          "velocity": 0.6299212598425197,
          "duration": 0.09375
        },
        {
          "name": "B5",
          "midi": 83,
          "time": 44.22395833333333,
          "velocity": 0.47244094488188976,
          "duration": 0.1145833333333357
        },
        {
          "name": "B5",
          "midi": 83,
          "time": 44.47395833333333,
          "velocity": 0.6299212598425197,
          "duration": 0.09375
        },
        {
          "name": "B5",
          "midi": 83,
          "time": 44.72395833333333,
          "velocity": 0.47244094488188976,
          "duration": 0.1145833333333357
        },
        {
          "name": "B5",
          "midi": 83,
          "time": 44.97395833333333,
          "velocity": 0.6299212598425197,
          "duration": 0.09375
        },
        {
          "name": "B5",
          "midi": 83,
          "time": 45.22395833333333,
          "velocity": 0.47244094488188976,
          "duration": 0.1145833333333357
        },
        {
          "name": "B5",
          "midi": 83,
          "time": 45.47395833333333,
          "velocity": 0.6299212598425197,
          "duration": 0.09375
        },
        {
          "name": "B5",
          "midi": 83,
          "time": 45.72395833333333,
          "velocity": 0.47244094488188976,
          "duration": 0.1145833333333357
        },
        {
          "name": "B5",
          "midi": 83,
          "time": 45.97395833333333,
          "velocity": 0.6299212598425197,
          "duration": 0.09375
        },
        {
          "name": "B5",
          "midi": 83,
          "time": 46.22395833333333,
          "velocity": 0.47244094488188976,
          "duration": 0.1145833333333357
        },
        {
          "name": "B5",
          "midi": 83,
          "time": 46.47395833333333,
          "velocity": 0.6299212598425197,
          "duration": 0.09375
        },
        {
          "name": "B5",
          "midi": 83,
          "time": 46.72395833333333,
          "velocity": 0.47244094488188976,
          "duration": 0.1145833333333357
        },
        {
          "name": "B5",
          "midi": 83,
          "time": 46.97395833333333,
          "velocity": 0.6299212598425197,
          "duration": 0.09375
        },
        {
          "name": "B5",
          "midi": 83,
          "time": 47.22395833333333,
          "velocity": 0.47244094488188976,
          "duration": 0.1145833333333357
        },
        {
          "name": "B5",
          "midi": 83,
          "time": 47.47395833333333,
          "velocity": 0.6299212598425197,
          "duration": 0.09375
        },
        {
          "name": "B5",
          "midi": 83,
          "time": 47.72395833333333,
          "velocity": 0.47244094488188976,
          "duration": 0.1145833333333357
        },
        {
          "name": "B5",
          "midi": 83,
          "time": 47.97395833333333,
          "velocity": 0.6299212598425197,
          "duration": 0.09375
        },
        {
          "name": "B5",
          "midi": 83,
          "time": 48.22395833333333,
          "velocity": 0.47244094488188976,
          "duration": 0.1145833333333357
        },
        {
          "name": "B5",
          "midi": 83,
          "time": 48.47395833333333,
          "velocity": 0.6299212598425197,
          "duration": 0.09375
        },
        {
          "name": "B5",
          "midi": 83,
          "time": 48.72395833333333,
          "velocity": 0.47244094488188976,
          "duration": 0.1145833333333357
        },
        {
          "name": "B5",
          "midi": 83,
          "time": 48.97395833333333,
          "velocity": 0.6299212598425197,
          "duration": 0.09375
        },
        {
          "name": "B5",
          "midi": 83,
          "time": 49.22395833333333,
          "velocity": 0.47244094488188976,
          "duration": 0.1145833333333357
        },
        {
          "name": "B5",
          "midi": 83,
          "time": 49.47395833333333,
          "velocity": 0.6299212598425197,
          "duration": 0.09375
        },
        {
          "name": "B5",
          "midi": 83,
          "time": 49.72395833333333,
          "velocity": 0.47244094488188976,
          "duration": 0.1145833333333357
        },
        {
          "name": "B5",
          "midi": 83,
          "time": 49.97395833333333,
          "velocity": 0.6299212598425197,
          "duration": 0.09375
        },
        {
          "name": "B5",
          "midi": 83,
          "time": 50.22395833333333,
          "velocity": 0.47244094488188976,
          "duration": 0.1145833333333357
        },
        {
          "name": "B5",
          "midi": 83,
          "time": 50.47395833333333,
          "velocity": 0.6299212598425197,
          "duration": 0.09375
        },
        {
          "name": "B5",
          "midi": 83,
          "time": 50.72395833333333,
          "velocity": 0.47244094488188976,
          "duration": 0.1145833333333357
        },
        {
          "name": "B5",
          "midi": 83,
          "time": 50.97395833333333,
          "velocity": 0.6299212598425197,
          "duration": 0.09375
        },
        {
          "name": "B5",
          "midi": 83,
          "time": 51.22395833333333,
          "velocity": 0.47244094488188976,
          "duration": 0.1145833333333357
        },
        {
          "name": "B5",
          "midi": 83,
          "time": 51.47395833333333,
          "velocity": 0.6299212598425197,
          "duration": 0.09375
        },
        {
          "name": "B5",
          "midi": 83,
          "time": 51.72395833333333,
          "velocity": 0.47244094488188976,
          "duration": 0.1145833333333357
        },
        {
          "name": "B5",
          "midi": 83,
          "time": 51.97395833333333,
          "velocity": 0.6299212598425197,
          "duration": 0.09375
        },
        {
          "name": "B5",
          "midi": 83,
          "time": 52.22395833333333,
          "velocity": 0.47244094488188976,
          "duration": 0.1145833333333357
        },
        {
          "name": "B5",
          "midi": 83,
          "time": 52.47395833333333,
          "velocity": 0.6299212598425197,
          "duration": 0.09375
        },
        {
          "name": "B5",
          "midi": 83,
          "time": 52.72395833333333,
          "velocity": 0.47244094488188976,
          "duration": 0.1145833333333357
        },
        {
          "name": "B5",
          "midi": 83,
          "time": 52.97395833333333,
          "velocity": 0.6299212598425197,
          "duration": 0.09375
        },
        {
          "name": "B5",
          "midi": 83,
          "time": 53.22395833333333,
          "velocity": 0.47244094488188976,
          "duration": 0.1145833333333357
        },
        {
          "name": "B5",
          "midi": 83,
          "time": 53.47395833333333,
          "velocity": 0.6299212598425197,
          "duration": 0.09375
        },
        {
          "name": "B5",
          "midi": 83,
          "time": 53.72395833333333,
          "velocity": 0.47244094488188976,
          "duration": 0.1145833333333357
        },
        {
          "name": "B5",
          "midi": 83,
          "time": 53.97395833333333,
          "velocity": 0.6299212598425197,
          "duration": 0.09375
        },
        {
          "name": "B5",
          "midi": 83,
          "time": 54.22395833333333,
          "velocity": 0.47244094488188976,
          "duration": 0.1145833333333357
        },
        {
          "name": "B5",
          "midi": 83,
          "time": 54.47395833333333,
          "velocity": 0.6299212598425197,
          "duration": 0.09375
        },
        {
          "name": "B5",
          "midi": 83,
          "time": 54.72395833333333,
          "velocity": 0.47244094488188976,
          "duration": 0.1145833333333357
        },
        {
          "name": "B5",
          "midi": 83,
          "time": 54.97395833333333,
          "velocity": 0.6299212598425197,
          "duration": 0.09375
        },
        {
          "name": "B5",
          "midi": 83,
          "time": 55.22395833333333,
          "velocity": 0.47244094488188976,
          "duration": 0.1145833333333357
        },
        {
          "name": "B5",
          "midi": 83,
          "time": 55.47395833333333,
          "velocity": 0.6299212598425197,
          "duration": 0.09375
        },
        {
          "name": "B5",
          "midi": 83,
          "time": 55.72395833333333,
          "velocity": 0.47244094488188976,
          "duration": 0.1145833333333357
        },
        {
          "name": "B5",
          "midi": 83,
          "time": 55.97395833333333,
          "velocity": 0.6299212598425197,
          "duration": 0.09375
        },
        {
          "name": "B5",
          "midi": 83,
          "time": 56.22395833333333,
          "velocity": 0.47244094488188976,
          "duration": 0.1145833333333357
        },
        {
          "name": "B5",
          "midi": 83,
          "time": 56.47395833333333,
          "velocity": 0.6299212598425197,
          "duration": 0.09375
        },
        {
          "name": "B5",
          "midi": 83,
          "time": 56.72395833333333,
          "velocity": 0.47244094488188976,
          "duration": 0.1145833333333357
        },
        {
          "name": "B5",
          "midi": 83,
          "time": 56.97395833333333,
          "velocity": 0.6299212598425197,
          "duration": 0.09375
        },
        {
          "name": "B5",
          "midi": 83,
          "time": 57.22395833333333,
          "velocity": 0.47244094488188976,
          "duration": 0.1145833333333357
        },
        {
          "name": "B5",
          "midi": 83,
          "time": 57.47395833333333,
          "velocity": 0.6299212598425197,
          "duration": 0.09375
        },
        {
          "name": "B5",
          "midi": 83,
          "time": 57.72395833333333,
          "velocity": 0.47244094488188976,
          "duration": 0.1145833333333357
        },
        {
          "name": "B5",
          "midi": 83,
          "time": 57.97395833333333,
          "velocity": 0.6299212598425197,
          "duration": 0.09375
        },
        {
          "name": "B5",
          "midi": 83,
          "time": 58.22395833333333,
          "velocity": 0.47244094488188976,
          "duration": 0.1145833333333357
        },
        {
          "name": "B5",
          "midi": 83,
          "time": 58.47395833333333,
          "velocity": 0.6299212598425197,
          "duration": 0.09375
        },
        {
          "name": "B5",
          "midi": 83,
          "time": 58.72395833333333,
          "velocity": 0.47244094488188976,
          "duration": 0.1145833333333357
        },
        {
          "name": "B5",
          "midi": 83,
          "time": 58.97395833333333,
          "velocity": 0.6299212598425197,
          "duration": 0.09375
        },
        {
          "name": "B5",
          "midi": 83,
          "time": 59.22395833333333,
          "velocity": 0.47244094488188976,
          "duration": 0.1145833333333357
        },
        {
          "name": "B5",
          "midi": 83,
          "time": 59.47395833333333,
          "velocity": 0.6299212598425197,
          "duration": 0.09375
        },
        {
          "name": "B5",
          "midi": 83,
          "time": 59.72395833333333,
          "velocity": 0.47244094488188976,
          "duration": 0.1145833333333357
        },
        {
          "name": "B5",
          "midi": 83,
          "time": 59.97395833333333,
          "velocity": 0.6299212598425197,
          "duration": 0.09375
        },
        {
          "name": "B5",
          "midi": 83,
          "time": 60.22395833333333,
          "velocity": 0.47244094488188976,
          "duration": 0.1145833333333357
        },
        {
          "name": "B5",
          "midi": 83,
          "time": 60.47395833333333,
          "velocity": 0.6299212598425197,
          "duration": 0.09375
        },
        {
          "name": "B5",
          "midi": 83,
          "time": 60.72395833333333,
          "velocity": 0.47244094488188976,
          "duration": 0.1145833333333357
        },
        {
          "name": "B5",
          "midi": 83,
          "time": 60.97395833333333,
          "velocity": 0.6299212598425197,
          "duration": 0.09375
        },
        {
          "name": "B5",
          "midi": 83,
          "time": 61.22395833333333,
          "velocity": 0.47244094488188976,
          "duration": 0.1145833333333357
        },
        {
          "name": "B5",
          "midi": 83,
          "time": 61.47395833333333,
          "velocity": 0.6299212598425197,
          "duration": 0.09375
        },
        {
          "name": "B5",
          "midi": 83,
          "time": 61.72395833333333,
          "velocity": 0.47244094488188976,
          "duration": 0.1145833333333357
        },
        {
          "name": "B5",
          "midi": 83,
          "time": 61.97395833333333,
          "velocity": 0.6299212598425197,
          "duration": 0.09375
        },
        {
          "name": "B5",
          "midi": 83,
          "time": 62.22395833333333,
          "velocity": 0.47244094488188976,
          "duration": 0.1145833333333357
        },
        {
          "name": "B5",
          "midi": 83,
          "time": 62.47395833333333,
          "velocity": 0.6299212598425197,
          "duration": 0.09375
        },
        {
          "name": "B5",
          "midi": 83,
          "time": 62.72395833333333,
          "velocity": 0.47244094488188976,
          "duration": 0.1145833333333357
        },
        {
          "name": "B5",
          "midi": 83,
          "time": 62.97395833333333,
          "velocity": 0.6299212598425197,
          "duration": 0.09375
        },
        {
          "name": "B5",
          "midi": 83,
          "time": 63.22395833333333,
          "velocity": 0.47244094488188976,
          "duration": 0.1145833333333357
        },
        {
          "name": "B5",
          "midi": 83,
          "time": 63.47395833333333,
          "velocity": 0.6299212598425197,
          "duration": 0.09375
        },
        {
          "name": "B5",
          "midi": 83,
          "time": 63.72395833333333,
          "velocity": 0.47244094488188976,
          "duration": 0.1145833333333357
        },
        {
          "name": "B5",
          "midi": 83,
          "time": 63.97395833333333,
          "velocity": 0.6299212598425197,
          "duration": 0.09375
        },
        {
          "name": "B5",
          "midi": 83,
          "time": 64.22395833333333,
          "velocity": 0.47244094488188976,
          "duration": 0.1145833333333286
        },
        {
          "name": "B5",
          "midi": 83,
          "time": 64.47395833333333,
          "velocity": 0.6299212598425197,
          "duration": 0.09375
        },
        {
          "name": "B5",
          "midi": 83,
          "time": 64.72395833333333,
          "velocity": 0.47244094488188976,
          "duration": 0.1145833333333286
        },
        {
          "name": "B5",
          "midi": 83,
          "time": 64.97395833333333,
          "velocity": 0.6299212598425197,
          "duration": 0.09375
        },
        {
          "name": "B5",
          "midi": 83,
          "time": 65.22395833333333,
          "velocity": 0.47244094488188976,
          "duration": 0.1145833333333286
        },
        {
          "name": "B5",
          "midi": 83,
          "time": 65.47395833333333,
          "velocity": 0.6299212598425197,
          "duration": 0.09375
        },
        {
          "name": "B5",
          "midi": 83,
          "time": 65.72395833333333,
          "velocity": 0.47244094488188976,
          "duration": 0.1145833333333286
        },
        {
          "name": "B5",
          "midi": 83,
          "time": 65.97395833333333,
          "velocity": 0.6299212598425197,
          "duration": 0.09375
        },
        {
          "name": "B5",
          "midi": 83,
          "time": 66.22395833333333,
          "velocity": 0.47244094488188976,
          "duration": 0.1145833333333286
        },
        {
          "name": "B5",
          "midi": 83,
          "time": 66.47395833333333,
          "velocity": 0.6299212598425197,
          "duration": 0.09375
        },
        {
          "name": "B5",
          "midi": 83,
          "time": 66.72395833333333,
          "velocity": 0.47244094488188976,
          "duration": 0.1145833333333286
        },
        {
          "name": "B5",
          "midi": 83,
          "time": 66.97395833333333,
          "velocity": 0.6299212598425197,
          "duration": 0.09375
        },
        {
          "name": "B5",
          "midi": 83,
          "time": 67.22395833333333,
          "velocity": 0.47244094488188976,
          "duration": 0.1145833333333286
        },
        {
          "name": "B5",
          "midi": 83,
          "time": 67.47395833333333,
          "velocity": 0.6299212598425197,
          "duration": 0.09375
        },
        {
          "name": "B5",
          "midi": 83,
          "time": 67.72395833333333,
          "velocity": 0.47244094488188976,
          "duration": 0.1145833333333286
        },
        {
          "name": "B5",
          "midi": 83,
          "time": 67.97395833333333,
          "velocity": 0.6299212598425197,
          "duration": 0.09375
        },
        {
          "name": "B5",
          "midi": 83,
          "time": 68.22395833333333,
          "velocity": 0.47244094488188976,
          "duration": 0.1145833333333286
        },
        {
          "name": "B5",
          "midi": 83,
          "time": 68.47395833333333,
          "velocity": 0.6299212598425197,
          "duration": 0.09375
        },
        {
          "name": "B5",
          "midi": 83,
          "time": 68.72395833333333,
          "velocity": 0.47244094488188976,
          "duration": 0.1145833333333286
        },
        {
          "name": "B5",
          "midi": 83,
          "time": 68.97395833333333,
          "velocity": 0.6299212598425197,
          "duration": 0.09375
        },
        {
          "name": "B5",
          "midi": 83,
          "time": 69.22395833333333,
          "velocity": 0.47244094488188976,
          "duration": 0.1145833333333286
        },
        {
          "name": "B5",
          "midi": 83,
          "time": 69.47395833333333,
          "velocity": 0.6299212598425197,
          "duration": 0.09375
        },
        {
          "name": "B5",
          "midi": 83,
          "time": 69.72395833333333,
          "velocity": 0.47244094488188976,
          "duration": 0.1145833333333286
        },
        {
          "name": "B5",
          "midi": 83,
          "time": 69.97395833333333,
          "velocity": 0.6299212598425197,
          "duration": 0.09375
        },
        {
          "name": "B5",
          "midi": 83,
          "time": 70.22395833333333,
          "velocity": 0.47244094488188976,
          "duration": 0.1145833333333286
        },
        {
          "name": "B5",
          "midi": 83,
          "time": 70.47395833333333,
          "velocity": 0.6299212598425197,
          "duration": 0.09375
        },
        {
          "name": "B5",
          "midi": 83,
          "time": 70.72395833333333,
          "velocity": 0.47244094488188976,
          "duration": 0.1145833333333286
        },
        {
          "name": "B5",
          "midi": 83,
          "time": 70.97395833333333,
          "velocity": 0.6299212598425197,
          "duration": 0.09375
        },
        {
          "name": "B5",
          "midi": 83,
          "time": 71.22395833333333,
          "velocity": 0.47244094488188976,
          "duration": 0.1145833333333286
        },
        {
          "name": "B5",
          "midi": 83,
          "time": 71.47395833333333,
          "velocity": 0.6299212598425197,
          "duration": 0.09375
        },
        {
          "name": "B5",
          "midi": 83,
          "time": 71.72395833333333,
          "velocity": 0.47244094488188976,
          "duration": 0.1145833333333286
        },
        {
          "name": "B5",
          "midi": 83,
          "time": 71.97395833333333,
          "velocity": 0.6299212598425197,
          "duration": 0.09375
        },
        {
          "name": "B5",
          "midi": 83,
          "time": 72.22395833333333,
          "velocity": 0.47244094488188976,
          "duration": 0.1145833333333286
        },
        {
          "name": "B5",
          "midi": 83,
          "time": 72.47395833333333,
          "velocity": 0.6299212598425197,
          "duration": 0.09375
        },
        {
          "name": "B5",
          "midi": 83,
          "time": 72.72395833333333,
          "velocity": 0.47244094488188976,
          "duration": 0.1145833333333286
        },
        {
          "name": "B5",
          "midi": 83,
          "time": 72.97395833333333,
          "velocity": 0.6299212598425197,
          "duration": 0.09375
        },
        {
          "name": "B5",
          "midi": 83,
          "time": 73.22395833333333,
          "velocity": 0.47244094488188976,
          "duration": 0.1145833333333286
        },
        {
          "name": "B5",
          "midi": 83,
          "time": 73.47395833333333,
          "velocity": 0.6299212598425197,
          "duration": 0.09375
        },
        {
          "name": "B5",
          "midi": 83,
          "time": 73.72395833333333,
          "velocity": 0.47244094488188976,
          "duration": 0.1145833333333286
        },
        {
          "name": "B5",
          "midi": 83,
          "time": 73.97395833333333,
          "velocity": 0.6299212598425197,
          "duration": 0.09375
        },
        {
          "name": "B5",
          "midi": 83,
          "time": 74.22395833333333,
          "velocity": 0.47244094488188976,
          "duration": 0.1145833333333286
        },
        {
          "name": "B5",
          "midi": 83,
          "time": 74.47395833333333,
          "velocity": 0.6299212598425197,
          "duration": 0.09375
        },
        {
          "name": "B5",
          "midi": 83,
          "time": 74.72395833333333,
          "velocity": 0.47244094488188976,
          "duration": 0.1145833333333286
        },
        {
          "name": "B5",
          "midi": 83,
          "time": 74.97395833333333,
          "velocity": 0.6299212598425197,
          "duration": 0.09375
        },
        {
          "name": "B5",
          "midi": 83,
          "time": 75.22395833333333,
          "velocity": 0.47244094488188976,
          "duration": 0.1145833333333286
        },
        {
          "name": "B5",
          "midi": 83,
          "time": 75.47395833333333,
          "velocity": 0.6299212598425197,
          "duration": 0.09375
        },
        {
          "name": "B5",
          "midi": 83,
          "time": 75.72395833333333,
          "velocity": 0.47244094488188976,
          "duration": 0.1145833333333286
        },
        {
          "name": "B5",
          "midi": 83,
          "time": 75.97395833333333,
          "velocity": 0.6299212598425197,
          "duration": 0.09375
        },
        {
          "name": "B5",
          "midi": 83,
          "time": 76.22395833333333,
          "velocity": 0.47244094488188976,
          "duration": 0.1145833333333286
        },
        {
          "name": "B5",
          "midi": 83,
          "time": 76.47395833333333,
          "velocity": 0.6299212598425197,
          "duration": 0.09375
        },
        {
          "name": "B5",
          "midi": 83,
          "time": 76.72395833333333,
          "velocity": 0.47244094488188976,
          "duration": 0.1145833333333286
        },
        {
          "name": "B5",
          "midi": 83,
          "time": 76.97395833333333,
          "velocity": 0.6299212598425197,
          "duration": 0.09375
        },
        {
          "name": "B5",
          "midi": 83,
          "time": 77.22395833333333,
          "velocity": 0.47244094488188976,
          "duration": 0.1145833333333286
        },
        {
          "name": "B5",
          "midi": 83,
          "time": 77.47395833333333,
          "velocity": 0.6299212598425197,
          "duration": 0.09375
        },
        {
          "name": "B5",
          "midi": 83,
          "time": 77.72395833333333,
          "velocity": 0.47244094488188976,
          "duration": 0.1145833333333286
        },
        {
          "name": "B5",
          "midi": 83,
          "time": 77.97395833333333,
          "velocity": 0.6299212598425197,
          "duration": 0.09375
        },
        {
          "name": "B5",
          "midi": 83,
          "time": 78.22395833333333,
          "velocity": 0.47244094488188976,
          "duration": 0.1145833333333286
        },
        {
          "name": "B5",
          "midi": 83,
          "time": 78.47395833333333,
          "velocity": 0.6299212598425197,
          "duration": 0.09375
        },
        {
          "name": "B5",
          "midi": 83,
          "time": 78.72395833333333,
          "velocity": 0.47244094488188976,
          "duration": 0.1145833333333286
        },
        {
          "name": "B5",
          "midi": 83,
          "time": 78.97395833333333,
          "velocity": 0.6299212598425197,
          "duration": 0.09375
        },
        {
          "name": "B5",
          "midi": 83,
          "time": 79.22395833333333,
          "velocity": 0.47244094488188976,
          "duration": 0.1145833333333286
        },
        {
          "name": "B5",
          "midi": 83,
          "time": 79.47395833333333,
          "velocity": 0.6299212598425197,
          "duration": 0.09375
        },
        {
          "name": "B5",
          "midi": 83,
          "time": 79.72395833333333,
          "velocity": 0.47244094488188976,
          "duration": 0.1145833333333286
        },
        {
          "name": "B5",
          "midi": 83,
          "time": 79.97395833333333,
          "velocity": 0.6299212598425197,
          "duration": 0.09375
        },
        {
          "name": "B5",
          "midi": 83,
          "time": 80.22395833333333,
          "velocity": 0.47244094488188976,
          "duration": 0.1145833333333286
        },
        {
          "name": "B5",
          "midi": 83,
          "time": 80.47395833333333,
          "velocity": 0.6299212598425197,
          "duration": 0.09375
        },
        {
          "name": "B5",
          "midi": 83,
          "time": 80.72395833333333,
          "velocity": 0.47244094488188976,
          "duration": 0.1145833333333286
        },
        {
          "name": "B5",
          "midi": 83,
          "time": 80.97395833333333,
          "velocity": 0.6299212598425197,
          "duration": 0.09375
        },
        {
          "name": "B5",
          "midi": 83,
          "time": 81.22395833333333,
          "velocity": 0.47244094488188976,
          "duration": 0.1145833333333286
        },
        {
          "name": "B5",
          "midi": 83,
          "time": 81.47395833333333,
          "velocity": 0.6299212598425197,
          "duration": 0.09375
        },
        {
          "name": "B5",
          "midi": 83,
          "time": 81.72395833333333,
          "velocity": 0.47244094488188976,
          "duration": 0.1145833333333286
        },
        {
          "name": "B5",
          "midi": 83,
          "time": 81.97395833333333,
          "velocity": 0.6299212598425197,
          "duration": 0.09375
        },
        {
          "name": "B5",
          "midi": 83,
          "time": 82.22395833333333,
          "velocity": 0.47244094488188976,
          "duration": 0.1145833333333286
        },
        {
          "name": "B5",
          "midi": 83,
          "time": 82.47395833333333,
          "velocity": 0.6299212598425197,
          "duration": 0.09375
        },
        {
          "name": "B5",
          "midi": 83,
          "time": 82.72395833333333,
          "velocity": 0.47244094488188976,
          "duration": 0.1145833333333286
        },
        {
          "name": "B5",
          "midi": 83,
          "time": 82.97395833333333,
          "velocity": 0.6299212598425197,
          "duration": 0.09375
        },
        {
          "name": "B5",
          "midi": 83,
          "time": 83.22395833333333,
          "velocity": 0.47244094488188976,
          "duration": 0.1145833333333286
        },
        {
          "name": "B5",
          "midi": 83,
          "time": 83.47395833333333,
          "velocity": 0.6299212598425197,
          "duration": 0.09375
        },
        {
          "name": "B5",
          "midi": 83,
          "time": 83.72395833333333,
          "velocity": 0.47244094488188976,
          "duration": 0.1145833333333286
        },
        {
          "name": "B5",
          "midi": 83,
          "time": 83.97395833333333,
          "velocity": 0.6299212598425197,
          "duration": 0.09375
        },
        {
          "name": "B5",
          "midi": 83,
          "time": 84.22395833333333,
          "velocity": 0.47244094488188976,
          "duration": 0.1145833333333286
        },
        {
          "name": "B5",
          "midi": 83,
          "time": 84.47395833333333,
          "velocity": 0.6299212598425197,
          "duration": 0.09375
        },
        {
          "name": "B5",
          "midi": 83,
          "time": 84.72395833333333,
          "velocity": 0.47244094488188976,
          "duration": 0.1145833333333286
        },
        {
          "name": "B5",
          "midi": 83,
          "time": 84.97395833333333,
          "velocity": 0.6299212598425197,
          "duration": 0.09375
        },
        {
          "name": "B5",
          "midi": 83,
          "time": 85.22395833333333,
          "velocity": 0.47244094488188976,
          "duration": 0.1145833333333286
        },
        {
          "name": "B5",
          "midi": 83,
          "time": 85.47395833333333,
          "velocity": 0.6299212598425197,
          "duration": 0.09375
        },
        {
          "name": "B5",
          "midi": 83,
          "time": 85.72395833333333,
          "velocity": 0.47244094488188976,
          "duration": 0.1145833333333286
        },
        {
          "name": "B5",
          "midi": 83,
          "time": 85.97395833333333,
          "velocity": 0.6299212598425197,
          "duration": 0.09375
        },
        {
          "name": "B5",
          "midi": 83,
          "time": 86.22395833333333,
          "velocity": 0.47244094488188976,
          "duration": 0.1145833333333286
        },
        {
          "name": "B5",
          "midi": 83,
          "time": 86.47395833333333,
          "velocity": 0.6299212598425197,
          "duration": 0.09375
        },
        {
          "name": "B5",
          "midi": 83,
          "time": 86.72395833333333,
          "velocity": 0.47244094488188976,
          "duration": 0.1145833333333286
        },
        {
          "name": "B5",
          "midi": 83,
          "time": 86.97395833333333,
          "velocity": 0.6299212598425197,
          "duration": 0.09375
        },
        {
          "name": "B5",
          "midi": 83,
          "time": 87.22395833333333,
          "velocity": 0.47244094488188976,
          "duration": 0.1145833333333286
        },
        {
          "name": "B5",
          "midi": 83,
          "time": 87.47395833333333,
          "velocity": 0.6299212598425197,
          "duration": 0.09375
        },
        {
          "name": "B5",
          "midi": 83,
          "time": 87.72395833333333,
          "velocity": 0.47244094488188976,
          "duration": 0.1145833333333286
        },
        {
          "name": "B5",
          "midi": 83,
          "time": 87.97395833333333,
          "velocity": 0.6299212598425197,
          "duration": 0.09375
        },
        {
          "name": "B5",
          "midi": 83,
          "time": 88.22395833333333,
          "velocity": 0.47244094488188976,
          "duration": 0.1145833333333286
        },
        {
          "name": "B5",
          "midi": 83,
          "time": 88.47395833333333,
          "velocity": 0.6299212598425197,
          "duration": 0.09375
        },
        {
          "name": "B5",
          "midi": 83,
          "time": 88.72395833333333,
          "velocity": 0.47244094488188976,
          "duration": 0.1145833333333286
        },
        {
          "name": "B5",
          "midi": 83,
          "time": 88.97395833333333,
          "velocity": 0.6299212598425197,
          "duration": 0.09375
        },
        {
          "name": "B5",
          "midi": 83,
          "time": 89.22395833333333,
          "velocity": 0.47244094488188976,
          "duration": 0.1145833333333286
        },
        {
          "name": "B5",
          "midi": 83,
          "time": 89.47395833333333,
          "velocity": 0.6299212598425197,
          "duration": 0.09375
        },
        {
          "name": "B5",
          "midi": 83,
          "time": 89.72395833333333,
          "velocity": 0.47244094488188976,
          "duration": 0.1145833333333286
        },
        {
          "name": "B5",
          "midi": 83,
          "time": 89.97395833333333,
          "velocity": 0.6299212598425197,
          "duration": 0.09375
        },
        {
          "name": "B5",
          "midi": 83,
          "time": 90.22395833333333,
          "velocity": 0.47244094488188976,
          "duration": 0.1145833333333286
        },
        {
          "name": "B5",
          "midi": 83,
          "time": 90.47395833333333,
          "velocity": 0.6299212598425197,
          "duration": 0.09375
        },
        {
          "name": "B5",
          "midi": 83,
          "time": 90.72395833333333,
          "velocity": 0.47244094488188976,
          "duration": 0.1145833333333286
        },
        {
          "name": "B5",
          "midi": 83,
          "time": 90.97395833333333,
          "velocity": 0.6299212598425197,
          "duration": 0.09375
        },
        {
          "name": "B5",
          "midi": 83,
          "time": 91.22395833333333,
          "velocity": 0.47244094488188976,
          "duration": 0.1145833333333286
        },
        {
          "name": "B5",
          "midi": 83,
          "time": 91.47395833333333,
          "velocity": 0.6299212598425197,
          "duration": 0.09375
        },
        {
          "name": "B5",
          "midi": 83,
          "time": 91.72395833333333,
          "velocity": 0.47244094488188976,
          "duration": 0.1145833333333286
        },
        {
          "name": "B5",
          "midi": 83,
          "time": 91.97395833333333,
          "velocity": 0.6299212598425197,
          "duration": 0.09375
        },
        {
          "name": "B5",
          "midi": 83,
          "time": 92.22395833333333,
          "velocity": 0.47244094488188976,
          "duration": 0.1145833333333286
        },
        {
          "name": "B5",
          "midi": 83,
          "time": 92.47395833333333,
          "velocity": 0.6299212598425197,
          "duration": 0.09375
        },
        {
          "name": "B5",
          "midi": 83,
          "time": 92.72395833333333,
          "velocity": 0.47244094488188976,
          "duration": 0.1145833333333286
        },
        {
          "name": "B5",
          "midi": 83,
          "time": 92.97395833333333,
          "velocity": 0.6299212598425197,
          "duration": 0.09375
        },
        {
          "name": "B5",
          "midi": 83,
          "time": 93.22395833333333,
          "velocity": 0.47244094488188976,
          "duration": 0.1145833333333286
        },
        {
          "name": "B5",
          "midi": 83,
          "time": 93.47395833333333,
          "velocity": 0.6299212598425197,
          "duration": 0.09375
        },
        {
          "name": "B5",
          "midi": 83,
          "time": 93.72395833333333,
          "velocity": 0.47244094488188976,
          "duration": 0.1145833333333286
        },
        {
          "name": "B5",
          "midi": 83,
          "time": 93.97395833333333,
          "velocity": 0.6299212598425197,
          "duration": 0.09375
        },
        {
          "name": "B5",
          "midi": 83,
          "time": 94.22395833333333,
          "velocity": 0.47244094488188976,
          "duration": 0.1145833333333286
        },
        {
          "name": "B5",
          "midi": 83,
          "time": 94.47395833333333,
          "velocity": 0.6299212598425197,
          "duration": 0.09375
        },
        {
          "name": "B5",
          "midi": 83,
          "time": 94.72395833333333,
          "velocity": 0.47244094488188976,
          "duration": 0.1145833333333286
        },
        {
          "name": "B5",
          "midi": 83,
          "time": 94.97395833333333,
          "velocity": 0.6299212598425197,
          "duration": 0.09375
        },
        {
          "name": "B5",
          "midi": 83,
          "time": 95.22395833333333,
          "velocity": 0.47244094488188976,
          "duration": 0.1145833333333286
        },
        {
          "name": "B5",
          "midi": 83,
          "time": 95.47395833333333,
          "velocity": 0.6299212598425197,
          "duration": 0.09375
        },
        {
          "name": "B5",
          "midi": 83,
          "time": 95.72395833333333,
          "velocity": 0.47244094488188976,
          "duration": 0.1145833333333286
        },
        {
          "name": "B5",
          "midi": 83,
          "time": 95.97395833333333,
          "velocity": 0.6299212598425197,
          "duration": 0.09375
        },
        {
          "name": "B5",
          "midi": 83,
          "time": 96.22395833333333,
          "velocity": 0.47244094488188976,
          "duration": 0.1145833333333286
        },
        {
          "name": "B5",
          "midi": 83,
          "time": 96.47395833333333,
          "velocity": 0.6299212598425197,
          "duration": 0.09375
        },
        {
          "name": "B5",
          "midi": 83,
          "time": 96.72395833333333,
          "velocity": 0.47244094488188976,
          "duration": 0.1145833333333286
        },
        {
          "name": "B5",
          "midi": 83,
          "time": 96.97395833333333,
          "velocity": 0.6299212598425197,
          "duration": 0.09375
        },
        {
          "name": "B5",
          "midi": 83,
          "time": 97.22395833333333,
          "velocity": 0.47244094488188976,
          "duration": 0.1145833333333286
        },
        {
          "name": "B5",
          "midi": 83,
          "time": 97.47395833333333,
          "velocity": 0.6299212598425197,
          "duration": 0.09375
        },
        {
          "name": "B5",
          "midi": 83,
          "time": 97.72395833333333,
          "velocity": 0.47244094488188976,
          "duration": 0.1145833333333286
        },
        {
          "name": "B5",
          "midi": 83,
          "time": 97.97395833333333,
          "velocity": 0.6299212598425197,
          "duration": 0.09375
        },
        {
          "name": "B5",
          "midi": 83,
          "time": 98.22395833333333,
          "velocity": 0.47244094488188976,
          "duration": 0.1145833333333286
        },
        {
          "name": "B5",
          "midi": 83,
          "time": 98.47395833333333,
          "velocity": 0.6299212598425197,
          "duration": 0.09375
        },
        {
          "name": "B5",
          "midi": 83,
          "time": 98.72395833333333,
          "velocity": 0.47244094488188976,
          "duration": 0.1145833333333286
        },
        {
          "name": "B5",
          "midi": 83,
          "time": 98.97395833333333,
          "velocity": 0.6299212598425197,
          "duration": 0.09375
        },
        {
          "name": "B5",
          "midi": 83,
          "time": 99.22395833333333,
          "velocity": 0.47244094488188976,
          "duration": 0.1145833333333286
        },
        {
          "name": "B5",
          "midi": 83,
          "time": 99.47395833333333,
          "velocity": 0.6299212598425197,
          "duration": 0.09375
        },
        {
          "name": "B5",
          "midi": 83,
          "time": 99.72395833333333,
          "velocity": 0.47244094488188976,
          "duration": 0.1145833333333286
        },
        {
          "name": "B5",
          "midi": 83,
          "time": 99.97395833333333,
          "velocity": 0.6299212598425197,
          "duration": 0.09375
        },
        {
          "name": "B5",
          "midi": 83,
          "time": 100.22395833333333,
          "velocity": 0.47244094488188976,
          "duration": 0.1145833333333286
        },
        {
          "name": "B5",
          "midi": 83,
          "time": 100.47395833333333,
          "velocity": 0.6299212598425197,
          "duration": 0.09375
        },
        {
          "name": "B5",
          "midi": 83,
          "time": 100.72395833333333,
          "velocity": 0.47244094488188976,
          "duration": 0.1145833333333286
        },
        {
          "name": "B5",
          "midi": 83,
          "time": 100.97395833333333,
          "velocity": 0.6299212598425197,
          "duration": 0.09375
        },
        {
          "name": "B5",
          "midi": 83,
          "time": 101.22395833333333,
          "velocity": 0.47244094488188976,
          "duration": 0.1145833333333286
        },
        {
          "name": "B5",
          "midi": 83,
          "time": 101.47395833333333,
          "velocity": 0.6299212598425197,
          "duration": 0.09375
        },
        {
          "name": "B5",
          "midi": 83,
          "time": 101.72395833333333,
          "velocity": 0.47244094488188976,
          "duration": 0.1145833333333286
        },
        {
          "name": "B5",
          "midi": 83,
          "time": 101.97395833333333,
          "velocity": 0.6299212598425197,
          "duration": 0.09375
        },
        {
          "name": "B5",
          "midi": 83,
          "time": 102.22395833333333,
          "velocity": 0.47244094488188976,
          "duration": 0.1145833333333286
        },
        {
          "name": "B5",
          "midi": 83,
          "time": 102.47395833333333,
          "velocity": 0.6299212598425197,
          "duration": 0.09375
        },
        {
          "name": "B5",
          "midi": 83,
          "time": 102.72395833333333,
          "velocity": 0.47244094488188976,
          "duration": 0.1145833333333286
        },
        {
          "name": "B5",
          "midi": 83,
          "time": 102.97395833333333,
          "velocity": 0.6299212598425197,
          "duration": 0.09375
        },
        {
          "name": "B5",
          "midi": 83,
          "time": 103.22395833333333,
          "velocity": 0.47244094488188976,
          "duration": 0.1145833333333286
        },
        {
          "name": "B5",
          "midi": 83,
          "time": 103.47395833333333,
          "velocity": 0.6299212598425197,
          "duration": 0.09375
        },
        {
          "name": "B5",
          "midi": 83,
          "time": 103.72395833333333,
          "velocity": 0.47244094488188976,
          "duration": 0.1145833333333286
        },
        {
          "name": "B5",
          "midi": 83,
          "time": 103.97395833333333,
          "velocity": 0.6299212598425197,
          "duration": 0.09375
        },
        {
          "name": "B5",
          "midi": 83,
          "time": 104.22395833333333,
          "velocity": 0.47244094488188976,
          "duration": 0.1145833333333286
        },
        {
          "name": "B5",
          "midi": 83,
          "time": 104.47395833333333,
          "velocity": 0.6299212598425197,
          "duration": 0.09375
        },
        {
          "name": "B5",
          "midi": 83,
          "time": 104.72395833333333,
          "velocity": 0.47244094488188976,
          "duration": 0.1145833333333286
        },
        {
          "name": "B5",
          "midi": 83,
          "time": 104.97395833333333,
          "velocity": 0.6299212598425197,
          "duration": 0.09375
        },
        {
          "name": "B5",
          "midi": 83,
          "time": 105.22395833333333,
          "velocity": 0.47244094488188976,
          "duration": 0.1145833333333286
        },
        {
          "name": "B5",
          "midi": 83,
          "time": 105.47395833333333,
          "velocity": 0.6299212598425197,
          "duration": 0.09375
        },
        {
          "name": "B5",
          "midi": 83,
          "time": 105.72395833333333,
          "velocity": 0.47244094488188976,
          "duration": 0.1145833333333286
        },
        {
          "name": "B5",
          "midi": 83,
          "time": 105.97395833333333,
          "velocity": 0.6299212598425197,
          "duration": 0.09375
        },
        {
          "name": "B5",
          "midi": 83,
          "time": 106.22395833333333,
          "velocity": 0.47244094488188976,
          "duration": 0.1145833333333286
        },
        {
          "name": "B5",
          "midi": 83,
          "time": 106.47395833333333,
          "velocity": 0.6299212598425197,
          "duration": 0.09375
        },
        {
          "name": "B5",
          "midi": 83,
          "time": 106.72395833333333,
          "velocity": 0.47244094488188976,
          "duration": 0.1145833333333286
        },
        {
          "name": "B5",
          "midi": 83,
          "time": 106.97395833333333,
          "velocity": 0.6299212598425197,
          "duration": 0.09375
        },
        {
          "name": "B5",
          "midi": 83,
          "time": 107.22395833333333,
          "velocity": 0.47244094488188976,
          "duration": 0.1145833333333286
        },
        {
          "name": "B5",
          "midi": 83,
          "time": 107.47395833333333,
          "velocity": 0.6299212598425197,
          "duration": 0.09375
        },
        {
          "name": "B5",
          "midi": 83,
          "time": 107.72395833333333,
          "velocity": 0.47244094488188976,
          "duration": 0.1145833333333286
        },
        {
          "name": "B5",
          "midi": 83,
          "time": 107.97395833333333,
          "velocity": 0.6299212598425197,
          "duration": 0.09375
        },
        {
          "name": "B5",
          "midi": 83,
          "time": 108.22395833333333,
          "velocity": 0.47244094488188976,
          "duration": 0.1145833333333286
        },
        {
          "name": "B5",
          "midi": 83,
          "time": 108.47395833333333,
          "velocity": 0.6299212598425197,
          "duration": 0.09375
        },
        {
          "name": "B5",
          "midi": 83,
          "time": 108.72395833333333,
          "velocity": 0.47244094488188976,
          "duration": 0.1145833333333286
        },
        {
          "name": "B5",
          "midi": 83,
          "time": 108.97395833333333,
          "velocity": 0.6299212598425197,
          "duration": 0.09375
        },
        {
          "name": "B5",
          "midi": 83,
          "time": 109.22395833333333,
          "velocity": 0.47244094488188976,
          "duration": 0.1145833333333286
        },
        {
          "name": "B5",
          "midi": 83,
          "time": 109.47395833333333,
          "velocity": 0.6299212598425197,
          "duration": 0.09375
        },
        {
          "name": "B5",
          "midi": 83,
          "time": 109.72395833333333,
          "velocity": 0.47244094488188976,
          "duration": 0.1145833333333286
        },
        {
          "name": "B5",
          "midi": 83,
          "time": 109.97395833333333,
          "velocity": 0.6299212598425197,
          "duration": 0.09375
        },
        {
          "name": "B5",
          "midi": 83,
          "time": 110.22395833333333,
          "velocity": 0.47244094488188976,
          "duration": 0.1145833333333286
        },
        {
          "name": "B5",
          "midi": 83,
          "time": 110.47395833333333,
          "velocity": 0.6299212598425197,
          "duration": 0.09375
        },
        {
          "name": "B5",
          "midi": 83,
          "time": 110.72395833333333,
          "velocity": 0.47244094488188976,
          "duration": 0.1145833333333286
        },
        {
          "name": "B5",
          "midi": 83,
          "time": 110.97395833333333,
          "velocity": 0.6299212598425197,
          "duration": 0.09375
        },
        {
          "name": "B5",
          "midi": 83,
          "time": 111.22395833333333,
          "velocity": 0.47244094488188976,
          "duration": 0.1145833333333286
        },
        {
          "name": "B5",
          "midi": 83,
          "time": 111.47395833333333,
          "velocity": 0.6299212598425197,
          "duration": 0.09375
        },
        {
          "name": "B5",
          "midi": 83,
          "time": 111.72395833333333,
          "velocity": 0.47244094488188976,
          "duration": 0.1145833333333286
        },
        {
          "name": "B5",
          "midi": 83,
          "time": 111.97395833333333,
          "velocity": 0.6299212598425197,
          "duration": 0.09375
        },
        {
          "name": "B5",
          "midi": 83,
          "time": 112.22395833333333,
          "velocity": 0.47244094488188976,
          "duration": 0.1145833333333286
        },
        {
          "name": "B5",
          "midi": 83,
          "time": 112.47395833333333,
          "velocity": 0.6299212598425197,
          "duration": 0.09375
        },
        {
          "name": "B5",
          "midi": 83,
          "time": 112.72395833333333,
          "velocity": 0.47244094488188976,
          "duration": 0.1145833333333286
        },
        {
          "name": "B5",
          "midi": 83,
          "time": 112.97395833333333,
          "velocity": 0.6299212598425197,
          "duration": 0.09375
        },
        {
          "name": "B5",
          "midi": 83,
          "time": 113.22395833333333,
          "velocity": 0.47244094488188976,
          "duration": 0.1145833333333286
        },
        {
          "name": "B5",
          "midi": 83,
          "time": 113.47395833333333,
          "velocity": 0.6299212598425197,
          "duration": 0.09375
        },
        {
          "name": "B5",
          "midi": 83,
          "time": 113.72395833333333,
          "velocity": 0.47244094488188976,
          "duration": 0.1145833333333286
        },
        {
          "name": "B5",
          "midi": 83,
          "time": 113.97395833333333,
          "velocity": 0.6299212598425197,
          "duration": 0.09375
        },
        {
          "name": "B5",
          "midi": 83,
          "time": 114.22395833333333,
          "velocity": 0.47244094488188976,
          "duration": 0.1145833333333286
        },
        {
          "name": "B5",
          "midi": 83,
          "time": 114.47395833333333,
          "velocity": 0.6299212598425197,
          "duration": 0.09375
        },
        {
          "name": "B5",
          "midi": 83,
          "time": 114.72395833333333,
          "velocity": 0.47244094488188976,
          "duration": 0.1145833333333286
        },
        {
          "name": "B5",
          "midi": 83,
          "time": 114.97395833333333,
          "velocity": 0.6299212598425197,
          "duration": 0.09375
        },
        {
          "name": "B5",
          "midi": 83,
          "time": 115.22395833333333,
          "velocity": 0.47244094488188976,
          "duration": 0.1145833333333286
        },
        {
          "name": "B5",
          "midi": 83,
          "time": 115.47395833333333,
          "velocity": 0.6299212598425197,
          "duration": 0.09375
        },
        {
          "name": "B5",
          "midi": 83,
          "time": 115.72395833333333,
          "velocity": 0.47244094488188976,
          "duration": 0.1145833333333286
        },
        {
          "name": "B5",
          "midi": 83,
          "time": 115.97395833333333,
          "velocity": 0.6299212598425197,
          "duration": 0.09375
        },
        {
          "name": "B5",
          "midi": 83,
          "time": 116.22395833333333,
          "velocity": 0.47244094488188976,
          "duration": 0.1145833333333286
        },
        {
          "name": "B5",
          "midi": 83,
          "time": 116.47395833333333,
          "velocity": 0.6299212598425197,
          "duration": 0.09375
        },
        {
          "name": "B5",
          "midi": 83,
          "time": 116.72395833333333,
          "velocity": 0.47244094488188976,
          "duration": 0.1145833333333286
        },
        {
          "name": "B5",
          "midi": 83,
          "time": 116.97395833333333,
          "velocity": 0.6299212598425197,
          "duration": 0.09375
        },
        {
          "name": "B5",
          "midi": 83,
          "time": 117.22395833333333,
          "velocity": 0.47244094488188976,
          "duration": 0.1145833333333286
        },
        {
          "name": "B5",
          "midi": 83,
          "time": 117.47395833333333,
          "velocity": 0.6299212598425197,
          "duration": 0.09375
        },
        {
          "name": "B5",
          "midi": 83,
          "time": 117.72395833333333,
          "velocity": 0.47244094488188976,
          "duration": 0.1145833333333286
        },
        {
          "name": "B5",
          "midi": 83,
          "time": 117.97395833333333,
          "velocity": 0.6299212598425197,
          "duration": 0.09375
        },
        {
          "name": "B5",
          "midi": 83,
          "time": 118.22395833333333,
          "velocity": 0.47244094488188976,
          "duration": 0.1145833333333286
        },
        {
          "name": "B5",
          "midi": 83,
          "time": 118.47395833333333,
          "velocity": 0.6299212598425197,
          "duration": 0.09375
        },
        {
          "name": "B5",
          "midi": 83,
          "time": 118.72395833333333,
          "velocity": 0.47244094488188976,
          "duration": 0.1145833333333286
        },
        {
          "name": "B5",
          "midi": 83,
          "time": 118.97395833333333,
          "velocity": 0.6299212598425197,
          "duration": 0.09375
        },
        {
          "name": "B5",
          "midi": 83,
          "time": 119.22395833333333,
          "velocity": 0.47244094488188976,
          "duration": 0.1145833333333286
        },
        {
          "name": "B5",
          "midi": 83,
          "time": 119.47395833333333,
          "velocity": 0.6299212598425197,
          "duration": 0.09375
        },
        {
          "name": "B5",
          "midi": 83,
          "time": 119.72395833333333,
          "velocity": 0.47244094488188976,
          "duration": 0.1145833333333286
        },
        {
          "name": "B5",
          "midi": 83,
          "time": 119.97395833333333,
          "velocity": 0.6299212598425197,
          "duration": 0.09375
        },
        {
          "name": "B5",
          "midi": 83,
          "time": 120.22395833333334,
          "velocity": 0.47244094488188976,
          "duration": 0.1145833333333286
        },
        {
          "name": "B5",
          "midi": 83,
          "time": 120.47395833333334,
          "velocity": 0.6299212598425197,
          "duration": 0.09375
        },
        {
          "name": "B5",
          "midi": 83,
          "time": 120.72395833333336,
          "velocity": 0.47244094488188976,
          "duration": 0.1145833333333286
        },
        {
          "name": "B5",
          "midi": 83,
          "time": 120.97395833333336,
          "velocity": 0.6299212598425197,
          "duration": 0.09375
        },
        {
          "name": "B5",
          "midi": 83,
          "time": 121.22395833333337,
          "velocity": 0.47244094488188976,
          "duration": 0.1145833333333286
        },
        {
          "name": "B5",
          "midi": 83,
          "time": 121.47395833333337,
          "velocity": 0.6299212598425197,
          "duration": 0.09375
        },
        {
          "name": "B5",
          "midi": 83,
          "time": 121.72395833333337,
          "velocity": 0.47244094488188976,
          "duration": 0.11458333333334281
        },
        {
          "name": "B5",
          "midi": 83,
          "time": 121.97395833333339,
          "velocity": 0.6299212598425197,
          "duration": 0.09375
        },
        {
          "name": "B5",
          "midi": 83,
          "time": 122.22395833333339,
          "velocity": 0.47244094488188976,
          "duration": 0.11458333333334281
        },
        {
          "name": "B5",
          "midi": 83,
          "time": 122.4739583333334,
          "velocity": 0.6299212598425197,
          "duration": 0.09375
        },
        {
          "name": "B5",
          "midi": 83,
          "time": 122.7239583333334,
          "velocity": 0.47244094488188976,
          "duration": 0.11458333333334281
        },
        {
          "name": "B5",
          "midi": 83,
          "time": 122.97395833333341,
          "velocity": 0.6299212598425197,
          "duration": 0.09375000000001421
        },
        {
          "name": "B5",
          "midi": 83,
          "time": 123.22395833333344,
          "velocity": 0.47244094488188976,
          "duration": 0.11458333333334281
        },
        {
          "name": "B5",
          "midi": 83,
          "time": 123.47395833333346,
          "velocity": 0.6299212598425197,
          "duration": 0.09375000000001421
        }
      ],
      "controlChanges": {
        "7": [
          {
            "number": 7,
            "time": 0.75,
            "value": 0.7086614173228346
          },
          {
            "number": 7,
            "time": 120,
            "value": 0.7559055118110236
          },
          {
            "number": 7,
            "time": 120.05208333333333,
            "value": 0.7480314960629921
          },
          {
            "number": 7,
            "time": 120.09375,
            "value": 0.7401574803149606
          },
          {
            "number": 7,
            "time": 120.13541666666667,
            "value": 0.7322834645669292
          },
          {
            "number": 7,
            "time": 120.17708333333334,
            "value": 0.7244094488188977
          },
          {
            "number": 7,
            "time": 120.21875000000001,
            "value": 0.7165354330708661
          },
          {
            "number": 7,
            "time": 120.26041666666667,
            "value": 0.7086614173228346
          },
          {
            "number": 7,
            "time": 120.30208333333334,
            "value": 0.7007874015748031
          },
          {
            "number": 7,
            "time": 120.34375,
            "value": 0.6929133858267716
          },
          {
            "number": 7,
            "time": 120.38541666666667,
            "value": 0.6850393700787402
          },
          {
            "number": 7,
            "time": 120.42708333333334,
            "value": 0.6771653543307087
          },
          {
            "number": 7,
            "time": 120.46875000000001,
            "value": 0.6692913385826772
          },
          {
            "number": 7,
            "time": 120.51041666666667,
            "value": 0.6614173228346457
          },
          {
            "number": 7,
            "time": 120.55208333333334,
            "value": 0.6535433070866141
          },
          {
            "number": 7,
            "time": 120.59375000000001,
            "value": 0.6456692913385826
          },
          {
            "number": 7,
            "time": 120.63541666666669,
            "value": 0.6377952755905512
          },
          {
            "number": 7,
            "time": 120.67708333333336,
            "value": 0.6299212598425197
          },
          {
            "number": 7,
            "time": 120.71875000000003,
            "value": 0.6220472440944882
          },
          {
            "number": 7,
            "time": 120.76041666666669,
            "value": 0.6141732283464567
          },
          {
            "number": 7,
            "time": 120.80208333333336,
            "value": 0.6062992125984252
          },
          {
            "number": 7,
            "time": 120.84375000000001,
            "value": 0.5984251968503937
          },
          {
            "number": 7,
            "time": 120.88541666666669,
            "value": 0.5905511811023622
          },
          {
            "number": 7,
            "time": 120.92708333333336,
            "value": 0.5826771653543307
          },
          {
            "number": 7,
            "time": 120.96875000000003,
            "value": 0.5748031496062992
          },
          {
            "number": 7,
            "time": 121.01041666666669,
            "value": 0.5669291338582677
          },
          {
            "number": 7,
            "time": 121.05208333333336,
            "value": 0.5590551181102362
          },
          {
            "number": 7,
            "time": 121.09375000000003,
            "value": 0.5511811023622047
          },
          {
            "number": 7,
            "time": 121.1354166666667,
            "value": 0.5433070866141733
          },
          {
            "number": 7,
            "time": 121.17708333333337,
            "value": 0.5354330708661418
          },
          {
            "number": 7,
            "time": 121.21875000000004,
            "value": 0.5275590551181102
          },
          {
            "number": 7,
            "time": 121.2604166666667,
            "value": 0.5196850393700787
          },
          {
            "number": 7,
            "time": 121.30208333333337,
            "value": 0.5118110236220472
          },
          {
            "number": 7,
            "time": 121.3541666666667,
            "value": 0.5039370078740157
          },
          {
            "number": 7,
            "time": 121.39583333333337,
            "value": 0.49606299212598426
          },
          {
            "number": 7,
            "time": 121.43750000000004,
            "value": 0.4881889763779528
          },
          {
            "number": 7,
            "time": 121.4791666666667,
            "value": 0.48031496062992124
          },
          {
            "number": 7,
            "time": 121.52083333333337,
            "value": 0.47244094488188976
          },
          {
            "number": 7,
            "time": 121.56250000000004,
            "value": 0.4645669291338583
          },
          {
            "number": 7,
            "time": 121.6041666666667,
            "value": 0.4566929133858268
          },
          {
            "number": 7,
            "time": 121.64583333333337,
            "value": 0.44881889763779526
          },
          {
            "number": 7,
            "time": 121.68750000000004,
            "value": 0.4409448818897638
          },
          {
            "number": 7,
            "time": 121.7291666666667,
            "value": 0.4330708661417323
          },
          {
            "number": 7,
            "time": 121.77083333333337,
            "value": 0.4251968503937008
          },
          {
            "number": 7,
            "time": 121.81250000000004,
            "value": 0.41732283464566927
          },
          {
            "number": 7,
            "time": 121.85416666666671,
            "value": 0.4094488188976378
          },
          {
            "number": 7,
            "time": 121.89583333333339,
            "value": 0.4015748031496063
          },
          {
            "number": 7,
            "time": 121.93750000000006,
            "value": 0.3937007874015748
          },
          {
            "number": 7,
            "time": 121.97916666666671,
            "value": 0.3858267716535433
          },
          {
            "number": 7,
            "time": 122.02083333333339,
            "value": 0.3779527559055118
          },
          {
            "number": 7,
            "time": 122.06250000000006,
            "value": 0.3700787401574803
          },
          {
            "number": 7,
            "time": 122.10416666666671,
            "value": 0.36220472440944884
          },
          {
            "number": 7,
            "time": 122.14583333333339,
            "value": 0.3543307086614173
          },
          {
            "number": 7,
            "time": 122.18750000000006,
            "value": 0.3464566929133858
          },
          {
            "number": 7,
            "time": 122.22916666666671,
            "value": 0.33858267716535434
          },
          {
            "number": 7,
            "time": 122.27083333333339,
            "value": 0.33070866141732286
          },
          {
            "number": 7,
            "time": 122.31250000000006,
            "value": 0.3228346456692913
          },
          {
            "number": 7,
            "time": 122.35416666666673,
            "value": 0.31496062992125984
          },
          {
            "number": 7,
            "time": 122.3958333333334,
            "value": 0.30708661417322836
          },
          {
            "number": 7,
            "time": 122.43750000000007,
            "value": 0.2992125984251969
          },
          {
            "number": 7,
            "time": 122.47916666666673,
            "value": 0.29133858267716534
          },
          {
            "number": 7,
            "time": 122.5208333333334,
            "value": 0.28346456692913385
          },
          {
            "number": 7,
            "time": 122.56250000000007,
            "value": 0.2755905511811024
          },
          {
            "number": 7,
            "time": 122.60416666666673,
            "value": 0.2677165354330709
          },
          {
            "number": 7,
            "time": 122.6458333333334,
            "value": 0.25984251968503935
          },
          {
            "number": 7,
            "time": 122.7083333333334,
            "value": 0.25196850393700787
          },
          {
            "number": 7,
            "time": 122.75000000000007,
            "value": 0.2440944881889764
          },
          {
            "number": 7,
            "time": 122.79166666666674,
            "value": 0.23622047244094488
          },
          {
            "number": 7,
            "time": 122.83333333333341,
            "value": 0.2283464566929134
          },
          {
            "number": 7,
            "time": 122.87500000000007,
            "value": 0.2204724409448819
          },
          {
            "number": 7,
            "time": 122.91666666666674,
            "value": 0.2125984251968504
          },
          {
            "number": 7,
            "time": 122.95833333333341,
            "value": 0.2047244094488189
          },
          {
            "number": 7,
            "time": 123.00000000000009,
            "value": 0.1968503937007874
          },
          {
            "number": 7,
            "time": 123.04166666666676,
            "value": 0.1889763779527559
          },
          {
            "number": 7,
            "time": 123.08333333333343,
            "value": 0.18110236220472442
          },
          {
            "number": 7,
            "time": 123.1250000000001,
            "value": 0.1732283464566929
          },
          {
            "number": 7,
            "time": 123.16666666666677,
            "value": 0.16535433070866143
          },
          {
            "number": 7,
            "time": 123.20833333333344,
            "value": 0.15748031496062992
          },
          {
            "number": 7,
            "time": 123.25000000000011,
            "value": 0.14960629921259844
          },
          {
            "number": 7,
            "time": 123.29166666666679,
            "value": 0.14173228346456693
          },
          {
            "number": 7,
            "time": 123.33333333333346,
            "value": 0.13385826771653545
          },
          {
            "number": 7,
            "time": 123.37500000000011,
            "value": 0.12598425196850394
          },
          {
            "number": 7,
            "time": 123.41666666666679,
            "value": 0.11811023622047244
          },
          {
            "number": 7,
            "time": 123.45833333333346,
            "value": 0.11023622047244094
          },
          {
            "number": 7,
            "time": 123.50000000000013,
            "value": 0.10236220472440945
          },
          {
            "number": 7,
            "time": 123.5416666666668,
            "value": 0.09448818897637795
          },
          {
            "number": 7,
            "time": 123.58333333333347,
            "value": 0.08661417322834646
          },
          {
            "number": 7,
            "time": 123.62500000000014,
            "value": 0.07874015748031496
          },
          {
            "number": 7,
            "time": 123.66666666666681,
            "value": 0.07086614173228346
          },
          {
            "number": 7,
            "time": 123.70833333333348,
            "value": 0.06299212598425197
          },
          {
            "number": 7,
            "time": 123.75000000000016,
            "value": 0.05511811023622047
          },
          {
            "number": 7,
            "time": 123.79166666666683,
            "value": 0.047244094488188976
          },
          {
            "number": 7,
            "time": 123.8333333333335,
            "value": 0.03937007874015748
          },
          {
            "number": 7,
            "time": 123.87500000000017,
            "value": 0.031496062992125984
          },
          {
            "number": 7,
            "time": 123.91666666666684,
            "value": 0.023622047244094488
          },
          {
            "number": 7,
            "time": 123.95833333333351,
            "value": 0.015748031496062992
          },
          {
            "number": 7,
            "time": 124.00000000000018,
            "value": 0.007874015748031496
          }
        ],
        "10": [
          {
            "number": 10,
            "time": 0.75,
            "value": 0.5039370078740157
          }
        ]
      },
      "id": 11,
      "name": "for Bomi\"",
      "instrumentNumber": 0,
      "instrument": "standard kit",
      "instrumentFamily": "drums",
      "channelNumber": 9,
      "isPercussion": true
    }
  ]
}
