{
  "header": {
    "PPQ": 96,
    "timeSignature": [
      4,
      4
    ],
    "bpm": 100,
    "name": "O Tannenbaum"
  },
  "startTime": 0,
  "duration": 205.19999999999996,
  "tracks": [
    {
      "startTime": 0,
      "duration": 0,
      "length": 0,
      "notes": [],
      "controlChanges": {},
      "id": 0,
      "name": "O Tannenbaum"
    },
    {
      "startTime": 32.4,
      "duration": 201.65625000000182,
      "length": 1207,
      "notes": [
        {
          "name": "B5",
          "midi": 83,
          "time": 32.4,
          "velocity": 0.4409448818897638,
          "duration": 0.05624999999999858
        },
        {
          "name": "C2",
          "midi": 36,
          "time": 32.4,
          "velocity": 0.7874015748031497,
          "duration": 0.05624999999999858
        },
        {
          "name": "B3",
          "midi": 59,
          "time": 32.4,
          "velocity": 0.8346456692913385,
          "duration": 0.05624999999999858
        },
        {
          "name": "B5",
          "midi": 83,
          "time": 33,
          "velocity": 0.4409448818897638,
          "duration": 0.05624999999999858
        },
        {
          "name": "C#2",
          "midi": 37,
          "time": 33,
          "velocity": 0.6141732283464567,
          "duration": 0.05624999999999858
        },
        {
          "name": "G#2",
          "midi": 44,
          "time": 33,
          "velocity": 0.9212598425196851,
          "duration": 0.05624999999999858
        },
        {
          "name": "B3",
          "midi": 59,
          "time": 33,
          "velocity": 0.8503937007874016,
          "duration": 0.05624999999999858
        },
        {
          "name": "C2",
          "midi": 36,
          "time": 33.4,
          "velocity": 0.7874015748031497,
          "duration": 0.05624999999999858
        },
        {
          "name": "B5",
          "midi": 83,
          "time": 33.599999999999994,
          "velocity": 0.4409448818897638,
          "duration": 0.05624999999999858
        },
        {
          "name": "C2",
          "midi": 36,
          "time": 33.599999999999994,
          "velocity": 0.7874015748031497,
          "duration": 0.05624999999999858
        },
        {
          "name": "B3",
          "midi": 59,
          "time": 33.599999999999994,
          "velocity": 0.8503937007874016,
          "duration": 0.05624999999999858
        },
        {
          "name": "B5",
          "midi": 83,
          "time": 34.199999999999996,
          "velocity": 0.4330708661417323,
          "duration": 0.05624999999999858
        },
        {
          "name": "C#2",
          "midi": 37,
          "time": 34.199999999999996,
          "velocity": 0.6929133858267716,
          "duration": 0.05624999999999858
        },
        {
          "name": "B3",
          "midi": 59,
          "time": 34.199999999999996,
          "velocity": 0.8818897637795275,
          "duration": 0.05624999999999858
        },
        {
          "name": "G#2",
          "midi": 44,
          "time": 34.199999999999996,
          "velocity": 0.9921259842519685,
          "duration": 0.05624999999999858
        },
        {
          "name": "C2",
          "midi": 36,
          "time": 34.599999999999994,
          "velocity": 0.7874015748031497,
          "duration": 0.05624999999999858
        },
        {
          "name": "B3",
          "midi": 59,
          "time": 34.599999999999994,
          "velocity": 0.8346456692913385,
          "duration": 0.05624999999999858
        },
        {
          "name": "B5",
          "midi": 83,
          "time": 34.79999999999999,
          "velocity": 0.4409448818897638,
          "duration": 0.05624999999999858
        },
        {
          "name": "C2",
          "midi": 36,
          "time": 34.79999999999999,
          "velocity": 0.7874015748031497,
          "duration": 0.05624999999999858
        },
        {
          "name": "B3",
          "midi": 59,
          "time": 34.79999999999999,
          "velocity": 0.8976377952755905,
          "duration": 0.05624999999999858
        },
        {
          "name": "C#2",
          "midi": 37,
          "time": 35.39999999999999,
          "velocity": 0.6456692913385826,
          "duration": 0.05624999999999858
        },
        {
          "name": "B5",
          "midi": 83,
          "time": 35.39999999999999,
          "velocity": 0.4409448818897638,
          "duration": 0.05624999999999858
        },
        {
          "name": "B3",
          "midi": 59,
          "time": 35.39999999999999,
          "velocity": 0.889763779527559,
          "duration": 0.05624999999999858
        },
        {
          "name": "G#2",
          "midi": 44,
          "time": 35.39999999999999,
          "velocity": 0.968503937007874,
          "duration": 0.05624999999999858
        },
        {
          "name": "C2",
          "midi": 36,
          "time": 35.79999999999999,
          "velocity": 0.7874015748031497,
          "duration": 0.05624999999999858
        },
        {
          "name": "B5",
          "midi": 83,
          "time": 35.999999999999986,
          "velocity": 0.4409448818897638,
          "duration": 0.05624999999999858
        },
        {
          "name": "C2",
          "midi": 36,
          "time": 35.999999999999986,
          "velocity": 0.7874015748031497,
          "duration": 0.05624999999999858
        },
        {
          "name": "B3",
          "midi": 59,
          "time": 35.999999999999986,
          "velocity": 0.8346456692913385,
          "duration": 0.05624999999999858
        },
        {
          "name": "B5",
          "midi": 83,
          "time": 36.59999999999999,
          "velocity": 0.4409448818897638,
          "duration": 0.05624999999999858
        },
        {
          "name": "C2",
          "midi": 36,
          "time": 36.59999999999999,
          "velocity": 0.7874015748031497,
          "duration": 0.05624999999999858
        },
        {
          "name": "B3",
          "midi": 59,
          "time": 36.59999999999999,
          "velocity": 0.8346456692913385,
          "duration": 0.05624999999999858
        },
        {
          "name": "G#2",
          "midi": 44,
          "time": 36.59999999999999,
          "velocity": 0.984251968503937,
          "duration": 0.05624999999999858
        },
        {
          "name": "C#2",
          "midi": 37,
          "time": 36.59999999999999,
          "velocity": 0.5984251968503937,
          "duration": 0.05624999999999858
        },
        {
          "name": "B3",
          "midi": 59,
          "time": 36.999999999999986,
          "velocity": 0.7401574803149606,
          "duration": 0.05624999999999858
        },
        {
          "name": "B3",
          "midi": 59,
          "time": 37.19999999999998,
          "velocity": 0.8267716535433071,
          "duration": 0.05624999999999858
        },
        {
          "name": "B5",
          "midi": 83,
          "time": 37.19999999999998,
          "velocity": 0.44881889763779526,
          "duration": 0.05624999999999858
        },
        {
          "name": "C2",
          "midi": 36,
          "time": 37.19999999999998,
          "velocity": 0.7874015748031497,
          "duration": 0.05624999999999858
        },
        {
          "name": "G#2",
          "midi": 44,
          "time": 37.79999999999998,
          "velocity": 0.984251968503937,
          "duration": 0.05624999999999858
        },
        {
          "name": "C#2",
          "midi": 37,
          "time": 37.79999999999998,
          "velocity": 0.5826771653543307,
          "duration": 0.05624999999999858
        },
        {
          "name": "B3",
          "midi": 59,
          "time": 37.79999999999998,
          "velocity": 0.8740157480314961,
          "duration": 0.05624999999999858
        },
        {
          "name": "B5",
          "midi": 83,
          "time": 37.79999999999998,
          "velocity": 0.4409448818897638,
          "duration": 0.05624999999999858
        },
        {
          "name": "C2",
          "midi": 36,
          "time": 38.19999999999998,
          "velocity": 0.7874015748031497,
          "duration": 0.05624999999999858
        },
        {
          "name": "B3",
          "midi": 59,
          "time": 38.39999999999998,
          "velocity": 0.84251968503937,
          "duration": 0.05624999999999858
        },
        {
          "name": "B5",
          "midi": 83,
          "time": 38.39999999999998,
          "velocity": 0.4409448818897638,
          "duration": 0.05624999999999858
        },
        {
          "name": "C2",
          "midi": 36,
          "time": 38.39999999999998,
          "velocity": 0.7874015748031497,
          "duration": 0.05624999999999858
        },
        {
          "name": "C2",
          "midi": 36,
          "time": 38.799999999999976,
          "velocity": 0.7874015748031497,
          "duration": 0.05624999999999858
        },
        {
          "name": "C#2",
          "midi": 37,
          "time": 38.99999999999997,
          "velocity": 0.6692913385826772,
          "duration": 0.05624999999999858
        },
        {
          "name": "G#2",
          "midi": 44,
          "time": 38.99999999999997,
          "velocity": 0.984251968503937,
          "duration": 0.05624999999999858
        },
        {
          "name": "B5",
          "midi": 83,
          "time": 38.99999999999997,
          "velocity": 0.44881889763779526,
          "duration": 0.05624999999999858
        },
        {
          "name": "C2",
          "midi": 36,
          "time": 38.99999999999997,
          "velocity": 0.7874015748031497,
          "duration": 0.05624999999999858
        },
        {
          "name": "B3",
          "midi": 59,
          "time": 38.99999999999997,
          "velocity": 0.8503937007874016,
          "duration": 0.05624999999999858
        },
        {
          "name": "B3",
          "midi": 59,
          "time": 39.39999999999997,
          "velocity": 0.8346456692913385,
          "duration": 0.05624999999999858
        },
        {
          "name": "B3",
          "midi": 59,
          "time": 39.599999999999966,
          "velocity": 0.8740157480314961,
          "duration": 0.05624999999999858
        },
        {
          "name": "B5",
          "midi": 83,
          "time": 39.599999999999966,
          "velocity": 0.4409448818897638,
          "duration": 0.05624999999999858
        },
        {
          "name": "C2",
          "midi": 36,
          "time": 39.599999999999966,
          "velocity": 0.7874015748031497,
          "duration": 0.05624999999999858
        },
        {
          "name": "B3",
          "midi": 59,
          "time": 40.19999999999997,
          "velocity": 0.8582677165354331,
          "duration": 0.05624999999999858
        },
        {
          "name": "C#2",
          "midi": 37,
          "time": 40.19999999999997,
          "velocity": 0.6299212598425197,
          "duration": 0.05624999999999858
        },
        {
          "name": "B5",
          "midi": 83,
          "time": 40.19999999999997,
          "velocity": 0.4409448818897638,
          "duration": 0.05624999999999858
        },
        {
          "name": "G#2",
          "midi": 44,
          "time": 40.19999999999997,
          "velocity": 0.9921259842519685,
          "duration": 0.05624999999999858
        },
        {
          "name": "B3",
          "midi": 59,
          "time": 40.599999999999966,
          "velocity": 0.7086614173228346,
          "duration": 0.05624999999999858
        },
        {
          "name": "C2",
          "midi": 36,
          "time": 40.599999999999966,
          "velocity": 0.7874015748031497,
          "duration": 0.05624999999999858
        },
        {
          "name": "B3",
          "midi": 59,
          "time": 40.79999999999996,
          "velocity": 0.8188976377952756,
          "duration": 0.05624999999999858
        },
        {
          "name": "B5",
          "midi": 83,
          "time": 40.79999999999996,
          "velocity": 0.4409448818897638,
          "duration": 0.05624999999999858
        },
        {
          "name": "C2",
          "midi": 36,
          "time": 40.79999999999996,
          "velocity": 0.7874015748031497,
          "duration": 0.05624999999999858
        },
        {
          "name": "B3",
          "midi": 59,
          "time": 41.39999999999996,
          "velocity": 0.8818897637795275,
          "duration": 0.05624999999999858
        },
        {
          "name": "B5",
          "midi": 83,
          "time": 41.39999999999996,
          "velocity": 0.44881889763779526,
          "duration": 0.05624999999999858
        },
        {
          "name": "C2",
          "midi": 36,
          "time": 41.39999999999996,
          "velocity": 0.7874015748031497,
          "duration": 0.05624999999999858
        },
        {
          "name": "C#2",
          "midi": 37,
          "time": 41.39999999999996,
          "velocity": 0.6692913385826772,
          "duration": 0.05624999999999858
        },
        {
          "name": "G#2",
          "midi": 44,
          "time": 41.39999999999996,
          "velocity": 0.9921259842519685,
          "duration": 0.05624999999999858
        },
        {
          "name": "B3",
          "midi": 59,
          "time": 41.79999999999996,
          "velocity": 0.8188976377952756,
          "duration": 0.05624999999999858
        },
        {
          "name": "B3",
          "midi": 59,
          "time": 41.99999999999996,
          "velocity": 0.84251968503937,
          "duration": 0.05624999999999858
        },
        {
          "name": "B5",
          "midi": 83,
          "time": 41.99999999999996,
          "velocity": 0.4409448818897638,
          "duration": 0.05624999999999858
        },
        {
          "name": "C2",
          "midi": 36,
          "time": 41.99999999999996,
          "velocity": 0.7874015748031497,
          "duration": 0.05624999999999858
        },
        {
          "name": "B3",
          "midi": 59,
          "time": 42.59999999999996,
          "velocity": 0.8582677165354331,
          "duration": 0.05624999999999858
        },
        {
          "name": "B5",
          "midi": 83,
          "time": 42.59999999999996,
          "velocity": 0.44881889763779526,
          "duration": 0.05624999999999858
        },
        {
          "name": "C#2",
          "midi": 37,
          "time": 42.59999999999996,
          "velocity": 0.6850393700787402,
          "duration": 0.05624999999999858
        },
        {
          "name": "G#2",
          "midi": 44,
          "time": 42.59999999999996,
          "velocity": 0.984251968503937,
          "duration": 0.05624999999999858
        },
        {
          "name": "B3",
          "midi": 59,
          "time": 43.19999999999996,
          "velocity": 0.8582677165354331,
          "duration": 0.05624999999999858
        },
        {
          "name": "B5",
          "midi": 83,
          "time": 43.19999999999996,
          "velocity": 0.4409448818897638,
          "duration": 0.05624999999999858
        },
        {
          "name": "C2",
          "midi": 36,
          "time": 43.19999999999996,
          "velocity": 0.7874015748031497,
          "duration": 0.05624999999999858
        },
        {
          "name": "G#2",
          "midi": 44,
          "time": 43.79999999999996,
          "velocity": 0.968503937007874,
          "duration": 0.05624999999999858
        },
        {
          "name": "C#2",
          "midi": 37,
          "time": 43.79999999999996,
          "velocity": 0.6929133858267716,
          "duration": 0.05624999999999858
        },
        {
          "name": "B3",
          "midi": 59,
          "time": 43.79999999999996,
          "velocity": 0.889763779527559,
          "duration": 0.05624999999999858
        },
        {
          "name": "B5",
          "midi": 83,
          "time": 43.79999999999996,
          "velocity": 0.4409448818897638,
          "duration": 0.05624999999999858
        },
        {
          "name": "C2",
          "midi": 36,
          "time": 44.19999999999996,
          "velocity": 0.7874015748031497,
          "duration": 0.05624999999999858
        },
        {
          "name": "B3",
          "midi": 59,
          "time": 44.19999999999996,
          "velocity": 0.8582677165354331,
          "duration": 0.05624999999999858
        },
        {
          "name": "B3",
          "midi": 59,
          "time": 44.399999999999956,
          "velocity": 0.8661417322834646,
          "duration": 0.05624999999999858
        },
        {
          "name": "B5",
          "midi": 83,
          "time": 44.399999999999956,
          "velocity": 0.4409448818897638,
          "duration": 0.05624999999999858
        },
        {
          "name": "C2",
          "midi": 36,
          "time": 44.399999999999956,
          "velocity": 0.7874015748031497,
          "duration": 0.05624999999999858
        },
        {
          "name": "C#2",
          "midi": 37,
          "time": 44.99999999999996,
          "velocity": 0.7244094488188977,
          "duration": 0.05624999999999858
        },
        {
          "name": "G#2",
          "midi": 44,
          "time": 44.99999999999996,
          "velocity": 0.9921259842519685,
          "duration": 0.05624999999999858
        },
        {
          "name": "B5",
          "midi": 83,
          "time": 44.99999999999996,
          "velocity": 0.4409448818897638,
          "duration": 0.05624999999999858
        },
        {
          "name": "B3",
          "midi": 59,
          "time": 44.99999999999996,
          "velocity": 0.9212598425196851,
          "duration": 0.05624999999999858
        },
        {
          "name": "C2",
          "midi": 36,
          "time": 45.19999999999995,
          "velocity": 0.7874015748031497,
          "duration": 0.05624999999999858
        },
        {
          "name": "C2",
          "midi": 36,
          "time": 45.39999999999995,
          "velocity": 0.7874015748031497,
          "duration": 0.05624999999999858
        },
        {
          "name": "B3",
          "midi": 59,
          "time": 45.599999999999945,
          "velocity": 0.8818897637795275,
          "duration": 0.05624999999999858
        },
        {
          "name": "B5",
          "midi": 83,
          "time": 45.599999999999945,
          "velocity": 0.44881889763779526,
          "duration": 0.05624999999999858
        },
        {
          "name": "C2",
          "midi": 36,
          "time": 45.599999999999945,
          "velocity": 0.7874015748031497,
          "duration": 0.05624999999999858
        },
        {
          "name": "C#2",
          "midi": 37,
          "time": 45.99999999999994,
          "velocity": 0.6299212598425197,
          "duration": 0.05624999999999858
        },
        {
          "name": "B3",
          "midi": 59,
          "time": 46.19999999999994,
          "velocity": 0.8818897637795275,
          "duration": 0.05624999999999858
        },
        {
          "name": "G#2",
          "midi": 44,
          "time": 46.19999999999994,
          "velocity": 0.9921259842519685,
          "duration": 0.05624999999999858
        },
        {
          "name": "B5",
          "midi": 83,
          "time": 46.19999999999994,
          "velocity": 0.44881889763779526,
          "duration": 0.05624999999999858
        },
        {
          "name": "C2",
          "midi": 36,
          "time": 46.19999999999994,
          "velocity": 0.7874015748031497,
          "duration": 0.05624999999999858
        },
        {
          "name": "C#2",
          "midi": 37,
          "time": 46.59999999999994,
          "velocity": 0.6614173228346457,
          "duration": 0.05624999999999858
        },
        {
          "name": "B3",
          "midi": 59,
          "time": 46.59999999999994,
          "velocity": 0.7401574803149606,
          "duration": 0.05624999999999858
        },
        {
          "name": "B3",
          "midi": 59,
          "time": 46.79999999999993,
          "velocity": 0.8582677165354331,
          "duration": 0.05624999999999858
        },
        {
          "name": "B5",
          "midi": 83,
          "time": 46.79999999999993,
          "velocity": 0.44881889763779526,
          "duration": 0.05624999999999858
        },
        {
          "name": "C2",
          "midi": 36,
          "time": 46.79999999999993,
          "velocity": 0.7874015748031497,
          "duration": 0.05624999999999858
        },
        {
          "name": "B5",
          "midi": 83,
          "time": 47.399999999999935,
          "velocity": 0.44881889763779526,
          "duration": 0.05624999999999858
        },
        {
          "name": "G#2",
          "midi": 44,
          "time": 47.399999999999935,
          "velocity": 0.984251968503937,
          "duration": 0.05624999999999858
        },
        {
          "name": "B3",
          "midi": 59,
          "time": 47.399999999999935,
          "velocity": 0.889763779527559,
          "duration": 0.05624999999999858
        },
        {
          "name": "C#2",
          "midi": 37,
          "time": 47.399999999999935,
          "velocity": 0.7322834645669292,
          "duration": 0.05624999999999858
        },
        {
          "name": "C2",
          "midi": 36,
          "time": 47.79999999999993,
          "velocity": 0.7874015748031497,
          "duration": 0.05624999999999858
        },
        {
          "name": "B3",
          "midi": 59,
          "time": 47.99999999999993,
          "velocity": 0.8267716535433071,
          "duration": 0.05624999999999858
        },
        {
          "name": "B5",
          "midi": 83,
          "time": 47.99999999999993,
          "velocity": 0.4409448818897638,
          "duration": 0.05624999999999858
        },
        {
          "name": "C2",
          "midi": 36,
          "time": 47.99999999999993,
          "velocity": 0.7874015748031497,
          "duration": 0.05624999999999858
        },
        {
          "name": "B3",
          "midi": 59,
          "time": 48.59999999999993,
          "velocity": 0.8818897637795275,
          "duration": 0.05624999999999858
        },
        {
          "name": "B5",
          "midi": 83,
          "time": 48.59999999999993,
          "velocity": 0.4409448818897638,
          "duration": 0.05624999999999858
        },
        {
          "name": "C#2",
          "midi": 37,
          "time": 48.59999999999993,
          "velocity": 0.7007874015748031,
          "duration": 0.05624999999999858
        },
        {
          "name": "G#2",
          "midi": 44,
          "time": 48.59999999999993,
          "velocity": 0.984251968503937,
          "duration": 0.05624999999999858
        },
        {
          "name": "B3",
          "midi": 59,
          "time": 49.19999999999993,
          "velocity": 0.8503937007874016,
          "duration": 0.05624999999999858
        },
        {
          "name": "B5",
          "midi": 83,
          "time": 49.19999999999993,
          "velocity": 0.4409448818897638,
          "duration": 0.05624999999999858
        },
        {
          "name": "C2",
          "midi": 36,
          "time": 49.19999999999993,
          "velocity": 0.7874015748031497,
          "duration": 0.05624999999999858
        },
        {
          "name": "B3",
          "midi": 59,
          "time": 49.79999999999993,
          "velocity": 0.889763779527559,
          "duration": 0.05624999999999858
        },
        {
          "name": "B5",
          "midi": 83,
          "time": 49.79999999999993,
          "velocity": 0.44881889763779526,
          "duration": 0.05624999999999858
        },
        {
          "name": "C#2",
          "midi": 37,
          "time": 49.79999999999993,
          "velocity": 0.6929133858267716,
          "duration": 0.05624999999999858
        },
        {
          "name": "G#2",
          "midi": 44,
          "time": 49.79999999999993,
          "velocity": 0.9921259842519685,
          "duration": 0.05624999999999858
        },
        {
          "name": "C2",
          "midi": 36,
          "time": 50.19999999999993,
          "velocity": 0.7874015748031497,
          "duration": 0.05624999999999858
        },
        {
          "name": "B3",
          "midi": 59,
          "time": 50.39999999999993,
          "velocity": 0.84251968503937,
          "duration": 0.05624999999999858
        },
        {
          "name": "B5",
          "midi": 83,
          "time": 50.39999999999993,
          "velocity": 0.44881889763779526,
          "duration": 0.05624999999999858
        },
        {
          "name": "C2",
          "midi": 36,
          "time": 50.39999999999993,
          "velocity": 0.7874015748031497,
          "duration": 0.05624999999999858
        },
        {
          "name": "C#2",
          "midi": 37,
          "time": 50.799999999999926,
          "velocity": 0.6456692913385826,
          "duration": 0.05624999999999858
        },
        {
          "name": "B3",
          "midi": 59,
          "time": 50.99999999999992,
          "velocity": 0.8976377952755905,
          "duration": 0.05624999999999858
        },
        {
          "name": "G#2",
          "midi": 44,
          "time": 50.99999999999992,
          "velocity": 0.9921259842519685,
          "duration": 0.05624999999999858
        },
        {
          "name": "B5",
          "midi": 83,
          "time": 50.99999999999992,
          "velocity": 0.44881889763779526,
          "duration": 0.05624999999999858
        },
        {
          "name": "C2",
          "midi": 36,
          "time": 50.99999999999992,
          "velocity": 0.7874015748031497,
          "duration": 0.05624999999999858
        },
        {
          "name": "C#2",
          "midi": 37,
          "time": 51.39999999999992,
          "velocity": 0.7007874015748031,
          "duration": 0.05624999999999858
        },
        {
          "name": "B3",
          "midi": 59,
          "time": 51.599999999999916,
          "velocity": 0.8740157480314961,
          "duration": 0.05624999999999858
        },
        {
          "name": "B5",
          "midi": 83,
          "time": 51.599999999999916,
          "velocity": 0.44881889763779526,
          "duration": 0.05624999999999858
        },
        {
          "name": "C2",
          "midi": 36,
          "time": 51.599999999999916,
          "velocity": 0.7874015748031497,
          "duration": 0.05624999999999858
        },
        {
          "name": "B3",
          "midi": 59,
          "time": 52.19999999999992,
          "velocity": 0.84251968503937,
          "duration": 0.05624999999999858
        },
        {
          "name": "B5",
          "midi": 83,
          "time": 52.19999999999992,
          "velocity": 0.4409448818897638,
          "duration": 0.05624999999999858
        },
        {
          "name": "G#2",
          "midi": 44,
          "time": 52.19999999999992,
          "velocity": 0.9921259842519685,
          "duration": 0.05624999999999858
        },
        {
          "name": "C#2",
          "midi": 37,
          "time": 52.19999999999992,
          "velocity": 0.7165354330708661,
          "duration": 0.05624999999999858
        },
        {
          "name": "B3",
          "midi": 59,
          "time": 52.599999999999916,
          "velocity": 0.8267716535433071,
          "duration": 0.05624999999999858
        },
        {
          "name": "C2",
          "midi": 36,
          "time": 52.599999999999916,
          "velocity": 0.7874015748031497,
          "duration": 0.05624999999999858
        },
        {
          "name": "B5",
          "midi": 83,
          "time": 52.79999999999991,
          "velocity": 0.44881889763779526,
          "duration": 0.05624999999999858
        },
        {
          "name": "C2",
          "midi": 36,
          "time": 52.79999999999991,
          "velocity": 0.7874015748031497,
          "duration": 0.05624999999999858
        },
        {
          "name": "B3",
          "midi": 59,
          "time": 52.79999999999991,
          "velocity": 0.8740157480314961,
          "duration": 0.05624999999999858
        },
        {
          "name": "B5",
          "midi": 83,
          "time": 53.39999999999991,
          "velocity": 0.44881889763779526,
          "duration": 0.05624999999999858
        },
        {
          "name": "C2",
          "midi": 36,
          "time": 53.39999999999991,
          "velocity": 0.7874015748031497,
          "duration": 0.05624999999999858
        },
        {
          "name": "B3",
          "midi": 59,
          "time": 53.39999999999991,
          "velocity": 0.9212598425196851,
          "duration": 0.05624999999999858
        },
        {
          "name": "C#2",
          "midi": 37,
          "time": 53.39999999999991,
          "velocity": 0.7322834645669292,
          "duration": 0.05624999999999858
        },
        {
          "name": "G#2",
          "midi": 44,
          "time": 53.39999999999991,
          "velocity": 0.9921259842519685,
          "duration": 0.05624999999999858
        },
        {
          "name": "B3",
          "midi": 59,
          "time": 53.79999999999991,
          "velocity": 0.7086614173228346,
          "duration": 0.05624999999999858
        },
        {
          "name": "B3",
          "midi": 59,
          "time": 53.99999999999991,
          "velocity": 0.8661417322834646,
          "duration": 0.05624999999999858
        },
        {
          "name": "B5",
          "midi": 83,
          "time": 53.99999999999991,
          "velocity": 0.4409448818897638,
          "duration": 0.05624999999999858
        },
        {
          "name": "C2",
          "midi": 36,
          "time": 53.99999999999991,
          "velocity": 0.7874015748031497,
          "duration": 0.05624999999999858
        },
        {
          "name": "B3",
          "midi": 59,
          "time": 54.59999999999991,
          "velocity": 0.8740157480314961,
          "duration": 0.05624999999999858
        },
        {
          "name": "B5",
          "midi": 83,
          "time": 54.59999999999991,
          "velocity": 0.44881889763779526,
          "duration": 0.05624999999999858
        },
        {
          "name": "G#2",
          "midi": 44,
          "time": 54.59999999999991,
          "velocity": 0.968503937007874,
          "duration": 0.05624999999999858
        },
        {
          "name": "C2",
          "midi": 36,
          "time": 54.99999999999991,
          "velocity": 0.7874015748031497,
          "duration": 0.05624999999999858
        },
        {
          "name": "B3",
          "midi": 59,
          "time": 55.1999999999999,
          "velocity": 0.889763779527559,
          "duration": 0.05624999999999858
        },
        {
          "name": "B5",
          "midi": 83,
          "time": 55.1999999999999,
          "velocity": 0.44881889763779526,
          "duration": 0.05624999999999858
        },
        {
          "name": "C2",
          "midi": 36,
          "time": 55.1999999999999,
          "velocity": 0.7874015748031497,
          "duration": 0.05624999999999858
        },
        {
          "name": "B3",
          "midi": 59,
          "time": 55.799999999999905,
          "velocity": 0.8976377952755905,
          "duration": 0.05624999999999858
        },
        {
          "name": "C#2",
          "midi": 37,
          "time": 55.799999999999905,
          "velocity": 0.6692913385826772,
          "duration": 0.05624999999999858
        },
        {
          "name": "B5",
          "midi": 83,
          "time": 55.799999999999905,
          "velocity": 0.44881889763779526,
          "duration": 0.05624999999999858
        },
        {
          "name": "C2",
          "midi": 36,
          "time": 55.799999999999905,
          "velocity": 0.7874015748031497,
          "duration": 0.05624999999999858
        },
        {
          "name": "G#2",
          "midi": 44,
          "time": 55.799999999999905,
          "velocity": 0.9921259842519685,
          "duration": 0.05624999999999858
        },
        {
          "name": "B3",
          "midi": 59,
          "time": 56.399999999999906,
          "velocity": 0.8661417322834646,
          "duration": 0.05624999999999858
        },
        {
          "name": "B5",
          "midi": 83,
          "time": 56.399999999999906,
          "velocity": 0.44881889763779526,
          "duration": 0.05624999999999858
        },
        {
          "name": "C2",
          "midi": 36,
          "time": 56.399999999999906,
          "velocity": 0.7874015748031497,
          "duration": 0.05624999999999858
        },
        {
          "name": "B3",
          "midi": 59,
          "time": 56.99999999999991,
          "velocity": 0.889763779527559,
          "duration": 0.05624999999999858
        },
        {
          "name": "B5",
          "midi": 83,
          "time": 56.99999999999991,
          "velocity": 0.4330708661417323,
          "duration": 0.05624999999999858
        },
        {
          "name": "C#2",
          "midi": 37,
          "time": 56.99999999999991,
          "velocity": 0.7086614173228346,
          "duration": 0.05624999999999858
        },
        {
          "name": "G#2",
          "midi": 44,
          "time": 56.99999999999991,
          "velocity": 0.9921259842519685,
          "duration": 0.05624999999999858
        },
        {
          "name": "B3",
          "midi": 59,
          "time": 57.399999999999906,
          "velocity": 0.7795275590551181,
          "duration": 0.05624999999999858
        },
        {
          "name": "C2",
          "midi": 36,
          "time": 57.399999999999906,
          "velocity": 0.7874015748031497,
          "duration": 0.05624999999999858
        },
        {
          "name": "B3",
          "midi": 59,
          "time": 57.5999999999999,
          "velocity": 0.7401574803149606,
          "duration": 0.05624999999999858
        },
        {
          "name": "B5",
          "midi": 83,
          "time": 57.5999999999999,
          "velocity": 0.4409448818897638,
          "duration": 0.05624999999999858
        },
        {
          "name": "C2",
          "midi": 36,
          "time": 57.5999999999999,
          "velocity": 0.7874015748031497,
          "duration": 0.05624999999999858
        },
        {
          "name": "B3",
          "midi": 59,
          "time": 58.1999999999999,
          "velocity": 0.905511811023622,
          "duration": 0.05624999999999858
        },
        {
          "name": "C#2",
          "midi": 37,
          "time": 58.1999999999999,
          "velocity": 0.7007874015748031,
          "duration": 0.05624999999999858
        },
        {
          "name": "B5",
          "midi": 83,
          "time": 58.1999999999999,
          "velocity": 0.44881889763779526,
          "duration": 0.05624999999999858
        },
        {
          "name": "G#2",
          "midi": 44,
          "time": 58.1999999999999,
          "velocity": 0.9921259842519685,
          "duration": 0.05624999999999858
        },
        {
          "name": "B3",
          "midi": 59,
          "time": 58.5999999999999,
          "velocity": 0.8346456692913385,
          "duration": 0.05624999999999858
        },
        {
          "name": "B3",
          "midi": 59,
          "time": 58.7999999999999,
          "velocity": 0.7952755905511811,
          "duration": 0.05624999999999858
        },
        {
          "name": "B5",
          "midi": 83,
          "time": 58.7999999999999,
          "velocity": 0.4094488188976378,
          "duration": 0.05624999999999858
        },
        {
          "name": "C2",
          "midi": 36,
          "time": 58.7999999999999,
          "velocity": 0.7874015748031497,
          "duration": 0.05624999999999858
        },
        {
          "name": "B3",
          "midi": 59,
          "time": 59.3999999999999,
          "velocity": 0.8976377952755905,
          "duration": 0.05624999999999858
        },
        {
          "name": "G#2",
          "midi": 44,
          "time": 59.3999999999999,
          "velocity": 0.9921259842519685,
          "duration": 0.05624999999999858
        },
        {
          "name": "C#2",
          "midi": 37,
          "time": 59.3999999999999,
          "velocity": 0.6850393700787402,
          "duration": 0.05624999999999858
        },
        {
          "name": "B5",
          "midi": 83,
          "time": 59.3999999999999,
          "velocity": 0.44881889763779526,
          "duration": 0.05624999999999858
        },
        {
          "name": "C2",
          "midi": 36,
          "time": 59.3999999999999,
          "velocity": 0.7874015748031497,
          "duration": 0.05624999999999858
        },
        {
          "name": "B3",
          "midi": 59,
          "time": 59.9999999999999,
          "velocity": 0.8818897637795275,
          "duration": 0.05624999999999858
        },
        {
          "name": "B5",
          "midi": 83,
          "time": 59.9999999999999,
          "velocity": 0.4330708661417323,
          "duration": 0.05624999999999858
        },
        {
          "name": "C2",
          "midi": 36,
          "time": 59.9999999999999,
          "velocity": 0.7874015748031497,
          "duration": 0.05624999999999858
        },
        {
          "name": "C#2",
          "midi": 37,
          "time": 60.3999999999999,
          "velocity": 0.6850393700787402,
          "duration": 0.05624999999999858
        },
        {
          "name": "B3",
          "midi": 59,
          "time": 60.599999999999895,
          "velocity": 0.9212598425196851,
          "duration": 0.05624999999999858
        },
        {
          "name": "B5",
          "midi": 83,
          "time": 60.599999999999895,
          "velocity": 0.44881889763779526,
          "duration": 0.05624999999999858
        },
        {
          "name": "C2",
          "midi": 36,
          "time": 60.599999999999895,
          "velocity": 0.7874015748031497,
          "duration": 0.05624999999999858
        },
        {
          "name": "G#2",
          "midi": 44,
          "time": 60.599999999999895,
          "velocity": 0.9921259842519685,
          "duration": 0.05624999999999858
        },
        {
          "name": "B3",
          "midi": 59,
          "time": 60.99999999999989,
          "velocity": 0.8267716535433071,
          "duration": 0.05624999999999858
        },
        {
          "name": "C#2",
          "midi": 37,
          "time": 60.99999999999989,
          "velocity": 0.6456692913385826,
          "duration": 0.05624999999999858
        },
        {
          "name": "B3",
          "midi": 59,
          "time": 61.19999999999989,
          "velocity": 0.8740157480314961,
          "duration": 0.05624999999999858
        },
        {
          "name": "B5",
          "midi": 83,
          "time": 61.19999999999989,
          "velocity": 0.44881889763779526,
          "duration": 0.05624999999999858
        },
        {
          "name": "C2",
          "midi": 36,
          "time": 61.19999999999989,
          "velocity": 0.7874015748031497,
          "duration": 0.05624999999999858
        },
        {
          "name": "B5",
          "midi": 83,
          "time": 61.79999999999989,
          "velocity": 0.44881889763779526,
          "duration": 0.05624999999999858
        },
        {
          "name": "B3",
          "midi": 59,
          "time": 61.79999999999989,
          "velocity": 0.8661417322834646,
          "duration": 0.05624999999999858
        },
        {
          "name": "C#2",
          "midi": 37,
          "time": 61.79999999999989,
          "velocity": 0.7244094488188977,
          "duration": 0.05624999999999858
        },
        {
          "name": "G#2",
          "midi": 44,
          "time": 61.79999999999989,
          "velocity": 0.9921259842519685,
          "duration": 0.05624999999999858
        },
        {
          "name": "C2",
          "midi": 36,
          "time": 62.19999999999989,
          "velocity": 0.7874015748031497,
          "duration": 0.05624999999999858
        },
        {
          "name": "B5",
          "midi": 83,
          "time": 62.399999999999885,
          "velocity": 0.4409448818897638,
          "duration": 0.05624999999999858
        },
        {
          "name": "C2",
          "midi": 36,
          "time": 62.399999999999885,
          "velocity": 0.7874015748031497,
          "duration": 0.05624999999999858
        },
        {
          "name": "B3",
          "midi": 59,
          "time": 62.399999999999885,
          "velocity": 0.8346456692913385,
          "duration": 0.05624999999999858
        },
        {
          "name": "C#2",
          "midi": 37,
          "time": 62.999999999999886,
          "velocity": 0.7244094488188977,
          "duration": 0.05624999999999858
        },
        {
          "name": "B3",
          "midi": 59,
          "time": 62.999999999999886,
          "velocity": 0.8503937007874016,
          "duration": 0.05624999999999858
        },
        {
          "name": "B5",
          "midi": 83,
          "time": 62.999999999999886,
          "velocity": 0.44881889763779526,
          "duration": 0.05624999999999858
        },
        {
          "name": "G#2",
          "midi": 44,
          "time": 62.999999999999886,
          "velocity": 0.9921259842519685,
          "duration": 0.05624999999999858
        },
        {
          "name": "B3",
          "midi": 59,
          "time": 63.399999999999885,
          "velocity": 0.8267716535433071,
          "duration": 0.05624999999999858
        },
        {
          "name": "B3",
          "midi": 59,
          "time": 63.59999999999988,
          "velocity": 0.8503937007874016,
          "duration": 0.05624999999999858
        },
        {
          "name": "B5",
          "midi": 83,
          "time": 63.59999999999988,
          "velocity": 0.44881889763779526,
          "duration": 0.05624999999999858
        },
        {
          "name": "C2",
          "midi": 36,
          "time": 63.59999999999988,
          "velocity": 0.7874015748031497,
          "duration": 0.05624999999999858
        },
        {
          "name": "B3",
          "midi": 59,
          "time": 64.19999999999987,
          "velocity": 0.889763779527559,
          "duration": 0.056250000000005684
        },
        {
          "name": "C#2",
          "midi": 37,
          "time": 64.19999999999987,
          "velocity": 0.7086614173228346,
          "duration": 0.056250000000005684
        },
        {
          "name": "B5",
          "midi": 83,
          "time": 64.19999999999987,
          "velocity": 0.4409448818897638,
          "duration": 0.056250000000005684
        },
        {
          "name": "G#2",
          "midi": 44,
          "time": 64.19999999999987,
          "velocity": 0.9921259842519685,
          "duration": 0.056250000000005684
        },
        {
          "name": "C2",
          "midi": 36,
          "time": 64.59999999999988,
          "velocity": 0.7874015748031497,
          "duration": 0.056250000000005684
        },
        {
          "name": "B3",
          "midi": 59,
          "time": 64.79999999999988,
          "velocity": 0.8582677165354331,
          "duration": 0.056250000000005684
        },
        {
          "name": "B5",
          "midi": 83,
          "time": 64.79999999999988,
          "velocity": 0.4409448818897638,
          "duration": 0.056250000000005684
        },
        {
          "name": "C2",
          "midi": 36,
          "time": 64.79999999999988,
          "velocity": 0.7874015748031497,
          "duration": 0.056250000000005684
        },
        {
          "name": "B3",
          "midi": 59,
          "time": 65.39999999999989,
          "velocity": 0.8976377952755905,
          "duration": 0.056250000000005684
        },
        {
          "name": "B5",
          "midi": 83,
          "time": 65.39999999999989,
          "velocity": 0.44881889763779526,
          "duration": 0.056250000000005684
        },
        {
          "name": "C2",
          "midi": 36,
          "time": 65.39999999999989,
          "velocity": 0.7874015748031497,
          "duration": 0.056250000000005684
        },
        {
          "name": "C#2",
          "midi": 37,
          "time": 65.39999999999989,
          "velocity": 0.7086614173228346,
          "duration": 0.056250000000005684
        },
        {
          "name": "G#2",
          "midi": 44,
          "time": 65.39999999999989,
          "velocity": 0.9921259842519685,
          "duration": 0.056250000000005684
        },
        {
          "name": "B3",
          "midi": 59,
          "time": 65.7999999999999,
          "velocity": 0.8503937007874016,
          "duration": 0.056250000000005684
        },
        {
          "name": "B3",
          "midi": 59,
          "time": 65.9999999999999,
          "velocity": 0.8267716535433071,
          "duration": 0.056250000000005684
        },
        {
          "name": "B5",
          "midi": 83,
          "time": 65.9999999999999,
          "velocity": 0.4409448818897638,
          "duration": 0.056250000000005684
        },
        {
          "name": "C2",
          "midi": 36,
          "time": 65.9999999999999,
          "velocity": 0.7874015748031497,
          "duration": 0.056250000000005684
        },
        {
          "name": "B5",
          "midi": 83,
          "time": 66.59999999999991,
          "velocity": 0.4409448818897638,
          "duration": 0.056250000000005684
        },
        {
          "name": "C2",
          "midi": 36,
          "time": 66.59999999999991,
          "velocity": 0.7874015748031497,
          "duration": 0.056250000000005684
        },
        {
          "name": "C#2",
          "midi": 37,
          "time": 66.59999999999991,
          "velocity": 0.7007874015748031,
          "duration": 0.056250000000005684
        },
        {
          "name": "G#2",
          "midi": 44,
          "time": 66.59999999999991,
          "velocity": 0.9921259842519685,
          "duration": 0.056250000000005684
        },
        {
          "name": "B3",
          "midi": 59,
          "time": 66.59999999999991,
          "velocity": 0.9133858267716536,
          "duration": 0.056250000000005684
        },
        {
          "name": "B5",
          "midi": 83,
          "time": 67.19999999999992,
          "velocity": 0.44881889763779526,
          "duration": 0.056250000000005684
        },
        {
          "name": "C2",
          "midi": 36,
          "time": 67.19999999999992,
          "velocity": 0.7874015748031497,
          "duration": 0.056250000000005684
        },
        {
          "name": "B3",
          "midi": 59,
          "time": 67.19999999999992,
          "velocity": 0.9212598425196851,
          "duration": 0.056250000000005684
        },
        {
          "name": "B3",
          "midi": 59,
          "time": 67.79999999999993,
          "velocity": 0.8818897637795275,
          "duration": 0.056250000000005684
        },
        {
          "name": "B5",
          "midi": 83,
          "time": 67.79999999999993,
          "velocity": 0.4566929133858268,
          "duration": 0.056250000000005684
        },
        {
          "name": "C#2",
          "midi": 37,
          "time": 67.79999999999993,
          "velocity": 0.6850393700787402,
          "duration": 0.056250000000005684
        },
        {
          "name": "G#2",
          "midi": 44,
          "time": 67.79999999999993,
          "velocity": 0.9921259842519685,
          "duration": 0.056250000000005684
        },
        {
          "name": "B3",
          "midi": 59,
          "time": 68.19999999999993,
          "velocity": 0.8503937007874016,
          "duration": 0.056250000000005684
        },
        {
          "name": "C2",
          "midi": 36,
          "time": 68.19999999999993,
          "velocity": 0.7874015748031497,
          "duration": 0.056250000000005684
        },
        {
          "name": "B3",
          "midi": 59,
          "time": 68.39999999999993,
          "velocity": 0.8582677165354331,
          "duration": 0.056250000000005684
        },
        {
          "name": "B5",
          "midi": 83,
          "time": 68.39999999999993,
          "velocity": 0.44881889763779526,
          "duration": 0.056250000000005684
        },
        {
          "name": "C2",
          "midi": 36,
          "time": 68.39999999999993,
          "velocity": 0.7874015748031497,
          "duration": 0.056250000000005684
        },
        {
          "name": "B3",
          "midi": 59,
          "time": 68.99999999999994,
          "velocity": 0.8740157480314961,
          "duration": 0.056250000000005684
        },
        {
          "name": "B5",
          "midi": 83,
          "time": 68.99999999999994,
          "velocity": 0.4409448818897638,
          "duration": 0.056250000000005684
        },
        {
          "name": "C#2",
          "midi": 37,
          "time": 68.99999999999994,
          "velocity": 0.6929133858267716,
          "duration": 0.056250000000005684
        },
        {
          "name": "G#2",
          "midi": 44,
          "time": 68.99999999999994,
          "velocity": 0.9921259842519685,
          "duration": 0.056250000000005684
        },
        {
          "name": "C2",
          "midi": 36,
          "time": 69.39999999999995,
          "velocity": 0.7874015748031497,
          "duration": 0.056250000000005684
        },
        {
          "name": "B3",
          "midi": 59,
          "time": 69.59999999999995,
          "velocity": 0.889763779527559,
          "duration": 0.056250000000005684
        },
        {
          "name": "B5",
          "midi": 83,
          "time": 69.59999999999995,
          "velocity": 0.44881889763779526,
          "duration": 0.056250000000005684
        },
        {
          "name": "C2",
          "midi": 36,
          "time": 69.59999999999995,
          "velocity": 0.7874015748031497,
          "duration": 0.056250000000005684
        },
        {
          "name": "C#2",
          "midi": 37,
          "time": 69.99999999999996,
          "velocity": 0.7007874015748031,
          "duration": 0.056250000000005684
        },
        {
          "name": "B3",
          "midi": 59,
          "time": 70.19999999999996,
          "velocity": 0.905511811023622,
          "duration": 0.056250000000005684
        },
        {
          "name": "B5",
          "midi": 83,
          "time": 70.19999999999996,
          "velocity": 0.4251968503937008,
          "duration": 0.056250000000005684
        },
        {
          "name": "C2",
          "midi": 36,
          "time": 70.19999999999996,
          "velocity": 0.7874015748031497,
          "duration": 0.056250000000005684
        },
        {
          "name": "G#2",
          "midi": 44,
          "time": 70.19999999999996,
          "velocity": 0.9921259842519685,
          "duration": 0.056250000000005684
        },
        {
          "name": "C#2",
          "midi": 37,
          "time": 70.59999999999997,
          "velocity": 0.7086614173228346,
          "duration": 0.056250000000005684
        },
        {
          "name": "B3",
          "midi": 59,
          "time": 70.79999999999997,
          "velocity": 0.8582677165354331,
          "duration": 0.056250000000005684
        },
        {
          "name": "B5",
          "midi": 83,
          "time": 70.79999999999997,
          "velocity": 0.44881889763779526,
          "duration": 0.056250000000005684
        },
        {
          "name": "C2",
          "midi": 36,
          "time": 70.79999999999997,
          "velocity": 0.7874015748031497,
          "duration": 0.056250000000005684
        },
        {
          "name": "G#2",
          "midi": 44,
          "time": 71.39999999999998,
          "velocity": 0.9921259842519685,
          "duration": 0.056250000000005684
        },
        {
          "name": "B5",
          "midi": 83,
          "time": 71.39999999999998,
          "velocity": 0.4409448818897638,
          "duration": 0.056250000000005684
        },
        {
          "name": "B3",
          "midi": 59,
          "time": 71.39999999999998,
          "velocity": 0.905511811023622,
          "duration": 0.056250000000005684
        },
        {
          "name": "C#2",
          "midi": 37,
          "time": 71.39999999999998,
          "velocity": 0.7244094488188977,
          "duration": 0.056250000000005684
        },
        {
          "name": "C2",
          "midi": 36,
          "time": 71.79999999999998,
          "velocity": 0.7874015748031497,
          "duration": 0.056250000000005684
        },
        {
          "name": "B3",
          "midi": 59,
          "time": 71.79999999999998,
          "velocity": 0.8503937007874016,
          "duration": 0.056250000000005684
        },
        {
          "name": "B5",
          "midi": 83,
          "time": 71.99999999999999,
          "velocity": 0.4409448818897638,
          "duration": 0.056250000000005684
        },
        {
          "name": "C2",
          "midi": 36,
          "time": 71.99999999999999,
          "velocity": 0.7874015748031497,
          "duration": 0.056250000000005684
        },
        {
          "name": "B3",
          "midi": 59,
          "time": 71.99999999999999,
          "velocity": 0.7322834645669292,
          "duration": 0.056250000000005684
        },
        {
          "name": "B5",
          "midi": 83,
          "time": 72.6,
          "velocity": 0.44881889763779526,
          "duration": 0.056250000000005684
        },
        {
          "name": "B3",
          "midi": 59,
          "time": 72.6,
          "velocity": 0.9133858267716536,
          "duration": 0.056250000000005684
        },
        {
          "name": "C#2",
          "midi": 37,
          "time": 72.6,
          "velocity": 0.7007874015748031,
          "duration": 0.056250000000005684
        },
        {
          "name": "G#2",
          "midi": 44,
          "time": 72.6,
          "velocity": 0.984251968503937,
          "duration": 0.056250000000005684
        },
        {
          "name": "B3",
          "midi": 59,
          "time": 73,
          "velocity": 0.6929133858267716,
          "duration": 0.056250000000005684
        },
        {
          "name": "C2",
          "midi": 36,
          "time": 73,
          "velocity": 0.7874015748031497,
          "duration": 0.056250000000005684
        },
        {
          "name": "B3",
          "midi": 59,
          "time": 73.2,
          "velocity": 0.8503937007874016,
          "duration": 0.056250000000005684
        },
        {
          "name": "B5",
          "midi": 83,
          "time": 73.2,
          "velocity": 0.41732283464566927,
          "duration": 0.056250000000005684
        },
        {
          "name": "C2",
          "midi": 36,
          "time": 73.2,
          "velocity": 0.7874015748031497,
          "duration": 0.056250000000005684
        },
        {
          "name": "C#2",
          "midi": 37,
          "time": 73.80000000000001,
          "velocity": 0.7244094488188977,
          "duration": 0.056250000000005684
        },
        {
          "name": "B5",
          "midi": 83,
          "time": 73.80000000000001,
          "velocity": 0.4566929133858268,
          "duration": 0.056250000000005684
        },
        {
          "name": "G#2",
          "midi": 44,
          "time": 73.80000000000001,
          "velocity": 0.984251968503937,
          "duration": 0.056250000000005684
        },
        {
          "name": "B3",
          "midi": 59,
          "time": 73.80000000000001,
          "velocity": 0.9133858267716536,
          "duration": 0.056250000000005684
        },
        {
          "name": "C2",
          "midi": 36,
          "time": 74.20000000000002,
          "velocity": 0.7874015748031497,
          "duration": 0.056250000000005684
        },
        {
          "name": "B3",
          "midi": 59,
          "time": 74.20000000000002,
          "velocity": 0.7086614173228346,
          "duration": 0.056250000000005684
        },
        {
          "name": "B5",
          "midi": 83,
          "time": 74.40000000000002,
          "velocity": 0.4566929133858268,
          "duration": 0.056250000000005684
        },
        {
          "name": "C2",
          "midi": 36,
          "time": 74.40000000000002,
          "velocity": 0.7874015748031497,
          "duration": 0.056250000000005684
        },
        {
          "name": "B3",
          "midi": 59,
          "time": 74.40000000000002,
          "velocity": 0.7401574803149606,
          "duration": 0.056250000000005684
        },
        {
          "name": "B3",
          "midi": 59,
          "time": 74.80000000000003,
          "velocity": 0.7795275590551181,
          "duration": 0.056250000000005684
        },
        {
          "name": "B3",
          "midi": 59,
          "time": 75.00000000000003,
          "velocity": 0.8582677165354331,
          "duration": 0.056250000000005684
        },
        {
          "name": "B5",
          "midi": 83,
          "time": 75.00000000000003,
          "velocity": 0.44881889763779526,
          "duration": 0.056250000000005684
        },
        {
          "name": "C2",
          "midi": 36,
          "time": 75.00000000000003,
          "velocity": 0.7874015748031497,
          "duration": 0.056250000000005684
        },
        {
          "name": "C#2",
          "midi": 37,
          "time": 75.00000000000003,
          "velocity": 0.6456692913385826,
          "duration": 0.056250000000005684
        },
        {
          "name": "G#2",
          "midi": 44,
          "time": 75.00000000000003,
          "velocity": 0.952755905511811,
          "duration": 0.056250000000005684
        },
        {
          "name": "B3",
          "midi": 59,
          "time": 75.40000000000003,
          "velocity": 0.8346456692913385,
          "duration": 0.056250000000005684
        },
        {
          "name": "B5",
          "midi": 83,
          "time": 75.60000000000004,
          "velocity": 0.44881889763779526,
          "duration": 0.056250000000005684
        },
        {
          "name": "C2",
          "midi": 36,
          "time": 75.60000000000004,
          "velocity": 0.7874015748031497,
          "duration": 0.056250000000005684
        },
        {
          "name": "B3",
          "midi": 59,
          "time": 75.60000000000004,
          "velocity": 0.8503937007874016,
          "duration": 0.056250000000005684
        },
        {
          "name": "C#2",
          "midi": 37,
          "time": 76.20000000000005,
          "velocity": 0.6614173228346457,
          "duration": 0.056250000000005684
        },
        {
          "name": "B5",
          "midi": 83,
          "time": 76.20000000000005,
          "velocity": 0.44881889763779526,
          "duration": 0.056250000000005684
        },
        {
          "name": "B3",
          "midi": 59,
          "time": 76.20000000000005,
          "velocity": 0.8818897637795275,
          "duration": 0.056250000000005684
        },
        {
          "name": "G#2",
          "midi": 44,
          "time": 76.20000000000005,
          "velocity": 0.9921259842519685,
          "duration": 0.056250000000005684
        },
        {
          "name": "C2",
          "midi": 36,
          "time": 76.60000000000005,
          "velocity": 0.7874015748031497,
          "duration": 0.056250000000005684
        },
        {
          "name": "B3",
          "midi": 59,
          "time": 76.60000000000005,
          "velocity": 0.8267716535433071,
          "duration": 0.056250000000005684
        },
        {
          "name": "B3",
          "midi": 59,
          "time": 76.80000000000005,
          "velocity": 0.8267716535433071,
          "duration": 0.056250000000005684
        },
        {
          "name": "B5",
          "midi": 83,
          "time": 76.80000000000005,
          "velocity": 0.4330708661417323,
          "duration": 0.056250000000005684
        },
        {
          "name": "C2",
          "midi": 36,
          "time": 76.80000000000005,
          "velocity": 0.7874015748031497,
          "duration": 0.056250000000005684
        },
        {
          "name": "C2",
          "midi": 36,
          "time": 77.20000000000006,
          "velocity": 0.7874015748031497,
          "duration": 0.056250000000005684
        },
        {
          "name": "B5",
          "midi": 83,
          "time": 77.40000000000006,
          "velocity": 0.44881889763779526,
          "duration": 0.056250000000005684
        },
        {
          "name": "C2",
          "midi": 36,
          "time": 77.40000000000006,
          "velocity": 0.7874015748031497,
          "duration": 0.056250000000005684
        },
        {
          "name": "B3",
          "midi": 59,
          "time": 77.40000000000006,
          "velocity": 0.8740157480314961,
          "duration": 0.056250000000005684
        },
        {
          "name": "C#2",
          "midi": 37,
          "time": 77.40000000000006,
          "velocity": 0.7322834645669292,
          "duration": 0.056250000000005684
        },
        {
          "name": "G#2",
          "midi": 44,
          "time": 77.40000000000006,
          "velocity": 0.9921259842519685,
          "duration": 0.056250000000005684
        },
        {
          "name": "B3",
          "midi": 59,
          "time": 77.80000000000007,
          "velocity": 0.7322834645669292,
          "duration": 0.056250000000005684
        },
        {
          "name": "B3",
          "midi": 59,
          "time": 78.00000000000007,
          "velocity": 0.84251968503937,
          "duration": 0.056250000000005684
        },
        {
          "name": "B5",
          "midi": 83,
          "time": 78.00000000000007,
          "velocity": 0.44881889763779526,
          "duration": 0.056250000000005684
        },
        {
          "name": "C2",
          "midi": 36,
          "time": 78.00000000000007,
          "velocity": 0.7874015748031497,
          "duration": 0.056250000000005684
        },
        {
          "name": "B3",
          "midi": 59,
          "time": 78.60000000000008,
          "velocity": 0.8976377952755905,
          "duration": 0.056250000000005684
        },
        {
          "name": "C#2",
          "midi": 37,
          "time": 78.60000000000008,
          "velocity": 0.7086614173228346,
          "duration": 0.056250000000005684
        },
        {
          "name": "B5",
          "midi": 83,
          "time": 78.60000000000008,
          "velocity": 0.4409448818897638,
          "duration": 0.056250000000005684
        },
        {
          "name": "G#2",
          "midi": 44,
          "time": 78.60000000000008,
          "velocity": 0.9921259842519685,
          "duration": 0.056250000000005684
        },
        {
          "name": "B3",
          "midi": 59,
          "time": 79.00000000000009,
          "velocity": 0.7086614173228346,
          "duration": 0.056250000000005684
        },
        {
          "name": "C2",
          "midi": 36,
          "time": 79.00000000000009,
          "velocity": 0.7874015748031497,
          "duration": 0.056250000000005684
        },
        {
          "name": "B3",
          "midi": 59,
          "time": 79.20000000000009,
          "velocity": 0.84251968503937,
          "duration": 0.056250000000005684
        },
        {
          "name": "B5",
          "midi": 83,
          "time": 79.20000000000009,
          "velocity": 0.44881889763779526,
          "duration": 0.056250000000005684
        },
        {
          "name": "C2",
          "midi": 36,
          "time": 79.20000000000009,
          "velocity": 0.7874015748031497,
          "duration": 0.056250000000005684
        },
        {
          "name": "B3",
          "midi": 59,
          "time": 79.6000000000001,
          "velocity": 0.8582677165354331,
          "duration": 0.056250000000005684
        },
        {
          "name": "C#2",
          "midi": 37,
          "time": 79.6000000000001,
          "velocity": 0.7244094488188977,
          "duration": 0.056250000000005684
        },
        {
          "name": "B3",
          "midi": 59,
          "time": 79.8000000000001,
          "velocity": 0.8818897637795275,
          "duration": 0.056250000000005684
        },
        {
          "name": "B5",
          "midi": 83,
          "time": 79.8000000000001,
          "velocity": 0.44881889763779526,
          "duration": 0.056250000000005684
        },
        {
          "name": "C2",
          "midi": 36,
          "time": 79.8000000000001,
          "velocity": 0.7874015748031497,
          "duration": 0.056250000000005684
        },
        {
          "name": "G#2",
          "midi": 44,
          "time": 79.8000000000001,
          "velocity": 0.9921259842519685,
          "duration": 0.056250000000005684
        },
        {
          "name": "B3",
          "midi": 59,
          "time": 80.2000000000001,
          "velocity": 0.7559055118110236,
          "duration": 0.056250000000005684
        },
        {
          "name": "C#2",
          "midi": 37,
          "time": 80.2000000000001,
          "velocity": 0.7322834645669292,
          "duration": 0.056250000000005684
        },
        {
          "name": "B3",
          "midi": 59,
          "time": 80.4000000000001,
          "velocity": 0.8582677165354331,
          "duration": 0.056250000000005684
        },
        {
          "name": "B5",
          "midi": 83,
          "time": 80.4000000000001,
          "velocity": 0.44881889763779526,
          "duration": 0.056250000000005684
        },
        {
          "name": "C2",
          "midi": 36,
          "time": 80.4000000000001,
          "velocity": 0.7874015748031497,
          "duration": 0.056250000000005684
        },
        {
          "name": "C#2",
          "midi": 37,
          "time": 81.00000000000011,
          "velocity": 0.7559055118110236,
          "duration": 0.056250000000005684
        },
        {
          "name": "B3",
          "midi": 59,
          "time": 81.00000000000011,
          "velocity": 0.9133858267716536,
          "duration": 0.056250000000005684
        },
        {
          "name": "B5",
          "midi": 83,
          "time": 81.00000000000011,
          "velocity": 0.44881889763779526,
          "duration": 0.056250000000005684
        },
        {
          "name": "G#2",
          "midi": 44,
          "time": 81.00000000000011,
          "velocity": 0.9921259842519685,
          "duration": 0.056250000000005684
        },
        {
          "name": "B3",
          "midi": 59,
          "time": 81.60000000000012,
          "velocity": 0.8503937007874016,
          "duration": 0.056250000000005684
        },
        {
          "name": "B5",
          "midi": 83,
          "time": 81.60000000000012,
          "velocity": 0.4566929133858268,
          "duration": 0.056250000000005684
        },
        {
          "name": "C2",
          "midi": 36,
          "time": 81.60000000000012,
          "velocity": 0.7874015748031497,
          "duration": 0.056250000000005684
        },
        {
          "name": "C#2",
          "midi": 37,
          "time": 82.20000000000013,
          "velocity": 0.7007874015748031,
          "duration": 0.056250000000005684
        },
        {
          "name": "B3",
          "midi": 59,
          "time": 82.20000000000013,
          "velocity": 0.9212598425196851,
          "duration": 0.056250000000005684
        },
        {
          "name": "B5",
          "midi": 83,
          "time": 82.20000000000013,
          "velocity": 0.44881889763779526,
          "duration": 0.056250000000005684
        },
        {
          "name": "G#2",
          "midi": 44,
          "time": 82.20000000000013,
          "velocity": 0.9921259842519685,
          "duration": 0.056250000000005684
        },
        {
          "name": "B3",
          "midi": 59,
          "time": 82.60000000000014,
          "velocity": 0.8267716535433071,
          "duration": 0.056250000000005684
        },
        {
          "name": "C2",
          "midi": 36,
          "time": 82.60000000000014,
          "velocity": 0.7874015748031497,
          "duration": 0.056250000000005684
        },
        {
          "name": "B3",
          "midi": 59,
          "time": 82.80000000000014,
          "velocity": 0.8346456692913385,
          "duration": 0.056250000000005684
        },
        {
          "name": "B5",
          "midi": 83,
          "time": 82.80000000000014,
          "velocity": 0.44881889763779526,
          "duration": 0.056250000000005684
        },
        {
          "name": "C2",
          "midi": 36,
          "time": 82.80000000000014,
          "velocity": 0.7874015748031497,
          "duration": 0.056250000000005684
        },
        {
          "name": "B3",
          "midi": 59,
          "time": 83.40000000000015,
          "velocity": 0.9133858267716536,
          "duration": 0.056250000000005684
        },
        {
          "name": "C#2",
          "midi": 37,
          "time": 83.40000000000015,
          "velocity": 0.7007874015748031,
          "duration": 0.056250000000005684
        },
        {
          "name": "B5",
          "midi": 83,
          "time": 83.40000000000015,
          "velocity": 0.44881889763779526,
          "duration": 0.056250000000005684
        },
        {
          "name": "G#2",
          "midi": 44,
          "time": 83.40000000000015,
          "velocity": 0.9921259842519685,
          "duration": 0.056250000000005684
        },
        {
          "name": "C2",
          "midi": 36,
          "time": 83.60000000000015,
          "velocity": 0.7874015748031497,
          "duration": 0.056250000000005684
        },
        {
          "name": "B3",
          "midi": 59,
          "time": 83.80000000000015,
          "velocity": 0.8346456692913385,
          "duration": 0.056250000000005684
        },
        {
          "name": "C2",
          "midi": 36,
          "time": 83.80000000000015,
          "velocity": 0.7874015748031497,
          "duration": 0.056250000000005684
        },
        {
          "name": "B3",
          "midi": 59,
          "time": 84.00000000000016,
          "velocity": 0.7322834645669292,
          "duration": 0.056250000000005684
        },
        {
          "name": "B5",
          "midi": 83,
          "time": 84.00000000000016,
          "velocity": 0.44881889763779526,
          "duration": 0.056250000000005684
        },
        {
          "name": "C2",
          "midi": 36,
          "time": 84.00000000000016,
          "velocity": 0.7874015748031497,
          "duration": 0.056250000000005684
        },
        {
          "name": "B3",
          "midi": 59,
          "time": 84.60000000000016,
          "velocity": 0.889763779527559,
          "duration": 0.056250000000005684
        },
        {
          "name": "C#2",
          "midi": 37,
          "time": 84.60000000000016,
          "velocity": 0.7559055118110236,
          "duration": 0.056250000000005684
        },
        {
          "name": "B5",
          "midi": 83,
          "time": 84.60000000000016,
          "velocity": 0.44881889763779526,
          "duration": 0.056250000000005684
        },
        {
          "name": "C2",
          "midi": 36,
          "time": 84.60000000000016,
          "velocity": 0.7874015748031497,
          "duration": 0.056250000000005684
        },
        {
          "name": "G#2",
          "midi": 44,
          "time": 84.60000000000016,
          "velocity": 0.9921259842519685,
          "duration": 0.056250000000005684
        },
        {
          "name": "B3",
          "midi": 59,
          "time": 85.20000000000017,
          "velocity": 0.8976377952755905,
          "duration": 0.056250000000005684
        },
        {
          "name": "B5",
          "midi": 83,
          "time": 85.20000000000017,
          "velocity": 0.44881889763779526,
          "duration": 0.056250000000005684
        },
        {
          "name": "C2",
          "midi": 36,
          "time": 85.20000000000017,
          "velocity": 0.7874015748031497,
          "duration": 0.056250000000005684
        },
        {
          "name": "B3",
          "midi": 59,
          "time": 85.80000000000018,
          "velocity": 0.8976377952755905,
          "duration": 0.056250000000005684
        },
        {
          "name": "B5",
          "midi": 83,
          "time": 85.80000000000018,
          "velocity": 0.4409448818897638,
          "duration": 0.056250000000005684
        },
        {
          "name": "G#2",
          "midi": 44,
          "time": 85.80000000000018,
          "velocity": 0.984251968503937,
          "duration": 0.056250000000005684
        },
        {
          "name": "C#2",
          "midi": 37,
          "time": 85.80000000000018,
          "velocity": 0.7244094488188977,
          "duration": 0.056250000000005684
        },
        {
          "name": "B3",
          "midi": 59,
          "time": 86.20000000000019,
          "velocity": 0.8267716535433071,
          "duration": 0.056250000000005684
        },
        {
          "name": "C2",
          "midi": 36,
          "time": 86.20000000000019,
          "velocity": 0.7874015748031497,
          "duration": 0.056250000000005684
        },
        {
          "name": "B3",
          "midi": 59,
          "time": 86.40000000000019,
          "velocity": 0.8582677165354331,
          "duration": 0.056250000000005684
        },
        {
          "name": "B5",
          "midi": 83,
          "time": 86.40000000000019,
          "velocity": 0.44881889763779526,
          "duration": 0.056250000000005684
        },
        {
          "name": "C2",
          "midi": 36,
          "time": 86.40000000000019,
          "velocity": 0.7874015748031497,
          "duration": 0.056250000000005684
        },
        {
          "name": "C#2",
          "midi": 37,
          "time": 87.0000000000002,
          "velocity": 0.7322834645669292,
          "duration": 0.056250000000005684
        },
        {
          "name": "B3",
          "midi": 59,
          "time": 87.0000000000002,
          "velocity": 0.9133858267716536,
          "duration": 0.056250000000005684
        },
        {
          "name": "B5",
          "midi": 83,
          "time": 87.0000000000002,
          "velocity": 0.44881889763779526,
          "duration": 0.056250000000005684
        },
        {
          "name": "G#2",
          "midi": 44,
          "time": 87.0000000000002,
          "velocity": 0.9921259842519685,
          "duration": 0.056250000000005684
        },
        {
          "name": "B5",
          "midi": 83,
          "time": 87.60000000000021,
          "velocity": 0.44881889763779526,
          "duration": 0.056250000000005684
        },
        {
          "name": "C2",
          "midi": 36,
          "time": 87.60000000000021,
          "velocity": 0.7874015748031497,
          "duration": 0.056250000000005684
        },
        {
          "name": "B3",
          "midi": 59,
          "time": 87.60000000000021,
          "velocity": 0.8818897637795275,
          "duration": 0.056250000000005684
        },
        {
          "name": "B3",
          "midi": 59,
          "time": 88.20000000000022,
          "velocity": 0.889763779527559,
          "duration": 0.056250000000005684
        },
        {
          "name": "C#2",
          "midi": 37,
          "time": 88.20000000000022,
          "velocity": 0.6692913385826772,
          "duration": 0.056250000000005684
        },
        {
          "name": "B5",
          "midi": 83,
          "time": 88.20000000000022,
          "velocity": 0.44881889763779526,
          "duration": 0.056250000000005684
        },
        {
          "name": "G#2",
          "midi": 44,
          "time": 88.20000000000022,
          "velocity": 0.984251968503937,
          "duration": 0.056250000000005684
        },
        {
          "name": "C2",
          "midi": 36,
          "time": 88.60000000000022,
          "velocity": 0.7874015748031497,
          "duration": 0.056250000000005684
        },
        {
          "name": "B3",
          "midi": 59,
          "time": 88.60000000000022,
          "velocity": 0.8582677165354331,
          "duration": 0.056250000000005684
        },
        {
          "name": "B5",
          "midi": 83,
          "time": 88.80000000000022,
          "velocity": 0.44881889763779526,
          "duration": 0.056250000000005684
        },
        {
          "name": "C2",
          "midi": 36,
          "time": 88.80000000000022,
          "velocity": 0.7874015748031497,
          "duration": 0.056250000000005684
        },
        {
          "name": "B3",
          "midi": 59,
          "time": 88.80000000000022,
          "velocity": 0.8503937007874016,
          "duration": 0.056250000000005684
        },
        {
          "name": "C#2",
          "midi": 37,
          "time": 89.20000000000023,
          "velocity": 0.6299212598425197,
          "duration": 0.056250000000005684
        },
        {
          "name": "B5",
          "midi": 83,
          "time": 89.40000000000023,
          "velocity": 0.44881889763779526,
          "duration": 0.056250000000005684
        },
        {
          "name": "C2",
          "midi": 36,
          "time": 89.40000000000023,
          "velocity": 0.7874015748031497,
          "duration": 0.056250000000005684
        },
        {
          "name": "B3",
          "midi": 59,
          "time": 89.40000000000023,
          "velocity": 0.9212598425196851,
          "duration": 0.056250000000005684
        },
        {
          "name": "G#2",
          "midi": 44,
          "time": 89.40000000000023,
          "velocity": 0.968503937007874,
          "duration": 0.056250000000005684
        },
        {
          "name": "C#2",
          "midi": 37,
          "time": 89.80000000000024,
          "velocity": 0.7086614173228346,
          "duration": 0.056250000000005684
        },
        {
          "name": "B3",
          "midi": 59,
          "time": 90.00000000000024,
          "velocity": 0.8976377952755905,
          "duration": 0.056250000000005684
        },
        {
          "name": "B5",
          "midi": 83,
          "time": 90.00000000000024,
          "velocity": 0.44881889763779526,
          "duration": 0.056250000000005684
        },
        {
          "name": "C2",
          "midi": 36,
          "time": 90.00000000000024,
          "velocity": 0.7874015748031497,
          "duration": 0.056250000000005684
        },
        {
          "name": "B3",
          "midi": 59,
          "time": 90.60000000000025,
          "velocity": 0.889763779527559,
          "duration": 0.056250000000005684
        },
        {
          "name": "B5",
          "midi": 83,
          "time": 90.60000000000025,
          "velocity": 0.4409448818897638,
          "duration": 0.056250000000005684
        },
        {
          "name": "C#2",
          "midi": 37,
          "time": 90.60000000000025,
          "velocity": 0.7007874015748031,
          "duration": 0.056250000000005684
        },
        {
          "name": "G#2",
          "midi": 44,
          "time": 90.60000000000025,
          "velocity": 0.968503937007874,
          "duration": 0.056250000000005684
        },
        {
          "name": "C2",
          "midi": 36,
          "time": 91.00000000000026,
          "velocity": 0.7874015748031497,
          "duration": 0.056250000000005684
        },
        {
          "name": "B3",
          "midi": 59,
          "time": 91.00000000000026,
          "velocity": 0.889763779527559,
          "duration": 0.056250000000005684
        },
        {
          "name": "B5",
          "midi": 83,
          "time": 91.20000000000026,
          "velocity": 0.4409448818897638,
          "duration": 0.056250000000005684
        },
        {
          "name": "C2",
          "midi": 36,
          "time": 91.20000000000026,
          "velocity": 0.7874015748031497,
          "duration": 0.056250000000005684
        },
        {
          "name": "B3",
          "midi": 59,
          "time": 91.20000000000026,
          "velocity": 0.8582677165354331,
          "duration": 0.056250000000005684
        },
        {
          "name": "B5",
          "midi": 83,
          "time": 91.80000000000027,
          "velocity": 0.44881889763779526,
          "duration": 0.056250000000005684
        },
        {
          "name": "C2",
          "midi": 36,
          "time": 91.80000000000027,
          "velocity": 0.7874015748031497,
          "duration": 0.056250000000005684
        },
        {
          "name": "B3",
          "midi": 59,
          "time": 91.80000000000027,
          "velocity": 0.9212598425196851,
          "duration": 0.056250000000005684
        },
        {
          "name": "C#2",
          "midi": 37,
          "time": 91.80000000000027,
          "velocity": 0.7244094488188977,
          "duration": 0.056250000000005684
        },
        {
          "name": "G#2",
          "midi": 44,
          "time": 91.80000000000027,
          "velocity": 0.9921259842519685,
          "duration": 0.056250000000005684
        },
        {
          "name": "B3",
          "midi": 59,
          "time": 92.20000000000027,
          "velocity": 0.8110236220472441,
          "duration": 0.056250000000005684
        },
        {
          "name": "B3",
          "midi": 59,
          "time": 92.40000000000028,
          "velocity": 0.8582677165354331,
          "duration": 0.056250000000005684
        },
        {
          "name": "B5",
          "midi": 83,
          "time": 92.40000000000028,
          "velocity": 0.44881889763779526,
          "duration": 0.056250000000005684
        },
        {
          "name": "C2",
          "midi": 36,
          "time": 92.40000000000028,
          "velocity": 0.7874015748031497,
          "duration": 0.056250000000005684
        },
        {
          "name": "C#2",
          "midi": 37,
          "time": 93.00000000000028,
          "velocity": 0.7165354330708661,
          "duration": 0.056250000000005684
        },
        {
          "name": "B5",
          "midi": 83,
          "time": 93.00000000000028,
          "velocity": 0.4566929133858268,
          "duration": 0.056250000000005684
        },
        {
          "name": "G#2",
          "midi": 44,
          "time": 93.00000000000028,
          "velocity": 0.9212598425196851,
          "duration": 0.056250000000005684
        },
        {
          "name": "B3",
          "midi": 59,
          "time": 93.00000000000028,
          "velocity": 0.9133858267716536,
          "duration": 0.056250000000005684
        },
        {
          "name": "B3",
          "midi": 59,
          "time": 93.40000000000029,
          "velocity": 0.7165354330708661,
          "duration": 0.056250000000005684
        },
        {
          "name": "C2",
          "midi": 36,
          "time": 93.40000000000029,
          "velocity": 0.7874015748031497,
          "duration": 0.056250000000005684
        },
        {
          "name": "B3",
          "midi": 59,
          "time": 93.60000000000029,
          "velocity": 0.84251968503937,
          "duration": 0.056250000000005684
        },
        {
          "name": "B5",
          "midi": 83,
          "time": 93.60000000000029,
          "velocity": 0.44881889763779526,
          "duration": 0.056250000000005684
        },
        {
          "name": "C2",
          "midi": 36,
          "time": 93.60000000000029,
          "velocity": 0.7874015748031497,
          "duration": 0.056250000000005684
        },
        {
          "name": "B3",
          "midi": 59,
          "time": 94.0000000000003,
          "velocity": 0.8740157480314961,
          "duration": 0.056250000000005684
        },
        {
          "name": "G#2",
          "midi": 44,
          "time": 94.2000000000003,
          "velocity": 0.9921259842519685,
          "duration": 0.056250000000005684
        },
        {
          "name": "B5",
          "midi": 83,
          "time": 94.2000000000003,
          "velocity": 0.44881889763779526,
          "duration": 0.056250000000005684
        },
        {
          "name": "C2",
          "midi": 36,
          "time": 94.2000000000003,
          "velocity": 0.7874015748031497,
          "duration": 0.056250000000005684
        },
        {
          "name": "B3",
          "midi": 59,
          "time": 94.2000000000003,
          "velocity": 0.9212598425196851,
          "duration": 0.056250000000005684
        },
        {
          "name": "C#2",
          "midi": 37,
          "time": 94.2000000000003,
          "velocity": 0.7007874015748031,
          "duration": 0.056250000000005684
        },
        {
          "name": "B3",
          "midi": 59,
          "time": 94.6000000000003,
          "velocity": 0.7165354330708661,
          "duration": 0.056250000000005684
        },
        {
          "name": "B5",
          "midi": 83,
          "time": 94.80000000000031,
          "velocity": 0.44881889763779526,
          "duration": 0.056250000000005684
        },
        {
          "name": "C2",
          "midi": 36,
          "time": 94.80000000000031,
          "velocity": 0.7874015748031497,
          "duration": 0.056250000000005684
        },
        {
          "name": "B3",
          "midi": 59,
          "time": 94.80000000000031,
          "velocity": 0.905511811023622,
          "duration": 0.056250000000005684
        },
        {
          "name": "B5",
          "midi": 83,
          "time": 95.40000000000032,
          "velocity": 0.44881889763779526,
          "duration": 0.056250000000005684
        },
        {
          "name": "B3",
          "midi": 59,
          "time": 95.40000000000032,
          "velocity": 0.9212598425196851,
          "duration": 0.056250000000005684
        },
        {
          "name": "C#2",
          "midi": 37,
          "time": 95.40000000000032,
          "velocity": 0.6456692913385826,
          "duration": 0.056250000000005684
        },
        {
          "name": "G#2",
          "midi": 44,
          "time": 95.40000000000032,
          "velocity": 0.9921259842519685,
          "duration": 0.056250000000005684
        },
        {
          "name": "B3",
          "midi": 59,
          "time": 95.80000000000032,
          "velocity": 0.8582677165354331,
          "duration": 0.056250000000005684
        },
        {
          "name": "C2",
          "midi": 36,
          "time": 95.80000000000032,
          "velocity": 0.7874015748031497,
          "duration": 0.056250000000005684
        },
        {
          "name": "B3",
          "midi": 59,
          "time": 96.00000000000033,
          "velocity": 0.8267716535433071,
          "duration": 0.056250000000005684
        },
        {
          "name": "B5",
          "midi": 83,
          "time": 96.00000000000033,
          "velocity": 0.44881889763779526,
          "duration": 0.056250000000005684
        },
        {
          "name": "C2",
          "midi": 36,
          "time": 96.00000000000033,
          "velocity": 0.7874015748031497,
          "duration": 0.056250000000005684
        },
        {
          "name": "B3",
          "midi": 59,
          "time": 96.60000000000034,
          "velocity": 0.9212598425196851,
          "duration": 0.056250000000005684
        },
        {
          "name": "C#2",
          "midi": 37,
          "time": 96.60000000000034,
          "velocity": 0.6929133858267716,
          "duration": 0.056250000000005684
        },
        {
          "name": "G#2",
          "midi": 44,
          "time": 96.60000000000034,
          "velocity": 0.937007874015748,
          "duration": 0.056250000000005684
        },
        {
          "name": "B5",
          "midi": 83,
          "time": 96.60000000000034,
          "velocity": 0.44881889763779526,
          "duration": 0.056250000000005684
        },
        {
          "name": "B3",
          "midi": 59,
          "time": 97.00000000000034,
          "velocity": 0.84251968503937,
          "duration": 0.056250000000005684
        },
        {
          "name": "B3",
          "midi": 59,
          "time": 97.20000000000034,
          "velocity": 0.84251968503937,
          "duration": 0.056250000000005684
        },
        {
          "name": "B5",
          "midi": 83,
          "time": 97.20000000000034,
          "velocity": 0.4566929133858268,
          "duration": 0.056250000000005684
        },
        {
          "name": "C2",
          "midi": 36,
          "time": 97.20000000000034,
          "velocity": 0.7874015748031497,
          "duration": 0.056250000000005684
        },
        {
          "name": "B3",
          "midi": 59,
          "time": 97.80000000000035,
          "velocity": 0.9133858267716536,
          "duration": 0.056250000000005684
        },
        {
          "name": "C#2",
          "midi": 37,
          "time": 97.80000000000035,
          "velocity": 0.7086614173228346,
          "duration": 0.056250000000005684
        },
        {
          "name": "B5",
          "midi": 83,
          "time": 97.80000000000035,
          "velocity": 0.44881889763779526,
          "duration": 0.056250000000005684
        },
        {
          "name": "C2",
          "midi": 36,
          "time": 97.80000000000035,
          "velocity": 0.7874015748031497,
          "duration": 0.056250000000005684
        },
        {
          "name": "G#2",
          "midi": 44,
          "time": 97.80000000000035,
          "velocity": 0.968503937007874,
          "duration": 0.056250000000005684
        },
        {
          "name": "B3",
          "midi": 59,
          "time": 98.40000000000036,
          "velocity": 0.9133858267716536,
          "duration": 0.056250000000005684
        },
        {
          "name": "B5",
          "midi": 83,
          "time": 98.40000000000036,
          "velocity": 0.44881889763779526,
          "duration": 0.056250000000005684
        },
        {
          "name": "C2",
          "midi": 36,
          "time": 98.40000000000036,
          "velocity": 0.7874015748031497,
          "duration": 0.056250000000005684
        },
        {
          "name": "B3",
          "midi": 59,
          "time": 99.00000000000037,
          "velocity": 0.9212598425196851,
          "duration": 0.056250000000005684
        },
        {
          "name": "G#2",
          "midi": 44,
          "time": 99.00000000000037,
          "velocity": 0.9921259842519685,
          "duration": 0.056250000000005684
        },
        {
          "name": "B5",
          "midi": 83,
          "time": 99.00000000000037,
          "velocity": 0.44881889763779526,
          "duration": 0.056250000000005684
        },
        {
          "name": "C2",
          "midi": 36,
          "time": 99.00000000000037,
          "velocity": 0.7874015748031497,
          "duration": 0.056250000000005684
        },
        {
          "name": "C#2",
          "midi": 37,
          "time": 99.00000000000037,
          "velocity": 0.7007874015748031,
          "duration": 0.056250000000005684
        },
        {
          "name": "B3",
          "midi": 59,
          "time": 99.40000000000038,
          "velocity": 0.8661417322834646,
          "duration": 0.056250000000005684
        },
        {
          "name": "B3",
          "midi": 59,
          "time": 99.60000000000038,
          "velocity": 0.905511811023622,
          "duration": 0.056250000000005684
        },
        {
          "name": "B5",
          "midi": 83,
          "time": 99.60000000000038,
          "velocity": 0.4566929133858268,
          "duration": 0.056250000000005684
        },
        {
          "name": "C2",
          "midi": 36,
          "time": 99.60000000000038,
          "velocity": 0.7874015748031497,
          "duration": 0.056250000000005684
        },
        {
          "name": "B3",
          "midi": 59,
          "time": 100.20000000000039,
          "velocity": 0.9133858267716536,
          "duration": 0.056250000000005684
        },
        {
          "name": "B5",
          "midi": 83,
          "time": 100.20000000000039,
          "velocity": 0.4566929133858268,
          "duration": 0.056250000000005684
        },
        {
          "name": "G#2",
          "midi": 44,
          "time": 100.20000000000039,
          "velocity": 0.9921259842519685,
          "duration": 0.056250000000005684
        },
        {
          "name": "C#2",
          "midi": 37,
          "time": 100.20000000000039,
          "velocity": 0.7244094488188977,
          "duration": 0.056250000000005684
        },
        {
          "name": "C2",
          "midi": 36,
          "time": 100.60000000000039,
          "velocity": 0.7874015748031497,
          "duration": 0.056250000000005684
        },
        {
          "name": "B3",
          "midi": 59,
          "time": 100.60000000000039,
          "velocity": 0.84251968503937,
          "duration": 0.056250000000005684
        },
        {
          "name": "B5",
          "midi": 83,
          "time": 100.8000000000004,
          "velocity": 0.44881889763779526,
          "duration": 0.056250000000005684
        },
        {
          "name": "C2",
          "midi": 36,
          "time": 100.8000000000004,
          "velocity": 0.7874015748031497,
          "duration": 0.056250000000005684
        },
        {
          "name": "B3",
          "midi": 59,
          "time": 100.8000000000004,
          "velocity": 0.84251968503937,
          "duration": 0.056250000000005684
        },
        {
          "name": "G#2",
          "midi": 44,
          "time": 101.4000000000004,
          "velocity": 0.9921259842519685,
          "duration": 0.056250000000005684
        },
        {
          "name": "C#2",
          "midi": 37,
          "time": 101.4000000000004,
          "velocity": 0.7165354330708661,
          "duration": 0.056250000000005684
        },
        {
          "name": "B5",
          "midi": 83,
          "time": 101.4000000000004,
          "velocity": 0.4409448818897638,
          "duration": 0.056250000000005684
        },
        {
          "name": "B3",
          "midi": 59,
          "time": 101.4000000000004,
          "velocity": 0.9133858267716536,
          "duration": 0.056250000000005684
        },
        {
          "name": "B3",
          "midi": 59,
          "time": 101.80000000000041,
          "velocity": 0.8267716535433071,
          "duration": 0.056250000000005684
        },
        {
          "name": "B3",
          "midi": 59,
          "time": 102.00000000000041,
          "velocity": 0.8503937007874016,
          "duration": 0.056250000000005684
        },
        {
          "name": "B5",
          "midi": 83,
          "time": 102.00000000000041,
          "velocity": 0.44881889763779526,
          "duration": 0.056250000000005684
        },
        {
          "name": "C2",
          "midi": 36,
          "time": 102.00000000000041,
          "velocity": 0.7874015748031497,
          "duration": 0.056250000000005684
        },
        {
          "name": "G#2",
          "midi": 44,
          "time": 102.60000000000042,
          "velocity": 0.9921259842519685,
          "duration": 0.056250000000005684
        },
        {
          "name": "B3",
          "midi": 59,
          "time": 102.60000000000042,
          "velocity": 0.9133858267716536,
          "duration": 0.056250000000005684
        },
        {
          "name": "B5",
          "midi": 83,
          "time": 102.60000000000042,
          "velocity": 0.4566929133858268,
          "duration": 0.056250000000005684
        },
        {
          "name": "C#2",
          "midi": 37,
          "time": 102.60000000000042,
          "velocity": 0.7007874015748031,
          "duration": 0.056250000000005684
        },
        {
          "name": "C2",
          "midi": 36,
          "time": 103.00000000000043,
          "velocity": 0.7874015748031497,
          "duration": 0.056250000000005684
        },
        {
          "name": "B3",
          "midi": 59,
          "time": 103.20000000000043,
          "velocity": 0.8976377952755905,
          "duration": 0.056250000000005684
        },
        {
          "name": "B5",
          "midi": 83,
          "time": 103.20000000000043,
          "velocity": 0.44881889763779526,
          "duration": 0.056250000000005684
        },
        {
          "name": "C2",
          "midi": 36,
          "time": 103.20000000000043,
          "velocity": 0.7874015748031497,
          "duration": 0.056250000000005684
        },
        {
          "name": "C#2",
          "midi": 37,
          "time": 103.60000000000043,
          "velocity": 0.7401574803149606,
          "duration": 0.056250000000005684
        },
        {
          "name": "B3",
          "midi": 59,
          "time": 103.80000000000044,
          "velocity": 0.9133858267716536,
          "duration": 0.056250000000005684
        },
        {
          "name": "B5",
          "midi": 83,
          "time": 103.80000000000044,
          "velocity": 0.4566929133858268,
          "duration": 0.056250000000005684
        },
        {
          "name": "C2",
          "midi": 36,
          "time": 103.80000000000044,
          "velocity": 0.7874015748031497,
          "duration": 0.056250000000005684
        },
        {
          "name": "G#2",
          "midi": 44,
          "time": 103.80000000000044,
          "velocity": 0.9921259842519685,
          "duration": 0.056250000000005684
        },
        {
          "name": "B3",
          "midi": 59,
          "time": 104.20000000000044,
          "velocity": 0.8661417322834646,
          "duration": 0.056250000000005684
        },
        {
          "name": "C#2",
          "midi": 37,
          "time": 104.20000000000044,
          "velocity": 0.7795275590551181,
          "duration": 0.056250000000005684
        },
        {
          "name": "B3",
          "midi": 59,
          "time": 104.40000000000045,
          "velocity": 0.8740157480314961,
          "duration": 0.056250000000005684
        },
        {
          "name": "B5",
          "midi": 83,
          "time": 104.40000000000045,
          "velocity": 0.4566929133858268,
          "duration": 0.056250000000005684
        },
        {
          "name": "C2",
          "midi": 36,
          "time": 104.40000000000045,
          "velocity": 0.7874015748031497,
          "duration": 0.056250000000005684
        },
        {
          "name": "B3",
          "midi": 59,
          "time": 105.00000000000045,
          "velocity": 0.9212598425196851,
          "duration": 0.056250000000005684
        },
        {
          "name": "G#2",
          "midi": 44,
          "time": 105.00000000000045,
          "velocity": 0.937007874015748,
          "duration": 0.056250000000005684
        },
        {
          "name": "B5",
          "midi": 83,
          "time": 105.00000000000045,
          "velocity": 0.44881889763779526,
          "duration": 0.056250000000005684
        },
        {
          "name": "C2",
          "midi": 36,
          "time": 105.00000000000045,
          "velocity": 0.7874015748031497,
          "duration": 0.056250000000005684
        },
        {
          "name": "C#2",
          "midi": 37,
          "time": 105.00000000000045,
          "velocity": 0.7244094488188977,
          "duration": 0.056250000000005684
        },
        {
          "name": "B3",
          "midi": 59,
          "time": 105.60000000000046,
          "velocity": 0.8976377952755905,
          "duration": 0.056250000000005684
        },
        {
          "name": "B5",
          "midi": 83,
          "time": 105.60000000000046,
          "velocity": 0.4566929133858268,
          "duration": 0.056250000000005684
        },
        {
          "name": "C2",
          "midi": 36,
          "time": 105.60000000000046,
          "velocity": 0.7874015748031497,
          "duration": 0.056250000000005684
        },
        {
          "name": "B3",
          "midi": 59,
          "time": 106.20000000000047,
          "velocity": 0.8976377952755905,
          "duration": 0.056250000000005684
        },
        {
          "name": "C#2",
          "midi": 37,
          "time": 106.20000000000047,
          "velocity": 0.7086614173228346,
          "duration": 0.056250000000005684
        },
        {
          "name": "B5",
          "midi": 83,
          "time": 106.20000000000047,
          "velocity": 0.4566929133858268,
          "duration": 0.056250000000005684
        },
        {
          "name": "G#2",
          "midi": 44,
          "time": 106.20000000000047,
          "velocity": 0.9921259842519685,
          "duration": 0.056250000000005684
        },
        {
          "name": "C2",
          "midi": 36,
          "time": 106.60000000000048,
          "velocity": 0.7874015748031497,
          "duration": 0.056250000000005684
        },
        {
          "name": "B3",
          "midi": 59,
          "time": 106.80000000000048,
          "velocity": 0.889763779527559,
          "duration": 0.056250000000005684
        },
        {
          "name": "B5",
          "midi": 83,
          "time": 106.80000000000048,
          "velocity": 0.44881889763779526,
          "duration": 0.056250000000005684
        },
        {
          "name": "C2",
          "midi": 36,
          "time": 106.80000000000048,
          "velocity": 0.7874015748031497,
          "duration": 0.056250000000005684
        },
        {
          "name": "B5",
          "midi": 83,
          "time": 107.40000000000049,
          "velocity": 0.44881889763779526,
          "duration": 0.056250000000005684
        },
        {
          "name": "B3",
          "midi": 59,
          "time": 107.40000000000049,
          "velocity": 0.8661417322834646,
          "duration": 0.056250000000005684
        },
        {
          "name": "C#2",
          "midi": 37,
          "time": 107.40000000000049,
          "velocity": 0.7086614173228346,
          "duration": 0.056250000000005684
        },
        {
          "name": "G#2",
          "midi": 44,
          "time": 107.40000000000049,
          "velocity": 0.984251968503937,
          "duration": 0.056250000000005684
        },
        {
          "name": "C2",
          "midi": 36,
          "time": 107.8000000000005,
          "velocity": 0.7874015748031497,
          "duration": 0.056250000000005684
        },
        {
          "name": "B3",
          "midi": 59,
          "time": 107.8000000000005,
          "velocity": 0.84251968503937,
          "duration": 0.056250000000005684
        },
        {
          "name": "B5",
          "midi": 83,
          "time": 108.0000000000005,
          "velocity": 0.44881889763779526,
          "duration": 0.056250000000005684
        },
        {
          "name": "C2",
          "midi": 36,
          "time": 108.0000000000005,
          "velocity": 0.7874015748031497,
          "duration": 0.056250000000005684
        },
        {
          "name": "B3",
          "midi": 59,
          "time": 108.0000000000005,
          "velocity": 0.84251968503937,
          "duration": 0.056250000000005684
        },
        {
          "name": "C#2",
          "midi": 37,
          "time": 108.4000000000005,
          "velocity": 0.7165354330708661,
          "duration": 0.056250000000005684
        },
        {
          "name": "B3",
          "midi": 59,
          "time": 108.6000000000005,
          "velocity": 0.9212598425196851,
          "duration": 0.056250000000005684
        },
        {
          "name": "B5",
          "midi": 83,
          "time": 108.6000000000005,
          "velocity": 0.4409448818897638,
          "duration": 0.056250000000005684
        },
        {
          "name": "C2",
          "midi": 36,
          "time": 108.6000000000005,
          "velocity": 0.7874015748031497,
          "duration": 0.056250000000005684
        },
        {
          "name": "G#2",
          "midi": 44,
          "time": 108.6000000000005,
          "velocity": 0.9921259842519685,
          "duration": 0.056250000000005684
        },
        {
          "name": "C#2",
          "midi": 37,
          "time": 109.00000000000051,
          "velocity": 0.7086614173228346,
          "duration": 0.056250000000005684
        },
        {
          "name": "B3",
          "midi": 59,
          "time": 109.20000000000051,
          "velocity": 0.905511811023622,
          "duration": 0.056250000000005684
        },
        {
          "name": "B5",
          "midi": 83,
          "time": 109.20000000000051,
          "velocity": 0.4330708661417323,
          "duration": 0.056250000000005684
        },
        {
          "name": "C2",
          "midi": 36,
          "time": 109.20000000000051,
          "velocity": 0.7874015748031497,
          "duration": 0.056250000000005684
        },
        {
          "name": "B5",
          "midi": 83,
          "time": 109.80000000000052,
          "velocity": 0.44881889763779526,
          "duration": 0.056250000000005684
        },
        {
          "name": "B3",
          "midi": 59,
          "time": 109.80000000000052,
          "velocity": 0.9133858267716536,
          "duration": 0.056250000000005684
        },
        {
          "name": "C#2",
          "midi": 37,
          "time": 109.80000000000052,
          "velocity": 0.7322834645669292,
          "duration": 0.056250000000005684
        },
        {
          "name": "G#2",
          "midi": 44,
          "time": 109.80000000000052,
          "velocity": 0.9921259842519685,
          "duration": 0.056250000000005684
        },
        {
          "name": "B3",
          "midi": 59,
          "time": 110.20000000000053,
          "velocity": 0.8346456692913385,
          "duration": 0.056250000000005684
        },
        {
          "name": "C2",
          "midi": 36,
          "time": 110.20000000000053,
          "velocity": 0.7874015748031497,
          "duration": 0.056250000000005684
        },
        {
          "name": "B3",
          "midi": 59,
          "time": 110.40000000000053,
          "velocity": 0.8582677165354331,
          "duration": 0.056250000000005684
        },
        {
          "name": "B5",
          "midi": 83,
          "time": 110.40000000000053,
          "velocity": 0.44881889763779526,
          "duration": 0.056250000000005684
        },
        {
          "name": "C2",
          "midi": 36,
          "time": 110.40000000000053,
          "velocity": 0.7874015748031497,
          "duration": 0.056250000000005684
        },
        {
          "name": "B5",
          "midi": 83,
          "time": 111.00000000000054,
          "velocity": 0.44881889763779526,
          "duration": 0.056250000000005684
        },
        {
          "name": "C#2",
          "midi": 37,
          "time": 111.00000000000054,
          "velocity": 0.7244094488188977,
          "duration": 0.056250000000005684
        },
        {
          "name": "B3",
          "midi": 59,
          "time": 111.00000000000054,
          "velocity": 0.9133858267716536,
          "duration": 0.056250000000005684
        },
        {
          "name": "G#2",
          "midi": 44,
          "time": 111.00000000000054,
          "velocity": 0.984251968503937,
          "duration": 0.056250000000005684
        },
        {
          "name": "C2",
          "midi": 36,
          "time": 111.40000000000055,
          "velocity": 0.7874015748031497,
          "duration": 0.056250000000005684
        },
        {
          "name": "B3",
          "midi": 59,
          "time": 111.40000000000055,
          "velocity": 0.8110236220472441,
          "duration": 0.056250000000005684
        },
        {
          "name": "B5",
          "midi": 83,
          "time": 111.60000000000055,
          "velocity": 0.44881889763779526,
          "duration": 0.056250000000005684
        },
        {
          "name": "C2",
          "midi": 36,
          "time": 111.60000000000055,
          "velocity": 0.7874015748031497,
          "duration": 0.056250000000005684
        },
        {
          "name": "B3",
          "midi": 59,
          "time": 111.60000000000055,
          "velocity": 0.8188976377952756,
          "duration": 0.056250000000005684
        },
        {
          "name": "B5",
          "midi": 83,
          "time": 112.20000000000056,
          "velocity": 0.44881889763779526,
          "duration": 0.056250000000005684
        },
        {
          "name": "C#2",
          "midi": 37,
          "time": 112.20000000000056,
          "velocity": 0.7086614173228346,
          "duration": 0.056250000000005684
        },
        {
          "name": "G#2",
          "midi": 44,
          "time": 112.20000000000056,
          "velocity": 0.968503937007874,
          "duration": 0.056250000000005684
        },
        {
          "name": "B3",
          "midi": 59,
          "time": 112.20000000000056,
          "velocity": 0.9133858267716536,
          "duration": 0.056250000000005684
        },
        {
          "name": "B3",
          "midi": 59,
          "time": 112.60000000000056,
          "velocity": 0.6141732283464567,
          "duration": 0.056250000000005684
        },
        {
          "name": "C2",
          "midi": 36,
          "time": 112.60000000000056,
          "velocity": 0.7874015748031497,
          "duration": 0.056250000000005684
        },
        {
          "name": "B3",
          "midi": 59,
          "time": 112.80000000000057,
          "velocity": 0.8740157480314961,
          "duration": 0.056250000000005684
        },
        {
          "name": "B5",
          "midi": 83,
          "time": 112.80000000000057,
          "velocity": 0.44881889763779526,
          "duration": 0.056250000000005684
        },
        {
          "name": "C2",
          "midi": 36,
          "time": 112.80000000000057,
          "velocity": 0.7874015748031497,
          "duration": 0.056250000000005684
        },
        {
          "name": "B3",
          "midi": 59,
          "time": 113.20000000000057,
          "velocity": 0.8740157480314961,
          "duration": 0.056250000000005684
        },
        {
          "name": "B3",
          "midi": 59,
          "time": 113.40000000000057,
          "velocity": 0.905511811023622,
          "duration": 0.056250000000005684
        },
        {
          "name": "B5",
          "midi": 83,
          "time": 113.40000000000057,
          "velocity": 0.44881889763779526,
          "duration": 0.056250000000005684
        },
        {
          "name": "C2",
          "midi": 36,
          "time": 113.40000000000057,
          "velocity": 0.7874015748031497,
          "duration": 0.056250000000005684
        },
        {
          "name": "C#2",
          "midi": 37,
          "time": 113.40000000000057,
          "velocity": 0.7322834645669292,
          "duration": 0.056250000000005684
        },
        {
          "name": "G#2",
          "midi": 44,
          "time": 113.40000000000057,
          "velocity": 0.9921259842519685,
          "duration": 0.056250000000005684
        },
        {
          "name": "B3",
          "midi": 59,
          "time": 113.80000000000058,
          "velocity": 0.8346456692913385,
          "duration": 0.056250000000005684
        },
        {
          "name": "B5",
          "midi": 83,
          "time": 114.00000000000058,
          "velocity": 0.4566929133858268,
          "duration": 0.056250000000005684
        },
        {
          "name": "C2",
          "midi": 36,
          "time": 114.00000000000058,
          "velocity": 0.7874015748031497,
          "duration": 0.056250000000005684
        },
        {
          "name": "B3",
          "midi": 59,
          "time": 114.00000000000058,
          "velocity": 0.8818897637795275,
          "duration": 0.056250000000005684
        },
        {
          "name": "B3",
          "midi": 59,
          "time": 114.60000000000059,
          "velocity": 0.9212598425196851,
          "duration": 0.056250000000005684
        },
        {
          "name": "B5",
          "midi": 83,
          "time": 114.60000000000059,
          "velocity": 0.4409448818897638,
          "duration": 0.056250000000005684
        },
        {
          "name": "C#2",
          "midi": 37,
          "time": 114.60000000000059,
          "velocity": 0.6929133858267716,
          "duration": 0.056250000000005684
        },
        {
          "name": "G#2",
          "midi": 44,
          "time": 114.60000000000059,
          "velocity": 0.937007874015748,
          "duration": 0.056250000000005684
        },
        {
          "name": "B3",
          "midi": 59,
          "time": 115.0000000000006,
          "velocity": 0.8503937007874016,
          "duration": 0.056250000000005684
        },
        {
          "name": "C2",
          "midi": 36,
          "time": 115.0000000000006,
          "velocity": 0.7874015748031497,
          "duration": 0.056250000000005684
        },
        {
          "name": "B3",
          "midi": 59,
          "time": 115.2000000000006,
          "velocity": 0.8582677165354331,
          "duration": 0.056250000000005684
        },
        {
          "name": "B5",
          "midi": 83,
          "time": 115.2000000000006,
          "velocity": 0.44881889763779526,
          "duration": 0.056250000000005684
        },
        {
          "name": "C2",
          "midi": 36,
          "time": 115.2000000000006,
          "velocity": 0.7874015748031497,
          "duration": 0.056250000000005684
        },
        {
          "name": "C2",
          "midi": 36,
          "time": 115.6000000000006,
          "velocity": 0.7874015748031497,
          "duration": 0.056250000000005684
        },
        {
          "name": "C#2",
          "midi": 37,
          "time": 115.80000000000061,
          "velocity": 0.7244094488188977,
          "duration": 0.056250000000005684
        },
        {
          "name": "B3",
          "midi": 59,
          "time": 115.80000000000061,
          "velocity": 0.9133858267716536,
          "duration": 0.056250000000005684
        },
        {
          "name": "G#2",
          "midi": 44,
          "time": 115.80000000000061,
          "velocity": 0.9921259842519685,
          "duration": 0.056250000000005684
        },
        {
          "name": "B5",
          "midi": 83,
          "time": 115.80000000000061,
          "velocity": 0.4566929133858268,
          "duration": 0.056250000000005684
        },
        {
          "name": "C2",
          "midi": 36,
          "time": 115.80000000000061,
          "velocity": 0.7874015748031497,
          "duration": 0.056250000000005684
        },
        {
          "name": "B3",
          "midi": 59,
          "time": 116.20000000000061,
          "velocity": 0.8267716535433071,
          "duration": 0.056250000000005684
        },
        {
          "name": "B3",
          "midi": 59,
          "time": 116.40000000000062,
          "velocity": 0.8503937007874016,
          "duration": 0.056250000000005684
        },
        {
          "name": "B5",
          "midi": 83,
          "time": 116.40000000000062,
          "velocity": 0.4566929133858268,
          "duration": 0.056250000000005684
        },
        {
          "name": "C2",
          "midi": 36,
          "time": 116.40000000000062,
          "velocity": 0.7874015748031497,
          "duration": 0.056250000000005684
        },
        {
          "name": "B3",
          "midi": 59,
          "time": 117.00000000000063,
          "velocity": 0.9212598425196851,
          "duration": 0.056250000000005684
        },
        {
          "name": "B5",
          "midi": 83,
          "time": 117.00000000000063,
          "velocity": 0.44881889763779526,
          "duration": 0.056250000000005684
        },
        {
          "name": "G#2",
          "midi": 44,
          "time": 117.00000000000063,
          "velocity": 0.9921259842519685,
          "duration": 0.056250000000005684
        },
        {
          "name": "C#2",
          "midi": 37,
          "time": 117.00000000000063,
          "velocity": 0.7007874015748031,
          "duration": 0.056250000000005684
        },
        {
          "name": "B3",
          "midi": 59,
          "time": 117.40000000000063,
          "velocity": 0.8661417322834646,
          "duration": 0.056250000000005684
        },
        {
          "name": "C2",
          "midi": 36,
          "time": 117.40000000000063,
          "velocity": 0.7874015748031497,
          "duration": 0.056250000000005684
        },
        {
          "name": "B3",
          "midi": 59,
          "time": 117.60000000000063,
          "velocity": 0.7244094488188977,
          "duration": 0.056250000000005684
        },
        {
          "name": "B5",
          "midi": 83,
          "time": 117.60000000000063,
          "velocity": 0.4566929133858268,
          "duration": 0.056250000000005684
        },
        {
          "name": "C2",
          "midi": 36,
          "time": 117.60000000000063,
          "velocity": 0.7874015748031497,
          "duration": 0.056250000000005684
        },
        {
          "name": "B3",
          "midi": 59,
          "time": 118.00000000000064,
          "velocity": 0.8582677165354331,
          "duration": 0.056250000000005684
        },
        {
          "name": "C#2",
          "midi": 37,
          "time": 118.00000000000064,
          "velocity": 0.7165354330708661,
          "duration": 0.056250000000005684
        },
        {
          "name": "B3",
          "midi": 59,
          "time": 118.20000000000064,
          "velocity": 0.9133858267716536,
          "duration": 0.056250000000005684
        },
        {
          "name": "B5",
          "midi": 83,
          "time": 118.20000000000064,
          "velocity": 0.44881889763779526,
          "duration": 0.056250000000005684
        },
        {
          "name": "C2",
          "midi": 36,
          "time": 118.20000000000064,
          "velocity": 0.7874015748031497,
          "duration": 0.056250000000005684
        },
        {
          "name": "G#2",
          "midi": 44,
          "time": 118.20000000000064,
          "velocity": 0.9921259842519685,
          "duration": 0.056250000000005684
        },
        {
          "name": "C#2",
          "midi": 37,
          "time": 118.60000000000065,
          "velocity": 0.7007874015748031,
          "duration": 0.056250000000005684
        },
        {
          "name": "B3",
          "midi": 59,
          "time": 118.80000000000065,
          "velocity": 0.889763779527559,
          "duration": 0.056250000000005684
        },
        {
          "name": "B5",
          "midi": 83,
          "time": 118.80000000000065,
          "velocity": 0.4566929133858268,
          "duration": 0.056250000000005684
        },
        {
          "name": "C2",
          "midi": 36,
          "time": 118.80000000000065,
          "velocity": 0.7874015748031497,
          "duration": 0.056250000000005684
        },
        {
          "name": "B3",
          "midi": 59,
          "time": 119.40000000000066,
          "velocity": 0.8976377952755905,
          "duration": 0.056250000000005684
        },
        {
          "name": "G#2",
          "midi": 44,
          "time": 119.40000000000066,
          "velocity": 0.9921259842519685,
          "duration": 0.056250000000005684
        },
        {
          "name": "B5",
          "midi": 83,
          "time": 119.40000000000066,
          "velocity": 0.44881889763779526,
          "duration": 0.056250000000005684
        },
        {
          "name": "C#2",
          "midi": 37,
          "time": 119.40000000000066,
          "velocity": 0.6929133858267716,
          "duration": 0.056250000000005684
        },
        {
          "name": "B3",
          "midi": 59,
          "time": 119.80000000000067,
          "velocity": 0.889763779527559,
          "duration": 0.056250000000005684
        },
        {
          "name": "B3",
          "midi": 59,
          "time": 120.00000000000067,
          "velocity": 0.8503937007874016,
          "duration": 0.056250000000005684
        },
        {
          "name": "B5",
          "midi": 83,
          "time": 120.00000000000067,
          "velocity": 0.4566929133858268,
          "duration": 0.056250000000005684
        },
        {
          "name": "C2",
          "midi": 36,
          "time": 120.00000000000067,
          "velocity": 0.7874015748031497,
          "duration": 0.056250000000005684
        },
        {
          "name": "B3",
          "midi": 59,
          "time": 120.60000000000068,
          "velocity": 0.9212598425196851,
          "duration": 0.056250000000005684
        },
        {
          "name": "G#2",
          "midi": 44,
          "time": 120.60000000000068,
          "velocity": 0.9921259842519685,
          "duration": 0.056250000000005684
        },
        {
          "name": "B5",
          "midi": 83,
          "time": 120.60000000000068,
          "velocity": 0.4566929133858268,
          "duration": 0.056250000000005684
        },
        {
          "name": "C#2",
          "midi": 37,
          "time": 120.60000000000068,
          "velocity": 0.7007874015748031,
          "duration": 0.056250000000005684
        },
        {
          "name": "B3",
          "midi": 59,
          "time": 121.00000000000068,
          "velocity": 0.84251968503937,
          "duration": 0.056250000000005684
        },
        {
          "name": "C2",
          "midi": 36,
          "time": 121.00000000000068,
          "velocity": 0.7874015748031497,
          "duration": 0.056250000000005684
        },
        {
          "name": "B3",
          "midi": 59,
          "time": 121.20000000000068,
          "velocity": 0.8188976377952756,
          "duration": 0.056250000000005684
        },
        {
          "name": "B5",
          "midi": 83,
          "time": 121.20000000000068,
          "velocity": 0.44881889763779526,
          "duration": 0.056250000000005684
        },
        {
          "name": "C2",
          "midi": 36,
          "time": 121.20000000000068,
          "velocity": 0.7874015748031497,
          "duration": 0.056250000000005684
        },
        {
          "name": "B3",
          "midi": 59,
          "time": 121.8000000000007,
          "velocity": 0.9133858267716536,
          "duration": 0.056250000000005684
        },
        {
          "name": "G#2",
          "midi": 44,
          "time": 121.8000000000007,
          "velocity": 0.984251968503937,
          "duration": 0.056250000000005684
        },
        {
          "name": "B5",
          "midi": 83,
          "time": 121.8000000000007,
          "velocity": 0.44881889763779526,
          "duration": 0.056250000000005684
        },
        {
          "name": "C#2",
          "midi": 37,
          "time": 121.8000000000007,
          "velocity": 0.7244094488188977,
          "duration": 0.056250000000005684
        },
        {
          "name": "C2",
          "midi": 36,
          "time": 122.0000000000007,
          "velocity": 0.7874015748031497,
          "duration": 0.056250000000005684
        },
        {
          "name": "C2",
          "midi": 36,
          "time": 122.2000000000007,
          "velocity": 0.7874015748031497,
          "duration": 0.056250000000005684
        },
        {
          "name": "B3",
          "midi": 59,
          "time": 122.4000000000007,
          "velocity": 0.9133858267716536,
          "duration": 0.056250000000005684
        },
        {
          "name": "B5",
          "midi": 83,
          "time": 122.4000000000007,
          "velocity": 0.4566929133858268,
          "duration": 0.056250000000005684
        },
        {
          "name": "C2",
          "midi": 36,
          "time": 122.4000000000007,
          "velocity": 0.7874015748031497,
          "duration": 0.056250000000005684
        },
        {
          "name": "G#2",
          "midi": 44,
          "time": 123.00000000000071,
          "velocity": 0.9921259842519685,
          "duration": 0.056250000000005684
        },
        {
          "name": "C#2",
          "midi": 37,
          "time": 123.00000000000071,
          "velocity": 0.7244094488188977,
          "duration": 0.056250000000005684
        },
        {
          "name": "B5",
          "midi": 83,
          "time": 123.00000000000071,
          "velocity": 0.4566929133858268,
          "duration": 0.056250000000005684
        },
        {
          "name": "C2",
          "midi": 36,
          "time": 123.00000000000071,
          "velocity": 0.7874015748031497,
          "duration": 0.056250000000005684
        },
        {
          "name": "B3",
          "midi": 59,
          "time": 123.00000000000071,
          "velocity": 0.9133858267716536,
          "duration": 0.056250000000005684
        },
        {
          "name": "B3",
          "midi": 59,
          "time": 123.40000000000072,
          "velocity": 0.8188976377952756,
          "duration": 0.056250000000005684
        },
        {
          "name": "B3",
          "midi": 59,
          "time": 123.60000000000072,
          "velocity": 0.8503937007874016,
          "duration": 0.056250000000005684
        },
        {
          "name": "B5",
          "midi": 83,
          "time": 123.60000000000072,
          "velocity": 0.44881889763779526,
          "duration": 0.056250000000005684
        },
        {
          "name": "C2",
          "midi": 36,
          "time": 123.60000000000072,
          "velocity": 0.7874015748031497,
          "duration": 0.056250000000005684
        },
        {
          "name": "B3",
          "midi": 59,
          "time": 124.20000000000073,
          "velocity": 0.9133858267716536,
          "duration": 0.056250000000005684
        },
        {
          "name": "G#2",
          "midi": 44,
          "time": 124.20000000000073,
          "velocity": 0.9921259842519685,
          "duration": 0.056250000000005684
        },
        {
          "name": "B5",
          "midi": 83,
          "time": 124.20000000000073,
          "velocity": 0.4566929133858268,
          "duration": 0.056250000000005684
        },
        {
          "name": "C#2",
          "midi": 37,
          "time": 124.20000000000073,
          "velocity": 0.7086614173228346,
          "duration": 0.056250000000005684
        },
        {
          "name": "C2",
          "midi": 36,
          "time": 124.60000000000073,
          "velocity": 0.7874015748031497,
          "duration": 0.056250000000005684
        },
        {
          "name": "B3",
          "midi": 59,
          "time": 124.80000000000074,
          "velocity": 0.8976377952755905,
          "duration": 0.056250000000005684
        },
        {
          "name": "B5",
          "midi": 83,
          "time": 124.80000000000074,
          "velocity": 0.4409448818897638,
          "duration": 0.056250000000005684
        },
        {
          "name": "C2",
          "midi": 36,
          "time": 124.80000000000074,
          "velocity": 0.7874015748031497,
          "duration": 0.056250000000005684
        },
        {
          "name": "G#2",
          "midi": 44,
          "time": 125.40000000000074,
          "velocity": 0.9921259842519685,
          "duration": 0.056250000000005684
        },
        {
          "name": "B3",
          "midi": 59,
          "time": 125.40000000000074,
          "velocity": 0.905511811023622,
          "duration": 0.056250000000005684
        },
        {
          "name": "B5",
          "midi": 83,
          "time": 125.40000000000074,
          "velocity": 0.4566929133858268,
          "duration": 0.056250000000005684
        },
        {
          "name": "C#2",
          "midi": 37,
          "time": 125.40000000000074,
          "velocity": 0.7559055118110236,
          "duration": 0.056250000000005684
        },
        {
          "name": "B3",
          "midi": 59,
          "time": 126.00000000000075,
          "velocity": 0.9133858267716536,
          "duration": 0.056250000000005684
        },
        {
          "name": "B5",
          "midi": 83,
          "time": 126.00000000000075,
          "velocity": 0.4409448818897638,
          "duration": 0.056250000000005684
        },
        {
          "name": "C2",
          "midi": 36,
          "time": 126.00000000000075,
          "velocity": 0.7874015748031497,
          "duration": 0.056250000000005684
        },
        {
          "name": "B3",
          "midi": 59,
          "time": 126.60000000000076,
          "velocity": 0.889763779527559,
          "duration": 0.056250000000005684
        },
        {
          "name": "B5",
          "midi": 83,
          "time": 126.60000000000076,
          "velocity": 0.44881889763779526,
          "duration": 0.056250000000005684
        },
        {
          "name": "G#2",
          "midi": 44,
          "time": 126.60000000000076,
          "velocity": 0.9921259842519685,
          "duration": 0.056250000000005684
        },
        {
          "name": "C#2",
          "midi": 37,
          "time": 126.60000000000076,
          "velocity": 0.7086614173228346,
          "duration": 0.056250000000005684
        },
        {
          "name": "B3",
          "midi": 59,
          "time": 127.00000000000077,
          "velocity": 0.8267716535433071,
          "duration": 0.056250000000005684
        },
        {
          "name": "C2",
          "midi": 36,
          "time": 127.00000000000077,
          "velocity": 0.7874015748031497,
          "duration": 0.056250000000005684
        },
        {
          "name": "B3",
          "midi": 59,
          "time": 127.20000000000077,
          "velocity": 0.8740157480314961,
          "duration": 0.056250000000005684
        },
        {
          "name": "B5",
          "midi": 83,
          "time": 127.20000000000077,
          "velocity": 0.44881889763779526,
          "duration": 0.056250000000005684
        },
        {
          "name": "C2",
          "midi": 36,
          "time": 127.20000000000077,
          "velocity": 0.7874015748031497,
          "duration": 0.056250000000005684
        },
        {
          "name": "B3",
          "midi": 59,
          "time": 127.60000000000078,
          "velocity": 0.8740157480314961,
          "duration": 0.056250000000005684
        },
        {
          "name": "C#2",
          "midi": 37,
          "time": 127.60000000000078,
          "velocity": 0.7165354330708661,
          "duration": 0.056250000000005684
        },
        {
          "name": "B3",
          "midi": 59,
          "time": 127.80000000000078,
          "velocity": 0.905511811023622,
          "duration": 0.056250000000005684
        },
        {
          "name": "B5",
          "midi": 83,
          "time": 127.80000000000078,
          "velocity": 0.44881889763779526,
          "duration": 0.056250000000005684
        },
        {
          "name": "C2",
          "midi": 36,
          "time": 127.80000000000078,
          "velocity": 0.7874015748031497,
          "duration": 0.056250000000005684
        },
        {
          "name": "G#2",
          "midi": 44,
          "time": 127.80000000000078,
          "velocity": 0.984251968503937,
          "duration": 0.056250000000005684
        },
        {
          "name": "B3",
          "midi": 59,
          "time": 128.20000000000078,
          "velocity": 0.8267716535433071,
          "duration": 0.056250000000005684
        },
        {
          "name": "C#2",
          "midi": 37,
          "time": 128.20000000000078,
          "velocity": 0.7244094488188977,
          "duration": 0.056250000000005684
        },
        {
          "name": "B5",
          "midi": 83,
          "time": 128.4000000000008,
          "velocity": 0.44881889763779526,
          "duration": 0.056250000000005684
        },
        {
          "name": "C2",
          "midi": 36,
          "time": 128.4000000000008,
          "velocity": 0.7874015748031497,
          "duration": 0.056250000000005684
        },
        {
          "name": "B3",
          "midi": 59,
          "time": 128.4000000000008,
          "velocity": 0.9133858267716536,
          "duration": 0.056250000000005684
        },
        {
          "name": "B5",
          "midi": 83,
          "time": 129.0000000000008,
          "velocity": 0.44881889763779526,
          "duration": 0.056250000000005684
        },
        {
          "name": "B3",
          "midi": 59,
          "time": 129.0000000000008,
          "velocity": 0.905511811023622,
          "duration": 0.056250000000005684
        },
        {
          "name": "G#2",
          "midi": 44,
          "time": 129.0000000000008,
          "velocity": 0.9921259842519685,
          "duration": 0.056250000000005684
        },
        {
          "name": "C#2",
          "midi": 37,
          "time": 129.0000000000008,
          "velocity": 0.7401574803149606,
          "duration": 0.056250000000005684
        },
        {
          "name": "B3",
          "midi": 59,
          "time": 129.4000000000008,
          "velocity": 0.8346456692913385,
          "duration": 0.056250000000005684
        },
        {
          "name": "C2",
          "midi": 36,
          "time": 129.4000000000008,
          "velocity": 0.7874015748031497,
          "duration": 0.056250000000005684
        },
        {
          "name": "B3",
          "midi": 59,
          "time": 129.60000000000082,
          "velocity": 0.8346456692913385,
          "duration": 0.056250000000005684
        },
        {
          "name": "B5",
          "midi": 83,
          "time": 129.60000000000082,
          "velocity": 0.44881889763779526,
          "duration": 0.056250000000005684
        },
        {
          "name": "C2",
          "midi": 36,
          "time": 129.60000000000082,
          "velocity": 0.7874015748031497,
          "duration": 0.056250000000005684
        },
        {
          "name": "B5",
          "midi": 83,
          "time": 130.2000000000008,
          "velocity": 0.44881889763779526,
          "duration": 0.056250000000005684
        },
        {
          "name": "C2",
          "midi": 36,
          "time": 130.2000000000008,
          "velocity": 0.7874015748031497,
          "duration": 0.056250000000005684
        },
        {
          "name": "B3",
          "midi": 59,
          "time": 130.2000000000008,
          "velocity": 0.9133858267716536,
          "duration": 0.056250000000005684
        },
        {
          "name": "G#2",
          "midi": 44,
          "time": 130.2000000000008,
          "velocity": 0.9921259842519685,
          "duration": 0.056250000000005684
        },
        {
          "name": "C#2",
          "midi": 37,
          "time": 130.2000000000008,
          "velocity": 0.7322834645669292,
          "duration": 0.056250000000005684
        },
        {
          "name": "B3",
          "midi": 59,
          "time": 130.60000000000082,
          "velocity": 0.84251968503937,
          "duration": 0.056250000000005684
        },
        {
          "name": "B3",
          "midi": 59,
          "time": 130.80000000000084,
          "velocity": 0.8503937007874016,
          "duration": 0.056250000000005684
        },
        {
          "name": "B5",
          "midi": 83,
          "time": 130.80000000000084,
          "velocity": 0.4566929133858268,
          "duration": 0.056250000000005684
        },
        {
          "name": "C2",
          "midi": 36,
          "time": 130.80000000000084,
          "velocity": 0.7874015748031497,
          "duration": 0.056250000000005684
        },
        {
          "name": "B3",
          "midi": 59,
          "time": 131.40000000000083,
          "velocity": 0.8582677165354331,
          "duration": 0.056250000000005684
        },
        {
          "name": "C#2",
          "midi": 37,
          "time": 131.40000000000083,
          "velocity": 0.7244094488188977,
          "duration": 0.056250000000005684
        },
        {
          "name": "G#2",
          "midi": 44,
          "time": 131.40000000000083,
          "velocity": 0.9921259842519685,
          "duration": 0.056250000000005684
        },
        {
          "name": "B5",
          "midi": 83,
          "time": 131.40000000000083,
          "velocity": 0.4566929133858268,
          "duration": 0.056250000000005684
        },
        {
          "name": "B3",
          "midi": 59,
          "time": 131.80000000000084,
          "velocity": 0.84251968503937,
          "duration": 0.056250000000005684
        },
        {
          "name": "C2",
          "midi": 36,
          "time": 131.80000000000084,
          "velocity": 0.7874015748031497,
          "duration": 0.056250000000005684
        },
        {
          "name": "B3",
          "midi": 59,
          "time": 132.00000000000085,
          "velocity": 0.7165354330708661,
          "duration": 0.056250000000005684
        },
        {
          "name": "B5",
          "midi": 83,
          "time": 132.00000000000085,
          "velocity": 0.44881889763779526,
          "duration": 0.056250000000005684
        },
        {
          "name": "C2",
          "midi": 36,
          "time": 132.00000000000085,
          "velocity": 0.7874015748031497,
          "duration": 0.056250000000005684
        },
        {
          "name": "B3",
          "midi": 59,
          "time": 132.40000000000086,
          "velocity": 0.8740157480314961,
          "duration": 0.056250000000005684
        },
        {
          "name": "B3",
          "midi": 59,
          "time": 132.60000000000088,
          "velocity": 0.8818897637795275,
          "duration": 0.056250000000005684
        },
        {
          "name": "G#2",
          "midi": 44,
          "time": 132.60000000000088,
          "velocity": 0.9921259842519685,
          "duration": 0.056250000000005684
        },
        {
          "name": "C#2",
          "midi": 37,
          "time": 132.60000000000088,
          "velocity": 0.7322834645669292,
          "duration": 0.056250000000005684
        },
        {
          "name": "B5",
          "midi": 83,
          "time": 132.60000000000088,
          "velocity": 0.44881889763779526,
          "duration": 0.056250000000005684
        },
        {
          "name": "C2",
          "midi": 36,
          "time": 132.60000000000088,
          "velocity": 0.7874015748031497,
          "duration": 0.056250000000005684
        },
        {
          "name": "B3",
          "midi": 59,
          "time": 133.20000000000087,
          "velocity": 0.905511811023622,
          "duration": 0.056250000000005684
        },
        {
          "name": "B5",
          "midi": 83,
          "time": 133.20000000000087,
          "velocity": 0.44881889763779526,
          "duration": 0.056250000000005684
        },
        {
          "name": "C2",
          "midi": 36,
          "time": 133.20000000000087,
          "velocity": 0.7874015748031497,
          "duration": 0.056250000000005684
        },
        {
          "name": "B3",
          "midi": 59,
          "time": 133.80000000000086,
          "velocity": 0.9133858267716536,
          "duration": 0.056250000000005684
        },
        {
          "name": "G#2",
          "midi": 44,
          "time": 133.80000000000086,
          "velocity": 0.9921259842519685,
          "duration": 0.056250000000005684
        },
        {
          "name": "B5",
          "midi": 83,
          "time": 133.80000000000086,
          "velocity": 0.44881889763779526,
          "duration": 0.056250000000005684
        },
        {
          "name": "C#2",
          "midi": 37,
          "time": 133.80000000000086,
          "velocity": 0.6692913385826772,
          "duration": 0.056250000000005684
        },
        {
          "name": "B3",
          "midi": 59,
          "time": 134.20000000000087,
          "velocity": 0.84251968503937,
          "duration": 0.056250000000005684
        },
        {
          "name": "C2",
          "midi": 36,
          "time": 134.20000000000087,
          "velocity": 0.7874015748031497,
          "duration": 0.056250000000005684
        },
        {
          "name": "B3",
          "midi": 59,
          "time": 134.4000000000009,
          "velocity": 0.8740157480314961,
          "duration": 0.056250000000005684
        },
        {
          "name": "B5",
          "midi": 83,
          "time": 134.4000000000009,
          "velocity": 0.44881889763779526,
          "duration": 0.056250000000005684
        },
        {
          "name": "C2",
          "midi": 36,
          "time": 134.4000000000009,
          "velocity": 0.7874015748031497,
          "duration": 0.056250000000005684
        },
        {
          "name": "B3",
          "midi": 59,
          "time": 135.00000000000088,
          "velocity": 0.9133858267716536,
          "duration": 0.056250000000005684
        },
        {
          "name": "C#2",
          "midi": 37,
          "time": 135.00000000000088,
          "velocity": 0.7165354330708661,
          "duration": 0.056250000000005684
        },
        {
          "name": "G#2",
          "midi": 44,
          "time": 135.00000000000088,
          "velocity": 0.9921259842519685,
          "duration": 0.056250000000005684
        },
        {
          "name": "B5",
          "midi": 83,
          "time": 135.00000000000088,
          "velocity": 0.4566929133858268,
          "duration": 0.056250000000005684
        },
        {
          "name": "B3",
          "midi": 59,
          "time": 135.60000000000088,
          "velocity": 0.905511811023622,
          "duration": 0.056250000000005684
        },
        {
          "name": "B5",
          "midi": 83,
          "time": 135.60000000000088,
          "velocity": 0.44881889763779526,
          "duration": 0.056250000000005684
        },
        {
          "name": "C2",
          "midi": 36,
          "time": 135.60000000000088,
          "velocity": 0.7874015748031497,
          "duration": 0.056250000000005684
        },
        {
          "name": "B3",
          "midi": 59,
          "time": 136.20000000000087,
          "velocity": 0.9133858267716536,
          "duration": 0.056250000000005684
        },
        {
          "name": "G#2",
          "midi": 44,
          "time": 136.20000000000087,
          "velocity": 0.9921259842519685,
          "duration": 0.056250000000005684
        },
        {
          "name": "C#2",
          "midi": 37,
          "time": 136.20000000000087,
          "velocity": 0.6771653543307087,
          "duration": 0.056250000000005684
        },
        {
          "name": "B5",
          "midi": 83,
          "time": 136.20000000000087,
          "velocity": 0.44881889763779526,
          "duration": 0.056250000000005684
        },
        {
          "name": "C2",
          "midi": 36,
          "time": 136.20000000000087,
          "velocity": 0.7874015748031497,
          "duration": 0.056250000000005684
        },
        {
          "name": "B3",
          "midi": 59,
          "time": 136.60000000000088,
          "velocity": 0.8346456692913385,
          "duration": 0.056250000000005684
        },
        {
          "name": "B3",
          "midi": 59,
          "time": 136.8000000000009,
          "velocity": 0.8740157480314961,
          "duration": 0.056250000000005684
        },
        {
          "name": "B5",
          "midi": 83,
          "time": 136.8000000000009,
          "velocity": 0.44881889763779526,
          "duration": 0.056250000000005684
        },
        {
          "name": "C2",
          "midi": 36,
          "time": 136.8000000000009,
          "velocity": 0.7874015748031497,
          "duration": 0.056250000000005684
        },
        {
          "name": "C#2",
          "midi": 37,
          "time": 137.2000000000009,
          "velocity": 0.7401574803149606,
          "duration": 0.056250000000005684
        },
        {
          "name": "G#2",
          "midi": 44,
          "time": 137.40000000000092,
          "velocity": 0.968503937007874,
          "duration": 0.056250000000005684
        },
        {
          "name": "B3",
          "midi": 59,
          "time": 137.40000000000092,
          "velocity": 0.9212598425196851,
          "duration": 0.056250000000005684
        },
        {
          "name": "B5",
          "midi": 83,
          "time": 137.40000000000092,
          "velocity": 0.4566929133858268,
          "duration": 0.056250000000005684
        },
        {
          "name": "C2",
          "midi": 36,
          "time": 137.40000000000092,
          "velocity": 0.7874015748031497,
          "duration": 0.056250000000005684
        },
        {
          "name": "C#2",
          "midi": 37,
          "time": 137.80000000000092,
          "velocity": 0.7244094488188977,
          "duration": 0.056250000000005684
        },
        {
          "name": "B5",
          "midi": 83,
          "time": 138.00000000000094,
          "velocity": 0.44881889763779526,
          "duration": 0.056250000000005684
        },
        {
          "name": "C2",
          "midi": 36,
          "time": 138.00000000000094,
          "velocity": 0.7874015748031497,
          "duration": 0.056250000000005684
        },
        {
          "name": "B3",
          "midi": 59,
          "time": 138.00000000000094,
          "velocity": 0.8740157480314961,
          "duration": 0.056250000000005684
        },
        {
          "name": "G#2",
          "midi": 44,
          "time": 138.60000000000093,
          "velocity": 0.9921259842519685,
          "duration": 0.056250000000005684
        },
        {
          "name": "B5",
          "midi": 83,
          "time": 138.60000000000093,
          "velocity": 0.4566929133858268,
          "duration": 0.056250000000005684
        },
        {
          "name": "C#2",
          "midi": 37,
          "time": 138.60000000000093,
          "velocity": 0.7165354330708661,
          "duration": 0.056250000000005684
        },
        {
          "name": "B3",
          "midi": 59,
          "time": 138.60000000000093,
          "velocity": 0.9212598425196851,
          "duration": 0.056250000000005684
        },
        {
          "name": "C2",
          "midi": 36,
          "time": 139.00000000000094,
          "velocity": 0.7874015748031497,
          "duration": 0.056250000000005684
        },
        {
          "name": "B3",
          "midi": 59,
          "time": 139.00000000000094,
          "velocity": 0.8503937007874016,
          "duration": 0.056250000000005684
        },
        {
          "name": "B5",
          "midi": 83,
          "time": 139.20000000000095,
          "velocity": 0.44881889763779526,
          "duration": 0.056250000000005684
        },
        {
          "name": "C2",
          "midi": 36,
          "time": 139.20000000000095,
          "velocity": 0.7874015748031497,
          "duration": 0.056250000000005684
        },
        {
          "name": "B3",
          "midi": 59,
          "time": 139.20000000000095,
          "velocity": 0.8740157480314961,
          "duration": 0.056250000000005684
        },
        {
          "name": "B5",
          "midi": 83,
          "time": 139.80000000000095,
          "velocity": 0.44881889763779526,
          "duration": 0.056250000000005684
        },
        {
          "name": "B3",
          "midi": 59,
          "time": 139.80000000000095,
          "velocity": 0.9212598425196851,
          "duration": 0.056250000000005684
        },
        {
          "name": "C#2",
          "midi": 37,
          "time": 139.80000000000095,
          "velocity": 0.7637795275590551,
          "duration": 0.056250000000005684
        },
        {
          "name": "G#2",
          "midi": 44,
          "time": 139.80000000000095,
          "velocity": 0.984251968503937,
          "duration": 0.056250000000005684
        },
        {
          "name": "B3",
          "midi": 59,
          "time": 140.40000000000094,
          "velocity": 0.8976377952755905,
          "duration": 0.056250000000005684
        },
        {
          "name": "B5",
          "midi": 83,
          "time": 140.40000000000094,
          "velocity": 0.4409448818897638,
          "duration": 0.056250000000005684
        },
        {
          "name": "C2",
          "midi": 36,
          "time": 140.40000000000094,
          "velocity": 0.7874015748031497,
          "duration": 0.056250000000005684
        },
        {
          "name": "B5",
          "midi": 83,
          "time": 141.00000000000094,
          "velocity": 0.4566929133858268,
          "duration": 0.056250000000005684
        },
        {
          "name": "B3",
          "midi": 59,
          "time": 141.00000000000094,
          "velocity": 0.9133858267716536,
          "duration": 0.056250000000005684
        },
        {
          "name": "G#2",
          "midi": 44,
          "time": 141.00000000000094,
          "velocity": 0.984251968503937,
          "duration": 0.056250000000005684
        },
        {
          "name": "C#2",
          "midi": 37,
          "time": 141.00000000000094,
          "velocity": 0.7165354330708661,
          "duration": 0.056250000000005684
        },
        {
          "name": "C2",
          "midi": 36,
          "time": 141.40000000000094,
          "velocity": 0.7874015748031497,
          "duration": 0.056250000000005684
        },
        {
          "name": "B3",
          "midi": 59,
          "time": 141.40000000000094,
          "velocity": 0.8582677165354331,
          "duration": 0.056250000000005684
        },
        {
          "name": "B3",
          "midi": 59,
          "time": 141.60000000000096,
          "velocity": 0.7795275590551181,
          "duration": 0.056250000000005684
        },
        {
          "name": "B5",
          "midi": 83,
          "time": 141.60000000000096,
          "velocity": 0.44881889763779526,
          "duration": 0.056250000000005684
        },
        {
          "name": "C2",
          "midi": 36,
          "time": 141.60000000000096,
          "velocity": 0.7874015748031497,
          "duration": 0.056250000000005684
        },
        {
          "name": "B3",
          "midi": 59,
          "time": 142.00000000000097,
          "velocity": 0.8503937007874016,
          "duration": 0.056250000000005684
        },
        {
          "name": "C#2",
          "midi": 37,
          "time": 142.00000000000097,
          "velocity": 0.7007874015748031,
          "duration": 0.056250000000005684
        },
        {
          "name": "B3",
          "midi": 59,
          "time": 142.20000000000098,
          "velocity": 0.905511811023622,
          "duration": 0.056250000000005684
        },
        {
          "name": "B5",
          "midi": 83,
          "time": 142.20000000000098,
          "velocity": 0.44881889763779526,
          "duration": 0.056250000000005684
        },
        {
          "name": "C2",
          "midi": 36,
          "time": 142.20000000000098,
          "velocity": 0.7874015748031497,
          "duration": 0.056250000000005684
        },
        {
          "name": "G#2",
          "midi": 44,
          "time": 142.20000000000098,
          "velocity": 0.9921259842519685,
          "duration": 0.056250000000005684
        },
        {
          "name": "C#2",
          "midi": 37,
          "time": 142.600000000001,
          "velocity": 0.7401574803149606,
          "duration": 0.056250000000005684
        },
        {
          "name": "B3",
          "midi": 59,
          "time": 142.600000000001,
          "velocity": 0.7795275590551181,
          "duration": 0.056250000000005684
        },
        {
          "name": "B5",
          "midi": 83,
          "time": 142.800000000001,
          "velocity": 0.4566929133858268,
          "duration": 0.056250000000005684
        },
        {
          "name": "C2",
          "midi": 36,
          "time": 142.800000000001,
          "velocity": 0.7874015748031497,
          "duration": 0.056250000000005684
        },
        {
          "name": "B3",
          "midi": 59,
          "time": 142.800000000001,
          "velocity": 0.9212598425196851,
          "duration": 0.056250000000005684
        },
        {
          "name": "B5",
          "midi": 83,
          "time": 143.400000000001,
          "velocity": 0.4566929133858268,
          "duration": 0.056250000000005684
        },
        {
          "name": "C2",
          "midi": 36,
          "time": 143.400000000001,
          "velocity": 0.7874015748031497,
          "duration": 0.056250000000005684
        },
        {
          "name": "G#2",
          "midi": 44,
          "time": 143.400000000001,
          "velocity": 0.9921259842519685,
          "duration": 0.056250000000005684
        },
        {
          "name": "C#2",
          "midi": 37,
          "time": 143.400000000001,
          "velocity": 0.7244094488188977,
          "duration": 0.056250000000005684
        },
        {
          "name": "B3",
          "midi": 59,
          "time": 143.400000000001,
          "velocity": 0.937007874015748,
          "duration": 0.056250000000005684
        },
        {
          "name": "B3",
          "midi": 59,
          "time": 144.000000000001,
          "velocity": 0.9133858267716536,
          "duration": 0.056250000000005684
        },
        {
          "name": "B5",
          "midi": 83,
          "time": 144.000000000001,
          "velocity": 0.44881889763779526,
          "duration": 0.056250000000005684
        },
        {
          "name": "C2",
          "midi": 36,
          "time": 144.000000000001,
          "velocity": 0.7874015748031497,
          "duration": 0.056250000000005684
        },
        {
          "name": "B3",
          "midi": 59,
          "time": 144.600000000001,
          "velocity": 0.889763779527559,
          "duration": 0.056250000000005684
        },
        {
          "name": "B5",
          "midi": 83,
          "time": 144.600000000001,
          "velocity": 0.4330708661417323,
          "duration": 0.056250000000005684
        },
        {
          "name": "G#2",
          "midi": 44,
          "time": 144.600000000001,
          "velocity": 0.9921259842519685,
          "duration": 0.056250000000005684
        },
        {
          "name": "C#2",
          "midi": 37,
          "time": 144.600000000001,
          "velocity": 0.7244094488188977,
          "duration": 0.056250000000005684
        },
        {
          "name": "B3",
          "midi": 59,
          "time": 145.000000000001,
          "velocity": 0.8740157480314961,
          "duration": 0.056250000000005684
        },
        {
          "name": "C2",
          "midi": 36,
          "time": 145.000000000001,
          "velocity": 0.7874015748031497,
          "duration": 0.056250000000005684
        },
        {
          "name": "B3",
          "midi": 59,
          "time": 145.200000000001,
          "velocity": 0.8661417322834646,
          "duration": 0.056250000000005684
        },
        {
          "name": "B5",
          "midi": 83,
          "time": 145.200000000001,
          "velocity": 0.44881889763779526,
          "duration": 0.056250000000005684
        },
        {
          "name": "C2",
          "midi": 36,
          "time": 145.200000000001,
          "velocity": 0.7874015748031497,
          "duration": 0.056250000000005684
        },
        {
          "name": "G#2",
          "midi": 44,
          "time": 145.800000000001,
          "velocity": 0.9921259842519685,
          "duration": 0.056250000000005684
        },
        {
          "name": "B3",
          "midi": 59,
          "time": 145.800000000001,
          "velocity": 0.9212598425196851,
          "duration": 0.056250000000005684
        },
        {
          "name": "B5",
          "midi": 83,
          "time": 145.800000000001,
          "velocity": 0.44881889763779526,
          "duration": 0.056250000000005684
        },
        {
          "name": "C#2",
          "midi": 37,
          "time": 145.800000000001,
          "velocity": 0.7322834645669292,
          "duration": 0.056250000000005684
        },
        {
          "name": "C2",
          "midi": 36,
          "time": 146.200000000001,
          "velocity": 0.7874015748031497,
          "duration": 0.056250000000005684
        },
        {
          "name": "B3",
          "midi": 59,
          "time": 146.40000000000103,
          "velocity": 0.9212598425196851,
          "duration": 0.056250000000005684
        },
        {
          "name": "B5",
          "midi": 83,
          "time": 146.40000000000103,
          "velocity": 0.4409448818897638,
          "duration": 0.056250000000005684
        },
        {
          "name": "C2",
          "midi": 36,
          "time": 146.40000000000103,
          "velocity": 0.7874015748031497,
          "duration": 0.056250000000005684
        },
        {
          "name": "B5",
          "midi": 83,
          "time": 147.00000000000102,
          "velocity": 0.44881889763779526,
          "duration": 0.056250000000005684
        },
        {
          "name": "C2",
          "midi": 36,
          "time": 147.00000000000102,
          "velocity": 0.7874015748031497,
          "duration": 0.056250000000005684
        },
        {
          "name": "B3",
          "midi": 59,
          "time": 147.00000000000102,
          "velocity": 0.905511811023622,
          "duration": 0.056250000000005684
        },
        {
          "name": "G#2",
          "midi": 44,
          "time": 147.00000000000102,
          "velocity": 0.9921259842519685,
          "duration": 0.056250000000005684
        },
        {
          "name": "C#2",
          "midi": 37,
          "time": 147.00000000000102,
          "velocity": 0.6929133858267716,
          "duration": 0.056250000000005684
        },
        {
          "name": "B3",
          "midi": 59,
          "time": 147.60000000000102,
          "velocity": 0.9212598425196851,
          "duration": 0.056250000000005684
        },
        {
          "name": "B5",
          "midi": 83,
          "time": 147.60000000000102,
          "velocity": 0.4566929133858268,
          "duration": 0.056250000000005684
        },
        {
          "name": "C2",
          "midi": 36,
          "time": 147.60000000000102,
          "velocity": 0.7874015748031497,
          "duration": 0.056250000000005684
        },
        {
          "name": "B5",
          "midi": 83,
          "time": 148.200000000001,
          "velocity": 0.4409448818897638,
          "duration": 0.056250000000005684
        },
        {
          "name": "B3",
          "midi": 59,
          "time": 148.200000000001,
          "velocity": 0.8818897637795275,
          "duration": 0.056250000000005684
        },
        {
          "name": "G#2",
          "midi": 44,
          "time": 148.200000000001,
          "velocity": 0.9921259842519685,
          "duration": 0.056250000000005684
        },
        {
          "name": "C#2",
          "midi": 37,
          "time": 148.200000000001,
          "velocity": 0.7086614173228346,
          "duration": 0.056250000000005684
        },
        {
          "name": "B3",
          "midi": 59,
          "time": 148.60000000000102,
          "velocity": 0.8582677165354331,
          "duration": 0.056250000000005684
        },
        {
          "name": "B3",
          "midi": 59,
          "time": 148.80000000000103,
          "velocity": 0.84251968503937,
          "duration": 0.056250000000005684
        },
        {
          "name": "B5",
          "midi": 83,
          "time": 148.80000000000103,
          "velocity": 0.4566929133858268,
          "duration": 0.056250000000005684
        },
        {
          "name": "C2",
          "midi": 36,
          "time": 148.80000000000103,
          "velocity": 0.7874015748031497,
          "duration": 0.056250000000005684
        },
        {
          "name": "B5",
          "midi": 83,
          "time": 149.40000000000103,
          "velocity": 0.4566929133858268,
          "duration": 0.056250000000005684
        },
        {
          "name": "B3",
          "midi": 59,
          "time": 149.40000000000103,
          "velocity": 0.9212598425196851,
          "duration": 0.056250000000005684
        },
        {
          "name": "G#2",
          "midi": 44,
          "time": 149.40000000000103,
          "velocity": 0.9921259842519685,
          "duration": 0.056250000000005684
        },
        {
          "name": "C#2",
          "midi": 37,
          "time": 149.40000000000103,
          "velocity": 0.6692913385826772,
          "duration": 0.056250000000005684
        },
        {
          "name": "B3",
          "midi": 59,
          "time": 149.80000000000103,
          "velocity": 0.8503937007874016,
          "duration": 0.056250000000005684
        },
        {
          "name": "B5",
          "midi": 83,
          "time": 150.00000000000105,
          "velocity": 0.44881889763779526,
          "duration": 0.056250000000005684
        },
        {
          "name": "C2",
          "midi": 36,
          "time": 150.00000000000105,
          "velocity": 0.7874015748031497,
          "duration": 0.056250000000005684
        },
        {
          "name": "B3",
          "midi": 59,
          "time": 150.00000000000105,
          "velocity": 0.8110236220472441,
          "duration": 0.056250000000005684
        },
        {
          "name": "B5",
          "midi": 83,
          "time": 150.60000000000105,
          "velocity": 0.44881889763779526,
          "duration": 0.056250000000005684
        },
        {
          "name": "B3",
          "midi": 59,
          "time": 150.60000000000105,
          "velocity": 0.9133858267716536,
          "duration": 0.056250000000005684
        },
        {
          "name": "C#2",
          "midi": 37,
          "time": 150.60000000000105,
          "velocity": 0.7401574803149606,
          "duration": 0.056250000000005684
        },
        {
          "name": "G#2",
          "midi": 44,
          "time": 150.60000000000105,
          "velocity": 0.9921259842519685,
          "duration": 0.056250000000005684
        },
        {
          "name": "C2",
          "midi": 36,
          "time": 151.00000000000105,
          "velocity": 0.7874015748031497,
          "duration": 0.056250000000005684
        },
        {
          "name": "B3",
          "midi": 59,
          "time": 151.00000000000105,
          "velocity": 0.8188976377952756,
          "duration": 0.056250000000005684
        },
        {
          "name": "B3",
          "midi": 59,
          "time": 151.20000000000107,
          "velocity": 0.8346456692913385,
          "duration": 0.056250000000005684
        },
        {
          "name": "B5",
          "midi": 83,
          "time": 151.20000000000107,
          "velocity": 0.4409448818897638,
          "duration": 0.056250000000005684
        },
        {
          "name": "C2",
          "midi": 36,
          "time": 151.20000000000107,
          "velocity": 0.7874015748031497,
          "duration": 0.056250000000005684
        },
        {
          "name": "B3",
          "midi": 59,
          "time": 151.60000000000107,
          "velocity": 0.8740157480314961,
          "duration": 0.056250000000005684
        },
        {
          "name": "B5",
          "midi": 83,
          "time": 151.8000000000011,
          "velocity": 0.4409448818897638,
          "duration": 0.056250000000005684
        },
        {
          "name": "B3",
          "midi": 59,
          "time": 151.8000000000011,
          "velocity": 0.9212598425196851,
          "duration": 0.056250000000005684
        },
        {
          "name": "G#2",
          "midi": 44,
          "time": 151.8000000000011,
          "velocity": 1,
          "duration": 0.056250000000005684
        },
        {
          "name": "C#2",
          "midi": 37,
          "time": 151.8000000000011,
          "velocity": 0.6456692913385826,
          "duration": 0.056250000000005684
        },
        {
          "name": "C2",
          "midi": 36,
          "time": 152.0000000000011,
          "velocity": 0.7874015748031497,
          "duration": 0.056250000000005684
        },
        {
          "name": "B3",
          "midi": 59,
          "time": 152.20000000000113,
          "velocity": 0.5433070866141733,
          "duration": 0.056250000000005684
        },
        {
          "name": "C2",
          "midi": 36,
          "time": 152.20000000000113,
          "velocity": 0.7874015748031497,
          "duration": 0.056250000000005684
        },
        {
          "name": "B3",
          "midi": 59,
          "time": 152.40000000000114,
          "velocity": 0.889763779527559,
          "duration": 0.056250000000005684
        },
        {
          "name": "B5",
          "midi": 83,
          "time": 152.40000000000114,
          "velocity": 0.4566929133858268,
          "duration": 0.056250000000005684
        },
        {
          "name": "C2",
          "midi": 36,
          "time": 152.40000000000114,
          "velocity": 0.7874015748031497,
          "duration": 0.056250000000005684
        },
        {
          "name": "B3",
          "midi": 59,
          "time": 153.00000000000114,
          "velocity": 0.9212598425196851,
          "duration": 0.056250000000005684
        },
        {
          "name": "C#2",
          "midi": 37,
          "time": 153.00000000000114,
          "velocity": 0.7165354330708661,
          "duration": 0.056250000000005684
        },
        {
          "name": "B5",
          "midi": 83,
          "time": 153.00000000000114,
          "velocity": 0.4566929133858268,
          "duration": 0.056250000000005684
        },
        {
          "name": "G#2",
          "midi": 44,
          "time": 153.00000000000114,
          "velocity": 0.9921259842519685,
          "duration": 0.056250000000005684
        },
        {
          "name": "B3",
          "midi": 59,
          "time": 153.40000000000114,
          "velocity": 0.8818897637795275,
          "duration": 0.056250000000005684
        },
        {
          "name": "C2",
          "midi": 36,
          "time": 153.40000000000114,
          "velocity": 0.7874015748031497,
          "duration": 0.056250000000005684
        },
        {
          "name": "B3",
          "midi": 59,
          "time": 153.60000000000116,
          "velocity": 0.8740157480314961,
          "duration": 0.056250000000005684
        },
        {
          "name": "B5",
          "midi": 83,
          "time": 153.60000000000116,
          "velocity": 0.44881889763779526,
          "duration": 0.056250000000005684
        },
        {
          "name": "C2",
          "midi": 36,
          "time": 153.60000000000116,
          "velocity": 0.7874015748031497,
          "duration": 0.056250000000005684
        },
        {
          "name": "B5",
          "midi": 83,
          "time": 154.20000000000115,
          "velocity": 0.4409448818897638,
          "duration": 0.056250000000005684
        },
        {
          "name": "B3",
          "midi": 59,
          "time": 154.20000000000115,
          "velocity": 0.9212598425196851,
          "duration": 0.056250000000005684
        },
        {
          "name": "G#2",
          "midi": 44,
          "time": 154.20000000000115,
          "velocity": 0.9921259842519685,
          "duration": 0.056250000000005684
        },
        {
          "name": "C#2",
          "midi": 37,
          "time": 154.20000000000115,
          "velocity": 0.7007874015748031,
          "duration": 0.056250000000005684
        },
        {
          "name": "B3",
          "midi": 59,
          "time": 154.60000000000116,
          "velocity": 0.7401574803149606,
          "duration": 0.056250000000005684
        },
        {
          "name": "B3",
          "midi": 59,
          "time": 154.80000000000118,
          "velocity": 0.8818897637795275,
          "duration": 0.056250000000005684
        },
        {
          "name": "B5",
          "midi": 83,
          "time": 154.80000000000118,
          "velocity": 0.44881889763779526,
          "duration": 0.056250000000005684
        },
        {
          "name": "C2",
          "midi": 36,
          "time": 154.80000000000118,
          "velocity": 0.7874015748031497,
          "duration": 0.056250000000005684
        },
        {
          "name": "B3",
          "midi": 59,
          "time": 155.20000000000118,
          "velocity": 0.8661417322834646,
          "duration": 0.056250000000005684
        },
        {
          "name": "C2",
          "midi": 36,
          "time": 155.20000000000118,
          "velocity": 0.7874015748031497,
          "duration": 0.056250000000005684
        },
        {
          "name": "B3",
          "midi": 59,
          "time": 155.4000000000012,
          "velocity": 0.8976377952755905,
          "duration": 0.056250000000005684
        },
        {
          "name": "B5",
          "midi": 83,
          "time": 155.4000000000012,
          "velocity": 0.4409448818897638,
          "duration": 0.056250000000005684
        },
        {
          "name": "G#2",
          "midi": 44,
          "time": 155.4000000000012,
          "velocity": 0.9921259842519685,
          "duration": 0.056250000000005684
        },
        {
          "name": "C#2",
          "midi": 37,
          "time": 155.4000000000012,
          "velocity": 0.7244094488188977,
          "duration": 0.056250000000005684
        },
        {
          "name": "B3",
          "midi": 59,
          "time": 155.8000000000012,
          "velocity": 0.8110236220472441,
          "duration": 0.056250000000005684
        },
        {
          "name": "C2",
          "midi": 36,
          "time": 155.8000000000012,
          "velocity": 0.7874015748031497,
          "duration": 0.056250000000005684
        },
        {
          "name": "B3",
          "midi": 59,
          "time": 156.00000000000122,
          "velocity": 0.905511811023622,
          "duration": 0.056250000000005684
        },
        {
          "name": "B5",
          "midi": 83,
          "time": 156.00000000000122,
          "velocity": 0.44881889763779526,
          "duration": 0.056250000000005684
        },
        {
          "name": "C2",
          "midi": 36,
          "time": 156.00000000000122,
          "velocity": 0.7874015748031497,
          "duration": 0.056250000000005684
        },
        {
          "name": "B3",
          "midi": 59,
          "time": 156.40000000000123,
          "velocity": 0.8661417322834646,
          "duration": 0.056250000000005684
        },
        {
          "name": "C#2",
          "midi": 37,
          "time": 156.40000000000123,
          "velocity": 0.7401574803149606,
          "duration": 0.056250000000005684
        },
        {
          "name": "B3",
          "midi": 59,
          "time": 156.60000000000124,
          "velocity": 0.9212598425196851,
          "duration": 0.056250000000005684
        },
        {
          "name": "B5",
          "midi": 83,
          "time": 156.60000000000124,
          "velocity": 0.4409448818897638,
          "duration": 0.056250000000005684
        },
        {
          "name": "C2",
          "midi": 36,
          "time": 156.60000000000124,
          "velocity": 0.7874015748031497,
          "duration": 0.056250000000005684
        },
        {
          "name": "G#2",
          "midi": 44,
          "time": 156.60000000000124,
          "velocity": 0.9921259842519685,
          "duration": 0.056250000000005684
        },
        {
          "name": "B3",
          "midi": 59,
          "time": 157.00000000000125,
          "velocity": 0.7559055118110236,
          "duration": 0.056250000000005684
        },
        {
          "name": "C#2",
          "midi": 37,
          "time": 157.00000000000125,
          "velocity": 0.6692913385826772,
          "duration": 0.056250000000005684
        },
        {
          "name": "B3",
          "midi": 59,
          "time": 157.20000000000127,
          "velocity": 0.952755905511811,
          "duration": 0.056250000000005684
        },
        {
          "name": "B5",
          "midi": 83,
          "time": 157.20000000000127,
          "velocity": 0.4566929133858268,
          "duration": 0.056250000000005684
        },
        {
          "name": "C2",
          "midi": 36,
          "time": 157.20000000000127,
          "velocity": 0.7874015748031497,
          "duration": 0.056250000000005684
        },
        {
          "name": "C#2",
          "midi": 37,
          "time": 157.80000000000126,
          "velocity": 0.7244094488188977,
          "duration": 0.056250000000005684
        },
        {
          "name": "B5",
          "midi": 83,
          "time": 157.80000000000126,
          "velocity": 0.44881889763779526,
          "duration": 0.056250000000005684
        },
        {
          "name": "G#2",
          "midi": 44,
          "time": 157.80000000000126,
          "velocity": 0.984251968503937,
          "duration": 0.056250000000005684
        },
        {
          "name": "B3",
          "midi": 59,
          "time": 157.80000000000126,
          "velocity": 0.9133858267716536,
          "duration": 0.056250000000005684
        },
        {
          "name": "C2",
          "midi": 36,
          "time": 158.20000000000127,
          "velocity": 0.7874015748031497,
          "duration": 0.056250000000005684
        },
        {
          "name": "B3",
          "midi": 59,
          "time": 158.20000000000127,
          "velocity": 0.8818897637795275,
          "duration": 0.056250000000005684
        },
        {
          "name": "B5",
          "midi": 83,
          "time": 158.40000000000128,
          "velocity": 0.44881889763779526,
          "duration": 0.056250000000005684
        },
        {
          "name": "C2",
          "midi": 36,
          "time": 158.40000000000128,
          "velocity": 0.7874015748031497,
          "duration": 0.056250000000005684
        },
        {
          "name": "B3",
          "midi": 59,
          "time": 158.40000000000128,
          "velocity": 0.905511811023622,
          "duration": 0.056250000000005684
        },
        {
          "name": "B5",
          "midi": 83,
          "time": 159.00000000000128,
          "velocity": 0.44881889763779526,
          "duration": 0.056250000000005684
        },
        {
          "name": "C#2",
          "midi": 37,
          "time": 159.00000000000128,
          "velocity": 0.7322834645669292,
          "duration": 0.056250000000005684
        },
        {
          "name": "B3",
          "midi": 59,
          "time": 159.00000000000128,
          "velocity": 0.8976377952755905,
          "duration": 0.056250000000005684
        },
        {
          "name": "G#2",
          "midi": 44,
          "time": 159.00000000000128,
          "velocity": 0.9921259842519685,
          "duration": 0.056250000000005684
        },
        {
          "name": "B3",
          "midi": 59,
          "time": 159.40000000000128,
          "velocity": 0.8582677165354331,
          "duration": 0.056250000000005684
        },
        {
          "name": "B3",
          "midi": 59,
          "time": 159.6000000000013,
          "velocity": 0.9212598425196851,
          "duration": 0.056250000000005684
        },
        {
          "name": "B5",
          "midi": 83,
          "time": 159.6000000000013,
          "velocity": 0.44881889763779526,
          "duration": 0.056250000000005684
        },
        {
          "name": "C2",
          "midi": 36,
          "time": 159.6000000000013,
          "velocity": 0.7874015748031497,
          "duration": 0.056250000000005684
        },
        {
          "name": "B3",
          "midi": 59,
          "time": 160.2000000000013,
          "velocity": 0.8740157480314961,
          "duration": 0.056250000000005684
        },
        {
          "name": "B5",
          "midi": 83,
          "time": 160.2000000000013,
          "velocity": 0.4566929133858268,
          "duration": 0.056250000000005684
        },
        {
          "name": "C#2",
          "midi": 37,
          "time": 160.2000000000013,
          "velocity": 0.7401574803149606,
          "duration": 0.056250000000005684
        },
        {
          "name": "G#2",
          "midi": 44,
          "time": 160.2000000000013,
          "velocity": 0.9921259842519685,
          "duration": 0.056250000000005684
        },
        {
          "name": "C2",
          "midi": 36,
          "time": 160.4000000000013,
          "velocity": 0.7874015748031497,
          "duration": 0.056250000000005684
        },
        {
          "name": "B3",
          "midi": 59,
          "time": 160.60000000000133,
          "velocity": 0.8582677165354331,
          "duration": 0.056250000000005684
        },
        {
          "name": "C2",
          "midi": 36,
          "time": 160.60000000000133,
          "velocity": 0.7874015748031497,
          "duration": 0.056250000000005684
        },
        {
          "name": "B3",
          "midi": 59,
          "time": 160.80000000000135,
          "velocity": 0.8346456692913385,
          "duration": 0.056250000000005684
        },
        {
          "name": "B5",
          "midi": 83,
          "time": 160.80000000000135,
          "velocity": 0.44881889763779526,
          "duration": 0.056250000000005684
        },
        {
          "name": "C2",
          "midi": 36,
          "time": 160.80000000000135,
          "velocity": 0.7874015748031497,
          "duration": 0.056250000000005684
        },
        {
          "name": "B3",
          "midi": 59,
          "time": 161.20000000000135,
          "velocity": 0.889763779527559,
          "duration": 0.056250000000005684
        },
        {
          "name": "C2",
          "midi": 36,
          "time": 161.20000000000135,
          "velocity": 0.7874015748031497,
          "duration": 0.056250000000005684
        },
        {
          "name": "C#2",
          "midi": 37,
          "time": 161.20000000000135,
          "velocity": 0.7322834645669292,
          "duration": 0.056250000000005684
        },
        {
          "name": "B3",
          "midi": 59,
          "time": 161.40000000000137,
          "velocity": 0.889763779527559,
          "duration": 0.056250000000005684
        },
        {
          "name": "G#2",
          "midi": 44,
          "time": 161.40000000000137,
          "velocity": 0.9921259842519685,
          "duration": 0.056250000000005684
        },
        {
          "name": "B5",
          "midi": 83,
          "time": 161.40000000000137,
          "velocity": 0.4566929133858268,
          "duration": 0.056250000000005684
        },
        {
          "name": "C2",
          "midi": 36,
          "time": 161.40000000000137,
          "velocity": 0.7874015748031497,
          "duration": 0.056250000000005684
        },
        {
          "name": "C#2",
          "midi": 37,
          "time": 161.80000000000138,
          "velocity": 0.7559055118110236,
          "duration": 0.056250000000005684
        },
        {
          "name": "B3",
          "midi": 59,
          "time": 161.80000000000138,
          "velocity": 0.8346456692913385,
          "duration": 0.056250000000005684
        },
        {
          "name": "B5",
          "midi": 83,
          "time": 162.0000000000014,
          "velocity": 0.44881889763779526,
          "duration": 0.056250000000005684
        },
        {
          "name": "C2",
          "midi": 36,
          "time": 162.0000000000014,
          "velocity": 0.7874015748031497,
          "duration": 0.056250000000005684
        },
        {
          "name": "B3",
          "midi": 59,
          "time": 162.0000000000014,
          "velocity": 0.937007874015748,
          "duration": 0.056250000000005684
        },
        {
          "name": "B5",
          "midi": 83,
          "time": 162.6000000000014,
          "velocity": 0.4566929133858268,
          "duration": 0.056250000000005684
        },
        {
          "name": "G#2",
          "midi": 44,
          "time": 162.6000000000014,
          "velocity": 0.9921259842519685,
          "duration": 0.056250000000005684
        },
        {
          "name": "B3",
          "midi": 59,
          "time": 162.6000000000014,
          "velocity": 0.9212598425196851,
          "duration": 0.056250000000005684
        },
        {
          "name": "C#2",
          "midi": 37,
          "time": 162.6000000000014,
          "velocity": 0.7244094488188977,
          "duration": 0.056250000000005684
        },
        {
          "name": "B3",
          "midi": 59,
          "time": 163.0000000000014,
          "velocity": 0.8267716535433071,
          "duration": 0.056250000000005684
        },
        {
          "name": "C2",
          "midi": 36,
          "time": 163.0000000000014,
          "velocity": 0.7874015748031497,
          "duration": 0.056250000000005684
        },
        {
          "name": "B3",
          "midi": 59,
          "time": 163.2000000000014,
          "velocity": 0.889763779527559,
          "duration": 0.056250000000005684
        },
        {
          "name": "B5",
          "midi": 83,
          "time": 163.2000000000014,
          "velocity": 0.44881889763779526,
          "duration": 0.056250000000005684
        },
        {
          "name": "C2",
          "midi": 36,
          "time": 163.2000000000014,
          "velocity": 0.7874015748031497,
          "duration": 0.056250000000005684
        },
        {
          "name": "G#2",
          "midi": 44,
          "time": 163.8000000000014,
          "velocity": 0.9921259842519685,
          "duration": 0.056250000000005684
        },
        {
          "name": "C#2",
          "midi": 37,
          "time": 163.8000000000014,
          "velocity": 0.7322834645669292,
          "duration": 0.056250000000005684
        },
        {
          "name": "B5",
          "midi": 83,
          "time": 163.8000000000014,
          "velocity": 0.4566929133858268,
          "duration": 0.056250000000005684
        },
        {
          "name": "B3",
          "midi": 59,
          "time": 163.8000000000014,
          "velocity": 0.9212598425196851,
          "duration": 0.056250000000005684
        },
        {
          "name": "B3",
          "midi": 59,
          "time": 164.2000000000014,
          "velocity": 0.8503937007874016,
          "duration": 0.056250000000005684
        },
        {
          "name": "B3",
          "midi": 59,
          "time": 164.40000000000143,
          "velocity": 0.8818897637795275,
          "duration": 0.056250000000005684
        },
        {
          "name": "B5",
          "midi": 83,
          "time": 164.40000000000143,
          "velocity": 0.4566929133858268,
          "duration": 0.056250000000005684
        },
        {
          "name": "C2",
          "midi": 36,
          "time": 164.40000000000143,
          "velocity": 0.7874015748031497,
          "duration": 0.056250000000005684
        },
        {
          "name": "B3",
          "midi": 59,
          "time": 165.00000000000142,
          "velocity": 0.9212598425196851,
          "duration": 0.056250000000005684
        },
        {
          "name": "B5",
          "midi": 83,
          "time": 165.00000000000142,
          "velocity": 0.44881889763779526,
          "duration": 0.056250000000005684
        },
        {
          "name": "G#2",
          "midi": 44,
          "time": 165.00000000000142,
          "velocity": 0.9921259842519685,
          "duration": 0.056250000000005684
        },
        {
          "name": "C#2",
          "midi": 37,
          "time": 165.00000000000142,
          "velocity": 0.6929133858267716,
          "duration": 0.056250000000005684
        },
        {
          "name": "B3",
          "midi": 59,
          "time": 165.40000000000143,
          "velocity": 0.8976377952755905,
          "duration": 0.056250000000005684
        },
        {
          "name": "C2",
          "midi": 36,
          "time": 165.40000000000143,
          "velocity": 0.7874015748031497,
          "duration": 0.056250000000005684
        },
        {
          "name": "B3",
          "midi": 59,
          "time": 165.60000000000144,
          "velocity": 0.8346456692913385,
          "duration": 0.056250000000005684
        },
        {
          "name": "B5",
          "midi": 83,
          "time": 165.60000000000144,
          "velocity": 0.44881889763779526,
          "duration": 0.056250000000005684
        },
        {
          "name": "C2",
          "midi": 36,
          "time": 165.60000000000144,
          "velocity": 0.7874015748031497,
          "duration": 0.056250000000005684
        },
        {
          "name": "B3",
          "midi": 59,
          "time": 166.00000000000145,
          "velocity": 0.8740157480314961,
          "duration": 0.056250000000005684
        },
        {
          "name": "C2",
          "midi": 36,
          "time": 166.00000000000145,
          "velocity": 0.7874015748031497,
          "duration": 0.056250000000005684
        },
        {
          "name": "B3",
          "midi": 59,
          "time": 166.20000000000147,
          "velocity": 0.8582677165354331,
          "duration": 0.056250000000005684
        },
        {
          "name": "C#2",
          "midi": 37,
          "time": 166.20000000000147,
          "velocity": 0.7086614173228346,
          "duration": 0.056250000000005684
        },
        {
          "name": "B5",
          "midi": 83,
          "time": 166.20000000000147,
          "velocity": 0.4566929133858268,
          "duration": 0.056250000000005684
        },
        {
          "name": "G#2",
          "midi": 44,
          "time": 166.20000000000147,
          "velocity": 0.9921259842519685,
          "duration": 0.056250000000005684
        },
        {
          "name": "B3",
          "midi": 59,
          "time": 166.60000000000147,
          "velocity": 0.8582677165354331,
          "duration": 0.056250000000005684
        },
        {
          "name": "C2",
          "midi": 36,
          "time": 166.60000000000147,
          "velocity": 0.7874015748031497,
          "duration": 0.056250000000005684
        },
        {
          "name": "B3",
          "midi": 59,
          "time": 166.8000000000015,
          "velocity": 0.84251968503937,
          "duration": 0.056250000000005684
        },
        {
          "name": "B5",
          "midi": 83,
          "time": 166.8000000000015,
          "velocity": 0.4566929133858268,
          "duration": 0.056250000000005684
        },
        {
          "name": "C2",
          "midi": 36,
          "time": 166.8000000000015,
          "velocity": 0.7874015748031497,
          "duration": 0.056250000000005684
        },
        {
          "name": "B3",
          "midi": 59,
          "time": 167.40000000000148,
          "velocity": 0.9212598425196851,
          "duration": 0.056250000000005684
        },
        {
          "name": "C#2",
          "midi": 37,
          "time": 167.40000000000148,
          "velocity": 0.7086614173228346,
          "duration": 0.056250000000005684
        },
        {
          "name": "G#2",
          "midi": 44,
          "time": 167.40000000000148,
          "velocity": 0.9921259842519685,
          "duration": 0.056250000000005684
        },
        {
          "name": "B5",
          "midi": 83,
          "time": 167.40000000000148,
          "velocity": 0.44881889763779526,
          "duration": 0.056250000000005684
        },
        {
          "name": "B3",
          "midi": 59,
          "time": 167.8000000000015,
          "velocity": 0.889763779527559,
          "duration": 0.056250000000005684
        },
        {
          "name": "C2",
          "midi": 36,
          "time": 167.8000000000015,
          "velocity": 0.7874015748031497,
          "duration": 0.056250000000005684
        },
        {
          "name": "B3",
          "midi": 59,
          "time": 168.0000000000015,
          "velocity": 0.84251968503937,
          "duration": 0.056250000000005684
        },
        {
          "name": "B5",
          "midi": 83,
          "time": 168.0000000000015,
          "velocity": 0.44881889763779526,
          "duration": 0.056250000000005684
        },
        {
          "name": "C2",
          "midi": 36,
          "time": 168.0000000000015,
          "velocity": 0.7874015748031497,
          "duration": 0.056250000000005684
        },
        {
          "name": "B3",
          "midi": 59,
          "time": 168.6000000000015,
          "velocity": 0.905511811023622,
          "duration": 0.056250000000005684
        },
        {
          "name": "C#2",
          "midi": 37,
          "time": 168.6000000000015,
          "velocity": 0.7165354330708661,
          "duration": 0.056250000000005684
        },
        {
          "name": "B5",
          "midi": 83,
          "time": 168.6000000000015,
          "velocity": 0.4409448818897638,
          "duration": 0.056250000000005684
        },
        {
          "name": "C2",
          "midi": 36,
          "time": 168.6000000000015,
          "velocity": 0.7874015748031497,
          "duration": 0.056250000000005684
        },
        {
          "name": "G#2",
          "midi": 44,
          "time": 168.6000000000015,
          "velocity": 0.9921259842519685,
          "duration": 0.056250000000005684
        },
        {
          "name": "B3",
          "midi": 59,
          "time": 169.0000000000015,
          "velocity": 0.8582677165354331,
          "duration": 0.056250000000005684
        },
        {
          "name": "B3",
          "midi": 59,
          "time": 169.20000000000152,
          "velocity": 0.8188976377952756,
          "duration": 0.056250000000005684
        },
        {
          "name": "B5",
          "midi": 83,
          "time": 169.20000000000152,
          "velocity": 0.44881889763779526,
          "duration": 0.056250000000005684
        },
        {
          "name": "C2",
          "midi": 36,
          "time": 169.20000000000152,
          "velocity": 0.7874015748031497,
          "duration": 0.056250000000005684
        },
        {
          "name": "B3",
          "midi": 59,
          "time": 169.80000000000152,
          "velocity": 0.8976377952755905,
          "duration": 0.056250000000005684
        },
        {
          "name": "C#2",
          "midi": 37,
          "time": 169.80000000000152,
          "velocity": 0.7322834645669292,
          "duration": 0.056250000000005684
        },
        {
          "name": "G#2",
          "midi": 44,
          "time": 169.80000000000152,
          "velocity": 0.9921259842519685,
          "duration": 0.056250000000005684
        },
        {
          "name": "B5",
          "midi": 83,
          "time": 169.80000000000152,
          "velocity": 0.44881889763779526,
          "duration": 0.056250000000005684
        },
        {
          "name": "C2",
          "midi": 36,
          "time": 169.80000000000152,
          "velocity": 0.7874015748031497,
          "duration": 0.056250000000005684
        },
        {
          "name": "B3",
          "midi": 59,
          "time": 170.20000000000152,
          "velocity": 0.8818897637795275,
          "duration": 0.056250000000005684
        },
        {
          "name": "B3",
          "midi": 59,
          "time": 170.40000000000154,
          "velocity": 0.8188976377952756,
          "duration": 0.056250000000005684
        },
        {
          "name": "B5",
          "midi": 83,
          "time": 170.40000000000154,
          "velocity": 0.44881889763779526,
          "duration": 0.056250000000005684
        },
        {
          "name": "C2",
          "midi": 36,
          "time": 170.40000000000154,
          "velocity": 0.7874015748031497,
          "duration": 0.056250000000005684
        },
        {
          "name": "B3",
          "midi": 59,
          "time": 170.80000000000155,
          "velocity": 0.8503937007874016,
          "duration": 0.056250000000005684
        },
        {
          "name": "C#2",
          "midi": 37,
          "time": 171.00000000000156,
          "velocity": 0.7165354330708661,
          "duration": 0.056250000000005684
        },
        {
          "name": "G#2",
          "midi": 44,
          "time": 171.00000000000156,
          "velocity": 0.9921259842519685,
          "duration": 0.056250000000005684
        },
        {
          "name": "B3",
          "midi": 59,
          "time": 171.00000000000156,
          "velocity": 0.8976377952755905,
          "duration": 0.056250000000005684
        },
        {
          "name": "B5",
          "midi": 83,
          "time": 171.00000000000156,
          "velocity": 0.4566929133858268,
          "duration": 0.056250000000005684
        },
        {
          "name": "C2",
          "midi": 36,
          "time": 171.00000000000156,
          "velocity": 0.7874015748031497,
          "duration": 0.056250000000005684
        },
        {
          "name": "B3",
          "midi": 59,
          "time": 171.40000000000157,
          "velocity": 0.8188976377952756,
          "duration": 0.056250000000005684
        },
        {
          "name": "B5",
          "midi": 83,
          "time": 171.6000000000016,
          "velocity": 0.4566929133858268,
          "duration": 0.056250000000005684
        },
        {
          "name": "C2",
          "midi": 36,
          "time": 171.6000000000016,
          "velocity": 0.7874015748031497,
          "duration": 0.056250000000005684
        },
        {
          "name": "B3",
          "midi": 59,
          "time": 171.6000000000016,
          "velocity": 0.8976377952755905,
          "duration": 0.056250000000005684
        },
        {
          "name": "B5",
          "midi": 83,
          "time": 172.20000000000158,
          "velocity": 0.4409448818897638,
          "duration": 0.056250000000005684
        },
        {
          "name": "C#2",
          "midi": 37,
          "time": 172.20000000000158,
          "velocity": 0.7401574803149606,
          "duration": 0.056250000000005684
        },
        {
          "name": "B3",
          "midi": 59,
          "time": 172.20000000000158,
          "velocity": 0.8976377952755905,
          "duration": 0.056250000000005684
        },
        {
          "name": "G#2",
          "midi": 44,
          "time": 172.20000000000158,
          "velocity": 0.9921259842519685,
          "duration": 0.056250000000005684
        },
        {
          "name": "B3",
          "midi": 59,
          "time": 172.6000000000016,
          "velocity": 0.8503937007874016,
          "duration": 0.056250000000005684
        },
        {
          "name": "C2",
          "midi": 36,
          "time": 172.6000000000016,
          "velocity": 0.7874015748031497,
          "duration": 0.056250000000005684
        },
        {
          "name": "B3",
          "midi": 59,
          "time": 172.8000000000016,
          "velocity": 0.8740157480314961,
          "duration": 0.056250000000005684
        },
        {
          "name": "B5",
          "midi": 83,
          "time": 172.8000000000016,
          "velocity": 0.4566929133858268,
          "duration": 0.056250000000005684
        },
        {
          "name": "C2",
          "midi": 36,
          "time": 172.8000000000016,
          "velocity": 0.7874015748031497,
          "duration": 0.056250000000005684
        },
        {
          "name": "B5",
          "midi": 83,
          "time": 173.4000000000016,
          "velocity": 0.4566929133858268,
          "duration": 0.056250000000005684
        },
        {
          "name": "C2",
          "midi": 36,
          "time": 173.4000000000016,
          "velocity": 0.7874015748031497,
          "duration": 0.056250000000005684
        },
        {
          "name": "C#2",
          "midi": 37,
          "time": 173.4000000000016,
          "velocity": 0.9212598425196851,
          "duration": 0.056250000000005684
        },
        {
          "name": "B3",
          "midi": 59,
          "time": 173.4000000000016,
          "velocity": 0.9133858267716536,
          "duration": 0.056250000000005684
        },
        {
          "name": "G#2",
          "midi": 44,
          "time": 173.4000000000016,
          "velocity": 0.9921259842519685,
          "duration": 0.056250000000005684
        },
        {
          "name": "B3",
          "midi": 59,
          "time": 173.8000000000016,
          "velocity": 0.8267716535433071,
          "duration": 0.056250000000005684
        },
        {
          "name": "B3",
          "midi": 59,
          "time": 174.00000000000162,
          "velocity": 0.8582677165354331,
          "duration": 0.056250000000005684
        },
        {
          "name": "B5",
          "midi": 83,
          "time": 174.00000000000162,
          "velocity": 0.4566929133858268,
          "duration": 0.056250000000005684
        },
        {
          "name": "C2",
          "midi": 36,
          "time": 174.00000000000162,
          "velocity": 0.7874015748031497,
          "duration": 0.056250000000005684
        },
        {
          "name": "C2",
          "midi": 36,
          "time": 174.40000000000163,
          "velocity": 0.7874015748031497,
          "duration": 0.056250000000005684
        },
        {
          "name": "B3",
          "midi": 59,
          "time": 174.60000000000164,
          "velocity": 0.889763779527559,
          "duration": 0.056250000000005684
        },
        {
          "name": "C#2",
          "midi": 37,
          "time": 174.60000000000164,
          "velocity": 0.9133858267716536,
          "duration": 0.056250000000005684
        },
        {
          "name": "B5",
          "midi": 83,
          "time": 174.60000000000164,
          "velocity": 0.44881889763779526,
          "duration": 0.056250000000005684
        },
        {
          "name": "G#2",
          "midi": 44,
          "time": 174.60000000000164,
          "velocity": 0.9921259842519685,
          "duration": 0.056250000000005684
        },
        {
          "name": "B3",
          "midi": 59,
          "time": 175.00000000000165,
          "velocity": 0.8976377952755905,
          "duration": 0.056250000000005684
        },
        {
          "name": "B3",
          "midi": 59,
          "time": 175.20000000000167,
          "velocity": 0.8346456692913385,
          "duration": 0.056250000000005684
        },
        {
          "name": "B5",
          "midi": 83,
          "time": 175.20000000000167,
          "velocity": 0.4409448818897638,
          "duration": 0.056250000000005684
        },
        {
          "name": "C2",
          "midi": 36,
          "time": 175.40000000000168,
          "velocity": 0.7874015748031497,
          "duration": 0.056250000000005684
        },
        {
          "name": "B3",
          "midi": 59,
          "time": 175.6000000000017,
          "velocity": 0.8503937007874016,
          "duration": 0.056250000000005684
        },
        {
          "name": "C2",
          "midi": 36,
          "time": 175.6000000000017,
          "velocity": 0.7874015748031497,
          "duration": 0.056250000000005684
        },
        {
          "name": "G#2",
          "midi": 44,
          "time": 175.80000000000172,
          "velocity": 0.9921259842519685,
          "duration": 0.056250000000005684
        },
        {
          "name": "B3",
          "midi": 59,
          "time": 175.80000000000172,
          "velocity": 0.889763779527559,
          "duration": 0.056250000000005684
        },
        {
          "name": "C#2",
          "midi": 37,
          "time": 175.80000000000172,
          "velocity": 0.9212598425196851,
          "duration": 0.056250000000005684
        },
        {
          "name": "B5",
          "midi": 83,
          "time": 175.80000000000172,
          "velocity": 0.44881889763779526,
          "duration": 0.056250000000005684
        },
        {
          "name": "C2",
          "midi": 36,
          "time": 175.80000000000172,
          "velocity": 0.7874015748031497,
          "duration": 0.056250000000005684
        },
        {
          "name": "B3",
          "midi": 59,
          "time": 176.20000000000172,
          "velocity": 0.5826771653543307,
          "duration": 0.056250000000005684
        },
        {
          "name": "B3",
          "midi": 59,
          "time": 176.40000000000174,
          "velocity": 0.8976377952755905,
          "duration": 0.056250000000005684
        },
        {
          "name": "B5",
          "midi": 83,
          "time": 176.40000000000174,
          "velocity": 0.4566929133858268,
          "duration": 0.056250000000005684
        },
        {
          "name": "C2",
          "midi": 36,
          "time": 176.40000000000174,
          "velocity": 0.7874015748031497,
          "duration": 0.056250000000005684
        },
        {
          "name": "C#2",
          "midi": 37,
          "time": 177.00000000000173,
          "velocity": 0.6771653543307087,
          "duration": 0.056250000000005684
        },
        {
          "name": "B3",
          "midi": 59,
          "time": 177.00000000000173,
          "velocity": 0.905511811023622,
          "duration": 0.056250000000005684
        },
        {
          "name": "G#2",
          "midi": 44,
          "time": 177.00000000000173,
          "velocity": 0.968503937007874,
          "duration": 0.056250000000005684
        },
        {
          "name": "B5",
          "midi": 83,
          "time": 177.00000000000173,
          "velocity": 0.44881889763779526,
          "duration": 0.056250000000005684
        },
        {
          "name": "B3",
          "midi": 59,
          "time": 177.40000000000174,
          "velocity": 0.8582677165354331,
          "duration": 0.056250000000005684
        },
        {
          "name": "C2",
          "midi": 36,
          "time": 177.40000000000174,
          "velocity": 0.7874015748031497,
          "duration": 0.056250000000005684
        },
        {
          "name": "B3",
          "midi": 59,
          "time": 177.60000000000176,
          "velocity": 0.8503937007874016,
          "duration": 0.056250000000005684
        },
        {
          "name": "B5",
          "midi": 83,
          "time": 177.60000000000176,
          "velocity": 0.4566929133858268,
          "duration": 0.056250000000005684
        },
        {
          "name": "C2",
          "midi": 36,
          "time": 177.60000000000176,
          "velocity": 0.7874015748031497,
          "duration": 0.056250000000005684
        },
        {
          "name": "B3",
          "midi": 59,
          "time": 178.20000000000175,
          "velocity": 0.905511811023622,
          "duration": 0.056250000000005684
        },
        {
          "name": "G#2",
          "midi": 44,
          "time": 178.20000000000175,
          "velocity": 0.9921259842519685,
          "duration": 0.056250000000005684
        },
        {
          "name": "C#2",
          "midi": 37,
          "time": 178.20000000000175,
          "velocity": 0.968503937007874,
          "duration": 0.056250000000005684
        },
        {
          "name": "B5",
          "midi": 83,
          "time": 178.20000000000175,
          "velocity": 0.4566929133858268,
          "duration": 0.056250000000005684
        },
        {
          "name": "B3",
          "midi": 59,
          "time": 178.60000000000176,
          "velocity": 0.8503937007874016,
          "duration": 0.056250000000005684
        },
        {
          "name": "C2",
          "midi": 36,
          "time": 178.60000000000176,
          "velocity": 0.7874015748031497,
          "duration": 0.056250000000005684
        },
        {
          "name": "B3",
          "midi": 59,
          "time": 178.80000000000177,
          "velocity": 0.8503937007874016,
          "duration": 0.056250000000005684
        },
        {
          "name": "B5",
          "midi": 83,
          "time": 178.80000000000177,
          "velocity": 0.4409448818897638,
          "duration": 0.056250000000005684
        },
        {
          "name": "C2",
          "midi": 36,
          "time": 178.80000000000177,
          "velocity": 0.7874015748031497,
          "duration": 0.056250000000005684
        },
        {
          "name": "B3",
          "midi": 59,
          "time": 179.40000000000177,
          "velocity": 0.9133858267716536,
          "duration": 0.056250000000005684
        },
        {
          "name": "C#2",
          "midi": 37,
          "time": 179.40000000000177,
          "velocity": 0.9212598425196851,
          "duration": 0.056250000000005684
        },
        {
          "name": "B5",
          "midi": 83,
          "time": 179.40000000000177,
          "velocity": 0.44881889763779526,
          "duration": 0.056250000000005684
        },
        {
          "name": "C2",
          "midi": 36,
          "time": 179.40000000000177,
          "velocity": 0.7874015748031497,
          "duration": 0.056250000000005684
        },
        {
          "name": "G#2",
          "midi": 44,
          "time": 179.40000000000177,
          "velocity": 0.9921259842519685,
          "duration": 0.056250000000005684
        },
        {
          "name": "B3",
          "midi": 59,
          "time": 180.00000000000176,
          "velocity": 0.889763779527559,
          "duration": 0.056250000000005684
        },
        {
          "name": "B5",
          "midi": 83,
          "time": 180.00000000000176,
          "velocity": 0.44881889763779526,
          "duration": 0.056250000000005684
        },
        {
          "name": "C2",
          "midi": 36,
          "time": 180.00000000000176,
          "velocity": 0.7874015748031497,
          "duration": 0.056250000000005684
        },
        {
          "name": "B3",
          "midi": 59,
          "time": 180.60000000000176,
          "velocity": 0.8740157480314961,
          "duration": 0.056250000000005684
        },
        {
          "name": "B5",
          "midi": 83,
          "time": 180.60000000000176,
          "velocity": 0.4409448818897638,
          "duration": 0.056250000000005684
        },
        {
          "name": "C2",
          "midi": 36,
          "time": 180.60000000000176,
          "velocity": 0.7874015748031497,
          "duration": 0.056250000000005684
        },
        {
          "name": "G#2",
          "midi": 44,
          "time": 180.60000000000176,
          "velocity": 0.9212598425196851,
          "duration": 0.056250000000005684
        },
        {
          "name": "C#2",
          "midi": 37,
          "time": 180.60000000000176,
          "velocity": 0.952755905511811,
          "duration": 0.056250000000005684
        },
        {
          "name": "B3",
          "midi": 59,
          "time": 181.20000000000175,
          "velocity": 0.889763779527559,
          "duration": 0.056250000000005684
        },
        {
          "name": "B5",
          "midi": 83,
          "time": 181.20000000000175,
          "velocity": 0.4566929133858268,
          "duration": 0.056250000000005684
        },
        {
          "name": "C2",
          "midi": 36,
          "time": 181.20000000000175,
          "velocity": 0.7874015748031497,
          "duration": 0.056250000000005684
        },
        {
          "name": "B5",
          "midi": 83,
          "time": 181.80000000000175,
          "velocity": 0.4566929133858268,
          "duration": 0.056250000000005684
        },
        {
          "name": "C#2",
          "midi": 37,
          "time": 181.80000000000175,
          "velocity": 0.968503937007874,
          "duration": 0.056250000000005684
        },
        {
          "name": "B3",
          "midi": 59,
          "time": 181.80000000000175,
          "velocity": 0.8661417322834646,
          "duration": 0.056250000000005684
        },
        {
          "name": "G#2",
          "midi": 44,
          "time": 181.80000000000175,
          "velocity": 0.9921259842519685,
          "duration": 0.056250000000005684
        },
        {
          "name": "C2",
          "midi": 36,
          "time": 182.00000000000176,
          "velocity": 0.7874015748031497,
          "duration": 0.056250000000005684
        },
        {
          "name": "C2",
          "midi": 36,
          "time": 182.20000000000178,
          "velocity": 0.7874015748031497,
          "duration": 0.056250000000005684
        },
        {
          "name": "B3",
          "midi": 59,
          "time": 182.4000000000018,
          "velocity": 0.8582677165354331,
          "duration": 0.056250000000005684
        },
        {
          "name": "B5",
          "midi": 83,
          "time": 182.4000000000018,
          "velocity": 0.4409448818897638,
          "duration": 0.056250000000005684
        },
        {
          "name": "C2",
          "midi": 36,
          "time": 182.4000000000018,
          "velocity": 0.7874015748031497,
          "duration": 0.056250000000005684
        },
        {
          "name": "B3",
          "midi": 59,
          "time": 183.0000000000018,
          "velocity": 0.8818897637795275,
          "duration": 0.056250000000005684
        },
        {
          "name": "B5",
          "midi": 83,
          "time": 183.0000000000018,
          "velocity": 0.4566929133858268,
          "duration": 0.056250000000005684
        },
        {
          "name": "C#2",
          "midi": 37,
          "time": 183.0000000000018,
          "velocity": 0.968503937007874,
          "duration": 0.056250000000005684
        },
        {
          "name": "G#2",
          "midi": 44,
          "time": 183.0000000000018,
          "velocity": 0.9921259842519685,
          "duration": 0.056250000000005684
        },
        {
          "name": "C2",
          "midi": 36,
          "time": 183.4000000000018,
          "velocity": 0.7874015748031497,
          "duration": 0.056250000000005684
        },
        {
          "name": "B3",
          "midi": 59,
          "time": 183.6000000000018,
          "velocity": 0.889763779527559,
          "duration": 0.056250000000005684
        },
        {
          "name": "B5",
          "midi": 83,
          "time": 183.6000000000018,
          "velocity": 0.4409448818897638,
          "duration": 0.056250000000005684
        },
        {
          "name": "C2",
          "midi": 36,
          "time": 183.6000000000018,
          "velocity": 0.7874015748031497,
          "duration": 0.056250000000005684
        },
        {
          "name": "B5",
          "midi": 83,
          "time": 184.2000000000018,
          "velocity": 0.44881889763779526,
          "duration": 0.056250000000005684
        },
        {
          "name": "C#2",
          "midi": 37,
          "time": 184.2000000000018,
          "velocity": 0.984251968503937,
          "duration": 0.056250000000005684
        },
        {
          "name": "B3",
          "midi": 59,
          "time": 184.2000000000018,
          "velocity": 0.8661417322834646,
          "duration": 0.056250000000005684
        },
        {
          "name": "G#2",
          "midi": 44,
          "time": 184.2000000000018,
          "velocity": 0.968503937007874,
          "duration": 0.056250000000005684
        },
        {
          "name": "C2",
          "midi": 36,
          "time": 184.6000000000018,
          "velocity": 0.7874015748031497,
          "duration": 0.056250000000005684
        },
        {
          "name": "B3",
          "midi": 59,
          "time": 184.6000000000018,
          "velocity": 0.8346456692913385,
          "duration": 0.056250000000005684
        },
        {
          "name": "B5",
          "midi": 83,
          "time": 184.80000000000183,
          "velocity": 0.44881889763779526,
          "duration": 0.056250000000005684
        },
        {
          "name": "C2",
          "midi": 36,
          "time": 184.80000000000183,
          "velocity": 0.7874015748031497,
          "duration": 0.056250000000005684
        },
        {
          "name": "B3",
          "midi": 59,
          "time": 184.80000000000183,
          "velocity": 0.8740157480314961,
          "duration": 0.056250000000005684
        },
        {
          "name": "B5",
          "midi": 83,
          "time": 185.40000000000182,
          "velocity": 0.44881889763779526,
          "duration": 0.056250000000005684
        },
        {
          "name": "C#2",
          "midi": 37,
          "time": 185.40000000000182,
          "velocity": 0.937007874015748,
          "duration": 0.056250000000005684
        },
        {
          "name": "G#2",
          "midi": 44,
          "time": 185.40000000000182,
          "velocity": 1,
          "duration": 0.056250000000005684
        },
        {
          "name": "B3",
          "midi": 59,
          "time": 185.40000000000182,
          "velocity": 0.9133858267716536,
          "duration": 0.056250000000005684
        },
        {
          "name": "C2",
          "midi": 36,
          "time": 185.80000000000183,
          "velocity": 0.7874015748031497,
          "duration": 0.056250000000005684
        },
        {
          "name": "B5",
          "midi": 83,
          "time": 186.00000000000185,
          "velocity": 0.44881889763779526,
          "duration": 0.056250000000005684
        },
        {
          "name": "C2",
          "midi": 36,
          "time": 186.00000000000185,
          "velocity": 0.7874015748031497,
          "duration": 0.056250000000005684
        },
        {
          "name": "B3",
          "midi": 59,
          "time": 186.00000000000185,
          "velocity": 0.8818897637795275,
          "duration": 0.056250000000005684
        },
        {
          "name": "G#2",
          "midi": 44,
          "time": 186.60000000000184,
          "velocity": 0.9921259842519685,
          "duration": 0.056250000000005684
        },
        {
          "name": "B5",
          "midi": 83,
          "time": 186.60000000000184,
          "velocity": 0.44881889763779526,
          "duration": 0.056250000000005684
        },
        {
          "name": "B3",
          "midi": 59,
          "time": 186.60000000000184,
          "velocity": 0.889763779527559,
          "duration": 0.056250000000005684
        },
        {
          "name": "C#2",
          "midi": 37,
          "time": 186.60000000000184,
          "velocity": 0.968503937007874,
          "duration": 0.056250000000005684
        },
        {
          "name": "B3",
          "midi": 59,
          "time": 187.00000000000185,
          "velocity": 0.8188976377952756,
          "duration": 0.056250000000005684
        },
        {
          "name": "B5",
          "midi": 83,
          "time": 187.20000000000186,
          "velocity": 0.44881889763779526,
          "duration": 0.056250000000005684
        },
        {
          "name": "C2",
          "midi": 36,
          "time": 187.20000000000186,
          "velocity": 0.7874015748031497,
          "duration": 0.056250000000005684
        },
        {
          "name": "B3",
          "midi": 59,
          "time": 187.20000000000186,
          "velocity": 0.889763779527559,
          "duration": 0.056250000000005684
        },
        {
          "name": "B5",
          "midi": 83,
          "time": 187.80000000000186,
          "velocity": 0.4409448818897638,
          "duration": 0.056250000000005684
        },
        {
          "name": "C#2",
          "midi": 37,
          "time": 187.80000000000186,
          "velocity": 0.984251968503937,
          "duration": 0.056250000000005684
        },
        {
          "name": "G#2",
          "midi": 44,
          "time": 187.80000000000186,
          "velocity": 0.9921259842519685,
          "duration": 0.056250000000005684
        },
        {
          "name": "B3",
          "midi": 59,
          "time": 187.80000000000186,
          "velocity": 0.8818897637795275,
          "duration": 0.056250000000005684
        },
        {
          "name": "B5",
          "midi": 83,
          "time": 188.40000000000185,
          "velocity": 0.4330708661417323,
          "duration": 0.056250000000005684
        },
        {
          "name": "C2",
          "midi": 36,
          "time": 188.40000000000185,
          "velocity": 0.7874015748031497,
          "duration": 0.056250000000005684
        },
        {
          "name": "B3",
          "midi": 59,
          "time": 188.40000000000185,
          "velocity": 0.889763779527559,
          "duration": 0.056250000000005684
        },
        {
          "name": "B3",
          "midi": 59,
          "time": 189.00000000000185,
          "velocity": 0.8740157480314961,
          "duration": 0.056250000000005684
        },
        {
          "name": "G#2",
          "midi": 44,
          "time": 189.00000000000185,
          "velocity": 0.9921259842519685,
          "duration": 0.056250000000005684
        },
        {
          "name": "B5",
          "midi": 83,
          "time": 189.00000000000185,
          "velocity": 0.4566929133858268,
          "duration": 0.056250000000005684
        },
        {
          "name": "C#2",
          "midi": 37,
          "time": 189.00000000000185,
          "velocity": 0.9921259842519685,
          "duration": 0.056250000000005684
        },
        {
          "name": "B3",
          "midi": 59,
          "time": 189.60000000000184,
          "velocity": 0.889763779527559,
          "duration": 0.056250000000005684
        },
        {
          "name": "B5",
          "midi": 83,
          "time": 189.60000000000184,
          "velocity": 0.44881889763779526,
          "duration": 0.056250000000005684
        },
        {
          "name": "C2",
          "midi": 36,
          "time": 189.60000000000184,
          "velocity": 0.7874015748031497,
          "duration": 0.056250000000005684
        },
        {
          "name": "C#2",
          "midi": 37,
          "time": 190.20000000000184,
          "velocity": 0.968503937007874,
          "duration": 0.056250000000005684
        },
        {
          "name": "B5",
          "midi": 83,
          "time": 190.20000000000184,
          "velocity": 0.44881889763779526,
          "duration": 0.056250000000005684
        },
        {
          "name": "B3",
          "midi": 59,
          "time": 190.20000000000184,
          "velocity": 0.9212598425196851,
          "duration": 0.056250000000005684
        },
        {
          "name": "G#2",
          "midi": 44,
          "time": 190.20000000000184,
          "velocity": 0.9921259842519685,
          "duration": 0.056250000000005684
        },
        {
          "name": "C2",
          "midi": 36,
          "time": 190.60000000000184,
          "velocity": 0.7874015748031497,
          "duration": 0.056250000000005684
        },
        {
          "name": "B3",
          "midi": 59,
          "time": 190.60000000000184,
          "velocity": 0.8110236220472441,
          "duration": 0.056250000000005684
        },
        {
          "name": "B5",
          "midi": 83,
          "time": 190.80000000000186,
          "velocity": 0.44881889763779526,
          "duration": 0.056250000000005684
        },
        {
          "name": "C2",
          "midi": 36,
          "time": 190.80000000000186,
          "velocity": 0.7874015748031497,
          "duration": 0.056250000000005684
        },
        {
          "name": "B3",
          "midi": 59,
          "time": 190.80000000000186,
          "velocity": 0.8976377952755905,
          "duration": 0.056250000000005684
        },
        {
          "name": "B5",
          "midi": 83,
          "time": 191.40000000000185,
          "velocity": 0.44881889763779526,
          "duration": 0.056250000000005684
        },
        {
          "name": "G#2",
          "midi": 44,
          "time": 191.40000000000185,
          "velocity": 0.9921259842519685,
          "duration": 0.056250000000005684
        },
        {
          "name": "C#2",
          "midi": 37,
          "time": 191.40000000000185,
          "velocity": 0.952755905511811,
          "duration": 0.056250000000005684
        },
        {
          "name": "B3",
          "midi": 59,
          "time": 191.40000000000185,
          "velocity": 0.9133858267716536,
          "duration": 0.056250000000005684
        },
        {
          "name": "B3",
          "midi": 59,
          "time": 192.00000000000185,
          "velocity": 0.905511811023622,
          "duration": 0.056250000000005684
        },
        {
          "name": "B5",
          "midi": 83,
          "time": 192.00000000000185,
          "velocity": 0.4330708661417323,
          "duration": 0.056250000000005684
        },
        {
          "name": "C2",
          "midi": 36,
          "time": 192.00000000000185,
          "velocity": 0.7874015748031497,
          "duration": 0.056250000000005684
        },
        {
          "name": "C#2",
          "midi": 37,
          "time": 192.60000000000184,
          "velocity": 0.9921259842519685,
          "duration": 0.056250000000005684
        },
        {
          "name": "B5",
          "midi": 83,
          "time": 192.60000000000184,
          "velocity": 0.4330708661417323,
          "duration": 0.056250000000005684
        },
        {
          "name": "G#2",
          "midi": 44,
          "time": 192.60000000000184,
          "velocity": 1,
          "duration": 0.056250000000005684
        },
        {
          "name": "B3",
          "midi": 59,
          "time": 192.60000000000184,
          "velocity": 0.8976377952755905,
          "duration": 0.056250000000005684
        },
        {
          "name": "B5",
          "midi": 83,
          "time": 193.20000000000184,
          "velocity": 0.4566929133858268,
          "duration": 0.056250000000005684
        },
        {
          "name": "C2",
          "midi": 36,
          "time": 193.20000000000184,
          "velocity": 0.7874015748031497,
          "duration": 0.056250000000005684
        },
        {
          "name": "B3",
          "midi": 59,
          "time": 193.20000000000184,
          "velocity": 0.937007874015748,
          "duration": 0.056250000000005684
        },
        {
          "name": "C#2",
          "midi": 37,
          "time": 193.80000000000183,
          "velocity": 0.9921259842519685,
          "duration": 0.056250000000005684
        },
        {
          "name": "B5",
          "midi": 83,
          "time": 193.80000000000183,
          "velocity": 0.44881889763779526,
          "duration": 0.056250000000005684
        },
        {
          "name": "G#2",
          "midi": 44,
          "time": 193.80000000000183,
          "velocity": 0.9921259842519685,
          "duration": 0.056250000000005684
        },
        {
          "name": "B3",
          "midi": 59,
          "time": 194.20000000000184,
          "velocity": 0.937007874015748,
          "duration": 0.056250000000005684
        },
        {
          "name": "C2",
          "midi": 36,
          "time": 194.20000000000184,
          "velocity": 0.7874015748031497,
          "duration": 0.056250000000005684
        },
        {
          "name": "B5",
          "midi": 83,
          "time": 194.40000000000185,
          "velocity": 0.44881889763779526,
          "duration": 0.056250000000005684
        },
        {
          "name": "G#2",
          "midi": 44,
          "time": 195.00000000000185,
          "velocity": 0.984251968503937,
          "duration": 0.056250000000005684
        },
        {
          "name": "B5",
          "midi": 83,
          "time": 195.00000000000185,
          "velocity": 0.44881889763779526,
          "duration": 0.056250000000005684
        },
        {
          "name": "C#2",
          "midi": 37,
          "time": 195.00000000000185,
          "velocity": 0.9921259842519685,
          "duration": 0.056250000000005684
        },
        {
          "name": "B5",
          "midi": 83,
          "time": 195.60000000000184,
          "velocity": 0.44881889763779526,
          "duration": 0.056250000000005684
        },
        {
          "name": "G#2",
          "midi": 44,
          "time": 196.20000000000184,
          "velocity": 0.984251968503937,
          "duration": 0.056250000000005684
        },
        {
          "name": "B5",
          "midi": 83,
          "time": 196.20000000000184,
          "velocity": 0.4566929133858268,
          "duration": 0.056250000000005684
        },
        {
          "name": "B5",
          "midi": 83,
          "time": 196.80000000000183,
          "velocity": 0.41732283464566927,
          "duration": 0.056250000000005684
        },
        {
          "name": "G#2",
          "midi": 44,
          "time": 197.40000000000182,
          "velocity": 0.9921259842519685,
          "duration": 0.056250000000005684
        },
        {
          "name": "B5",
          "midi": 83,
          "time": 197.40000000000182,
          "velocity": 0.4566929133858268,
          "duration": 0.056250000000005684
        },
        {
          "name": "B5",
          "midi": 83,
          "time": 198.00000000000182,
          "velocity": 0.44881889763779526,
          "duration": 0.056250000000005684
        },
        {
          "name": "G#2",
          "midi": 44,
          "time": 198.6000000000018,
          "velocity": 0.9921259842519685,
          "duration": 0.056250000000005684
        },
        {
          "name": "B5",
          "midi": 83,
          "time": 198.6000000000018,
          "velocity": 0.44881889763779526,
          "duration": 0.056250000000005684
        },
        {
          "name": "B5",
          "midi": 83,
          "time": 199.2000000000018,
          "velocity": 0.4409448818897638,
          "duration": 0.056250000000005684
        },
        {
          "name": "B5",
          "midi": 83,
          "time": 199.8000000000018,
          "velocity": 0.44881889763779526,
          "duration": 0.056250000000005684
        },
        {
          "name": "G#2",
          "midi": 44,
          "time": 199.8000000000018,
          "velocity": 0.984251968503937,
          "duration": 0.056250000000005684
        },
        {
          "name": "B5",
          "midi": 83,
          "time": 200.4000000000018,
          "velocity": 0.44881889763779526,
          "duration": 0.056250000000005684
        },
        {
          "name": "B5",
          "midi": 83,
          "time": 201.0000000000018,
          "velocity": 0.4330708661417323,
          "duration": 0.056250000000005684
        },
        {
          "name": "C2",
          "midi": 36,
          "time": 201.4000000000018,
          "velocity": 0.5039370078740157,
          "duration": 0.056250000000005684
        },
        {
          "name": "B5",
          "midi": 83,
          "time": 201.6000000000018,
          "velocity": 0.4566929133858268,
          "duration": 0.056250000000005684
        }
      ],
      "controlChanges": {
        "7": [
          {
            "number": 7,
            "time": 0.6,
            "value": 0.7874015748031497
          }
        ],
        "10": [
          {
            "number": 10,
            "time": 0.6,
            "value": 0.5039370078740157
          }
        ],
        "91": [
          {
            "number": 91,
            "time": 0.6,
            "value": 0.5039370078740157
          }
        ],
        "93": [
          {
            "number": 93,
            "time": 0.6,
            "value": 0
          }
        ]
      },
      "id": 1,
      "name": "Jazz Drum Set",
      "instrumentNumber": 32,
      "instrument": "jazz kit",
      "instrumentFamily": "drums",
      "channelNumber": 9,
      "isPercussion": true
    },
    {
      "startTime": 32.4,
      "duration": 202.70625000000098,
      "length": 264,
      "notes": [
        {
          "name": "F1",
          "midi": 29,
          "time": 32.4,
          "velocity": 0.9448818897637795,
          "duration": 0.9312499999999986
        },
        {
          "name": "C2",
          "midi": 36,
          "time": 33.4,
          "velocity": 0.9448818897637795,
          "duration": 0.18124999999999858
        },
        {
          "name": "G1",
          "midi": 31,
          "time": 33.599999999999994,
          "velocity": 0.9448818897637795,
          "duration": 0.9312499999999986
        },
        {
          "name": "C2",
          "midi": 36,
          "time": 34.599999999999994,
          "velocity": 0.9448818897637795,
          "duration": 0.18124999999999858
        },
        {
          "name": "F1",
          "midi": 29,
          "time": 34.79999999999999,
          "velocity": 0.9448818897637795,
          "duration": 0.9312499999999986
        },
        {
          "name": "D#2",
          "midi": 39,
          "time": 35.79999999999999,
          "velocity": 0.9448818897637795,
          "duration": 0.18124999999999858
        },
        {
          "name": "D2",
          "midi": 38,
          "time": 35.999999999999986,
          "velocity": 0.9448818897637795,
          "duration": 0.5562499999999986
        },
        {
          "name": "G#2",
          "midi": 44,
          "time": 36.59999999999999,
          "velocity": 0.9448818897637795,
          "duration": 0.5562499999999986
        },
        {
          "name": "G2",
          "midi": 43,
          "time": 37.19999999999999,
          "velocity": 0.9448818897637795,
          "duration": 0.9312499999999986
        },
        {
          "name": "A#2",
          "midi": 46,
          "time": 38.19999999999999,
          "velocity": 0.9448818897637795,
          "duration": 0.18124999999999858
        },
        {
          "name": "C3",
          "midi": 48,
          "time": 38.399999999999984,
          "velocity": 0.9448818897637795,
          "duration": 0.3687499999999986
        },
        {
          "name": "G2",
          "midi": 43,
          "time": 38.79999999999998,
          "velocity": 0.9448818897637795,
          "duration": 0.18124999999999858
        },
        {
          "name": "C2",
          "midi": 36,
          "time": 38.99999999999998,
          "velocity": 0.9448818897637795,
          "duration": 0.5562499999999986
        },
        {
          "name": "F2",
          "midi": 41,
          "time": 39.59999999999998,
          "velocity": 0.9448818897637795,
          "duration": 0.9312499999999986
        },
        {
          "name": "A#2",
          "midi": 46,
          "time": 40.59999999999998,
          "velocity": 0.9448818897637795,
          "duration": 0.18124999999999858
        },
        {
          "name": "A2",
          "midi": 45,
          "time": 40.799999999999976,
          "velocity": 0.9448818897637795,
          "duration": 0.5562499999999986
        },
        {
          "name": "G2",
          "midi": 43,
          "time": 41.39999999999998,
          "velocity": 0.9448818897637795,
          "duration": 0.5562499999999986
        },
        {
          "name": "F2",
          "midi": 41,
          "time": 41.99999999999998,
          "velocity": 0.9448818897637795,
          "duration": 1.1187499999999986
        },
        {
          "name": "G2",
          "midi": 43,
          "time": 43.199999999999974,
          "velocity": 0.9448818897637795,
          "duration": 0.9312499999999986
        },
        {
          "name": "G2",
          "midi": 43,
          "time": 44.199999999999974,
          "velocity": 0.9448818897637795,
          "duration": 0.18124999999999858
        },
        {
          "name": "A2",
          "midi": 45,
          "time": 44.39999999999997,
          "velocity": 0.9448818897637795,
          "duration": 0.7437499999999986
        },
        {
          "name": "A2",
          "midi": 45,
          "time": 45.19999999999997,
          "velocity": 0.9448818897637795,
          "duration": 0.18124999999999858
        },
        {
          "name": "D#2",
          "midi": 39,
          "time": 45.39999999999996,
          "velocity": 0.9448818897637795,
          "duration": 0.18124999999999858
        },
        {
          "name": "D2",
          "midi": 38,
          "time": 45.59999999999996,
          "velocity": 0.9448818897637795,
          "duration": 0.5562499999999986
        },
        {
          "name": "G#2",
          "midi": 44,
          "time": 46.19999999999996,
          "velocity": 0.9448818897637795,
          "duration": 0.5562499999999986
        },
        {
          "name": "G2",
          "midi": 43,
          "time": 46.79999999999996,
          "velocity": 0.9448818897637795,
          "duration": 0.9312499999999986
        },
        {
          "name": "G2",
          "midi": 43,
          "time": 47.79999999999996,
          "velocity": 0.9448818897637795,
          "duration": 0.18124999999999858
        },
        {
          "name": "C2",
          "midi": 36,
          "time": 47.99999999999996,
          "velocity": 0.9448818897637795,
          "duration": 1.1187499999999986
        },
        {
          "name": "F2",
          "midi": 41,
          "time": 49.19999999999995,
          "velocity": 0.9448818897637795,
          "duration": 0.9312499999999986
        },
        {
          "name": "A#2",
          "midi": 46,
          "time": 50.19999999999995,
          "velocity": 0.9448818897637795,
          "duration": 0.18124999999999858
        },
        {
          "name": "A2",
          "midi": 45,
          "time": 50.39999999999995,
          "velocity": 0.9448818897637795,
          "duration": 0.5562499999999986
        },
        {
          "name": "G2",
          "midi": 43,
          "time": 50.99999999999995,
          "velocity": 0.9448818897637795,
          "duration": 0.5562499999999986
        },
        {
          "name": "F2",
          "midi": 41,
          "time": 51.59999999999995,
          "velocity": 0.9448818897637795,
          "duration": 0.9312499999999986
        },
        {
          "name": "F3",
          "midi": 53,
          "time": 52.59999999999995,
          "velocity": 0.9448818897637795,
          "duration": 0.18124999999999858
        },
        {
          "name": "F#3",
          "midi": 54,
          "time": 52.79999999999995,
          "velocity": 0.9448818897637795,
          "duration": 0.5562499999999986
        },
        {
          "name": "F#2",
          "midi": 42,
          "time": 53.39999999999995,
          "velocity": 0.9448818897637795,
          "duration": 0.5562499999999986
        },
        {
          "name": "G2",
          "midi": 43,
          "time": 53.99999999999995,
          "velocity": 0.9448818897637795,
          "duration": 0.9312499999999986
        },
        {
          "name": "D2",
          "midi": 38,
          "time": 54.99999999999995,
          "velocity": 0.9448818897637795,
          "duration": 0.18124999999999858
        },
        {
          "name": "A2",
          "midi": 45,
          "time": 55.199999999999946,
          "velocity": 0.9448818897637795,
          "duration": 0.5562499999999986
        },
        {
          "name": "G#2",
          "midi": 44,
          "time": 55.79999999999995,
          "velocity": 0.9448818897637795,
          "duration": 0.5562499999999986
        },
        {
          "name": "G2",
          "midi": 43,
          "time": 56.39999999999995,
          "velocity": 0.9448818897637795,
          "duration": 0.9312499999999986
        },
        {
          "name": "G2",
          "midi": 43,
          "time": 57.39999999999995,
          "velocity": 0.9448818897637795,
          "duration": 0.18124999999999858
        },
        {
          "name": "C2",
          "midi": 36,
          "time": 57.599999999999945,
          "velocity": 0.9448818897637795,
          "duration": 1.1187499999999986
        },
        {
          "name": "A2",
          "midi": 45,
          "time": 58.79999999999994,
          "velocity": 0.9448818897637795,
          "duration": 0.5562499999999986
        },
        {
          "name": "D2",
          "midi": 38,
          "time": 59.39999999999994,
          "velocity": 0.9448818897637795,
          "duration": 0.5562499999999986
        },
        {
          "name": "G2",
          "midi": 43,
          "time": 59.99999999999994,
          "velocity": 0.9448818897637795,
          "duration": 0.5562499999999986
        },
        {
          "name": "C2",
          "midi": 36,
          "time": 60.599999999999945,
          "velocity": 0.9448818897637795,
          "duration": 0.5562499999999986
        },
        {
          "name": "F2",
          "midi": 41,
          "time": 61.199999999999946,
          "velocity": 0.9448818897637795,
          "duration": 0.9312499999999986
        },
        {
          "name": "F2",
          "midi": 41,
          "time": 62.199999999999946,
          "velocity": 0.9448818897637795,
          "duration": 0.18124999999999858
        },
        {
          "name": "G2",
          "midi": 43,
          "time": 62.39999999999994,
          "velocity": 0.9448818897637795,
          "duration": 1.1187499999999986
        },
        {
          "name": "A2",
          "midi": 45,
          "time": 63.59999999999994,
          "velocity": 0.9448818897637795,
          "duration": 0.9312500000000057
        },
        {
          "name": "A2",
          "midi": 45,
          "time": 64.59999999999994,
          "velocity": 0.9448818897637795,
          "duration": 0.18125000000000568
        },
        {
          "name": "D2",
          "midi": 38,
          "time": 64.79999999999994,
          "velocity": 0.9448818897637795,
          "duration": 0.5562500000000057
        },
        {
          "name": "G#2",
          "midi": 44,
          "time": 65.39999999999995,
          "velocity": 0.9448818897637795,
          "duration": 0.5562500000000057
        },
        {
          "name": "G2",
          "midi": 43,
          "time": 65.99999999999996,
          "velocity": 0.9448818897637795,
          "duration": 0.5562500000000057
        },
        {
          "name": "B2",
          "midi": 47,
          "time": 66.59999999999997,
          "velocity": 0.9448818897637795,
          "duration": 0.5562500000000057
        },
        {
          "name": "C3",
          "midi": 48,
          "time": 67.19999999999997,
          "velocity": 0.9448818897637795,
          "duration": 0.9312500000000057
        },
        {
          "name": "C3",
          "midi": 48,
          "time": 68.19999999999997,
          "velocity": 0.9448818897637795,
          "duration": 0.18125000000000568
        },
        {
          "name": "F2",
          "midi": 41,
          "time": 68.39999999999998,
          "velocity": 0.9448818897637795,
          "duration": 0.9312500000000057
        },
        {
          "name": "B2",
          "midi": 47,
          "time": 69.39999999999998,
          "velocity": 0.9448818897637795,
          "duration": 0.037499999999994316
        },
        {
          "name": "C3",
          "midi": 48,
          "time": 69.44999999999997,
          "velocity": 0.9448818897637795,
          "duration": 0.13124999999999432
        },
        {
          "name": "C2",
          "midi": 36,
          "time": 69.59999999999997,
          "velocity": 0.9448818897637795,
          "duration": 0.5562500000000057
        },
        {
          "name": "E2",
          "midi": 40,
          "time": 70.19999999999997,
          "velocity": 0.9448818897637795,
          "duration": 0.5562500000000057
        },
        {
          "name": "F1",
          "midi": 29,
          "time": 70.79999999999998,
          "velocity": 0.9448818897637795,
          "duration": 0.9312500000000057
        },
        {
          "name": "C2",
          "midi": 36,
          "time": 71.79999999999998,
          "velocity": 0.9448818897637795,
          "duration": 0.18125000000000568
        },
        {
          "name": "G1",
          "midi": 31,
          "time": 71.99999999999999,
          "velocity": 0.9448818897637795,
          "duration": 0.9312500000000057
        },
        {
          "name": "C2",
          "midi": 36,
          "time": 72.99999999999999,
          "velocity": 0.9448818897637795,
          "duration": 0.18125000000000568
        },
        {
          "name": "F1",
          "midi": 29,
          "time": 73.19999999999999,
          "velocity": 0.9448818897637795,
          "duration": 0.9312500000000057
        },
        {
          "name": "D#2",
          "midi": 39,
          "time": 74.19999999999999,
          "velocity": 0.9448818897637795,
          "duration": 0.18125000000000568
        },
        {
          "name": "D2",
          "midi": 38,
          "time": 74.39999999999999,
          "velocity": 0.9448818897637795,
          "duration": 0.5562500000000057
        },
        {
          "name": "G#2",
          "midi": 44,
          "time": 75,
          "velocity": 0.9448818897637795,
          "duration": 0.5562500000000057
        },
        {
          "name": "G2",
          "midi": 43,
          "time": 75.60000000000001,
          "velocity": 0.9448818897637795,
          "duration": 0.9312500000000057
        },
        {
          "name": "A#2",
          "midi": 46,
          "time": 76.60000000000001,
          "velocity": 0.9448818897637795,
          "duration": 0.18125000000000568
        },
        {
          "name": "C3",
          "midi": 48,
          "time": 76.80000000000001,
          "velocity": 0.9448818897637795,
          "duration": 0.3687500000000057
        },
        {
          "name": "G2",
          "midi": 43,
          "time": 77.20000000000002,
          "velocity": 0.9448818897637795,
          "duration": 0.18125000000000568
        },
        {
          "name": "C2",
          "midi": 36,
          "time": 77.40000000000002,
          "velocity": 0.9448818897637795,
          "duration": 0.5562500000000057
        },
        {
          "name": "F2",
          "midi": 41,
          "time": 78.00000000000003,
          "velocity": 0.9448818897637795,
          "duration": 0.9312500000000057
        },
        {
          "name": "A#2",
          "midi": 46,
          "time": 79.00000000000003,
          "velocity": 0.9448818897637795,
          "duration": 0.18125000000000568
        },
        {
          "name": "A2",
          "midi": 45,
          "time": 79.20000000000003,
          "velocity": 0.9448818897637795,
          "duration": 0.5562500000000057
        },
        {
          "name": "G2",
          "midi": 43,
          "time": 79.80000000000004,
          "velocity": 0.9448818897637795,
          "duration": 0.5562500000000057
        },
        {
          "name": "F2",
          "midi": 41,
          "time": 80.40000000000005,
          "velocity": 0.9448818897637795,
          "duration": 1.1187500000000057
        },
        {
          "name": "G2",
          "midi": 43,
          "time": 81.60000000000005,
          "velocity": 0.9448818897637795,
          "duration": 0.9312500000000057
        },
        {
          "name": "G2",
          "midi": 43,
          "time": 82.60000000000005,
          "velocity": 0.9448818897637795,
          "duration": 0.18125000000000568
        },
        {
          "name": "A2",
          "midi": 45,
          "time": 82.80000000000005,
          "velocity": 0.9448818897637795,
          "duration": 0.7437500000000057
        },
        {
          "name": "A2",
          "midi": 45,
          "time": 83.60000000000007,
          "velocity": 0.9448818897637795,
          "duration": 0.18125000000000568
        },
        {
          "name": "D#2",
          "midi": 39,
          "time": 83.80000000000007,
          "velocity": 0.9448818897637795,
          "duration": 0.18125000000000568
        },
        {
          "name": "D2",
          "midi": 38,
          "time": 84.00000000000007,
          "velocity": 0.9448818897637795,
          "duration": 0.5562500000000057
        },
        {
          "name": "G#2",
          "midi": 44,
          "time": 84.60000000000008,
          "velocity": 0.9448818897637795,
          "duration": 0.5562500000000057
        },
        {
          "name": "G2",
          "midi": 43,
          "time": 85.20000000000009,
          "velocity": 0.9448818897637795,
          "duration": 0.9312500000000057
        },
        {
          "name": "G2",
          "midi": 43,
          "time": 86.20000000000009,
          "velocity": 0.9448818897637795,
          "duration": 0.18125000000000568
        },
        {
          "name": "C2",
          "midi": 36,
          "time": 86.40000000000009,
          "velocity": 0.9448818897637795,
          "duration": 1.1187500000000057
        },
        {
          "name": "F2",
          "midi": 41,
          "time": 87.6000000000001,
          "velocity": 0.9448818897637795,
          "duration": 0.9312500000000057
        },
        {
          "name": "A#2",
          "midi": 46,
          "time": 88.6000000000001,
          "velocity": 0.9448818897637795,
          "duration": 0.18125000000000568
        },
        {
          "name": "A2",
          "midi": 45,
          "time": 88.8000000000001,
          "velocity": 0.9448818897637795,
          "duration": 0.5562500000000057
        },
        {
          "name": "G2",
          "midi": 43,
          "time": 89.4000000000001,
          "velocity": 0.9448818897637795,
          "duration": 0.5562500000000057
        },
        {
          "name": "F2",
          "midi": 41,
          "time": 90.00000000000011,
          "velocity": 0.9448818897637795,
          "duration": 0.9312500000000057
        },
        {
          "name": "F3",
          "midi": 53,
          "time": 91.00000000000011,
          "velocity": 0.9448818897637795,
          "duration": 0.18125000000000568
        },
        {
          "name": "F#3",
          "midi": 54,
          "time": 91.20000000000012,
          "velocity": 0.9448818897637795,
          "duration": 0.5562500000000057
        },
        {
          "name": "F#2",
          "midi": 42,
          "time": 91.80000000000013,
          "velocity": 0.9448818897637795,
          "duration": 0.5562500000000057
        },
        {
          "name": "G2",
          "midi": 43,
          "time": 92.40000000000013,
          "velocity": 0.9448818897637795,
          "duration": 0.9312500000000057
        },
        {
          "name": "D2",
          "midi": 38,
          "time": 93.40000000000013,
          "velocity": 0.9448818897637795,
          "duration": 0.18125000000000568
        },
        {
          "name": "A2",
          "midi": 45,
          "time": 93.60000000000014,
          "velocity": 0.9448818897637795,
          "duration": 0.5562500000000057
        },
        {
          "name": "G#2",
          "midi": 44,
          "time": 94.20000000000014,
          "velocity": 0.9448818897637795,
          "duration": 0.5562500000000057
        },
        {
          "name": "G2",
          "midi": 43,
          "time": 94.80000000000015,
          "velocity": 0.9448818897637795,
          "duration": 0.9312500000000057
        },
        {
          "name": "G2",
          "midi": 43,
          "time": 95.80000000000015,
          "velocity": 0.9448818897637795,
          "duration": 0.18125000000000568
        },
        {
          "name": "C2",
          "midi": 36,
          "time": 96.00000000000016,
          "velocity": 0.9448818897637795,
          "duration": 1.1187500000000057
        },
        {
          "name": "A2",
          "midi": 45,
          "time": 97.20000000000016,
          "velocity": 0.9448818897637795,
          "duration": 0.5562500000000057
        },
        {
          "name": "D2",
          "midi": 38,
          "time": 97.80000000000017,
          "velocity": 0.9448818897637795,
          "duration": 0.5562500000000057
        },
        {
          "name": "G2",
          "midi": 43,
          "time": 98.40000000000018,
          "velocity": 0.9448818897637795,
          "duration": 0.5562500000000057
        },
        {
          "name": "C2",
          "midi": 36,
          "time": 99.00000000000018,
          "velocity": 0.9448818897637795,
          "duration": 0.5562500000000057
        },
        {
          "name": "F2",
          "midi": 41,
          "time": 99.6000000000002,
          "velocity": 0.9448818897637795,
          "duration": 0.9312500000000057
        },
        {
          "name": "F2",
          "midi": 41,
          "time": 100.6000000000002,
          "velocity": 0.9448818897637795,
          "duration": 0.18125000000000568
        },
        {
          "name": "G2",
          "midi": 43,
          "time": 100.8000000000002,
          "velocity": 0.9448818897637795,
          "duration": 1.1187500000000057
        },
        {
          "name": "A2",
          "midi": 45,
          "time": 102.0000000000002,
          "velocity": 0.9448818897637795,
          "duration": 0.9312500000000057
        },
        {
          "name": "A2",
          "midi": 45,
          "time": 103.0000000000002,
          "velocity": 0.9448818897637795,
          "duration": 0.18125000000000568
        },
        {
          "name": "D2",
          "midi": 38,
          "time": 103.2000000000002,
          "velocity": 0.9448818897637795,
          "duration": 0.5562500000000057
        },
        {
          "name": "G#2",
          "midi": 44,
          "time": 103.80000000000021,
          "velocity": 0.9448818897637795,
          "duration": 0.5562500000000057
        },
        {
          "name": "G2",
          "midi": 43,
          "time": 104.40000000000022,
          "velocity": 0.9448818897637795,
          "duration": 0.5562500000000057
        },
        {
          "name": "B2",
          "midi": 47,
          "time": 105.00000000000023,
          "velocity": 0.9448818897637795,
          "duration": 0.5562500000000057
        },
        {
          "name": "C3",
          "midi": 48,
          "time": 105.60000000000024,
          "velocity": 0.9448818897637795,
          "duration": 0.9312500000000057
        },
        {
          "name": "C3",
          "midi": 48,
          "time": 106.60000000000024,
          "velocity": 0.9448818897637795,
          "duration": 0.18125000000000568
        },
        {
          "name": "F2",
          "midi": 41,
          "time": 106.80000000000024,
          "velocity": 0.9448818897637795,
          "duration": 0.9312500000000057
        },
        {
          "name": "B2",
          "midi": 47,
          "time": 107.80000000000024,
          "velocity": 0.9448818897637795,
          "duration": 0.037499999999994316
        },
        {
          "name": "C3",
          "midi": 48,
          "time": 107.85000000000024,
          "velocity": 0.9448818897637795,
          "duration": 0.13124999999999432
        },
        {
          "name": "C2",
          "midi": 36,
          "time": 108.00000000000023,
          "velocity": 0.9448818897637795,
          "duration": 0.5562500000000057
        },
        {
          "name": "E2",
          "midi": 40,
          "time": 108.60000000000024,
          "velocity": 0.9448818897637795,
          "duration": 0.5562500000000057
        },
        {
          "name": "F1",
          "midi": 29,
          "time": 109.20000000000024,
          "velocity": 0.9448818897637795,
          "duration": 0.9312500000000057
        },
        {
          "name": "C2",
          "midi": 36,
          "time": 110.20000000000024,
          "velocity": 0.9448818897637795,
          "duration": 0.18125000000000568
        },
        {
          "name": "G1",
          "midi": 31,
          "time": 110.40000000000025,
          "velocity": 0.9448818897637795,
          "duration": 0.9312500000000057
        },
        {
          "name": "C2",
          "midi": 36,
          "time": 111.40000000000025,
          "velocity": 0.9448818897637795,
          "duration": 0.18125000000000568
        },
        {
          "name": "F1",
          "midi": 29,
          "time": 111.60000000000025,
          "velocity": 0.9448818897637795,
          "duration": 0.9312500000000057
        },
        {
          "name": "D#2",
          "midi": 39,
          "time": 112.60000000000025,
          "velocity": 0.9448818897637795,
          "duration": 0.18125000000000568
        },
        {
          "name": "D2",
          "midi": 38,
          "time": 112.80000000000025,
          "velocity": 0.9448818897637795,
          "duration": 0.5562500000000057
        },
        {
          "name": "G#2",
          "midi": 44,
          "time": 113.40000000000026,
          "velocity": 0.9448818897637795,
          "duration": 0.5562500000000057
        },
        {
          "name": "G2",
          "midi": 43,
          "time": 114.00000000000027,
          "velocity": 0.9448818897637795,
          "duration": 0.9312500000000057
        },
        {
          "name": "A#2",
          "midi": 46,
          "time": 115.00000000000027,
          "velocity": 0.9448818897637795,
          "duration": 0.18125000000000568
        },
        {
          "name": "C3",
          "midi": 48,
          "time": 115.20000000000027,
          "velocity": 0.9448818897637795,
          "duration": 0.3687500000000057
        },
        {
          "name": "G2",
          "midi": 43,
          "time": 115.60000000000028,
          "velocity": 0.9448818897637795,
          "duration": 0.18125000000000568
        },
        {
          "name": "C2",
          "midi": 36,
          "time": 115.80000000000028,
          "velocity": 0.9448818897637795,
          "duration": 0.5562500000000057
        },
        {
          "name": "F2",
          "midi": 41,
          "time": 116.40000000000029,
          "velocity": 0.9448818897637795,
          "duration": 0.9312500000000057
        },
        {
          "name": "A#2",
          "midi": 46,
          "time": 117.40000000000029,
          "velocity": 0.9448818897637795,
          "duration": 0.18125000000000568
        },
        {
          "name": "A2",
          "midi": 45,
          "time": 117.60000000000029,
          "velocity": 0.9448818897637795,
          "duration": 0.5562500000000057
        },
        {
          "name": "G2",
          "midi": 43,
          "time": 118.2000000000003,
          "velocity": 0.9448818897637795,
          "duration": 0.5562500000000057
        },
        {
          "name": "F2",
          "midi": 41,
          "time": 118.80000000000031,
          "velocity": 0.9448818897637795,
          "duration": 1.1187500000000057
        },
        {
          "name": "G2",
          "midi": 43,
          "time": 120.00000000000031,
          "velocity": 0.9448818897637795,
          "duration": 0.9312500000000057
        },
        {
          "name": "G2",
          "midi": 43,
          "time": 121.00000000000031,
          "velocity": 0.9448818897637795,
          "duration": 0.18125000000000568
        },
        {
          "name": "A2",
          "midi": 45,
          "time": 121.20000000000032,
          "velocity": 0.9448818897637795,
          "duration": 0.7437500000000057
        },
        {
          "name": "A2",
          "midi": 45,
          "time": 122.00000000000033,
          "velocity": 0.9448818897637795,
          "duration": 0.18125000000000568
        },
        {
          "name": "D#2",
          "midi": 39,
          "time": 122.20000000000033,
          "velocity": 0.9448818897637795,
          "duration": 0.18125000000000568
        },
        {
          "name": "D2",
          "midi": 38,
          "time": 122.40000000000033,
          "velocity": 0.9448818897637795,
          "duration": 0.5562500000000057
        },
        {
          "name": "G#2",
          "midi": 44,
          "time": 123.00000000000034,
          "velocity": 0.9448818897637795,
          "duration": 0.5562500000000057
        },
        {
          "name": "G2",
          "midi": 43,
          "time": 123.60000000000035,
          "velocity": 0.9448818897637795,
          "duration": 0.9312500000000057
        },
        {
          "name": "G2",
          "midi": 43,
          "time": 124.60000000000035,
          "velocity": 0.9448818897637795,
          "duration": 0.18125000000000568
        },
        {
          "name": "C2",
          "midi": 36,
          "time": 124.80000000000035,
          "velocity": 0.9448818897637795,
          "duration": 1.1187500000000057
        },
        {
          "name": "F2",
          "midi": 41,
          "time": 126.00000000000036,
          "velocity": 0.9448818897637795,
          "duration": 0.9312500000000057
        },
        {
          "name": "A#2",
          "midi": 46,
          "time": 127.00000000000036,
          "velocity": 0.9448818897637795,
          "duration": 0.18125000000000568
        },
        {
          "name": "A2",
          "midi": 45,
          "time": 127.20000000000036,
          "velocity": 0.9448818897637795,
          "duration": 0.5562500000000057
        },
        {
          "name": "G2",
          "midi": 43,
          "time": 127.80000000000037,
          "velocity": 0.9448818897637795,
          "duration": 0.5562499999999915
        },
        {
          "name": "F2",
          "midi": 41,
          "time": 128.40000000000035,
          "velocity": 0.9448818897637795,
          "duration": 0.9312500000000057
        },
        {
          "name": "F3",
          "midi": 53,
          "time": 129.40000000000035,
          "velocity": 0.9448818897637795,
          "duration": 0.18125000000000568
        },
        {
          "name": "F#3",
          "midi": 54,
          "time": 129.60000000000036,
          "velocity": 0.9448818897637795,
          "duration": 0.5562500000000057
        },
        {
          "name": "F#2",
          "midi": 42,
          "time": 130.20000000000036,
          "velocity": 0.9448818897637795,
          "duration": 0.5562500000000057
        },
        {
          "name": "G2",
          "midi": 43,
          "time": 130.80000000000035,
          "velocity": 0.9448818897637795,
          "duration": 0.9312500000000057
        },
        {
          "name": "D2",
          "midi": 38,
          "time": 131.80000000000035,
          "velocity": 0.9448818897637795,
          "duration": 0.18125000000000568
        },
        {
          "name": "A2",
          "midi": 45,
          "time": 132.00000000000037,
          "velocity": 0.9448818897637795,
          "duration": 0.5562500000000057
        },
        {
          "name": "G#2",
          "midi": 44,
          "time": 132.60000000000036,
          "velocity": 0.9448818897637795,
          "duration": 0.5562500000000057
        },
        {
          "name": "G2",
          "midi": 43,
          "time": 133.20000000000036,
          "velocity": 0.9448818897637795,
          "duration": 0.9312500000000057
        },
        {
          "name": "G2",
          "midi": 43,
          "time": 134.20000000000036,
          "velocity": 0.9448818897637795,
          "duration": 0.18125000000000568
        },
        {
          "name": "C2",
          "midi": 36,
          "time": 134.40000000000038,
          "velocity": 0.9448818897637795,
          "duration": 1.1187500000000057
        },
        {
          "name": "A2",
          "midi": 45,
          "time": 135.6000000000004,
          "velocity": 0.9448818897637795,
          "duration": 0.5562500000000057
        },
        {
          "name": "D2",
          "midi": 38,
          "time": 136.2000000000004,
          "velocity": 0.9448818897637795,
          "duration": 0.5562500000000057
        },
        {
          "name": "G2",
          "midi": 43,
          "time": 136.80000000000038,
          "velocity": 0.9448818897637795,
          "duration": 0.5562500000000057
        },
        {
          "name": "C2",
          "midi": 36,
          "time": 137.40000000000038,
          "velocity": 0.9448818897637795,
          "duration": 0.5562500000000057
        },
        {
          "name": "F2",
          "midi": 41,
          "time": 138.00000000000037,
          "velocity": 0.9448818897637795,
          "duration": 0.9312500000000057
        },
        {
          "name": "F2",
          "midi": 41,
          "time": 139.00000000000037,
          "velocity": 0.9448818897637795,
          "duration": 0.18125000000000568
        },
        {
          "name": "G2",
          "midi": 43,
          "time": 139.2000000000004,
          "velocity": 0.9448818897637795,
          "duration": 1.1187500000000057
        },
        {
          "name": "A2",
          "midi": 45,
          "time": 140.4000000000004,
          "velocity": 0.9448818897637795,
          "duration": 0.9312500000000057
        },
        {
          "name": "A2",
          "midi": 45,
          "time": 141.4000000000004,
          "velocity": 0.9448818897637795,
          "duration": 0.18125000000000568
        },
        {
          "name": "D2",
          "midi": 38,
          "time": 141.60000000000042,
          "velocity": 0.9448818897637795,
          "duration": 0.5562500000000057
        },
        {
          "name": "G#2",
          "midi": 44,
          "time": 142.20000000000041,
          "velocity": 0.9448818897637795,
          "duration": 0.5562500000000057
        },
        {
          "name": "G2",
          "midi": 43,
          "time": 142.8000000000004,
          "velocity": 0.9448818897637795,
          "duration": 0.5562500000000057
        },
        {
          "name": "B2",
          "midi": 47,
          "time": 143.4000000000004,
          "velocity": 0.9448818897637795,
          "duration": 0.5562500000000057
        },
        {
          "name": "C3",
          "midi": 48,
          "time": 144.0000000000004,
          "velocity": 0.9448818897637795,
          "duration": 0.9312500000000057
        },
        {
          "name": "C3",
          "midi": 48,
          "time": 145.0000000000004,
          "velocity": 0.9448818897637795,
          "duration": 0.18125000000000568
        },
        {
          "name": "F2",
          "midi": 41,
          "time": 145.20000000000041,
          "velocity": 0.9448818897637795,
          "duration": 0.9312500000000057
        },
        {
          "name": "C3",
          "midi": 48,
          "time": 146.20000000000041,
          "velocity": 0.9448818897637795,
          "duration": 0.18125000000000568
        },
        {
          "name": "A2",
          "midi": 45,
          "time": 146.40000000000043,
          "velocity": 0.9448818897637795,
          "duration": 0.5562500000000057
        },
        {
          "name": "G2",
          "midi": 43,
          "time": 147.00000000000043,
          "velocity": 0.9448818897637795,
          "duration": 0.5562500000000057
        },
        {
          "name": "F2",
          "midi": 41,
          "time": 147.60000000000042,
          "velocity": 0.9448818897637795,
          "duration": 1.1187500000000057
        },
        {
          "name": "G2",
          "midi": 43,
          "time": 148.80000000000044,
          "velocity": 0.9448818897637795,
          "duration": 1.1187500000000057
        },
        {
          "name": "A2",
          "midi": 45,
          "time": 150.00000000000045,
          "velocity": 0.9448818897637795,
          "duration": 0.9312500000000057
        },
        {
          "name": "A2",
          "midi": 45,
          "time": 151.00000000000045,
          "velocity": 0.9448818897637795,
          "duration": 0.18125000000000568
        },
        {
          "name": "D2",
          "midi": 38,
          "time": 151.20000000000047,
          "velocity": 0.9448818897637795,
          "duration": 0.7437500000000057
        },
        {
          "name": "G#2",
          "midi": 44,
          "time": 152.00000000000048,
          "velocity": 0.9448818897637795,
          "duration": 0.18125000000000568
        },
        {
          "name": "D2",
          "midi": 38,
          "time": 152.2000000000005,
          "velocity": 0.9448818897637795,
          "duration": 0.18125000000000568
        },
        {
          "name": "G2",
          "midi": 43,
          "time": 152.40000000000052,
          "velocity": 0.9448818897637795,
          "duration": 0.9312500000000057
        },
        {
          "name": "G2",
          "midi": 43,
          "time": 153.40000000000052,
          "velocity": 0.9448818897637795,
          "duration": 0.18125000000000568
        },
        {
          "name": "C2",
          "midi": 36,
          "time": 153.60000000000053,
          "velocity": 0.9448818897637795,
          "duration": 1.1187500000000057
        },
        {
          "name": "F2",
          "midi": 41,
          "time": 154.80000000000055,
          "velocity": 0.9448818897637795,
          "duration": 0.3687500000000057
        },
        {
          "name": "A#2",
          "midi": 46,
          "time": 155.20000000000056,
          "velocity": 0.9448818897637795,
          "duration": 0.5562500000000057
        },
        {
          "name": "A#2",
          "midi": 46,
          "time": 155.80000000000055,
          "velocity": 0.9448818897637795,
          "duration": 0.18125000000000568
        },
        {
          "name": "A2",
          "midi": 45,
          "time": 156.00000000000057,
          "velocity": 0.9448818897637795,
          "duration": 0.5562500000000057
        },
        {
          "name": "G2",
          "midi": 43,
          "time": 156.60000000000056,
          "velocity": 0.9448818897637795,
          "duration": 0.5562500000000057
        },
        {
          "name": "F2",
          "midi": 41,
          "time": 157.20000000000056,
          "velocity": 0.9448818897637795,
          "duration": 0.9312500000000057
        },
        {
          "name": "C2",
          "midi": 36,
          "time": 158.20000000000056,
          "velocity": 0.9448818897637795,
          "duration": 0.18125000000000568
        },
        {
          "name": "A#1",
          "midi": 34,
          "time": 158.40000000000057,
          "velocity": 0.9448818897637795,
          "duration": 1.1187500000000057
        },
        {
          "name": "A1",
          "midi": 33,
          "time": 159.6000000000006,
          "velocity": 0.9448818897637795,
          "duration": 0.7437500000000057
        },
        {
          "name": "C2",
          "midi": 36,
          "time": 160.4000000000006,
          "velocity": 0.9448818897637795,
          "duration": 0.18125000000000568
        },
        {
          "name": "C#2",
          "midi": 37,
          "time": 160.60000000000062,
          "velocity": 0.9448818897637795,
          "duration": 0.18125000000000568
        },
        {
          "name": "D2",
          "midi": 38,
          "time": 160.80000000000064,
          "velocity": 0.9448818897637795,
          "duration": 0.3687500000000057
        },
        {
          "name": "A1",
          "midi": 33,
          "time": 161.20000000000064,
          "velocity": 0.9448818897637795,
          "duration": 0.18125000000000568
        },
        {
          "name": "F#1",
          "midi": 30,
          "time": 161.40000000000066,
          "velocity": 0.9448818897637795,
          "duration": 0.5562500000000057
        },
        {
          "name": "G1",
          "midi": 31,
          "time": 162.00000000000065,
          "velocity": 0.9448818897637795,
          "duration": 0.9312500000000057
        },
        {
          "name": "D2",
          "midi": 38,
          "time": 163.00000000000065,
          "velocity": 0.9448818897637795,
          "duration": 0.18125000000000568
        },
        {
          "name": "C2",
          "midi": 36,
          "time": 163.20000000000067,
          "velocity": 0.9448818897637795,
          "duration": 1.1187500000000057
        },
        {
          "name": "F2",
          "midi": 41,
          "time": 164.4000000000007,
          "velocity": 0.9448818897637795,
          "duration": 0.9312500000000057
        },
        {
          "name": "C2",
          "midi": 36,
          "time": 165.4000000000007,
          "velocity": 0.9448818897637795,
          "duration": 0.18125000000000568
        },
        {
          "name": "A#1",
          "midi": 34,
          "time": 165.6000000000007,
          "velocity": 0.9448818897637795,
          "duration": 0.3687500000000057
        },
        {
          "name": "A1",
          "midi": 33,
          "time": 166.0000000000007,
          "velocity": 0.9448818897637795,
          "duration": 0.5562500000000057
        },
        {
          "name": "G1",
          "midi": 31,
          "time": 166.6000000000007,
          "velocity": 0.9448818897637795,
          "duration": 0.18125000000000568
        },
        {
          "name": "F1",
          "midi": 29,
          "time": 166.80000000000072,
          "velocity": 0.9448818897637795,
          "duration": 0.9312500000000057
        },
        {
          "name": "F3",
          "midi": 53,
          "time": 167.80000000000072,
          "velocity": 0.9448818897637795,
          "duration": 0.18125000000000568
        },
        {
          "name": "F#3",
          "midi": 54,
          "time": 168.00000000000074,
          "velocity": 0.9448818897637795,
          "duration": 0.5562500000000057
        },
        {
          "name": "F#2",
          "midi": 42,
          "time": 168.60000000000073,
          "velocity": 0.9448818897637795,
          "duration": 0.5562500000000057
        },
        {
          "name": "G2",
          "midi": 43,
          "time": 169.20000000000073,
          "velocity": 0.9448818897637795,
          "duration": 0.5562500000000057
        },
        {
          "name": "D2",
          "midi": 38,
          "time": 169.80000000000072,
          "velocity": 0.9448818897637795,
          "duration": 0.5562500000000057
        },
        {
          "name": "A2",
          "midi": 45,
          "time": 170.40000000000072,
          "velocity": 0.9448818897637795,
          "duration": 0.5562500000000057
        },
        {
          "name": "G#2",
          "midi": 44,
          "time": 171.0000000000007,
          "velocity": 0.9448818897637795,
          "duration": 0.5562500000000057
        },
        {
          "name": "G2",
          "midi": 43,
          "time": 171.6000000000007,
          "velocity": 0.9448818897637795,
          "duration": 0.9312500000000057
        },
        {
          "name": "G2",
          "midi": 43,
          "time": 172.6000000000007,
          "velocity": 0.9448818897637795,
          "duration": 0.18125000000000568
        },
        {
          "name": "C3",
          "midi": 48,
          "time": 172.80000000000072,
          "velocity": 0.9448818897637795,
          "duration": 0.5562500000000057
        },
        {
          "name": "C2",
          "midi": 36,
          "time": 173.40000000000072,
          "velocity": 0.9448818897637795,
          "duration": 0.5562500000000057
        },
        {
          "name": "C3",
          "midi": 48,
          "time": 174.0000000000007,
          "velocity": 0.9448818897637795,
          "duration": 0.3687500000000057
        },
        {
          "name": "A2",
          "midi": 45,
          "time": 174.40000000000072,
          "velocity": 0.9448818897637795,
          "duration": 0.9312500000000057
        },
        {
          "name": "G2",
          "midi": 43,
          "time": 175.40000000000072,
          "velocity": 0.9448818897637795,
          "duration": 0.18125000000000568
        },
        {
          "name": "C2",
          "midi": 36,
          "time": 175.60000000000073,
          "velocity": 0.9448818897637795,
          "duration": 0.18125000000000568
        },
        {
          "name": "E2",
          "midi": 40,
          "time": 175.80000000000075,
          "velocity": 0.9448818897637795,
          "duration": 0.5562500000000057
        },
        {
          "name": "F2",
          "midi": 41,
          "time": 176.40000000000074,
          "velocity": 0.9448818897637795,
          "duration": 0.9312500000000057
        },
        {
          "name": "F2",
          "midi": 41,
          "time": 177.40000000000074,
          "velocity": 0.9448818897637795,
          "duration": 0.18125000000000568
        },
        {
          "name": "G2",
          "midi": 43,
          "time": 177.60000000000076,
          "velocity": 0.9448818897637795,
          "duration": 0.9312500000000057
        },
        {
          "name": "G2",
          "midi": 43,
          "time": 178.60000000000076,
          "velocity": 0.9448818897637795,
          "duration": 0.18125000000000568
        },
        {
          "name": "A2",
          "midi": 45,
          "time": 178.80000000000078,
          "velocity": 0.9448818897637795,
          "duration": 0.5562500000000057
        },
        {
          "name": "D#3",
          "midi": 51,
          "time": 179.40000000000077,
          "velocity": 0.9448818897637795,
          "duration": 0.5562500000000057
        },
        {
          "name": "D3",
          "midi": 50,
          "time": 180.00000000000077,
          "velocity": 0.9448818897637795,
          "duration": 0.5562500000000057
        },
        {
          "name": "G#2",
          "midi": 44,
          "time": 180.60000000000076,
          "velocity": 0.9448818897637795,
          "duration": 0.5562500000000057
        },
        {
          "name": "G2",
          "midi": 43,
          "time": 181.20000000000076,
          "velocity": 0.9448818897637795,
          "duration": 0.7437500000000057
        },
        {
          "name": "D2",
          "midi": 38,
          "time": 182.00000000000077,
          "velocity": 0.9448818897637795,
          "duration": 0.18125000000000568
        },
        {
          "name": "C#2",
          "midi": 37,
          "time": 182.20000000000078,
          "velocity": 0.9448818897637795,
          "duration": 0.18125000000000568
        },
        {
          "name": "C2",
          "midi": 36,
          "time": 182.4000000000008,
          "velocity": 0.9448818897637795,
          "duration": 0.9312500000000057
        },
        {
          "name": "C3",
          "midi": 48,
          "time": 183.4000000000008,
          "velocity": 0.9448818897637795,
          "duration": 0.18125000000000568
        },
        {
          "name": "F2",
          "midi": 41,
          "time": 183.60000000000082,
          "velocity": 0.9448818897637795,
          "duration": 0.9312500000000057
        },
        {
          "name": "C3",
          "midi": 48,
          "time": 184.60000000000082,
          "velocity": 0.9448818897637795,
          "duration": 0.18125000000000568
        },
        {
          "name": "F2",
          "midi": 41,
          "time": 184.80000000000084,
          "velocity": 0.9448818897637795,
          "duration": 0.9312500000000057
        },
        {
          "name": "C3",
          "midi": 48,
          "time": 185.80000000000084,
          "velocity": 0.9448818897637795,
          "duration": 0.18125000000000568
        },
        {
          "name": "G2",
          "midi": 43,
          "time": 186.00000000000085,
          "velocity": 0.9448818897637795,
          "duration": 1.1187500000000057
        },
        {
          "name": "C2",
          "midi": 36,
          "time": 187.20000000000087,
          "velocity": 0.9448818897637795,
          "duration": 1.1187500000000057
        },
        {
          "name": "F2",
          "midi": 41,
          "time": 188.4000000000009,
          "velocity": 0.9448818897637795,
          "duration": 1.1187500000000057
        },
        {
          "name": "F2",
          "midi": 41,
          "time": 189.6000000000009,
          "velocity": 0.9448818897637795,
          "duration": 0.9312500000000057
        },
        {
          "name": "F2",
          "midi": 41,
          "time": 190.6000000000009,
          "velocity": 0.9448818897637795,
          "duration": 0.18125000000000568
        },
        {
          "name": "G2",
          "midi": 43,
          "time": 190.80000000000092,
          "velocity": 0.9448818897637795,
          "duration": 1.1187500000000057
        },
        {
          "name": "C2",
          "midi": 36,
          "time": 192.00000000000094,
          "velocity": 0.9448818897637795,
          "duration": 1.1187500000000057
        },
        {
          "name": "F2",
          "midi": 41,
          "time": 193.20000000000095,
          "velocity": 0.9448818897637795,
          "duration": 0.5562500000000057
        },
        {
          "name": "F2",
          "midi": 41,
          "time": 194.20000000000095,
          "velocity": 0.9448818897637795,
          "duration": 6.743750000000006
        },
        {
          "name": "F1",
          "midi": 29,
          "time": 201.40000000000097,
          "velocity": 0.9448818897637795,
          "duration": 1.3062500000000057
        }
      ],
      "controlChanges": {
        "7": [
          {
            "number": 7,
            "time": 0.6,
            "value": 0.6299212598425197
          }
        ],
        "10": [
          {
            "number": 10,
            "time": 0.6,
            "value": 0.5826771653543307
          }
        ],
        "91": [
          {
            "number": 91,
            "time": 0.6,
            "value": 0.15748031496062992
          }
        ],
        "93": [
          {
            "number": 93,
            "time": 0.6,
            "value": 0.33070866141732286
          }
        ]
      },
      "id": 2,
      "name": "Acoustic Bass",
      "instrumentNumber": 32,
      "instrument": "acoustic bass",
      "instrumentFamily": "bass",
      "channelNumber": 15,
      "isPercussion": false
    },
    {
      "startTime": 32.4,
      "duration": 202.8,
      "length": 17,
      "notes": [
        {
          "name": "F1",
          "midi": 29,
          "time": 32.4,
          "velocity": 0.7480314960629921,
          "duration": 1
        },
        {
          "name": "G1",
          "midi": 31,
          "time": 33.6,
          "velocity": 0.7480314960629921,
          "duration": 1
        },
        {
          "name": "F1",
          "midi": 29,
          "time": 34.800000000000004,
          "velocity": 0.7480314960629921,
          "duration": 1
        },
        {
          "name": "F1",
          "midi": 29,
          "time": 70.80000000000001,
          "velocity": 0.7480314960629921,
          "duration": 1
        },
        {
          "name": "G1",
          "midi": 31,
          "time": 72.00000000000001,
          "velocity": 0.7480314960629921,
          "duration": 1
        },
        {
          "name": "F1",
          "midi": 29,
          "time": 73.20000000000002,
          "velocity": 0.7480314960629921,
          "duration": 1
        },
        {
          "name": "F1",
          "midi": 29,
          "time": 109.20000000000002,
          "velocity": 0.7480314960629921,
          "duration": 1
        },
        {
          "name": "G1",
          "midi": 31,
          "time": 110.40000000000002,
          "velocity": 0.7480314960629921,
          "duration": 1
        },
        {
          "name": "F1",
          "midi": 29,
          "time": 111.60000000000002,
          "velocity": 0.7480314960629921,
          "duration": 1
        },
        {
          "name": "A1",
          "midi": 33,
          "time": 159.60000000000002,
          "velocity": 0.7480314960629921,
          "duration": 0.8000000000000114
        },
        {
          "name": "A1",
          "midi": 33,
          "time": 161.20000000000005,
          "velocity": 0.7480314960629921,
          "duration": 0.19999999999998863
        },
        {
          "name": "F#1",
          "midi": 30,
          "time": 161.40000000000003,
          "velocity": 0.7480314960629921,
          "duration": 0.5999999999999943
        },
        {
          "name": "G1",
          "midi": 31,
          "time": 162.00000000000003,
          "velocity": 0.7480314960629921,
          "duration": 1
        },
        {
          "name": "A1",
          "midi": 33,
          "time": 166.00000000000003,
          "velocity": 0.7480314960629921,
          "duration": 0.5999999999999943
        },
        {
          "name": "G1",
          "midi": 31,
          "time": 166.60000000000002,
          "velocity": 0.7480314960629921,
          "duration": 0.19999999999998863
        },
        {
          "name": "F1",
          "midi": 29,
          "time": 166.8,
          "velocity": 0.7480314960629921,
          "duration": 1
        },
        {
          "name": "F1",
          "midi": 29,
          "time": 201.4,
          "velocity": 0.7480314960629921,
          "duration": 1.4000000000000057
        }
      ],
      "controlChanges": {
        "7": [
          {
            "number": 7,
            "time": 0.6,
            "value": 1
          }
        ],
        "10": [
          {
            "number": 10,
            "time": 0.6,
            "value": 0.14960629921259844
          }
        ],
        "91": [
          {
            "number": 91,
            "time": 0.6,
            "value": 0.4330708661417323
          }
        ],
        "93": [
          {
            "number": 93,
            "time": 0.6,
            "value": 0.11811023622047244
          }
        ]
      },
      "id": 3,
      "name": "Piano image is split ",
      "instrumentNumber": 0,
      "instrument": "acoustic grand piano",
      "instrumentFamily": "piano",
      "channelNumber": 0,
      "isPercussion": false
    },
    {
      "startTime": 1.5,
      "duration": 193.1999999999999,
      "length": 37,
      "notes": [
        {
          "name": "C2",
          "midi": 36,
          "time": 1.5,
          "velocity": 0.7480314960629921,
          "duration": 0.30000000000000004
        },
        {
          "name": "C2",
          "midi": 36,
          "time": 8.4,
          "velocity": 0.7480314960629921,
          "duration": 0.5999999999999996
        },
        {
          "name": "C2",
          "midi": 36,
          "time": 30.599999999999998,
          "velocity": 0.7480314960629921,
          "duration": 1.8000000000000007
        },
        {
          "name": "C2",
          "midi": 36,
          "time": 33.4,
          "velocity": 0.7480314960629921,
          "duration": 0.20000000000000284
        },
        {
          "name": "C2",
          "midi": 36,
          "time": 34.6,
          "velocity": 0.7480314960629921,
          "duration": 0.20000000000000284
        },
        {
          "name": "C2",
          "midi": 36,
          "time": 39.00000000000001,
          "velocity": 0.7480314960629921,
          "duration": 0.6000000000000014
        },
        {
          "name": "C2",
          "midi": 36,
          "time": 48.00000000000001,
          "velocity": 0.7480314960629921,
          "duration": 1.2000000000000028
        },
        {
          "name": "C2",
          "midi": 36,
          "time": 57.60000000000001,
          "velocity": 0.7480314960629921,
          "duration": 1.2000000000000028
        },
        {
          "name": "C2",
          "midi": 36,
          "time": 60.60000000000001,
          "velocity": 0.7480314960629921,
          "duration": 0.6000000000000014
        },
        {
          "name": "C2",
          "midi": 36,
          "time": 69.60000000000001,
          "velocity": 0.7480314960629921,
          "duration": 0.5999999999999943
        },
        {
          "name": "C2",
          "midi": 36,
          "time": 71.8,
          "velocity": 0.7480314960629921,
          "duration": 0.20000000000000284
        },
        {
          "name": "C2",
          "midi": 36,
          "time": 73,
          "velocity": 0.7480314960629921,
          "duration": 0.20000000000000284
        },
        {
          "name": "C2",
          "midi": 36,
          "time": 77.4,
          "velocity": 0.7480314960629921,
          "duration": 0.5999999999999943
        },
        {
          "name": "C2",
          "midi": 36,
          "time": 86.4,
          "velocity": 0.7480314960629921,
          "duration": 1.2000000000000028
        },
        {
          "name": "C2",
          "midi": 36,
          "time": 96.00000000000001,
          "velocity": 0.7480314960629921,
          "duration": 1.2000000000000028
        },
        {
          "name": "C2",
          "midi": 36,
          "time": 99.00000000000001,
          "velocity": 0.7480314960629921,
          "duration": 0.5999999999999943
        },
        {
          "name": "C2",
          "midi": 36,
          "time": 108.00000000000001,
          "velocity": 0.7480314960629921,
          "duration": 0.5999999999999943
        },
        {
          "name": "C2",
          "midi": 36,
          "time": 110.2,
          "velocity": 0.7480314960629921,
          "duration": 0.20000000000000284
        },
        {
          "name": "C2",
          "midi": 36,
          "time": 111.4,
          "velocity": 0.7480314960629921,
          "duration": 0.20000000000000284
        },
        {
          "name": "C2",
          "midi": 36,
          "time": 115.80000000000001,
          "velocity": 0.7480314960629921,
          "duration": 0.5999999999999943
        },
        {
          "name": "C2",
          "midi": 36,
          "time": 124.80000000000001,
          "velocity": 0.7480314960629921,
          "duration": 1.2000000000000028
        },
        {
          "name": "C2",
          "midi": 36,
          "time": 134.4,
          "velocity": 0.7480314960629921,
          "duration": 1.1999999999999886
        },
        {
          "name": "C2",
          "midi": 36,
          "time": 137.4,
          "velocity": 0.7480314960629921,
          "duration": 0.5999999999999943
        },
        {
          "name": "C2",
          "midi": 36,
          "time": 153.6,
          "velocity": 0.7480314960629921,
          "duration": 1.1999999999999886
        },
        {
          "name": "C2",
          "midi": 36,
          "time": 158.2,
          "velocity": 0.7480314960629921,
          "duration": 0.19999999999998863
        },
        {
          "name": "A#1",
          "midi": 34,
          "time": 158.39999999999998,
          "velocity": 0.7480314960629921,
          "duration": 1.1999999999999886
        },
        {
          "name": "C2",
          "midi": 36,
          "time": 160.39999999999998,
          "velocity": 0.7480314960629921,
          "duration": 0.19999999999998863
        },
        {
          "name": "C#2",
          "midi": 37,
          "time": 160.59999999999997,
          "velocity": 0.7480314960629921,
          "duration": 0.19999999999998863
        },
        {
          "name": "C2",
          "midi": 36,
          "time": 163.19999999999996,
          "velocity": 0.7480314960629921,
          "duration": 1.1999999999999886
        },
        {
          "name": "C2",
          "midi": 36,
          "time": 165.39999999999995,
          "velocity": 0.7480314960629921,
          "duration": 0.19999999999998863
        },
        {
          "name": "A#1",
          "midi": 34,
          "time": 165.59999999999994,
          "velocity": 0.7480314960629921,
          "duration": 0.4000000000000057
        },
        {
          "name": "C2",
          "midi": 36,
          "time": 173.39999999999995,
          "velocity": 0.7480314960629921,
          "duration": 0.5999999999999943
        },
        {
          "name": "C2",
          "midi": 36,
          "time": 175.59999999999994,
          "velocity": 0.7480314960629921,
          "duration": 0.19999999999998863
        },
        {
          "name": "C#2",
          "midi": 37,
          "time": 182.19999999999993,
          "velocity": 0.7480314960629921,
          "duration": 0.19999999999998863
        },
        {
          "name": "C2",
          "midi": 36,
          "time": 182.39999999999992,
          "velocity": 0.7480314960629921,
          "duration": 1
        },
        {
          "name": "C2",
          "midi": 36,
          "time": 187.19999999999993,
          "velocity": 0.7480314960629921,
          "duration": 1.1999999999999886
        },
        {
          "name": "C2",
          "midi": 36,
          "time": 191.99999999999991,
          "velocity": 0.7480314960629921,
          "duration": 1.1999999999999886
        }
      ],
      "controlChanges": {
        "7": [
          {
            "number": 7,
            "time": 0.6,
            "value": 1
          }
        ],
        "10": [
          {
            "number": 10,
            "time": 0.6,
            "value": 0.2047244094488189
          }
        ],
        "91": [
          {
            "number": 91,
            "time": 0.6,
            "value": 0.4330708661417323
          }
        ],
        "93": [
          {
            "number": 93,
            "time": 0.6,
            "value": 0.11811023622047244
          }
        ]
      },
      "id": 4,
      "name": "into Ch 1-9 & 11-15",
      "instrumentNumber": 0,
      "instrument": "acoustic grand piano",
      "instrumentFamily": "piano",
      "channelNumber": 1,
      "isPercussion": false
    },
    {
      "startTime": 1.7999999999999998,
      "duration": 202.79999999999993,
      "length": 70,
      "notes": [
        {
          "name": "F2",
          "midi": 41,
          "time": 1.7999999999999998,
          "velocity": 0.7874015748031497,
          "duration": 0.6000000000000001
        },
        {
          "name": "F2",
          "midi": 41,
          "time": 7.199999999999999,
          "velocity": 0.7874015748031497,
          "duration": 1.1999999999999993
        },
        {
          "name": "F2",
          "midi": 41,
          "time": 8.999999999999998,
          "velocity": 0.7874015748031497,
          "duration": 0.5999999999999996
        },
        {
          "name": "F2",
          "midi": 41,
          "time": 14.399999999999999,
          "velocity": 0.7874015748031497,
          "duration": 1.8000000000000007
        },
        {
          "name": "F2",
          "midi": 41,
          "time": 23.4,
          "velocity": 0.7874015748031497,
          "duration": 0.6000000000000014
        },
        {
          "name": "D#2",
          "midi": 39,
          "time": 35.8,
          "velocity": 0.7874015748031497,
          "duration": 0.20000000000000284
        },
        {
          "name": "D2",
          "midi": 38,
          "time": 36,
          "velocity": 0.7874015748031497,
          "duration": 0.6000000000000014
        },
        {
          "name": "F2",
          "midi": 41,
          "time": 39.6,
          "velocity": 0.7874015748031497,
          "duration": 1
        },
        {
          "name": "F2",
          "midi": 41,
          "time": 42,
          "velocity": 0.7874015748031497,
          "duration": 1.2000000000000028
        },
        {
          "name": "D#2",
          "midi": 39,
          "time": 45.400000000000006,
          "velocity": 0.7874015748031497,
          "duration": 0.20000000000000284
        },
        {
          "name": "D2",
          "midi": 38,
          "time": 45.60000000000001,
          "velocity": 0.7874015748031497,
          "duration": 0.6000000000000014
        },
        {
          "name": "F2",
          "midi": 41,
          "time": 49.20000000000001,
          "velocity": 0.7874015748031497,
          "duration": 1
        },
        {
          "name": "F2",
          "midi": 41,
          "time": 51.60000000000001,
          "velocity": 0.7874015748031497,
          "duration": 1
        },
        {
          "name": "D2",
          "midi": 38,
          "time": 55.00000000000001,
          "velocity": 0.7874015748031497,
          "duration": 0.20000000000000284
        },
        {
          "name": "D2",
          "midi": 38,
          "time": 59.40000000000001,
          "velocity": 0.7874015748031497,
          "duration": 0.6000000000000014
        },
        {
          "name": "F2",
          "midi": 41,
          "time": 61.20000000000002,
          "velocity": 0.7874015748031497,
          "duration": 1
        },
        {
          "name": "F2",
          "midi": 41,
          "time": 62.20000000000002,
          "velocity": 0.7874015748031497,
          "duration": 0.20000000000000284
        },
        {
          "name": "D2",
          "midi": 38,
          "time": 64.80000000000003,
          "velocity": 0.7874015748031497,
          "duration": 0.5999999999999943
        },
        {
          "name": "F2",
          "midi": 41,
          "time": 68.40000000000002,
          "velocity": 0.7874015748031497,
          "duration": 1
        },
        {
          "name": "E2",
          "midi": 40,
          "time": 70.20000000000002,
          "velocity": 0.7874015748031497,
          "duration": 0.5999999999999943
        },
        {
          "name": "D#2",
          "midi": 39,
          "time": 74.20000000000002,
          "velocity": 0.7874015748031497,
          "duration": 0.20000000000000284
        },
        {
          "name": "D2",
          "midi": 38,
          "time": 74.40000000000002,
          "velocity": 0.7874015748031497,
          "duration": 0.5999999999999943
        },
        {
          "name": "F2",
          "midi": 41,
          "time": 78.00000000000001,
          "velocity": 0.7874015748031497,
          "duration": 1
        },
        {
          "name": "F2",
          "midi": 41,
          "time": 80.40000000000002,
          "velocity": 0.7874015748031497,
          "duration": 1.2000000000000028
        },
        {
          "name": "D#2",
          "midi": 39,
          "time": 83.80000000000003,
          "velocity": 0.7874015748031497,
          "duration": 0.20000000000000284
        },
        {
          "name": "D2",
          "midi": 38,
          "time": 84.00000000000003,
          "velocity": 0.7874015748031497,
          "duration": 0.5999999999999943
        },
        {
          "name": "F2",
          "midi": 41,
          "time": 87.60000000000002,
          "velocity": 0.7874015748031497,
          "duration": 1
        },
        {
          "name": "F2",
          "midi": 41,
          "time": 90.00000000000003,
          "velocity": 0.7874015748031497,
          "duration": 1
        },
        {
          "name": "D2",
          "midi": 38,
          "time": 93.40000000000003,
          "velocity": 0.7874015748031497,
          "duration": 0.20000000000000284
        },
        {
          "name": "D2",
          "midi": 38,
          "time": 97.80000000000004,
          "velocity": 0.7874015748031497,
          "duration": 0.5999999999999943
        },
        {
          "name": "F2",
          "midi": 41,
          "time": 99.60000000000004,
          "velocity": 0.7874015748031497,
          "duration": 1
        },
        {
          "name": "F2",
          "midi": 41,
          "time": 100.60000000000004,
          "velocity": 0.7874015748031497,
          "duration": 0.20000000000000284
        },
        {
          "name": "D2",
          "midi": 38,
          "time": 103.20000000000005,
          "velocity": 0.7874015748031497,
          "duration": 0.5999999999999943
        },
        {
          "name": "F2",
          "midi": 41,
          "time": 106.80000000000004,
          "velocity": 0.7874015748031497,
          "duration": 1
        },
        {
          "name": "E2",
          "midi": 40,
          "time": 108.60000000000004,
          "velocity": 0.7874015748031497,
          "duration": 0.5999999999999943
        },
        {
          "name": "D#2",
          "midi": 39,
          "time": 112.60000000000004,
          "velocity": 0.7874015748031497,
          "duration": 0.20000000000000284
        },
        {
          "name": "D2",
          "midi": 38,
          "time": 112.80000000000004,
          "velocity": 0.7874015748031497,
          "duration": 0.5999999999999943
        },
        {
          "name": "F2",
          "midi": 41,
          "time": 116.40000000000003,
          "velocity": 0.7874015748031497,
          "duration": 1
        },
        {
          "name": "F2",
          "midi": 41,
          "time": 118.80000000000004,
          "velocity": 0.7874015748031497,
          "duration": 1.2000000000000028
        },
        {
          "name": "D#2",
          "midi": 39,
          "time": 122.20000000000005,
          "velocity": 0.7874015748031497,
          "duration": 0.20000000000000284
        },
        {
          "name": "D2",
          "midi": 38,
          "time": 122.40000000000005,
          "velocity": 0.7874015748031497,
          "duration": 0.5999999999999943
        },
        {
          "name": "F2",
          "midi": 41,
          "time": 126.00000000000004,
          "velocity": 0.7874015748031497,
          "duration": 1
        },
        {
          "name": "F2",
          "midi": 41,
          "time": 128.40000000000003,
          "velocity": 0.7874015748031497,
          "duration": 1
        },
        {
          "name": "D2",
          "midi": 38,
          "time": 131.80000000000004,
          "velocity": 0.7874015748031497,
          "duration": 0.19999999999998863
        },
        {
          "name": "D2",
          "midi": 38,
          "time": 136.20000000000002,
          "velocity": 0.7874015748031497,
          "duration": 0.5999999999999943
        },
        {
          "name": "F2",
          "midi": 41,
          "time": 138,
          "velocity": 0.7874015748031497,
          "duration": 1
        },
        {
          "name": "F2",
          "midi": 41,
          "time": 139,
          "velocity": 0.7874015748031497,
          "duration": 0.19999999999998863
        },
        {
          "name": "D2",
          "midi": 38,
          "time": 141.6,
          "velocity": 0.7874015748031497,
          "duration": 0.5999999999999943
        },
        {
          "name": "F2",
          "midi": 41,
          "time": 145.2,
          "velocity": 0.7874015748031497,
          "duration": 1
        },
        {
          "name": "F2",
          "midi": 41,
          "time": 147.6,
          "velocity": 0.7874015748031497,
          "duration": 1.1999999999999886
        },
        {
          "name": "D2",
          "midi": 38,
          "time": 151.2,
          "velocity": 0.7874015748031497,
          "duration": 0.8000000000000114
        },
        {
          "name": "D2",
          "midi": 38,
          "time": 152.2,
          "velocity": 0.7874015748031497,
          "duration": 0.19999999999998863
        },
        {
          "name": "F2",
          "midi": 41,
          "time": 154.79999999999998,
          "velocity": 0.7874015748031497,
          "duration": 0.4000000000000057
        },
        {
          "name": "F2",
          "midi": 41,
          "time": 157.2,
          "velocity": 0.7874015748031497,
          "duration": 1
        },
        {
          "name": "D2",
          "midi": 38,
          "time": 160.79999999999998,
          "velocity": 0.7874015748031497,
          "duration": 0.4000000000000057
        },
        {
          "name": "D2",
          "midi": 38,
          "time": 163,
          "velocity": 0.7874015748031497,
          "duration": 0.19999999999998863
        },
        {
          "name": "F2",
          "midi": 41,
          "time": 164.39999999999998,
          "velocity": 0.7874015748031497,
          "duration": 1
        },
        {
          "name": "D2",
          "midi": 38,
          "time": 169.79999999999998,
          "velocity": 0.7874015748031497,
          "duration": 0.5999999999999943
        },
        {
          "name": "E2",
          "midi": 40,
          "time": 175.79999999999998,
          "velocity": 0.7874015748031497,
          "duration": 0.5999999999999943
        },
        {
          "name": "F2",
          "midi": 41,
          "time": 176.39999999999998,
          "velocity": 0.7874015748031497,
          "duration": 1
        },
        {
          "name": "F2",
          "midi": 41,
          "time": 177.39999999999998,
          "velocity": 0.7874015748031497,
          "duration": 0.19999999999998863
        },
        {
          "name": "D2",
          "midi": 38,
          "time": 181.99999999999997,
          "velocity": 0.7874015748031497,
          "duration": 0.19999999999998863
        },
        {
          "name": "F2",
          "midi": 41,
          "time": 183.59999999999997,
          "velocity": 0.7874015748031497,
          "duration": 1
        },
        {
          "name": "F2",
          "midi": 41,
          "time": 184.79999999999995,
          "velocity": 0.7874015748031497,
          "duration": 1
        },
        {
          "name": "F2",
          "midi": 41,
          "time": 188.39999999999995,
          "velocity": 0.7874015748031497,
          "duration": 1.1999999999999886
        },
        {
          "name": "F2",
          "midi": 41,
          "time": 189.59999999999994,
          "velocity": 0.7874015748031497,
          "duration": 1
        },
        {
          "name": "F2",
          "midi": 41,
          "time": 190.59999999999994,
          "velocity": 0.7874015748031497,
          "duration": 0.19999999999998863
        },
        {
          "name": "F2",
          "midi": 41,
          "time": 193.19999999999993,
          "velocity": 0.7874015748031497,
          "duration": 0.5999999999999943
        },
        {
          "name": "F2",
          "midi": 41,
          "time": 194.19999999999993,
          "velocity": 0.7874015748031497,
          "duration": 7.199999999999989
        },
        {
          "name": "F2",
          "midi": 41,
          "time": 201.39999999999992,
          "velocity": 0.8267716535433071,
          "duration": 1.4000000000000057
        }
      ],
      "controlChanges": {
        "7": [
          {
            "number": 7,
            "time": 0.6,
            "value": 1
          }
        ],
        "10": [
          {
            "number": 10,
            "time": 0.6,
            "value": 0.25984251968503935
          }
        ],
        "91": [
          {
            "number": 91,
            "time": 0.6,
            "value": 0.4330708661417323
          }
        ],
        "93": [
          {
            "number": 93,
            "time": 0.6,
            "value": 0.11811023622047244
          }
        ]
      },
      "id": 5,
      "name": "and spread left to",
      "instrumentNumber": 0,
      "instrument": "acoustic grand piano",
      "instrumentFamily": "piano",
      "channelNumber": 2,
      "isPercussion": false
    },
    {
      "startTime": 2.4,
      "duration": 193.19999999999965,
      "length": 115,
      "notes": [
        {
          "name": "G2",
          "midi": 43,
          "time": 2.4,
          "velocity": 0.7874015748031497,
          "duration": 1.1999999999999997
        },
        {
          "name": "A2",
          "midi": 45,
          "time": 3.5999999999999996,
          "velocity": 0.7874015748031497,
          "duration": 0.5999999999999996
        },
        {
          "name": "G2",
          "midi": 43,
          "time": 9.599999999999998,
          "velocity": 0.7874015748031497,
          "duration": 1.1999999999999993
        },
        {
          "name": "A2",
          "midi": 45,
          "time": 10.799999999999997,
          "velocity": 0.7874015748031497,
          "duration": 1.8000000000000007
        },
        {
          "name": "G2",
          "midi": 43,
          "time": 24,
          "velocity": 0.7874015748031497,
          "duration": 1.1999999999999993
        },
        {
          "name": "A2",
          "midi": 45,
          "time": 25.2,
          "velocity": 0.7874015748031497,
          "duration": 0.3000000000000007
        },
        {
          "name": "G2",
          "midi": 43,
          "time": 27,
          "velocity": 0.7874015748031497,
          "duration": 0.6000000000000014
        },
        {
          "name": "G#2",
          "midi": 44,
          "time": 36.6,
          "velocity": 0.7874015748031497,
          "duration": 0.6000000000000014
        },
        {
          "name": "G2",
          "midi": 43,
          "time": 37.2,
          "velocity": 0.7874015748031497,
          "duration": 1
        },
        {
          "name": "G2",
          "midi": 43,
          "time": 38.800000000000004,
          "velocity": 0.7874015748031497,
          "duration": 0.20000000000000284
        },
        {
          "name": "A2",
          "midi": 45,
          "time": 40.800000000000004,
          "velocity": 0.7874015748031497,
          "duration": 0.6000000000000014
        },
        {
          "name": "G2",
          "midi": 43,
          "time": 41.400000000000006,
          "velocity": 0.7874015748031497,
          "duration": 0.6000000000000014
        },
        {
          "name": "G2",
          "midi": 43,
          "time": 43.20000000000001,
          "velocity": 0.7874015748031497,
          "duration": 1
        },
        {
          "name": "G2",
          "midi": 43,
          "time": 44.20000000000001,
          "velocity": 0.7874015748031497,
          "duration": 0.20000000000000284
        },
        {
          "name": "A2",
          "midi": 45,
          "time": 44.40000000000001,
          "velocity": 0.7874015748031497,
          "duration": 0.7999999999999972
        },
        {
          "name": "A2",
          "midi": 45,
          "time": 45.20000000000001,
          "velocity": 0.7874015748031497,
          "duration": 0.20000000000000284
        },
        {
          "name": "G#2",
          "midi": 44,
          "time": 46.20000000000001,
          "velocity": 0.7874015748031497,
          "duration": 0.6000000000000014
        },
        {
          "name": "G2",
          "midi": 43,
          "time": 46.80000000000001,
          "velocity": 0.7874015748031497,
          "duration": 1
        },
        {
          "name": "G2",
          "midi": 43,
          "time": 47.80000000000001,
          "velocity": 0.7874015748031497,
          "duration": 0.20000000000000284
        },
        {
          "name": "A2",
          "midi": 45,
          "time": 50.40000000000001,
          "velocity": 0.7874015748031497,
          "duration": 0.6000000000000014
        },
        {
          "name": "G2",
          "midi": 43,
          "time": 51.000000000000014,
          "velocity": 0.7874015748031497,
          "duration": 0.6000000000000014
        },
        {
          "name": "F#2",
          "midi": 42,
          "time": 53.40000000000001,
          "velocity": 0.7874015748031497,
          "duration": 0.6000000000000014
        },
        {
          "name": "G2",
          "midi": 43,
          "time": 54.000000000000014,
          "velocity": 0.7874015748031497,
          "duration": 1
        },
        {
          "name": "A2",
          "midi": 45,
          "time": 55.20000000000002,
          "velocity": 0.7874015748031497,
          "duration": 0.6000000000000014
        },
        {
          "name": "G#2",
          "midi": 44,
          "time": 55.80000000000002,
          "velocity": 0.7874015748031497,
          "duration": 0.6000000000000014
        },
        {
          "name": "G2",
          "midi": 43,
          "time": 56.40000000000002,
          "velocity": 0.7874015748031497,
          "duration": 1
        },
        {
          "name": "G2",
          "midi": 43,
          "time": 57.40000000000002,
          "velocity": 0.7874015748031497,
          "duration": 0.20000000000000284
        },
        {
          "name": "A2",
          "midi": 45,
          "time": 58.800000000000026,
          "velocity": 0.7874015748031497,
          "duration": 0.6000000000000014
        },
        {
          "name": "G2",
          "midi": 43,
          "time": 60.00000000000003,
          "velocity": 0.7874015748031497,
          "duration": 0.6000000000000014
        },
        {
          "name": "G2",
          "midi": 43,
          "time": 62.40000000000003,
          "velocity": 0.7874015748031497,
          "duration": 1.2000000000000028
        },
        {
          "name": "A2",
          "midi": 45,
          "time": 63.60000000000003,
          "velocity": 0.7874015748031497,
          "duration": 0.9999999999999929
        },
        {
          "name": "A2",
          "midi": 45,
          "time": 64.60000000000002,
          "velocity": 0.7874015748031497,
          "duration": 0.20000000000000284
        },
        {
          "name": "G#2",
          "midi": 44,
          "time": 65.40000000000002,
          "velocity": 0.7874015748031497,
          "duration": 0.5999999999999943
        },
        {
          "name": "G2",
          "midi": 43,
          "time": 66.00000000000001,
          "velocity": 0.7874015748031497,
          "duration": 0.5999999999999943
        },
        {
          "name": "G#2",
          "midi": 44,
          "time": 75.00000000000001,
          "velocity": 0.7874015748031497,
          "duration": 0.5999999999999943
        },
        {
          "name": "G2",
          "midi": 43,
          "time": 75.60000000000001,
          "velocity": 0.7874015748031497,
          "duration": 1
        },
        {
          "name": "G2",
          "midi": 43,
          "time": 77.2,
          "velocity": 0.7874015748031497,
          "duration": 0.20000000000000284
        },
        {
          "name": "A2",
          "midi": 45,
          "time": 79.2,
          "velocity": 0.7874015748031497,
          "duration": 0.5999999999999943
        },
        {
          "name": "G2",
          "midi": 43,
          "time": 79.8,
          "velocity": 0.7874015748031497,
          "duration": 0.5999999999999943
        },
        {
          "name": "G2",
          "midi": 43,
          "time": 81.6,
          "velocity": 0.7874015748031497,
          "duration": 1
        },
        {
          "name": "G2",
          "midi": 43,
          "time": 82.6,
          "velocity": 0.7874015748031497,
          "duration": 0.20000000000000284
        },
        {
          "name": "A2",
          "midi": 45,
          "time": 82.8,
          "velocity": 0.7874015748031497,
          "duration": 0.7999999999999972
        },
        {
          "name": "A2",
          "midi": 45,
          "time": 83.6,
          "velocity": 0.7874015748031497,
          "duration": 0.20000000000000284
        },
        {
          "name": "G#2",
          "midi": 44,
          "time": 84.6,
          "velocity": 0.7874015748031497,
          "duration": 0.5999999999999943
        },
        {
          "name": "G2",
          "midi": 43,
          "time": 85.19999999999999,
          "velocity": 0.7874015748031497,
          "duration": 1
        },
        {
          "name": "G2",
          "midi": 43,
          "time": 86.19999999999999,
          "velocity": 0.7874015748031497,
          "duration": 0.20000000000000284
        },
        {
          "name": "A2",
          "midi": 45,
          "time": 88.8,
          "velocity": 0.7874015748031497,
          "duration": 0.5999999999999943
        },
        {
          "name": "G2",
          "midi": 43,
          "time": 89.39999999999999,
          "velocity": 0.7874015748031497,
          "duration": 0.5999999999999943
        },
        {
          "name": "F#2",
          "midi": 42,
          "time": 91.79999999999998,
          "velocity": 0.7874015748031497,
          "duration": 0.5999999999999943
        },
        {
          "name": "G2",
          "midi": 43,
          "time": 92.39999999999998,
          "velocity": 0.7874015748031497,
          "duration": 1
        },
        {
          "name": "A2",
          "midi": 45,
          "time": 93.59999999999998,
          "velocity": 0.7874015748031497,
          "duration": 0.5999999999999943
        },
        {
          "name": "G#2",
          "midi": 44,
          "time": 94.19999999999997,
          "velocity": 0.7874015748031497,
          "duration": 0.5999999999999943
        },
        {
          "name": "G2",
          "midi": 43,
          "time": 94.79999999999997,
          "velocity": 0.7874015748031497,
          "duration": 1
        },
        {
          "name": "G2",
          "midi": 43,
          "time": 95.79999999999997,
          "velocity": 0.7874015748031497,
          "duration": 0.20000000000000284
        },
        {
          "name": "A2",
          "midi": 45,
          "time": 97.19999999999997,
          "velocity": 0.7874015748031497,
          "duration": 0.5999999999999943
        },
        {
          "name": "G2",
          "midi": 43,
          "time": 98.39999999999996,
          "velocity": 0.7874015748031497,
          "duration": 0.5999999999999943
        },
        {
          "name": "G2",
          "midi": 43,
          "time": 100.79999999999995,
          "velocity": 0.7874015748031497,
          "duration": 1.2000000000000028
        },
        {
          "name": "A2",
          "midi": 45,
          "time": 101.99999999999996,
          "velocity": 0.7874015748031497,
          "duration": 1
        },
        {
          "name": "A2",
          "midi": 45,
          "time": 102.99999999999996,
          "velocity": 0.7874015748031497,
          "duration": 0.20000000000000284
        },
        {
          "name": "G#2",
          "midi": 44,
          "time": 103.79999999999995,
          "velocity": 0.7874015748031497,
          "duration": 0.5999999999999943
        },
        {
          "name": "G2",
          "midi": 43,
          "time": 104.39999999999995,
          "velocity": 0.7874015748031497,
          "duration": 0.5999999999999943
        },
        {
          "name": "G#2",
          "midi": 44,
          "time": 113.39999999999995,
          "velocity": 0.7874015748031497,
          "duration": 0.5999999999999943
        },
        {
          "name": "G2",
          "midi": 43,
          "time": 113.99999999999994,
          "velocity": 0.7874015748031497,
          "duration": 1
        },
        {
          "name": "G2",
          "midi": 43,
          "time": 115.59999999999994,
          "velocity": 0.7874015748031497,
          "duration": 0.20000000000000284
        },
        {
          "name": "A2",
          "midi": 45,
          "time": 117.59999999999994,
          "velocity": 0.7874015748031497,
          "duration": 0.5999999999999943
        },
        {
          "name": "G2",
          "midi": 43,
          "time": 118.19999999999993,
          "velocity": 0.7874015748031497,
          "duration": 0.5999999999999943
        },
        {
          "name": "G2",
          "midi": 43,
          "time": 119.99999999999993,
          "velocity": 0.7874015748031497,
          "duration": 1
        },
        {
          "name": "G2",
          "midi": 43,
          "time": 120.99999999999993,
          "velocity": 0.7874015748031497,
          "duration": 0.20000000000000284
        },
        {
          "name": "A2",
          "midi": 45,
          "time": 121.19999999999993,
          "velocity": 0.7874015748031497,
          "duration": 0.7999999999999972
        },
        {
          "name": "A2",
          "midi": 45,
          "time": 121.99999999999993,
          "velocity": 0.7874015748031497,
          "duration": 0.20000000000000284
        },
        {
          "name": "G#2",
          "midi": 44,
          "time": 122.99999999999993,
          "velocity": 0.7874015748031497,
          "duration": 0.5999999999999943
        },
        {
          "name": "G2",
          "midi": 43,
          "time": 123.59999999999992,
          "velocity": 0.7874015748031497,
          "duration": 1
        },
        {
          "name": "G2",
          "midi": 43,
          "time": 124.59999999999992,
          "velocity": 0.7874015748031497,
          "duration": 0.20000000000000284
        },
        {
          "name": "A2",
          "midi": 45,
          "time": 127.19999999999993,
          "velocity": 0.7874015748031497,
          "duration": 0.5999999999999943
        },
        {
          "name": "G2",
          "midi": 43,
          "time": 127.79999999999993,
          "velocity": 0.7874015748031497,
          "duration": 0.5999999999999943
        },
        {
          "name": "F#2",
          "midi": 42,
          "time": 130.19999999999993,
          "velocity": 0.7874015748031497,
          "duration": 0.5999999999999943
        },
        {
          "name": "G2",
          "midi": 43,
          "time": 130.79999999999993,
          "velocity": 0.7874015748031497,
          "duration": 1
        },
        {
          "name": "A2",
          "midi": 45,
          "time": 131.99999999999991,
          "velocity": 0.7874015748031497,
          "duration": 0.5999999999999943
        },
        {
          "name": "G#2",
          "midi": 44,
          "time": 132.5999999999999,
          "velocity": 0.7874015748031497,
          "duration": 0.5999999999999943
        },
        {
          "name": "G2",
          "midi": 43,
          "time": 133.1999999999999,
          "velocity": 0.7874015748031497,
          "duration": 1
        },
        {
          "name": "G2",
          "midi": 43,
          "time": 134.1999999999999,
          "velocity": 0.7874015748031497,
          "duration": 0.19999999999998863
        },
        {
          "name": "A2",
          "midi": 45,
          "time": 135.59999999999988,
          "velocity": 0.7874015748031497,
          "duration": 0.5999999999999943
        },
        {
          "name": "G2",
          "midi": 43,
          "time": 136.79999999999987,
          "velocity": 0.7874015748031497,
          "duration": 0.5999999999999943
        },
        {
          "name": "G2",
          "midi": 43,
          "time": 139.19999999999987,
          "velocity": 0.7874015748031497,
          "duration": 1.1999999999999886
        },
        {
          "name": "A2",
          "midi": 45,
          "time": 140.39999999999986,
          "velocity": 0.7874015748031497,
          "duration": 1
        },
        {
          "name": "A2",
          "midi": 45,
          "time": 141.39999999999986,
          "velocity": 0.7874015748031497,
          "duration": 0.19999999999998863
        },
        {
          "name": "G#2",
          "midi": 44,
          "time": 142.19999999999985,
          "velocity": 0.7874015748031497,
          "duration": 0.5999999999999943
        },
        {
          "name": "G2",
          "midi": 43,
          "time": 142.79999999999984,
          "velocity": 0.7874015748031497,
          "duration": 0.5999999999999943
        },
        {
          "name": "A2",
          "midi": 45,
          "time": 146.39999999999984,
          "velocity": 0.7874015748031497,
          "duration": 0.5999999999999943
        },
        {
          "name": "G2",
          "midi": 43,
          "time": 146.99999999999983,
          "velocity": 0.7874015748031497,
          "duration": 0.5999999999999943
        },
        {
          "name": "G2",
          "midi": 43,
          "time": 148.7999999999998,
          "velocity": 0.7874015748031497,
          "duration": 1.1999999999999886
        },
        {
          "name": "A2",
          "midi": 45,
          "time": 149.9999999999998,
          "velocity": 0.7874015748031497,
          "duration": 1
        },
        {
          "name": "A2",
          "midi": 45,
          "time": 150.9999999999998,
          "velocity": 0.7874015748031497,
          "duration": 0.19999999999998863
        },
        {
          "name": "G#2",
          "midi": 44,
          "time": 151.9999999999998,
          "velocity": 0.7874015748031497,
          "duration": 0.19999999999998863
        },
        {
          "name": "G2",
          "midi": 43,
          "time": 152.39999999999978,
          "velocity": 0.7874015748031497,
          "duration": 1
        },
        {
          "name": "G2",
          "midi": 43,
          "time": 153.39999999999978,
          "velocity": 0.7874015748031497,
          "duration": 0.19999999999998863
        },
        {
          "name": "A2",
          "midi": 45,
          "time": 155.99999999999977,
          "velocity": 0.7874015748031497,
          "duration": 0.5999999999999943
        },
        {
          "name": "G2",
          "midi": 43,
          "time": 156.59999999999977,
          "velocity": 0.7874015748031497,
          "duration": 0.5999999999999943
        },
        {
          "name": "F#2",
          "midi": 42,
          "time": 168.59999999999977,
          "velocity": 0.7874015748031497,
          "duration": 0.5999999999999943
        },
        {
          "name": "G2",
          "midi": 43,
          "time": 169.19999999999976,
          "velocity": 0.7874015748031497,
          "duration": 0.5999999999999943
        },
        {
          "name": "A2",
          "midi": 45,
          "time": 170.39999999999975,
          "velocity": 0.7874015748031497,
          "duration": 0.5999999999999943
        },
        {
          "name": "G#2",
          "midi": 44,
          "time": 170.99999999999974,
          "velocity": 0.7874015748031497,
          "duration": 0.5999999999999943
        },
        {
          "name": "G2",
          "midi": 43,
          "time": 171.59999999999974,
          "velocity": 0.7874015748031497,
          "duration": 1
        },
        {
          "name": "G2",
          "midi": 43,
          "time": 172.59999999999974,
          "velocity": 0.7874015748031497,
          "duration": 0.19999999999998863
        },
        {
          "name": "A2",
          "midi": 45,
          "time": 174.39999999999972,
          "velocity": 0.7874015748031497,
          "duration": 1
        },
        {
          "name": "G2",
          "midi": 43,
          "time": 175.39999999999972,
          "velocity": 0.7874015748031497,
          "duration": 0.19999999999998863
        },
        {
          "name": "G2",
          "midi": 43,
          "time": 177.5999999999997,
          "velocity": 0.7874015748031497,
          "duration": 1
        },
        {
          "name": "G2",
          "midi": 43,
          "time": 178.5999999999997,
          "velocity": 0.7874015748031497,
          "duration": 0.19999999999998863
        },
        {
          "name": "A2",
          "midi": 45,
          "time": 178.7999999999997,
          "velocity": 0.7874015748031497,
          "duration": 0.5999999999999943
        },
        {
          "name": "G#2",
          "midi": 44,
          "time": 180.59999999999968,
          "velocity": 0.7874015748031497,
          "duration": 0.5999999999999943
        },
        {
          "name": "G2",
          "midi": 43,
          "time": 181.19999999999968,
          "velocity": 0.7874015748031497,
          "duration": 0.8000000000000114
        },
        {
          "name": "G2",
          "midi": 43,
          "time": 185.9999999999997,
          "velocity": 0.7874015748031497,
          "duration": 1.1999999999999886
        },
        {
          "name": "G2",
          "midi": 43,
          "time": 187.19999999999968,
          "velocity": 0.8267716535433071,
          "duration": 1.1999999999999886
        },
        {
          "name": "G2",
          "midi": 43,
          "time": 190.79999999999967,
          "velocity": 0.7874015748031497,
          "duration": 1.1999999999999886
        },
        {
          "name": "G2",
          "midi": 43,
          "time": 191.99999999999966,
          "velocity": 0.8267716535433071,
          "duration": 1.1999999999999886
        }
      ],
      "controlChanges": {
        "7": [
          {
            "number": 7,
            "time": 0.6,
            "value": 1
          }
        ],
        "10": [
          {
            "number": 10,
            "time": 0.6,
            "value": 0.31496062992125984
          }
        ],
        "91": [
          {
            "number": 91,
            "time": 0.6,
            "value": 0.4330708661417323
          }
        ],
        "93": [
          {
            "number": 93,
            "time": 0.6,
            "value": 0.11811023622047244
          }
        ]
      },
      "id": 6,
      "name": "right bass to treble",
      "instrumentNumber": 0,
      "instrument": "acoustic grand piano",
      "instrumentFamily": "piano",
      "channelNumber": 3,
      "isPercussion": false
    },
    {
      "startTime": 1.7999999999999998,
      "duration": 201.39999999999986,
      "length": 56,
      "notes": [
        {
          "name": "C3",
          "midi": 48,
          "time": 1.7999999999999998,
          "velocity": 0.8267716535433071,
          "duration": 0.6000000000000001
        },
        {
          "name": "D3",
          "midi": 50,
          "time": 2.4,
          "velocity": 0.8267716535433071,
          "duration": 1.1999999999999997
        },
        {
          "name": "D3",
          "midi": 50,
          "time": 4.199999999999999,
          "velocity": 0.7874015748031497,
          "duration": 1.2000000000000002
        },
        {
          "name": "C3",
          "midi": 48,
          "time": 7.199999999999999,
          "velocity": 0.8267716535433071,
          "duration": 1.1999999999999993
        },
        {
          "name": "C3",
          "midi": 48,
          "time": 9.149999999999999,
          "velocity": 0.8267716535433071,
          "duration": 0.4499999999999993
        },
        {
          "name": "D3",
          "midi": 50,
          "time": 9.599999999999998,
          "velocity": 0.8267716535433071,
          "duration": 1.1999999999999993
        },
        {
          "name": "C3",
          "midi": 48,
          "time": 14.699999999999998,
          "velocity": 0.8267716535433071,
          "duration": 1.4999999999999982
        },
        {
          "name": "C3",
          "midi": 48,
          "time": 22.799999999999997,
          "velocity": 0.7874015748031497,
          "duration": 0.6000000000000014
        },
        {
          "name": "C3",
          "midi": 48,
          "time": 23.549999999999997,
          "velocity": 0.8267716535433071,
          "duration": 0.4499999999999993
        },
        {
          "name": "D3",
          "midi": 50,
          "time": 23.999999999999996,
          "velocity": 0.8267716535433071,
          "duration": 1.1999999999999993
        },
        {
          "name": "D3",
          "midi": 50,
          "time": 25.799999999999997,
          "velocity": 0.7874015748031497,
          "duration": 1.1999999999999993
        },
        {
          "name": "C3",
          "midi": 48,
          "time": 27.599999999999998,
          "velocity": 0.7874015748031497,
          "duration": 1.1999999999999993
        },
        {
          "name": "A#2",
          "midi": 46,
          "time": 38.199999999999996,
          "velocity": 0.7874015748031497,
          "duration": 0.20000000000000284
        },
        {
          "name": "C3",
          "midi": 48,
          "time": 38.4,
          "velocity": 0.7874015748031497,
          "duration": 0.3999999999999986
        },
        {
          "name": "A#2",
          "midi": 46,
          "time": 40.599999999999994,
          "velocity": 0.7874015748031497,
          "duration": 0.20000000000000284
        },
        {
          "name": "A#2",
          "midi": 46,
          "time": 50.199999999999996,
          "velocity": 0.7874015748031497,
          "duration": 0.20000000000000284
        },
        {
          "name": "B2",
          "midi": 47,
          "time": 66.6,
          "velocity": 0.7874015748031497,
          "duration": 0.5999999999999943
        },
        {
          "name": "C3",
          "midi": 48,
          "time": 67.19999999999999,
          "velocity": 0.7874015748031497,
          "duration": 1
        },
        {
          "name": "C3",
          "midi": 48,
          "time": 68.19999999999999,
          "velocity": 0.7874015748031497,
          "duration": 0.20000000000000284
        },
        {
          "name": "B2",
          "midi": 47,
          "time": 69.39999999999999,
          "velocity": 0.7874015748031497,
          "duration": 0.04999999999999716
        },
        {
          "name": "C3",
          "midi": 48,
          "time": 69.44999999999999,
          "velocity": 0.7874015748031497,
          "duration": 0.15000000000000568
        },
        {
          "name": "A#2",
          "midi": 46,
          "time": 76.6,
          "velocity": 0.7874015748031497,
          "duration": 0.20000000000000284
        },
        {
          "name": "C3",
          "midi": 48,
          "time": 76.8,
          "velocity": 0.7874015748031497,
          "duration": 0.4000000000000057
        },
        {
          "name": "A#2",
          "midi": 46,
          "time": 79,
          "velocity": 0.7874015748031497,
          "duration": 0.20000000000000284
        },
        {
          "name": "A#2",
          "midi": 46,
          "time": 88.6,
          "velocity": 0.7874015748031497,
          "duration": 0.20000000000000284
        },
        {
          "name": "B2",
          "midi": 47,
          "time": 105,
          "velocity": 0.7874015748031497,
          "duration": 0.5999999999999943
        },
        {
          "name": "C3",
          "midi": 48,
          "time": 105.6,
          "velocity": 0.7874015748031497,
          "duration": 1
        },
        {
          "name": "C3",
          "midi": 48,
          "time": 106.6,
          "velocity": 0.7874015748031497,
          "duration": 0.20000000000000284
        },
        {
          "name": "B2",
          "midi": 47,
          "time": 107.8,
          "velocity": 0.7874015748031497,
          "duration": 0.04999999999999716
        },
        {
          "name": "C3",
          "midi": 48,
          "time": 107.85,
          "velocity": 0.7874015748031497,
          "duration": 0.15000000000000568
        },
        {
          "name": "A#2",
          "midi": 46,
          "time": 115,
          "velocity": 0.7874015748031497,
          "duration": 0.20000000000000284
        },
        {
          "name": "C3",
          "midi": 48,
          "time": 115.2,
          "velocity": 0.7874015748031497,
          "duration": 0.4000000000000057
        },
        {
          "name": "A#2",
          "midi": 46,
          "time": 117.4,
          "velocity": 0.7874015748031497,
          "duration": 0.20000000000000284
        },
        {
          "name": "A#2",
          "midi": 46,
          "time": 127,
          "velocity": 0.7874015748031497,
          "duration": 0.20000000000000284
        },
        {
          "name": "B2",
          "midi": 47,
          "time": 143.4,
          "velocity": 0.7874015748031497,
          "duration": 0.5999999999999943
        },
        {
          "name": "C3",
          "midi": 48,
          "time": 144,
          "velocity": 0.7874015748031497,
          "duration": 1
        },
        {
          "name": "C3",
          "midi": 48,
          "time": 145,
          "velocity": 0.7874015748031497,
          "duration": 0.19999999999998863
        },
        {
          "name": "C3",
          "midi": 48,
          "time": 146.2,
          "velocity": 0.7874015748031497,
          "duration": 0.19999999999998863
        },
        {
          "name": "A#2",
          "midi": 46,
          "time": 155.2,
          "velocity": 0.7874015748031497,
          "duration": 0.5999999999999943
        },
        {
          "name": "A#2",
          "midi": 46,
          "time": 155.79999999999998,
          "velocity": 0.7874015748031497,
          "duration": 0.19999999999998863
        },
        {
          "name": "C3",
          "midi": 48,
          "time": 172.79999999999998,
          "velocity": 0.7874015748031497,
          "duration": 0.5999999999999943
        },
        {
          "name": "C3",
          "midi": 48,
          "time": 173.99999999999997,
          "velocity": 0.7874015748031497,
          "duration": 0.4000000000000057
        },
        {
          "name": "D3",
          "midi": 50,
          "time": 179.99999999999997,
          "velocity": 0.7874015748031497,
          "duration": 0.5999999999999943
        },
        {
          "name": "C3",
          "midi": 48,
          "time": 183.39999999999998,
          "velocity": 0.7874015748031497,
          "duration": 0.19999999999998863
        },
        {
          "name": "C3",
          "midi": 48,
          "time": 184.59999999999997,
          "velocity": 0.7874015748031497,
          "duration": 0.19999999999998863
        },
        {
          "name": "D3",
          "midi": 50,
          "time": 184.79999999999995,
          "velocity": 0.8267716535433071,
          "duration": 1
        },
        {
          "name": "C3",
          "midi": 48,
          "time": 185.79999999999995,
          "velocity": 0.7874015748031497,
          "duration": 0.19999999999998863
        },
        {
          "name": "D3",
          "midi": 50,
          "time": 185.99999999999994,
          "velocity": 0.8267716535433071,
          "duration": 1.1999999999999886
        },
        {
          "name": "D3",
          "midi": 50,
          "time": 187.19999999999993,
          "velocity": 0.8267716535433071,
          "duration": 1.1999999999999886
        },
        {
          "name": "C3",
          "midi": 48,
          "time": 188.39999999999992,
          "velocity": 0.8267716535433071,
          "duration": 1.1999999999999886
        },
        {
          "name": "C3",
          "midi": 48,
          "time": 189.5999999999999,
          "velocity": 0.8267716535433071,
          "duration": 1
        },
        {
          "name": "C3",
          "midi": 48,
          "time": 190.5999999999999,
          "velocity": 0.8267716535433071,
          "duration": 0.19999999999998863
        },
        {
          "name": "D3",
          "midi": 50,
          "time": 190.7999999999999,
          "velocity": 0.8267716535433071,
          "duration": 1.1999999999999886
        },
        {
          "name": "D3",
          "midi": 50,
          "time": 191.9999999999999,
          "velocity": 0.8267716535433071,
          "duration": 1.1999999999999886
        },
        {
          "name": "C3",
          "midi": 48,
          "time": 193.19999999999987,
          "velocity": 0.8267716535433071,
          "duration": 0.5999999999999943
        },
        {
          "name": "C3",
          "midi": 48,
          "time": 194.19999999999987,
          "velocity": 0.8267716535433071,
          "duration": 7.199999999999989
        }
      ],
      "controlChanges": {
        "7": [
          {
            "number": 7,
            "time": 0.6,
            "value": 1
          }
        ],
        "10": [
          {
            "number": 10,
            "time": 0.6,
            "value": 0.3700787401574803
          }
        ],
        "91": [
          {
            "number": 91,
            "time": 0.6,
            "value": 0.4330708661417323
          }
        ],
        "93": [
          {
            "number": 93,
            "time": 0.6,
            "value": 0.11811023622047244
          }
        ]
      },
      "id": 7,
      "name": "as facing the  ",
      "instrumentNumber": 0,
      "instrument": "acoustic grand piano",
      "instrumentFamily": "piano",
      "channelNumber": 4,
      "isPercussion": false
    },
    {
      "startTime": 3.6,
      "duration": 193.79999999999995,
      "length": 25,
      "notes": [
        {
          "name": "E3",
          "midi": 52,
          "time": 3.6,
          "velocity": 0.8267716535433071,
          "duration": 0.6000000000000001
        },
        {
          "name": "E3",
          "midi": 52,
          "time": 6,
          "velocity": 0.7874015748031497,
          "duration": 1.2000000000000002
        },
        {
          "name": "F3",
          "midi": 53,
          "time": 8.4,
          "velocity": 0.8267716535433071,
          "duration": 0.5999999999999996
        },
        {
          "name": "D#3",
          "midi": 51,
          "time": 25.5,
          "velocity": 0.7874015748031497,
          "duration": 0.3000000000000007
        },
        {
          "name": "F3",
          "midi": 53,
          "time": 27,
          "velocity": 0.8267716535433071,
          "duration": 0.6000000000000014
        },
        {
          "name": "E3",
          "midi": 52,
          "time": 27.6,
          "velocity": 0.8267716535433071,
          "duration": 1.1999999999999993
        },
        {
          "name": "E3",
          "midi": 52,
          "time": 30.6375,
          "velocity": 0.8267716535433071,
          "duration": 1.7624999999999993
        },
        {
          "name": "F3",
          "midi": 53,
          "time": 33.6,
          "velocity": 0.8267716535433071,
          "duration": 0.6000000000000014
        },
        {
          "name": "F3",
          "midi": 53,
          "time": 52.6,
          "velocity": 0.7874015748031497,
          "duration": 0.20000000000000284
        },
        {
          "name": "E3",
          "midi": 52,
          "time": 62.2,
          "velocity": 0.8267716535433071,
          "duration": 0.20000000000000284
        },
        {
          "name": "F3",
          "midi": 53,
          "time": 62.400000000000006,
          "velocity": 0.8267716535433071,
          "duration": 1.2000000000000028
        },
        {
          "name": "D#3",
          "midi": 51,
          "time": 63.60000000000001,
          "velocity": 0.8267716535433071,
          "duration": 1
        },
        {
          "name": "F3",
          "midi": 53,
          "time": 72.00000000000001,
          "velocity": 0.8267716535433071,
          "duration": 0.5999999999999943
        },
        {
          "name": "F3",
          "midi": 53,
          "time": 91,
          "velocity": 0.7874015748031497,
          "duration": 0.20000000000000284
        },
        {
          "name": "E3",
          "midi": 52,
          "time": 100.6,
          "velocity": 0.8267716535433071,
          "duration": 0.20000000000000284
        },
        {
          "name": "F3",
          "midi": 53,
          "time": 100.8,
          "velocity": 0.8267716535433071,
          "duration": 1.2000000000000028
        },
        {
          "name": "D#3",
          "midi": 51,
          "time": 102,
          "velocity": 0.8267716535433071,
          "duration": 1
        },
        {
          "name": "F3",
          "midi": 53,
          "time": 110.4,
          "velocity": 0.8267716535433071,
          "duration": 0.5999999999999943
        },
        {
          "name": "F3",
          "midi": 53,
          "time": 129.4,
          "velocity": 0.7874015748031497,
          "duration": 0.19999999999998863
        },
        {
          "name": "E3",
          "midi": 52,
          "time": 139,
          "velocity": 0.8267716535433071,
          "duration": 0.19999999999998863
        },
        {
          "name": "F3",
          "midi": 53,
          "time": 139.2,
          "velocity": 0.8267716535433071,
          "duration": 1.1999999999999886
        },
        {
          "name": "D#3",
          "midi": 51,
          "time": 140.39999999999998,
          "velocity": 0.8267716535433071,
          "duration": 1
        },
        {
          "name": "F3",
          "midi": 53,
          "time": 167.79999999999998,
          "velocity": 0.7874015748031497,
          "duration": 0.19999999999998863
        },
        {
          "name": "D#3",
          "midi": 51,
          "time": 179.39999999999998,
          "velocity": 0.7874015748031497,
          "duration": 0.5999999999999943
        },
        {
          "name": "F3",
          "midi": 53,
          "time": 193.19999999999996,
          "velocity": 0.8267716535433071,
          "duration": 0.5999999999999943
        }
      ],
      "controlChanges": {
        "7": [
          {
            "number": 7,
            "time": 0.6,
            "value": 1
          }
        ],
        "10": [
          {
            "number": 10,
            "time": 0.6,
            "value": 0.4251968503937008
          }
        ],
        "91": [
          {
            "number": 91,
            "time": 0.6,
            "value": 0.4330708661417323
          }
        ],
        "93": [
          {
            "number": 93,
            "time": 0.6,
            "value": 0.11811023622047244
          }
        ]
      },
      "id": 8,
      "name": "piano keyboard.",
      "instrumentNumber": 0,
      "instrument": "acoustic grand piano",
      "instrumentFamily": "piano",
      "channelNumber": 5,
      "isPercussion": false
    },
    {
      "startTime": 1.7999999999999998,
      "duration": 194.99999999999994,
      "length": 72,
      "notes": [
        {
          "name": "A3",
          "midi": 57,
          "time": 1.7999999999999998,
          "velocity": 0.8267716535433071,
          "duration": 0.6000000000000001
        },
        {
          "name": "F#3",
          "midi": 54,
          "time": 4.199999999999999,
          "velocity": 0.8267716535433071,
          "duration": 1.2000000000000002
        },
        {
          "name": "G3",
          "midi": 55,
          "time": 5.3999999999999995,
          "velocity": 0.7874015748031497,
          "duration": 0.5999999999999996
        },
        {
          "name": "A3",
          "midi": 57,
          "time": 7.199999999999999,
          "velocity": 0.8267716535433071,
          "duration": 1.1999999999999993
        },
        {
          "name": "A3",
          "midi": 57,
          "time": 8.999999999999998,
          "velocity": 0.8267716535433071,
          "duration": 0.5999999999999996
        },
        {
          "name": "G3",
          "midi": 55,
          "time": 11.399999999999999,
          "velocity": 0.8267716535433071,
          "duration": 0.5999999999999996
        },
        {
          "name": "F#3",
          "midi": 54,
          "time": 11.999999999999998,
          "velocity": 0.8267716535433071,
          "duration": 0.5999999999999996
        },
        {
          "name": "G3",
          "midi": 55,
          "time": 12.599999999999998,
          "velocity": 0.7874015748031497,
          "duration": 1.8000000000000007
        },
        {
          "name": "A3",
          "midi": 57,
          "time": 14.999999999999998,
          "velocity": 0.8267716535433071,
          "duration": 1.200000000000001
        },
        {
          "name": "A3",
          "midi": 57,
          "time": 16.2,
          "velocity": 0.7874015748031497,
          "duration": 0.6000000000000014
        },
        {
          "name": "F#3",
          "midi": 54,
          "time": 16.8,
          "velocity": 0.7874015748031497,
          "duration": 1.1999999999999993
        },
        {
          "name": "G3",
          "midi": 55,
          "time": 18,
          "velocity": 0.7874015748031497,
          "duration": 1.8000000000000007
        },
        {
          "name": "G3",
          "midi": 55,
          "time": 19.8,
          "velocity": 0.7874015748031497,
          "duration": 0.8999999999999986
        },
        {
          "name": "A3",
          "midi": 57,
          "time": 21.599999999999998,
          "velocity": 0.7874015748031497,
          "duration": 1.1999999999999993
        },
        {
          "name": "A3",
          "midi": 57,
          "time": 23.699999999999996,
          "velocity": 0.8267716535433071,
          "duration": 0.3000000000000007
        },
        {
          "name": "G3",
          "midi": 55,
          "time": 25.199999999999996,
          "velocity": 0.8267716535433071,
          "duration": 0.3000000000000007
        },
        {
          "name": "G3",
          "midi": 55,
          "time": 25.499999999999996,
          "velocity": 0.8267716535433071,
          "duration": 0.3000000000000007
        },
        {
          "name": "F#3",
          "midi": 54,
          "time": 25.799999999999997,
          "velocity": 0.8267716535433071,
          "duration": 1.1999999999999993
        },
        {
          "name": "A3",
          "midi": 57,
          "time": 28.799999999999997,
          "velocity": 0.8267716535433071,
          "duration": 1.8000000000000007
        },
        {
          "name": "G3",
          "midi": 55,
          "time": 28.799999999999997,
          "velocity": 0.7874015748031497,
          "duration": 1.8000000000000007
        },
        {
          "name": "A3",
          "midi": 57,
          "time": 32.4,
          "velocity": 0.8267716535433071,
          "duration": 0.6000000000000014
        },
        {
          "name": "G3",
          "midi": 55,
          "time": 32.4,
          "velocity": 0.8267716535433071,
          "duration": 0.6000000000000014
        },
        {
          "name": "G3",
          "midi": 55,
          "time": 33.6,
          "velocity": 0.8267716535433071,
          "duration": 0.6000000000000014
        },
        {
          "name": "A3",
          "midi": 57,
          "time": 34.6,
          "velocity": 0.8267716535433071,
          "duration": 0.20000000000000284
        },
        {
          "name": "G3",
          "midi": 55,
          "time": 44.800000000000004,
          "velocity": 0.8267716535433071,
          "duration": 0.20000000000000284
        },
        {
          "name": "F#3",
          "midi": 54,
          "time": 45.60000000000001,
          "velocity": 0.8267716535433071,
          "duration": 0.6000000000000014
        },
        {
          "name": "A3",
          "midi": 57,
          "time": 51.60000000000001,
          "velocity": 0.8267716535433071,
          "duration": 1
        },
        {
          "name": "F#3",
          "midi": 54,
          "time": 52.80000000000001,
          "velocity": 0.7874015748031497,
          "duration": 0.6000000000000014
        },
        {
          "name": "A3",
          "midi": 57,
          "time": 61.20000000000001,
          "velocity": 0.8267716535433071,
          "duration": 0.3999999999999986
        },
        {
          "name": "G3",
          "midi": 55,
          "time": 63.60000000000001,
          "velocity": 0.8267716535433071,
          "duration": 1
        },
        {
          "name": "A3",
          "midi": 57,
          "time": 70.80000000000001,
          "velocity": 0.8267716535433071,
          "duration": 0.5999999999999943
        },
        {
          "name": "G3",
          "midi": 55,
          "time": 70.80000000000001,
          "velocity": 0.8267716535433071,
          "duration": 0.5999999999999943
        },
        {
          "name": "G3",
          "midi": 55,
          "time": 72,
          "velocity": 0.8267716535433071,
          "duration": 0.5999999999999943
        },
        {
          "name": "A3",
          "midi": 57,
          "time": 73,
          "velocity": 0.8267716535433071,
          "duration": 0.20000000000000284
        },
        {
          "name": "G3",
          "midi": 55,
          "time": 83.2,
          "velocity": 0.8267716535433071,
          "duration": 0.20000000000000284
        },
        {
          "name": "F#3",
          "midi": 54,
          "time": 84,
          "velocity": 0.8267716535433071,
          "duration": 0.5999999999999943
        },
        {
          "name": "A3",
          "midi": 57,
          "time": 90,
          "velocity": 0.8267716535433071,
          "duration": 1
        },
        {
          "name": "F#3",
          "midi": 54,
          "time": 91.2,
          "velocity": 0.7874015748031497,
          "duration": 0.5999999999999943
        },
        {
          "name": "A3",
          "midi": 57,
          "time": 99.6,
          "velocity": 0.8267716535433071,
          "duration": 0.4000000000000057
        },
        {
          "name": "G3",
          "midi": 55,
          "time": 102,
          "velocity": 0.8267716535433071,
          "duration": 1
        },
        {
          "name": "A3",
          "midi": 57,
          "time": 109.2,
          "velocity": 0.8267716535433071,
          "duration": 0.5999999999999943
        },
        {
          "name": "G3",
          "midi": 55,
          "time": 109.2,
          "velocity": 0.8267716535433071,
          "duration": 0.5999999999999943
        },
        {
          "name": "G3",
          "midi": 55,
          "time": 110.39999999999999,
          "velocity": 0.8267716535433071,
          "duration": 0.5999999999999943
        },
        {
          "name": "A3",
          "midi": 57,
          "time": 111.39999999999999,
          "velocity": 0.8267716535433071,
          "duration": 0.20000000000000284
        },
        {
          "name": "G3",
          "midi": 55,
          "time": 121.6,
          "velocity": 0.8267716535433071,
          "duration": 0.20000000000000284
        },
        {
          "name": "F#3",
          "midi": 54,
          "time": 122.39999999999999,
          "velocity": 0.8267716535433071,
          "duration": 0.5999999999999943
        },
        {
          "name": "A3",
          "midi": 57,
          "time": 128.39999999999998,
          "velocity": 0.8267716535433071,
          "duration": 1
        },
        {
          "name": "F#3",
          "midi": 54,
          "time": 129.59999999999997,
          "velocity": 0.7874015748031497,
          "duration": 0.5999999999999943
        },
        {
          "name": "A3",
          "midi": 57,
          "time": 137.99999999999997,
          "velocity": 0.8267716535433071,
          "duration": 0.4000000000000057
        },
        {
          "name": "G3",
          "midi": 55,
          "time": 140.39999999999998,
          "velocity": 0.8267716535433071,
          "duration": 1
        },
        {
          "name": "A3",
          "midi": 57,
          "time": 145.2,
          "velocity": 0.8818897637795275,
          "duration": 0.4000000000000057
        },
        {
          "name": "A3",
          "midi": 57,
          "time": 147.6,
          "velocity": 0.8267716535433071,
          "duration": 1.1999999999999886
        },
        {
          "name": "G3",
          "midi": 55,
          "time": 150.6,
          "velocity": 0.8267716535433071,
          "duration": 0.5999999999999943
        },
        {
          "name": "F#3",
          "midi": 54,
          "time": 151.2,
          "velocity": 0.8267716535433071,
          "duration": 1.1999999999999886
        },
        {
          "name": "A3",
          "midi": 57,
          "time": 154.59999999999997,
          "velocity": 0.8267716535433071,
          "duration": 0.5999999999999943
        },
        {
          "name": "A3",
          "midi": 57,
          "time": 157.19999999999996,
          "velocity": 0.8818897637795275,
          "duration": 0.4000000000000057
        },
        {
          "name": "G3",
          "midi": 55,
          "time": 158.19999999999996,
          "velocity": 0.8267716535433071,
          "duration": 0.5999999999999943
        },
        {
          "name": "G3",
          "midi": 55,
          "time": 160.19999999999996,
          "velocity": 0.8267716535433071,
          "duration": 0.5999999999999943
        },
        {
          "name": "F#3",
          "midi": 54,
          "time": 160.79999999999995,
          "velocity": 0.8267716535433071,
          "duration": 0.5999999999999943
        },
        {
          "name": "A3",
          "midi": 57,
          "time": 166.99999999999994,
          "velocity": 0.8267716535433071,
          "duration": 1
        },
        {
          "name": "F#3",
          "midi": 54,
          "time": 167.99999999999994,
          "velocity": 0.7874015748031497,
          "duration": 0.5999999999999943
        },
        {
          "name": "A3",
          "midi": 57,
          "time": 173.99999999999994,
          "velocity": 0.8267716535433071,
          "duration": 0.4000000000000057
        },
        {
          "name": "A3",
          "midi": 57,
          "time": 176.39999999999995,
          "velocity": 0.8267716535433071,
          "duration": 1.1999999999999886
        },
        {
          "name": "G3",
          "midi": 55,
          "time": 179.39999999999995,
          "velocity": 0.8267716535433071,
          "duration": 0.5999999999999943
        },
        {
          "name": "F#3",
          "midi": 54,
          "time": 179.99999999999994,
          "velocity": 0.8267716535433071,
          "duration": 1.1999999999999886
        },
        {
          "name": "A3",
          "midi": 57,
          "time": 183.59999999999994,
          "velocity": 0.8267716535433071,
          "duration": 2.4000000000000057
        },
        {
          "name": "A3",
          "midi": 57,
          "time": 188.79999999999995,
          "velocity": 0.8267716535433071,
          "duration": 0.4000000000000057
        },
        {
          "name": "A3",
          "midi": 57,
          "time": 189.19999999999996,
          "velocity": 0.8267716535433071,
          "duration": 0.4000000000000057
        },
        {
          "name": "A3",
          "midi": 57,
          "time": 189.59999999999997,
          "velocity": 0.8267716535433071,
          "duration": 1.1999999999999886
        },
        {
          "name": "A3",
          "midi": 57,
          "time": 193.19999999999996,
          "velocity": 0.8267716535433071,
          "duration": 0.5999999999999943
        },
        {
          "name": "A3",
          "midi": 57,
          "time": 194.19999999999996,
          "velocity": 0.8267716535433071,
          "duration": 0.3499999999999943
        },
        {
          "name": "A3",
          "midi": 57,
          "time": 194.39999999999995,
          "velocity": 0.8818897637795275,
          "duration": 0.5999999999999943
        }
      ],
      "controlChanges": {
        "7": [
          {
            "number": 7,
            "time": 0.6,
            "value": 1
          }
        ],
        "10": [
          {
            "number": 10,
            "time": 0.6,
            "value": 0.48031496062992124
          }
        ],
        "91": [
          {
            "number": 91,
            "time": 0.6,
            "value": 0.4330708661417323
          }
        ],
        "93": [
          {
            "number": 93,
            "time": 0.6,
            "value": 0.11811023622047244
          }
        ]
      },
      "id": 9,
      "name": "=================",
      "instrumentNumber": 0,
      "instrument": "acoustic grand piano",
      "instrumentFamily": "piano",
      "channelNumber": 6,
      "isPercussion": false
    },
    {
      "startTime": 1.5,
      "duration": 194.39999999999995,
      "length": 131,
      "notes": [
        {
          "name": "C4",
          "midi": 60,
          "time": 1.5,
          "velocity": 0.8818897637795275,
          "duration": 0.30000000000000004
        },
        {
          "name": "A#3",
          "midi": 58,
          "time": 1.5,
          "velocity": 0.8267716535433071,
          "duration": 0.30000000000000004
        },
        {
          "name": "A#3",
          "midi": 58,
          "time": 2.4,
          "velocity": 0.8267716535433071,
          "duration": 1.1999999999999997
        },
        {
          "name": "C4",
          "midi": 60,
          "time": 3.5999999999999996,
          "velocity": 0.8267716535433071,
          "duration": 0.5999999999999996
        },
        {
          "name": "C4",
          "midi": 60,
          "time": 4.199999999999999,
          "velocity": 0.8267716535433071,
          "duration": 1.2000000000000002
        },
        {
          "name": "A#3",
          "midi": 58,
          "time": 5.3999999999999995,
          "velocity": 0.8267716535433071,
          "duration": 0.5999999999999996
        },
        {
          "name": "A#3",
          "midi": 58,
          "time": 5.999999999999999,
          "velocity": 0.8267716535433071,
          "duration": 1.2000000000000002
        },
        {
          "name": "A#3",
          "midi": 58,
          "time": 8.399999999999999,
          "velocity": 0.8267716535433071,
          "duration": 0.6000000000000014
        },
        {
          "name": "C4",
          "midi": 60,
          "time": 8.7,
          "velocity": 0.8818897637795275,
          "duration": 0.3000000000000007
        },
        {
          "name": "A#3",
          "midi": 58,
          "time": 9.6,
          "velocity": 0.8267716535433071,
          "duration": 1.1999999999999993
        },
        {
          "name": "C4",
          "midi": 60,
          "time": 10.799999999999999,
          "velocity": 0.8267716535433071,
          "duration": 0.5999999999999996
        },
        {
          "name": "C4",
          "midi": 60,
          "time": 11.999999999999998,
          "velocity": 0.8267716535433071,
          "duration": 0.5999999999999996
        },
        {
          "name": "A#3",
          "midi": 58,
          "time": 12.599999999999998,
          "velocity": 0.8267716535433071,
          "duration": 1.8000000000000007
        },
        {
          "name": "C4",
          "midi": 60,
          "time": 14.399999999999999,
          "velocity": 0.8267716535433071,
          "duration": 1.8000000000000007
        },
        {
          "name": "A#3",
          "midi": 58,
          "time": 20.7,
          "velocity": 0.8267716535433071,
          "duration": 0.6000000000000014
        },
        {
          "name": "A#3",
          "midi": 58,
          "time": 21.3,
          "velocity": 0.8267716535433071,
          "duration": 0.3000000000000007
        },
        {
          "name": "C4",
          "midi": 60,
          "time": 21.6,
          "velocity": 0.8267716535433071,
          "duration": 1.1999999999999993
        },
        {
          "name": "A#3",
          "midi": 58,
          "time": 22.8,
          "velocity": 0.8267716535433071,
          "duration": 0.6000000000000014
        },
        {
          "name": "C4",
          "midi": 60,
          "time": 23.1,
          "velocity": 0.8818897637795275,
          "duration": 0.3000000000000007
        },
        {
          "name": "A#3",
          "midi": 58,
          "time": 24.000000000000004,
          "velocity": 0.8267716535433071,
          "duration": 1.1999999999999993
        },
        {
          "name": "C4",
          "midi": 60,
          "time": 25.200000000000003,
          "velocity": 0.8267716535433071,
          "duration": 0.3000000000000007
        },
        {
          "name": "C4",
          "midi": 60,
          "time": 25.800000000000004,
          "velocity": 0.8267716535433071,
          "duration": 1.1999999999999993
        },
        {
          "name": "A#3",
          "midi": 58,
          "time": 27.000000000000004,
          "velocity": 0.8267716535433071,
          "duration": 0.6000000000000014
        },
        {
          "name": "A#3",
          "midi": 58,
          "time": 27.600000000000005,
          "velocity": 0.8267716535433071,
          "duration": 1.1999999999999993
        },
        {
          "name": "C4",
          "midi": 60,
          "time": 28.800000000000004,
          "velocity": 0.8267716535433071,
          "duration": 1.8000000000000007
        },
        {
          "name": "A#3",
          "midi": 58,
          "time": 30.675000000000004,
          "velocity": 0.8267716535433071,
          "duration": 1.125
        },
        {
          "name": "C4",
          "midi": 60,
          "time": 31.800000000000004,
          "velocity": 0.8818897637795275,
          "duration": 0.6000000000000014
        },
        {
          "name": "C4",
          "midi": 60,
          "time": 32.400000000000006,
          "velocity": 0.8267716535433071,
          "duration": 0.6000000000000014
        },
        {
          "name": "A#3",
          "midi": 58,
          "time": 33.60000000000001,
          "velocity": 0.8267716535433071,
          "duration": 0.6000000000000014
        },
        {
          "name": "C4",
          "midi": 60,
          "time": 34.60000000000001,
          "velocity": 0.8267716535433071,
          "duration": 0.20000000000000284
        },
        {
          "name": "C4",
          "midi": 60,
          "time": 36.000000000000014,
          "velocity": 0.8267716535433071,
          "duration": 0.6000000000000014
        },
        {
          "name": "A#3",
          "midi": 58,
          "time": 37.20000000000002,
          "velocity": 0.8267716535433071,
          "duration": 0.6000000000000014
        },
        {
          "name": "A#3",
          "midi": 58,
          "time": 38.20000000000002,
          "velocity": 0.8267716535433071,
          "duration": 0.20000000000000284
        },
        {
          "name": "A#3",
          "midi": 58,
          "time": 43.00000000000002,
          "velocity": 0.8818897637795275,
          "duration": 0.20000000000000284
        },
        {
          "name": "A#3",
          "midi": 58,
          "time": 46.800000000000026,
          "velocity": 0.8267716535433071,
          "duration": 0.3999999999999986
        },
        {
          "name": "A#3",
          "midi": 58,
          "time": 48.00000000000002,
          "velocity": 0.8267716535433071,
          "duration": 0.3999999999999986
        },
        {
          "name": "C4",
          "midi": 60,
          "time": 51.60000000000002,
          "velocity": 0.8267716535433071,
          "duration": 1.2000000000000028
        },
        {
          "name": "C4",
          "midi": 60,
          "time": 52.800000000000026,
          "velocity": 0.8267716535433071,
          "duration": 1.2000000000000028
        },
        {
          "name": "A#3",
          "midi": 58,
          "time": 55.60000000000003,
          "velocity": 0.8267716535433071,
          "duration": 0.20000000000000284
        },
        {
          "name": "A#3",
          "midi": 58,
          "time": 56.400000000000034,
          "velocity": 0.8267716535433071,
          "duration": 0.3999999999999986
        },
        {
          "name": "C4",
          "midi": 60,
          "time": 58.80000000000003,
          "velocity": 0.8267716535433071,
          "duration": 1.3999999999999986
        },
        {
          "name": "A#3",
          "midi": 58,
          "time": 60.20000000000003,
          "velocity": 0.8267716535433071,
          "duration": 1
        },
        {
          "name": "C4",
          "midi": 60,
          "time": 61.20000000000003,
          "velocity": 0.8267716535433071,
          "duration": 0.3999999999999986
        },
        {
          "name": "C4",
          "midi": 60,
          "time": 61.60000000000003,
          "velocity": 0.8818897637795275,
          "duration": 0.20000000000000284
        },
        {
          "name": "C4",
          "midi": 60,
          "time": 62.20000000000003,
          "velocity": 0.8818897637795275,
          "duration": 0.20000000000000284
        },
        {
          "name": "A#3",
          "midi": 58,
          "time": 62.400000000000034,
          "velocity": 0.8267716535433071,
          "duration": 0.3999999999999986
        },
        {
          "name": "C4",
          "midi": 60,
          "time": 62.80000000000003,
          "velocity": 0.8818897637795275,
          "duration": 0.3999999999999986
        },
        {
          "name": "C4",
          "midi": 60,
          "time": 64.60000000000004,
          "velocity": 0.8267716535433071,
          "duration": 1.2000000000000028
        },
        {
          "name": "A#3",
          "midi": 58,
          "time": 65.80000000000004,
          "velocity": 0.8267716535433071,
          "duration": 0.20000000000000284
        },
        {
          "name": "C4",
          "midi": 60,
          "time": 70.20000000000005,
          "velocity": 0.8818897637795275,
          "duration": 0.20000000000000284
        },
        {
          "name": "C4",
          "midi": 60,
          "time": 70.80000000000005,
          "velocity": 0.8267716535433071,
          "duration": 0.5999999999999943
        },
        {
          "name": "A#3",
          "midi": 58,
          "time": 72.00000000000004,
          "velocity": 0.8267716535433071,
          "duration": 0.5999999999999943
        },
        {
          "name": "C4",
          "midi": 60,
          "time": 73.00000000000004,
          "velocity": 0.8267716535433071,
          "duration": 0.20000000000000284
        },
        {
          "name": "C4",
          "midi": 60,
          "time": 74.40000000000005,
          "velocity": 0.8267716535433071,
          "duration": 0.5999999999999943
        },
        {
          "name": "A#3",
          "midi": 58,
          "time": 75.60000000000004,
          "velocity": 0.8267716535433071,
          "duration": 0.5999999999999943
        },
        {
          "name": "A#3",
          "midi": 58,
          "time": 76.60000000000004,
          "velocity": 0.8267716535433071,
          "duration": 0.20000000000000284
        },
        {
          "name": "A#3",
          "midi": 58,
          "time": 81.40000000000003,
          "velocity": 0.8818897637795275,
          "duration": 0.20000000000000284
        },
        {
          "name": "A#3",
          "midi": 58,
          "time": 85.20000000000003,
          "velocity": 0.8267716535433071,
          "duration": 0.4000000000000057
        },
        {
          "name": "A#3",
          "midi": 58,
          "time": 86.40000000000003,
          "velocity": 0.8267716535433071,
          "duration": 0.4000000000000057
        },
        {
          "name": "C4",
          "midi": 60,
          "time": 90.00000000000004,
          "velocity": 0.8267716535433071,
          "duration": 1.2000000000000028
        },
        {
          "name": "C4",
          "midi": 60,
          "time": 91.20000000000005,
          "velocity": 0.8267716535433071,
          "duration": 1.2000000000000028
        },
        {
          "name": "A#3",
          "midi": 58,
          "time": 94.00000000000004,
          "velocity": 0.8267716535433071,
          "duration": 0.20000000000000284
        },
        {
          "name": "A#3",
          "midi": 58,
          "time": 94.80000000000004,
          "velocity": 0.8267716535433071,
          "duration": 0.4000000000000057
        },
        {
          "name": "C4",
          "midi": 60,
          "time": 97.20000000000005,
          "velocity": 0.8267716535433071,
          "duration": 1.4000000000000057
        },
        {
          "name": "A#3",
          "midi": 58,
          "time": 98.60000000000005,
          "velocity": 0.8267716535433071,
          "duration": 1
        },
        {
          "name": "C4",
          "midi": 60,
          "time": 99.60000000000005,
          "velocity": 0.8267716535433071,
          "duration": 0.4000000000000057
        },
        {
          "name": "C4",
          "midi": 60,
          "time": 100.00000000000006,
          "velocity": 0.8818897637795275,
          "duration": 0.20000000000000284
        },
        {
          "name": "C4",
          "midi": 60,
          "time": 100.60000000000007,
          "velocity": 0.8818897637795275,
          "duration": 0.20000000000000284
        },
        {
          "name": "A#3",
          "midi": 58,
          "time": 100.80000000000007,
          "velocity": 0.8267716535433071,
          "duration": 0.4000000000000057
        },
        {
          "name": "C4",
          "midi": 60,
          "time": 101.20000000000007,
          "velocity": 0.8818897637795275,
          "duration": 0.4000000000000057
        },
        {
          "name": "C4",
          "midi": 60,
          "time": 103.00000000000009,
          "velocity": 0.8267716535433071,
          "duration": 1.2000000000000028
        },
        {
          "name": "A#3",
          "midi": 58,
          "time": 104.20000000000009,
          "velocity": 0.8267716535433071,
          "duration": 0.20000000000000284
        },
        {
          "name": "C4",
          "midi": 60,
          "time": 108.6000000000001,
          "velocity": 0.8818897637795275,
          "duration": 0.20000000000000284
        },
        {
          "name": "C4",
          "midi": 60,
          "time": 109.2000000000001,
          "velocity": 0.8267716535433071,
          "duration": 0.5999999999999943
        },
        {
          "name": "A#3",
          "midi": 58,
          "time": 110.40000000000009,
          "velocity": 0.8267716535433071,
          "duration": 0.5999999999999943
        },
        {
          "name": "C4",
          "midi": 60,
          "time": 111.40000000000009,
          "velocity": 0.8267716535433071,
          "duration": 0.20000000000000284
        },
        {
          "name": "C4",
          "midi": 60,
          "time": 112.8000000000001,
          "velocity": 0.8267716535433071,
          "duration": 0.5999999999999943
        },
        {
          "name": "A#3",
          "midi": 58,
          "time": 114.00000000000009,
          "velocity": 0.8267716535433071,
          "duration": 0.5999999999999943
        },
        {
          "name": "A#3",
          "midi": 58,
          "time": 115.00000000000009,
          "velocity": 0.8267716535433071,
          "duration": 0.20000000000000284
        },
        {
          "name": "A#3",
          "midi": 58,
          "time": 119.80000000000008,
          "velocity": 0.8818897637795275,
          "duration": 0.20000000000000284
        },
        {
          "name": "A#3",
          "midi": 58,
          "time": 123.60000000000008,
          "velocity": 0.8267716535433071,
          "duration": 0.4000000000000057
        },
        {
          "name": "A#3",
          "midi": 58,
          "time": 124.80000000000008,
          "velocity": 0.8267716535433071,
          "duration": 0.4000000000000057
        },
        {
          "name": "C4",
          "midi": 60,
          "time": 128.4000000000001,
          "velocity": 0.8267716535433071,
          "duration": 1.1999999999999886
        },
        {
          "name": "C4",
          "midi": 60,
          "time": 129.60000000000008,
          "velocity": 0.8267716535433071,
          "duration": 1.1999999999999886
        },
        {
          "name": "A#3",
          "midi": 58,
          "time": 132.40000000000006,
          "velocity": 0.8267716535433071,
          "duration": 0.19999999999998863
        },
        {
          "name": "A#3",
          "midi": 58,
          "time": 133.20000000000005,
          "velocity": 0.8267716535433071,
          "duration": 0.4000000000000057
        },
        {
          "name": "C4",
          "midi": 60,
          "time": 135.60000000000005,
          "velocity": 0.8267716535433071,
          "duration": 1.4000000000000057
        },
        {
          "name": "A#3",
          "midi": 58,
          "time": 137.00000000000006,
          "velocity": 0.8267716535433071,
          "duration": 1
        },
        {
          "name": "C4",
          "midi": 60,
          "time": 138.00000000000006,
          "velocity": 0.8267716535433071,
          "duration": 0.4000000000000057
        },
        {
          "name": "C4",
          "midi": 60,
          "time": 138.40000000000006,
          "velocity": 0.8818897637795275,
          "duration": 0.19999999999998863
        },
        {
          "name": "C4",
          "midi": 60,
          "time": 139.00000000000006,
          "velocity": 0.8818897637795275,
          "duration": 0.19999999999998863
        },
        {
          "name": "A#3",
          "midi": 58,
          "time": 139.20000000000005,
          "velocity": 0.8267716535433071,
          "duration": 0.4000000000000057
        },
        {
          "name": "C4",
          "midi": 60,
          "time": 139.60000000000005,
          "velocity": 0.8818897637795275,
          "duration": 0.4000000000000057
        },
        {
          "name": "C4",
          "midi": 60,
          "time": 141.40000000000006,
          "velocity": 0.8267716535433071,
          "duration": 1.1999999999999886
        },
        {
          "name": "A#3",
          "midi": 58,
          "time": 142.60000000000005,
          "velocity": 0.8267716535433071,
          "duration": 0.19999999999998863
        },
        {
          "name": "C4",
          "midi": 60,
          "time": 145.60000000000005,
          "velocity": 0.8818897637795275,
          "duration": 0.5999999999999943
        },
        {
          "name": "A#3",
          "midi": 58,
          "time": 146.20000000000005,
          "velocity": 0.8267716535433071,
          "duration": 0.8000000000000114
        },
        {
          "name": "C4",
          "midi": 60,
          "time": 147.00000000000006,
          "velocity": 0.8818897637795275,
          "duration": 0.5999999999999943
        },
        {
          "name": "A#3",
          "midi": 58,
          "time": 148.80000000000004,
          "velocity": 0.8267716535433071,
          "duration": 0.4000000000000057
        },
        {
          "name": "C4",
          "midi": 60,
          "time": 149.80000000000004,
          "velocity": 0.8267716535433071,
          "duration": 0.19999999999998863
        },
        {
          "name": "C4",
          "midi": 60,
          "time": 151.20000000000002,
          "velocity": 0.8267716535433071,
          "duration": 1.1999999999999886
        },
        {
          "name": "A#3",
          "midi": 58,
          "time": 152.4,
          "velocity": 0.8267716535433071,
          "duration": 0.4000000000000057
        },
        {
          "name": "A#3",
          "midi": 58,
          "time": 153.60000000000002,
          "velocity": 0.8267716535433071,
          "duration": 0.5999999999999943
        },
        {
          "name": "C4",
          "midi": 60,
          "time": 154.60000000000002,
          "velocity": 0.8267716535433071,
          "duration": 0.5999999999999943
        },
        {
          "name": "A#3",
          "midi": 58,
          "time": 155.8,
          "velocity": 0.8267716535433071,
          "duration": 1.4000000000000057
        },
        {
          "name": "C4",
          "midi": 60,
          "time": 157.60000000000002,
          "velocity": 0.8818897637795275,
          "duration": 0.19999999999998863
        },
        {
          "name": "C4",
          "midi": 60,
          "time": 158.20000000000002,
          "velocity": 0.8267716535433071,
          "duration": 0.19999999999998863
        },
        {
          "name": "C4",
          "midi": 60,
          "time": 158.4,
          "velocity": 0.8267716535433071,
          "duration": 0.4000000000000057
        },
        {
          "name": "C4",
          "midi": 60,
          "time": 160.8,
          "velocity": 0.8267716535433071,
          "duration": 0.5999999999999943
        },
        {
          "name": "A#3",
          "midi": 58,
          "time": 162,
          "velocity": 0.8267716535433071,
          "duration": 1.1999999999999886
        },
        {
          "name": "C4",
          "midi": 60,
          "time": 167,
          "velocity": 0.8267716535433071,
          "duration": 1
        },
        {
          "name": "C4",
          "midi": 60,
          "time": 168,
          "velocity": 0.8267716535433071,
          "duration": 1
        },
        {
          "name": "A#3",
          "midi": 58,
          "time": 172,
          "velocity": 0.8267716535433071,
          "duration": 0.4000000000000057
        },
        {
          "name": "A#3",
          "midi": 58,
          "time": 172.4,
          "velocity": 0.8267716535433071,
          "duration": 0.4000000000000057
        },
        {
          "name": "A#3",
          "midi": 58,
          "time": 172.8,
          "velocity": 0.8267716535433071,
          "duration": 0.5999999999999943
        },
        {
          "name": "C4",
          "midi": 60,
          "time": 174,
          "velocity": 0.8267716535433071,
          "duration": 2.3999999999999773
        },
        {
          "name": "C4",
          "midi": 60,
          "time": 176.2,
          "velocity": 0.8818897637795275,
          "duration": 0.19999999999998863
        },
        {
          "name": "A#3",
          "midi": 58,
          "time": 177.59999999999997,
          "velocity": 0.8267716535433071,
          "duration": 1.1999999999999886
        },
        {
          "name": "C4",
          "midi": 60,
          "time": 178.79999999999995,
          "velocity": 0.8267716535433071,
          "duration": 0.5999999999999943
        },
        {
          "name": "C4",
          "midi": 60,
          "time": 179.99999999999994,
          "velocity": 0.8267716535433071,
          "duration": 1.1999999999999886
        },
        {
          "name": "A#3",
          "midi": 58,
          "time": 181.19999999999993,
          "velocity": 0.8267716535433071,
          "duration": 1.1999999999999886
        },
        {
          "name": "C4",
          "midi": 60,
          "time": 183.5999999999999,
          "velocity": 0.8267716535433071,
          "duration": 2.4000000000000057
        },
        {
          "name": "A#3",
          "midi": 58,
          "time": 186.39999999999992,
          "velocity": 0.8267716535433071,
          "duration": 0.4000000000000057
        },
        {
          "name": "A#3",
          "midi": 58,
          "time": 186.79999999999993,
          "velocity": 0.8267716535433071,
          "duration": 0.4000000000000057
        },
        {
          "name": "A#3",
          "midi": 58,
          "time": 187.19999999999993,
          "velocity": 0.8267716535433071,
          "duration": 1.1999999999999886
        },
        {
          "name": "A#3",
          "midi": 58,
          "time": 191.19999999999993,
          "velocity": 0.8267716535433071,
          "duration": 0.4000000000000057
        },
        {
          "name": "A#3",
          "midi": 58,
          "time": 191.59999999999994,
          "velocity": 0.8267716535433071,
          "duration": 0.4000000000000057
        },
        {
          "name": "A#3",
          "midi": 58,
          "time": 191.99999999999994,
          "velocity": 0.8267716535433071,
          "duration": 1.1999999999999886
        },
        {
          "name": "C4",
          "midi": 60,
          "time": 193.19999999999993,
          "velocity": 0.8267716535433071,
          "duration": 0.5999999999999943
        },
        {
          "name": "C4",
          "midi": 60,
          "time": 194.19999999999993,
          "velocity": 0.8267716535433071,
          "duration": 0.8000000000000114
        },
        {
          "name": "B3",
          "midi": 59,
          "time": 194.24999999999994,
          "velocity": 0.8818897637795275,
          "duration": 0.15000000000000568
        }
      ],
      "controlChanges": {
        "7": [
          {
            "number": 7,
            "time": 0.6,
            "value": 1
          }
        ],
        "10": [
          {
            "number": 10,
            "time": 0.6,
            "value": 0.5275590551181102
          }
        ],
        "91": [
          {
            "number": 91,
            "time": 0.6,
            "value": 0.4330708661417323
          }
        ],
        "93": [
          {
            "number": 93,
            "time": 0.6,
            "value": 0.11811023622047244
          }
        ]
      },
      "id": 10,
      "name": "Sequenced by ",
      "instrumentNumber": 0,
      "instrument": "acoustic grand piano",
      "instrumentFamily": "piano",
      "channelNumber": 7,
      "isPercussion": false
    },
    {
      "startTime": 4.199999999999999,
      "duration": 194.6999999999999,
      "length": 86,
      "notes": [
        {
          "name": "D#4",
          "midi": 63,
          "time": 4.199999999999999,
          "velocity": 0.8267716535433071,
          "duration": 1.2000000000000002
        },
        {
          "name": "D4",
          "midi": 62,
          "time": 5.3999999999999995,
          "velocity": 0.8267716535433071,
          "duration": 0.5999999999999996
        },
        {
          "name": "D4",
          "midi": 62,
          "time": 5.999999999999999,
          "velocity": 0.8267716535433071,
          "duration": 1.2000000000000002
        },
        {
          "name": "C#4",
          "midi": 61,
          "time": 8.399999999999999,
          "velocity": 0.8267716535433071,
          "duration": 0.5999999999999996
        },
        {
          "name": "C#4",
          "midi": 61,
          "time": 11.399999999999999,
          "velocity": 0.8267716535433071,
          "duration": 0.5999999999999996
        },
        {
          "name": "D#4",
          "midi": 63,
          "time": 11.999999999999998,
          "velocity": 0.8267716535433071,
          "duration": 0.5999999999999996
        },
        {
          "name": "D4",
          "midi": 62,
          "time": 12.599999999999998,
          "velocity": 0.8267716535433071,
          "duration": 1.8000000000000007
        },
        {
          "name": "D#4",
          "midi": 63,
          "time": 16.799999999999997,
          "velocity": 0.8267716535433071,
          "duration": 1.1999999999999993
        },
        {
          "name": "D4",
          "midi": 62,
          "time": 17.999999999999996,
          "velocity": 0.8267716535433071,
          "duration": 1.8000000000000007
        },
        {
          "name": "D4",
          "midi": 62,
          "time": 19.799999999999997,
          "velocity": 0.8267716535433071,
          "duration": 0.8999999999999986
        },
        {
          "name": "C#4",
          "midi": 61,
          "time": 22.799999999999997,
          "velocity": 0.8267716535433071,
          "duration": 0.6000000000000014
        },
        {
          "name": "C#4",
          "midi": 61,
          "time": 25.5,
          "velocity": 0.8267716535433071,
          "duration": 0.3000000000000007
        },
        {
          "name": "D4",
          "midi": 62,
          "time": 27,
          "velocity": 0.8267716535433071,
          "duration": 0.6000000000000014
        },
        {
          "name": "C#4",
          "midi": 61,
          "time": 27.6,
          "velocity": 0.8267716535433071,
          "duration": 1.1999999999999993
        },
        {
          "name": "D4",
          "midi": 62,
          "time": 28.8,
          "velocity": 0.8267716535433071,
          "duration": 1.8000000000000007
        },
        {
          "name": "C#4",
          "midi": 61,
          "time": 30.712500000000002,
          "velocity": 0.8267716535433071,
          "duration": 1.0874999999999986
        },
        {
          "name": "D4",
          "midi": 62,
          "time": 32.4,
          "velocity": 0.8818897637795275,
          "duration": 0.6000000000000014
        },
        {
          "name": "D4",
          "midi": 62,
          "time": 33.6,
          "velocity": 0.8818897637795275,
          "duration": 0.6000000000000014
        },
        {
          "name": "D#4",
          "midi": 63,
          "time": 36,
          "velocity": 0.8267716535433071,
          "duration": 0.6000000000000014
        },
        {
          "name": "D4",
          "midi": 62,
          "time": 37.2,
          "velocity": 0.8267716535433071,
          "duration": 0.6000000000000014
        },
        {
          "name": "C#4",
          "midi": 61,
          "time": 38.2,
          "velocity": 0.8267716535433071,
          "duration": 0.20000000000000284
        },
        {
          "name": "C#4",
          "midi": 61,
          "time": 44.800000000000004,
          "velocity": 0.8267716535433071,
          "duration": 0.20000000000000284
        },
        {
          "name": "D#4",
          "midi": 63,
          "time": 45.60000000000001,
          "velocity": 0.8267716535433071,
          "duration": 0.6000000000000014
        },
        {
          "name": "C#4",
          "midi": 61,
          "time": 45.60000000000001,
          "velocity": 0.8267716535433071,
          "duration": 0.6000000000000014
        },
        {
          "name": "D4",
          "midi": 62,
          "time": 46.80000000000001,
          "velocity": 0.8267716535433071,
          "duration": 0.3999999999999986
        },
        {
          "name": "C#4",
          "midi": 61,
          "time": 48.00000000000001,
          "velocity": 0.8267716535433071,
          "duration": 0.3999999999999986
        },
        {
          "name": "D4",
          "midi": 62,
          "time": 54.00000000000001,
          "velocity": 0.8267716535433071,
          "duration": 1.2000000000000028
        },
        {
          "name": "D4",
          "midi": 62,
          "time": 55.60000000000001,
          "velocity": 0.8267716535433071,
          "duration": 0.20000000000000284
        },
        {
          "name": "D4",
          "midi": 62,
          "time": 56.40000000000001,
          "velocity": 0.8267716535433071,
          "duration": 0.3999999999999986
        },
        {
          "name": "C#4",
          "midi": 61,
          "time": 57.60000000000001,
          "velocity": 0.8267716535433071,
          "duration": 1
        },
        {
          "name": "D4",
          "midi": 62,
          "time": 65.80000000000001,
          "velocity": 0.8267716535433071,
          "duration": 0.20000000000000284
        },
        {
          "name": "D4",
          "midi": 62,
          "time": 70.80000000000001,
          "velocity": 0.8818897637795275,
          "duration": 0.5999999999999943
        },
        {
          "name": "D4",
          "midi": 62,
          "time": 72,
          "velocity": 0.8818897637795275,
          "duration": 0.5999999999999943
        },
        {
          "name": "D#4",
          "midi": 63,
          "time": 74.39999999999999,
          "velocity": 0.8267716535433071,
          "duration": 0.5999999999999943
        },
        {
          "name": "D4",
          "midi": 62,
          "time": 75.59999999999998,
          "velocity": 0.8267716535433071,
          "duration": 0.5999999999999943
        },
        {
          "name": "C#4",
          "midi": 61,
          "time": 76.59999999999998,
          "velocity": 0.8267716535433071,
          "duration": 0.20000000000000284
        },
        {
          "name": "C#4",
          "midi": 61,
          "time": 83.19999999999999,
          "velocity": 0.8267716535433071,
          "duration": 0.20000000000000284
        },
        {
          "name": "D#4",
          "midi": 63,
          "time": 83.99999999999999,
          "velocity": 0.8267716535433071,
          "duration": 0.5999999999999943
        },
        {
          "name": "C#4",
          "midi": 61,
          "time": 83.99999999999999,
          "velocity": 0.8267716535433071,
          "duration": 0.5999999999999943
        },
        {
          "name": "D4",
          "midi": 62,
          "time": 85.19999999999997,
          "velocity": 0.8267716535433071,
          "duration": 0.4000000000000057
        },
        {
          "name": "C#4",
          "midi": 61,
          "time": 86.39999999999998,
          "velocity": 0.8267716535433071,
          "duration": 0.4000000000000057
        },
        {
          "name": "D4",
          "midi": 62,
          "time": 92.39999999999998,
          "velocity": 0.8267716535433071,
          "duration": 1.2000000000000028
        },
        {
          "name": "D4",
          "midi": 62,
          "time": 93.99999999999999,
          "velocity": 0.8267716535433071,
          "duration": 0.20000000000000284
        },
        {
          "name": "D4",
          "midi": 62,
          "time": 94.79999999999998,
          "velocity": 0.8267716535433071,
          "duration": 0.4000000000000057
        },
        {
          "name": "C#4",
          "midi": 61,
          "time": 95.99999999999999,
          "velocity": 0.8267716535433071,
          "duration": 1
        },
        {
          "name": "D4",
          "midi": 62,
          "time": 104.19999999999999,
          "velocity": 0.8267716535433071,
          "duration": 0.20000000000000284
        },
        {
          "name": "D4",
          "midi": 62,
          "time": 109.19999999999999,
          "velocity": 0.8818897637795275,
          "duration": 0.5999999999999943
        },
        {
          "name": "D4",
          "midi": 62,
          "time": 110.39999999999998,
          "velocity": 0.8818897637795275,
          "duration": 0.5999999999999943
        },
        {
          "name": "D#4",
          "midi": 63,
          "time": 112.79999999999997,
          "velocity": 0.8267716535433071,
          "duration": 0.5999999999999943
        },
        {
          "name": "D4",
          "midi": 62,
          "time": 113.99999999999996,
          "velocity": 0.8267716535433071,
          "duration": 0.5999999999999943
        },
        {
          "name": "C#4",
          "midi": 61,
          "time": 114.99999999999996,
          "velocity": 0.8267716535433071,
          "duration": 0.20000000000000284
        },
        {
          "name": "C#4",
          "midi": 61,
          "time": 121.59999999999997,
          "velocity": 0.8267716535433071,
          "duration": 0.20000000000000284
        },
        {
          "name": "D#4",
          "midi": 63,
          "time": 122.39999999999996,
          "velocity": 0.8267716535433071,
          "duration": 0.5999999999999943
        },
        {
          "name": "C#4",
          "midi": 61,
          "time": 122.39999999999996,
          "velocity": 0.8267716535433071,
          "duration": 0.5999999999999943
        },
        {
          "name": "D4",
          "midi": 62,
          "time": 123.59999999999995,
          "velocity": 0.8267716535433071,
          "duration": 0.4000000000000057
        },
        {
          "name": "C#4",
          "midi": 61,
          "time": 124.79999999999995,
          "velocity": 0.8267716535433071,
          "duration": 0.4000000000000057
        },
        {
          "name": "D4",
          "midi": 62,
          "time": 130.79999999999995,
          "velocity": 0.8267716535433071,
          "duration": 1.1999999999999886
        },
        {
          "name": "D4",
          "midi": 62,
          "time": 132.39999999999995,
          "velocity": 0.8267716535433071,
          "duration": 0.19999999999998863
        },
        {
          "name": "D4",
          "midi": 62,
          "time": 133.19999999999993,
          "velocity": 0.8267716535433071,
          "duration": 0.4000000000000057
        },
        {
          "name": "C#4",
          "midi": 61,
          "time": 134.39999999999995,
          "velocity": 0.8267716535433071,
          "duration": 1
        },
        {
          "name": "D4",
          "midi": 62,
          "time": 142.59999999999994,
          "velocity": 0.8267716535433071,
          "duration": 0.19999999999998863
        },
        {
          "name": "C#4",
          "midi": 61,
          "time": 146.19999999999993,
          "velocity": 0.8267716535433071,
          "duration": 0.8000000000000114
        },
        {
          "name": "C#4",
          "midi": 61,
          "time": 150.59999999999994,
          "velocity": 0.8267716535433071,
          "duration": 0.5999999999999943
        },
        {
          "name": "D#4",
          "midi": 63,
          "time": 151.19999999999993,
          "velocity": 0.8267716535433071,
          "duration": 1.1999999999999886
        },
        {
          "name": "D4",
          "midi": 62,
          "time": 152.39999999999992,
          "velocity": 0.8267716535433071,
          "duration": 0.4000000000000057
        },
        {
          "name": "C#4",
          "midi": 61,
          "time": 153.59999999999994,
          "velocity": 0.8267716535433071,
          "duration": 0.5999999999999943
        },
        {
          "name": "C#4",
          "midi": 61,
          "time": 155.79999999999993,
          "velocity": 0.8267716535433071,
          "duration": 1.4000000000000057
        },
        {
          "name": "C#4",
          "midi": 61,
          "time": 158.19999999999993,
          "velocity": 0.8267716535433071,
          "duration": 0.5999999999999943
        },
        {
          "name": "C#4",
          "midi": 61,
          "time": 159.19999999999993,
          "velocity": 0.8267716535433071,
          "duration": 0.4000000000000057
        },
        {
          "name": "C#4",
          "midi": 61,
          "time": 160.19999999999993,
          "velocity": 0.8267716535433071,
          "duration": 0.5999999999999943
        },
        {
          "name": "D#4",
          "midi": 63,
          "time": 160.79999999999993,
          "velocity": 0.8267716535433071,
          "duration": 0.5999999999999943
        },
        {
          "name": "D4",
          "midi": 62,
          "time": 161.39999999999992,
          "velocity": 0.8818897637795275,
          "duration": 1
        },
        {
          "name": "D4",
          "midi": 62,
          "time": 168.99999999999991,
          "velocity": 0.8267716535433071,
          "duration": 2.5999999999999943
        },
        {
          "name": "D4",
          "midi": 62,
          "time": 171.99999999999991,
          "velocity": 0.8267716535433071,
          "duration": 0.4000000000000057
        },
        {
          "name": "D4",
          "midi": 62,
          "time": 172.39999999999992,
          "velocity": 0.8267716535433071,
          "duration": 0.4000000000000057
        },
        {
          "name": "D4",
          "midi": 62,
          "time": 172.79999999999993,
          "velocity": 0.8267716535433071,
          "duration": 1
        },
        {
          "name": "D#4",
          "midi": 63,
          "time": 178.79999999999993,
          "velocity": 0.8267716535433071,
          "duration": 0.5999999999999943
        },
        {
          "name": "C#4",
          "midi": 61,
          "time": 179.39999999999992,
          "velocity": 0.8267716535433071,
          "duration": 0.5999999999999943
        },
        {
          "name": "D4",
          "midi": 62,
          "time": 179.99999999999991,
          "velocity": 0.8818897637795275,
          "duration": 1.1999999999999886
        },
        {
          "name": "D4",
          "midi": 62,
          "time": 182.3999999999999,
          "velocity": 0.8267716535433071,
          "duration": 0.5999999999999943
        },
        {
          "name": "D4",
          "midi": 62,
          "time": 182.9999999999999,
          "velocity": 0.8818897637795275,
          "duration": 0.5999999999999943
        },
        {
          "name": "D4",
          "midi": 62,
          "time": 183.59999999999988,
          "velocity": 0.8267716535433071,
          "duration": 2.4000000000000057
        },
        {
          "name": "D4",
          "midi": 62,
          "time": 188.7999999999999,
          "velocity": 0.8267716535433071,
          "duration": 0.4000000000000057
        },
        {
          "name": "D4",
          "midi": 62,
          "time": 189.1999999999999,
          "velocity": 0.8267716535433071,
          "duration": 0.4000000000000057
        },
        {
          "name": "D4",
          "midi": 62,
          "time": 189.5999999999999,
          "velocity": 0.8267716535433071,
          "duration": 1.1999999999999886
        },
        {
          "name": "D4",
          "midi": 62,
          "time": 194.5499999999999,
          "velocity": 0.8818897637795275,
          "duration": 0.15000000000000568
        }
      ],
      "controlChanges": {
        "7": [
          {
            "number": 7,
            "time": 0.6,
            "value": 1
          }
        ],
        "10": [
          {
            "number": 10,
            "time": 0.6,
            "value": 0.5826771653543307
          }
        ],
        "91": [
          {
            "number": 91,
            "time": 0.6,
            "value": 0.4330708661417323
          }
        ],
        "93": [
          {
            "number": 93,
            "time": 0.6,
            "value": 0.11811023622047244
          }
        ]
      },
      "id": 11,
      "name": "D.W.Barnes",
      "instrumentNumber": 0,
      "instrument": "acoustic grand piano",
      "instrumentFamily": "piano",
      "channelNumber": 8,
      "isPercussion": false
    },
    {
      "startTime": 1.7999999999999998,
      "duration": 194.99999999999997,
      "length": 159,
      "notes": [
        {
          "name": "F4",
          "midi": 65,
          "time": 1.7999999999999998,
          "velocity": 0.8818897637795275,
          "duration": 0.2999999999999998
        },
        {
          "name": "F4",
          "midi": 65,
          "time": 2.0999999999999996,
          "velocity": 0.8818897637795275,
          "duration": 0.2999999999999998
        },
        {
          "name": "F4",
          "midi": 65,
          "time": 2.3999999999999995,
          "velocity": 0.8818897637795275,
          "duration": 0.6000000000000001
        },
        {
          "name": "F4",
          "midi": 65,
          "time": 5.3999999999999995,
          "velocity": 0.8267716535433071,
          "duration": 0.5999999999999996
        },
        {
          "name": "E4",
          "midi": 64,
          "time": 6.599999999999999,
          "velocity": 0.8818897637795275,
          "duration": 0.5999999999999996
        },
        {
          "name": "F4",
          "midi": 65,
          "time": 7.499999999999998,
          "velocity": 0.8818897637795275,
          "duration": 0.2999999999999998
        },
        {
          "name": "F4",
          "midi": 65,
          "time": 7.799999999999998,
          "velocity": 0.8818897637795275,
          "duration": 0.6000000000000005
        },
        {
          "name": "F4",
          "midi": 65,
          "time": 8.399999999999999,
          "velocity": 0.8818897637795275,
          "duration": 0.3000000000000007
        },
        {
          "name": "F4",
          "midi": 65,
          "time": 9,
          "velocity": 0.8818897637795275,
          "duration": 0.3000000000000007
        },
        {
          "name": "F4",
          "midi": 65,
          "time": 9.3,
          "velocity": 0.8818897637795275,
          "duration": 0.3000000000000007
        },
        {
          "name": "F4",
          "midi": 65,
          "time": 9.600000000000001,
          "velocity": 0.8818897637795275,
          "duration": 0.5999999999999996
        },
        {
          "name": "F4",
          "midi": 65,
          "time": 11.4,
          "velocity": 0.8267716535433071,
          "duration": 0.5999999999999996
        },
        {
          "name": "E4",
          "midi": 64,
          "time": 13.8,
          "velocity": 0.8818897637795275,
          "duration": 0.5999999999999996
        },
        {
          "name": "F4",
          "midi": 65,
          "time": 14.700000000000001,
          "velocity": 0.8818897637795275,
          "duration": 0.3000000000000007
        },
        {
          "name": "F4",
          "midi": 65,
          "time": 15.000000000000002,
          "velocity": 0.8818897637795275,
          "duration": 0.9000000000000004
        },
        {
          "name": "E4",
          "midi": 64,
          "time": 16.200000000000003,
          "velocity": 0.8267716535433071,
          "duration": 0.6000000000000014
        },
        {
          "name": "F4",
          "midi": 65,
          "time": 18.000000000000004,
          "velocity": 0.8267716535433071,
          "duration": 1.8000000000000007
        },
        {
          "name": "F4",
          "midi": 65,
          "time": 19.800000000000004,
          "velocity": 0.8267716535433071,
          "duration": 0.8999999999999986
        },
        {
          "name": "E4",
          "midi": 64,
          "time": 20.700000000000003,
          "velocity": 0.8267716535433071,
          "duration": 0.6000000000000014
        },
        {
          "name": "E4",
          "midi": 64,
          "time": 21.300000000000004,
          "velocity": 0.8267716535433071,
          "duration": 0.3000000000000007
        },
        {
          "name": "E4",
          "midi": 64,
          "time": 21.600000000000005,
          "velocity": 0.8267716535433071,
          "duration": 1.1999999999999993
        },
        {
          "name": "E4",
          "midi": 64,
          "time": 22.800000000000004,
          "velocity": 0.8267716535433071,
          "duration": 0.6000000000000014
        },
        {
          "name": "F4",
          "midi": 65,
          "time": 23.400000000000006,
          "velocity": 0.8818897637795275,
          "duration": 0.3000000000000007
        },
        {
          "name": "F4",
          "midi": 65,
          "time": 23.700000000000006,
          "velocity": 0.8818897637795275,
          "duration": 0.3000000000000007
        },
        {
          "name": "F4",
          "midi": 65,
          "time": 24.000000000000007,
          "velocity": 0.8818897637795275,
          "duration": 0.6000000000000014
        },
        {
          "name": "F4",
          "midi": 65,
          "time": 25.500000000000007,
          "velocity": 0.8267716535433071,
          "duration": 0.3000000000000007
        },
        {
          "name": "E4",
          "midi": 64,
          "time": 25.800000000000008,
          "velocity": 0.8267716535433071,
          "duration": 1.1999999999999993
        },
        {
          "name": "E4",
          "midi": 64,
          "time": 28.200000000000006,
          "velocity": 0.8818897637795275,
          "duration": 0.6000000000000014
        },
        {
          "name": "F4",
          "midi": 65,
          "time": 29.10000000000001,
          "velocity": 0.8818897637795275,
          "duration": 0.3000000000000007
        },
        {
          "name": "F4",
          "midi": 65,
          "time": 29.40000000000001,
          "velocity": 0.8818897637795275,
          "duration": 1.1999999999999993
        },
        {
          "name": "E4",
          "midi": 64,
          "time": 34.60000000000001,
          "velocity": 0.8267716535433071,
          "duration": 0.20000000000000284
        },
        {
          "name": "F#4",
          "midi": 66,
          "time": 36.000000000000014,
          "velocity": 0.8267716535433071,
          "duration": 0.6000000000000014
        },
        {
          "name": "F4",
          "midi": 65,
          "time": 37.20000000000002,
          "velocity": 0.8267716535433071,
          "duration": 0.6000000000000014
        },
        {
          "name": "E4",
          "midi": 64,
          "time": 38.20000000000002,
          "velocity": 0.8267716535433071,
          "duration": 0.20000000000000284
        },
        {
          "name": "E4",
          "midi": 64,
          "time": 39.40000000000002,
          "velocity": 0.8818897637795275,
          "duration": 0.20000000000000284
        },
        {
          "name": "F#4",
          "midi": 66,
          "time": 39.60000000000002,
          "velocity": 0.8818897637795275,
          "duration": 0.03750000000000142
        },
        {
          "name": "F4",
          "midi": 65,
          "time": 40.200000000000024,
          "velocity": 0.8818897637795275,
          "duration": 0.6000000000000014
        },
        {
          "name": "F4",
          "midi": 65,
          "time": 40.800000000000026,
          "velocity": 0.8818897637795275,
          "duration": 0.6000000000000014
        },
        {
          "name": "F4",
          "midi": 65,
          "time": 43.200000000000024,
          "velocity": 0.8818897637795275,
          "duration": 0.6000000000000014
        },
        {
          "name": "F4",
          "midi": 65,
          "time": 44.800000000000026,
          "velocity": 0.8267716535433071,
          "duration": 0.20000000000000284
        },
        {
          "name": "F4",
          "midi": 65,
          "time": 46.800000000000026,
          "velocity": 0.8818897637795275,
          "duration": 0.3999999999999986
        },
        {
          "name": "E4",
          "midi": 64,
          "time": 48.40000000000003,
          "velocity": 0.8818897637795275,
          "duration": 0.6000000000000014
        },
        {
          "name": "F#4",
          "midi": 66,
          "time": 49.00000000000003,
          "velocity": 0.8818897637795275,
          "duration": 0.04999999999999716
        },
        {
          "name": "F4",
          "midi": 65,
          "time": 49.60000000000002,
          "velocity": 0.8818897637795275,
          "duration": 0.7999999999999972
        },
        {
          "name": "E4",
          "midi": 64,
          "time": 51.60000000000002,
          "velocity": 0.8267716535433071,
          "duration": 1.2000000000000028
        },
        {
          "name": "F4",
          "midi": 65,
          "time": 52.800000000000026,
          "velocity": 0.8267716535433071,
          "duration": 1.2000000000000028
        },
        {
          "name": "F4",
          "midi": 65,
          "time": 54.00000000000003,
          "velocity": 0.8267716535433071,
          "duration": 1.2000000000000028
        },
        {
          "name": "F4",
          "midi": 65,
          "time": 55.60000000000003,
          "velocity": 0.8267716535433071,
          "duration": 0.20000000000000284
        },
        {
          "name": "F4",
          "midi": 65,
          "time": 56.400000000000034,
          "velocity": 0.8818897637795275,
          "duration": 0.3999999999999986
        },
        {
          "name": "E4",
          "midi": 64,
          "time": 57.60000000000003,
          "velocity": 0.8267716535433071,
          "duration": 1
        },
        {
          "name": "F4",
          "midi": 65,
          "time": 59.20000000000003,
          "velocity": 0.8267716535433071,
          "duration": 0.3999999999999986
        },
        {
          "name": "F4",
          "midi": 65,
          "time": 59.60000000000003,
          "velocity": 0.8267716535433071,
          "duration": 1.6000000000000014
        },
        {
          "name": "E4",
          "midi": 64,
          "time": 61.20000000000003,
          "velocity": 0.8818897637795275,
          "duration": 0.3999999999999986
        },
        {
          "name": "F4",
          "midi": 65,
          "time": 61.80000000000003,
          "velocity": 0.8818897637795275,
          "duration": 0.3999999999999986
        },
        {
          "name": "F4",
          "midi": 65,
          "time": 63.20000000000003,
          "velocity": 0.8818897637795275,
          "duration": 0.3999999999999986
        },
        {
          "name": "E4",
          "midi": 64,
          "time": 64.20000000000003,
          "velocity": 0.8818897637795275,
          "duration": 0.4000000000000057
        },
        {
          "name": "F#4",
          "midi": 66,
          "time": 64.60000000000004,
          "velocity": 0.8818897637795275,
          "duration": 1.2000000000000028
        },
        {
          "name": "F4",
          "midi": 65,
          "time": 65.80000000000004,
          "velocity": 0.8818897637795275,
          "duration": 0.20000000000000284
        },
        {
          "name": "E4",
          "midi": 64,
          "time": 67.80000000000004,
          "velocity": 0.8818897637795275,
          "duration": 0.5999999999999943
        },
        {
          "name": "F#4",
          "midi": 66,
          "time": 68.40000000000003,
          "velocity": 0.8818897637795275,
          "duration": 0.037499999999994316
        },
        {
          "name": "F4",
          "midi": 65,
          "time": 69.00000000000003,
          "velocity": 0.8818897637795275,
          "duration": 0.5999999999999943
        },
        {
          "name": "F4",
          "midi": 65,
          "time": 70.40000000000002,
          "velocity": 0.8818897637795275,
          "duration": 0.20000000000000284
        },
        {
          "name": "E4",
          "midi": 64,
          "time": 73.00000000000003,
          "velocity": 0.8267716535433071,
          "duration": 0.20000000000000284
        },
        {
          "name": "F#4",
          "midi": 66,
          "time": 74.40000000000003,
          "velocity": 0.8267716535433071,
          "duration": 0.5999999999999943
        },
        {
          "name": "F4",
          "midi": 65,
          "time": 75.60000000000002,
          "velocity": 0.8267716535433071,
          "duration": 0.5999999999999943
        },
        {
          "name": "E4",
          "midi": 64,
          "time": 76.60000000000002,
          "velocity": 0.8267716535433071,
          "duration": 0.20000000000000284
        },
        {
          "name": "E4",
          "midi": 64,
          "time": 77.80000000000003,
          "velocity": 0.8818897637795275,
          "duration": 0.20000000000000284
        },
        {
          "name": "F#4",
          "midi": 66,
          "time": 78.00000000000003,
          "velocity": 0.8818897637795275,
          "duration": 0.037499999999994316
        },
        {
          "name": "F4",
          "midi": 65,
          "time": 78.60000000000002,
          "velocity": 0.8818897637795275,
          "duration": 0.5999999999999943
        },
        {
          "name": "F4",
          "midi": 65,
          "time": 79.20000000000002,
          "velocity": 0.8818897637795275,
          "duration": 0.5999999999999943
        },
        {
          "name": "F4",
          "midi": 65,
          "time": 81.60000000000001,
          "velocity": 0.8818897637795275,
          "duration": 0.5999999999999943
        },
        {
          "name": "F4",
          "midi": 65,
          "time": 83.2,
          "velocity": 0.8267716535433071,
          "duration": 0.20000000000000284
        },
        {
          "name": "F4",
          "midi": 65,
          "time": 85.2,
          "velocity": 0.8818897637795275,
          "duration": 0.4000000000000057
        },
        {
          "name": "E4",
          "midi": 64,
          "time": 86.80000000000001,
          "velocity": 0.8818897637795275,
          "duration": 0.5999999999999943
        },
        {
          "name": "F#4",
          "midi": 66,
          "time": 87.4,
          "velocity": 0.8818897637795275,
          "duration": 0.04999999999999716
        },
        {
          "name": "F4",
          "midi": 65,
          "time": 88,
          "velocity": 0.8818897637795275,
          "duration": 0.7999999999999972
        },
        {
          "name": "E4",
          "midi": 64,
          "time": 90,
          "velocity": 0.8267716535433071,
          "duration": 1.2000000000000028
        },
        {
          "name": "F4",
          "midi": 65,
          "time": 91.2,
          "velocity": 0.8267716535433071,
          "duration": 1.2000000000000028
        },
        {
          "name": "F4",
          "midi": 65,
          "time": 92.4,
          "velocity": 0.8267716535433071,
          "duration": 1.2000000000000028
        },
        {
          "name": "F4",
          "midi": 65,
          "time": 94.00000000000001,
          "velocity": 0.8267716535433071,
          "duration": 0.20000000000000284
        },
        {
          "name": "F4",
          "midi": 65,
          "time": 94.80000000000001,
          "velocity": 0.8818897637795275,
          "duration": 0.4000000000000057
        },
        {
          "name": "E4",
          "midi": 64,
          "time": 96.00000000000001,
          "velocity": 0.8267716535433071,
          "duration": 1
        },
        {
          "name": "F4",
          "midi": 65,
          "time": 97.60000000000001,
          "velocity": 0.8267716535433071,
          "duration": 0.4000000000000057
        },
        {
          "name": "F4",
          "midi": 65,
          "time": 98.00000000000001,
          "velocity": 0.8267716535433071,
          "duration": 1.5999999999999943
        },
        {
          "name": "E4",
          "midi": 64,
          "time": 99.60000000000001,
          "velocity": 0.8818897637795275,
          "duration": 0.4000000000000057
        },
        {
          "name": "F4",
          "midi": 65,
          "time": 100.20000000000002,
          "velocity": 0.8818897637795275,
          "duration": 0.4000000000000057
        },
        {
          "name": "F4",
          "midi": 65,
          "time": 101.60000000000002,
          "velocity": 0.8818897637795275,
          "duration": 0.4000000000000057
        },
        {
          "name": "E4",
          "midi": 64,
          "time": 102.60000000000002,
          "velocity": 0.8818897637795275,
          "duration": 0.4000000000000057
        },
        {
          "name": "F#4",
          "midi": 66,
          "time": 103.00000000000003,
          "velocity": 0.8818897637795275,
          "duration": 1.2000000000000028
        },
        {
          "name": "F4",
          "midi": 65,
          "time": 104.20000000000003,
          "velocity": 0.8818897637795275,
          "duration": 0.20000000000000284
        },
        {
          "name": "E4",
          "midi": 64,
          "time": 106.20000000000003,
          "velocity": 0.8818897637795275,
          "duration": 0.5999999999999943
        },
        {
          "name": "F#4",
          "midi": 66,
          "time": 106.80000000000003,
          "velocity": 0.8818897637795275,
          "duration": 0.037499999999994316
        },
        {
          "name": "F4",
          "midi": 65,
          "time": 107.40000000000002,
          "velocity": 0.8818897637795275,
          "duration": 0.5999999999999943
        },
        {
          "name": "F4",
          "midi": 65,
          "time": 108.80000000000001,
          "velocity": 0.8818897637795275,
          "duration": 0.20000000000000284
        },
        {
          "name": "E4",
          "midi": 64,
          "time": 111.40000000000002,
          "velocity": 0.8267716535433071,
          "duration": 0.20000000000000284
        },
        {
          "name": "F#4",
          "midi": 66,
          "time": 112.80000000000003,
          "velocity": 0.8267716535433071,
          "duration": 0.5999999999999943
        },
        {
          "name": "F4",
          "midi": 65,
          "time": 114.00000000000001,
          "velocity": 0.8267716535433071,
          "duration": 0.5999999999999943
        },
        {
          "name": "E4",
          "midi": 64,
          "time": 115.00000000000001,
          "velocity": 0.8267716535433071,
          "duration": 0.20000000000000284
        },
        {
          "name": "E4",
          "midi": 64,
          "time": 116.20000000000002,
          "velocity": 0.8818897637795275,
          "duration": 0.20000000000000284
        },
        {
          "name": "F#4",
          "midi": 66,
          "time": 116.40000000000002,
          "velocity": 0.8818897637795275,
          "duration": 0.037499999999994316
        },
        {
          "name": "F4",
          "midi": 65,
          "time": 117.00000000000001,
          "velocity": 0.8818897637795275,
          "duration": 0.5999999999999943
        },
        {
          "name": "F4",
          "midi": 65,
          "time": 117.60000000000001,
          "velocity": 0.8818897637795275,
          "duration": 0.5999999999999943
        },
        {
          "name": "F4",
          "midi": 65,
          "time": 120,
          "velocity": 0.8818897637795275,
          "duration": 0.5999999999999943
        },
        {
          "name": "F4",
          "midi": 65,
          "time": 121.6,
          "velocity": 0.8267716535433071,
          "duration": 0.20000000000000284
        },
        {
          "name": "F4",
          "midi": 65,
          "time": 123.6,
          "velocity": 0.8818897637795275,
          "duration": 0.4000000000000057
        },
        {
          "name": "E4",
          "midi": 64,
          "time": 125.2,
          "velocity": 0.8818897637795275,
          "duration": 0.5999999999999943
        },
        {
          "name": "F#4",
          "midi": 66,
          "time": 125.8,
          "velocity": 0.8818897637795275,
          "duration": 0.04999999999999716
        },
        {
          "name": "F4",
          "midi": 65,
          "time": 126.39999999999999,
          "velocity": 0.8818897637795275,
          "duration": 0.7999999999999972
        },
        {
          "name": "E4",
          "midi": 64,
          "time": 128.39999999999998,
          "velocity": 0.8267716535433071,
          "duration": 1.1999999999999886
        },
        {
          "name": "F4",
          "midi": 65,
          "time": 129.59999999999997,
          "velocity": 0.8267716535433071,
          "duration": 1.1999999999999886
        },
        {
          "name": "F4",
          "midi": 65,
          "time": 130.79999999999995,
          "velocity": 0.8267716535433071,
          "duration": 1.1999999999999886
        },
        {
          "name": "F4",
          "midi": 65,
          "time": 132.39999999999995,
          "velocity": 0.8267716535433071,
          "duration": 0.19999999999998863
        },
        {
          "name": "F4",
          "midi": 65,
          "time": 133.19999999999993,
          "velocity": 0.8818897637795275,
          "duration": 0.4000000000000057
        },
        {
          "name": "E4",
          "midi": 64,
          "time": 134.39999999999995,
          "velocity": 0.8267716535433071,
          "duration": 1
        },
        {
          "name": "F4",
          "midi": 65,
          "time": 135.99999999999994,
          "velocity": 0.8267716535433071,
          "duration": 0.4000000000000057
        },
        {
          "name": "F4",
          "midi": 65,
          "time": 136.39999999999995,
          "velocity": 0.8267716535433071,
          "duration": 1.5999999999999943
        },
        {
          "name": "E4",
          "midi": 64,
          "time": 137.99999999999994,
          "velocity": 0.8818897637795275,
          "duration": 0.4000000000000057
        },
        {
          "name": "F4",
          "midi": 65,
          "time": 138.59999999999994,
          "velocity": 0.8818897637795275,
          "duration": 0.4000000000000057
        },
        {
          "name": "F4",
          "midi": 65,
          "time": 139.99999999999994,
          "velocity": 0.8818897637795275,
          "duration": 0.4000000000000057
        },
        {
          "name": "E4",
          "midi": 64,
          "time": 140.99999999999994,
          "velocity": 0.8818897637795275,
          "duration": 0.4000000000000057
        },
        {
          "name": "F#4",
          "midi": 66,
          "time": 141.39999999999995,
          "velocity": 0.8818897637795275,
          "duration": 1.1999999999999886
        },
        {
          "name": "F4",
          "midi": 65,
          "time": 142.59999999999994,
          "velocity": 0.8818897637795275,
          "duration": 0.19999999999998863
        },
        {
          "name": "E4",
          "midi": 64,
          "time": 144.59999999999994,
          "velocity": 0.8818897637795275,
          "duration": 0.5999999999999943
        },
        {
          "name": "E4",
          "midi": 64,
          "time": 146.19999999999993,
          "velocity": 0.8267716535433071,
          "duration": 0.8000000000000114
        },
        {
          "name": "F4",
          "midi": 65,
          "time": 147.59999999999994,
          "velocity": 0.8818897637795275,
          "duration": 2.1999999999999886
        },
        {
          "name": "F4",
          "midi": 65,
          "time": 150.59999999999994,
          "velocity": 0.8267716535433071,
          "duration": 0.5999999999999943
        },
        {
          "name": "F4",
          "midi": 65,
          "time": 152.39999999999992,
          "velocity": 0.8818897637795275,
          "duration": 0.4000000000000057
        },
        {
          "name": "E4",
          "midi": 64,
          "time": 154.19999999999993,
          "velocity": 0.8818897637795275,
          "duration": 0.4000000000000057
        },
        {
          "name": "F#4",
          "midi": 66,
          "time": 154.59999999999994,
          "velocity": 0.8818897637795275,
          "duration": 0.05000000000001137
        },
        {
          "name": "F4",
          "midi": 65,
          "time": 155.19999999999996,
          "velocity": 0.8818897637795275,
          "duration": 0.5999999999999943
        },
        {
          "name": "E4",
          "midi": 64,
          "time": 155.79999999999995,
          "velocity": 0.8267716535433071,
          "duration": 1.4000000000000057
        },
        {
          "name": "F4",
          "midi": 65,
          "time": 157.79999999999995,
          "velocity": 0.8818897637795275,
          "duration": 0.4000000000000057
        },
        {
          "name": "F4",
          "midi": 65,
          "time": 158.19999999999996,
          "velocity": 0.8818897637795275,
          "duration": 0.5999999999999943
        },
        {
          "name": "F4",
          "midi": 65,
          "time": 158.79999999999995,
          "velocity": 0.8818897637795275,
          "duration": 0.4000000000000057
        },
        {
          "name": "F4",
          "midi": 65,
          "time": 160.19999999999996,
          "velocity": 0.8267716535433071,
          "duration": 0.5999999999999943
        },
        {
          "name": "F4",
          "midi": 65,
          "time": 161.99999999999994,
          "velocity": 0.8267716535433071,
          "duration": 1.1999999999999886
        },
        {
          "name": "E4",
          "midi": 64,
          "time": 163.79999999999993,
          "velocity": 0.8818897637795275,
          "duration": 0.4000000000000057
        },
        {
          "name": "F#4",
          "midi": 66,
          "time": 164.19999999999993,
          "velocity": 0.8818897637795275,
          "duration": 0.05000000000001137
        },
        {
          "name": "F4",
          "midi": 65,
          "time": 164.79999999999995,
          "velocity": 0.8818897637795275,
          "duration": 0.8000000000000114
        },
        {
          "name": "E4",
          "midi": 64,
          "time": 166.99999999999997,
          "velocity": 0.8267716535433071,
          "duration": 1
        },
        {
          "name": "F4",
          "midi": 65,
          "time": 167.99999999999997,
          "velocity": 0.8267716535433071,
          "duration": 1
        },
        {
          "name": "F4",
          "midi": 65,
          "time": 168.99999999999997,
          "velocity": 0.8267716535433071,
          "duration": 2.5999999999999943
        },
        {
          "name": "F4",
          "midi": 65,
          "time": 171.99999999999997,
          "velocity": 0.8267716535433071,
          "duration": 0.4000000000000057
        },
        {
          "name": "F4",
          "midi": 65,
          "time": 172.39999999999998,
          "velocity": 0.8267716535433071,
          "duration": 0.4000000000000057
        },
        {
          "name": "E4",
          "midi": 64,
          "time": 172.79999999999998,
          "velocity": 0.8267716535433071,
          "duration": 1
        },
        {
          "name": "E4",
          "midi": 64,
          "time": 173.99999999999997,
          "velocity": 0.8267716535433071,
          "duration": 2.4000000000000057
        },
        {
          "name": "F4",
          "midi": 65,
          "time": 176.39999999999998,
          "velocity": 0.8818897637795275,
          "duration": 1.8000000000000114
        },
        {
          "name": "F4",
          "midi": 65,
          "time": 179.39999999999998,
          "velocity": 0.8267716535433071,
          "duration": 0.5999999999999943
        },
        {
          "name": "F4",
          "midi": 65,
          "time": 182.39999999999998,
          "velocity": 0.8267716535433071,
          "duration": 0.5999999999999943
        },
        {
          "name": "F4",
          "midi": 65,
          "time": 184.59999999999997,
          "velocity": 0.8818897637795275,
          "duration": 0.19999999999998863
        },
        {
          "name": "F4",
          "midi": 65,
          "time": 184.79999999999995,
          "velocity": 0.8818897637795275,
          "duration": 1.1999999999999886
        },
        {
          "name": "F4",
          "midi": 65,
          "time": 186.39999999999995,
          "velocity": 0.8818897637795275,
          "duration": 0.4000000000000057
        },
        {
          "name": "F4",
          "midi": 65,
          "time": 186.79999999999995,
          "velocity": 0.8818897637795275,
          "duration": 0.4000000000000057
        },
        {
          "name": "F4",
          "midi": 65,
          "time": 187.19999999999996,
          "velocity": 0.8818897637795275,
          "duration": 1.1999999999999886
        },
        {
          "name": "F4",
          "midi": 65,
          "time": 191.19999999999996,
          "velocity": 0.8818897637795275,
          "duration": 0.4000000000000057
        },
        {
          "name": "F4",
          "midi": 65,
          "time": 191.59999999999997,
          "velocity": 0.8818897637795275,
          "duration": 0.4000000000000057
        },
        {
          "name": "F4",
          "midi": 65,
          "time": 191.99999999999997,
          "velocity": 0.8818897637795275,
          "duration": 1.1999999999999886
        },
        {
          "name": "F4",
          "midi": 65,
          "time": 193.19999999999996,
          "velocity": 0.8818897637795275,
          "duration": 0.5999999999999943
        },
        {
          "name": "F4",
          "midi": 65,
          "time": 194.19999999999996,
          "velocity": 0.8267716535433071,
          "duration": 0.8000000000000114
        }
      ],
      "controlChanges": {
        "7": [
          {
            "number": 7,
            "time": 0.6,
            "value": 1
          }
        ],
        "10": [
          {
            "number": 10,
            "time": 0.6,
            "value": 0.6377952755905512
          }
        ],
        "91": [
          {
            "number": 91,
            "time": 0.6,
            "value": 0.4330708661417323
          }
        ],
        "93": [
          {
            "number": 93,
            "time": 0.6,
            "value": 0.11811023622047244
          }
        ]
      },
      "id": 12,
      "name": "=================",
      "instrumentNumber": 0,
      "instrument": "standard kit",
      "instrumentFamily": "drums",
      "channelNumber": 10,
      "isPercussion": true
    },
    {
      "startTime": 3,
      "duration": 194.85000000000002,
      "length": 161,
      "notes": [
        {
          "name": "G4",
          "midi": 67,
          "time": 3,
          "velocity": 0.8818897637795275,
          "duration": 0.6000000000000001
        },
        {
          "name": "A4",
          "midi": 69,
          "time": 3.6,
          "velocity": 0.8818897637795275,
          "duration": 0.2999999999999998
        },
        {
          "name": "A4",
          "midi": 69,
          "time": 3.9,
          "velocity": 0.8818897637795275,
          "duration": 0.30000000000000027
        },
        {
          "name": "A4",
          "midi": 69,
          "time": 4.2,
          "velocity": 0.8818897637795275,
          "duration": 0.8999999999999995
        },
        {
          "name": "A4",
          "midi": 69,
          "time": 5.1,
          "velocity": 0.8818897637795275,
          "duration": 0.2999999999999998
        },
        {
          "name": "G4",
          "midi": 67,
          "time": 5.3999999999999995,
          "velocity": 0.8818897637795275,
          "duration": 0.2999999999999998
        },
        {
          "name": "A4",
          "midi": 69,
          "time": 5.699999999999999,
          "velocity": 0.8818897637795275,
          "duration": 0.2999999999999998
        },
        {
          "name": "G4",
          "midi": 67,
          "time": 7.199999999999999,
          "velocity": 0.8818897637795275,
          "duration": 0.2999999999999998
        },
        {
          "name": "G4",
          "midi": 67,
          "time": 10.2,
          "velocity": 0.8818897637795275,
          "duration": 0.5999999999999996
        },
        {
          "name": "A4",
          "midi": 69,
          "time": 10.799999999999999,
          "velocity": 0.8818897637795275,
          "duration": 0.3000000000000007
        },
        {
          "name": "A4",
          "midi": 69,
          "time": 11.1,
          "velocity": 0.8818897637795275,
          "duration": 0.3000000000000007
        },
        {
          "name": "A4",
          "midi": 69,
          "time": 11.4,
          "velocity": 0.8818897637795275,
          "duration": 0.9000000000000004
        },
        {
          "name": "A4",
          "midi": 69,
          "time": 12.3,
          "velocity": 0.8818897637795275,
          "duration": 0.3000000000000007
        },
        {
          "name": "G4",
          "midi": 67,
          "time": 12.600000000000001,
          "velocity": 0.8818897637795275,
          "duration": 0.3000000000000007
        },
        {
          "name": "A4",
          "midi": 69,
          "time": 12.900000000000002,
          "velocity": 0.8818897637795275,
          "duration": 0.3000000000000007
        },
        {
          "name": "G4",
          "midi": 67,
          "time": 14.400000000000002,
          "velocity": 0.8818897637795275,
          "duration": 0.3000000000000007
        },
        {
          "name": "G4",
          "midi": 67,
          "time": 16.200000000000003,
          "velocity": 0.8267716535433071,
          "duration": 0.6000000000000014
        },
        {
          "name": "A4",
          "midi": 69,
          "time": 16.500000000000004,
          "velocity": 0.8818897637795275,
          "duration": 0.3000000000000007
        },
        {
          "name": "A4",
          "midi": 69,
          "time": 16.800000000000004,
          "velocity": 0.8267716535433071,
          "duration": 1.1999999999999993
        },
        {
          "name": "G4",
          "midi": 67,
          "time": 20.100000000000005,
          "velocity": 0.8818897637795275,
          "duration": 0.3000000000000007
        },
        {
          "name": "A4",
          "midi": 69,
          "time": 20.700000000000006,
          "velocity": 0.8267716535433071,
          "duration": 0.6000000000000014
        },
        {
          "name": "G#4",
          "midi": 68,
          "time": 21.300000000000008,
          "velocity": 0.8267716535433071,
          "duration": 0.3000000000000007
        },
        {
          "name": "G4",
          "midi": 67,
          "time": 21.60000000000001,
          "velocity": 0.8267716535433071,
          "duration": 1.2000000000000028
        },
        {
          "name": "A4",
          "midi": 69,
          "time": 21.90000000000001,
          "velocity": 0.8818897637795275,
          "duration": 0.3000000000000007
        },
        {
          "name": "A4",
          "midi": 69,
          "time": 22.20000000000001,
          "velocity": 0.8818897637795275,
          "duration": 0.6000000000000014
        },
        {
          "name": "A4",
          "midi": 69,
          "time": 22.80000000000001,
          "velocity": 0.8818897637795275,
          "duration": 0.3000000000000007
        },
        {
          "name": "G4",
          "midi": 67,
          "time": 24.600000000000012,
          "velocity": 0.8818897637795275,
          "duration": 0.6000000000000014
        },
        {
          "name": "A4",
          "midi": 69,
          "time": 25.200000000000014,
          "velocity": 0.8818897637795275,
          "duration": 0.3000000000000007
        },
        {
          "name": "A4",
          "midi": 69,
          "time": 25.500000000000014,
          "velocity": 0.8818897637795275,
          "duration": 0.3000000000000007
        },
        {
          "name": "A4",
          "midi": 69,
          "time": 25.800000000000015,
          "velocity": 0.8818897637795275,
          "duration": 0.8999999999999986
        },
        {
          "name": "A4",
          "midi": 69,
          "time": 26.700000000000014,
          "velocity": 0.8818897637795275,
          "duration": 0.3000000000000007
        },
        {
          "name": "G4",
          "midi": 67,
          "time": 27.000000000000014,
          "velocity": 0.8818897637795275,
          "duration": 0.3000000000000007
        },
        {
          "name": "A4",
          "midi": 69,
          "time": 27.300000000000015,
          "velocity": 0.8818897637795275,
          "duration": 0.3000000000000007
        },
        {
          "name": "G4",
          "midi": 67,
          "time": 28.800000000000015,
          "velocity": 0.8818897637795275,
          "duration": 0.3000000000000007
        },
        {
          "name": "A4",
          "midi": 69,
          "time": 30.750000000000014,
          "velocity": 0.8818897637795275,
          "duration": 1.0500000000000007
        },
        {
          "name": "G4",
          "midi": 67,
          "time": 34.600000000000016,
          "velocity": 0.8818897637795275,
          "duration": 0.20000000000000284
        },
        {
          "name": "G4",
          "midi": 67,
          "time": 34.80000000000002,
          "velocity": 0.8818897637795275,
          "duration": 0.04999999999999716
        },
        {
          "name": "G#4",
          "midi": 68,
          "time": 34.850000000000016,
          "velocity": 0.8818897637795275,
          "duration": 0.04999999999999716
        },
        {
          "name": "A4",
          "midi": 69,
          "time": 34.90000000000001,
          "velocity": 0.8818897637795275,
          "duration": 0.29999999999999716
        },
        {
          "name": "A4",
          "midi": 69,
          "time": 35.20000000000001,
          "velocity": 0.8818897637795275,
          "duration": 3.200000000000003
        },
        {
          "name": "G4",
          "midi": 67,
          "time": 38.40000000000001,
          "velocity": 0.8818897637795275,
          "duration": 0.3999999999999986
        },
        {
          "name": "A4",
          "midi": 69,
          "time": 38.80000000000001,
          "velocity": 0.8818897637795275,
          "duration": 0.20000000000000284
        },
        {
          "name": "G4",
          "midi": 67,
          "time": 39.63750000000002,
          "velocity": 0.8818897637795275,
          "duration": 0.5625
        },
        {
          "name": "G#4",
          "midi": 68,
          "time": 41.40000000000002,
          "velocity": 0.8818897637795275,
          "duration": 0.03750000000000142
        },
        {
          "name": "A4",
          "midi": 69,
          "time": 41.43750000000002,
          "velocity": 0.8818897637795275,
          "duration": 1.5625
        },
        {
          "name": "G4",
          "midi": 67,
          "time": 43.80000000000002,
          "velocity": 0.8818897637795275,
          "duration": 0.6000000000000014
        },
        {
          "name": "G#4",
          "midi": 68,
          "time": 44.40000000000002,
          "velocity": 0.8818897637795275,
          "duration": 0.03750000000000142
        },
        {
          "name": "A4",
          "midi": 69,
          "time": 44.43750000000002,
          "velocity": 0.8818897637795275,
          "duration": 2.362499999999997
        },
        {
          "name": "G4",
          "midi": 67,
          "time": 47.20000000000002,
          "velocity": 0.8818897637795275,
          "duration": 0.3999999999999986
        },
        {
          "name": "A4",
          "midi": 69,
          "time": 47.600000000000016,
          "velocity": 0.8818897637795275,
          "duration": 0.3999999999999986
        },
        {
          "name": "G4",
          "midi": 67,
          "time": 49.05000000000001,
          "velocity": 0.8818897637795275,
          "duration": 0.5499999999999972
        },
        {
          "name": "G4",
          "midi": 67,
          "time": 51.60000000000001,
          "velocity": 0.8267716535433071,
          "duration": 1.2000000000000028
        },
        {
          "name": "A4",
          "midi": 69,
          "time": 52.60000000000001,
          "velocity": 0.8818897637795275,
          "duration": 0.20000000000000284
        },
        {
          "name": "G4",
          "midi": 67,
          "time": 57.20000000000001,
          "velocity": 0.8818897637795275,
          "duration": 0.3999999999999986
        },
        {
          "name": "G4",
          "midi": 67,
          "time": 57.60000000000001,
          "velocity": 0.8267716535433071,
          "duration": 1
        },
        {
          "name": "G4",
          "midi": 67,
          "time": 58.60000000000001,
          "velocity": 0.8267716535433071,
          "duration": 0.20000000000000284
        },
        {
          "name": "G4",
          "midi": 67,
          "time": 58.80000000000001,
          "velocity": 0.8267716535433071,
          "duration": 0.3999999999999986
        },
        {
          "name": "A4",
          "midi": 69,
          "time": 59.20000000000001,
          "velocity": 0.8818897637795275,
          "duration": 0.3999999999999986
        },
        {
          "name": "A4",
          "midi": 69,
          "time": 59.60000000000001,
          "velocity": 0.8818897637795275,
          "duration": 1.6000000000000014
        },
        {
          "name": "G4",
          "midi": 67,
          "time": 62.40000000000001,
          "velocity": 0.8818897637795275,
          "duration": 0.3999999999999986
        },
        {
          "name": "G4",
          "midi": 67,
          "time": 63.60000000000001,
          "velocity": 0.8818897637795275,
          "duration": 0.07500000000000284
        },
        {
          "name": "G#4",
          "midi": 68,
          "time": 63.67500000000001,
          "velocity": 0.8818897637795275,
          "duration": 0.07500000000000284
        },
        {
          "name": "A4",
          "midi": 69,
          "time": 63.750000000000014,
          "velocity": 0.8818897637795275,
          "duration": 0.45000000000000284
        },
        {
          "name": "G4",
          "midi": 67,
          "time": 66.40000000000002,
          "velocity": 0.8818897637795275,
          "duration": 0.20000000000000284
        },
        {
          "name": "A4",
          "midi": 69,
          "time": 66.60000000000002,
          "velocity": 0.8818897637795275,
          "duration": 0.5999999999999943
        },
        {
          "name": "G4",
          "midi": 67,
          "time": 68.43750000000001,
          "velocity": 0.8818897637795275,
          "duration": 0.5625
        },
        {
          "name": "G4",
          "midi": 67,
          "time": 70.60000000000001,
          "velocity": 0.8818897637795275,
          "duration": 0.20000000000000284
        },
        {
          "name": "G4",
          "midi": 67,
          "time": 73.00000000000001,
          "velocity": 0.8818897637795275,
          "duration": 0.20000000000000284
        },
        {
          "name": "G4",
          "midi": 67,
          "time": 73.20000000000002,
          "velocity": 0.8818897637795275,
          "duration": 0.04999999999999716
        },
        {
          "name": "G#4",
          "midi": 68,
          "time": 73.25000000000001,
          "velocity": 0.8818897637795275,
          "duration": 0.04999999999999716
        },
        {
          "name": "A4",
          "midi": 69,
          "time": 73.30000000000001,
          "velocity": 0.8818897637795275,
          "duration": 0.29999999999999716
        },
        {
          "name": "A4",
          "midi": 69,
          "time": 73.60000000000001,
          "velocity": 0.8818897637795275,
          "duration": 3.200000000000003
        },
        {
          "name": "G4",
          "midi": 67,
          "time": 76.80000000000001,
          "velocity": 0.8818897637795275,
          "duration": 0.4000000000000057
        },
        {
          "name": "A4",
          "midi": 69,
          "time": 77.20000000000002,
          "velocity": 0.8818897637795275,
          "duration": 0.20000000000000284
        },
        {
          "name": "G4",
          "midi": 67,
          "time": 78.03750000000002,
          "velocity": 0.8818897637795275,
          "duration": 0.5625
        },
        {
          "name": "G#4",
          "midi": 68,
          "time": 79.80000000000003,
          "velocity": 0.8818897637795275,
          "duration": 0.037499999999994316
        },
        {
          "name": "A4",
          "midi": 69,
          "time": 79.83750000000002,
          "velocity": 0.8818897637795275,
          "duration": 1.5625
        },
        {
          "name": "G4",
          "midi": 67,
          "time": 82.20000000000002,
          "velocity": 0.8818897637795275,
          "duration": 0.5999999999999943
        },
        {
          "name": "G#4",
          "midi": 68,
          "time": 82.80000000000001,
          "velocity": 0.8818897637795275,
          "duration": 0.037499999999994316
        },
        {
          "name": "A4",
          "midi": 69,
          "time": 82.8375,
          "velocity": 0.8818897637795275,
          "duration": 2.362499999999997
        },
        {
          "name": "G4",
          "midi": 67,
          "time": 85.60000000000001,
          "velocity": 0.8818897637795275,
          "duration": 0.4000000000000057
        },
        {
          "name": "A4",
          "midi": 69,
          "time": 86.00000000000001,
          "velocity": 0.8818897637795275,
          "duration": 0.4000000000000057
        },
        {
          "name": "G4",
          "midi": 67,
          "time": 87.45000000000002,
          "velocity": 0.8818897637795275,
          "duration": 0.5499999999999972
        },
        {
          "name": "G4",
          "midi": 67,
          "time": 90.00000000000001,
          "velocity": 0.8267716535433071,
          "duration": 1.2000000000000028
        },
        {
          "name": "A4",
          "midi": 69,
          "time": 91.00000000000001,
          "velocity": 0.8818897637795275,
          "duration": 0.20000000000000284
        },
        {
          "name": "G4",
          "midi": 67,
          "time": 95.60000000000002,
          "velocity": 0.8818897637795275,
          "duration": 0.4000000000000057
        },
        {
          "name": "G4",
          "midi": 67,
          "time": 96.00000000000003,
          "velocity": 0.8267716535433071,
          "duration": 1
        },
        {
          "name": "G4",
          "midi": 67,
          "time": 97.00000000000003,
          "velocity": 0.8267716535433071,
          "duration": 0.20000000000000284
        },
        {
          "name": "G4",
          "midi": 67,
          "time": 97.20000000000003,
          "velocity": 0.8267716535433071,
          "duration": 0.4000000000000057
        },
        {
          "name": "A4",
          "midi": 69,
          "time": 97.60000000000004,
          "velocity": 0.8818897637795275,
          "duration": 0.4000000000000057
        },
        {
          "name": "A4",
          "midi": 69,
          "time": 98.00000000000004,
          "velocity": 0.8818897637795275,
          "duration": 1.5999999999999943
        },
        {
          "name": "G4",
          "midi": 67,
          "time": 100.80000000000004,
          "velocity": 0.8818897637795275,
          "duration": 0.4000000000000057
        },
        {
          "name": "G4",
          "midi": 67,
          "time": 102.00000000000004,
          "velocity": 0.8818897637795275,
          "duration": 0.07500000000000284
        },
        {
          "name": "G#4",
          "midi": 68,
          "time": 102.07500000000005,
          "velocity": 0.8818897637795275,
          "duration": 0.07500000000000284
        },
        {
          "name": "A4",
          "midi": 69,
          "time": 102.15000000000005,
          "velocity": 0.8818897637795275,
          "duration": 0.45000000000000284
        },
        {
          "name": "G4",
          "midi": 67,
          "time": 104.80000000000005,
          "velocity": 0.8818897637795275,
          "duration": 0.20000000000000284
        },
        {
          "name": "A4",
          "midi": 69,
          "time": 105.00000000000006,
          "velocity": 0.8818897637795275,
          "duration": 0.5999999999999943
        },
        {
          "name": "G4",
          "midi": 67,
          "time": 106.83750000000005,
          "velocity": 0.8818897637795275,
          "duration": 0.5625
        },
        {
          "name": "G4",
          "midi": 67,
          "time": 109.00000000000004,
          "velocity": 0.8818897637795275,
          "duration": 0.20000000000000284
        },
        {
          "name": "G4",
          "midi": 67,
          "time": 111.40000000000005,
          "velocity": 0.8818897637795275,
          "duration": 0.20000000000000284
        },
        {
          "name": "G4",
          "midi": 67,
          "time": 111.60000000000005,
          "velocity": 0.8818897637795275,
          "duration": 0.04999999999999716
        },
        {
          "name": "G#4",
          "midi": 68,
          "time": 111.65000000000005,
          "velocity": 0.8818897637795275,
          "duration": 0.04999999999999716
        },
        {
          "name": "A4",
          "midi": 69,
          "time": 111.70000000000005,
          "velocity": 0.8818897637795275,
          "duration": 0.29999999999999716
        },
        {
          "name": "A4",
          "midi": 69,
          "time": 112.00000000000004,
          "velocity": 0.8818897637795275,
          "duration": 3.200000000000003
        },
        {
          "name": "G4",
          "midi": 67,
          "time": 115.20000000000005,
          "velocity": 0.8818897637795275,
          "duration": 0.4000000000000057
        },
        {
          "name": "A4",
          "midi": 69,
          "time": 115.60000000000005,
          "velocity": 0.8818897637795275,
          "duration": 0.20000000000000284
        },
        {
          "name": "G4",
          "midi": 67,
          "time": 116.43750000000006,
          "velocity": 0.8818897637795275,
          "duration": 0.5625
        },
        {
          "name": "G#4",
          "midi": 68,
          "time": 118.20000000000006,
          "velocity": 0.8818897637795275,
          "duration": 0.037499999999994316
        },
        {
          "name": "A4",
          "midi": 69,
          "time": 118.23750000000005,
          "velocity": 0.8818897637795275,
          "duration": 1.5625
        },
        {
          "name": "G4",
          "midi": 67,
          "time": 120.60000000000005,
          "velocity": 0.8818897637795275,
          "duration": 0.5999999999999943
        },
        {
          "name": "G#4",
          "midi": 68,
          "time": 121.20000000000005,
          "velocity": 0.8818897637795275,
          "duration": 0.037499999999994316
        },
        {
          "name": "A4",
          "midi": 69,
          "time": 121.23750000000004,
          "velocity": 0.8818897637795275,
          "duration": 2.362499999999997
        },
        {
          "name": "G4",
          "midi": 67,
          "time": 124.00000000000004,
          "velocity": 0.8818897637795275,
          "duration": 0.4000000000000057
        },
        {
          "name": "A4",
          "midi": 69,
          "time": 124.40000000000005,
          "velocity": 0.8818897637795275,
          "duration": 0.4000000000000057
        },
        {
          "name": "G4",
          "midi": 67,
          "time": 125.85000000000005,
          "velocity": 0.8818897637795275,
          "duration": 0.5499999999999972
        },
        {
          "name": "G4",
          "midi": 67,
          "time": 128.40000000000003,
          "velocity": 0.8267716535433071,
          "duration": 1.1999999999999886
        },
        {
          "name": "A4",
          "midi": 69,
          "time": 129.40000000000003,
          "velocity": 0.8818897637795275,
          "duration": 0.19999999999998863
        },
        {
          "name": "G4",
          "midi": 67,
          "time": 134.00000000000003,
          "velocity": 0.8818897637795275,
          "duration": 0.4000000000000057
        },
        {
          "name": "G4",
          "midi": 67,
          "time": 134.40000000000003,
          "velocity": 0.8267716535433071,
          "duration": 1
        },
        {
          "name": "G4",
          "midi": 67,
          "time": 135.40000000000003,
          "velocity": 0.8267716535433071,
          "duration": 0.19999999999998863
        },
        {
          "name": "G4",
          "midi": 67,
          "time": 135.60000000000002,
          "velocity": 0.8267716535433071,
          "duration": 0.4000000000000057
        },
        {
          "name": "A4",
          "midi": 69,
          "time": 136.00000000000003,
          "velocity": 0.8818897637795275,
          "duration": 0.4000000000000057
        },
        {
          "name": "A4",
          "midi": 69,
          "time": 136.40000000000003,
          "velocity": 0.8818897637795275,
          "duration": 1.5999999999999943
        },
        {
          "name": "G4",
          "midi": 67,
          "time": 139.20000000000002,
          "velocity": 0.8818897637795275,
          "duration": 0.4000000000000057
        },
        {
          "name": "G4",
          "midi": 67,
          "time": 140.40000000000003,
          "velocity": 0.8818897637795275,
          "duration": 0.07499999999998863
        },
        {
          "name": "G#4",
          "midi": 68,
          "time": 140.47500000000002,
          "velocity": 0.8818897637795275,
          "duration": 0.07499999999998863
        },
        {
          "name": "A4",
          "midi": 69,
          "time": 140.55,
          "velocity": 0.8818897637795275,
          "duration": 0.44999999999998863
        },
        {
          "name": "G4",
          "midi": 67,
          "time": 143.2,
          "velocity": 0.8818897637795275,
          "duration": 0.19999999999998863
        },
        {
          "name": "A4",
          "midi": 69,
          "time": 143.39999999999998,
          "velocity": 0.8818897637795275,
          "duration": 0.5999999999999943
        },
        {
          "name": "A4",
          "midi": 69,
          "time": 146.19999999999996,
          "velocity": 0.8818897637795275,
          "duration": 0.8000000000000114
        },
        {
          "name": "G4",
          "midi": 67,
          "time": 149.79999999999998,
          "velocity": 0.8818897637795275,
          "duration": 0.19999999999998863
        },
        {
          "name": "A4",
          "midi": 69,
          "time": 149.99999999999997,
          "velocity": 0.8818897637795275,
          "duration": 2.4000000000000057
        },
        {
          "name": "G4",
          "midi": 67,
          "time": 152.79999999999998,
          "velocity": 0.8818897637795275,
          "duration": 0.4000000000000057
        },
        {
          "name": "A4",
          "midi": 69,
          "time": 153.2,
          "velocity": 0.8818897637795275,
          "duration": 0.4000000000000057
        },
        {
          "name": "G4",
          "midi": 67,
          "time": 154.65,
          "velocity": 0.8818897637795275,
          "duration": 0.5500000000000114
        },
        {
          "name": "A4",
          "midi": 69,
          "time": 155.8,
          "velocity": 0.8818897637795275,
          "duration": 1.4000000000000057
        },
        {
          "name": "G4",
          "midi": 67,
          "time": 159.20000000000002,
          "velocity": 0.8818897637795275,
          "duration": 0.4000000000000057
        },
        {
          "name": "A4",
          "midi": 69,
          "time": 159.60000000000002,
          "velocity": 0.8818897637795275,
          "duration": 1.8000000000000114
        },
        {
          "name": "G4",
          "midi": 67,
          "time": 162.40000000000003,
          "velocity": 0.8818897637795275,
          "duration": 0.4000000000000057
        },
        {
          "name": "A4",
          "midi": 69,
          "time": 162.80000000000004,
          "velocity": 0.8818897637795275,
          "duration": 0.4000000000000057
        },
        {
          "name": "G4",
          "midi": 67,
          "time": 164.25000000000006,
          "velocity": 0.8818897637795275,
          "duration": 0.5500000000000114
        },
        {
          "name": "A4",
          "midi": 69,
          "time": 166.65000000000006,
          "velocity": 0.8818897637795275,
          "duration": 0.15000000000000568
        },
        {
          "name": "G4",
          "midi": 67,
          "time": 167.00000000000006,
          "velocity": 0.8267716535433071,
          "duration": 1
        },
        {
          "name": "A4",
          "midi": 69,
          "time": 167.80000000000007,
          "velocity": 0.8818897637795275,
          "duration": 0.19999999999998863
        },
        {
          "name": "G4",
          "midi": 67,
          "time": 169.00000000000006,
          "velocity": 0.8267716535433071,
          "duration": 2.5999999999999943
        },
        {
          "name": "G4",
          "midi": 67,
          "time": 172.00000000000006,
          "velocity": 0.8267716535433071,
          "duration": 0.4000000000000057
        },
        {
          "name": "G4",
          "midi": 67,
          "time": 172.40000000000006,
          "velocity": 0.8818897637795275,
          "duration": 0.4000000000000057
        },
        {
          "name": "G4",
          "midi": 67,
          "time": 172.80000000000007,
          "velocity": 0.8267716535433071,
          "duration": 1
        },
        {
          "name": "G4",
          "midi": 67,
          "time": 174.00000000000006,
          "velocity": 0.8267716535433071,
          "duration": 2.3999999999999773
        },
        {
          "name": "A4",
          "midi": 69,
          "time": 175.00000000000006,
          "velocity": 0.8818897637795275,
          "duration": 0.19999999999998863
        },
        {
          "name": "A4",
          "midi": 69,
          "time": 175.20000000000005,
          "velocity": 0.8818897637795275,
          "duration": 1
        },
        {
          "name": "G4",
          "midi": 67,
          "time": 178.20000000000005,
          "velocity": 0.8818897637795275,
          "duration": 0.5999999999999943
        },
        {
          "name": "A4",
          "midi": 69,
          "time": 178.80000000000004,
          "velocity": 0.8818897637795275,
          "duration": 0.5999999999999943
        },
        {
          "name": "A4",
          "midi": 69,
          "time": 179.40000000000003,
          "velocity": 0.8818897637795275,
          "duration": 0.5999999999999943
        },
        {
          "name": "G4",
          "midi": 67,
          "time": 181.60000000000002,
          "velocity": 0.8818897637795275,
          "duration": 0.4000000000000057
        },
        {
          "name": "A4",
          "midi": 69,
          "time": 182.00000000000003,
          "velocity": 0.8818897637795275,
          "duration": 0.4000000000000057
        },
        {
          "name": "G4",
          "midi": 67,
          "time": 183.60000000000002,
          "velocity": 0.8818897637795275,
          "duration": 1
        },
        {
          "name": "G4",
          "midi": 67,
          "time": 188.8,
          "velocity": 0.8818897637795275,
          "duration": 0.4000000000000057
        },
        {
          "name": "G4",
          "midi": 67,
          "time": 189.20000000000002,
          "velocity": 0.8818897637795275,
          "duration": 0.4000000000000057
        },
        {
          "name": "G4",
          "midi": 67,
          "time": 189.60000000000002,
          "velocity": 0.8818897637795275,
          "duration": 1.1999999999999886
        },
        {
          "name": "G4",
          "midi": 67,
          "time": 194.70000000000002,
          "velocity": 0.8818897637795275,
          "duration": 0.15000000000000568
        }
      ],
      "controlChanges": {
        "7": [
          {
            "number": 7,
            "time": 0.6,
            "value": 1
          }
        ],
        "10": [
          {
            "number": 10,
            "time": 0.6,
            "value": 0.6929133858267716
          }
        ],
        "91": [
          {
            "number": 91,
            "time": 0.6,
            "value": 0.4330708661417323
          }
        ],
        "93": [
          {
            "number": 93,
            "time": 0.6,
            "value": 0.11811023622047244
          }
        ]
      },
      "id": 13,
      "name": " ",
      "instrumentNumber": 0,
      "instrument": "acoustic grand piano",
      "instrumentFamily": "piano",
      "channelNumber": 11,
      "isPercussion": false
    },
    {
      "startTime": 5.999999999999999,
      "duration": 195,
      "length": 64,
      "notes": [
        {
          "name": "A#4",
          "midi": 70,
          "time": 5.999999999999999,
          "velocity": 0.8818897637795275,
          "duration": 0.5999999999999996
        },
        {
          "name": "A#4",
          "midi": 70,
          "time": 13.2,
          "velocity": 0.8818897637795275,
          "duration": 0.5999999999999996
        },
        {
          "name": "C5",
          "midi": 72,
          "time": 15.899999999999999,
          "velocity": 0.8818897637795275,
          "duration": 0.3000000000000007
        },
        {
          "name": "C5",
          "midi": 72,
          "time": 16.2,
          "velocity": 0.8818897637795275,
          "duration": 0.3000000000000007
        },
        {
          "name": "C5",
          "midi": 72,
          "time": 17.7,
          "velocity": 0.8818897637795275,
          "duration": 0.3000000000000007
        },
        {
          "name": "C5",
          "midi": 72,
          "time": 18,
          "velocity": 0.8818897637795275,
          "duration": 0.3000000000000007
        },
        {
          "name": "A#4",
          "midi": 70,
          "time": 18.3,
          "velocity": 0.8818897637795275,
          "duration": 0.3000000000000007
        },
        {
          "name": "A#4",
          "midi": 70,
          "time": 18.6,
          "velocity": 0.8818897637795275,
          "duration": 0.8999999999999986
        },
        {
          "name": "A#4",
          "midi": 70,
          "time": 19.5,
          "velocity": 0.8818897637795275,
          "duration": 0.3000000000000007
        },
        {
          "name": "A#4",
          "midi": 70,
          "time": 19.8,
          "velocity": 0.8818897637795275,
          "duration": 0.3000000000000007
        },
        {
          "name": "C5",
          "midi": 72,
          "time": 20.400000000000002,
          "velocity": 0.8818897637795275,
          "duration": 0.8999999999999986
        },
        {
          "name": "A#4",
          "midi": 70,
          "time": 21.3,
          "velocity": 0.8818897637795275,
          "duration": 0.3000000000000007
        },
        {
          "name": "A#4",
          "midi": 70,
          "time": 21.6,
          "velocity": 0.8818897637795275,
          "duration": 0.3000000000000007
        },
        {
          "name": "A#4",
          "midi": 70,
          "time": 27.6,
          "velocity": 0.8818897637795275,
          "duration": 0.6000000000000014
        },
        {
          "name": "A#4",
          "midi": 70,
          "time": 39,
          "velocity": 0.8818897637795275,
          "duration": 0.3999999999999986
        },
        {
          "name": "A#4",
          "midi": 70,
          "time": 48,
          "velocity": 0.8818897637795275,
          "duration": 0.3999999999999986
        },
        {
          "name": "C5",
          "midi": 72,
          "time": 50.4,
          "velocity": 0.8818897637795275,
          "duration": 2.200000000000003
        },
        {
          "name": "C5",
          "midi": 72,
          "time": 53.800000000000004,
          "velocity": 0.8818897637795275,
          "duration": 0.20000000000000284
        },
        {
          "name": "C5",
          "midi": 72,
          "time": 54.00000000000001,
          "velocity": 0.8818897637795275,
          "duration": 0.3999999999999986
        },
        {
          "name": "A#4",
          "midi": 70,
          "time": 54.400000000000006,
          "velocity": 0.8818897637795275,
          "duration": 0.3999999999999986
        },
        {
          "name": "A#4",
          "midi": 70,
          "time": 54.800000000000004,
          "velocity": 0.8818897637795275,
          "duration": 1.6000000000000014
        },
        {
          "name": "A#4",
          "midi": 70,
          "time": 56.800000000000004,
          "velocity": 0.8818897637795275,
          "duration": 0.3999999999999986
        },
        {
          "name": "C5",
          "midi": 72,
          "time": 57.6,
          "velocity": 0.8818897637795275,
          "duration": 1
        },
        {
          "name": "A#4",
          "midi": 70,
          "time": 58.6,
          "velocity": 0.8818897637795275,
          "duration": 0.20000000000000284
        },
        {
          "name": "A#4",
          "midi": 70,
          "time": 58.800000000000004,
          "velocity": 0.8818897637795275,
          "duration": 0.3999999999999986
        },
        {
          "name": "A#4",
          "midi": 70,
          "time": 67.2,
          "velocity": 0.8818897637795275,
          "duration": 0.5999999999999943
        },
        {
          "name": "A#4",
          "midi": 70,
          "time": 77.39999999999999,
          "velocity": 0.8818897637795275,
          "duration": 0.4000000000000057
        },
        {
          "name": "A#4",
          "midi": 70,
          "time": 86.39999999999999,
          "velocity": 0.8818897637795275,
          "duration": 0.4000000000000057
        },
        {
          "name": "C5",
          "midi": 72,
          "time": 88.8,
          "velocity": 0.8818897637795275,
          "duration": 2.200000000000003
        },
        {
          "name": "C5",
          "midi": 72,
          "time": 92.2,
          "velocity": 0.8818897637795275,
          "duration": 0.20000000000000284
        },
        {
          "name": "C5",
          "midi": 72,
          "time": 92.4,
          "velocity": 0.8818897637795275,
          "duration": 0.4000000000000057
        },
        {
          "name": "A#4",
          "midi": 70,
          "time": 92.80000000000001,
          "velocity": 0.8818897637795275,
          "duration": 0.4000000000000057
        },
        {
          "name": "A#4",
          "midi": 70,
          "time": 93.20000000000002,
          "velocity": 0.8818897637795275,
          "duration": 1.5999999999999943
        },
        {
          "name": "A#4",
          "midi": 70,
          "time": 95.20000000000002,
          "velocity": 0.8818897637795275,
          "duration": 0.4000000000000057
        },
        {
          "name": "C5",
          "midi": 72,
          "time": 96.00000000000003,
          "velocity": 0.8818897637795275,
          "duration": 1
        },
        {
          "name": "A#4",
          "midi": 70,
          "time": 97.00000000000003,
          "velocity": 0.8818897637795275,
          "duration": 0.20000000000000284
        },
        {
          "name": "A#4",
          "midi": 70,
          "time": 97.20000000000003,
          "velocity": 0.8818897637795275,
          "duration": 0.4000000000000057
        },
        {
          "name": "A#4",
          "midi": 70,
          "time": 105.60000000000004,
          "velocity": 0.8818897637795275,
          "duration": 0.5999999999999943
        },
        {
          "name": "A#4",
          "midi": 70,
          "time": 115.80000000000003,
          "velocity": 0.8818897637795275,
          "duration": 0.4000000000000057
        },
        {
          "name": "A#4",
          "midi": 70,
          "time": 124.80000000000003,
          "velocity": 0.8818897637795275,
          "duration": 0.4000000000000057
        },
        {
          "name": "C5",
          "midi": 72,
          "time": 127.20000000000003,
          "velocity": 0.8818897637795275,
          "duration": 2.200000000000003
        },
        {
          "name": "C5",
          "midi": 72,
          "time": 130.60000000000002,
          "velocity": 0.8818897637795275,
          "duration": 0.19999999999998863
        },
        {
          "name": "C5",
          "midi": 72,
          "time": 130.8,
          "velocity": 0.8818897637795275,
          "duration": 0.4000000000000057
        },
        {
          "name": "A#4",
          "midi": 70,
          "time": 131.20000000000002,
          "velocity": 0.8818897637795275,
          "duration": 0.4000000000000057
        },
        {
          "name": "A#4",
          "midi": 70,
          "time": 131.60000000000002,
          "velocity": 0.8818897637795275,
          "duration": 1.5999999999999943
        },
        {
          "name": "A#4",
          "midi": 70,
          "time": 133.60000000000002,
          "velocity": 0.8818897637795275,
          "duration": 0.4000000000000057
        },
        {
          "name": "C5",
          "midi": 72,
          "time": 134.40000000000003,
          "velocity": 0.8818897637795275,
          "duration": 1
        },
        {
          "name": "A#4",
          "midi": 70,
          "time": 135.40000000000003,
          "velocity": 0.8818897637795275,
          "duration": 0.19999999999998863
        },
        {
          "name": "A#4",
          "midi": 70,
          "time": 135.60000000000002,
          "velocity": 0.8818897637795275,
          "duration": 0.4000000000000057
        },
        {
          "name": "A#4",
          "midi": 70,
          "time": 144.00000000000003,
          "velocity": 0.8818897637795275,
          "duration": 0.5999999999999943
        },
        {
          "name": "A#4",
          "midi": 70,
          "time": 153.60000000000002,
          "velocity": 0.8818897637795275,
          "duration": 0.5999999999999943
        },
        {
          "name": "A#4",
          "midi": 70,
          "time": 163.20000000000002,
          "velocity": 0.8818897637795275,
          "duration": 0.5999999999999943
        },
        {
          "name": "C5",
          "midi": 72,
          "time": 166,
          "velocity": 0.8818897637795275,
          "duration": 0.3499999999999943
        },
        {
          "name": "C5",
          "midi": 72,
          "time": 166.5,
          "velocity": 0.8818897637795275,
          "duration": 0.15000000000000568
        },
        {
          "name": "C5",
          "midi": 72,
          "time": 166.8,
          "velocity": 0.8818897637795275,
          "duration": 1
        },
        {
          "name": "C5",
          "midi": 72,
          "time": 169,
          "velocity": 0.8818897637795275,
          "duration": 0.19999999999998863
        },
        {
          "name": "C5",
          "midi": 72,
          "time": 169.2,
          "velocity": 0.8818897637795275,
          "duration": 0.4000000000000057
        },
        {
          "name": "A#4",
          "midi": 70,
          "time": 169.6,
          "velocity": 0.8818897637795275,
          "duration": 0.4000000000000057
        },
        {
          "name": "A#4",
          "midi": 70,
          "time": 170,
          "velocity": 0.8818897637795275,
          "duration": 1.5999999999999943
        },
        {
          "name": "A#4",
          "midi": 70,
          "time": 172,
          "velocity": 0.8818897637795275,
          "duration": 0.4000000000000057
        },
        {
          "name": "C5",
          "midi": 72,
          "time": 173.8,
          "velocity": 0.8818897637795275,
          "duration": 0.19999999999998863
        },
        {
          "name": "C5",
          "midi": 72,
          "time": 174,
          "velocity": 0.8818897637795275,
          "duration": 1
        },
        {
          "name": "A#4",
          "midi": 70,
          "time": 182.4,
          "velocity": 0.8818897637795275,
          "duration": 0.5999999999999943
        },
        {
          "name": "B4",
          "midi": 71,
          "time": 194.85,
          "velocity": 0.8818897637795275,
          "duration": 0.15000000000000568
        }
      ],
      "controlChanges": {
        "7": [
          {
            "number": 7,
            "time": 0.6,
            "value": 1
          }
        ],
        "10": [
          {
            "number": 10,
            "time": 0.6,
            "value": 0.7480314960629921
          }
        ],
        "91": [
          {
            "number": 91,
            "time": 0.6,
            "value": 0.4330708661417323
          }
        ],
        "93": [
          {
            "number": 93,
            "time": 0.6,
            "value": 0.11811023622047244
          }
        ]
      },
      "id": 14,
      "name": " ",
      "instrumentNumber": 0,
      "instrument": "acoustic grand piano",
      "instrumentFamily": "piano",
      "channelNumber": 12,
      "isPercussion": false
    },
    {
      "startTime": 16.8,
      "duration": 195.45000000000002,
      "length": 14,
      "notes": [
        {
          "name": "D5",
          "midi": 74,
          "time": 16.8,
          "velocity": 0.8818897637795275,
          "duration": 0.8999999999999986
        },
        {
          "name": "C#5",
          "midi": 73,
          "time": 52.8,
          "velocity": 0.8818897637795275,
          "duration": 0.07500000000000284
        },
        {
          "name": "D5",
          "midi": 74,
          "time": 52.875,
          "velocity": 0.8818897637795275,
          "duration": 0.9249999999999972
        },
        {
          "name": "C#5",
          "midi": 73,
          "time": 91.19999999999999,
          "velocity": 0.8818897637795275,
          "duration": 0.07500000000000284
        },
        {
          "name": "D5",
          "midi": 74,
          "time": 91.27499999999999,
          "velocity": 0.8818897637795275,
          "duration": 0.9249999999999972
        },
        {
          "name": "C#5",
          "midi": 73,
          "time": 129.6,
          "velocity": 0.8818897637795275,
          "duration": 0.07499999999998863
        },
        {
          "name": "D5",
          "midi": 74,
          "time": 129.67499999999998,
          "velocity": 0.8818897637795275,
          "duration": 0.9250000000000114
        },
        {
          "name": "D5",
          "midi": 74,
          "time": 166.35,
          "velocity": 0.8818897637795275,
          "duration": 0.15000000000000568
        },
        {
          "name": "C#5",
          "midi": 73,
          "time": 168,
          "velocity": 0.8818897637795275,
          "duration": 0.07499999999998863
        },
        {
          "name": "D5",
          "midi": 74,
          "time": 168.075,
          "velocity": 0.8818897637795275,
          "duration": 0.9250000000000114
        },
        {
          "name": "D5",
          "midi": 74,
          "time": 172.8,
          "velocity": 0.8818897637795275,
          "duration": 1
        },
        {
          "name": "D5",
          "midi": 74,
          "time": 195,
          "velocity": 0.8818897637795275,
          "duration": 0.15000000000000568
        },
        {
          "name": "G5",
          "midi": 79,
          "time": 195.15,
          "velocity": 0.8818897637795275,
          "duration": 0.15000000000000568
        },
        {
          "name": "B5",
          "midi": 83,
          "time": 195.3,
          "velocity": 0.8818897637795275,
          "duration": 0.15000000000000568
        }
      ],
      "controlChanges": {
        "7": [
          {
            "number": 7,
            "time": 0.6,
            "value": 1
          }
        ],
        "10": [
          {
            "number": 10,
            "time": 0.6,
            "value": 0.8031496062992126
          }
        ],
        "91": [
          {
            "number": 91,
            "time": 0.6,
            "value": 0.4330708661417323
          }
        ],
        "93": [
          {
            "number": 93,
            "time": 0.6,
            "value": 0.11811023622047244
          }
        ]
      },
      "id": 15,
      "name": " ",
      "instrumentNumber": 0,
      "instrument": "acoustic grand piano",
      "instrumentFamily": "piano",
      "channelNumber": 13,
      "isPercussion": false
    },
    {
      "startTime": 195.45,
      "duration": 205.19999999999996,
      "length": 14,
      "notes": [
        {
          "name": "E6",
          "midi": 88,
          "time": 195.45,
          "velocity": 0.8818897637795275,
          "duration": 0.15000000000000568
        },
        {
          "name": "B6",
          "midi": 95,
          "time": 195.6,
          "velocity": 0.6299212598425197,
          "duration": 0.4000000000000057
        },
        {
          "name": "B6",
          "midi": 95,
          "time": 196,
          "velocity": 0.6299212598425197,
          "duration": 0.19999999999998863
        },
        {
          "name": "B6",
          "midi": 95,
          "time": 196.2,
          "velocity": 0.6299212598425197,
          "duration": 0.5999999999999943
        },
        {
          "name": "D7",
          "midi": 98,
          "time": 196.79999999999998,
          "velocity": 0.6299212598425197,
          "duration": 0.4000000000000057
        },
        {
          "name": "A6",
          "midi": 93,
          "time": 197.2,
          "velocity": 0.6299212598425197,
          "duration": 0.5999999999999943
        },
        {
          "name": "D7",
          "midi": 98,
          "time": 197.79999999999998,
          "velocity": 0.6299212598425197,
          "duration": 0.19999999999998863
        },
        {
          "name": "G6",
          "midi": 91,
          "time": 197.99999999999997,
          "velocity": 0.6299212598425197,
          "duration": 0.5999999999999943
        },
        {
          "name": "A6",
          "midi": 93,
          "time": 198.59999999999997,
          "velocity": 0.6299212598425197,
          "duration": 0.4000000000000057
        },
        {
          "name": "B6",
          "midi": 95,
          "time": 198.99999999999997,
          "velocity": 0.6299212598425197,
          "duration": 0.5999999999999943
        },
        {
          "name": "D7",
          "midi": 98,
          "time": 199.59999999999997,
          "velocity": 0.6299212598425197,
          "duration": 0.19999999999998863
        },
        {
          "name": "G6",
          "midi": 91,
          "time": 199.79999999999995,
          "velocity": 0.6299212598425197,
          "duration": 0.5999999999999943
        },
        {
          "name": "A6",
          "midi": 93,
          "time": 200.39999999999995,
          "velocity": 0.6299212598425197,
          "duration": 0.4000000000000057
        },
        {
          "name": "B6",
          "midi": 95,
          "time": 200.79999999999995,
          "velocity": 0.6299212598425197,
          "duration": 4.400000000000006
        }
      ],
      "controlChanges": {
        "7": [
          {
            "number": 7,
            "time": 0.6,
            "value": 1
          }
        ],
        "10": [
          {
            "number": 10,
            "time": 0.6,
            "value": 0.8582677165354331
          }
        ],
        "91": [
          {
            "number": 91,
            "time": 0.6,
            "value": 0.4330708661417323
          }
        ],
        "93": [
          {
            "number": 93,
            "time": 0.6,
            "value": 0.11811023622047244
          }
        ]
      },
      "id": 16,
      "name": " ",
      "instrumentNumber": 0,
      "instrument": "acoustic grand piano",
      "instrumentFamily": "piano",
      "channelNumber": 14,
      "isPercussion": false
    }
  ]
}
