{
  "header": {
    "PPQ": 96,
    "timeSignature": [
      4,
      4
    ],
    "bpm": 120,
    "name": ""
  },
  "startTime": 1.5364583333333335,
  "duration": 64.94270833333371,
  "tracks": [
    {
      "startTime": 1.5364583333333335,
      "duration": 64.94270833333371,
      "length": 1123,
      "notes": [
        {
          "name": "C4",
          "midi": 60,
          "time": 1.5364583333333335,
          "velocity": 0.6614173228346457,
          "duration": 0.36979166666666674
        },
        {
          "name": "C2",
          "midi": 36,
          "time": 1.5520833333333335,
          "velocity": 0.5196850393700787,
          "duration": 0.390625
        },
        {
          "name": "A3",
          "midi": 57,
          "time": 1.9062500000000002,
          "velocity": 0.7559055118110236,
          "duration": 0.09374999999999978
        },
        {
          "name": "C4",
          "midi": 60,
          "time": 1.9062500000000002,
          "velocity": 0.6220472440944882,
          "duration": 0.09374999999999978
        },
        {
          "name": "F4",
          "midi": 65,
          "time": 1.9062500000000002,
          "velocity": 0.6929133858267716,
          "duration": 0.09374999999999978
        },
        {
          "name": "A3",
          "midi": 57,
          "time": 1.9114583333333335,
          "velocity": 0.5354330708661418,
          "duration": 0.4427083333333335
        },
        {
          "name": "F4",
          "midi": 65,
          "time": 1.9166666666666667,
          "velocity": 0.6614173228346457,
          "duration": 0.08854166666666674
        },
        {
          "name": "F2",
          "midi": 41,
          "time": 1.9322916666666667,
          "velocity": 0.6456692913385826,
          "duration": 0.6979166666666667
        },
        {
          "name": "A3",
          "midi": 57,
          "time": 2.28125,
          "velocity": 0.4251968503937008,
          "duration": 0.45312500000000044
        },
        {
          "name": "F4",
          "midi": 65,
          "time": 2.28125,
          "velocity": 0.5118110236220472,
          "duration": 0.07291666666666696
        },
        {
          "name": "C4",
          "midi": 60,
          "time": 2.28125,
          "velocity": 0.3937007874015748,
          "duration": 0.07291666666666696
        },
        {
          "name": "F4",
          "midi": 65,
          "time": 2.2864583333333335,
          "velocity": 0.6614173228346457,
          "duration": 0.171875
        },
        {
          "name": "G4",
          "midi": 67,
          "time": 2.4739583333333335,
          "velocity": 0.6456692913385826,
          "duration": 0.18229166666666652
        },
        {
          "name": "A3",
          "midi": 57,
          "time": 2.65625,
          "velocity": 0.47244094488188976,
          "duration": 0.3958333333333339
        },
        {
          "name": "C4",
          "midi": 60,
          "time": 2.65625,
          "velocity": 0.47244094488188976,
          "duration": 0.05729166666666696
        },
        {
          "name": "F4",
          "midi": 65,
          "time": 2.65625,
          "velocity": 0.5511811023622047,
          "duration": 0.07291666666666696
        },
        {
          "name": "F4",
          "midi": 65,
          "time": 2.6614583333333335,
          "velocity": 0.6614173228346457,
          "duration": 0.15625000000000044
        },
        {
          "name": "F1",
          "midi": 29,
          "time": 2.6770833333333335,
          "velocity": 0.5196850393700787,
          "duration": 0.4010416666666674
        },
        {
          "name": "E4",
          "midi": 64,
          "time": 2.848958333333334,
          "velocity": 0.6456692913385826,
          "duration": 0.13541666666666652
        },
        {
          "name": "A#3",
          "midi": 58,
          "time": 3.0312500000000004,
          "velocity": 0.6220472440944882,
          "duration": 0.07291666666666696
        },
        {
          "name": "F4",
          "midi": 65,
          "time": 3.0312500000000004,
          "velocity": 0.6929133858267716,
          "duration": 0.09895833333333393
        },
        {
          "name": "D4",
          "midi": 62,
          "time": 3.0312500000000004,
          "velocity": 0.6220472440944882,
          "duration": 0.07812500000000044
        },
        {
          "name": "A#3",
          "midi": 58,
          "time": 3.036458333333334,
          "velocity": 0.5354330708661418,
          "duration": 0.42187500000000044
        },
        {
          "name": "D4",
          "midi": 62,
          "time": 3.036458333333334,
          "velocity": 0.6456692913385826,
          "duration": 0.07812500000000044
        },
        {
          "name": "A#1",
          "midi": 34,
          "time": 3.0572916666666674,
          "velocity": 0.5196850393700787,
          "duration": 1.1197916666666674
        },
        {
          "name": "F4",
          "midi": 65,
          "time": 3.406250000000001,
          "velocity": 0.5118110236220472,
          "duration": 0.07291666666666696
        },
        {
          "name": "D4",
          "midi": 62,
          "time": 3.406250000000001,
          "velocity": 0.4251968503937008,
          "duration": 0.06770833333333348
        },
        {
          "name": "A#3",
          "midi": 58,
          "time": 3.406250000000001,
          "velocity": 0.3779527559055118,
          "duration": 0.42187500000000044
        },
        {
          "name": "D4",
          "midi": 62,
          "time": 3.4114583333333344,
          "velocity": 0.6614173228346457,
          "duration": 0.10416666666666696
        },
        {
          "name": "A#3",
          "midi": 58,
          "time": 3.7812500000000013,
          "velocity": 0.4566929133858268,
          "duration": 0.3958333333333335
        },
        {
          "name": "D4",
          "midi": 62,
          "time": 3.7812500000000013,
          "velocity": 0.3937007874015748,
          "duration": 0.05208333333333348
        },
        {
          "name": "F4",
          "midi": 65,
          "time": 3.7812500000000013,
          "velocity": 0.3937007874015748,
          "duration": 0.0625
        },
        {
          "name": "D4",
          "midi": 62,
          "time": 3.786458333333335,
          "velocity": 0.6614173228346457,
          "duration": 0.35416666666666696
        },
        {
          "name": "D4",
          "midi": 62,
          "time": 4.156250000000002,
          "velocity": 0.7559055118110236,
          "duration": 0.057291666666666075
        },
        {
          "name": "G4",
          "midi": 67,
          "time": 4.156250000000002,
          "velocity": 0.7559055118110236,
          "duration": 0.06770833333333304
        },
        {
          "name": "B3",
          "midi": 59,
          "time": 4.156250000000002,
          "velocity": 0.6220472440944882,
          "duration": 0.057291666666666075
        },
        {
          "name": "G4",
          "midi": 67,
          "time": 4.161458333333335,
          "velocity": 0.6614173228346457,
          "duration": 0.09895833333333304
        },
        {
          "name": "B3",
          "midi": 59,
          "time": 4.161458333333335,
          "velocity": 0.5590551181102362,
          "duration": 0.4322916666666661
        },
        {
          "name": "G1",
          "midi": 31,
          "time": 4.182291666666668,
          "velocity": 0.4881889763779528,
          "duration": 0.7291666666666661
        },
        {
          "name": "B3",
          "midi": 59,
          "time": 4.531250000000001,
          "velocity": 0.5511811023622047,
          "duration": 0.4322916666666661
        },
        {
          "name": "D4",
          "midi": 62,
          "time": 4.531250000000001,
          "velocity": 0.5511811023622047,
          "duration": 0.06770833333333304
        },
        {
          "name": "G4",
          "midi": 67,
          "time": 4.531250000000001,
          "velocity": 0.5826771653543307,
          "duration": 0.0625
        },
        {
          "name": "G4",
          "midi": 67,
          "time": 4.536458333333334,
          "velocity": 0.6614173228346457,
          "duration": 0.18229166666666696
        },
        {
          "name": "A4",
          "midi": 69,
          "time": 4.723958333333334,
          "velocity": 0.6456692913385826,
          "duration": 0.171875
        },
        {
          "name": "G4",
          "midi": 67,
          "time": 4.906250000000001,
          "velocity": 0.4566929133858268,
          "duration": 0.07812499999999911
        },
        {
          "name": "B3",
          "midi": 59,
          "time": 4.906250000000001,
          "velocity": 0.5118110236220472,
          "duration": 0.3437499999999991
        },
        {
          "name": "D4",
          "midi": 62,
          "time": 4.906250000000001,
          "velocity": 0.47244094488188976,
          "duration": 0.05208333333333304
        },
        {
          "name": "G4",
          "midi": 67,
          "time": 4.911458333333334,
          "velocity": 0.6456692913385826,
          "duration": 0.13541666666666607
        },
        {
          "name": "B1",
          "midi": 35,
          "time": 4.927083333333334,
          "velocity": 0.44881889763779526,
          "duration": 0.3749999999999991
        },
        {
          "name": "F4",
          "midi": 65,
          "time": 5.098958333333333,
          "velocity": 0.6614173228346457,
          "duration": 0.140625
        },
        {
          "name": "E4",
          "midi": 64,
          "time": 5.28125,
          "velocity": 0.6929133858267716,
          "duration": 0.08333333333333304
        },
        {
          "name": "G4",
          "midi": 67,
          "time": 5.28125,
          "velocity": 0.6929133858267716,
          "duration": 0.08854166666666607
        },
        {
          "name": "C4",
          "midi": 60,
          "time": 5.28125,
          "velocity": 0.6929133858267716,
          "duration": 0.08854166666666607
        },
        {
          "name": "C4",
          "midi": 60,
          "time": 5.286458333333333,
          "velocity": 0.5354330708661418,
          "duration": 0.3072916666666661
        },
        {
          "name": "E4",
          "midi": 64,
          "time": 5.286458333333333,
          "velocity": 0.6614173228346457,
          "duration": 0.31770833333333304
        },
        {
          "name": "C2",
          "midi": 36,
          "time": 5.307291666666666,
          "velocity": 0.5196850393700787,
          "duration": 0.8385416666666652
        },
        {
          "name": "G4",
          "midi": 67,
          "time": 5.656249999999999,
          "velocity": 0.6220472440944882,
          "duration": 0.08333333333333393
        },
        {
          "name": "E4",
          "midi": 64,
          "time": 5.656249999999999,
          "velocity": 0.5511811023622047,
          "duration": 0.07291666666666696
        },
        {
          "name": "C4",
          "midi": 60,
          "time": 5.656249999999999,
          "velocity": 0.47244094488188976,
          "duration": 0.0625
        },
        {
          "name": "C4",
          "midi": 60,
          "time": 5.661458333333332,
          "velocity": 0.6614173228346457,
          "duration": 0.09895833333333393
        },
        {
          "name": "G4",
          "midi": 67,
          "time": 6.031249999999999,
          "velocity": 0.5511811023622047,
          "duration": 0.07291666666666607
        },
        {
          "name": "C4",
          "midi": 60,
          "time": 6.031249999999999,
          "velocity": 0.48031496062992124,
          "duration": 0.09374999999999911
        },
        {
          "name": "E4",
          "midi": 64,
          "time": 6.031249999999999,
          "velocity": 0.5826771653543307,
          "duration": 0.07291666666666607
        },
        {
          "name": "C4",
          "midi": 60,
          "time": 6.036458333333332,
          "velocity": 0.6614173228346457,
          "duration": 0.2916666666666661
        },
        {
          "name": "A#1",
          "midi": 34,
          "time": 6.239583333333331,
          "velocity": 0.3779527559055118,
          "duration": 0.14583333333333393
        },
        {
          "name": "A4",
          "midi": 69,
          "time": 6.406249999999998,
          "velocity": 0.6929133858267716,
          "duration": 0.09895833333333393
        },
        {
          "name": "C#4",
          "midi": 61,
          "time": 6.406249999999998,
          "velocity": 0.5511811023622047,
          "duration": 0.078125
        },
        {
          "name": "E4",
          "midi": 64,
          "time": 6.406249999999998,
          "velocity": 0.6929133858267716,
          "duration": 0.08854166666666696
        },
        {
          "name": "A4",
          "midi": 69,
          "time": 6.411458333333331,
          "velocity": 0.6614173228346457,
          "duration": 0.09895833333333393
        },
        {
          "name": "C#4",
          "midi": 61,
          "time": 6.411458333333331,
          "velocity": 0.5354330708661418,
          "duration": 0.45833333333333304
        },
        {
          "name": "A1",
          "midi": 33,
          "time": 6.427083333333331,
          "velocity": 0.5748031496062992,
          "duration": 0.75
        },
        {
          "name": "C#4",
          "midi": 61,
          "time": 6.776041666666665,
          "velocity": 0.4251968503937008,
          "duration": 0.4479166666666661
        },
        {
          "name": "A4",
          "midi": 69,
          "time": 6.781249999999998,
          "velocity": 0.4566929133858268,
          "duration": 0.09895833333333304
        },
        {
          "name": "E4",
          "midi": 64,
          "time": 6.781249999999998,
          "velocity": 0.4251968503937008,
          "duration": 0.06770833333333304
        },
        {
          "name": "A4",
          "midi": 69,
          "time": 6.786458333333331,
          "velocity": 0.6614173228346457,
          "duration": 0.17708333333333304
        },
        {
          "name": "A#4",
          "midi": 70,
          "time": 6.973958333333331,
          "velocity": 0.5590551181102362,
          "duration": 0.15625
        },
        {
          "name": "C#4",
          "midi": 61,
          "time": 7.156249999999998,
          "velocity": 0.4566929133858268,
          "duration": 0.3281249999999991
        },
        {
          "name": "A4",
          "midi": 69,
          "time": 7.156249999999998,
          "velocity": 0.5511811023622047,
          "duration": 0.10416666666666607
        },
        {
          "name": "E4",
          "midi": 64,
          "time": 7.156249999999998,
          "velocity": 0.5118110236220472,
          "duration": 0.06770833333333304
        },
        {
          "name": "A4",
          "midi": 69,
          "time": 7.161458333333331,
          "velocity": 0.5590551181102362,
          "duration": 0.15104166666666607
        },
        {
          "name": "C#2",
          "midi": 37,
          "time": 7.182291666666664,
          "velocity": 0.4881889763779528,
          "duration": 0.36458333333333304
        },
        {
          "name": "G4",
          "midi": 67,
          "time": 7.34895833333333,
          "velocity": 0.6456692913385826,
          "duration": 0.18229166666666696
        },
        {
          "name": "D4",
          "midi": 62,
          "time": 7.526041666666664,
          "velocity": 0.6929133858267716,
          "duration": 0.08333333333333215
        },
        {
          "name": "F4",
          "midi": 65,
          "time": 7.531249999999997,
          "velocity": 0.8582677165354331,
          "duration": 0.07291666666666607
        },
        {
          "name": "A4",
          "midi": 69,
          "time": 7.531249999999997,
          "velocity": 0.8582677165354331,
          "duration": 0.08854166666666607
        },
        {
          "name": "D4",
          "midi": 62,
          "time": 7.53645833333333,
          "velocity": 0.5354330708661418,
          "duration": 0.3229166666666661
        },
        {
          "name": "F4",
          "midi": 65,
          "time": 7.53645833333333,
          "velocity": 0.6614173228346457,
          "duration": 0.3072916666666661
        },
        {
          "name": "D2",
          "midi": 38,
          "time": 7.55208333333333,
          "velocity": 0.5748031496062992,
          "duration": 0.7760416666666661
        },
        {
          "name": "F4",
          "midi": 65,
          "time": 7.901041666666663,
          "velocity": 0.47244094488188976,
          "duration": 0.06249999999999911
        },
        {
          "name": "A4",
          "midi": 69,
          "time": 7.9062499999999964,
          "velocity": 0.47244094488188976,
          "duration": 0.06770833333333304
        },
        {
          "name": "D4",
          "midi": 62,
          "time": 7.9062499999999964,
          "velocity": 0.4251968503937008,
          "duration": 0.06770833333333304
        },
        {
          "name": "D4",
          "midi": 62,
          "time": 7.9114583333333295,
          "velocity": 0.6062992125984252,
          "duration": 0.08854166666666696
        },
        {
          "name": "A4",
          "midi": 69,
          "time": 8.276041666666663,
          "velocity": 0.5826771653543307,
          "duration": 0.078125
        },
        {
          "name": "C4",
          "midi": 60,
          "time": 8.281249999999996,
          "velocity": 0.5118110236220472,
          "duration": 0.09375
        },
        {
          "name": "F4",
          "midi": 65,
          "time": 8.281249999999996,
          "velocity": 0.5511811023622047,
          "duration": 0.057291666666666075
        },
        {
          "name": "C4",
          "midi": 60,
          "time": 8.28645833333333,
          "velocity": 0.6614173228346457,
          "duration": 0.109375
        },
        {
          "name": "A1",
          "midi": 33,
          "time": 8.30208333333333,
          "velocity": 0.4566929133858268,
          "duration": 0.3177083333333339
        },
        {
          "name": "C4",
          "midi": 60,
          "time": 8.47395833333333,
          "velocity": 0.5354330708661418,
          "duration": 0.09895833333333393
        },
        {
          "name": "F4",
          "midi": 65,
          "time": 8.651041666666664,
          "velocity": 0.5511811023622047,
          "duration": 0.09375000000000178
        },
        {
          "name": "A#3",
          "midi": 58,
          "time": 8.656249999999998,
          "velocity": 0.47244094488188976,
          "duration": 0.08333333333333393
        },
        {
          "name": "D4",
          "midi": 62,
          "time": 8.656249999999998,
          "velocity": 0.5826771653543307,
          "duration": 0.08854166666666785
        },
        {
          "name": "D4",
          "midi": 62,
          "time": 8.661458333333332,
          "velocity": 0.6614173228346457,
          "duration": 0.08854166666666785
        },
        {
          "name": "A#3",
          "midi": 58,
          "time": 8.661458333333332,
          "velocity": 0.5354330708661418,
          "duration": 0.4270833333333357
        },
        {
          "name": "A#1",
          "midi": 34,
          "time": 8.677083333333332,
          "velocity": 0.4566929133858268,
          "duration": 0.6614583333333339
        },
        {
          "name": "A#3",
          "midi": 58,
          "time": 9.026041666666666,
          "velocity": 0.47244094488188976,
          "duration": 0.16145833333333393
        },
        {
          "name": "F4",
          "midi": 65,
          "time": 9.03125,
          "velocity": 0.5118110236220472,
          "duration": 0.08333333333333393
        },
        {
          "name": "D4",
          "midi": 62,
          "time": 9.03125,
          "velocity": 0.47244094488188976,
          "duration": 0.05729166666666785
        },
        {
          "name": "G4",
          "midi": 67,
          "time": 9.036458333333334,
          "velocity": 0.6614173228346457,
          "duration": 0.09375
        },
        {
          "name": "C4",
          "midi": 60,
          "time": 9.401041666666666,
          "velocity": 0.5511811023622047,
          "duration": 0.07291666666666785
        },
        {
          "name": "E4",
          "midi": 64,
          "time": 9.40625,
          "velocity": 0.5511811023622047,
          "duration": 0.04166666666666785
        },
        {
          "name": "G4",
          "midi": 67,
          "time": 9.40625,
          "velocity": 0.47244094488188976,
          "duration": 0.052083333333333925
        },
        {
          "name": "E4",
          "midi": 64,
          "time": 9.411458333333334,
          "velocity": 0.6614173228346457,
          "duration": 0.078125
        },
        {
          "name": "C4",
          "midi": 60,
          "time": 9.411458333333334,
          "velocity": 0.5354330708661418,
          "duration": 0.09895833333333393
        },
        {
          "name": "C2",
          "midi": 36,
          "time": 9.427083333333334,
          "velocity": 0.5748031496062992,
          "duration": 0.09895833333333393
        },
        {
          "name": "F4",
          "midi": 65,
          "time": 9.776041666666668,
          "velocity": 0.47244094488188976,
          "duration": 0.30729166666666785
        },
        {
          "name": "A3",
          "midi": 57,
          "time": 9.781250000000002,
          "velocity": 0.4251968503937008,
          "duration": 0.359375
        },
        {
          "name": "C4",
          "midi": 60,
          "time": 9.781250000000002,
          "velocity": 0.3464566929133858,
          "duration": 0.5208333333333339
        },
        {
          "name": "A3",
          "midi": 57,
          "time": 9.786458333333336,
          "velocity": 0.5354330708661418,
          "duration": 0.4947916666666661
        },
        {
          "name": "F4",
          "midi": 65,
          "time": 9.786458333333336,
          "velocity": 0.6614173228346457,
          "duration": 0.5208333333333339
        },
        {
          "name": "F1",
          "midi": 29,
          "time": 9.802083333333336,
          "velocity": 0.5196850393700787,
          "duration": 0.8593750000000018
        },
        {
          "name": "C4",
          "midi": 60,
          "time": 10.536458333333337,
          "velocity": 0.5590551181102362,
          "duration": 0.359375
        },
        {
          "name": "C5",
          "midi": 72,
          "time": 10.536458333333337,
          "velocity": 0.6614173228346457,
          "duration": 0.3125
        },
        {
          "name": "C6",
          "midi": 84,
          "time": 10.552083333333337,
          "velocity": 0.4881889763779528,
          "duration": 0.3385416666666661
        },
        {
          "name": "A4",
          "midi": 69,
          "time": 10.901041666666671,
          "velocity": 0.6929133858267716,
          "duration": 0.0989583333333357
        },
        {
          "name": "F4",
          "midi": 65,
          "time": 10.906250000000005,
          "velocity": 0.6929133858267716,
          "duration": 0.08854166666666785
        },
        {
          "name": "C4",
          "midi": 60,
          "time": 10.906250000000005,
          "velocity": 0.6220472440944882,
          "duration": 0.08333333333333393
        },
        {
          "name": "F4",
          "midi": 65,
          "time": 10.91145833333334,
          "velocity": 0.6062992125984252,
          "duration": 0.09375000000000178
        },
        {
          "name": "F5",
          "midi": 77,
          "time": 10.91145833333334,
          "velocity": 0.6614173228346457,
          "duration": 0.0989583333333357
        },
        {
          "name": "F6",
          "midi": 89,
          "time": 10.92708333333334,
          "velocity": 0.5511811023622047,
          "duration": 0.08854166666666963
        },
        {
          "name": "F2",
          "midi": 41,
          "time": 10.92708333333334,
          "velocity": 0.5748031496062992,
          "duration": 0.7291666666666714
        },
        {
          "name": "C4",
          "midi": 60,
          "time": 11.276041666666675,
          "velocity": 0.4251968503937008,
          "duration": 0.07291666666666785
        },
        {
          "name": "F4",
          "midi": 65,
          "time": 11.281250000000009,
          "velocity": 0.4566929133858268,
          "duration": 0.078125
        },
        {
          "name": "A4",
          "midi": 69,
          "time": 11.281250000000009,
          "velocity": 0.3937007874015748,
          "duration": 0.078125
        },
        {
          "name": "F4",
          "midi": 65,
          "time": 11.286458333333343,
          "velocity": 0.5590551181102362,
          "duration": 0.18229166666666607
        },
        {
          "name": "F5",
          "midi": 77,
          "time": 11.286458333333343,
          "velocity": 0.6614173228346457,
          "duration": 0.15104166666666607
        },
        {
          "name": "F6",
          "midi": 89,
          "time": 11.302083333333343,
          "velocity": 0.5118110236220472,
          "duration": 0.16145833333333215
        },
        {
          "name": "G4",
          "midi": 67,
          "time": 11.473958333333343,
          "velocity": 0.5590551181102362,
          "duration": 0.1927083333333357
        },
        {
          "name": "G5",
          "midi": 79,
          "time": 11.473958333333343,
          "velocity": 0.6456692913385826,
          "duration": 0.18229166666666785
        },
        {
          "name": "G6",
          "midi": 91,
          "time": 11.489583333333343,
          "velocity": 0.5118110236220472,
          "duration": 0.19791666666666785
        },
        {
          "name": "F4",
          "midi": 65,
          "time": 11.651041666666677,
          "velocity": 0.5118110236220472,
          "duration": 0.08333333333333393
        },
        {
          "name": "C4",
          "midi": 60,
          "time": 11.65625000000001,
          "velocity": 0.5118110236220472,
          "duration": 0.06770833333333393
        },
        {
          "name": "A4",
          "midi": 69,
          "time": 11.65625000000001,
          "velocity": 0.47244094488188976,
          "duration": 0.08333333333333393
        },
        {
          "name": "F5",
          "midi": 77,
          "time": 11.661458333333345,
          "velocity": 0.6456692913385826,
          "duration": 0.13541666666666607
        },
        {
          "name": "F4",
          "midi": 65,
          "time": 11.661458333333345,
          "velocity": 0.6062992125984252,
          "duration": 0.171875
        },
        {
          "name": "F1",
          "midi": 29,
          "time": 11.677083333333345,
          "velocity": 0.4881889763779528,
          "duration": 0.3750000000000018
        },
        {
          "name": "F6",
          "midi": 89,
          "time": 11.677083333333345,
          "velocity": 0.5118110236220472,
          "duration": 0.11979166666666607
        },
        {
          "name": "E5",
          "midi": 76,
          "time": 11.848958333333345,
          "velocity": 0.5590551181102362,
          "duration": 0.14583333333333393
        },
        {
          "name": "E4",
          "midi": 64,
          "time": 11.848958333333345,
          "velocity": 0.5354330708661418,
          "duration": 0.15104166666666785
        },
        {
          "name": "E6",
          "midi": 88,
          "time": 11.864583333333345,
          "velocity": 0.49606299212598426,
          "duration": 0.125
        },
        {
          "name": "A#4",
          "midi": 70,
          "time": 12.026041666666679,
          "velocity": 0.6220472440944882,
          "duration": 0.1145833333333357
        },
        {
          "name": "D4",
          "midi": 62,
          "time": 12.031250000000012,
          "velocity": 0.6220472440944882,
          "duration": 0.07291666666666785
        },
        {
          "name": "F4",
          "midi": 65,
          "time": 12.031250000000012,
          "velocity": 0.7559055118110236,
          "duration": 0.07291666666666785
        },
        {
          "name": "D4",
          "midi": 62,
          "time": 12.036458333333346,
          "velocity": 0.6062992125984252,
          "duration": 0.09375000000000178
        },
        {
          "name": "D5",
          "midi": 74,
          "time": 12.036458333333346,
          "velocity": 0.6614173228346457,
          "duration": 0.08854166666666785
        },
        {
          "name": "A#1",
          "midi": 34,
          "time": 12.052083333333346,
          "velocity": 0.4566929133858268,
          "duration": 0.7343750000000018
        },
        {
          "name": "D6",
          "midi": 86,
          "time": 12.052083333333346,
          "velocity": 0.5196850393700787,
          "duration": 0.046875
        },
        {
          "name": "D4",
          "midi": 62,
          "time": 12.40104166666668,
          "velocity": 0.5511811023622047,
          "duration": 0.07291666666666785
        },
        {
          "name": "F4",
          "midi": 65,
          "time": 12.406250000000014,
          "velocity": 0.5511811023622047,
          "duration": 0.0625
        },
        {
          "name": "A#4",
          "midi": 70,
          "time": 12.406250000000014,
          "velocity": 0.4566929133858268,
          "duration": 0.078125
        },
        {
          "name": "D5",
          "midi": 74,
          "time": 12.411458333333348,
          "velocity": 0.6062992125984252,
          "duration": 0.10416666666666607
        },
        {
          "name": "D4",
          "midi": 62,
          "time": 12.411458333333348,
          "velocity": 0.6299212598425197,
          "duration": 0.09375
        },
        {
          "name": "D6",
          "midi": 86,
          "time": 12.427083333333348,
          "velocity": 0.48031496062992124,
          "duration": 0.07291666666666607
        },
        {
          "name": "A#4",
          "midi": 70,
          "time": 12.77604166666668,
          "velocity": 0.5118110236220472,
          "duration": 0.09375
        },
        {
          "name": "F4",
          "midi": 65,
          "time": 12.781250000000014,
          "velocity": 0.5511811023622047,
          "duration": 0.046875
        },
        {
          "name": "D4",
          "midi": 62,
          "time": 12.781250000000014,
          "velocity": 0.5511811023622047,
          "duration": 0.057291666666666075
        },
        {
          "name": "D4",
          "midi": 62,
          "time": 12.786458333333348,
          "velocity": 0.6062992125984252,
          "duration": 0.3541666666666643
        },
        {
          "name": "D5",
          "midi": 74,
          "time": 12.786458333333348,
          "velocity": 0.6456692913385826,
          "duration": 0.3437499999999982
        },
        {
          "name": "F2",
          "midi": 41,
          "time": 12.802083333333348,
          "velocity": 0.5196850393700787,
          "duration": 0.15624999999999822
        },
        {
          "name": "D6",
          "midi": 86,
          "time": 12.802083333333348,
          "velocity": 0.48031496062992124,
          "duration": 0.3385416666666643
        },
        {
          "name": "A#2",
          "midi": 46,
          "time": 12.989583333333346,
          "velocity": 0.4566929133858268,
          "duration": 0.15625
        },
        {
          "name": "B4",
          "midi": 71,
          "time": 13.15104166666668,
          "velocity": 0.8582677165354331,
          "duration": 0.09895833333333393
        },
        {
          "name": "D4",
          "midi": 62,
          "time": 13.156250000000014,
          "velocity": 0.6929133858267716,
          "duration": 0.078125
        },
        {
          "name": "G4",
          "midi": 67,
          "time": 13.156250000000014,
          "velocity": 0.7559055118110236,
          "duration": 0.09375
        },
        {
          "name": "G4",
          "midi": 67,
          "time": 13.161458333333348,
          "velocity": 0.6456692913385826,
          "duration": 0.08854166666666607
        },
        {
          "name": "G5",
          "midi": 79,
          "time": 13.161458333333348,
          "velocity": 0.6456692913385826,
          "duration": 0.08854166666666607
        },
        {
          "name": "G2",
          "midi": 43,
          "time": 13.177083333333348,
          "velocity": 0.5196850393700787,
          "duration": 0.7135416666666696
        },
        {
          "name": "G6",
          "midi": 91,
          "time": 13.177083333333348,
          "velocity": 0.5275590551181102,
          "duration": 0.0625
        },
        {
          "name": "B4",
          "midi": 71,
          "time": 13.52604166666668,
          "velocity": 0.6220472440944882,
          "duration": 0.09375000000000178
        },
        {
          "name": "G4",
          "midi": 67,
          "time": 13.531250000000014,
          "velocity": 0.6220472440944882,
          "duration": 0.08333333333333393
        },
        {
          "name": "D4",
          "midi": 62,
          "time": 13.531250000000014,
          "velocity": 0.5511811023622047,
          "duration": 0.07291666666666785
        },
        {
          "name": "G4",
          "midi": 67,
          "time": 13.536458333333348,
          "velocity": 0.6062992125984252,
          "duration": 0.16666666666666785
        },
        {
          "name": "G5",
          "midi": 79,
          "time": 13.536458333333348,
          "velocity": 0.6614173228346457,
          "duration": 0.13020833333333393
        },
        {
          "name": "G6",
          "midi": 91,
          "time": 13.552083333333348,
          "velocity": 0.5196850393700787,
          "duration": 0.17187500000000178
        },
        {
          "name": "A4",
          "midi": 69,
          "time": 13.72395833333335,
          "velocity": 0.5354330708661418,
          "duration": 0.16666666666666785
        },
        {
          "name": "A5",
          "midi": 81,
          "time": 13.72395833333335,
          "velocity": 0.6062992125984252,
          "duration": 0.15625
        },
        {
          "name": "A6",
          "midi": 93,
          "time": 13.73958333333335,
          "velocity": 0.4566929133858268,
          "duration": 0.14583333333333393
        },
        {
          "name": "D4",
          "midi": 62,
          "time": 13.901041666666684,
          "velocity": 0.5826771653543307,
          "duration": 0.0677083333333357
        },
        {
          "name": "G4",
          "midi": 67,
          "time": 13.906250000000018,
          "velocity": 0.5826771653543307,
          "duration": 0.05729166666666785
        },
        {
          "name": "B4",
          "midi": 71,
          "time": 13.906250000000018,
          "velocity": 0.5826771653543307,
          "duration": 0.08854166666666785
        },
        {
          "name": "G5",
          "midi": 79,
          "time": 13.911458333333352,
          "velocity": 0.6456692913385826,
          "duration": 0.13541666666666785
        },
        {
          "name": "G4",
          "midi": 67,
          "time": 13.911458333333352,
          "velocity": 0.5590551181102362,
          "duration": 0.18750000000000178
        },
        {
          "name": "G6",
          "midi": 91,
          "time": 13.927083333333352,
          "velocity": 0.49606299212598426,
          "duration": 0.08333333333333393
        },
        {
          "name": "B2",
          "midi": 47,
          "time": 13.927083333333352,
          "velocity": 0.5196850393700787,
          "duration": 0.35937500000000355
        },
        {
          "name": "F5",
          "midi": 77,
          "time": 14.098958333333353,
          "velocity": 0.5590551181102362,
          "duration": 0.14583333333333393
        },
        {
          "name": "F4",
          "midi": 65,
          "time": 14.098958333333353,
          "velocity": 0.5590551181102362,
          "duration": 0.13020833333333393
        },
        {
          "name": "F6",
          "midi": 89,
          "time": 14.114583333333353,
          "velocity": 0.5196850393700787,
          "duration": 0.0625
        },
        {
          "name": "G4",
          "midi": 67,
          "time": 14.276041666666687,
          "velocity": 0.6220472440944882,
          "duration": 0.0833333333333357
        },
        {
          "name": "C5",
          "midi": 72,
          "time": 14.281250000000021,
          "velocity": 0.6929133858267716,
          "duration": 0.0833333333333357
        },
        {
          "name": "E4",
          "midi": 64,
          "time": 14.281250000000021,
          "velocity": 0.6929133858267716,
          "duration": 0.07291666666666785
        },
        {
          "name": "E4",
          "midi": 64,
          "time": 14.286458333333355,
          "velocity": 0.5590551181102362,
          "duration": 0.33854166666666785
        },
        {
          "name": "E5",
          "midi": 76,
          "time": 14.286458333333355,
          "velocity": 0.6456692913385826,
          "duration": 0.3281250000000018
        },
        {
          "name": "E6",
          "midi": 88,
          "time": 14.302083333333355,
          "velocity": 0.5118110236220472,
          "duration": 0.3125000000000018
        },
        {
          "name": "C3",
          "midi": 48,
          "time": 14.302083333333355,
          "velocity": 0.4881889763779528,
          "duration": 0.3593750000000018
        },
        {
          "name": "C5",
          "midi": 72,
          "time": 14.65104166666669,
          "velocity": 0.5511811023622047,
          "duration": 0.10416666666666963
        },
        {
          "name": "E4",
          "midi": 64,
          "time": 14.656250000000023,
          "velocity": 0.47244094488188976,
          "duration": 0.0677083333333357
        },
        {
          "name": "G4",
          "midi": 67,
          "time": 14.656250000000023,
          "velocity": 0.4566929133858268,
          "duration": 0.06250000000000178
        },
        {
          "name": "C4",
          "midi": 60,
          "time": 14.661458333333357,
          "velocity": 0.6062992125984252,
          "duration": 0.07812500000000178
        },
        {
          "name": "C5",
          "midi": 72,
          "time": 14.661458333333357,
          "velocity": 0.6614173228346457,
          "duration": 0.09375000000000178
        },
        {
          "name": "C6",
          "midi": 84,
          "time": 14.677083333333357,
          "velocity": 0.47244094488188976,
          "duration": 0.07291666666666785
        },
        {
          "name": "C2",
          "midi": 36,
          "time": 14.682291666666691,
          "velocity": 0.4566929133858268,
          "duration": 0.3489583333333357
        },
        {
          "name": "E4",
          "midi": 64,
          "time": 15.026041666666693,
          "velocity": 0.5826771653543307,
          "duration": 0.07291666666666785
        },
        {
          "name": "C5",
          "midi": 72,
          "time": 15.031250000000027,
          "velocity": 0.5118110236220472,
          "duration": 0.07291666666666785
        },
        {
          "name": "G4",
          "midi": 67,
          "time": 15.031250000000027,
          "velocity": 0.4566929133858268,
          "duration": 0.046875
        },
        {
          "name": "C4",
          "midi": 60,
          "time": 15.03645833333336,
          "velocity": 0.5590551181102362,
          "duration": 0.3802083333333357
        },
        {
          "name": "C5",
          "midi": 72,
          "time": 15.03645833333336,
          "velocity": 0.6456692913385826,
          "duration": 0.34375
        },
        {
          "name": "C3",
          "midi": 48,
          "time": 15.05208333333336,
          "velocity": 0.4566929133858268,
          "duration": 0.15625
        },
        {
          "name": "C6",
          "midi": 84,
          "time": 15.05208333333336,
          "velocity": 0.4566929133858268,
          "duration": 0.2864583333333339
        },
        {
          "name": "A#2",
          "midi": 46,
          "time": 15.23958333333336,
          "velocity": 0.5748031496062992,
          "duration": 0.140625
        },
        {
          "name": "C#5",
          "midi": 73,
          "time": 15.401041666666694,
          "velocity": 0.5826771653543307,
          "duration": 0.0989583333333357
        },
        {
          "name": "E4",
          "midi": 64,
          "time": 15.406250000000028,
          "velocity": 0.5511811023622047,
          "duration": 0.06770833333333393
        },
        {
          "name": "A4",
          "midi": 69,
          "time": 15.406250000000028,
          "velocity": 0.6220472440944882,
          "duration": 0.05729166666666785
        },
        {
          "name": "A5",
          "midi": 81,
          "time": 15.411458333333362,
          "velocity": 0.6614173228346457,
          "duration": 0.08854166666666785
        },
        {
          "name": "A4",
          "midi": 69,
          "time": 15.411458333333362,
          "velocity": 0.6062992125984252,
          "duration": 0.08333333333333393
        },
        {
          "name": "A2",
          "midi": 45,
          "time": 15.427083333333362,
          "velocity": 0.4881889763779528,
          "duration": 0.3750000000000018
        },
        {
          "name": "A6",
          "midi": 93,
          "time": 15.427083333333362,
          "velocity": 0.5196850393700787,
          "duration": 0.07291666666666785
        },
        {
          "name": "C#5",
          "midi": 73,
          "time": 15.776041666666696,
          "velocity": 0.4251968503937008,
          "duration": 0.10416666666666785
        },
        {
          "name": "E4",
          "midi": 64,
          "time": 15.78125000000003,
          "velocity": 0.5118110236220472,
          "duration": 0.052083333333333925
        },
        {
          "name": "A4",
          "midi": 69,
          "time": 15.78125000000003,
          "velocity": 0.5118110236220472,
          "duration": 0.05729166666666785
        },
        {
          "name": "A4",
          "midi": 69,
          "time": 15.786458333333364,
          "velocity": 0.5590551181102362,
          "duration": 0.140625
        },
        {
          "name": "A5",
          "midi": 81,
          "time": 15.786458333333364,
          "velocity": 0.6614173228346457,
          "duration": 0.140625
        },
        {
          "name": "A1",
          "midi": 33,
          "time": 15.802083333333364,
          "velocity": 0.5196850393700787,
          "duration": 0.3958333333333286
        },
        {
          "name": "A6",
          "midi": 93,
          "time": 15.807291666666698,
          "velocity": 0.5511811023622047,
          "duration": 0.20312499999999822
        },
        {
          "name": "A#4",
          "midi": 70,
          "time": 15.973958333333364,
          "velocity": 0.5354330708661418,
          "duration": 0.15625
        },
        {
          "name": "A#5",
          "midi": 82,
          "time": 15.973958333333364,
          "velocity": 0.6062992125984252,
          "duration": 0.14583333333333215
        },
        {
          "name": "A#6",
          "midi": 94,
          "time": 15.989583333333364,
          "velocity": 0.5196850393700787,
          "duration": 0.1197916666666643
        },
        {
          "name": "C#5",
          "midi": 73,
          "time": 16.151041666666696,
          "velocity": 0.4566929133858268,
          "duration": 0.1041666666666643
        },
        {
          "name": "E4",
          "midi": 64,
          "time": 16.15625000000003,
          "velocity": 0.5354330708661418,
          "duration": 0.05208333333333215
        },
        {
          "name": "A4",
          "midi": 69,
          "time": 16.15625000000003,
          "velocity": 0.5354330708661418,
          "duration": 0.0572916666666643
        },
        {
          "name": "A4",
          "midi": 69,
          "time": 16.16145833333336,
          "velocity": 0.5354330708661418,
          "duration": 0.1666666666666643
        },
        {
          "name": "A5",
          "midi": 81,
          "time": 16.16145833333336,
          "velocity": 0.6062992125984252,
          "duration": 0.17187499999999645
        },
        {
          "name": "C#2",
          "midi": 37,
          "time": 16.17708333333336,
          "velocity": 0.4881889763779528,
          "duration": 0.34374999999999645
        },
        {
          "name": "A6",
          "midi": 93,
          "time": 16.17708333333336,
          "velocity": 0.5196850393700787,
          "duration": 0.09895833333333215
        },
        {
          "name": "G4",
          "midi": 67,
          "time": 16.348958333333357,
          "velocity": 0.6062992125984252,
          "duration": 0.15104166666666785
        },
        {
          "name": "G5",
          "midi": 79,
          "time": 16.348958333333357,
          "velocity": 0.6062992125984252,
          "duration": 0.16666666666666785
        },
        {
          "name": "G6",
          "midi": 91,
          "time": 16.364583333333357,
          "velocity": 0.5196850393700787,
          "duration": 0.10416666666666785
        },
        {
          "name": "D5",
          "midi": 74,
          "time": 16.52604166666669,
          "velocity": 0.7559055118110236,
          "duration": 0.08854166666666785
        },
        {
          "name": "F4",
          "midi": 65,
          "time": 16.53125000000002,
          "velocity": 0.6220472440944882,
          "duration": 0.07291666666666785
        },
        {
          "name": "A4",
          "midi": 69,
          "time": 16.53125000000002,
          "velocity": 0.5118110236220472,
          "duration": 0.046875
        },
        {
          "name": "F5",
          "midi": 77,
          "time": 16.536458333333353,
          "velocity": 0.6614173228346457,
          "duration": 0.29687500000000355
        },
        {
          "name": "F4",
          "midi": 65,
          "time": 16.536458333333353,
          "velocity": 0.5354330708661418,
          "duration": 0.2916666666666714
        },
        {
          "name": "D2",
          "midi": 38,
          "time": 16.552083333333353,
          "velocity": 0.5748031496062992,
          "duration": 0.7604166666666643
        },
        {
          "name": "F6",
          "midi": 89,
          "time": 16.552083333333353,
          "velocity": 0.5196850393700787,
          "duration": 0.31250000000000355
        },
        {
          "name": "D5",
          "midi": 74,
          "time": 16.90104166666669,
          "velocity": 0.5511811023622047,
          "duration": 0.08854166666666075
        },
        {
          "name": "F4",
          "midi": 65,
          "time": 16.90625000000002,
          "velocity": 0.47244094488188976,
          "duration": 0.0572916666666643
        },
        {
          "name": "A4",
          "midi": 69,
          "time": 16.90625000000002,
          "velocity": 0.5118110236220472,
          "duration": 0.05208333333333215
        },
        {
          "name": "D5",
          "midi": 74,
          "time": 16.911458333333353,
          "velocity": 0.6614173228346457,
          "duration": 0.0885416666666643
        },
        {
          "name": "D4",
          "midi": 62,
          "time": 16.911458333333353,
          "velocity": 0.6456692913385826,
          "duration": 0.0572916666666643
        },
        {
          "name": "D6",
          "midi": 86,
          "time": 16.927083333333353,
          "velocity": 0.5039370078740157,
          "duration": 0.06249999999999645
        },
        {
          "name": "A4",
          "midi": 69,
          "time": 17.276041666666686,
          "velocity": 0.5511811023622047,
          "duration": 0.08333333333333215
        },
        {
          "name": "F4",
          "midi": 65,
          "time": 17.281250000000018,
          "velocity": 0.4251968503937008,
          "duration": 0.05729166666666785
        },
        {
          "name": "C5",
          "midi": 72,
          "time": 17.281250000000018,
          "velocity": 0.5826771653543307,
          "duration": 0.07291666666666785
        },
        {
          "name": "C5",
          "midi": 72,
          "time": 17.28645833333335,
          "velocity": 0.6614173228346457,
          "duration": 0.09375
        },
        {
          "name": "C4",
          "midi": 60,
          "time": 17.28645833333335,
          "velocity": 0.5354330708661418,
          "duration": 0.08854166666666785
        },
        {
          "name": "C6",
          "midi": 84,
          "time": 17.30208333333335,
          "velocity": 0.48031496062992124,
          "duration": 0.0677083333333357
        },
        {
          "name": "A1",
          "midi": 33,
          "time": 17.30208333333335,
          "velocity": 0.4881889763779528,
          "duration": 0.34375
        },
        {
          "name": "C4",
          "midi": 60,
          "time": 17.47395833333335,
          "velocity": 0.5354330708661418,
          "duration": 0.109375
        },
        {
          "name": "C5",
          "midi": 72,
          "time": 17.47395833333335,
          "velocity": 0.5590551181102362,
          "duration": 0.10416666666666785
        },
        {
          "name": "C6",
          "midi": 84,
          "time": 17.48958333333335,
          "velocity": 0.47244094488188976,
          "duration": 0.07291666666666785
        },
        {
          "name": "A#4",
          "midi": 70,
          "time": 17.651041666666682,
          "velocity": 0.47244094488188976,
          "duration": 0.078125
        },
        {
          "name": "F4",
          "midi": 65,
          "time": 17.656250000000014,
          "velocity": 0.5511811023622047,
          "duration": 0.0625
        },
        {
          "name": "D5",
          "midi": 74,
          "time": 17.656250000000014,
          "velocity": 0.5826771653543307,
          "duration": 0.078125
        },
        {
          "name": "A#3",
          "midi": 58,
          "time": 17.661458333333346,
          "velocity": 0.6614173228346457,
          "duration": 0.09375
        },
        {
          "name": "D5",
          "midi": 74,
          "time": 17.661458333333346,
          "velocity": 0.6614173228346457,
          "duration": 0.078125
        },
        {
          "name": "D6",
          "midi": 86,
          "time": 17.677083333333346,
          "velocity": 0.5196850393700787,
          "duration": 0.04166666666666785
        },
        {
          "name": "A#1",
          "midi": 34,
          "time": 17.677083333333346,
          "velocity": 0.4566929133858268,
          "duration": 0.520833333333325
        },
        {
          "name": "A#4",
          "midi": 70,
          "time": 18.02604166666668,
          "velocity": 0.4566929133858268,
          "duration": 0.0833333333333286
        },
        {
          "name": "F4",
          "midi": 65,
          "time": 18.03125000000001,
          "velocity": 0.5118110236220472,
          "duration": 0.0729166666666643
        },
        {
          "name": "D5",
          "midi": 74,
          "time": 18.03125000000001,
          "velocity": 0.5118110236220472,
          "duration": 0.0572916666666643
        },
        {
          "name": "G5",
          "midi": 79,
          "time": 18.036458333333343,
          "velocity": 0.6614173228346457,
          "duration": 0.10937499999999645
        },
        {
          "name": "A#3",
          "midi": 58,
          "time": 18.036458333333343,
          "velocity": 0.6456692913385826,
          "duration": 0.0885416666666643
        },
        {
          "name": "G6",
          "midi": 91,
          "time": 18.052083333333343,
          "velocity": 0.5275590551181102,
          "duration": 0.0572916666666643
        },
        {
          "name": "E4",
          "midi": 64,
          "time": 18.40104166666667,
          "velocity": 0.5118110236220472,
          "duration": 0.0625
        },
        {
          "name": "C5",
          "midi": 72,
          "time": 18.406250000000004,
          "velocity": 0.5826771653543307,
          "duration": 0.0625
        },
        {
          "name": "G4",
          "midi": 67,
          "time": 18.406250000000004,
          "velocity": 0.4566929133858268,
          "duration": 0.046875
        },
        {
          "name": "C4",
          "midi": 60,
          "time": 18.411458333333336,
          "velocity": 0.6456692913385826,
          "duration": 0.09375000000000355
        },
        {
          "name": "E5",
          "midi": 76,
          "time": 18.411458333333336,
          "velocity": 0.6614173228346457,
          "duration": 0.0833333333333357
        },
        {
          "name": "C2",
          "midi": 36,
          "time": 18.427083333333336,
          "velocity": 0.5196850393700787,
          "duration": 0.09375000000000355
        },
        {
          "name": "E6",
          "midi": 88,
          "time": 18.427083333333336,
          "velocity": 0.5433070866141733,
          "duration": 0.0520833333333357
        },
        {
          "name": "A4",
          "midi": 69,
          "time": 18.77604166666667,
          "velocity": 0.2677165354330709,
          "duration": 0.28125
        },
        {
          "name": "C5",
          "midi": 72,
          "time": 18.781250000000004,
          "velocity": 0.25196850393700787,
          "duration": 0.5416666666666679
        },
        {
          "name": "F4",
          "midi": 65,
          "time": 18.781250000000004,
          "velocity": 0.1732283464566929,
          "duration": 0.5052083333333357
        },
        {
          "name": "F3",
          "midi": 53,
          "time": 18.786458333333336,
          "velocity": 0.5354330708661418,
          "duration": 0.37500000000000355
        },
        {
          "name": "C4",
          "midi": 60,
          "time": 18.786458333333336,
          "velocity": 0.5354330708661418,
          "duration": 0.3020833333333357
        },
        {
          "name": "A4",
          "midi": 69,
          "time": 18.786458333333336,
          "velocity": 0.5590551181102362,
          "duration": 0.5625000000000036
        },
        {
          "name": "F5",
          "midi": 77,
          "time": 18.786458333333336,
          "velocity": 0.5590551181102362,
          "duration": 0.22916666666666785
        },
        {
          "name": "F1",
          "midi": 29,
          "time": 18.802083333333336,
          "velocity": 0.5748031496062992,
          "duration": 0.7500000000000036
        },
        {
          "name": "F6",
          "midi": 89,
          "time": 18.802083333333336,
          "velocity": 0.4881889763779528,
          "duration": 0.4895833333333357
        },
        {
          "name": "C4",
          "midi": 60,
          "time": 19.53645833333334,
          "velocity": 0.6062992125984252,
          "duration": 0.36458333333333215
        },
        {
          "name": "F4",
          "midi": 65,
          "time": 19.91145833333334,
          "velocity": 0.6456692913385826,
          "duration": 0.15625
        },
        {
          "name": "A3",
          "midi": 57,
          "time": 19.91145833333334,
          "velocity": 0.5354330708661418,
          "duration": 0.8645833333333357
        },
        {
          "name": "F3",
          "midi": 53,
          "time": 19.91145833333334,
          "velocity": 0.5354330708661418,
          "duration": 0.8697916666666679
        },
        {
          "name": "F4",
          "midi": 65,
          "time": 19.92708333333334,
          "velocity": 0.7480314960629921,
          "duration": 0.24479166666666785
        },
        {
          "name": "F2",
          "midi": 41,
          "time": 19.92708333333334,
          "velocity": 0.4881889763779528,
          "duration": 1.1093750000000036
        },
        {
          "name": "F4",
          "midi": 65,
          "time": 20.08854166666667,
          "velocity": 0.31496062992125984,
          "duration": 0.11979166666666785
        },
        {
          "name": "G4",
          "midi": 67,
          "time": 20.11458333333334,
          "velocity": 0.6456692913385826,
          "duration": 0.09895833333333215
        },
        {
          "name": "C5",
          "midi": 72,
          "time": 20.27604166666667,
          "velocity": 0.3779527559055118,
          "duration": 0.0833333333333357
        },
        {
          "name": "F4",
          "midi": 65,
          "time": 20.28645833333334,
          "velocity": 0.6614173228346457,
          "duration": 0.2604166666666643
        },
        {
          "name": "A4",
          "midi": 69,
          "time": 20.30208333333334,
          "velocity": 0.6141732283464567,
          "duration": 0.078125
        },
        {
          "name": "A4",
          "midi": 69,
          "time": 20.46354166666667,
          "velocity": 0.4251968503937008,
          "duration": 0.078125
        },
        {
          "name": "C5",
          "midi": 72,
          "time": 20.48958333333334,
          "velocity": 0.6614173228346457,
          "duration": 0.08333333333333215
        },
        {
          "name": "C5",
          "midi": 72,
          "time": 20.65104166666667,
          "velocity": 0.3779527559055118,
          "duration": 0.0833333333333357
        },
        {
          "name": "F4",
          "midi": 65,
          "time": 20.66145833333334,
          "velocity": 0.6614173228346457,
          "duration": 0.2291666666666714
        },
        {
          "name": "A4",
          "midi": 69,
          "time": 20.67708333333334,
          "velocity": 0.5669291338582677,
          "duration": 0.07291666666666785
        },
        {
          "name": "A4",
          "midi": 69,
          "time": 20.838541666666675,
          "velocity": 0.47244094488188976,
          "duration": 0.05729166666666785
        },
        {
          "name": "F4",
          "midi": 65,
          "time": 20.864583333333343,
          "velocity": 0.6141732283464567,
          "duration": 0.07291666666666785
        },
        {
          "name": "C3",
          "midi": 48,
          "time": 21.036458333333343,
          "velocity": 0.5354330708661418,
          "duration": 0.6822916666666714
        },
        {
          "name": "E4",
          "midi": 64,
          "time": 21.036458333333343,
          "velocity": 0.6456692913385826,
          "duration": 0.28125
        },
        {
          "name": "G3",
          "midi": 55,
          "time": 21.036458333333343,
          "velocity": 0.5354330708661418,
          "duration": 0.5000000000000036
        },
        {
          "name": "C3",
          "midi": 48,
          "time": 21.052083333333343,
          "velocity": 0.4566929133858268,
          "duration": 1.0000000000000107
        },
        {
          "name": "E4",
          "midi": 64,
          "time": 21.213541666666675,
          "velocity": 0.4251968503937008,
          "duration": 0.13541666666666785
        },
        {
          "name": "E4",
          "midi": 64,
          "time": 21.239583333333343,
          "velocity": 0.6614173228346457,
          "duration": 0.265625
        },
        {
          "name": "C5",
          "midi": 72,
          "time": 21.401041666666675,
          "velocity": 0.5511811023622047,
          "duration": 0.1145833333333357
        },
        {
          "name": "G4",
          "midi": 67,
          "time": 21.427083333333343,
          "velocity": 0.7007874015748031,
          "duration": 0.0989583333333357
        },
        {
          "name": "G4",
          "midi": 67,
          "time": 21.58854166666668,
          "velocity": 0.5118110236220472,
          "duration": 0.08854166666666785
        },
        {
          "name": "C5",
          "midi": 72,
          "time": 21.614583333333346,
          "velocity": 0.5511811023622047,
          "duration": 0.1145833333333357
        },
        {
          "name": "C5",
          "midi": 72,
          "time": 21.776041666666682,
          "velocity": 0.5118110236220472,
          "duration": 0.1145833333333357
        },
        {
          "name": "E4",
          "midi": 64,
          "time": 21.78645833333335,
          "velocity": 0.6614173228346457,
          "duration": 0.2760416666666714
        },
        {
          "name": "G4",
          "midi": 67,
          "time": 21.80208333333335,
          "velocity": 0.7007874015748031,
          "duration": 0.10416666666666785
        },
        {
          "name": "G4",
          "midi": 67,
          "time": 21.963541666666686,
          "velocity": 0.3779527559055118,
          "duration": 0.0989583333333357
        },
        {
          "name": "E4",
          "midi": 64,
          "time": 21.989583333333353,
          "velocity": 0.5511811023622047,
          "duration": 0.109375
        },
        {
          "name": "F4",
          "midi": 65,
          "time": 22.151041666666686,
          "velocity": 0.4566929133858268,
          "duration": 0.11979166666666785
        },
        {
          "name": "F4",
          "midi": 65,
          "time": 22.161458333333353,
          "velocity": 0.6456692913385826,
          "duration": 0.11458333333333215
        },
        {
          "name": "D3",
          "midi": 50,
          "time": 22.161458333333353,
          "velocity": 0.5354330708661418,
          "duration": 0.35937499999999645
        },
        {
          "name": "A3",
          "midi": 57,
          "time": 22.161458333333353,
          "velocity": 0.5354330708661418,
          "duration": 0.27083333333333215
        },
        {
          "name": "D3",
          "midi": 50,
          "time": 22.177083333333353,
          "velocity": 0.5196850393700787,
          "duration": 0.35416666666666075
        },
        {
          "name": "F4",
          "midi": 65,
          "time": 22.177083333333353,
          "velocity": 0.7480314960629921,
          "duration": 0.27083333333333215
        },
        {
          "name": "C5",
          "midi": 72,
          "time": 22.338541666666686,
          "velocity": 0.4251968503937008,
          "duration": 0.13020833333333215
        },
        {
          "name": "C5",
          "midi": 72,
          "time": 22.364583333333353,
          "velocity": 0.6614173228346457,
          "duration": 0.1197916666666643
        },
        {
          "name": "E4",
          "midi": 64,
          "time": 22.526041666666682,
          "velocity": 0.4251968503937008,
          "duration": 0.1197916666666643
        },
        {
          "name": "E4",
          "midi": 64,
          "time": 22.536458333333346,
          "velocity": 0.6062992125984252,
          "duration": 0.13541666666666785
        },
        {
          "name": "G2",
          "midi": 43,
          "time": 22.536458333333346,
          "velocity": 0.5354330708661418,
          "duration": 0.35937500000000355
        },
        {
          "name": "G3",
          "midi": 55,
          "time": 22.536458333333346,
          "velocity": 0.5354330708661418,
          "duration": 0.5572916666666714
        },
        {
          "name": "G2",
          "midi": 43,
          "time": 22.552083333333346,
          "velocity": 0.4881889763779528,
          "duration": 0.6458333333333393
        },
        {
          "name": "E4",
          "midi": 64,
          "time": 22.552083333333346,
          "velocity": 0.6141732283464567,
          "duration": 0.3177083333333357
        },
        {
          "name": "C5",
          "midi": 72,
          "time": 22.713541666666682,
          "velocity": 0.4251968503937008,
          "duration": 0.11979166666666785
        },
        {
          "name": "C5",
          "midi": 72,
          "time": 22.73958333333335,
          "velocity": 0.5511811023622047,
          "duration": 0.125
        },
        {
          "name": "D4",
          "midi": 62,
          "time": 22.901041666666682,
          "velocity": 0.4251968503937008,
          "duration": 0.11979166666666785
        },
        {
          "name": "D4",
          "midi": 62,
          "time": 22.91145833333335,
          "velocity": 0.6614173228346457,
          "duration": 0.11979166666666785
        },
        {
          "name": "D4",
          "midi": 62,
          "time": 22.92708333333335,
          "velocity": 0.5669291338582677,
          "duration": 0.2708333333333357
        },
        {
          "name": "G1",
          "midi": 31,
          "time": 22.92708333333335,
          "velocity": 0.4566929133858268,
          "duration": 0.328125
        },
        {
          "name": "B4",
          "midi": 71,
          "time": 23.088541666666686,
          "velocity": 0.47244094488188976,
          "duration": 0.09895833333333215
        },
        {
          "name": "B4",
          "midi": 71,
          "time": 23.11458333333335,
          "velocity": 0.6614173228346457,
          "duration": 0.07291666666666785
        },
        {
          "name": "E4",
          "midi": 64,
          "time": 23.276041666666682,
          "velocity": 0.47244094488188976,
          "duration": 0.15104166666666785
        },
        {
          "name": "C3",
          "midi": 48,
          "time": 23.28645833333335,
          "velocity": 0.5354330708661418,
          "duration": 0.3958333333333357
        },
        {
          "name": "C4",
          "midi": 60,
          "time": 23.28645833333335,
          "velocity": 0.5354330708661418,
          "duration": 0.35416666666666785
        },
        {
          "name": "E3",
          "midi": 52,
          "time": 23.28645833333335,
          "velocity": 0.5354330708661418,
          "duration": 0.28125
        },
        {
          "name": "E4",
          "midi": 64,
          "time": 23.30208333333335,
          "velocity": 0.6614173228346457,
          "duration": 0.13020833333333215
        },
        {
          "name": "C2",
          "midi": 36,
          "time": 23.30208333333335,
          "velocity": 0.4566929133858268,
          "duration": 0.8020833333333357
        },
        {
          "name": "G4",
          "midi": 67,
          "time": 23.463541666666682,
          "velocity": 0.5511811023622047,
          "duration": 0.08854166666666785
        },
        {
          "name": "G4",
          "midi": 67,
          "time": 23.48958333333335,
          "velocity": 0.6614173228346457,
          "duration": 0.07291666666666785
        },
        {
          "name": "C5",
          "midi": 72,
          "time": 23.651041666666686,
          "velocity": 0.48031496062992124,
          "duration": 0.125
        },
        {
          "name": "C5",
          "midi": 72,
          "time": 23.677083333333353,
          "velocity": 0.5669291338582677,
          "duration": 0.1041666666666643
        },
        {
          "name": "D5",
          "midi": 74,
          "time": 23.838541666666686,
          "velocity": 0.4251968503937008,
          "duration": 0.109375
        },
        {
          "name": "D5",
          "midi": 74,
          "time": 23.864583333333353,
          "velocity": 0.6614173228346457,
          "duration": 0.09895833333333215
        },
        {
          "name": "E5",
          "midi": 76,
          "time": 24.026041666666686,
          "velocity": 0.4566929133858268,
          "duration": 0.11979166666666785
        },
        {
          "name": "G4",
          "midi": 67,
          "time": 24.036458333333353,
          "velocity": 0.6614173228346457,
          "duration": 0.35416666666666785
        },
        {
          "name": "E5",
          "midi": 76,
          "time": 24.052083333333353,
          "velocity": 0.6141732283464567,
          "duration": 0.09895833333333215
        },
        {
          "name": "C5",
          "midi": 72,
          "time": 24.213541666666686,
          "velocity": 0.3937007874015748,
          "duration": 0.078125
        },
        {
          "name": "C5",
          "midi": 72,
          "time": 24.239583333333353,
          "velocity": 0.3464566929133858,
          "duration": 0.09375
        },
        {
          "name": "F5",
          "midi": 77,
          "time": 24.40104166666669,
          "velocity": 0.5118110236220472,
          "duration": 0.140625
        },
        {
          "name": "C4",
          "midi": 60,
          "time": 24.411458333333357,
          "velocity": 0.6062992125984252,
          "duration": 1.125
        },
        {
          "name": "F3",
          "midi": 53,
          "time": 24.411458333333357,
          "velocity": 0.5354330708661418,
          "duration": 0.42187499999999645
        },
        {
          "name": "A4",
          "midi": 69,
          "time": 24.411458333333357,
          "velocity": 0.6614173228346457,
          "duration": 0.2291666666666643
        },
        {
          "name": "A4",
          "midi": 69,
          "time": 24.43229166666669,
          "velocity": 0.6614173228346457,
          "duration": 0.2760416666666643
        },
        {
          "name": "F2",
          "midi": 41,
          "time": 24.43229166666669,
          "velocity": 0.4251968503937008,
          "duration": 0.38020833333333215
        },
        {
          "name": "A4",
          "midi": 69,
          "time": 24.58854166666669,
          "velocity": 0.3464566929133858,
          "duration": 0.20312499999999645
        },
        {
          "name": "E5",
          "midi": 76,
          "time": 24.776041666666686,
          "velocity": 0.5118110236220472,
          "duration": 0.140625
        },
        {
          "name": "G4",
          "midi": 67,
          "time": 24.786458333333353,
          "velocity": 0.6614173228346457,
          "duration": 0.125
        },
        {
          "name": "E3",
          "midi": 52,
          "time": 24.786458333333353,
          "velocity": 0.5590551181102362,
          "duration": 0.34375
        },
        {
          "name": "G4",
          "midi": 67,
          "time": 24.802083333333353,
          "velocity": 0.7007874015748031,
          "duration": 0.28125
        },
        {
          "name": "E2",
          "midi": 40,
          "time": 24.802083333333353,
          "velocity": 0.5748031496062992,
          "duration": 0.375
        },
        {
          "name": "G4",
          "midi": 67,
          "time": 24.963541666666686,
          "velocity": 0.3464566929133858,
          "duration": 0.1875
        },
        {
          "name": "C5",
          "midi": 72,
          "time": 24.989583333333353,
          "velocity": 0.5511811023622047,
          "duration": 0.08333333333333215
        },
        {
          "name": "D5",
          "midi": 74,
          "time": 25.151041666666686,
          "velocity": 0.5511811023622047,
          "duration": 0.1458333333333357
        },
        {
          "name": "F4",
          "midi": 65,
          "time": 25.161458333333353,
          "velocity": 0.6614173228346457,
          "duration": 0.140625
        },
        {
          "name": "D3",
          "midi": 50,
          "time": 25.161458333333353,
          "velocity": 0.5354330708661418,
          "duration": 0.3125
        },
        {
          "name": "F4",
          "midi": 65,
          "time": 25.177083333333353,
          "velocity": 0.5511811023622047,
          "duration": 0.171875
        },
        {
          "name": "D2",
          "midi": 38,
          "time": 25.177083333333353,
          "velocity": 0.4566929133858268,
          "duration": 0.32291666666666785
        },
        {
          "name": "F4",
          "midi": 65,
          "time": 25.338541666666686,
          "velocity": 0.2677165354330709,
          "duration": 0.10416666666666785
        },
        {
          "name": "C5",
          "midi": 72,
          "time": 25.52604166666669,
          "velocity": 0.47244094488188976,
          "duration": 0.125
        },
        {
          "name": "A3",
          "midi": 57,
          "time": 25.536458333333357,
          "velocity": 0.5354330708661418,
          "duration": 0.8333333333333393
        },
        {
          "name": "C5",
          "midi": 72,
          "time": 25.536458333333357,
          "velocity": 0.6614173228346457,
          "duration": 0.1822916666666643
        },
        {
          "name": "A2",
          "midi": 45,
          "time": 25.552083333333357,
          "velocity": 0.4881889763779528,
          "duration": 0.359375
        },
        {
          "name": "C5",
          "midi": 72,
          "time": 25.552083333333357,
          "velocity": 0.7007874015748031,
          "duration": 0.5468750000000036
        },
        {
          "name": "E4",
          "midi": 64,
          "time": 25.71354166666669,
          "velocity": 0.4251968503937008,
          "duration": 0.125
        },
        {
          "name": "A4",
          "midi": 69,
          "time": 25.90104166666669,
          "velocity": 0.4566929133858268,
          "duration": 0.09375000000000355
        },
        {
          "name": "C4",
          "midi": 60,
          "time": 25.911458333333357,
          "velocity": 0.5354330708661418,
          "duration": 0.1979166666666714
        },
        {
          "name": "A1",
          "midi": 33,
          "time": 25.927083333333357,
          "velocity": 0.4566929133858268,
          "duration": 0.7395833333333428
        },
        {
          "name": "E4",
          "midi": 64,
          "time": 25.927083333333357,
          "velocity": 0.6614173228346457,
          "duration": 0.22395833333333925
        },
        {
          "name": "C5",
          "midi": 72,
          "time": 26.088541666666693,
          "velocity": 0.47244094488188976,
          "duration": 0.1302083333333357
        },
        {
          "name": "A4",
          "midi": 69,
          "time": 26.276041666666693,
          "velocity": 0.28346456692913385,
          "duration": 0.0833333333333357
        },
        {
          "name": "A2",
          "midi": 45,
          "time": 26.28645833333336,
          "velocity": 0.5354330708661418,
          "duration": 0.2291666666666714
        },
        {
          "name": "C4",
          "midi": 60,
          "time": 26.28645833333336,
          "velocity": 0.6456692913385826,
          "duration": 0.10416666666666785
        },
        {
          "name": "A4",
          "midi": 69,
          "time": 26.30208333333336,
          "velocity": 0.5511811023622047,
          "duration": 0.0833333333333357
        },
        {
          "name": "E4",
          "midi": 64,
          "time": 26.463541666666696,
          "velocity": 0.4566929133858268,
          "duration": 0.09375000000000355
        },
        {
          "name": "C4",
          "midi": 60,
          "time": 26.473958333333364,
          "velocity": 0.5354330708661418,
          "duration": 0.09375000000000355
        },
        {
          "name": "E4",
          "midi": 64,
          "time": 26.489583333333364,
          "velocity": 0.5118110236220472,
          "duration": 0.09375000000000355
        },
        {
          "name": "D4",
          "midi": 62,
          "time": 26.6510416666667,
          "velocity": 0.5118110236220472,
          "duration": 0.09375
        },
        {
          "name": "A#2",
          "midi": 46,
          "time": 26.661458333333368,
          "velocity": 0.5354330708661418,
          "duration": 0.4166666666666643
        },
        {
          "name": "D4",
          "midi": 62,
          "time": 26.661458333333368,
          "velocity": 0.6614173228346457,
          "duration": 0.1041666666666643
        },
        {
          "name": "A#3",
          "midi": 58,
          "time": 26.661458333333368,
          "velocity": 0.5354330708661418,
          "duration": 0.38541666666666785
        },
        {
          "name": "F3",
          "midi": 53,
          "time": 26.661458333333368,
          "velocity": 0.5354330708661418,
          "duration": 0.41145833333333215
        },
        {
          "name": "F4",
          "midi": 65,
          "time": 26.677083333333368,
          "velocity": 0.6614173228346457,
          "duration": 0.1510416666666643
        },
        {
          "name": "A#1",
          "midi": 34,
          "time": 26.677083333333368,
          "velocity": 0.4251968503937008,
          "duration": 0.7291666666666607
        },
        {
          "name": "A#4",
          "midi": 70,
          "time": 26.8385416666667,
          "velocity": 0.3464566929133858,
          "duration": 0.11979166666666785
        },
        {
          "name": "F4",
          "midi": 65,
          "time": 27.0260416666667,
          "velocity": 0.5118110236220472,
          "duration": 0.078125
        },
        {
          "name": "G4",
          "midi": 67,
          "time": 27.036458333333368,
          "velocity": 0.6614173228346457,
          "duration": 0.1041666666666643
        },
        {
          "name": "A#4",
          "midi": 70,
          "time": 27.052083333333368,
          "velocity": 0.6614173228346457,
          "duration": 0.15624999999999645
        },
        {
          "name": "A#4",
          "midi": 70,
          "time": 27.213541666666696,
          "velocity": 0.3779527559055118,
          "duration": 0.11458333333333215
        },
        {
          "name": "E4",
          "midi": 64,
          "time": 27.401041666666696,
          "velocity": 0.4566929133858268,
          "duration": 0.09895833333333215
        },
        {
          "name": "C3",
          "midi": 48,
          "time": 27.41145833333336,
          "velocity": 0.6614173228346457,
          "duration": 0.07291666666666785
        },
        {
          "name": "A#3",
          "midi": 58,
          "time": 27.41145833333336,
          "velocity": 0.5590551181102362,
          "duration": 0.0833333333333357
        },
        {
          "name": "E4",
          "midi": 64,
          "time": 27.41145833333336,
          "velocity": 0.6614173228346457,
          "duration": 0.0989583333333357
        },
        {
          "name": "C4",
          "midi": 60,
          "time": 27.41145833333336,
          "velocity": 0.5590551181102362,
          "duration": 0.0833333333333357
        },
        {
          "name": "G4",
          "midi": 67,
          "time": 27.42708333333336,
          "velocity": 0.7480314960629921,
          "duration": 0.1041666666666714
        },
        {
          "name": "C2",
          "midi": 36,
          "time": 27.42708333333336,
          "velocity": 0.5196850393700787,
          "duration": 0.09375000000000355
        },
        {
          "name": "G4",
          "midi": 67,
          "time": 27.5885416666667,
          "velocity": 0.4566929133858268,
          "duration": 0.078125
        },
        {
          "name": "F4",
          "midi": 65,
          "time": 27.7760416666667,
          "velocity": 0.3464566929133858,
          "duration": 0.21354166666666785
        },
        {
          "name": "C4",
          "midi": 60,
          "time": 27.7760416666667,
          "velocity": 0.2755905511811024,
          "duration": 0.21354166666666785
        },
        {
          "name": "F4",
          "midi": 65,
          "time": 27.786458333333368,
          "velocity": 0.6614173228346457,
          "duration": 0.453125
        },
        {
          "name": "C3",
          "midi": 48,
          "time": 27.786458333333368,
          "velocity": 0.5354330708661418,
          "duration": 0.27604166666666785
        },
        {
          "name": "F2",
          "midi": 41,
          "time": 27.786458333333368,
          "velocity": 0.5354330708661418,
          "duration": 0.24479166666666785
        },
        {
          "name": "C4",
          "midi": 60,
          "time": 27.786458333333368,
          "velocity": 0.5590551181102362,
          "duration": 0.43229166666666785
        },
        {
          "name": "A3",
          "midi": 57,
          "time": 27.786458333333368,
          "velocity": 0.5354330708661418,
          "duration": 0.171875
        },
        {
          "name": "F3",
          "midi": 53,
          "time": 27.786458333333368,
          "velocity": 0.5354330708661418,
          "duration": 0.25
        },
        {
          "name": "A4",
          "midi": 69,
          "time": 27.802083333333368,
          "velocity": 0.7480314960629921,
          "duration": 0.5572916666666679
        },
        {
          "name": "F2",
          "midi": 41,
          "time": 27.802083333333368,
          "velocity": 0.5196850393700787,
          "duration": 0.7135416666666679
        },
        {
          "name": "C4",
          "midi": 60,
          "time": 28.536458333333368,
          "velocity": 0.6614173228346457,
          "duration": 0.32291666666666785
        },
        {
          "name": "C5",
          "midi": 72,
          "time": 28.901041666666703,
          "velocity": 0.5826771653543307,
          "duration": 0.10416666666666075
        },
        {
          "name": "F4",
          "midi": 65,
          "time": 28.901041666666703,
          "velocity": 0.5826771653543307,
          "duration": 0.07812499999999645
        },
        {
          "name": "A4",
          "midi": 69,
          "time": 28.906250000000036,
          "velocity": 0.5826771653543307,
          "duration": 0.0729166666666643
        },
        {
          "name": "F2",
          "midi": 41,
          "time": 28.911458333333368,
          "velocity": 0.5354330708661418,
          "duration": 0.9114583333333179
        },
        {
          "name": "C3",
          "midi": 48,
          "time": 28.911458333333368,
          "velocity": 0.5354330708661418,
          "duration": 1.0364583333333144
        },
        {
          "name": "A3",
          "midi": 57,
          "time": 28.911458333333368,
          "velocity": 0.6456692913385826,
          "duration": 0.0885416666666643
        },
        {
          "name": "F4",
          "midi": 65,
          "time": 28.911458333333368,
          "velocity": 0.6614173228346457,
          "duration": 0.09374999999999645
        },
        {
          "name": "F3",
          "midi": 53,
          "time": 28.911458333333368,
          "velocity": 0.5354330708661418,
          "duration": 0.9166666666666501
        },
        {
          "name": "F1",
          "midi": 29,
          "time": 28.927083333333368,
          "velocity": 0.5748031496062992,
          "duration": 0.7656249999999858
        },
        {
          "name": "F4",
          "midi": 65,
          "time": 29.276041666666696,
          "velocity": 0.5511811023622047,
          "duration": 0.07812499999999645
        },
        {
          "name": "C5",
          "midi": 72,
          "time": 29.276041666666696,
          "velocity": 0.5511811023622047,
          "duration": 0.0833333333333286
        },
        {
          "name": "A4",
          "midi": 69,
          "time": 29.28125000000003,
          "velocity": 0.3779527559055118,
          "duration": 0.0572916666666643
        },
        {
          "name": "F4",
          "midi": 65,
          "time": 29.28645833333336,
          "velocity": 0.6614173228346457,
          "duration": 0.18749999999999645
        },
        {
          "name": "A3",
          "midi": 57,
          "time": 29.28645833333336,
          "velocity": 0.6614173228346457,
          "duration": 0.4635416666666572
        },
        {
          "name": "G4",
          "midi": 67,
          "time": 29.473958333333357,
          "velocity": 0.6614173228346457,
          "duration": 0.16145833333333215
        },
        {
          "name": "A4",
          "midi": 69,
          "time": 29.65104166666669,
          "velocity": 0.4251968503937008,
          "duration": 0.0677083333333286
        },
        {
          "name": "F4",
          "midi": 65,
          "time": 29.65104166666669,
          "velocity": 0.4251968503937008,
          "duration": 0.06249999999999645
        },
        {
          "name": "C5",
          "midi": 72,
          "time": 29.65625000000002,
          "velocity": 0.47244094488188976,
          "duration": 0.0677083333333286
        },
        {
          "name": "F4",
          "midi": 65,
          "time": 29.661458333333353,
          "velocity": 0.6062992125984252,
          "duration": 0.11458333333333215
        },
        {
          "name": "F2",
          "midi": 41,
          "time": 29.677083333333353,
          "velocity": 0.5748031496062992,
          "duration": 0.38020833333332504
        },
        {
          "name": "E4",
          "midi": 64,
          "time": 29.84895833333335,
          "velocity": 0.6456692913385826,
          "duration": 0.078125
        },
        {
          "name": "F1",
          "midi": 29,
          "time": 29.86458333333335,
          "velocity": 0.4566929133858268,
          "duration": 0.16145833333333215
        },
        {
          "name": "A#4",
          "midi": 70,
          "time": 30.026041666666682,
          "velocity": 0.5118110236220472,
          "duration": 0.07812499999999645
        },
        {
          "name": "F4",
          "midi": 65,
          "time": 30.026041666666682,
          "velocity": 0.6220472440944882,
          "duration": 0.0572916666666643
        },
        {
          "name": "D5",
          "midi": 74,
          "time": 30.031250000000014,
          "velocity": 0.6220472440944882,
          "duration": 0.06770833333333215
        },
        {
          "name": "A#2",
          "midi": 46,
          "time": 30.036458333333346,
          "velocity": 0.5354330708661418,
          "duration": 0.880208333333325
        },
        {
          "name": "A#3",
          "midi": 58,
          "time": 30.036458333333346,
          "velocity": 0.6456692913385826,
          "duration": 0.07812499999999645
        },
        {
          "name": "D4",
          "midi": 62,
          "time": 30.036458333333346,
          "velocity": 0.6614173228346457,
          "duration": 0.0729166666666643
        },
        {
          "name": "F3",
          "midi": 53,
          "time": 30.036458333333346,
          "velocity": 0.5354330708661418,
          "duration": 0.8385416666666572
        },
        {
          "name": "A#1",
          "midi": 34,
          "time": 30.052083333333346,
          "velocity": 0.5196850393700787,
          "duration": 0.7031249999999893
        },
        {
          "name": "A#4",
          "midi": 70,
          "time": 30.401041666666675,
          "velocity": 0.4251968503937008,
          "duration": 0.09374999999999645
        },
        {
          "name": "F4",
          "midi": 65,
          "time": 30.401041666666675,
          "velocity": 0.47244094488188976,
          "duration": 0.06249999999999645
        },
        {
          "name": "D5",
          "midi": 74,
          "time": 30.406250000000007,
          "velocity": 0.5118110236220472,
          "duration": 0.0729166666666643
        },
        {
          "name": "A#3",
          "midi": 58,
          "time": 30.41145833333334,
          "velocity": 0.6456692913385826,
          "duration": 0.078125
        },
        {
          "name": "D4",
          "midi": 62,
          "time": 30.41145833333334,
          "velocity": 0.6614173228346457,
          "duration": 0.0885416666666643
        },
        {
          "name": "A#4",
          "midi": 70,
          "time": 30.776041666666668,
          "velocity": 0.47244094488188976,
          "duration": 0.0833333333333357
        },
        {
          "name": "F4",
          "midi": 65,
          "time": 30.776041666666668,
          "velocity": 0.5118110236220472,
          "duration": 0.05729166666666785
        },
        {
          "name": "D5",
          "midi": 74,
          "time": 30.776041666666668,
          "velocity": 0.4566929133858268,
          "duration": 0.05729166666666785
        },
        {
          "name": "D4",
          "midi": 62,
          "time": 30.786458333333336,
          "velocity": 0.6614173228346457,
          "duration": 0.0833333333333357
        },
        {
          "name": "A#3",
          "midi": 58,
          "time": 30.786458333333336,
          "velocity": 0.6062992125984252,
          "duration": 0.07291666666666785
        },
        {
          "name": "A1",
          "midi": 33,
          "time": 30.802083333333336,
          "velocity": 0.5748031496062992,
          "duration": 0.35416666666666785
        },
        {
          "name": "G4",
          "midi": 67,
          "time": 31.15104166666667,
          "velocity": 0.6220472440944882,
          "duration": 0.06770833333333215
        },
        {
          "name": "B4",
          "midi": 71,
          "time": 31.15104166666667,
          "velocity": 0.6220472440944882,
          "duration": 0.05208333333333215
        },
        {
          "name": "D5",
          "midi": 74,
          "time": 31.15104166666667,
          "velocity": 0.5826771653543307,
          "duration": 0.08333333333333215
        },
        {
          "name": "G2",
          "midi": 43,
          "time": 31.161458333333336,
          "velocity": 0.5354330708661418,
          "duration": 0.9114583333333286
        },
        {
          "name": "G3",
          "midi": 55,
          "time": 31.161458333333336,
          "velocity": 0.5354330708661418,
          "duration": 0.9270833333333286
        },
        {
          "name": "D3",
          "midi": 50,
          "time": 31.161458333333336,
          "velocity": 0.5354330708661418,
          "duration": 0.7239583333333321
        },
        {
          "name": "G4",
          "midi": 67,
          "time": 31.161458333333336,
          "velocity": 0.6062992125984252,
          "duration": 0.08333333333333215
        },
        {
          "name": "B3",
          "midi": 59,
          "time": 31.161458333333336,
          "velocity": 0.6614173228346457,
          "duration": 0.078125
        },
        {
          "name": "D4",
          "midi": 62,
          "time": 31.161458333333336,
          "velocity": 0.6062992125984252,
          "duration": 0.04166666666666785
        },
        {
          "name": "G1",
          "midi": 31,
          "time": 31.177083333333336,
          "velocity": 0.4566929133858268,
          "duration": 0.546875
        },
        {
          "name": "G4",
          "midi": 67,
          "time": 31.526041666666668,
          "velocity": 0.5511811023622047,
          "duration": 0.07291666666666785
        },
        {
          "name": "D5",
          "midi": 74,
          "time": 31.526041666666668,
          "velocity": 0.47244094488188976,
          "duration": 0.078125
        },
        {
          "name": "B4",
          "midi": 71,
          "time": 31.526041666666668,
          "velocity": 0.3937007874015748,
          "duration": 0.05729166666666785
        },
        {
          "name": "G4",
          "midi": 67,
          "time": 31.536458333333336,
          "velocity": 0.6614173228346457,
          "duration": 0.17708333333333215
        },
        {
          "name": "B3",
          "midi": 59,
          "time": 31.536458333333336,
          "velocity": 0.6456692913385826,
          "duration": 0.42187499999999645
        },
        {
          "name": "D4",
          "midi": 62,
          "time": 31.536458333333336,
          "velocity": 0.6456692913385826,
          "duration": 0.125
        },
        {
          "name": "A4",
          "midi": 69,
          "time": 31.723958333333336,
          "velocity": 0.5590551181102362,
          "duration": 0.15625
        },
        {
          "name": "D2",
          "midi": 38,
          "time": 31.739583333333336,
          "velocity": 0.4881889763779528,
          "duration": 0.140625
        },
        {
          "name": "B4",
          "midi": 71,
          "time": 31.901041666666668,
          "velocity": 0.5511811023622047,
          "duration": 0.046875
        },
        {
          "name": "G4",
          "midi": 67,
          "time": 31.901041666666668,
          "velocity": 0.5511811023622047,
          "duration": 0.05208333333333215
        },
        {
          "name": "D5",
          "midi": 74,
          "time": 31.901041666666668,
          "velocity": 0.47244094488188976,
          "duration": 0.06249999999999645
        },
        {
          "name": "G4",
          "midi": 67,
          "time": 31.911458333333336,
          "velocity": 0.6614173228346457,
          "duration": 0.1406249999999929
        },
        {
          "name": "G2",
          "midi": 43,
          "time": 31.927083333333336,
          "velocity": 0.5196850393700787,
          "duration": 0.3333333333333286
        },
        {
          "name": "F4",
          "midi": 65,
          "time": 32.09895833333333,
          "velocity": 0.6456692913385826,
          "duration": 0.171875
        },
        {
          "name": "G1",
          "midi": 31,
          "time": 32.11458333333333,
          "velocity": 0.4566929133858268,
          "duration": 0.1614583333333357
        },
        {
          "name": "E5",
          "midi": 76,
          "time": 32.276041666666664,
          "velocity": 0.6929133858267716,
          "duration": 0.0833333333333286
        },
        {
          "name": "G4",
          "midi": 67,
          "time": 32.276041666666664,
          "velocity": 0.6929133858267716,
          "duration": 0.052083333333328596
        },
        {
          "name": "C5",
          "midi": 72,
          "time": 32.276041666666664,
          "velocity": 0.5826771653543307,
          "duration": 0.062499999999992895
        },
        {
          "name": "G3",
          "midi": 55,
          "time": 32.28645833333333,
          "velocity": 0.5354330708661418,
          "duration": 0.9999999999999858
        },
        {
          "name": "E4",
          "midi": 64,
          "time": 32.28645833333333,
          "velocity": 0.6456692913385826,
          "duration": 0.3020833333333286
        },
        {
          "name": "E3",
          "midi": 52,
          "time": 32.28645833333333,
          "velocity": 0.5354330708661418,
          "duration": 0.9166666666666572
        },
        {
          "name": "C3",
          "midi": 48,
          "time": 32.28645833333333,
          "velocity": 0.5354330708661418,
          "duration": 0.6302083333333357
        },
        {
          "name": "C2",
          "midi": 36,
          "time": 32.30208333333333,
          "velocity": 0.4881889763779528,
          "duration": 0.1614583333333286
        },
        {
          "name": "G2",
          "midi": 43,
          "time": 32.48958333333332,
          "velocity": 0.5196850393700787,
          "duration": 0.21875
        },
        {
          "name": "G4",
          "midi": 67,
          "time": 32.65104166666666,
          "velocity": 0.5511811023622047,
          "duration": 0.0625
        },
        {
          "name": "C5",
          "midi": 72,
          "time": 32.65104166666666,
          "velocity": 0.5511811023622047,
          "duration": 0.0677083333333357
        },
        {
          "name": "E5",
          "midi": 76,
          "time": 32.65104166666666,
          "velocity": 0.5826771653543307,
          "duration": 0.0625
        },
        {
          "name": "C4",
          "midi": 60,
          "time": 32.66145833333332,
          "velocity": 0.6614173228346457,
          "duration": 0.0885416666666714
        },
        {
          "name": "C3",
          "midi": 48,
          "time": 32.67708333333332,
          "velocity": 0.5196850393700787,
          "duration": 0.5364583333333286
        },
        {
          "name": "D3",
          "midi": 50,
          "time": 32.86458333333333,
          "velocity": 0.5748031496062992,
          "duration": 0.1770833333333357
        },
        {
          "name": "G4",
          "midi": 67,
          "time": 33.026041666666664,
          "velocity": 0.5511811023622047,
          "duration": 0.0677083333333286
        },
        {
          "name": "E5",
          "midi": 76,
          "time": 33.026041666666664,
          "velocity": 0.5118110236220472,
          "duration": 0.0781249999999929
        },
        {
          "name": "C5",
          "midi": 72,
          "time": 33.026041666666664,
          "velocity": 0.5118110236220472,
          "duration": 0.0572916666666643
        },
        {
          "name": "C4",
          "midi": 60,
          "time": 33.03645833333333,
          "velocity": 0.6456692913385826,
          "duration": 0.1093749999999929
        },
        {
          "name": "C3",
          "midi": 48,
          "time": 33.05208333333333,
          "velocity": 0.5196850393700787,
          "duration": 0.1927083333333215
        },
        {
          "name": "A#2",
          "midi": 46,
          "time": 33.223958333333314,
          "velocity": 0.5354330708661418,
          "duration": 0.140625
        },
        {
          "name": "G2",
          "midi": 43,
          "time": 33.239583333333314,
          "velocity": 0.4881889763779528,
          "duration": 0.1666666666666714
        },
        {
          "name": "C#5",
          "midi": 73,
          "time": 33.40104166666665,
          "velocity": 0.47244094488188976,
          "duration": 0.1041666666666714
        },
        {
          "name": "A4",
          "midi": 69,
          "time": 33.40104166666665,
          "velocity": 0.5826771653543307,
          "duration": 0.0833333333333357
        },
        {
          "name": "E5",
          "midi": 76,
          "time": 33.40104166666665,
          "velocity": 0.5118110236220472,
          "duration": 0.0989583333333357
        },
        {
          "name": "C#4",
          "midi": 61,
          "time": 33.41145833333332,
          "velocity": 0.6062992125984252,
          "duration": 0.1041666666666643
        },
        {
          "name": "A2",
          "midi": 45,
          "time": 33.41145833333332,
          "velocity": 0.6062992125984252,
          "duration": 0.7916666666666501
        },
        {
          "name": "G3",
          "midi": 55,
          "time": 33.41145833333332,
          "velocity": 0.5354330708661418,
          "duration": 0.9114583333333215
        },
        {
          "name": "A4",
          "midi": 69,
          "time": 33.41145833333332,
          "velocity": 0.6456692913385826,
          "duration": 0.1041666666666643
        },
        {
          "name": "A2",
          "midi": 45,
          "time": 33.42708333333332,
          "velocity": 0.5748031496062992,
          "duration": 0.8958333333333215
        },
        {
          "name": "C#5",
          "midi": 73,
          "time": 33.77604166666665,
          "velocity": 0.47244094488188976,
          "duration": 0.1041666666666643
        },
        {
          "name": "E5",
          "midi": 76,
          "time": 33.77604166666665,
          "velocity": 0.5826771653543307,
          "duration": 0.0885416666666643
        },
        {
          "name": "A4",
          "midi": 69,
          "time": 33.77604166666665,
          "velocity": 0.5118110236220472,
          "duration": 0.0729166666666643
        },
        {
          "name": "C#4",
          "midi": 61,
          "time": 33.786458333333314,
          "velocity": 0.5354330708661418,
          "duration": 0.28125
        },
        {
          "name": "A4",
          "midi": 69,
          "time": 33.786458333333314,
          "velocity": 0.6062992125984252,
          "duration": 0.1979166666666643
        },
        {
          "name": "A#4",
          "midi": 70,
          "time": 33.973958333333314,
          "velocity": 0.6456692913385826,
          "duration": 0.1666666666666643
        },
        {
          "name": "C#5",
          "midi": 73,
          "time": 34.15104166666664,
          "velocity": 0.47244094488188976,
          "duration": 0.09375
        },
        {
          "name": "A4",
          "midi": 69,
          "time": 34.15104166666664,
          "velocity": 0.5748031496062992,
          "duration": 0.0729166666666643
        },
        {
          "name": "E5",
          "midi": 76,
          "time": 34.15104166666664,
          "velocity": 0.5118110236220472,
          "duration": 0.078125
        },
        {
          "name": "A4",
          "midi": 69,
          "time": 34.16145833333331,
          "velocity": 0.6062992125984252,
          "duration": 0.15625
        },
        {
          "name": "C#3",
          "midi": 49,
          "time": 34.16145833333331,
          "velocity": 0.5354330708661418,
          "duration": 0.2760416666666714
        },
        {
          "name": "C#2",
          "midi": 37,
          "time": 34.17708333333331,
          "velocity": 0.4881889763779528,
          "duration": 0.3541666666666714
        },
        {
          "name": "G4",
          "midi": 67,
          "time": 34.34895833333331,
          "velocity": 0.6456692913385826,
          "duration": 0.0833333333333357
        },
        {
          "name": "F5",
          "midi": 77,
          "time": 34.52604166666664,
          "velocity": 0.5826771653543307,
          "duration": 0.0885416666666714
        },
        {
          "name": "A4",
          "midi": 69,
          "time": 34.52604166666664,
          "velocity": 0.47244094488188976,
          "duration": 0.0729166666666714
        },
        {
          "name": "D5",
          "midi": 74,
          "time": 34.52604166666664,
          "velocity": 0.5826771653543307,
          "duration": 0.0625000000000071
        },
        {
          "name": "D3",
          "midi": 50,
          "time": 34.536458333333314,
          "velocity": 0.5354330708661418,
          "duration": 0.7395833333333286
        },
        {
          "name": "F4",
          "midi": 65,
          "time": 34.536458333333314,
          "velocity": 0.6614173228346457,
          "duration": 0.2760416666666643
        },
        {
          "name": "D4",
          "midi": 62,
          "time": 34.536458333333314,
          "velocity": 0.5354330708661418,
          "duration": 0.2916666666666643
        },
        {
          "name": "D2",
          "midi": 38,
          "time": 34.552083333333314,
          "velocity": 0.5748031496062992,
          "duration": 0.7395833333333357
        },
        {
          "name": "F5",
          "midi": 77,
          "time": 34.90104166666664,
          "velocity": 0.5826771653543307,
          "duration": 0.078125
        },
        {
          "name": "A4",
          "midi": 69,
          "time": 34.90104166666664,
          "velocity": 0.5118110236220472,
          "duration": 0.0677083333333357
        },
        {
          "name": "D5",
          "midi": 74,
          "time": 34.90104166666664,
          "velocity": 0.5511811023622047,
          "duration": 0.0625
        },
        {
          "name": "D4",
          "midi": 62,
          "time": 34.91145833333331,
          "velocity": 0.6614173228346457,
          "duration": 0.078125
        },
        {
          "name": "A4",
          "midi": 69,
          "time": 35.27604166666664,
          "velocity": 0.47244094488188976,
          "duration": 0.0833333333333357
        },
        {
          "name": "C5",
          "midi": 72,
          "time": 35.28124999999998,
          "velocity": 0.5118110236220472,
          "duration": 0.046875
        },
        {
          "name": "F5",
          "midi": 77,
          "time": 35.28124999999998,
          "velocity": 0.5511811023622047,
          "duration": 0.0572916666666643
        },
        {
          "name": "F3",
          "midi": 53,
          "time": 35.286458333333314,
          "velocity": 0.5354330708661418,
          "duration": 0.1666666666666643
        },
        {
          "name": "A2",
          "midi": 45,
          "time": 35.286458333333314,
          "velocity": 0.5354330708661418,
          "duration": 0.3697916666666714
        },
        {
          "name": "C4",
          "midi": 60,
          "time": 35.286458333333314,
          "velocity": 0.6456692913385826,
          "duration": 0.09375
        },
        {
          "name": "A1",
          "midi": 33,
          "time": 35.302083333333314,
          "velocity": 0.4566929133858268,
          "duration": 0.328125
        },
        {
          "name": "C4",
          "midi": 60,
          "time": 35.473958333333314,
          "velocity": 0.5354330708661418,
          "duration": 0.109375
        },
        {
          "name": "F5",
          "midi": 77,
          "time": 35.65104166666665,
          "velocity": 0.5826771653543307,
          "duration": 0.0885416666666714
        },
        {
          "name": "D5",
          "midi": 74,
          "time": 35.65104166666665,
          "velocity": 0.5511811023622047,
          "duration": 0.0625000000000071
        },
        {
          "name": "A#4",
          "midi": 70,
          "time": 35.65104166666665,
          "velocity": 0.5511811023622047,
          "duration": 0.057291666666671404
        },
        {
          "name": "A#2",
          "midi": 46,
          "time": 35.66145833333332,
          "velocity": 0.5590551181102362,
          "duration": 0.4427083333333286
        },
        {
          "name": "D4",
          "midi": 62,
          "time": 35.66145833333332,
          "velocity": 0.6614173228346457,
          "duration": 0.078125
        },
        {
          "name": "F3",
          "midi": 53,
          "time": 35.66145833333332,
          "velocity": 0.5354330708661418,
          "duration": 0.3802083333333357
        },
        {
          "name": "A#1",
          "midi": 34,
          "time": 35.67708333333332,
          "velocity": 0.4409448818897638,
          "duration": 0.359375
        },
        {
          "name": "F5",
          "midi": 77,
          "time": 36.02604166666666,
          "velocity": 0.5826771653543307,
          "duration": 0.0781249999999929
        },
        {
          "name": "A#4",
          "midi": 70,
          "time": 36.02604166666666,
          "velocity": 0.5118110236220472,
          "duration": 0.0781249999999929
        },
        {
          "name": "D5",
          "midi": 74,
          "time": 36.02604166666666,
          "velocity": 0.4566929133858268,
          "duration": 0.052083333333328596
        },
        {
          "name": "G4",
          "midi": 67,
          "time": 36.03645833333332,
          "velocity": 0.6456692913385826,
          "duration": 0.0937499999999929
        },
        {
          "name": "A#2",
          "midi": 46,
          "time": 36.05208333333332,
          "velocity": 0.7165354330708661,
          "duration": 0.0989583333333286
        },
        {
          "name": "G4",
          "midi": 67,
          "time": 36.40104166666665,
          "velocity": 0.3937007874015748,
          "duration": 0.0677083333333286
        },
        {
          "name": "E5",
          "midi": 76,
          "time": 36.40104166666665,
          "velocity": 0.3937007874015748,
          "duration": 0.0677083333333286
        },
        {
          "name": "C5",
          "midi": 72,
          "time": 36.40104166666665,
          "velocity": 0.3937007874015748,
          "duration": 0.0572916666666643
        },
        {
          "name": "C3",
          "midi": 48,
          "time": 36.411458333333314,
          "velocity": 0.5590551181102362,
          "duration": 0.078125
        },
        {
          "name": "E4",
          "midi": 64,
          "time": 36.411458333333314,
          "velocity": 0.6614173228346457,
          "duration": 0.0885416666666714
        },
        {
          "name": "G3",
          "midi": 55,
          "time": 36.411458333333314,
          "velocity": 0.5590551181102362,
          "duration": 0.0833333333333357
        },
        {
          "name": "C4",
          "midi": 60,
          "time": 36.411458333333314,
          "velocity": 0.5354330708661418,
          "duration": 0.078125
        },
        {
          "name": "C2",
          "midi": 36,
          "time": 36.427083333333314,
          "velocity": 0.4881889763779528,
          "duration": 0.1041666666666714
        },
        {
          "name": "F5",
          "midi": 77,
          "time": 36.77604166666665,
          "velocity": 0.4251968503937008,
          "duration": 0.53125
        },
        {
          "name": "A4",
          "midi": 69,
          "time": 36.77604166666665,
          "velocity": 0.28346456692913385,
          "duration": 0.546875
        },
        {
          "name": "C5",
          "midi": 72,
          "time": 36.77604166666665,
          "velocity": 0.31496062992125984,
          "duration": 0.546875
        },
        {
          "name": "C3",
          "midi": 48,
          "time": 36.786458333333314,
          "velocity": 0.5354330708661418,
          "duration": 0.2864583333333357
        },
        {
          "name": "F4",
          "midi": 65,
          "time": 36.786458333333314,
          "velocity": 0.6062992125984252,
          "duration": 0.2552083333333357
        },
        {
          "name": "F2",
          "midi": 41,
          "time": 36.786458333333314,
          "velocity": 0.5354330708661418,
          "duration": 0.2395833333333357
        },
        {
          "name": "F3",
          "midi": 53,
          "time": 36.786458333333314,
          "velocity": 0.5354330708661418,
          "duration": 0.2604166666666714
        },
        {
          "name": "A3",
          "midi": 57,
          "time": 36.786458333333314,
          "velocity": 0.5354330708661418,
          "duration": 0.203125
        },
        {
          "name": "C4",
          "midi": 60,
          "time": 36.786458333333314,
          "velocity": 0.5354330708661418,
          "duration": 0.21875
        },
        {
          "name": "F2",
          "midi": 41,
          "time": 36.802083333333314,
          "velocity": 0.5196850393700787,
          "duration": 0.7552083333333428
        },
        {
          "name": "C5",
          "midi": 72,
          "time": 37.53645833333332,
          "velocity": 0.6456692913385826,
          "duration": 0.3645833333333357
        },
        {
          "name": "F4",
          "midi": 65,
          "time": 37.90104166666666,
          "velocity": 0.28346456692913385,
          "duration": 0.3177083333333286
        },
        {
          "name": "F3",
          "midi": 53,
          "time": 37.91145833333332,
          "velocity": 0.5354330708661418,
          "duration": 0.3229166666666643
        },
        {
          "name": "A4",
          "midi": 69,
          "time": 37.91145833333332,
          "velocity": 0.5590551181102362,
          "duration": 0.2864583333333286
        },
        {
          "name": "F5",
          "midi": 77,
          "time": 37.91145833333332,
          "velocity": 0.5590551181102362,
          "duration": 0.2604166666666643
        },
        {
          "name": "F1",
          "midi": 29,
          "time": 37.92708333333332,
          "velocity": 0.4881889763779528,
          "duration": 1.124999999999993
        },
        {
          "name": "F4",
          "midi": 65,
          "time": 38.11458333333332,
          "velocity": 0.47244094488188976,
          "duration": 0.1614583333333286
        },
        {
          "name": "G3",
          "midi": 55,
          "time": 38.286458333333314,
          "velocity": 0.5354330708661418,
          "duration": 0.3489583333333357
        },
        {
          "name": "F5",
          "midi": 77,
          "time": 38.286458333333314,
          "velocity": 0.6456692913385826,
          "duration": 0.265625
        },
        {
          "name": "A#4",
          "midi": 70,
          "time": 38.286458333333314,
          "velocity": 0.5354330708661418,
          "duration": 0.2708333333333357
        },
        {
          "name": "G4",
          "midi": 67,
          "time": 38.302083333333314,
          "velocity": 0.5118110236220472,
          "duration": 0.078125
        },
        {
          "name": "A4",
          "midi": 69,
          "time": 38.489583333333314,
          "velocity": 0.5511811023622047,
          "duration": 0.078125
        },
        {
          "name": "C5",
          "midi": 72,
          "time": 38.661458333333314,
          "velocity": 0.6456692913385826,
          "duration": 0.125
        },
        {
          "name": "F5",
          "midi": 77,
          "time": 38.661458333333314,
          "velocity": 0.6456692913385826,
          "duration": 0.2447916666666643
        },
        {
          "name": "A3",
          "midi": 57,
          "time": 38.661458333333314,
          "velocity": 0.5590551181102362,
          "duration": 0.296875
        },
        {
          "name": "C5",
          "midi": 72,
          "time": 38.677083333333314,
          "velocity": 0.6614173228346457,
          "duration": 0.1822916666666643
        },
        {
          "name": "A4",
          "midi": 69,
          "time": 38.864583333333314,
          "velocity": 0.33858267716535434,
          "duration": 0.0677083333333357
        },
        {
          "name": "E4",
          "midi": 64,
          "time": 39.02604166666665,
          "velocity": 0.3464566929133858,
          "duration": 0.3020833333333357
        },
        {
          "name": "C4",
          "midi": 60,
          "time": 39.02604166666665,
          "velocity": 0.28346456692913385,
          "duration": 0.7500000000000071
        },
        {
          "name": "C4",
          "midi": 60,
          "time": 39.036458333333314,
          "velocity": 0.5354330708661418,
          "duration": 0.7968750000000071
        },
        {
          "name": "E5",
          "midi": 76,
          "time": 39.036458333333314,
          "velocity": 0.6456692913385826,
          "duration": 0.4635416666666785
        },
        {
          "name": "G4",
          "midi": 67,
          "time": 39.036458333333314,
          "velocity": 0.5354330708661418,
          "duration": 0.4583333333333428
        },
        {
          "name": "C5",
          "midi": 72,
          "time": 39.036458333333314,
          "velocity": 0.5354330708661418,
          "duration": 0.4218750000000071
        },
        {
          "name": "C2",
          "midi": 36,
          "time": 39.052083333333314,
          "velocity": 0.5196850393700787,
          "duration": 1.1145833333333357
        },
        {
          "name": "E4",
          "midi": 64,
          "time": 39.239583333333314,
          "velocity": 0.41732283464566927,
          "duration": 0.5364583333333428
        },
        {
          "name": "G4",
          "midi": 67,
          "time": 39.42708333333332,
          "velocity": 0.5511811023622047,
          "duration": 0.2656250000000071
        },
        {
          "name": "C5",
          "midi": 72,
          "time": 39.61458333333333,
          "velocity": 0.5669291338582677,
          "duration": 0.0885416666666643
        },
        {
          "name": "E5",
          "midi": 76,
          "time": 39.78645833333332,
          "velocity": 0.6614173228346457,
          "duration": 0.2916666666666643
        },
        {
          "name": "G4",
          "midi": 67,
          "time": 39.80208333333332,
          "velocity": 0.5669291338582677,
          "duration": 0.0885416666666643
        },
        {
          "name": "E4",
          "midi": 64,
          "time": 39.98958333333332,
          "velocity": 0.41732283464566927,
          "duration": 0.0989583333333286
        },
        {
          "name": "F4",
          "midi": 65,
          "time": 40.15104166666665,
          "velocity": 0.3464566929133858,
          "duration": 0.1041666666666643
        },
        {
          "name": "D4",
          "midi": 62,
          "time": 40.15104166666665,
          "velocity": 0.23622047244094488,
          "duration": 0.375
        },
        {
          "name": "D4",
          "midi": 62,
          "time": 40.161458333333314,
          "velocity": 0.5354330708661418,
          "duration": 0.3802083333333428
        },
        {
          "name": "F5",
          "midi": 77,
          "time": 40.161458333333314,
          "velocity": 0.6062992125984252,
          "duration": 0.25
        },
        {
          "name": "A4",
          "midi": 69,
          "time": 40.161458333333314,
          "velocity": 0.5354330708661418,
          "duration": 0.2604166666666643
        },
        {
          "name": "D2",
          "midi": 38,
          "time": 40.177083333333314,
          "velocity": 0.4566929133858268,
          "duration": 0.3750000000000071
        },
        {
          "name": "F4",
          "midi": 65,
          "time": 40.177083333333314,
          "velocity": 0.5669291338582677,
          "duration": 0.3541666666666714
        },
        {
          "name": "C5",
          "midi": 72,
          "time": 40.364583333333314,
          "velocity": 0.5669291338582677,
          "duration": 0.1197916666666643
        },
        {
          "name": "C4",
          "midi": 60,
          "time": 40.52604166666665,
          "velocity": 0.4566929133858268,
          "duration": 0.3124999999999929
        },
        {
          "name": "E4",
          "midi": 64,
          "time": 40.52604166666665,
          "velocity": 0.4566929133858268,
          "duration": 0.140625
        },
        {
          "name": "G4",
          "midi": 67,
          "time": 40.531249999999986,
          "velocity": 0.6062992125984252,
          "duration": 0.2499999999999929
        },
        {
          "name": "E5",
          "midi": 76,
          "time": 40.53645833333332,
          "velocity": 0.6062992125984252,
          "duration": 0.2864583333333215
        },
        {
          "name": "G3",
          "midi": 55,
          "time": 40.53645833333332,
          "velocity": 0.5354330708661418,
          "duration": 0.6093749999999929
        },
        {
          "name": "G1",
          "midi": 31,
          "time": 40.55208333333332,
          "velocity": 0.4251968503937008,
          "duration": 0.3697916666666572
        },
        {
          "name": "E4",
          "midi": 64,
          "time": 40.55208333333332,
          "velocity": 0.5118110236220472,
          "duration": 0.3385416666666572
        },
        {
          "name": "C5",
          "midi": 72,
          "time": 40.739583333333314,
          "velocity": 0.5511811023622047,
          "duration": 0.1458333333333286
        },
        {
          "name": "G3",
          "midi": 55,
          "time": 40.90104166666664,
          "velocity": 0.4566929133858268,
          "duration": 0.3125
        },
        {
          "name": "D4",
          "midi": 62,
          "time": 40.90104166666664,
          "velocity": 0.3779527559055118,
          "duration": 0.1718750000000071
        },
        {
          "name": "D5",
          "midi": 74,
          "time": 40.90624999999998,
          "velocity": 0.6614173228346457,
          "duration": 0.28125
        },
        {
          "name": "F4",
          "midi": 65,
          "time": 40.911458333333314,
          "velocity": 0.5354330708661418,
          "duration": 0.2239583333333357
        },
        {
          "name": "G2",
          "midi": 43,
          "time": 40.927083333333314,
          "velocity": 0.4566929133858268,
          "duration": 0.3645833333333357
        },
        {
          "name": "D4",
          "midi": 62,
          "time": 40.927083333333314,
          "velocity": 0.4566929133858268,
          "duration": 0.3072916666666643
        },
        {
          "name": "B4",
          "midi": 71,
          "time": 41.114583333333314,
          "velocity": 0.6614173228346457,
          "duration": 0.1041666666666643
        },
        {
          "name": "C4",
          "midi": 60,
          "time": 41.27604166666664,
          "velocity": 0.3464566929133858,
          "duration": 0.4062500000000071
        },
        {
          "name": "E3",
          "midi": 52,
          "time": 41.27604166666664,
          "velocity": 0.2204724409448819,
          "duration": 1.0364583333333428
        },
        {
          "name": "G3",
          "midi": 55,
          "time": 41.28124999999998,
          "velocity": 0.5354330708661418,
          "duration": 0.3541666666666714
        },
        {
          "name": "C4",
          "midi": 60,
          "time": 41.286458333333314,
          "velocity": 0.5354330708661418,
          "duration": 1.942708333333357
        },
        {
          "name": "C5",
          "midi": 72,
          "time": 41.286458333333314,
          "velocity": 0.5590551181102362,
          "duration": 0.3072916666666714
        },
        {
          "name": "E4",
          "midi": 64,
          "time": 41.286458333333314,
          "velocity": 0.5354330708661418,
          "duration": 0.1614583333333357
        },
        {
          "name": "C3",
          "midi": 48,
          "time": 41.286458333333314,
          "velocity": 0.5354330708661418,
          "duration": 0.3020833333333357
        },
        {
          "name": "E4",
          "midi": 64,
          "time": 41.302083333333314,
          "velocity": 0.5669291338582677,
          "duration": 0.2291666666666643
        },
        {
          "name": "C2",
          "midi": 36,
          "time": 41.302083333333314,
          "velocity": 0.4881889763779528,
          "duration": 0.7604166666666714
        },
        {
          "name": "G4",
          "midi": 67,
          "time": 41.489583333333314,
          "velocity": 0.6614173228346457,
          "duration": 0.09375
        },
        {
          "name": "C5",
          "midi": 72,
          "time": 41.677083333333314,
          "velocity": 0.6141732283464567,
          "duration": 0.1197916666666714
        },
        {
          "name": "D5",
          "midi": 74,
          "time": 41.86458333333332,
          "velocity": 0.6141732283464567,
          "duration": 0.109375
        },
        {
          "name": "G5",
          "midi": 79,
          "time": 42.031249999999986,
          "velocity": 0.6456692913385826,
          "duration": 0.3541666666666714
        },
        {
          "name": "E5",
          "midi": 76,
          "time": 42.05208333333332,
          "velocity": 0.6614173228346457,
          "duration": 0.1041666666666643
        },
        {
          "name": "C5",
          "midi": 72,
          "time": 42.23958333333332,
          "velocity": 0.47244094488188976,
          "duration": 0.078125
        },
        {
          "name": "A4",
          "midi": 69,
          "time": 42.40104166666666,
          "velocity": 0.33070866141732286,
          "duration": 0.1458333333333357
        },
        {
          "name": "F3",
          "midi": 53,
          "time": 42.40104166666666,
          "velocity": 0.28346456692913385,
          "duration": 0.3854166666666785
        },
        {
          "name": "F4",
          "midi": 65,
          "time": 42.40624999999999,
          "velocity": 0.5354330708661418,
          "duration": 0.3854166666666785
        },
        {
          "name": "A5",
          "midi": 81,
          "time": 42.41145833333333,
          "velocity": 0.6456692913385826,
          "duration": 0.3125
        },
        {
          "name": "F2",
          "midi": 41,
          "time": 42.42708333333333,
          "velocity": 0.4251968503937008,
          "duration": 0.3697916666666785
        },
        {
          "name": "A4",
          "midi": 69,
          "time": 42.42708333333333,
          "velocity": 0.4566929133858268,
          "duration": 0.3593750000000071
        },
        {
          "name": "C5",
          "midi": 72,
          "time": 42.59374999999999,
          "velocity": 0.5354330708661418,
          "duration": 0.1145833333333357
        },
        {
          "name": "C5",
          "midi": 72,
          "time": 42.61458333333333,
          "velocity": 0.6614173228346457,
          "duration": 0.2083333333333499
        },
        {
          "name": "G4",
          "midi": 67,
          "time": 42.776041666666664,
          "velocity": 0.5511811023622047,
          "duration": 0.1250000000000142
        },
        {
          "name": "E3",
          "midi": 52,
          "time": 42.776041666666664,
          "velocity": 0.4251968503937008,
          "duration": 0.3385416666666785
        },
        {
          "name": "G5",
          "midi": 79,
          "time": 42.78125,
          "velocity": 0.6614173228346457,
          "duration": 0.2343750000000142
        },
        {
          "name": "E4",
          "midi": 64,
          "time": 42.786458333333336,
          "velocity": 0.5354330708661418,
          "duration": 0.3541666666666714
        },
        {
          "name": "E2",
          "midi": 40,
          "time": 42.80208333333334,
          "velocity": 0.6456692913385826,
          "duration": 0.3802083333333286
        },
        {
          "name": "G4",
          "midi": 67,
          "time": 42.80208333333334,
          "velocity": 0.6141732283464567,
          "duration": 0.3697916666666572
        },
        {
          "name": "C5",
          "midi": 72,
          "time": 42.968750000000014,
          "velocity": 0.6062992125984252,
          "duration": 0.1041666666666643
        },
        {
          "name": "C5",
          "midi": 72,
          "time": 42.98958333333335,
          "velocity": 0.5669291338582677,
          "duration": 0.2135416666666572
        },
        {
          "name": "F4",
          "midi": 65,
          "time": 43.15104166666667,
          "velocity": 0.47244094488188976,
          "duration": 0.1354166666666643
        },
        {
          "name": "D3",
          "midi": 50,
          "time": 43.15104166666667,
          "velocity": 0.2440944881889764,
          "duration": 0.3125
        },
        {
          "name": "F5",
          "midi": 77,
          "time": 43.161458333333336,
          "velocity": 0.6614173228346457,
          "duration": 0.234375
        },
        {
          "name": "D4",
          "midi": 62,
          "time": 43.161458333333336,
          "velocity": 0.5354330708661418,
          "duration": 0.3541666666666714
        },
        {
          "name": "D2",
          "midi": 38,
          "time": 43.177083333333336,
          "velocity": 0.5196850393700787,
          "duration": 0.3489583333333357
        },
        {
          "name": "F4",
          "midi": 65,
          "time": 43.177083333333336,
          "velocity": 0.47244094488188976,
          "duration": 0.3385416666666714
        },
        {
          "name": "C5",
          "midi": 72,
          "time": 43.34375,
          "velocity": 0.5354330708661418,
          "duration": 0.1041666666666714
        },
        {
          "name": "C5",
          "midi": 72,
          "time": 43.364583333333336,
          "velocity": 0.5511811023622047,
          "duration": 0.4114583333333428
        },
        {
          "name": "C5",
          "midi": 72,
          "time": 43.52604166666667,
          "velocity": 0.33070866141732286,
          "duration": 0.4947916666666785
        },
        {
          "name": "E4",
          "midi": 64,
          "time": 43.52604166666667,
          "velocity": 0.28346456692913385,
          "duration": 0.1354166666666714
        },
        {
          "name": "A3",
          "midi": 57,
          "time": 43.52604166666667,
          "velocity": 0.2677165354330709,
          "duration": 0.6875000000000142
        },
        {
          "name": "C6",
          "midi": 84,
          "time": 43.53125000000001,
          "velocity": 0.6614173228346457,
          "duration": 0.5989583333333428
        },
        {
          "name": "A3",
          "midi": 57,
          "time": 43.53645833333334,
          "velocity": 0.5354330708661418,
          "duration": 1.0781250000000142
        },
        {
          "name": "A2",
          "midi": 45,
          "time": 43.55208333333334,
          "velocity": 0.4566929133858268,
          "duration": 0.3750000000000071
        },
        {
          "name": "E4",
          "midi": 64,
          "time": 43.55208333333334,
          "velocity": 0.5669291338582677,
          "duration": 0.7031250000000071
        },
        {
          "name": "E4",
          "midi": 64,
          "time": 43.71875000000001,
          "velocity": 0.5354330708661418,
          "duration": 0.9375000000000213
        },
        {
          "name": "A4",
          "midi": 69,
          "time": 43.73958333333334,
          "velocity": 0.5669291338582677,
          "duration": 0.0729166666666714
        },
        {
          "name": "C5",
          "midi": 72,
          "time": 43.906250000000014,
          "velocity": 0.6062992125984252,
          "duration": 0.2604166666666714
        },
        {
          "name": "C5",
          "midi": 72,
          "time": 43.92708333333335,
          "velocity": 0.47244094488188976,
          "duration": 0.4583333333333428
        },
        {
          "name": "A1",
          "midi": 33,
          "time": 43.92708333333335,
          "velocity": 0.5196850393700787,
          "duration": 0.3333333333333357
        },
        {
          "name": "E5",
          "midi": 76,
          "time": 44.11458333333335,
          "velocity": 0.6614173228346457,
          "duration": 0.1145833333333357
        },
        {
          "name": "C5",
          "midi": 72,
          "time": 44.28125000000002,
          "velocity": 0.6614173228346457,
          "duration": 0.1145833333333357
        },
        {
          "name": "C5",
          "midi": 72,
          "time": 44.30208333333336,
          "velocity": 0.5669291338582677,
          "duration": 0.2760416666666643
        },
        {
          "name": "A2",
          "midi": 45,
          "time": 44.30208333333336,
          "velocity": 0.4881889763779528,
          "duration": 0.3072916666666643
        },
        {
          "name": "C5",
          "midi": 72,
          "time": 44.46875000000002,
          "velocity": 0.5590551181102362,
          "duration": 0.1822916666666714
        },
        {
          "name": "A4",
          "midi": 69,
          "time": 44.48958333333336,
          "velocity": 0.6141732283464567,
          "duration": 0.0572916666666643
        },
        {
          "name": "A#3",
          "midi": 58,
          "time": 44.65104166666669,
          "velocity": 0.33070866141732286,
          "duration": 0.4270833333333499
        },
        {
          "name": "D4",
          "midi": 62,
          "time": 44.65104166666669,
          "velocity": 0.28346456692913385,
          "duration": 0.4218750000000142
        },
        {
          "name": "A#3",
          "midi": 58,
          "time": 44.65625000000003,
          "velocity": 0.5354330708661418,
          "duration": 0.7552083333333641
        },
        {
          "name": "D5",
          "midi": 74,
          "time": 44.661458333333364,
          "velocity": 0.6614173228346457,
          "duration": 0.0833333333333357
        },
        {
          "name": "A#4",
          "midi": 70,
          "time": 44.661458333333364,
          "velocity": 0.5354330708661418,
          "duration": 0.3229166666666714
        },
        {
          "name": "F4",
          "midi": 65,
          "time": 44.661458333333364,
          "velocity": 0.5354330708661418,
          "duration": 0.109375
        },
        {
          "name": "F4",
          "midi": 65,
          "time": 44.677083333333364,
          "velocity": 0.5669291338582677,
          "duration": 0.3385416666666714
        },
        {
          "name": "A#2",
          "midi": 46,
          "time": 44.677083333333364,
          "velocity": 0.5196850393700787,
          "duration": 0.1510416666666643
        },
        {
          "name": "D5",
          "midi": 74,
          "time": 44.864583333333364,
          "velocity": 0.6614173228346457,
          "duration": 0.0677083333333357
        },
        {
          "name": "C3",
          "midi": 48,
          "time": 44.864583333333364,
          "velocity": 0.4251968503937008,
          "duration": 0.1458333333333357
        },
        {
          "name": "G4",
          "midi": 67,
          "time": 45.0260416666667,
          "velocity": 0.4251968503937008,
          "duration": 0.411458333333357
        },
        {
          "name": "G5",
          "midi": 79,
          "time": 45.031250000000036,
          "velocity": 0.6614173228346457,
          "duration": 0.09895833333334281
        },
        {
          "name": "A#4",
          "midi": 70,
          "time": 45.05208333333337,
          "velocity": 0.5669291338582677,
          "duration": 0.10416666666667851
        },
        {
          "name": "D3",
          "midi": 50,
          "time": 45.05208333333337,
          "velocity": 0.5275590551181102,
          "duration": 0.09895833333334281
        },
        {
          "name": "F4",
          "midi": 65,
          "time": 45.239583333333385,
          "velocity": 0.5669291338582677,
          "duration": 0.09375
        },
        {
          "name": "C4",
          "midi": 60,
          "time": 45.40104166666672,
          "velocity": 0.28346456692913385,
          "duration": 0.0885416666666643
        },
        {
          "name": "E4",
          "midi": 64,
          "time": 45.40104166666672,
          "velocity": 0.4566929133858268,
          "duration": 0.1302083333333286
        },
        {
          "name": "C4",
          "midi": 60,
          "time": 45.40625000000006,
          "velocity": 0.6614173228346457,
          "duration": 0.3072916666666643
        },
        {
          "name": "A#4",
          "midi": 70,
          "time": 45.41145833333339,
          "velocity": 0.6062992125984252,
          "duration": 0.08854166666665719
        },
        {
          "name": "E5",
          "midi": 76,
          "time": 45.41145833333339,
          "velocity": 0.6614173228346457,
          "duration": 0.0937499999999929
        },
        {
          "name": "G4",
          "midi": 67,
          "time": 45.41145833333339,
          "velocity": 0.6062992125984252,
          "duration": 0.0677083333333286
        },
        {
          "name": "E4",
          "midi": 64,
          "time": 45.42708333333339,
          "velocity": 0.6141732283464567,
          "duration": 0.3124999999999929
        },
        {
          "name": "C3",
          "midi": 48,
          "time": 45.42708333333339,
          "velocity": 0.5196850393700787,
          "duration": 0.11979166666665719
        },
        {
          "name": "G4",
          "midi": 67,
          "time": 45.614583333333385,
          "velocity": 0.7007874015748031,
          "duration": 0.0833333333333357
        },
        {
          "name": "F3",
          "midi": 53,
          "time": 45.77604166666672,
          "velocity": 0.2755905511811024,
          "duration": 0.328125
        },
        {
          "name": "F4",
          "midi": 65,
          "time": 45.77604166666672,
          "velocity": 0.2755905511811024,
          "duration": 0.2083333333333357
        },
        {
          "name": "C4",
          "midi": 60,
          "time": 45.77604166666672,
          "velocity": 0.2047244094488189,
          "duration": 0.3020833333333357
        },
        {
          "name": "C4",
          "midi": 60,
          "time": 45.78125000000006,
          "velocity": 0.5354330708661418,
          "duration": 0.5833333333333286
        },
        {
          "name": "F5",
          "midi": 77,
          "time": 45.78645833333339,
          "velocity": 0.6614173228346457,
          "duration": 0.2395833333333286
        },
        {
          "name": "F4",
          "midi": 65,
          "time": 45.78645833333339,
          "velocity": 0.5354330708661418,
          "duration": 0.4999999999999929
        },
        {
          "name": "C5",
          "midi": 72,
          "time": 45.78645833333339,
          "velocity": 0.6456692913385826,
          "duration": 0.2604166666666643
        },
        {
          "name": "F3",
          "midi": 53,
          "time": 45.78645833333339,
          "velocity": 0.5354330708661418,
          "duration": 0.7135416666666572
        },
        {
          "name": "A4",
          "midi": 69,
          "time": 45.78645833333339,
          "velocity": 0.5590551181102362,
          "duration": 0.2395833333333286
        },
        {
          "name": "F2",
          "midi": 41,
          "time": 45.80208333333339,
          "velocity": 0.5196850393700787,
          "duration": 0.7604166666666572
        },
        {
          "name": "F4",
          "midi": 65,
          "time": 45.80208333333339,
          "velocity": 0.7480314960629921,
          "duration": 0.6562499999999929
        },
        {
          "name": "C5",
          "midi": 72,
          "time": 46.53125000000005,
          "velocity": 0.6614173228346457,
          "duration": 0.3229166666666643
        },
        {
          "name": "F5",
          "midi": 77,
          "time": 46.901041666666714,
          "velocity": 0.5826771653543307,
          "duration": 0.09895833333334281
        },
        {
          "name": "A4",
          "midi": 69,
          "time": 46.901041666666714,
          "velocity": 0.4566929133858268,
          "duration": 0.0729166666666714
        },
        {
          "name": "C5",
          "midi": 72,
          "time": 46.901041666666714,
          "velocity": 0.47244094488188976,
          "duration": 0.0677083333333357
        },
        {
          "name": "C3",
          "midi": 48,
          "time": 46.90625000000005,
          "velocity": 0.5354330708661418,
          "duration": 0.8072916666666856
        },
        {
          "name": "F3",
          "midi": 53,
          "time": 46.911458333333385,
          "velocity": 0.5354330708661418,
          "duration": 0.8541666666666856
        },
        {
          "name": "F5",
          "midi": 77,
          "time": 46.911458333333385,
          "velocity": 0.6614173228346457,
          "duration": 0.1041666666666714
        },
        {
          "name": "A4",
          "midi": 69,
          "time": 46.911458333333385,
          "velocity": 0.6456692913385826,
          "duration": 0.0833333333333357
        },
        {
          "name": "F2",
          "midi": 41,
          "time": 46.911458333333385,
          "velocity": 0.5590551181102362,
          "duration": 0.7656250000000142
        },
        {
          "name": "F1",
          "midi": 29,
          "time": 46.927083333333385,
          "velocity": 0.5748031496062992,
          "duration": 0.7500000000000142
        },
        {
          "name": "A4",
          "midi": 69,
          "time": 47.27604166666672,
          "velocity": 0.5118110236220472,
          "duration": 0.0885416666666714
        },
        {
          "name": "F5",
          "midi": 77,
          "time": 47.27604166666672,
          "velocity": 0.5826771653543307,
          "duration": 0.0885416666666714
        },
        {
          "name": "C5",
          "midi": 72,
          "time": 47.27604166666672,
          "velocity": 0.33070866141732286,
          "duration": 0.057291666666671404
        },
        {
          "name": "F5",
          "midi": 77,
          "time": 47.28125000000006,
          "velocity": 0.6614173228346457,
          "duration": 0.140625
        },
        {
          "name": "A4",
          "midi": 69,
          "time": 47.28645833333339,
          "velocity": 0.6456692913385826,
          "duration": 0.4479166666666785
        },
        {
          "name": "G5",
          "midi": 79,
          "time": 47.46875000000006,
          "velocity": 0.6456692913385826,
          "duration": 0.1770833333333357
        },
        {
          "name": "A4",
          "midi": 69,
          "time": 47.65104166666673,
          "velocity": 0.4566929133858268,
          "duration": 0.1093750000000071
        },
        {
          "name": "C5",
          "midi": 72,
          "time": 47.65104166666673,
          "velocity": 0.4566929133858268,
          "duration": 0.057291666666671404
        },
        {
          "name": "F5",
          "midi": 77,
          "time": 47.65104166666673,
          "velocity": 0.4566929133858268,
          "duration": 0.0625000000000071
        },
        {
          "name": "F5",
          "midi": 77,
          "time": 47.656250000000064,
          "velocity": 0.6062992125984252,
          "duration": 0.1041666666666714
        },
        {
          "name": "F2",
          "midi": 41,
          "time": 47.6770833333334,
          "velocity": 0.5196850393700787,
          "duration": 0.3333333333333428
        },
        {
          "name": "E5",
          "midi": 76,
          "time": 47.84375000000007,
          "velocity": 0.6062992125984252,
          "duration": 0.0677083333333357
        },
        {
          "name": "A#4",
          "midi": 70,
          "time": 48.02604166666674,
          "velocity": 0.47244094488188976,
          "duration": 0.0677083333333357
        },
        {
          "name": "F5",
          "midi": 77,
          "time": 48.02604166666674,
          "velocity": 0.47244094488188976,
          "duration": 0.0625
        },
        {
          "name": "D5",
          "midi": 74,
          "time": 48.02604166666674,
          "velocity": 0.4566929133858268,
          "duration": 0.0520833333333357
        },
        {
          "name": "A#2",
          "midi": 46,
          "time": 48.03125000000008,
          "velocity": 0.5354330708661418,
          "duration": 0.8854166666666927
        },
        {
          "name": "F3",
          "midi": 53,
          "time": 48.036458333333414,
          "velocity": 0.5354330708661418,
          "duration": 0.817708333333357
        },
        {
          "name": "A#3",
          "midi": 58,
          "time": 48.036458333333414,
          "velocity": 0.5354330708661418,
          "duration": 0.8020833333333499
        },
        {
          "name": "D5",
          "midi": 74,
          "time": 48.036458333333414,
          "velocity": 0.6614173228346457,
          "duration": 0.078125
        },
        {
          "name": "A#4",
          "midi": 70,
          "time": 48.036458333333414,
          "velocity": 0.6456692913385826,
          "duration": 0.078125
        },
        {
          "name": "A#1",
          "midi": 34,
          "time": 48.052083333333414,
          "velocity": 0.5196850393700787,
          "duration": 0.7447916666666785
        },
        {
          "name": "F5",
          "midi": 77,
          "time": 48.40104166666675,
          "velocity": 0.5511811023622047,
          "duration": 0.0937500000000071
        },
        {
          "name": "A#4",
          "midi": 70,
          "time": 48.40104166666675,
          "velocity": 0.4566929133858268,
          "duration": 0.0625000000000071
        },
        {
          "name": "D5",
          "midi": 74,
          "time": 48.40104166666675,
          "velocity": 0.4566929133858268,
          "duration": 0.06770833333334281
        },
        {
          "name": "D5",
          "midi": 74,
          "time": 48.406250000000085,
          "velocity": 0.6614173228346457,
          "duration": 0.0781250000000071
        },
        {
          "name": "A#4",
          "midi": 70,
          "time": 48.41145833333342,
          "velocity": 0.5590551181102362,
          "duration": 0.0520833333333357
        },
        {
          "name": "F5",
          "midi": 77,
          "time": 48.77604166666676,
          "velocity": 0.5118110236220472,
          "duration": 0.09375000000001421
        },
        {
          "name": "A#4",
          "midi": 70,
          "time": 48.77604166666676,
          "velocity": 0.47244094488188976,
          "duration": 0.07291666666667851
        },
        {
          "name": "D5",
          "midi": 74,
          "time": 48.77604166666676,
          "velocity": 0.4566929133858268,
          "duration": 0.06770833333334281
        },
        {
          "name": "A#4",
          "midi": 70,
          "time": 48.78125000000009,
          "velocity": 0.6456692913385826,
          "duration": 0.08333333333334281
        },
        {
          "name": "D5",
          "midi": 74,
          "time": 48.78645833333343,
          "velocity": 0.6456692913385826,
          "duration": 0.08333333333334281
        },
        {
          "name": "A1",
          "midi": 33,
          "time": 48.80208333333343,
          "velocity": 0.4566929133858268,
          "duration": 0.3697916666666785
        },
        {
          "name": "G4",
          "midi": 67,
          "time": 49.15104166666677,
          "velocity": 0.5118110236220472,
          "duration": 0.0625000000000071
        },
        {
          "name": "B4",
          "midi": 71,
          "time": 49.15104166666677,
          "velocity": 0.5118110236220472,
          "duration": 0.057291666666671404
        },
        {
          "name": "D5",
          "midi": 74,
          "time": 49.15104166666677,
          "velocity": 0.47244094488188976,
          "duration": 0.0625000000000071
        },
        {
          "name": "G5",
          "midi": 79,
          "time": 49.15625000000011,
          "velocity": 0.6614173228346457,
          "duration": 0.1041666666666714
        },
        {
          "name": "G3",
          "midi": 55,
          "time": 49.16145833333344,
          "velocity": 0.5354330708661418,
          "duration": 0.8229166666666856
        },
        {
          "name": "B4",
          "midi": 71,
          "time": 49.16145833333344,
          "velocity": 0.6614173228346457,
          "duration": 0.0833333333333357
        },
        {
          "name": "G2",
          "midi": 43,
          "time": 49.16145833333344,
          "velocity": 0.5590551181102362,
          "duration": 0.7500000000000142
        },
        {
          "name": "D3",
          "midi": 50,
          "time": 49.16145833333344,
          "velocity": 0.6062992125984252,
          "duration": 0.7708333333333499
        },
        {
          "name": "G1",
          "midi": 31,
          "time": 49.17708333333344,
          "velocity": 0.4881889763779528,
          "duration": 0.7291666666666785
        },
        {
          "name": "G4",
          "midi": 67,
          "time": 49.52604166666678,
          "velocity": 0.5511811023622047,
          "duration": 0.0625000000000071
        },
        {
          "name": "B4",
          "midi": 71,
          "time": 49.52604166666678,
          "velocity": 0.5511811023622047,
          "duration": 0.06770833333334281
        },
        {
          "name": "D5",
          "midi": 74,
          "time": 49.52604166666678,
          "velocity": 0.47244094488188976,
          "duration": 0.06770833333334281
        },
        {
          "name": "G5",
          "midi": 79,
          "time": 49.531250000000114,
          "velocity": 0.6614173228346457,
          "duration": 0.1197916666666714
        },
        {
          "name": "B4",
          "midi": 71,
          "time": 49.53645833333345,
          "velocity": 0.6456692913385826,
          "duration": 0.4218750000000142
        },
        {
          "name": "A5",
          "midi": 81,
          "time": 49.71875000000012,
          "velocity": 0.6456692913385826,
          "duration": 0.171875
        },
        {
          "name": "D5",
          "midi": 74,
          "time": 49.901041666666785,
          "velocity": 0.5118110236220472,
          "duration": 0.05208333333334281
        },
        {
          "name": "B4",
          "midi": 71,
          "time": 49.901041666666785,
          "velocity": 0.5118110236220472,
          "duration": 0.07291666666667851
        },
        {
          "name": "G4",
          "midi": 67,
          "time": 49.901041666666785,
          "velocity": 0.4645669291338583,
          "duration": 0.06250000000001421
        },
        {
          "name": "G5",
          "midi": 79,
          "time": 49.90625000000012,
          "velocity": 0.6062992125984252,
          "duration": 0.11458333333334281
        },
        {
          "name": "G2",
          "midi": 43,
          "time": 49.92708333333346,
          "velocity": 0.5748031496062992,
          "duration": 0.3593750000000142
        },
        {
          "name": "F5",
          "midi": 77,
          "time": 50.09375000000013,
          "velocity": 0.5590551181102362,
          "duration": 0.0625
        },
        {
          "name": "G4",
          "midi": 67,
          "time": 50.2760416666668,
          "velocity": 0.5118110236220472,
          "duration": 0.0729166666666714
        },
        {
          "name": "C5",
          "midi": 72,
          "time": 50.2760416666668,
          "velocity": 0.5826771653543307,
          "duration": 0.0729166666666714
        },
        {
          "name": "E5",
          "midi": 76,
          "time": 50.2760416666668,
          "velocity": 0.5511811023622047,
          "duration": 0.0677083333333357
        },
        {
          "name": "C3",
          "midi": 48,
          "time": 50.281250000000135,
          "velocity": 0.5354330708661418,
          "duration": 0.5729166666666785
        },
        {
          "name": "C4",
          "midi": 60,
          "time": 50.28645833333347,
          "velocity": 0.5354330708661418,
          "duration": 0.8020833333333499
        },
        {
          "name": "E5",
          "midi": 76,
          "time": 50.28645833333347,
          "velocity": 0.6614173228346457,
          "duration": 0.28125
        },
        {
          "name": "G3",
          "midi": 55,
          "time": 50.28645833333347,
          "velocity": 0.5354330708661418,
          "duration": 0.8072916666666856
        },
        {
          "name": "G4",
          "midi": 67,
          "time": 50.28645833333347,
          "velocity": 0.6456692913385826,
          "duration": 0.3020833333333357
        },
        {
          "name": "C2",
          "midi": 36,
          "time": 50.30208333333347,
          "velocity": 0.5196850393700787,
          "duration": 0.1875
        },
        {
          "name": "G2",
          "midi": 43,
          "time": 50.48958333333347,
          "velocity": 0.5196850393700787,
          "duration": 0.2031250000000071
        },
        {
          "name": "G4",
          "midi": 67,
          "time": 50.651041666666806,
          "velocity": 0.5511811023622047,
          "duration": 0.0625000000000071
        },
        {
          "name": "C5",
          "midi": 72,
          "time": 50.651041666666806,
          "velocity": 0.5511811023622047,
          "duration": 0.0625000000000071
        },
        {
          "name": "E5",
          "midi": 76,
          "time": 50.651041666666806,
          "velocity": 0.4566929133858268,
          "duration": 0.057291666666671404
        },
        {
          "name": "C5",
          "midi": 72,
          "time": 50.65625000000014,
          "velocity": 0.6456692913385826,
          "duration": 0.0937500000000071
        },
        {
          "name": "C3",
          "midi": 48,
          "time": 50.67708333333348,
          "velocity": 0.5196850393700787,
          "duration": 0.4843750000000142
        },
        {
          "name": "D3",
          "midi": 50,
          "time": 50.86458333333348,
          "velocity": 0.4881889763779528,
          "duration": 0.1718750000000071
        },
        {
          "name": "C5",
          "midi": 72,
          "time": 51.02604166666681,
          "velocity": 0.4251968503937008,
          "duration": 0.07291666666667851
        },
        {
          "name": "G4",
          "midi": 67,
          "time": 51.02604166666681,
          "velocity": 0.4566929133858268,
          "duration": 0.057291666666671404
        },
        {
          "name": "E5",
          "midi": 76,
          "time": 51.02604166666681,
          "velocity": 0.4566929133858268,
          "duration": 0.09375000000001421
        },
        {
          "name": "C5",
          "midi": 72,
          "time": 51.03125000000015,
          "velocity": 0.6614173228346457,
          "duration": 0.08333333333334281
        },
        {
          "name": "C3",
          "midi": 48,
          "time": 51.052083333333485,
          "velocity": 0.5196850393700787,
          "duration": 0.1406250000000071
        },
        {
          "name": "A#2",
          "midi": 46,
          "time": 51.23958333333349,
          "velocity": 0.5196850393700787,
          "duration": 0.1770833333333428
        },
        {
          "name": "C#5",
          "midi": 73,
          "time": 51.40104166666683,
          "velocity": 0.5511811023622047,
          "duration": 0.0729166666666714
        },
        {
          "name": "E5",
          "midi": 76,
          "time": 51.40104166666683,
          "velocity": 0.6220472440944882,
          "duration": 0.0781250000000071
        },
        {
          "name": "A4",
          "midi": 69,
          "time": 51.40104166666683,
          "velocity": 0.5118110236220472,
          "duration": 0.057291666666671404
        },
        {
          "name": "A3",
          "midi": 57,
          "time": 51.40625000000016,
          "velocity": 0.5590551181102362,
          "duration": 1.0104166666666927
        },
        {
          "name": "A2",
          "midi": 45,
          "time": 51.4114583333335,
          "velocity": 0.5590551181102362,
          "duration": 0.7395833333333499
        },
        {
          "name": "A5",
          "midi": 81,
          "time": 51.4114583333335,
          "velocity": 0.6456692913385826,
          "duration": 0.0937500000000071
        },
        {
          "name": "C#5",
          "midi": 73,
          "time": 51.4114583333335,
          "velocity": 0.6062992125984252,
          "duration": 0.0885416666666714
        },
        {
          "name": "A2",
          "midi": 45,
          "time": 51.4270833333335,
          "velocity": 0.4881889763779528,
          "duration": 0.8125000000000284
        },
        {
          "name": "C#5",
          "midi": 73,
          "time": 51.77604166666684,
          "velocity": 0.47244094488188976,
          "duration": 0.0781250000000071
        },
        {
          "name": "A4",
          "midi": 69,
          "time": 51.77604166666684,
          "velocity": 0.4566929133858268,
          "duration": 0.0625000000000071
        },
        {
          "name": "E5",
          "midi": 76,
          "time": 51.77604166666684,
          "velocity": 0.4566929133858268,
          "duration": 0.057291666666671404
        },
        {
          "name": "A5",
          "midi": 81,
          "time": 51.78125000000018,
          "velocity": 0.6456692913385826,
          "duration": 0.2500000000000071
        },
        {
          "name": "C#5",
          "midi": 73,
          "time": 51.78645833333351,
          "velocity": 0.5354330708661418,
          "duration": 0.2291666666666714
        },
        {
          "name": "A#5",
          "midi": 82,
          "time": 51.968750000000185,
          "velocity": 0.6062992125984252,
          "duration": 0.1510416666666643
        },
        {
          "name": "C#5",
          "midi": 73,
          "time": 52.15104166666685,
          "velocity": 0.6220472440944882,
          "duration": 0.09895833333334281
        },
        {
          "name": "A4",
          "midi": 69,
          "time": 52.15104166666685,
          "velocity": 0.5118110236220472,
          "duration": 0.0625000000000071
        },
        {
          "name": "E5",
          "midi": 76,
          "time": 52.15104166666685,
          "velocity": 0.47244094488188976,
          "duration": 0.057291666666671404
        },
        {
          "name": "A5",
          "midi": 81,
          "time": 52.156250000000185,
          "velocity": 0.6062992125984252,
          "duration": 0.1354166666666714
        },
        {
          "name": "C#3",
          "midi": 49,
          "time": 52.16145833333352,
          "velocity": 0.5354330708661418,
          "duration": 0.2395833333333357
        },
        {
          "name": "C#2",
          "midi": 37,
          "time": 52.17708333333352,
          "velocity": 0.5196850393700787,
          "duration": 0.3593750000000142
        },
        {
          "name": "G5",
          "midi": 79,
          "time": 52.34375000000019,
          "velocity": 0.5354330708661418,
          "duration": 0.078125
        },
        {
          "name": "A4",
          "midi": 69,
          "time": 52.52604166666686,
          "velocity": 0.5118110236220472,
          "duration": 0.0677083333333357
        },
        {
          "name": "F5",
          "midi": 77,
          "time": 52.52604166666686,
          "velocity": 0.5511811023622047,
          "duration": 0.0781250000000071
        },
        {
          "name": "D5",
          "midi": 74,
          "time": 52.52604166666686,
          "velocity": 0.47244094488188976,
          "duration": 0.0729166666666714
        },
        {
          "name": "D3",
          "midi": 50,
          "time": 52.5312500000002,
          "velocity": 0.5590551181102362,
          "duration": 0.6822916666666714
        },
        {
          "name": "F5",
          "midi": 77,
          "time": 52.536458333333535,
          "velocity": 0.6614173228346457,
          "duration": 0.2916666666666714
        },
        {
          "name": "D5",
          "midi": 74,
          "time": 52.536458333333535,
          "velocity": 0.6456692913385826,
          "duration": 0.2708333333333357
        },
        {
          "name": "D2",
          "midi": 38,
          "time": 52.552083333333535,
          "velocity": 0.5196850393700787,
          "duration": 0.6927083333333357
        },
        {
          "name": "A4",
          "midi": 69,
          "time": 52.90104166666687,
          "velocity": 0.5118110236220472,
          "duration": 0.078125
        },
        {
          "name": "D5",
          "midi": 74,
          "time": 52.90104166666687,
          "velocity": 0.5511811023622047,
          "duration": 0.0625
        },
        {
          "name": "F5",
          "midi": 77,
          "time": 52.90104166666687,
          "velocity": 0.5511811023622047,
          "duration": 0.078125
        },
        {
          "name": "D5",
          "midi": 74,
          "time": 52.906250000000206,
          "velocity": 0.6614173228346457,
          "duration": 0.0885416666666643
        },
        {
          "name": "A4",
          "midi": 69,
          "time": 53.27604166666687,
          "velocity": 0.5511811023622047,
          "duration": 0.09375
        },
        {
          "name": "F5",
          "midi": 77,
          "time": 53.27604166666687,
          "velocity": 0.5511811023622047,
          "duration": 0.0885416666666643
        },
        {
          "name": "C5",
          "midi": 72,
          "time": 53.27604166666687,
          "velocity": 0.47244094488188976,
          "duration": 0.0572916666666643
        },
        {
          "name": "F3",
          "midi": 53,
          "time": 53.286458333333535,
          "velocity": 0.5354330708661418,
          "duration": 0.2552083333333357
        },
        {
          "name": "A2",
          "midi": 45,
          "time": 53.286458333333535,
          "velocity": 0.5354330708661418,
          "duration": 0.3385416666666714
        },
        {
          "name": "C5",
          "midi": 72,
          "time": 53.286458333333535,
          "velocity": 0.6614173228346457,
          "duration": 0.078125
        },
        {
          "name": "A1",
          "midi": 33,
          "time": 53.302083333333535,
          "velocity": 0.5748031496062992,
          "duration": 0.3541666666666714
        },
        {
          "name": "C5",
          "midi": 72,
          "time": 53.468750000000206,
          "velocity": 0.6456692913385826,
          "duration": 0.09375
        },
        {
          "name": "F5",
          "midi": 77,
          "time": 53.65104166666687,
          "velocity": 0.5118110236220472,
          "duration": 0.1041666666666714
        },
        {
          "name": "A#4",
          "midi": 70,
          "time": 53.65104166666687,
          "velocity": 0.47244094488188976,
          "duration": 0.0885416666666714
        },
        {
          "name": "D5",
          "midi": 74,
          "time": 53.65104166666687,
          "velocity": 0.47244094488188976,
          "duration": 0.0625000000000071
        },
        {
          "name": "A#2",
          "midi": 46,
          "time": 53.656250000000206,
          "velocity": 0.6456692913385826,
          "duration": 0.1041666666666714
        },
        {
          "name": "F3",
          "midi": 53,
          "time": 53.66145833333354,
          "velocity": 0.6062992125984252,
          "duration": 0.0989583333333357
        },
        {
          "name": "D5",
          "midi": 74,
          "time": 53.66145833333354,
          "velocity": 0.6456692913385826,
          "duration": 0.078125
        },
        {
          "name": "A#1",
          "midi": 34,
          "time": 53.67708333333354,
          "velocity": 0.4566929133858268,
          "duration": 0.140625
        },
        {
          "name": "F5",
          "midi": 77,
          "time": 54.02604166666688,
          "velocity": 0.5511811023622047,
          "duration": 0.08333333333334281
        },
        {
          "name": "A#4",
          "midi": 70,
          "time": 54.02604166666688,
          "velocity": 0.5511811023622047,
          "duration": 0.08854166666667851
        },
        {
          "name": "D5",
          "midi": 74,
          "time": 54.02604166666688,
          "velocity": 0.5511811023622047,
          "duration": 0.0625000000000071
        },
        {
          "name": "G5",
          "midi": 79,
          "time": 54.03125000000021,
          "velocity": 0.6614173228346457,
          "duration": 0.1093750000000071
        },
        {
          "name": "A#1",
          "midi": 34,
          "time": 54.05208333333355,
          "velocity": 0.5196850393700787,
          "duration": 0.1093750000000071
        },
        {
          "name": "G4",
          "midi": 67,
          "time": 54.40104166666689,
          "velocity": 0.5118110236220472,
          "duration": 0.0729166666666643
        },
        {
          "name": "E5",
          "midi": 76,
          "time": 54.40104166666689,
          "velocity": 0.47244094488188976,
          "duration": 0.0729166666666643
        },
        {
          "name": "C5",
          "midi": 72,
          "time": 54.40104166666689,
          "velocity": 0.4566929133858268,
          "duration": 0.0520833333333357
        },
        {
          "name": "C3",
          "midi": 48,
          "time": 54.40625000000023,
          "velocity": 0.5354330708661418,
          "duration": 0.10416666666665719
        },
        {
          "name": "E5",
          "midi": 76,
          "time": 54.41145833333356,
          "velocity": 0.6614173228346457,
          "duration": 0.08854166666665719
        },
        {
          "name": "G3",
          "midi": 55,
          "time": 54.41145833333356,
          "velocity": 0.5354330708661418,
          "duration": 0.09895833333332149
        },
        {
          "name": "G4",
          "midi": 67,
          "time": 54.41145833333356,
          "velocity": 0.6062992125984252,
          "duration": 0.07291666666665719
        },
        {
          "name": "C5",
          "midi": 72,
          "time": 54.41145833333356,
          "velocity": 0.5590551181102362,
          "duration": 0.052083333333328596
        },
        {
          "name": "C2",
          "midi": 36,
          "time": 54.42708333333356,
          "velocity": 0.5196850393700787,
          "duration": 0.08854166666665719
        },
        {
          "name": "F5",
          "midi": 77,
          "time": 54.776041666666885,
          "velocity": 0.4566929133858268,
          "duration": 0.2083333333333357
        },
        {
          "name": "A4",
          "midi": 69,
          "time": 54.776041666666885,
          "velocity": 0.3779527559055118,
          "duration": 0.1562500000000071
        },
        {
          "name": "C5",
          "midi": 72,
          "time": 54.776041666666885,
          "velocity": 0.31496062992125984,
          "duration": 0.1666666666666714
        },
        {
          "name": "C4",
          "midi": 60,
          "time": 54.78125000000022,
          "velocity": 0.5354330708661418,
          "duration": 0.2135416666666643
        },
        {
          "name": "F3",
          "midi": 53,
          "time": 54.78125000000022,
          "velocity": 0.5354330708661418,
          "duration": 0.1927083333333357
        },
        {
          "name": "F5",
          "midi": 77,
          "time": 54.786458333333556,
          "velocity": 0.6614173228346457,
          "duration": 0.6197916666666643
        },
        {
          "name": "A4",
          "midi": 69,
          "time": 54.786458333333556,
          "velocity": 0.5590551181102362,
          "duration": 0.625
        },
        {
          "name": "C5",
          "midi": 72,
          "time": 54.786458333333556,
          "velocity": 0.6456692913385826,
          "duration": 0.6302083333333357
        },
        {
          "name": "F2",
          "midi": 41,
          "time": 54.802083333333556,
          "velocity": 0.5196850393700787,
          "duration": 0.7760416666666714
        },
        {
          "name": "C4",
          "midi": 60,
          "time": 55.53125000000023,
          "velocity": 0.5590551181102362,
          "duration": 0.3697916666666643
        },
        {
          "name": "C5",
          "midi": 72,
          "time": 55.53125000000023,
          "velocity": 0.6614173228346457,
          "duration": 0.3229166666666643
        },
        {
          "name": "C6",
          "midi": 84,
          "time": 55.55208333333356,
          "velocity": 0.4645669291338583,
          "duration": 0.359375
        },
        {
          "name": "F2",
          "midi": 41,
          "time": 55.90104166666689,
          "velocity": 0.3464566929133858,
          "duration": 0.9270833333333499
        },
        {
          "name": "A3",
          "midi": 57,
          "time": 55.90104166666689,
          "velocity": 0.47244094488188976,
          "duration": 1.1041666666666856
        },
        {
          "name": "F4",
          "midi": 65,
          "time": 55.90625000000023,
          "velocity": 0.6062992125984252,
          "duration": 0.0833333333333357
        },
        {
          "name": "F5",
          "midi": 77,
          "time": 55.90625000000023,
          "velocity": 0.6456692913385826,
          "duration": 0.0833333333333357
        },
        {
          "name": "F1",
          "midi": 29,
          "time": 55.92708333333356,
          "velocity": 0.6299212598425197,
          "duration": 0.7447916666666785
        },
        {
          "name": "C5",
          "midi": 72,
          "time": 55.92708333333356,
          "velocity": 0.5433070866141733,
          "duration": 0.21875
        },
        {
          "name": "F6",
          "midi": 89,
          "time": 55.92708333333356,
          "velocity": 0.5118110236220472,
          "duration": 0.1041666666666643
        },
        {
          "name": "C4",
          "midi": 60,
          "time": 55.92708333333356,
          "velocity": 0.6062992125984252,
          "duration": 0.7500000000000142
        },
        {
          "name": "A2",
          "midi": 45,
          "time": 55.92708333333356,
          "velocity": 0.5590551181102362,
          "duration": 1.11458333333335
        },
        {
          "name": "A4",
          "midi": 69,
          "time": 56.11458333333356,
          "velocity": 0.4645669291338583,
          "duration": 0.203125
        },
        {
          "name": "F4",
          "midi": 65,
          "time": 56.28125000000023,
          "velocity": 0.5590551181102362,
          "duration": 0.1822916666666714
        },
        {
          "name": "F5",
          "midi": 77,
          "time": 56.28125000000023,
          "velocity": 0.6614173228346457,
          "duration": 0.1458333333333357
        },
        {
          "name": "F4",
          "midi": 65,
          "time": 56.30208333333356,
          "velocity": 0.30708661417322836,
          "duration": 0.2708333333333428
        },
        {
          "name": "F6",
          "midi": 89,
          "time": 56.30208333333356,
          "velocity": 0.5118110236220472,
          "duration": 0.1614583333333357
        },
        {
          "name": "G4",
          "midi": 67,
          "time": 56.468750000000234,
          "velocity": 0.5354330708661418,
          "duration": 0.1718750000000071
        },
        {
          "name": "G5",
          "midi": 79,
          "time": 56.468750000000234,
          "velocity": 0.5590551181102362,
          "duration": 0.1666666666666714
        },
        {
          "name": "C4",
          "midi": 60,
          "time": 56.48958333333357,
          "velocity": 0.31496062992125984,
          "duration": 0.5520833333333428
        },
        {
          "name": "G6",
          "midi": 91,
          "time": 56.48958333333357,
          "velocity": 0.4566929133858268,
          "duration": 0.2187500000000071
        },
        {
          "name": "F4",
          "midi": 65,
          "time": 56.65625000000024,
          "velocity": 0.5590551181102362,
          "duration": 0.1458333333333357
        },
        {
          "name": "F5",
          "midi": 77,
          "time": 56.65625000000024,
          "velocity": 0.5590551181102362,
          "duration": 0.140625
        },
        {
          "name": "F2",
          "midi": 41,
          "time": 56.67708333333358,
          "velocity": 0.5196850393700787,
          "duration": 0.375
        },
        {
          "name": "C5",
          "midi": 72,
          "time": 56.67708333333358,
          "velocity": 0.4409448818897638,
          "duration": 0.1979166666666643
        },
        {
          "name": "F6",
          "midi": 89,
          "time": 56.67708333333358,
          "velocity": 0.47244094488188976,
          "duration": 0.171875
        },
        {
          "name": "E4",
          "midi": 64,
          "time": 56.84375000000024,
          "velocity": 0.5354330708661418,
          "duration": 0.1354166666666714
        },
        {
          "name": "E5",
          "midi": 76,
          "time": 56.84375000000024,
          "velocity": 0.5590551181102362,
          "duration": 0.1302083333333357
        },
        {
          "name": "F1",
          "midi": 29,
          "time": 56.86458333333358,
          "velocity": 0.4881889763779528,
          "duration": 0.15625
        },
        {
          "name": "A4",
          "midi": 69,
          "time": 56.86458333333358,
          "velocity": 0.3700787401574803,
          "duration": 0.15625
        },
        {
          "name": "E6",
          "midi": 88,
          "time": 56.86458333333358,
          "velocity": 0.4881889763779528,
          "duration": 0.1614583333333357
        },
        {
          "name": "D4",
          "midi": 62,
          "time": 57.02604166666691,
          "velocity": 0.3779527559055118,
          "duration": 0.0729166666666714
        },
        {
          "name": "A#2",
          "midi": 46,
          "time": 57.02604166666691,
          "velocity": 0.33070866141732286,
          "duration": 0.5572916666666714
        },
        {
          "name": "D4",
          "midi": 62,
          "time": 57.03125000000025,
          "velocity": 0.5590551181102362,
          "duration": 0.4583333333333428
        },
        {
          "name": "D5",
          "midi": 74,
          "time": 57.03125000000025,
          "velocity": 0.6456692913385826,
          "duration": 0.046875
        },
        {
          "name": "D4",
          "midi": 62,
          "time": 57.05208333333358,
          "velocity": 0.5826771653543307,
          "duration": 0.7760416666666714
        },
        {
          "name": "A#2",
          "midi": 46,
          "time": 57.05208333333358,
          "velocity": 0.5748031496062992,
          "duration": 1.0729166666666714
        },
        {
          "name": "A#1",
          "midi": 34,
          "time": 57.05208333333358,
          "velocity": 0.5196850393700787,
          "duration": 0.1822916666666714
        },
        {
          "name": "D5",
          "midi": 74,
          "time": 57.05208333333358,
          "velocity": 0.5118110236220472,
          "duration": 0.2239583333333428
        },
        {
          "name": "D6",
          "midi": 86,
          "time": 57.05729166666691,
          "velocity": 0.47244094488188976,
          "duration": 0.0677083333333357
        },
        {
          "name": "F2",
          "midi": 41,
          "time": 57.239583333333584,
          "velocity": 0.5196850393700787,
          "duration": 0.1614583333333357
        },
        {
          "name": "A#4",
          "midi": 70,
          "time": 57.239583333333584,
          "velocity": 0.3543307086614173,
          "duration": 0.2864583333333357
        },
        {
          "name": "D5",
          "midi": 74,
          "time": 57.406250000000256,
          "velocity": 0.6614173228346457,
          "duration": 0.09375
        },
        {
          "name": "D4",
          "midi": 62,
          "time": 57.406250000000256,
          "velocity": 0.5354330708661418,
          "duration": 0.6562499999999929
        },
        {
          "name": "A#2",
          "midi": 46,
          "time": 57.42708333333359,
          "velocity": 0.4881889763779528,
          "duration": 0.7552083333333357
        },
        {
          "name": "F4",
          "midi": 65,
          "time": 57.42708333333359,
          "velocity": 0.41732283464566927,
          "duration": 0.1458333333333286
        },
        {
          "name": "D6",
          "midi": 86,
          "time": 57.42708333333359,
          "velocity": 0.5039370078740157,
          "duration": 0.0729166666666643
        },
        {
          "name": "C3",
          "midi": 48,
          "time": 57.614583333333584,
          "velocity": 0.4881889763779528,
          "duration": 0.171875
        },
        {
          "name": "D4",
          "midi": 62,
          "time": 57.614583333333584,
          "velocity": 0.3858267716535433,
          "duration": 0.5260416666666714
        },
        {
          "name": "D4",
          "midi": 62,
          "time": 57.78125000000025,
          "velocity": 0.6456692913385826,
          "duration": 0.3958333333333428
        },
        {
          "name": "D5",
          "midi": 74,
          "time": 57.78125000000025,
          "velocity": 0.6614173228346457,
          "duration": 0.234375
        },
        {
          "name": "D3",
          "midi": 50,
          "time": 57.802083333333584,
          "velocity": 0.5748031496062992,
          "duration": 0.1197916666666643
        },
        {
          "name": "D5",
          "midi": 74,
          "time": 57.802083333333584,
          "velocity": 0.48031496062992124,
          "duration": 0.328125
        },
        {
          "name": "D6",
          "midi": 86,
          "time": 57.802083333333584,
          "velocity": 0.48031496062992124,
          "duration": 0.3697916666666714
        },
        {
          "name": "F3",
          "midi": 53,
          "time": 57.989583333333584,
          "velocity": 0.5196850393700787,
          "duration": 0.1458333333333357
        },
        {
          "name": "A#4",
          "midi": 70,
          "time": 57.989583333333584,
          "velocity": 0.3779527559055118,
          "duration": 0.1770833333333357
        },
        {
          "name": "G2",
          "midi": 43,
          "time": 58.15104166666692,
          "velocity": 0.33070866141732286,
          "duration": 0.7708333333333499
        },
        {
          "name": "B3",
          "midi": 59,
          "time": 58.15104166666692,
          "velocity": 0.4251968503937008,
          "duration": 1.0781250000000355
        },
        {
          "name": "G4",
          "midi": 67,
          "time": 58.156250000000256,
          "velocity": 0.6456692913385826,
          "duration": 0.0781250000000071
        },
        {
          "name": "G5",
          "midi": 79,
          "time": 58.156250000000256,
          "velocity": 0.6456692913385826,
          "duration": 0.08333333333334281
        },
        {
          "name": "D4",
          "midi": 62,
          "time": 58.17708333333359,
          "velocity": 0.6299212598425197,
          "duration": 0.7708333333333499
        },
        {
          "name": "B2",
          "midi": 47,
          "time": 58.17708333333359,
          "velocity": 0.5118110236220472,
          "duration": 1.1302083333333712
        },
        {
          "name": "G3",
          "midi": 55,
          "time": 58.17708333333359,
          "velocity": 0.5196850393700787,
          "duration": 0.3854166666666714
        },
        {
          "name": "D5",
          "midi": 74,
          "time": 58.17708333333359,
          "velocity": 0.5118110236220472,
          "duration": 0.2135416666666714
        },
        {
          "name": "G6",
          "midi": 91,
          "time": 58.18229166666693,
          "velocity": 0.5118110236220472,
          "duration": 0.0729166666666714
        },
        {
          "name": "B4",
          "midi": 71,
          "time": 58.3645833333336,
          "velocity": 0.44881889763779526,
          "duration": 0.2552083333333286
        },
        {
          "name": "G4",
          "midi": 67,
          "time": 58.53125000000026,
          "velocity": 0.5590551181102362,
          "duration": 0.140625
        },
        {
          "name": "G5",
          "midi": 79,
          "time": 58.53125000000026,
          "velocity": 0.6614173228346457,
          "duration": 0.1458333333333357
        },
        {
          "name": "G2",
          "midi": 43,
          "time": 58.5520833333336,
          "velocity": 0.3937007874015748,
          "duration": 0.6875000000000213
        },
        {
          "name": "G4",
          "midi": 67,
          "time": 58.5520833333336,
          "velocity": 0.4251968503937008,
          "duration": 0.25
        },
        {
          "name": "G6",
          "midi": 91,
          "time": 58.5520833333336,
          "velocity": 0.5275590551181102,
          "duration": 0.1979166666666643
        },
        {
          "name": "A4",
          "midi": 69,
          "time": 58.71875000000026,
          "velocity": 0.5354330708661418,
          "duration": 0.1614583333333357
        },
        {
          "name": "A5",
          "midi": 81,
          "time": 58.71875000000026,
          "velocity": 0.6062992125984252,
          "duration": 0.15625
        },
        {
          "name": "D4",
          "midi": 62,
          "time": 58.7395833333336,
          "velocity": 0.4330708661417323,
          "duration": 0.5781250000000284
        },
        {
          "name": "A6",
          "midi": 93,
          "time": 58.7395833333336,
          "velocity": 0.5118110236220472,
          "duration": 0.1614583333333357
        },
        {
          "name": "G4",
          "midi": 67,
          "time": 58.90625000000027,
          "velocity": 0.5590551181102362,
          "duration": 0.1250000000000071
        },
        {
          "name": "G5",
          "midi": 79,
          "time": 58.90625000000027,
          "velocity": 0.5590551181102362,
          "duration": 0.1354166666666785
        },
        {
          "name": "D5",
          "midi": 74,
          "time": 58.927083333333606,
          "velocity": 0.48031496062992124,
          "duration": 0.1822916666666785
        },
        {
          "name": "G6",
          "midi": 91,
          "time": 58.927083333333606,
          "velocity": 0.49606299212598426,
          "duration": 0.1093750000000071
        },
        {
          "name": "G1",
          "midi": 31,
          "time": 58.927083333333606,
          "velocity": 0.5196850393700787,
          "duration": 0.3593750000000213
        },
        {
          "name": "F4",
          "midi": 65,
          "time": 59.093750000000284,
          "velocity": 0.5590551181102362,
          "duration": 0.1354166666666714
        },
        {
          "name": "F5",
          "midi": 77,
          "time": 59.093750000000284,
          "velocity": 0.6062992125984252,
          "duration": 0.1458333333333357
        },
        {
          "name": "B4",
          "midi": 71,
          "time": 59.11458333333362,
          "velocity": 0.41732283464566927,
          "duration": 0.140625
        },
        {
          "name": "F6",
          "midi": 89,
          "time": 59.11458333333362,
          "velocity": 0.4881889763779528,
          "duration": 0.1302083333333357
        },
        {
          "name": "C3",
          "midi": 48,
          "time": 59.276041666666956,
          "velocity": 0.4566929133858268,
          "duration": 0.7968750000000213
        },
        {
          "name": "E4",
          "midi": 64,
          "time": 59.276041666666956,
          "velocity": 0.5354330708661418,
          "duration": 0.3020833333333357
        },
        {
          "name": "E4",
          "midi": 64,
          "time": 59.28125000000029,
          "velocity": 0.5354330708661418,
          "duration": 0.7447916666666785
        },
        {
          "name": "E5",
          "midi": 76,
          "time": 59.28125000000029,
          "velocity": 0.6614173228346457,
          "duration": 0.203125
        },
        {
          "name": "C2",
          "midi": 36,
          "time": 59.30208333333363,
          "velocity": 0.5748031496062992,
          "duration": 0.5729166666666714
        },
        {
          "name": "E5",
          "midi": 76,
          "time": 59.30208333333363,
          "velocity": 0.5511811023622047,
          "duration": 0.3020833333333286
        },
        {
          "name": "E6",
          "midi": 88,
          "time": 59.30208333333363,
          "velocity": 0.5275590551181102,
          "duration": 0.3072916666666643
        },
        {
          "name": "E4",
          "midi": 64,
          "time": 59.30208333333363,
          "velocity": 0.6614173228346457,
          "duration": 0.7708333333333499
        },
        {
          "name": "C3",
          "midi": 48,
          "time": 59.30208333333363,
          "velocity": 0.5826771653543307,
          "duration": 0.8697916666666856
        },
        {
          "name": "C5",
          "midi": 72,
          "time": 59.48958333333363,
          "velocity": 0.44881889763779526,
          "duration": 0.2135416666666643
        },
        {
          "name": "C4",
          "midi": 60,
          "time": 59.65625000000029,
          "velocity": 0.5590551181102362,
          "duration": 0.0833333333333357
        },
        {
          "name": "C5",
          "midi": 72,
          "time": 59.65625000000029,
          "velocity": 0.6456692913385826,
          "duration": 0.0937500000000071
        },
        {
          "name": "G4",
          "midi": 67,
          "time": 59.67708333333363,
          "velocity": 0.3937007874015748,
          "duration": 0.2343750000000071
        },
        {
          "name": "C6",
          "midi": 84,
          "time": 59.67708333333363,
          "velocity": 0.48031496062992124,
          "duration": 0.0677083333333357
        },
        {
          "name": "G2",
          "midi": 43,
          "time": 59.864583333333634,
          "velocity": 0.4566929133858268,
          "duration": 0.2135416666666785
        },
        {
          "name": "E4",
          "midi": 64,
          "time": 59.864583333333634,
          "velocity": 0.4015748031496063,
          "duration": 0.4739583333333428
        },
        {
          "name": "C5",
          "midi": 72,
          "time": 60.031250000000306,
          "velocity": 0.6456692913385826,
          "duration": 0.3281250000000071
        },
        {
          "name": "C4",
          "midi": 60,
          "time": 60.031250000000306,
          "velocity": 0.5354330708661418,
          "duration": 0.3593750000000071
        },
        {
          "name": "C3",
          "midi": 48,
          "time": 60.05208333333364,
          "velocity": 0.5196850393700787,
          "duration": 0.3593750000000071
        },
        {
          "name": "E5",
          "midi": 76,
          "time": 60.05208333333364,
          "velocity": 0.4881889763779528,
          "duration": 0.1614583333333357
        },
        {
          "name": "C6",
          "midi": 84,
          "time": 60.05208333333364,
          "velocity": 0.3464566929133858,
          "duration": 0.3593750000000071
        },
        {
          "name": "A#2",
          "midi": 46,
          "time": 60.23958333333364,
          "velocity": 0.5748031496062992,
          "duration": 0.1197916666666714
        },
        {
          "name": "C5",
          "midi": 72,
          "time": 60.23958333333364,
          "velocity": 0.44881889763779526,
          "duration": 0.1666666666666714
        },
        {
          "name": "C#4",
          "midi": 61,
          "time": 60.40104166666698,
          "velocity": 0.47244094488188976,
          "duration": 0.7656250000000284
        },
        {
          "name": "G4",
          "midi": 67,
          "time": 60.40104166666698,
          "velocity": 0.3937007874015748,
          "duration": 0.6458333333333499
        },
        {
          "name": "A5",
          "midi": 81,
          "time": 60.40104166666698,
          "velocity": 0.5511811023622047,
          "duration": 0.0885416666666714
        },
        {
          "name": "A5",
          "midi": 81,
          "time": 60.40625000000031,
          "velocity": 0.6614173228346457,
          "duration": 0.0885416666666714
        },
        {
          "name": "A4",
          "midi": 69,
          "time": 60.40625000000031,
          "velocity": 0.6456692913385826,
          "duration": 0.0833333333333357
        },
        {
          "name": "A2",
          "midi": 45,
          "time": 60.42708333333365,
          "velocity": 0.5748031496062992,
          "duration": 0.359375
        },
        {
          "name": "E5",
          "midi": 76,
          "time": 60.42708333333365,
          "velocity": 0.5196850393700787,
          "duration": 0.2291666666666643
        },
        {
          "name": "A6",
          "midi": 93,
          "time": 60.42708333333365,
          "velocity": 0.5275590551181102,
          "duration": 0.109375
        },
        {
          "name": "C#3",
          "midi": 49,
          "time": 60.42708333333365,
          "velocity": 0.6299212598425197,
          "duration": 1.1093750000000213
        },
        {
          "name": "E4",
          "midi": 64,
          "time": 60.42708333333365,
          "velocity": 0.6614173228346457,
          "duration": 0.7812500000000213
        },
        {
          "name": "C#5",
          "midi": 73,
          "time": 60.61458333333365,
          "velocity": 0.48031496062992124,
          "duration": 0.2604166666666643
        },
        {
          "name": "A5",
          "midi": 81,
          "time": 60.77604166666698,
          "velocity": 0.5511811023622047,
          "duration": 0.1197916666666714
        },
        {
          "name": "A4",
          "midi": 69,
          "time": 60.78125000000031,
          "velocity": 0.5354330708661418,
          "duration": 0.1510416666666714
        },
        {
          "name": "A5",
          "midi": 81,
          "time": 60.78125000000031,
          "velocity": 0.6456692913385826,
          "duration": 0.1562500000000071
        },
        {
          "name": "A1",
          "midi": 33,
          "time": 60.80208333333365,
          "velocity": 0.5748031496062992,
          "duration": 0.364583333333357
        },
        {
          "name": "G4",
          "midi": 67,
          "time": 60.80208333333365,
          "velocity": 0.4881889763779528,
          "duration": 0.3750000000000213
        },
        {
          "name": "A6",
          "midi": 93,
          "time": 60.80208333333365,
          "velocity": 0.5196850393700787,
          "duration": 0.2239583333333428
        },
        {
          "name": "A#5",
          "midi": 82,
          "time": 60.963541666666984,
          "velocity": 0.4566929133858268,
          "duration": 0.11458333333334281
        },
        {
          "name": "A#5",
          "midi": 82,
          "time": 60.96875000000032,
          "velocity": 0.6614173228346457,
          "duration": 0.1510416666666785
        },
        {
          "name": "A#4",
          "midi": 70,
          "time": 60.96875000000032,
          "velocity": 0.5354330708661418,
          "duration": 0.1458333333333428
        },
        {
          "name": "E4",
          "midi": 64,
          "time": 60.989583333333655,
          "velocity": 0.4645669291338583,
          "duration": 0.5104166666666785
        },
        {
          "name": "A#6",
          "midi": 94,
          "time": 60.989583333333655,
          "velocity": 0.5039370078740157,
          "duration": 0.1718750000000142
        },
        {
          "name": "A5",
          "midi": 81,
          "time": 61.151041666667,
          "velocity": 0.5511811023622047,
          "duration": 0.1302083333333357
        },
        {
          "name": "A3",
          "midi": 57,
          "time": 61.151041666667,
          "velocity": 0.3779527559055118,
          "duration": 0.2500000000000071
        },
        {
          "name": "A4",
          "midi": 69,
          "time": 61.156250000000334,
          "velocity": 0.5354330708661418,
          "duration": 0.140625
        },
        {
          "name": "A5",
          "midi": 81,
          "time": 61.156250000000334,
          "velocity": 0.6456692913385826,
          "duration": 0.140625
        },
        {
          "name": "C#2",
          "midi": 37,
          "time": 61.17708333333367,
          "velocity": 0.4881889763779528,
          "duration": 0.390625
        },
        {
          "name": "E5",
          "midi": 76,
          "time": 61.17708333333367,
          "velocity": 0.5118110236220472,
          "duration": 0.28125
        },
        {
          "name": "A6",
          "midi": 93,
          "time": 61.17708333333367,
          "velocity": 0.4881889763779528,
          "duration": 0.1302083333333286
        },
        {
          "name": "G5",
          "midi": 79,
          "time": 61.338541666667,
          "velocity": 0.47244094488188976,
          "duration": 0.1302083333333357
        },
        {
          "name": "G4",
          "midi": 67,
          "time": 61.343750000000334,
          "velocity": 0.6456692913385826,
          "duration": 0.1041666666666714
        },
        {
          "name": "G5",
          "midi": 79,
          "time": 61.343750000000334,
          "velocity": 0.5590551181102362,
          "duration": 0.1354166666666643
        },
        {
          "name": "G4",
          "midi": 67,
          "time": 61.36458333333367,
          "velocity": 0.5118110236220472,
          "duration": 0.09375
        },
        {
          "name": "G6",
          "midi": 91,
          "time": 61.36458333333367,
          "velocity": 0.4645669291338583,
          "duration": 0.1302083333333286
        },
        {
          "name": "D4",
          "midi": 62,
          "time": 61.526041666667,
          "velocity": 0.3779527559055118,
          "duration": 0.4635416666666856
        },
        {
          "name": "F5",
          "midi": 77,
          "time": 61.526041666667,
          "velocity": 0.47244094488188976,
          "duration": 0.1770833333333357
        },
        {
          "name": "F4",
          "midi": 65,
          "time": 61.526041666667,
          "velocity": 0.25196850393700787,
          "duration": 0.3125000000000071
        },
        {
          "name": "F5",
          "midi": 77,
          "time": 61.531250000000334,
          "velocity": 0.6456692913385826,
          "duration": 0.2447916666666714
        },
        {
          "name": "F4",
          "midi": 65,
          "time": 61.531250000000334,
          "velocity": 0.5354330708661418,
          "duration": 0.4166666666666785
        },
        {
          "name": "F5",
          "midi": 77,
          "time": 61.55208333333367,
          "velocity": 0.5669291338582677,
          "duration": 0.2864583333333357
        },
        {
          "name": "F4",
          "midi": 65,
          "time": 61.55208333333367,
          "velocity": 0.6220472440944882,
          "duration": 0.9270833333333641
        },
        {
          "name": "D3",
          "midi": 50,
          "time": 61.55208333333367,
          "velocity": 0.5826771653543307,
          "duration": 0.4739583333333499
        },
        {
          "name": "D2",
          "midi": 38,
          "time": 61.55208333333367,
          "velocity": 0.5196850393700787,
          "duration": 0.4010416666666785
        },
        {
          "name": "F6",
          "midi": 89,
          "time": 61.55208333333367,
          "velocity": 0.49606299212598426,
          "duration": 0.28125
        },
        {
          "name": "G5",
          "midi": 79,
          "time": 61.73958333333367,
          "velocity": 0.5039370078740157,
          "duration": 0.1510416666666714
        },
        {
          "name": "D5",
          "midi": 74,
          "time": 61.901041666667005,
          "velocity": 0.6220472440944882,
          "duration": 0.07291666666667851
        },
        {
          "name": "D4",
          "midi": 62,
          "time": 61.90625000000034,
          "velocity": 0.6062992125984252,
          "duration": 0.1458333333333428
        },
        {
          "name": "D5",
          "midi": 74,
          "time": 61.90625000000034,
          "velocity": 0.6614173228346457,
          "duration": 0.08333333333334281
        },
        {
          "name": "A6",
          "midi": 93,
          "time": 61.92708333333368,
          "velocity": 0.5118110236220472,
          "duration": 0.3229166666666785
        },
        {
          "name": "A5",
          "midi": 81,
          "time": 61.92708333333368,
          "velocity": 0.5118110236220472,
          "duration": 0.1927083333333428
        },
        {
          "name": "D3",
          "midi": 50,
          "time": 61.92708333333368,
          "velocity": 0.5196850393700787,
          "duration": 0.4947916666666856
        },
        {
          "name": "F5",
          "midi": 77,
          "time": 62.114583333333684,
          "velocity": 0.6141732283464567,
          "duration": 0.2083333333333428
        },
        {
          "name": "D2",
          "midi": 38,
          "time": 62.114583333333684,
          "velocity": 0.5511811023622047,
          "duration": 0.1510416666666714
        },
        {
          "name": "A3",
          "midi": 57,
          "time": 62.27604166666702,
          "velocity": 0.6614173228346457,
          "duration": 0.2656250000000071
        },
        {
          "name": "C5",
          "midi": 72,
          "time": 62.27604166666702,
          "velocity": 0.6614173228346457,
          "duration": 0.05208333333334281
        },
        {
          "name": "F4",
          "midi": 65,
          "time": 62.27604166666702,
          "velocity": 0.41732283464566927,
          "duration": 0.2395833333333428
        },
        {
          "name": "C4",
          "midi": 60,
          "time": 62.281250000000355,
          "velocity": 0.7244094488188977,
          "duration": 0.0781250000000071
        },
        {
          "name": "C5",
          "midi": 72,
          "time": 62.281250000000355,
          "velocity": 0.7244094488188977,
          "duration": 0.0937500000000071
        },
        {
          "name": "F6",
          "midi": 89,
          "time": 62.30208333333369,
          "velocity": 0.5669291338582677,
          "duration": 0.1041666666666714
        },
        {
          "name": "E5",
          "midi": 76,
          "time": 62.30208333333369,
          "velocity": 0.5984251968503937,
          "duration": 0.1250000000000071
        },
        {
          "name": "A1",
          "midi": 33,
          "time": 62.30208333333369,
          "velocity": 0.5826771653543307,
          "duration": 0.3229166666666714
        },
        {
          "name": "C5",
          "midi": 72,
          "time": 62.463541666667034,
          "velocity": 0.5669291338582677,
          "duration": 0.062499999999992895
        },
        {
          "name": "C4",
          "midi": 60,
          "time": 62.46875000000037,
          "velocity": 0.6456692913385826,
          "duration": 0.05729166666665719
        },
        {
          "name": "C5",
          "midi": 72,
          "time": 62.46875000000037,
          "velocity": 0.6456692913385826,
          "duration": 0.11979166666665719
        },
        {
          "name": "F6",
          "midi": 89,
          "time": 62.4895833333337,
          "velocity": 0.4409448818897638,
          "duration": 0.140625
        },
        {
          "name": "D5",
          "midi": 74,
          "time": 62.4895833333337,
          "velocity": 0.5826771653543307,
          "duration": 0.1302083333333286
        },
        {
          "name": "D5",
          "midi": 74,
          "time": 62.651041666667034,
          "velocity": 0.7007874015748031,
          "duration": 0.0677083333333357
        },
        {
          "name": "A#4",
          "midi": 70,
          "time": 62.651041666667034,
          "velocity": 0.5118110236220472,
          "duration": 0.0520833333333357
        },
        {
          "name": "A#3",
          "midi": 58,
          "time": 62.651041666667034,
          "velocity": 0.5669291338582677,
          "duration": 0.0625
        },
        {
          "name": "F4",
          "midi": 65,
          "time": 62.651041666667034,
          "velocity": 0.5118110236220472,
          "duration": 0.0677083333333357
        },
        {
          "name": "A#3",
          "midi": 58,
          "time": 62.65625000000037,
          "velocity": 0.7244094488188977,
          "duration": 0.0677083333333357
        },
        {
          "name": "A#4",
          "midi": 70,
          "time": 62.65625000000037,
          "velocity": 0.7952755905511811,
          "duration": 0.0833333333333357
        },
        {
          "name": "D5",
          "midi": 74,
          "time": 62.661458333333705,
          "velocity": 0.7716535433070866,
          "duration": 0.0729166666666643
        },
        {
          "name": "A#1",
          "midi": 34,
          "time": 62.677083333333705,
          "velocity": 0.6220472440944882,
          "duration": 0.7916666666666785
        },
        {
          "name": "A#6",
          "midi": 94,
          "time": 62.677083333333705,
          "velocity": 0.6141732283464567,
          "duration": 0.1510416666666643
        },
        {
          "name": "F5",
          "midi": 77,
          "time": 62.677083333333705,
          "velocity": 0.6141732283464567,
          "duration": 0.140625
        },
        {
          "name": "F4",
          "midi": 65,
          "time": 62.677083333333705,
          "velocity": 0.7952755905511811,
          "duration": 0.078125
        },
        {
          "name": "A#3",
          "midi": 58,
          "time": 63.026041666667034,
          "velocity": 0.7007874015748031,
          "duration": 0.0937500000000071
        },
        {
          "name": "F4",
          "midi": 65,
          "time": 63.026041666667034,
          "velocity": 0.5669291338582677,
          "duration": 0.0625000000000071
        },
        {
          "name": "G5",
          "midi": 79,
          "time": 63.03125000000037,
          "velocity": 0.7007874015748031,
          "duration": 0.0677083333333357
        },
        {
          "name": "A#4",
          "midi": 70,
          "time": 63.03125000000037,
          "velocity": 0.7007874015748031,
          "duration": 0.0885416666666714
        },
        {
          "name": "D5",
          "midi": 74,
          "time": 63.03125000000037,
          "velocity": 0.7007874015748031,
          "duration": 0.0729166666666714
        },
        {
          "name": "A#3",
          "midi": 58,
          "time": 63.036458333333705,
          "velocity": 0.7716535433070866,
          "duration": 0.0833333333333357
        },
        {
          "name": "G5",
          "midi": 79,
          "time": 63.036458333333705,
          "velocity": 0.7952755905511811,
          "duration": 0.0885416666666714
        },
        {
          "name": "A#4",
          "midi": 70,
          "time": 63.036458333333705,
          "velocity": 0.7952755905511811,
          "duration": 0.0989583333333357
        },
        {
          "name": "D4",
          "midi": 62,
          "time": 63.05729166666704,
          "velocity": 0.8110236220472441,
          "duration": 0.1145833333333357
        },
        {
          "name": "A#2",
          "midi": 46,
          "time": 63.05729166666704,
          "velocity": 0.6220472440944882,
          "duration": 0.3645833333333357
        },
        {
          "name": "G6",
          "midi": 91,
          "time": 63.05729166666704,
          "velocity": 0.5826771653543307,
          "duration": 0.1979166666666714
        },
        {
          "name": "D5",
          "midi": 74,
          "time": 63.06250000000038,
          "velocity": 0.5984251968503937,
          "duration": 0.1458333333333357
        },
        {
          "name": "C3",
          "midi": 48,
          "time": 63.45312500000038,
          "velocity": 0.7007874015748031,
          "duration": 0.10416666666667851
        },
        {
          "name": "C4",
          "midi": 60,
          "time": 63.45833333333371,
          "velocity": 0.6614173228346457,
          "duration": 0.06770833333334281
        },
        {
          "name": "G3",
          "midi": 55,
          "time": 63.45833333333371,
          "velocity": 0.7480314960629921,
          "duration": 0.05729166666667851
        },
        {
          "name": "G4",
          "midi": 67,
          "time": 63.45833333333371,
          "velocity": 0.7007874015748031,
          "duration": 0.0937500000000071
        },
        {
          "name": "E5",
          "midi": 76,
          "time": 63.45833333333371,
          "velocity": 0.6614173228346457,
          "duration": 0.09895833333334281
        },
        {
          "name": "C5",
          "midi": 72,
          "time": 63.45833333333371,
          "velocity": 0.6614173228346457,
          "duration": 0.0781250000000071
        },
        {
          "name": "C4",
          "midi": 60,
          "time": 63.46354166666705,
          "velocity": 0.7952755905511811,
          "duration": 0.09895833333334281
        },
        {
          "name": "G3",
          "midi": 55,
          "time": 63.46354166666705,
          "velocity": 0.7716535433070866,
          "duration": 0.0885416666666714
        },
        {
          "name": "C3",
          "midi": 48,
          "time": 63.468750000000384,
          "velocity": 0.7716535433070866,
          "duration": 0.1041666666666714
        },
        {
          "name": "E5",
          "midi": 76,
          "time": 63.468750000000384,
          "velocity": 0.7716535433070866,
          "duration": 0.1093750000000071
        },
        {
          "name": "G4",
          "midi": 67,
          "time": 63.468750000000384,
          "velocity": 0.7952755905511811,
          "duration": 0.0833333333333357
        },
        {
          "name": "C5",
          "midi": 72,
          "time": 63.468750000000384,
          "velocity": 0.7244094488188977,
          "duration": 0.0885416666666714
        },
        {
          "name": "G4",
          "midi": 67,
          "time": 63.48958333333372,
          "velocity": 0.7874015748031497,
          "duration": 0.1145833333333357
        },
        {
          "name": "C2",
          "midi": 36,
          "time": 63.48958333333372,
          "velocity": 0.6220472440944882,
          "duration": 0.140625
        },
        {
          "name": "C7",
          "midi": 96,
          "time": 63.48958333333372,
          "velocity": 0.6535433070866141,
          "duration": 0.1510416666666643
        },
        {
          "name": "C5",
          "midi": 72,
          "time": 63.494791666667055,
          "velocity": 0.6535433070866141,
          "duration": 0.1510416666666643
        },
        {
          "name": "F5",
          "midi": 77,
          "time": 63.95833333333372,
          "velocity": 0.5669291338582677,
          "duration": 0.7239583333333357
        },
        {
          "name": "C5",
          "midi": 72,
          "time": 63.95833333333372,
          "velocity": 0.41732283464566927,
          "duration": 0.7864583333333357
        },
        {
          "name": "A4",
          "midi": 69,
          "time": 63.963541666667055,
          "velocity": 0.5118110236220472,
          "duration": 0.8177083333333286
        },
        {
          "name": "C4",
          "midi": 60,
          "time": 63.963541666667055,
          "velocity": 0.41732283464566927,
          "duration": 0.796875
        },
        {
          "name": "F3",
          "midi": 53,
          "time": 63.963541666667055,
          "velocity": 0.41732283464566927,
          "duration": 0.7760416666666714
        },
        {
          "name": "F5",
          "midi": 77,
          "time": 63.96875000000039,
          "velocity": 0.7716535433070866,
          "duration": 0.7968749999999929
        },
        {
          "name": "C5",
          "midi": 72,
          "time": 63.96875000000039,
          "velocity": 0.6692913385826772,
          "duration": 0.9999999999999929
        },
        {
          "name": "A4",
          "midi": 69,
          "time": 63.97395833333373,
          "velocity": 0.6692913385826772,
          "duration": 0.8541666666666572
        },
        {
          "name": "F3",
          "midi": 53,
          "time": 63.97395833333373,
          "velocity": 0.7244094488188977,
          "duration": 1.0572916666666714
        },
        {
          "name": "C3",
          "midi": 48,
          "time": 63.97395833333373,
          "velocity": 0.6456692913385826,
          "duration": 1.03125
        },
        {
          "name": "F2",
          "midi": 41,
          "time": 63.97395833333373,
          "velocity": 0.6692913385826772,
          "duration": 1.0416666666666714
        },
        {
          "name": "A4",
          "midi": 69,
          "time": 64.0000000000004,
          "velocity": 0.7874015748031497,
          "duration": 0.9791666666666572
        },
        {
          "name": "F1",
          "midi": 29,
          "time": 64.0000000000004,
          "velocity": 0.6929133858267716,
          "duration": 1.25
        },
        {
          "name": "A6",
          "midi": 93,
          "time": 64.0000000000004,
          "velocity": 0.6062992125984252,
          "duration": 0.3333333333333286
        },
        {
          "name": "F5",
          "midi": 77,
          "time": 64.00520833333373,
          "velocity": 0.6062992125984252,
          "duration": 0.9374999999999858
        }
      ],
      "controlChanges": {
        "7": [
          {
            "number": 7,
            "time": 0.8645833333333334,
            "value": 0.9448818897637795
          },
          {
            "number": 7,
            "time": 0.8854166666666666,
            "value": 0.9448818897637795
          },
          {
            "number": 7,
            "time": 0.8958333333333333,
            "value": 0.9448818897637795
          },
          {
            "number": 7,
            "time": 0.9218749999999999,
            "value": 0.9921259842519685
          },
          {
            "number": 7,
            "time": 0.9322916666666665,
            "value": 0.9448818897637795
          }
        ],
        "10": [
          {
            "number": 10,
            "time": 0.9374999999999999,
            "value": 0.47244094488188976
          },
          {
            "number": 10,
            "time": 0.9479166666666666,
            "value": 0.4251968503937008
          },
          {
            "number": 10,
            "time": 0.953125,
            "value": 0.6614173228346457
          },
          {
            "number": 10,
            "time": 0.953125,
            "value": 0.5669291338582677
          },
          {
            "number": 10,
            "time": 0.9583333333333334,
            "value": 0.5826771653543307
          }
        ],
        "32": [
          {
            "number": 32,
            "time": 0.8229166666666666,
            "value": 0
          },
          {
            "number": 32,
            "time": 0.84375,
            "value": 0
          },
          {
            "number": 32,
            "time": 0.8489583333333334,
            "value": 0
          },
          {
            "number": 32,
            "time": 0.8541666666666667,
            "value": 0
          },
          {
            "number": 32,
            "time": 0.8541666666666667,
            "value": 0
          }
        ],
        "64": [
          {
            "number": 64,
            "time": 9.984375000000002,
            "value": 1
          },
          {
            "number": 64,
            "time": 10.406250000000004,
            "value": 0
          },
          {
            "number": 64,
            "time": 18.921875000000004,
            "value": 1
          },
          {
            "number": 64,
            "time": 19.45833333333334,
            "value": 0
          },
          {
            "number": 64,
            "time": 20.00520833333334,
            "value": 1
          },
          {
            "number": 64,
            "time": 21.005208333333343,
            "value": 0
          },
          {
            "number": 64,
            "time": 21.317708333333343,
            "value": 1
          },
          {
            "number": 64,
            "time": 22.114583333333353,
            "value": 0
          },
          {
            "number": 64,
            "time": 22.317708333333353,
            "value": 1
          },
          {
            "number": 64,
            "time": 22.526041666666682,
            "value": 0
          },
          {
            "number": 64,
            "time": 22.671875000000014,
            "value": 1
          },
          {
            "number": 64,
            "time": 22.812500000000018,
            "value": 0
          },
          {
            "number": 64,
            "time": 23.046875000000018,
            "value": 1
          },
          {
            "number": 64,
            "time": 23.250000000000018,
            "value": 0
          },
          {
            "number": 64,
            "time": 23.541666666666682,
            "value": 1
          },
          {
            "number": 64,
            "time": 23.968750000000018,
            "value": 0
          },
          {
            "number": 64,
            "time": 25.29687500000002,
            "value": 1
          },
          {
            "number": 64,
            "time": 25.52604166666669,
            "value": 0
          },
          {
            "number": 64,
            "time": 25.937500000000025,
            "value": 1
          },
          {
            "number": 64,
            "time": 26.22395833333336,
            "value": 0
          },
          {
            "number": 64,
            "time": 26.34895833333336,
            "value": 1
          },
          {
            "number": 64,
            "time": 26.5260416666667,
            "value": 0
          },
          {
            "number": 64,
            "time": 27.875000000000036,
            "value": 1
          },
          {
            "number": 64,
            "time": 28.447916666666703,
            "value": 0
          },
          {
            "number": 64,
            "time": 29.713541666666686,
            "value": 1
          },
          {
            "number": 64,
            "time": 29.953125000000014,
            "value": 0
          },
          {
            "number": 64,
            "time": 30.791666666666668,
            "value": 1
          },
          {
            "number": 64,
            "time": 31.109375000000004,
            "value": 0
          },
          {
            "number": 64,
            "time": 36.927083333333314,
            "value": 1
          },
          {
            "number": 64,
            "time": 37.421874999999986,
            "value": 0
          },
          {
            "number": 64,
            "time": 37.96354166666666,
            "value": 1
          },
          {
            "number": 64,
            "time": 38.24479166666665,
            "value": 0
          },
          {
            "number": 64,
            "time": 38.42187499999998,
            "value": 1
          },
          {
            "number": 64,
            "time": 38.598958333333314,
            "value": 0
          },
          {
            "number": 64,
            "time": 38.723958333333314,
            "value": 1
          },
          {
            "number": 64,
            "time": 38.927083333333314,
            "value": 0
          },
          {
            "number": 64,
            "time": 39.27604166666665,
            "value": 1
          },
          {
            "number": 64,
            "time": 40.124999999999986,
            "value": 0
          },
          {
            "number": 64,
            "time": 40.302083333333314,
            "value": 1
          },
          {
            "number": 64,
            "time": 40.505208333333314,
            "value": 0
          },
          {
            "number": 64,
            "time": 40.656249999999986,
            "value": 1
          },
          {
            "number": 64,
            "time": 40.82812499999998,
            "value": 0
          },
          {
            "number": 64,
            "time": 40.973958333333314,
            "value": 1
          },
          {
            "number": 64,
            "time": 41.23437499999998,
            "value": 0
          },
          {
            "number": 64,
            "time": 41.49999999999998,
            "value": 1
          },
          {
            "number": 64,
            "time": 41.984374999999986,
            "value": 0
          },
          {
            "number": 64,
            "time": 42.67187499999999,
            "value": 1
          },
          {
            "number": 64,
            "time": 43.08333333333334,
            "value": 0
          },
          {
            "number": 64,
            "time": 43.994791666666686,
            "value": 1
          },
          {
            "number": 64,
            "time": 44.51562500000002,
            "value": 0
          },
          {
            "number": 64,
            "time": 45.89583333333339,
            "value": 1
          },
          {
            "number": 64,
            "time": 46.41666666666672,
            "value": 0
          },
          {
            "number": 64,
            "time": 47.697916666666735,
            "value": 1
          },
          {
            "number": 64,
            "time": 47.92708333333341,
            "value": 0
          },
          {
            "number": 64,
            "time": 48.79687500000009,
            "value": 1
          },
          {
            "number": 64,
            "time": 49.08854166666677,
            "value": 0
          },
          {
            "number": 64,
            "time": 49.93229166666679,
            "value": 1
          },
          {
            "number": 64,
            "time": 50.177083333333464,
            "value": 0
          },
          {
            "number": 64,
            "time": 51.036458333333485,
            "value": 1
          },
          {
            "number": 64,
            "time": 51.35416666666683,
            "value": 0
          },
          {
            "number": 64,
            "time": 52.23437500000019,
            "value": 1
          },
          {
            "number": 64,
            "time": 52.44270833333353,
            "value": 0
          },
          {
            "number": 64,
            "time": 54.895833333333556,
            "value": 1
          },
          {
            "number": 64,
            "time": 55.40625000000022,
            "value": 0
          }
        ],
        "91": [
          {
            "number": 91,
            "time": 0.9374999999999999,
            "value": 0.4330708661417323
          },
          {
            "number": 91,
            "time": 0.9479166666666666,
            "value": 0.6299212598425197
          },
          {
            "number": 91,
            "time": 0.9479166666666666,
            "value": 0.5118110236220472
          },
          {
            "number": 91,
            "time": 0.953125,
            "value": 0.5511811023622047
          },
          {
            "number": 91,
            "time": 0.953125,
            "value": 0.4330708661417323
          }
        ],
        "93": [
          {
            "number": 93,
            "time": 0.9374999999999999,
            "value": 0
          },
          {
            "number": 93,
            "time": 0.9427083333333333,
            "value": 0
          },
          {
            "number": 93,
            "time": 0.9479166666666666,
            "value": 0
          },
          {
            "number": 93,
            "time": 0.953125,
            "value": 0
          },
          {
            "number": 93,
            "time": 0.9583333333333334,
            "value": 0
          }
        ],
        "121": [
          {
            "number": 121,
            "time": 0.828125,
            "value": 0
          },
          {
            "number": 121,
            "time": 0.84375,
            "value": 0
          },
          {
            "number": 121,
            "time": 0.8489583333333334,
            "value": 0
          },
          {
            "number": 121,
            "time": 0.8541666666666667,
            "value": 0
          },
          {
            "number": 121,
            "time": 0.8541666666666667,
            "value": 0
          }
        ]
      },
      "id": 0,
      "instrumentNumber": 32,
      "instrument": "acoustic bass",
      "instrumentFamily": "bass",
      "channelNumber": 2,
      "isPercussion": false
    }
  ]
}
