{
  "header": {
    "PPQ": 192,
    "timeSignature": [
      3,
      4
    ],
    "bpm": 144.00023040036865,
    "name": "tom1                "
  },
  "startTime": 0,
  "duration": 50.72908550000006,
  "tracks": [
    {
      "startTime": 0,
      "duration": 0,
      "length": 0,
      "notes": [],
      "controlChanges": {},
      "id": 0
    },
    {
      "startTime": 0.833332,
      "duration": 50.72908550000006,
      "length": 146,
      "notes": [
        {
          "name": "D#4",
          "midi": 63,
          "time": 0.833332,
          "velocity": 0.7086614173228346,
          "duration": 0.416666
        },
        {
          "name": "G#4",
          "midi": 68,
          "time": 1.249998,
          "velocity": 0.7086614173228346,
          "duration": 0.416666
        },
        {
          "name": "G#4",
          "midi": 68,
          "time": 1.666664,
          "velocity": 0.7086614173228346,
          "duration": 0.2083330000000001
        },
        {
          "name": "A#4",
          "midi": 70,
          "time": 1.874997,
          "velocity": 0.7086614173228346,
          "duration": 0.2083330000000001
        },
        {
          "name": "G#4",
          "midi": 68,
          "time": 2.08333,
          "velocity": 0.7086614173228346,
          "duration": 0.2083330000000001
        },
        {
          "name": "G4",
          "midi": 67,
          "time": 2.2916630000000002,
          "velocity": 0.7086614173228346,
          "duration": 0.2083330000000001
        },
        {
          "name": "F4",
          "midi": 65,
          "time": 2.4999960000000003,
          "velocity": 0.7086614173228346,
          "duration": 0.4166660000000002
        },
        {
          "name": "F4",
          "midi": 65,
          "time": 2.9166620000000005,
          "velocity": 0.7086614173228346,
          "duration": 0.31249949999999993
        },
        {
          "name": "F4",
          "midi": 65,
          "time": 3.3333280000000003,
          "velocity": 0.7086614173228346,
          "duration": 0.41666599999999976
        },
        {
          "name": "A#4",
          "midi": 70,
          "time": 3.749994,
          "velocity": 0.7086614173228346,
          "duration": 0.4166660000000002
        },
        {
          "name": "A#4",
          "midi": 70,
          "time": 4.16666,
          "velocity": 0.7086614173228346,
          "duration": 0.20833299999999966
        },
        {
          "name": "C5",
          "midi": 72,
          "time": 4.374993,
          "velocity": 0.7086614173228346,
          "duration": 0.20833299999999966
        },
        {
          "name": "A#4",
          "midi": 70,
          "time": 4.583326,
          "velocity": 0.7086614173228346,
          "duration": 0.20833299999999966
        },
        {
          "name": "G#4",
          "midi": 68,
          "time": 4.791658999999999,
          "velocity": 0.7086614173228346,
          "duration": 0.20833299999999966
        },
        {
          "name": "G4",
          "midi": 67,
          "time": 4.999991999999999,
          "velocity": 0.7086614173228346,
          "duration": 0.4166660000000002
        },
        {
          "name": "D#4",
          "midi": 63,
          "time": 5.416657999999999,
          "velocity": 0.7086614173228346,
          "duration": 0.3124995000000004
        },
        {
          "name": "D#4",
          "midi": 63,
          "time": 5.833323999999999,
          "velocity": 0.7086614173228346,
          "duration": 0.4166660000000002
        },
        {
          "name": "C5",
          "midi": 72,
          "time": 6.2499899999999995,
          "velocity": 0.7086614173228346,
          "duration": 0.4166660000000002
        },
        {
          "name": "C5",
          "midi": 72,
          "time": 6.666656,
          "velocity": 0.7086614173228346,
          "duration": 0.20833299999999966
        },
        {
          "name": "C#5",
          "midi": 73,
          "time": 6.874988999999999,
          "velocity": 0.7086614173228346,
          "duration": 0.20833299999999966
        },
        {
          "name": "C5",
          "midi": 72,
          "time": 7.083321999999999,
          "velocity": 0.7086614173228346,
          "duration": 0.20833299999999966
        },
        {
          "name": "A#4",
          "midi": 70,
          "time": 7.291654999999999,
          "velocity": 0.7086614173228346,
          "duration": 0.20833299999999966
        },
        {
          "name": "G#4",
          "midi": 68,
          "time": 7.499987999999998,
          "velocity": 0.7086614173228346,
          "duration": 0.4166660000000002
        },
        {
          "name": "F4",
          "midi": 65,
          "time": 7.9166539999999985,
          "velocity": 0.7086614173228346,
          "duration": 0.3124995000000004
        },
        {
          "name": "D#4",
          "midi": 63,
          "time": 8.333319999999999,
          "velocity": 0.7086614173228346,
          "duration": 0.20833299999999966
        },
        {
          "name": "D#4",
          "midi": 63,
          "time": 8.541652999999998,
          "velocity": 0.7086614173228346,
          "duration": 0.20833299999999966
        },
        {
          "name": "F4",
          "midi": 65,
          "time": 8.749985999999998,
          "velocity": 0.7086614173228346,
          "duration": 0.3124994999999995
        },
        {
          "name": "A#4",
          "midi": 70,
          "time": 9.166651999999997,
          "velocity": 0.7086614173228346,
          "duration": 0.3124994999999995
        },
        {
          "name": "G4",
          "midi": 67,
          "time": 9.583317999999997,
          "velocity": 0.7086614173228346,
          "duration": 0.3124994999999995
        },
        {
          "name": "G#4",
          "midi": 68,
          "time": 9.999983999999996,
          "velocity": 0.7086614173228346,
          "duration": 0.7291655000000006
        },
        {
          "name": "D#5",
          "midi": 75,
          "time": 10.833315999999996,
          "velocity": 0.7086614173228346,
          "duration": 0.20833299999999966
        },
        {
          "name": "F5",
          "midi": 77,
          "time": 11.041648999999996,
          "velocity": 0.7086614173228346,
          "duration": 0.10416649999999983
        },
        {
          "name": "G5",
          "midi": 79,
          "time": 11.145815499999996,
          "velocity": 0.7086614173228346,
          "duration": 0.10416649999999983
        },
        {
          "name": "G#5",
          "midi": 80,
          "time": 11.249981999999996,
          "velocity": 0.7086614173228346,
          "duration": 0.4166659999999993
        },
        {
          "name": "G#5",
          "midi": 80,
          "time": 11.666647999999995,
          "velocity": 0.7086614173228346,
          "duration": 0.20833299999999966
        },
        {
          "name": "A#5",
          "midi": 82,
          "time": 11.874980999999995,
          "velocity": 0.7086614173228346,
          "duration": 0.20833299999999966
        },
        {
          "name": "G#5",
          "midi": 80,
          "time": 12.083313999999994,
          "velocity": 0.7086614173228346,
          "duration": 0.20833299999999966
        },
        {
          "name": "G5",
          "midi": 79,
          "time": 12.291646999999994,
          "velocity": 0.7086614173228346,
          "duration": 0.20833299999999966
        },
        {
          "name": "F5",
          "midi": 77,
          "time": 12.499979999999994,
          "velocity": 0.7086614173228346,
          "duration": 0.4166659999999993
        },
        {
          "name": "F5",
          "midi": 77,
          "time": 12.916645999999993,
          "velocity": 0.7086614173228346,
          "duration": 0.3124994999999995
        },
        {
          "name": "F5",
          "midi": 77,
          "time": 13.333311999999992,
          "velocity": 0.7086614173228346,
          "duration": 0.4166659999999993
        },
        {
          "name": "A#5",
          "midi": 82,
          "time": 13.749977999999992,
          "velocity": 0.7086614173228346,
          "duration": 0.4166659999999993
        },
        {
          "name": "A#5",
          "midi": 82,
          "time": 14.166643999999991,
          "velocity": 0.7086614173228346,
          "duration": 0.20833299999999966
        },
        {
          "name": "C6",
          "midi": 84,
          "time": 14.37497699999999,
          "velocity": 0.7086614173228346,
          "duration": 0.20833299999999966
        },
        {
          "name": "A#5",
          "midi": 82,
          "time": 14.58330999999999,
          "velocity": 0.7086614173228346,
          "duration": 0.20833299999999966
        },
        {
          "name": "G#5",
          "midi": 80,
          "time": 14.79164299999999,
          "velocity": 0.7086614173228346,
          "duration": 0.20833299999999966
        },
        {
          "name": "G5",
          "midi": 79,
          "time": 14.99997599999999,
          "velocity": 0.7086614173228346,
          "duration": 0.4166659999999993
        },
        {
          "name": "D#5",
          "midi": 75,
          "time": 15.416641999999989,
          "velocity": 0.7086614173228346,
          "duration": 0.3124994999999995
        },
        {
          "name": "D#5",
          "midi": 75,
          "time": 15.833307999999988,
          "velocity": 0.7086614173228346,
          "duration": 0.4166659999999993
        },
        {
          "name": "C6",
          "midi": 84,
          "time": 16.249973999999987,
          "velocity": 0.7086614173228346,
          "duration": 0.4166659999999993
        },
        {
          "name": "C6",
          "midi": 84,
          "time": 16.666639999999987,
          "velocity": 0.7086614173228346,
          "duration": 0.20833299999999966
        },
        {
          "name": "C#6",
          "midi": 85,
          "time": 16.874972999999986,
          "velocity": 0.7086614173228346,
          "duration": 0.20833299999999966
        },
        {
          "name": "C6",
          "midi": 84,
          "time": 17.083305999999986,
          "velocity": 0.7086614173228346,
          "duration": 0.20833299999999966
        },
        {
          "name": "A#5",
          "midi": 82,
          "time": 17.291638999999986,
          "velocity": 0.7086614173228346,
          "duration": 0.20833299999999966
        },
        {
          "name": "G#5",
          "midi": 80,
          "time": 17.499971999999985,
          "velocity": 0.7086614173228346,
          "duration": 0.4166659999999993
        },
        {
          "name": "F5",
          "midi": 77,
          "time": 17.916637999999985,
          "velocity": 0.7086614173228346,
          "duration": 0.31249950000000126
        },
        {
          "name": "D#5",
          "midi": 75,
          "time": 18.333303999999988,
          "velocity": 0.7086614173228346,
          "duration": 0.20833299999999966
        },
        {
          "name": "D#5",
          "midi": 75,
          "time": 18.541636999999987,
          "velocity": 0.7086614173228346,
          "duration": 0.20833299999999966
        },
        {
          "name": "F5",
          "midi": 77,
          "time": 18.749969999999987,
          "velocity": 0.7086614173228346,
          "duration": 0.31249950000000126
        },
        {
          "name": "A#5",
          "midi": 82,
          "time": 19.16663599999999,
          "velocity": 0.7086614173228346,
          "duration": 0.31249950000000126
        },
        {
          "name": "G5",
          "midi": 79,
          "time": 19.583301999999993,
          "velocity": 0.7086614173228346,
          "duration": 0.31249950000000126
        },
        {
          "name": "G#5",
          "midi": 80,
          "time": 19.999967999999996,
          "velocity": 0.7086614173228346,
          "duration": 0.7291655000000006
        },
        {
          "name": "D#4",
          "midi": 63,
          "time": 20.833299999999998,
          "velocity": 0.7086614173228346,
          "duration": 0.4166659999999993
        },
        {
          "name": "G#4",
          "midi": 68,
          "time": 21.249965999999997,
          "velocity": 0.7086614173228346,
          "duration": 0.4166659999999993
        },
        {
          "name": "G#4",
          "midi": 68,
          "time": 21.666631999999996,
          "velocity": 0.7086614173228346,
          "duration": 0.4166659999999993
        },
        {
          "name": "G#4",
          "midi": 68,
          "time": 22.083297999999996,
          "velocity": 0.7086614173228346,
          "duration": 0.4166659999999993
        },
        {
          "name": "G4",
          "midi": 67,
          "time": 22.499963999999995,
          "velocity": 0.7086614173228346,
          "duration": 0.8333319999999986
        },
        {
          "name": "G4",
          "midi": 67,
          "time": 23.333295999999994,
          "velocity": 0.7086614173228346,
          "duration": 0.4166659999999993
        },
        {
          "name": "G#4",
          "midi": 68,
          "time": 23.749961999999993,
          "velocity": 0.7086614173228346,
          "duration": 0.4166659999999993
        },
        {
          "name": "G4",
          "midi": 67,
          "time": 24.166627999999992,
          "velocity": 0.7086614173228346,
          "duration": 0.4166659999999993
        },
        {
          "name": "F4",
          "midi": 65,
          "time": 24.58329399999999,
          "velocity": 0.7086614173228346,
          "duration": 0.4166659999999993
        },
        {
          "name": "D#4",
          "midi": 63,
          "time": 24.99995999999999,
          "velocity": 0.7086614173228346,
          "duration": 0.7291655000000006
        },
        {
          "name": "A#4",
          "midi": 70,
          "time": 25.833291999999993,
          "velocity": 0.7086614173228346,
          "duration": 0.4166659999999993
        },
        {
          "name": "C5",
          "midi": 72,
          "time": 26.249957999999992,
          "velocity": 0.7086614173228346,
          "duration": 0.4166659999999993
        },
        {
          "name": "A#4",
          "midi": 70,
          "time": 26.66662399999999,
          "velocity": 0.7086614173228346,
          "duration": 0.4166659999999993
        },
        {
          "name": "G#4",
          "midi": 68,
          "time": 27.08328999999999,
          "velocity": 0.7086614173228346,
          "duration": 0.4166659999999993
        },
        {
          "name": "D#5",
          "midi": 75,
          "time": 27.49995599999999,
          "velocity": 0.7086614173228346,
          "duration": 0.4166659999999993
        },
        {
          "name": "D#4",
          "midi": 63,
          "time": 27.91662199999999,
          "velocity": 0.7086614173228346,
          "duration": 0.4166659999999993
        },
        {
          "name": "D#4",
          "midi": 63,
          "time": 28.33328799999999,
          "velocity": 0.7086614173228346,
          "duration": 0.20833299999999966
        },
        {
          "name": "D#4",
          "midi": 63,
          "time": 28.54162099999999,
          "velocity": 0.7086614173228346,
          "duration": 0.20833299999999966
        },
        {
          "name": "F4",
          "midi": 65,
          "time": 28.74995399999999,
          "velocity": 0.7086614173228346,
          "duration": 0.31249950000000126
        },
        {
          "name": "A#4",
          "midi": 70,
          "time": 29.16661999999999,
          "velocity": 0.7086614173228346,
          "duration": 0.31249950000000126
        },
        {
          "name": "G4",
          "midi": 67,
          "time": 29.583285999999994,
          "velocity": 0.7086614173228346,
          "duration": 0.31249950000000126
        },
        {
          "name": "G#4",
          "midi": 68,
          "time": 29.999951999999997,
          "velocity": 0.7086614173228346,
          "duration": 0.7291655000000006
        },
        {
          "name": "D#4",
          "midi": 63,
          "time": 30.833284,
          "velocity": 0.7086614173228346,
          "duration": 0.4166659999999993
        },
        {
          "name": "G#4",
          "midi": 68,
          "time": 31.24995,
          "velocity": 0.7086614173228346,
          "duration": 0.4166659999999993
        },
        {
          "name": "G#4",
          "midi": 68,
          "time": 31.666615999999998,
          "velocity": 0.7086614173228346,
          "duration": 0.20833299999999966
        },
        {
          "name": "A#4",
          "midi": 70,
          "time": 31.874948999999997,
          "velocity": 0.7086614173228346,
          "duration": 0.20833299999999966
        },
        {
          "name": "G#4",
          "midi": 68,
          "time": 32.083282,
          "velocity": 0.7086614173228346,
          "duration": 0.2083330000000032
        },
        {
          "name": "G4",
          "midi": 67,
          "time": 32.291615,
          "velocity": 0.7086614173228346,
          "duration": 0.2083330000000032
        },
        {
          "name": "F4",
          "midi": 65,
          "time": 32.499948,
          "velocity": 0.7086614173228346,
          "duration": 0.4166659999999993
        },
        {
          "name": "F4",
          "midi": 65,
          "time": 32.916614,
          "velocity": 0.7086614173228346,
          "duration": 0.31249950000000126
        },
        {
          "name": "F4",
          "midi": 65,
          "time": 33.33328,
          "velocity": 0.7086614173228346,
          "duration": 0.4166659999999993
        },
        {
          "name": "A#4",
          "midi": 70,
          "time": 33.749946,
          "velocity": 0.7086614173228346,
          "duration": 0.4166659999999993
        },
        {
          "name": "A#4",
          "midi": 70,
          "time": 34.166612,
          "velocity": 0.7086614173228346,
          "duration": 0.2083330000000032
        },
        {
          "name": "C5",
          "midi": 72,
          "time": 34.374945000000004,
          "velocity": 0.7086614173228346,
          "duration": 0.2083330000000032
        },
        {
          "name": "A#4",
          "midi": 70,
          "time": 34.58327800000001,
          "velocity": 0.7086614173228346,
          "duration": 0.2083330000000032
        },
        {
          "name": "G#4",
          "midi": 68,
          "time": 34.79161100000001,
          "velocity": 0.7086614173228346,
          "duration": 0.2083330000000032
        },
        {
          "name": "G4",
          "midi": 67,
          "time": 34.99994400000001,
          "velocity": 0.7086614173228346,
          "duration": 0.4166659999999993
        },
        {
          "name": "D#4",
          "midi": 63,
          "time": 35.41661000000001,
          "velocity": 0.7086614173228346,
          "duration": 0.31249950000000126
        },
        {
          "name": "D#4",
          "midi": 63,
          "time": 35.83327600000001,
          "velocity": 0.7086614173228346,
          "duration": 0.4166659999999993
        },
        {
          "name": "C5",
          "midi": 72,
          "time": 36.24994200000001,
          "velocity": 0.7086614173228346,
          "duration": 0.4166659999999993
        },
        {
          "name": "C5",
          "midi": 72,
          "time": 36.66660800000001,
          "velocity": 0.7086614173228346,
          "duration": 0.2083330000000032
        },
        {
          "name": "C#5",
          "midi": 73,
          "time": 36.874941000000014,
          "velocity": 0.7086614173228346,
          "duration": 0.2083330000000032
        },
        {
          "name": "C5",
          "midi": 72,
          "time": 37.08327400000002,
          "velocity": 0.7086614173228346,
          "duration": 0.2083330000000032
        },
        {
          "name": "A#4",
          "midi": 70,
          "time": 37.29160700000002,
          "velocity": 0.7086614173228346,
          "duration": 0.2083330000000032
        },
        {
          "name": "G#4",
          "midi": 68,
          "time": 37.499940000000024,
          "velocity": 0.7086614173228346,
          "duration": 0.4166659999999993
        },
        {
          "name": "F4",
          "midi": 65,
          "time": 37.91660600000002,
          "velocity": 0.7086614173228346,
          "duration": 0.31249950000000126
        },
        {
          "name": "D#4",
          "midi": 63,
          "time": 38.33327200000002,
          "velocity": 0.7086614173228346,
          "duration": 0.2083330000000032
        },
        {
          "name": "D#4",
          "midi": 63,
          "time": 38.541605000000025,
          "velocity": 0.7086614173228346,
          "duration": 0.2083330000000032
        },
        {
          "name": "F4",
          "midi": 65,
          "time": 38.74993800000003,
          "velocity": 0.7086614173228346,
          "duration": 0.31249950000000126
        },
        {
          "name": "A#4",
          "midi": 70,
          "time": 39.16660400000003,
          "velocity": 0.7086614173228346,
          "duration": 0.31249950000000126
        },
        {
          "name": "G4",
          "midi": 67,
          "time": 39.58327000000003,
          "velocity": 0.7086614173228346,
          "duration": 0.31249950000000126
        },
        {
          "name": "G#4",
          "midi": 68,
          "time": 39.99993600000003,
          "velocity": 0.7086614173228346,
          "duration": 0.7291655000000006
        },
        {
          "name": "F#5",
          "midi": 78,
          "time": 40.833268000000025,
          "velocity": 0.7086614173228346,
          "duration": 0.2083330000000032
        },
        {
          "name": "G#5",
          "midi": 80,
          "time": 41.04160100000003,
          "velocity": 0.7086614173228346,
          "duration": 0.10416649999999805
        },
        {
          "name": "A#5",
          "midi": 82,
          "time": 41.14576750000003,
          "velocity": 0.7086614173228346,
          "duration": 0.10416649999999805
        },
        {
          "name": "B5",
          "midi": 83,
          "time": 41.249934000000025,
          "velocity": 0.7086614173228346,
          "duration": 0.4166659999999993
        },
        {
          "name": "B5",
          "midi": 83,
          "time": 41.666600000000024,
          "velocity": 0.7086614173228346,
          "duration": 0.2083330000000032
        },
        {
          "name": "C#6",
          "midi": 85,
          "time": 41.87493300000003,
          "velocity": 0.7086614173228346,
          "duration": 0.2083330000000032
        },
        {
          "name": "B5",
          "midi": 83,
          "time": 42.08326600000003,
          "velocity": 0.7086614173228346,
          "duration": 0.2083330000000032
        },
        {
          "name": "A#5",
          "midi": 82,
          "time": 42.29159900000003,
          "velocity": 0.7086614173228346,
          "duration": 0.2083330000000032
        },
        {
          "name": "G#5",
          "midi": 80,
          "time": 42.49993200000004,
          "velocity": 0.7086614173228346,
          "duration": 0.4166659999999993
        },
        {
          "name": "G#5",
          "midi": 80,
          "time": 42.916598000000036,
          "velocity": 0.7086614173228346,
          "duration": 0.31249950000000126
        },
        {
          "name": "G#5",
          "midi": 80,
          "time": 43.333264000000035,
          "velocity": 0.7086614173228346,
          "duration": 0.4166659999999993
        },
        {
          "name": "C#6",
          "midi": 85,
          "time": 43.749930000000035,
          "velocity": 0.7086614173228346,
          "duration": 0.4166659999999993
        },
        {
          "name": "C#6",
          "midi": 85,
          "time": 44.166596000000034,
          "velocity": 0.7086614173228346,
          "duration": 0.2083330000000032
        },
        {
          "name": "D#6",
          "midi": 87,
          "time": 44.37492900000004,
          "velocity": 0.7086614173228346,
          "duration": 0.2083330000000032
        },
        {
          "name": "C#6",
          "midi": 85,
          "time": 44.58326200000004,
          "velocity": 0.7086614173228346,
          "duration": 0.2083330000000032
        },
        {
          "name": "B5",
          "midi": 83,
          "time": 44.791595000000044,
          "velocity": 0.7086614173228346,
          "duration": 0.2083330000000032
        },
        {
          "name": "A#5",
          "midi": 82,
          "time": 44.99992800000005,
          "velocity": 0.7086614173228346,
          "duration": 0.4166659999999993
        },
        {
          "name": "F#5",
          "midi": 78,
          "time": 45.416594000000046,
          "velocity": 0.7086614173228346,
          "duration": 0.31249950000000126
        },
        {
          "name": "F#5",
          "midi": 78,
          "time": 45.833260000000045,
          "velocity": 0.7086614173228346,
          "duration": 0.4166659999999993
        },
        {
          "name": "D#6",
          "midi": 87,
          "time": 46.249926000000045,
          "velocity": 0.7086614173228346,
          "duration": 0.4166659999999993
        },
        {
          "name": "D#6",
          "midi": 87,
          "time": 46.666592000000044,
          "velocity": 0.7086614173228346,
          "duration": 0.2083330000000032
        },
        {
          "name": "E6",
          "midi": 88,
          "time": 46.87492500000005,
          "velocity": 0.7086614173228346,
          "duration": 0.2083330000000032
        },
        {
          "name": "D#6",
          "midi": 87,
          "time": 47.08325800000005,
          "velocity": 0.7086614173228346,
          "duration": 0.2083330000000032
        },
        {
          "name": "C#6",
          "midi": 85,
          "time": 47.291591000000054,
          "velocity": 0.7086614173228346,
          "duration": 0.2083330000000032
        },
        {
          "name": "B5",
          "midi": 83,
          "time": 47.49992400000006,
          "velocity": 0.7086614173228346,
          "duration": 0.4166659999999993
        },
        {
          "name": "G#5",
          "midi": 80,
          "time": 47.916590000000056,
          "velocity": 0.7086614173228346,
          "duration": 0.31249950000000126
        },
        {
          "name": "F#5",
          "midi": 78,
          "time": 48.333256000000056,
          "velocity": 0.7086614173228346,
          "duration": 0.2083330000000032
        },
        {
          "name": "F#5",
          "midi": 78,
          "time": 48.54158900000006,
          "velocity": 0.7086614173228346,
          "duration": 0.2083330000000032
        },
        {
          "name": "G#5",
          "midi": 80,
          "time": 48.74992200000006,
          "velocity": 0.7086614173228346,
          "duration": 0.31249950000000126
        },
        {
          "name": "C#6",
          "midi": 85,
          "time": 49.16658800000006,
          "velocity": 0.7086614173228346,
          "duration": 0.31249950000000126
        },
        {
          "name": "A#5",
          "midi": 82,
          "time": 49.58325400000006,
          "velocity": 0.7086614173228346,
          "duration": 0.31249950000000126
        },
        {
          "name": "B5",
          "midi": 83,
          "time": 49.99992000000006,
          "velocity": 0.7086614173228346,
          "duration": 0.7291655000000006
        }
      ],
      "controlChanges": {},
      "id": 1,
      "name": "trumpet3            ",
      "instrumentNumber": 0,
      "instrument": "acoustic grand piano",
      "instrumentFamily": "piano",
      "channelNumber": 0,
      "isPercussion": false
    },
    {
      "startTime": 10.833316,
      "duration": 50.72908550000004,
      "length": 64,
      "notes": [
        {
          "name": "G4",
          "midi": 67,
          "time": 10.833316,
          "velocity": 0.7086614173228346,
          "duration": 0.20833299999999966
        },
        {
          "name": "G#4",
          "midi": 68,
          "time": 11.041649,
          "velocity": 0.7086614173228346,
          "duration": 0.10416649999999983
        },
        {
          "name": "A#4",
          "midi": 70,
          "time": 11.1458155,
          "velocity": 0.7086614173228346,
          "duration": 0.10416649999999983
        },
        {
          "name": "C5",
          "midi": 72,
          "time": 11.249982,
          "velocity": 0.7086614173228346,
          "duration": 0.4166659999999993
        },
        {
          "name": "C5",
          "midi": 72,
          "time": 11.666647999999999,
          "velocity": 0.7086614173228346,
          "duration": 0.20833299999999966
        },
        {
          "name": "C#5",
          "midi": 73,
          "time": 11.874980999999998,
          "velocity": 0.7086614173228346,
          "duration": 0.20833299999999966
        },
        {
          "name": "C5",
          "midi": 72,
          "time": 12.083313999999998,
          "velocity": 0.7086614173228346,
          "duration": 0.20833299999999966
        },
        {
          "name": "A#4",
          "midi": 70,
          "time": 12.291646999999998,
          "velocity": 0.7086614173228346,
          "duration": 0.20833299999999966
        },
        {
          "name": "G#4",
          "midi": 68,
          "time": 12.499979999999997,
          "velocity": 0.7086614173228346,
          "duration": 0.4166659999999993
        },
        {
          "name": "G#4",
          "midi": 68,
          "time": 12.916645999999997,
          "velocity": 0.7086614173228346,
          "duration": 0.3124994999999995
        },
        {
          "name": "A4",
          "midi": 69,
          "time": 13.333311999999996,
          "velocity": 0.7086614173228346,
          "duration": 0.4166659999999993
        },
        {
          "name": "D5",
          "midi": 74,
          "time": 13.749977999999995,
          "velocity": 0.7086614173228346,
          "duration": 0.4166659999999993
        },
        {
          "name": "D5",
          "midi": 74,
          "time": 14.166643999999994,
          "velocity": 0.7086614173228346,
          "duration": 0.20833299999999966
        },
        {
          "name": "D#5",
          "midi": 75,
          "time": 14.374976999999994,
          "velocity": 0.7086614173228346,
          "duration": 0.20833299999999966
        },
        {
          "name": "D5",
          "midi": 74,
          "time": 14.583309999999994,
          "velocity": 0.7086614173228346,
          "duration": 0.20833299999999966
        },
        {
          "name": "C5",
          "midi": 72,
          "time": 14.791642999999993,
          "velocity": 0.7086614173228346,
          "duration": 0.20833299999999966
        },
        {
          "name": "A#4",
          "midi": 70,
          "time": 14.999975999999993,
          "velocity": 0.7086614173228346,
          "duration": 0.4166659999999993
        },
        {
          "name": "G4",
          "midi": 67,
          "time": 15.416641999999992,
          "velocity": 0.7086614173228346,
          "duration": 0.3124994999999995
        },
        {
          "name": "G4",
          "midi": 67,
          "time": 15.833307999999992,
          "velocity": 0.7086614173228346,
          "duration": 0.4166659999999993
        },
        {
          "name": "E5",
          "midi": 76,
          "time": 16.24997399999999,
          "velocity": 0.7086614173228346,
          "duration": 0.4166659999999993
        },
        {
          "name": "E5",
          "midi": 76,
          "time": 16.66663999999999,
          "velocity": 0.7086614173228346,
          "duration": 0.20833299999999966
        },
        {
          "name": "F5",
          "midi": 77,
          "time": 16.87497299999999,
          "velocity": 0.7086614173228346,
          "duration": 0.20833299999999966
        },
        {
          "name": "E5",
          "midi": 76,
          "time": 17.08330599999999,
          "velocity": 0.7086614173228346,
          "duration": 0.20833299999999966
        },
        {
          "name": "C#5",
          "midi": 73,
          "time": 17.29163899999999,
          "velocity": 0.7086614173228346,
          "duration": 0.20833299999999966
        },
        {
          "name": "C5",
          "midi": 72,
          "time": 17.49997199999999,
          "velocity": 0.7086614173228346,
          "duration": 0.4166659999999993
        },
        {
          "name": "C#5",
          "midi": 73,
          "time": 17.91663799999999,
          "velocity": 0.7086614173228346,
          "duration": 0.31249950000000126
        },
        {
          "name": "C5",
          "midi": 72,
          "time": 18.33330399999999,
          "velocity": 0.7086614173228346,
          "duration": 0.20833299999999966
        },
        {
          "name": "C5",
          "midi": 72,
          "time": 18.54163699999999,
          "velocity": 0.7086614173228346,
          "duration": 0.20833299999999966
        },
        {
          "name": "G#4",
          "midi": 68,
          "time": 18.74996999999999,
          "velocity": 0.7086614173228346,
          "duration": 0.31249950000000126
        },
        {
          "name": "C#5",
          "midi": 73,
          "time": 19.166635999999993,
          "velocity": 0.7086614173228346,
          "duration": 0.31249950000000126
        },
        {
          "name": "A#4",
          "midi": 70,
          "time": 19.583301999999996,
          "velocity": 0.7086614173228346,
          "duration": 0.31249950000000126
        },
        {
          "name": "C5",
          "midi": 72,
          "time": 19.999968,
          "velocity": 0.7086614173228346,
          "duration": 0.7291655000000006
        },
        {
          "name": "A#4",
          "midi": 70,
          "time": 40.833268000000004,
          "velocity": 0.7086614173228346,
          "duration": 0.2083330000000032
        },
        {
          "name": "B4",
          "midi": 71,
          "time": 41.04160100000001,
          "velocity": 0.7086614173228346,
          "duration": 0.10416649999999805
        },
        {
          "name": "C#5",
          "midi": 73,
          "time": 41.145767500000005,
          "velocity": 0.7086614173228346,
          "duration": 0.10416649999999805
        },
        {
          "name": "D#5",
          "midi": 75,
          "time": 41.249934,
          "velocity": 0.7086614173228346,
          "duration": 0.4166659999999993
        },
        {
          "name": "D#5",
          "midi": 75,
          "time": 41.6666,
          "velocity": 0.7086614173228346,
          "duration": 0.2083330000000032
        },
        {
          "name": "E5",
          "midi": 76,
          "time": 41.874933000000006,
          "velocity": 0.7086614173228346,
          "duration": 0.2083330000000032
        },
        {
          "name": "D#5",
          "midi": 75,
          "time": 42.08326600000001,
          "velocity": 0.7086614173228346,
          "duration": 0.2083330000000032
        },
        {
          "name": "C#5",
          "midi": 73,
          "time": 42.29159900000001,
          "velocity": 0.7086614173228346,
          "duration": 0.2083330000000032
        },
        {
          "name": "B4",
          "midi": 71,
          "time": 42.499932000000015,
          "velocity": 0.7086614173228346,
          "duration": 0.4166659999999993
        },
        {
          "name": "B4",
          "midi": 71,
          "time": 42.916598000000015,
          "velocity": 0.7086614173228346,
          "duration": 0.31249950000000126
        },
        {
          "name": "C5",
          "midi": 72,
          "time": 43.333264000000014,
          "velocity": 0.7086614173228346,
          "duration": 0.4166659999999993
        },
        {
          "name": "F5",
          "midi": 77,
          "time": 43.74993000000001,
          "velocity": 0.7086614173228346,
          "duration": 0.4166659999999993
        },
        {
          "name": "F5",
          "midi": 77,
          "time": 44.16659600000001,
          "velocity": 0.7086614173228346,
          "duration": 0.2083330000000032
        },
        {
          "name": "F#5",
          "midi": 78,
          "time": 44.374929000000016,
          "velocity": 0.7086614173228346,
          "duration": 0.2083330000000032
        },
        {
          "name": "F5",
          "midi": 77,
          "time": 44.58326200000002,
          "velocity": 0.7086614173228346,
          "duration": 0.2083330000000032
        },
        {
          "name": "D#5",
          "midi": 75,
          "time": 44.79159500000002,
          "velocity": 0.7086614173228346,
          "duration": 0.2083330000000032
        },
        {
          "name": "C#5",
          "midi": 73,
          "time": 44.999928000000025,
          "velocity": 0.7086614173228346,
          "duration": 0.4166659999999993
        },
        {
          "name": "A#4",
          "midi": 70,
          "time": 45.416594000000025,
          "velocity": 0.7086614173228346,
          "duration": 0.31249950000000126
        },
        {
          "name": "A#4",
          "midi": 70,
          "time": 45.833260000000024,
          "velocity": 0.7086614173228346,
          "duration": 0.4166659999999993
        },
        {
          "name": "G5",
          "midi": 79,
          "time": 46.24992600000002,
          "velocity": 0.7086614173228346,
          "duration": 0.4166659999999993
        },
        {
          "name": "G5",
          "midi": 79,
          "time": 46.66659200000002,
          "velocity": 0.7086614173228346,
          "duration": 0.2083330000000032
        },
        {
          "name": "G#5",
          "midi": 80,
          "time": 46.874925000000026,
          "velocity": 0.7086614173228346,
          "duration": 0.2083330000000032
        },
        {
          "name": "G5",
          "midi": 79,
          "time": 47.08325800000003,
          "velocity": 0.7086614173228346,
          "duration": 0.2083330000000032
        },
        {
          "name": "E5",
          "midi": 76,
          "time": 47.29159100000003,
          "velocity": 0.7086614173228346,
          "duration": 0.2083330000000032
        },
        {
          "name": "D#5",
          "midi": 75,
          "time": 47.499924000000036,
          "velocity": 0.7086614173228346,
          "duration": 0.4166659999999993
        },
        {
          "name": "E5",
          "midi": 76,
          "time": 47.916590000000035,
          "velocity": 0.7086614173228346,
          "duration": 0.31249950000000126
        },
        {
          "name": "D#5",
          "midi": 75,
          "time": 48.333256000000034,
          "velocity": 0.7086614173228346,
          "duration": 0.2083330000000032
        },
        {
          "name": "D#5",
          "midi": 75,
          "time": 48.54158900000004,
          "velocity": 0.7086614173228346,
          "duration": 0.2083330000000032
        },
        {
          "name": "B4",
          "midi": 71,
          "time": 48.74992200000004,
          "velocity": 0.7086614173228346,
          "duration": 0.31249950000000126
        },
        {
          "name": "E5",
          "midi": 76,
          "time": 49.16658800000004,
          "velocity": 0.7086614173228346,
          "duration": 0.31249950000000126
        },
        {
          "name": "C#5",
          "midi": 73,
          "time": 49.58325400000004,
          "velocity": 0.7086614173228346,
          "duration": 0.31249950000000126
        },
        {
          "name": "D#5",
          "midi": 75,
          "time": 49.99992000000004,
          "velocity": 0.7086614173228346,
          "duration": 0.7291655000000006
        }
      ],
      "controlChanges": {},
      "id": 2,
      "name": "piano1              ",
      "instrumentNumber": 0,
      "instrument": "acoustic grand piano",
      "instrumentFamily": "piano",
      "channelNumber": 1,
      "isPercussion": false
    },
    {
      "startTime": 0.833332,
      "duration": 50.72908550000006,
      "length": 142,
      "notes": [
        {
          "name": "D#4",
          "midi": 63,
          "time": 0.833332,
          "velocity": 0.7086614173228346,
          "duration": 0.416666
        },
        {
          "name": "G#4",
          "midi": 68,
          "time": 1.249998,
          "velocity": 0.7086614173228346,
          "duration": 0.416666
        },
        {
          "name": "G#4",
          "midi": 68,
          "time": 1.666664,
          "velocity": 0.7086614173228346,
          "duration": 0.2083330000000001
        },
        {
          "name": "A#4",
          "midi": 70,
          "time": 1.874997,
          "velocity": 0.7086614173228346,
          "duration": 0.2083330000000001
        },
        {
          "name": "G#4",
          "midi": 68,
          "time": 2.08333,
          "velocity": 0.7086614173228346,
          "duration": 0.2083330000000001
        },
        {
          "name": "G4",
          "midi": 67,
          "time": 2.2916630000000002,
          "velocity": 0.7086614173228346,
          "duration": 0.2083330000000001
        },
        {
          "name": "F4",
          "midi": 65,
          "time": 2.4999960000000003,
          "velocity": 0.7086614173228346,
          "duration": 0.4166660000000002
        },
        {
          "name": "F4",
          "midi": 65,
          "time": 2.9166620000000005,
          "velocity": 0.7086614173228346,
          "duration": 0.31249949999999993
        },
        {
          "name": "F4",
          "midi": 65,
          "time": 3.3333280000000003,
          "velocity": 0.7086614173228346,
          "duration": 0.41666599999999976
        },
        {
          "name": "A#4",
          "midi": 70,
          "time": 3.749994,
          "velocity": 0.7086614173228346,
          "duration": 0.4166660000000002
        },
        {
          "name": "A#4",
          "midi": 70,
          "time": 4.16666,
          "velocity": 0.7086614173228346,
          "duration": 0.20833299999999966
        },
        {
          "name": "C5",
          "midi": 72,
          "time": 4.374993,
          "velocity": 0.7086614173228346,
          "duration": 0.20833299999999966
        },
        {
          "name": "A#4",
          "midi": 70,
          "time": 4.583326,
          "velocity": 0.7086614173228346,
          "duration": 0.20833299999999966
        },
        {
          "name": "G#4",
          "midi": 68,
          "time": 4.791658999999999,
          "velocity": 0.7086614173228346,
          "duration": 0.20833299999999966
        },
        {
          "name": "G4",
          "midi": 67,
          "time": 4.999991999999999,
          "velocity": 0.7086614173228346,
          "duration": 0.4166660000000002
        },
        {
          "name": "D#4",
          "midi": 63,
          "time": 5.416657999999999,
          "velocity": 0.7086614173228346,
          "duration": 0.3124995000000004
        },
        {
          "name": "D#4",
          "midi": 63,
          "time": 5.833323999999999,
          "velocity": 0.7086614173228346,
          "duration": 0.4166660000000002
        },
        {
          "name": "C5",
          "midi": 72,
          "time": 6.2499899999999995,
          "velocity": 0.7086614173228346,
          "duration": 0.4166660000000002
        },
        {
          "name": "C5",
          "midi": 72,
          "time": 6.666656,
          "velocity": 0.7086614173228346,
          "duration": 0.20833299999999966
        },
        {
          "name": "C#5",
          "midi": 73,
          "time": 6.874988999999999,
          "velocity": 0.7086614173228346,
          "duration": 0.20833299999999966
        },
        {
          "name": "C5",
          "midi": 72,
          "time": 7.083321999999999,
          "velocity": 0.7086614173228346,
          "duration": 0.20833299999999966
        },
        {
          "name": "A#4",
          "midi": 70,
          "time": 7.291654999999999,
          "velocity": 0.7086614173228346,
          "duration": 0.20833299999999966
        },
        {
          "name": "G#4",
          "midi": 68,
          "time": 7.499987999999998,
          "velocity": 0.7086614173228346,
          "duration": 0.4166660000000002
        },
        {
          "name": "F4",
          "midi": 65,
          "time": 7.9166539999999985,
          "velocity": 0.7086614173228346,
          "duration": 0.3124995000000004
        },
        {
          "name": "D#4",
          "midi": 63,
          "time": 8.333319999999999,
          "velocity": 0.7086614173228346,
          "duration": 0.20833299999999966
        },
        {
          "name": "D#4",
          "midi": 63,
          "time": 8.541652999999998,
          "velocity": 0.7086614173228346,
          "duration": 0.20833299999999966
        },
        {
          "name": "F4",
          "midi": 65,
          "time": 8.749985999999998,
          "velocity": 0.7086614173228346,
          "duration": 0.3124994999999995
        },
        {
          "name": "A#4",
          "midi": 70,
          "time": 9.166651999999997,
          "velocity": 0.7086614173228346,
          "duration": 0.3124994999999995
        },
        {
          "name": "G4",
          "midi": 67,
          "time": 9.583317999999997,
          "velocity": 0.7086614173228346,
          "duration": 0.3124994999999995
        },
        {
          "name": "G#4",
          "midi": 68,
          "time": 9.999983999999996,
          "velocity": 0.7086614173228346,
          "duration": 0.7291655000000006
        },
        {
          "name": "D#4",
          "midi": 63,
          "time": 10.833315999999996,
          "velocity": 0.7086614173228346,
          "duration": 0.4166659999999993
        },
        {
          "name": "G#4",
          "midi": 68,
          "time": 11.249981999999996,
          "velocity": 0.7086614173228346,
          "duration": 0.4166659999999993
        },
        {
          "name": "G#4",
          "midi": 68,
          "time": 11.666647999999995,
          "velocity": 0.7086614173228346,
          "duration": 0.20833299999999966
        },
        {
          "name": "A#4",
          "midi": 70,
          "time": 11.874980999999995,
          "velocity": 0.7086614173228346,
          "duration": 0.20833299999999966
        },
        {
          "name": "G#4",
          "midi": 68,
          "time": 12.083313999999994,
          "velocity": 0.7086614173228346,
          "duration": 0.20833299999999966
        },
        {
          "name": "G4",
          "midi": 67,
          "time": 12.291646999999994,
          "velocity": 0.7086614173228346,
          "duration": 0.20833299999999966
        },
        {
          "name": "F4",
          "midi": 65,
          "time": 12.499979999999994,
          "velocity": 0.7086614173228346,
          "duration": 0.4166659999999993
        },
        {
          "name": "F4",
          "midi": 65,
          "time": 12.916645999999993,
          "velocity": 0.7086614173228346,
          "duration": 0.3124994999999995
        },
        {
          "name": "F4",
          "midi": 65,
          "time": 13.333311999999992,
          "velocity": 0.7086614173228346,
          "duration": 0.4166659999999993
        },
        {
          "name": "A#4",
          "midi": 70,
          "time": 13.749977999999992,
          "velocity": 0.7086614173228346,
          "duration": 0.4166659999999993
        },
        {
          "name": "A#4",
          "midi": 70,
          "time": 14.166643999999991,
          "velocity": 0.7086614173228346,
          "duration": 0.20833299999999966
        },
        {
          "name": "C5",
          "midi": 72,
          "time": 14.37497699999999,
          "velocity": 0.7086614173228346,
          "duration": 0.20833299999999966
        },
        {
          "name": "A#4",
          "midi": 70,
          "time": 14.58330999999999,
          "velocity": 0.7086614173228346,
          "duration": 0.20833299999999966
        },
        {
          "name": "G#4",
          "midi": 68,
          "time": 14.79164299999999,
          "velocity": 0.7086614173228346,
          "duration": 0.20833299999999966
        },
        {
          "name": "G4",
          "midi": 67,
          "time": 14.99997599999999,
          "velocity": 0.7086614173228346,
          "duration": 0.4166659999999993
        },
        {
          "name": "D#4",
          "midi": 63,
          "time": 15.416641999999989,
          "velocity": 0.7086614173228346,
          "duration": 0.3124994999999995
        },
        {
          "name": "D#4",
          "midi": 63,
          "time": 15.833307999999988,
          "velocity": 0.7086614173228346,
          "duration": 0.4166659999999993
        },
        {
          "name": "C5",
          "midi": 72,
          "time": 16.249973999999987,
          "velocity": 0.7086614173228346,
          "duration": 0.4166659999999993
        },
        {
          "name": "C5",
          "midi": 72,
          "time": 16.666639999999987,
          "velocity": 0.7086614173228346,
          "duration": 0.20833299999999966
        },
        {
          "name": "C#5",
          "midi": 73,
          "time": 16.874972999999986,
          "velocity": 0.7086614173228346,
          "duration": 0.20833299999999966
        },
        {
          "name": "C5",
          "midi": 72,
          "time": 17.083305999999986,
          "velocity": 0.7086614173228346,
          "duration": 0.20833299999999966
        },
        {
          "name": "A#4",
          "midi": 70,
          "time": 17.291638999999986,
          "velocity": 0.7086614173228346,
          "duration": 0.20833299999999966
        },
        {
          "name": "G#4",
          "midi": 68,
          "time": 17.499971999999985,
          "velocity": 0.7086614173228346,
          "duration": 0.4166659999999993
        },
        {
          "name": "F4",
          "midi": 65,
          "time": 17.916637999999985,
          "velocity": 0.7086614173228346,
          "duration": 0.31249950000000126
        },
        {
          "name": "D#4",
          "midi": 63,
          "time": 18.333303999999988,
          "velocity": 0.7086614173228346,
          "duration": 0.20833299999999966
        },
        {
          "name": "D#4",
          "midi": 63,
          "time": 18.541636999999987,
          "velocity": 0.7086614173228346,
          "duration": 0.20833299999999966
        },
        {
          "name": "F4",
          "midi": 65,
          "time": 18.749969999999987,
          "velocity": 0.7086614173228346,
          "duration": 0.31249950000000126
        },
        {
          "name": "A#4",
          "midi": 70,
          "time": 19.16663599999999,
          "velocity": 0.7086614173228346,
          "duration": 0.31249950000000126
        },
        {
          "name": "G4",
          "midi": 67,
          "time": 19.583301999999993,
          "velocity": 0.7086614173228346,
          "duration": 0.31249950000000126
        },
        {
          "name": "G#4",
          "midi": 68,
          "time": 19.999967999999996,
          "velocity": 0.7086614173228346,
          "duration": 0.7291655000000006
        },
        {
          "name": "D#4",
          "midi": 63,
          "time": 20.833299999999998,
          "velocity": 0.7086614173228346,
          "duration": 0.4166659999999993
        },
        {
          "name": "G#4",
          "midi": 68,
          "time": 21.249965999999997,
          "velocity": 0.7086614173228346,
          "duration": 0.4166659999999993
        },
        {
          "name": "G#4",
          "midi": 68,
          "time": 21.666631999999996,
          "velocity": 0.7086614173228346,
          "duration": 0.4166659999999993
        },
        {
          "name": "G#4",
          "midi": 68,
          "time": 22.083297999999996,
          "velocity": 0.7086614173228346,
          "duration": 0.4166659999999993
        },
        {
          "name": "G4",
          "midi": 67,
          "time": 22.499963999999995,
          "velocity": 0.7086614173228346,
          "duration": 0.8333319999999986
        },
        {
          "name": "G4",
          "midi": 67,
          "time": 23.333295999999994,
          "velocity": 0.7086614173228346,
          "duration": 0.4166659999999993
        },
        {
          "name": "G#4",
          "midi": 68,
          "time": 23.749961999999993,
          "velocity": 0.7086614173228346,
          "duration": 0.4166659999999993
        },
        {
          "name": "G4",
          "midi": 67,
          "time": 24.166627999999992,
          "velocity": 0.7086614173228346,
          "duration": 0.4166659999999993
        },
        {
          "name": "F4",
          "midi": 65,
          "time": 24.58329399999999,
          "velocity": 0.7086614173228346,
          "duration": 0.4166659999999993
        },
        {
          "name": "D#4",
          "midi": 63,
          "time": 24.99995999999999,
          "velocity": 0.7086614173228346,
          "duration": 0.7291655000000006
        },
        {
          "name": "A#4",
          "midi": 70,
          "time": 25.833291999999993,
          "velocity": 0.7086614173228346,
          "duration": 0.4166659999999993
        },
        {
          "name": "C5",
          "midi": 72,
          "time": 26.249957999999992,
          "velocity": 0.7086614173228346,
          "duration": 0.4166659999999993
        },
        {
          "name": "A#4",
          "midi": 70,
          "time": 26.66662399999999,
          "velocity": 0.7086614173228346,
          "duration": 0.4166659999999993
        },
        {
          "name": "G#4",
          "midi": 68,
          "time": 27.08328999999999,
          "velocity": 0.7086614173228346,
          "duration": 0.4166659999999993
        },
        {
          "name": "D#5",
          "midi": 75,
          "time": 27.49995599999999,
          "velocity": 0.7086614173228346,
          "duration": 0.4166659999999993
        },
        {
          "name": "D#4",
          "midi": 63,
          "time": 27.91662199999999,
          "velocity": 0.7086614173228346,
          "duration": 0.4166659999999993
        },
        {
          "name": "D#4",
          "midi": 63,
          "time": 28.33328799999999,
          "velocity": 0.7086614173228346,
          "duration": 0.20833299999999966
        },
        {
          "name": "D#4",
          "midi": 63,
          "time": 28.54162099999999,
          "velocity": 0.7086614173228346,
          "duration": 0.20833299999999966
        },
        {
          "name": "F4",
          "midi": 65,
          "time": 28.74995399999999,
          "velocity": 0.7086614173228346,
          "duration": 0.31249950000000126
        },
        {
          "name": "A#4",
          "midi": 70,
          "time": 29.16661999999999,
          "velocity": 0.7086614173228346,
          "duration": 0.31249950000000126
        },
        {
          "name": "G4",
          "midi": 67,
          "time": 29.583285999999994,
          "velocity": 0.7086614173228346,
          "duration": 0.31249950000000126
        },
        {
          "name": "G#4",
          "midi": 68,
          "time": 29.999951999999997,
          "velocity": 0.7086614173228346,
          "duration": 0.7291655000000006
        },
        {
          "name": "D#4",
          "midi": 63,
          "time": 30.833284,
          "velocity": 0.7086614173228346,
          "duration": 0.4166659999999993
        },
        {
          "name": "G#4",
          "midi": 68,
          "time": 31.24995,
          "velocity": 0.7086614173228346,
          "duration": 0.4166659999999993
        },
        {
          "name": "G#4",
          "midi": 68,
          "time": 31.666615999999998,
          "velocity": 0.7086614173228346,
          "duration": 0.20833299999999966
        },
        {
          "name": "A#4",
          "midi": 70,
          "time": 31.874948999999997,
          "velocity": 0.7086614173228346,
          "duration": 0.20833299999999966
        },
        {
          "name": "G#4",
          "midi": 68,
          "time": 32.083282,
          "velocity": 0.7086614173228346,
          "duration": 0.2083330000000032
        },
        {
          "name": "G4",
          "midi": 67,
          "time": 32.291615,
          "velocity": 0.7086614173228346,
          "duration": 0.2083330000000032
        },
        {
          "name": "F4",
          "midi": 65,
          "time": 32.499948,
          "velocity": 0.7086614173228346,
          "duration": 0.4166659999999993
        },
        {
          "name": "F4",
          "midi": 65,
          "time": 32.916614,
          "velocity": 0.7086614173228346,
          "duration": 0.31249950000000126
        },
        {
          "name": "F4",
          "midi": 65,
          "time": 33.33328,
          "velocity": 0.7086614173228346,
          "duration": 0.4166659999999993
        },
        {
          "name": "A#4",
          "midi": 70,
          "time": 33.749946,
          "velocity": 0.7086614173228346,
          "duration": 0.4166659999999993
        },
        {
          "name": "A#4",
          "midi": 70,
          "time": 34.166612,
          "velocity": 0.7086614173228346,
          "duration": 0.2083330000000032
        },
        {
          "name": "C5",
          "midi": 72,
          "time": 34.374945000000004,
          "velocity": 0.7086614173228346,
          "duration": 0.2083330000000032
        },
        {
          "name": "A#4",
          "midi": 70,
          "time": 34.58327800000001,
          "velocity": 0.7086614173228346,
          "duration": 0.2083330000000032
        },
        {
          "name": "G#4",
          "midi": 68,
          "time": 34.79161100000001,
          "velocity": 0.7086614173228346,
          "duration": 0.2083330000000032
        },
        {
          "name": "G4",
          "midi": 67,
          "time": 34.99994400000001,
          "velocity": 0.7086614173228346,
          "duration": 0.4166659999999993
        },
        {
          "name": "D#4",
          "midi": 63,
          "time": 35.41661000000001,
          "velocity": 0.7086614173228346,
          "duration": 0.31249950000000126
        },
        {
          "name": "D#4",
          "midi": 63,
          "time": 35.83327600000001,
          "velocity": 0.7086614173228346,
          "duration": 0.4166659999999993
        },
        {
          "name": "C5",
          "midi": 72,
          "time": 36.24994200000001,
          "velocity": 0.7086614173228346,
          "duration": 0.4166659999999993
        },
        {
          "name": "C5",
          "midi": 72,
          "time": 36.66660800000001,
          "velocity": 0.7086614173228346,
          "duration": 0.2083330000000032
        },
        {
          "name": "C#5",
          "midi": 73,
          "time": 36.874941000000014,
          "velocity": 0.7086614173228346,
          "duration": 0.2083330000000032
        },
        {
          "name": "C5",
          "midi": 72,
          "time": 37.08327400000002,
          "velocity": 0.7086614173228346,
          "duration": 0.2083330000000032
        },
        {
          "name": "A#4",
          "midi": 70,
          "time": 37.29160700000002,
          "velocity": 0.7086614173228346,
          "duration": 0.2083330000000032
        },
        {
          "name": "G#4",
          "midi": 68,
          "time": 37.499940000000024,
          "velocity": 0.7086614173228346,
          "duration": 0.4166659999999993
        },
        {
          "name": "F4",
          "midi": 65,
          "time": 37.91660600000002,
          "velocity": 0.7086614173228346,
          "duration": 0.31249950000000126
        },
        {
          "name": "D#4",
          "midi": 63,
          "time": 38.33327200000002,
          "velocity": 0.7086614173228346,
          "duration": 0.2083330000000032
        },
        {
          "name": "D#4",
          "midi": 63,
          "time": 38.541605000000025,
          "velocity": 0.7086614173228346,
          "duration": 0.2083330000000032
        },
        {
          "name": "F4",
          "midi": 65,
          "time": 38.74993800000003,
          "velocity": 0.7086614173228346,
          "duration": 0.31249950000000126
        },
        {
          "name": "A#4",
          "midi": 70,
          "time": 39.16660400000003,
          "velocity": 0.7086614173228346,
          "duration": 0.31249950000000126
        },
        {
          "name": "G4",
          "midi": 67,
          "time": 39.58327000000003,
          "velocity": 0.7086614173228346,
          "duration": 0.31249950000000126
        },
        {
          "name": "G#4",
          "midi": 68,
          "time": 39.99993600000003,
          "velocity": 0.7086614173228346,
          "duration": 0.7291655000000006
        },
        {
          "name": "F#4",
          "midi": 66,
          "time": 40.833268000000025,
          "velocity": 0.7086614173228346,
          "duration": 0.4166659999999993
        },
        {
          "name": "B4",
          "midi": 71,
          "time": 41.249934000000025,
          "velocity": 0.7086614173228346,
          "duration": 0.4166659999999993
        },
        {
          "name": "B4",
          "midi": 71,
          "time": 41.666600000000024,
          "velocity": 0.7086614173228346,
          "duration": 0.2083330000000032
        },
        {
          "name": "C#5",
          "midi": 73,
          "time": 41.87493300000003,
          "velocity": 0.7086614173228346,
          "duration": 0.2083330000000032
        },
        {
          "name": "B4",
          "midi": 71,
          "time": 42.08326600000003,
          "velocity": 0.7086614173228346,
          "duration": 0.2083330000000032
        },
        {
          "name": "A#4",
          "midi": 70,
          "time": 42.29159900000003,
          "velocity": 0.7086614173228346,
          "duration": 0.2083330000000032
        },
        {
          "name": "G#4",
          "midi": 68,
          "time": 42.49993200000004,
          "velocity": 0.7086614173228346,
          "duration": 0.4166659999999993
        },
        {
          "name": "G#4",
          "midi": 68,
          "time": 42.916598000000036,
          "velocity": 0.7086614173228346,
          "duration": 0.31249950000000126
        },
        {
          "name": "G#4",
          "midi": 68,
          "time": 43.333264000000035,
          "velocity": 0.7086614173228346,
          "duration": 0.4166659999999993
        },
        {
          "name": "C#5",
          "midi": 73,
          "time": 43.749930000000035,
          "velocity": 0.7086614173228346,
          "duration": 0.4166659999999993
        },
        {
          "name": "C#5",
          "midi": 73,
          "time": 44.166596000000034,
          "velocity": 0.7086614173228346,
          "duration": 0.2083330000000032
        },
        {
          "name": "D#5",
          "midi": 75,
          "time": 44.37492900000004,
          "velocity": 0.7086614173228346,
          "duration": 0.2083330000000032
        },
        {
          "name": "C#5",
          "midi": 73,
          "time": 44.58326200000004,
          "velocity": 0.7086614173228346,
          "duration": 0.2083330000000032
        },
        {
          "name": "B4",
          "midi": 71,
          "time": 44.791595000000044,
          "velocity": 0.7086614173228346,
          "duration": 0.2083330000000032
        },
        {
          "name": "A#4",
          "midi": 70,
          "time": 44.99992800000005,
          "velocity": 0.7086614173228346,
          "duration": 0.4166659999999993
        },
        {
          "name": "F#4",
          "midi": 66,
          "time": 45.416594000000046,
          "velocity": 0.7086614173228346,
          "duration": 0.31249950000000126
        },
        {
          "name": "F#4",
          "midi": 66,
          "time": 45.833260000000045,
          "velocity": 0.7086614173228346,
          "duration": 0.4166659999999993
        },
        {
          "name": "D#5",
          "midi": 75,
          "time": 46.249926000000045,
          "velocity": 0.7086614173228346,
          "duration": 0.4166659999999993
        },
        {
          "name": "D#5",
          "midi": 75,
          "time": 46.666592000000044,
          "velocity": 0.7086614173228346,
          "duration": 0.2083330000000032
        },
        {
          "name": "E5",
          "midi": 76,
          "time": 46.87492500000005,
          "velocity": 0.7086614173228346,
          "duration": 0.2083330000000032
        },
        {
          "name": "D#5",
          "midi": 75,
          "time": 47.08325800000005,
          "velocity": 0.7086614173228346,
          "duration": 0.2083330000000032
        },
        {
          "name": "C#5",
          "midi": 73,
          "time": 47.291591000000054,
          "velocity": 0.7086614173228346,
          "duration": 0.2083330000000032
        },
        {
          "name": "B4",
          "midi": 71,
          "time": 47.49992400000006,
          "velocity": 0.7086614173228346,
          "duration": 0.4166659999999993
        },
        {
          "name": "G#4",
          "midi": 68,
          "time": 47.916590000000056,
          "velocity": 0.7086614173228346,
          "duration": 0.31249950000000126
        },
        {
          "name": "F#4",
          "midi": 66,
          "time": 48.333256000000056,
          "velocity": 0.7086614173228346,
          "duration": 0.2083330000000032
        },
        {
          "name": "F#4",
          "midi": 66,
          "time": 48.54158900000006,
          "velocity": 0.7086614173228346,
          "duration": 0.2083330000000032
        },
        {
          "name": "G#4",
          "midi": 68,
          "time": 48.74992200000006,
          "velocity": 0.7086614173228346,
          "duration": 0.31249950000000126
        },
        {
          "name": "C#5",
          "midi": 73,
          "time": 49.16658800000006,
          "velocity": 0.7086614173228346,
          "duration": 0.31249950000000126
        },
        {
          "name": "A#4",
          "midi": 70,
          "time": 49.58325400000006,
          "velocity": 0.7086614173228346,
          "duration": 0.31249950000000126
        },
        {
          "name": "B4",
          "midi": 71,
          "time": 49.99992000000006,
          "velocity": 0.7086614173228346,
          "duration": 0.7291655000000006
        }
      ],
      "controlChanges": {},
      "id": 3,
      "name": "marimba1            ",
      "instrumentNumber": 0,
      "instrument": "acoustic grand piano",
      "instrumentFamily": "piano",
      "channelNumber": 2,
      "isPercussion": false
    },
    {
      "startTime": 1.4583309999999998,
      "duration": 50.729085500000004,
      "length": 106,
      "notes": [
        {
          "name": "C4",
          "midi": 60,
          "time": 1.4583309999999998,
          "velocity": 0.7086614173228346,
          "duration": 0.2083330000000001
        },
        {
          "name": "C4",
          "midi": 60,
          "time": 1.666664,
          "velocity": 0.7086614173228346,
          "duration": 0.4166660000000002
        },
        {
          "name": "C4",
          "midi": 60,
          "time": 2.08333,
          "velocity": 0.7086614173228346,
          "duration": 0.4166660000000002
        },
        {
          "name": "C#4",
          "midi": 61,
          "time": 2.9166620000000005,
          "velocity": 0.7086614173228346,
          "duration": 0.4166660000000002
        },
        {
          "name": "D#4",
          "midi": 63,
          "time": 3.3333280000000007,
          "velocity": 0.7086614173228346,
          "duration": 0.4166660000000002
        },
        {
          "name": "D4",
          "midi": 62,
          "time": 3.958327000000001,
          "velocity": 0.7086614173228346,
          "duration": 0.2083330000000001
        },
        {
          "name": "D4",
          "midi": 62,
          "time": 4.166660000000001,
          "velocity": 0.7086614173228346,
          "duration": 0.4166660000000002
        },
        {
          "name": "D4",
          "midi": 62,
          "time": 4.583326000000001,
          "velocity": 0.7086614173228346,
          "duration": 0.4166660000000002
        },
        {
          "name": "D#4",
          "midi": 63,
          "time": 5.416658000000002,
          "velocity": 0.7086614173228346,
          "duration": 0.4166660000000002
        },
        {
          "name": "D#4",
          "midi": 63,
          "time": 5.833324000000002,
          "velocity": 0.7086614173228346,
          "duration": 0.4166660000000002
        },
        {
          "name": "E4",
          "midi": 64,
          "time": 6.458323000000002,
          "velocity": 0.7086614173228346,
          "duration": 0.20833299999999966
        },
        {
          "name": "E4",
          "midi": 64,
          "time": 6.6666560000000015,
          "velocity": 0.7086614173228346,
          "duration": 0.4166660000000002
        },
        {
          "name": "E4",
          "midi": 64,
          "time": 7.083322000000002,
          "velocity": 0.7086614173228346,
          "duration": 0.4166660000000002
        },
        {
          "name": "F4",
          "midi": 65,
          "time": 7.7083210000000015,
          "velocity": 0.7086614173228346,
          "duration": 0.20833299999999966
        },
        {
          "name": "C#4",
          "midi": 61,
          "time": 7.916654000000001,
          "velocity": 0.7086614173228346,
          "duration": 0.4166659999999993
        },
        {
          "name": "D#4",
          "midi": 63,
          "time": 8.33332,
          "velocity": 0.7086614173228346,
          "duration": 0.4166659999999993
        },
        {
          "name": "C#4",
          "midi": 61,
          "time": 8.958319,
          "velocity": 0.7086614173228346,
          "duration": 0.20833299999999966
        },
        {
          "name": "F4",
          "midi": 65,
          "time": 9.166652,
          "velocity": 0.7086614173228346,
          "duration": 0.4166659999999993
        },
        {
          "name": "D#4",
          "midi": 63,
          "time": 9.583317999999998,
          "velocity": 0.7086614173228346,
          "duration": 0.4166659999999993
        },
        {
          "name": "D#4",
          "midi": 63,
          "time": 9.999983999999998,
          "velocity": 0.7086614173228346,
          "duration": 0.7291655000000006
        },
        {
          "name": "C#4",
          "midi": 61,
          "time": 10.833315999999998,
          "velocity": 0.7086614173228346,
          "duration": 0.4166659999999993
        },
        {
          "name": "C4",
          "midi": 60,
          "time": 11.458314999999997,
          "velocity": 0.7086614173228346,
          "duration": 0.20833299999999966
        },
        {
          "name": "C4",
          "midi": 60,
          "time": 11.666647999999997,
          "velocity": 0.7086614173228346,
          "duration": 0.4166659999999993
        },
        {
          "name": "C4",
          "midi": 60,
          "time": 12.083313999999996,
          "velocity": 0.7086614173228346,
          "duration": 0.4166659999999993
        },
        {
          "name": "C#4",
          "midi": 61,
          "time": 12.916645999999995,
          "velocity": 0.7086614173228346,
          "duration": 0.4166659999999993
        },
        {
          "name": "D#4",
          "midi": 63,
          "time": 13.333311999999994,
          "velocity": 0.7086614173228346,
          "duration": 0.4166659999999993
        },
        {
          "name": "D4",
          "midi": 62,
          "time": 13.958310999999993,
          "velocity": 0.7086614173228346,
          "duration": 0.20833299999999966
        },
        {
          "name": "D4",
          "midi": 62,
          "time": 14.166643999999993,
          "velocity": 0.7086614173228346,
          "duration": 0.4166659999999993
        },
        {
          "name": "D4",
          "midi": 62,
          "time": 14.583309999999992,
          "velocity": 0.7086614173228346,
          "duration": 0.4166659999999993
        },
        {
          "name": "D#4",
          "midi": 63,
          "time": 15.41664199999999,
          "velocity": 0.7086614173228346,
          "duration": 0.4166659999999993
        },
        {
          "name": "D#4",
          "midi": 63,
          "time": 15.83330799999999,
          "velocity": 0.7086614173228346,
          "duration": 0.4166660000000011
        },
        {
          "name": "E4",
          "midi": 64,
          "time": 16.45830699999999,
          "velocity": 0.7086614173228346,
          "duration": 0.20833299999999966
        },
        {
          "name": "E4",
          "midi": 64,
          "time": 16.66663999999999,
          "velocity": 0.7086614173228346,
          "duration": 0.4166659999999993
        },
        {
          "name": "E4",
          "midi": 64,
          "time": 17.08330599999999,
          "velocity": 0.7086614173228346,
          "duration": 0.4166659999999993
        },
        {
          "name": "F4",
          "midi": 65,
          "time": 17.70830499999999,
          "velocity": 0.7086614173228346,
          "duration": 0.20833299999999966
        },
        {
          "name": "C#4",
          "midi": 61,
          "time": 17.91663799999999,
          "velocity": 0.7086614173228346,
          "duration": 0.4166659999999993
        },
        {
          "name": "D#4",
          "midi": 63,
          "time": 18.333303999999988,
          "velocity": 0.7086614173228346,
          "duration": 0.4166659999999993
        },
        {
          "name": "C#4",
          "midi": 61,
          "time": 18.958302999999987,
          "velocity": 0.7086614173228346,
          "duration": 0.20833299999999966
        },
        {
          "name": "F4",
          "midi": 65,
          "time": 19.166635999999986,
          "velocity": 0.7086614173228346,
          "duration": 0.4166659999999993
        },
        {
          "name": "D#4",
          "midi": 63,
          "time": 19.583301999999986,
          "velocity": 0.7086614173228346,
          "duration": 0.4166659999999993
        },
        {
          "name": "D#4",
          "midi": 63,
          "time": 19.999967999999985,
          "velocity": 0.7086614173228346,
          "duration": 0.7291655000000006
        },
        {
          "name": "D#4",
          "midi": 63,
          "time": 21.458298999999986,
          "velocity": 0.7086614173228346,
          "duration": 0.20833299999999966
        },
        {
          "name": "D#4",
          "midi": 63,
          "time": 21.874964999999985,
          "velocity": 0.7086614173228346,
          "duration": 0.20833299999999966
        },
        {
          "name": "D#4",
          "midi": 63,
          "time": 22.291630999999985,
          "velocity": 0.7086614173228346,
          "duration": 0.20833299999999966
        },
        {
          "name": "D#4",
          "midi": 63,
          "time": 22.708296999999984,
          "velocity": 0.7086614173228346,
          "duration": 0.20833299999999966
        },
        {
          "name": "D#4",
          "midi": 63,
          "time": 23.124962999999983,
          "velocity": 0.7086614173228346,
          "duration": 0.20833299999999966
        },
        {
          "name": "D#4",
          "midi": 63,
          "time": 23.541628999999983,
          "velocity": 0.7086614173228346,
          "duration": 0.20833299999999966
        },
        {
          "name": "D4",
          "midi": 62,
          "time": 23.958294999999982,
          "velocity": 0.7086614173228346,
          "duration": 0.20833299999999966
        },
        {
          "name": "D4",
          "midi": 62,
          "time": 24.37496099999998,
          "velocity": 0.7086614173228346,
          "duration": 0.20833299999999966
        },
        {
          "name": "D4",
          "midi": 62,
          "time": 24.79162699999998,
          "velocity": 0.7086614173228346,
          "duration": 0.20833299999999966
        },
        {
          "name": "D#4",
          "midi": 63,
          "time": 25.20829299999998,
          "velocity": 0.7086614173228346,
          "duration": 0.20833299999999966
        },
        {
          "name": "D#4",
          "midi": 63,
          "time": 25.62495899999998,
          "velocity": 0.7086614173228346,
          "duration": 0.20833299999999966
        },
        {
          "name": "D#4",
          "midi": 63,
          "time": 26.04162499999998,
          "velocity": 0.7086614173228346,
          "duration": 0.20833299999999966
        },
        {
          "name": "D#4",
          "midi": 63,
          "time": 26.458290999999978,
          "velocity": 0.7086614173228346,
          "duration": 0.20833299999999966
        },
        {
          "name": "C#4",
          "midi": 61,
          "time": 26.874956999999977,
          "velocity": 0.7086614173228346,
          "duration": 0.20833299999999966
        },
        {
          "name": "D#4",
          "midi": 63,
          "time": 27.291622999999976,
          "velocity": 0.7086614173228346,
          "duration": 0.20833299999999966
        },
        {
          "name": "D#4",
          "midi": 63,
          "time": 27.708288999999976,
          "velocity": 0.7086614173228346,
          "duration": 0.20833299999999966
        },
        {
          "name": "D#4",
          "midi": 63,
          "time": 28.124954999999975,
          "velocity": 0.7086614173228346,
          "duration": 0.20833299999999966
        },
        {
          "name": "D#4",
          "midi": 63,
          "time": 28.541620999999974,
          "velocity": 0.7086614173228346,
          "duration": 0.20833299999999966
        },
        {
          "name": "C#4",
          "midi": 61,
          "time": 28.958286999999974,
          "velocity": 0.7086614173228346,
          "duration": 0.20833299999999966
        },
        {
          "name": "F4",
          "midi": 65,
          "time": 29.374952999999973,
          "velocity": 0.7086614173228346,
          "duration": 0.20833299999999966
        },
        {
          "name": "D#4",
          "midi": 63,
          "time": 29.791618999999972,
          "velocity": 0.7086614173228346,
          "duration": 0.20833299999999966
        },
        {
          "name": "D#4",
          "midi": 63,
          "time": 30.20828499999997,
          "velocity": 0.7086614173228346,
          "duration": 0.20833299999999966
        },
        {
          "name": "C#4",
          "midi": 61,
          "time": 30.62495099999997,
          "velocity": 0.7086614173228346,
          "duration": 0.20833299999999966
        },
        {
          "name": "A#3",
          "midi": 58,
          "time": 30.83328399999997,
          "velocity": 0.7086614173228346,
          "duration": 0.4166659999999993
        },
        {
          "name": "C4",
          "midi": 60,
          "time": 31.45828299999997,
          "velocity": 0.7086614173228346,
          "duration": 0.20833299999999966
        },
        {
          "name": "C4",
          "midi": 60,
          "time": 31.66661599999997,
          "velocity": 0.7086614173228346,
          "duration": 0.4166659999999993
        },
        {
          "name": "C4",
          "midi": 60,
          "time": 32.08328199999997,
          "velocity": 0.7086614173228346,
          "duration": 0.4166659999999993
        },
        {
          "name": "C#4",
          "midi": 61,
          "time": 32.91661399999997,
          "velocity": 0.7086614173228346,
          "duration": 0.4166659999999993
        },
        {
          "name": "D#4",
          "midi": 63,
          "time": 33.33327999999997,
          "velocity": 0.7086614173228346,
          "duration": 0.4166659999999993
        },
        {
          "name": "D4",
          "midi": 62,
          "time": 33.95827899999997,
          "velocity": 0.7086614173228346,
          "duration": 0.2083330000000032
        },
        {
          "name": "D4",
          "midi": 62,
          "time": 34.16661199999997,
          "velocity": 0.7086614173228346,
          "duration": 0.4166659999999993
        },
        {
          "name": "D4",
          "midi": 62,
          "time": 34.58327799999997,
          "velocity": 0.7086614173228346,
          "duration": 0.4166659999999993
        },
        {
          "name": "D#4",
          "midi": 63,
          "time": 35.41660999999997,
          "velocity": 0.7086614173228346,
          "duration": 0.4166659999999993
        },
        {
          "name": "D#4",
          "midi": 63,
          "time": 35.83327599999997,
          "velocity": 0.7086614173228346,
          "duration": 0.4166659999999993
        },
        {
          "name": "E4",
          "midi": 64,
          "time": 36.45827499999997,
          "velocity": 0.7086614173228346,
          "duration": 0.2083330000000032
        },
        {
          "name": "E4",
          "midi": 64,
          "time": 36.666607999999975,
          "velocity": 0.7086614173228346,
          "duration": 0.4166659999999993
        },
        {
          "name": "E4",
          "midi": 64,
          "time": 37.083273999999975,
          "velocity": 0.7086614173228346,
          "duration": 0.4166659999999993
        },
        {
          "name": "F4",
          "midi": 65,
          "time": 37.70827299999998,
          "velocity": 0.7086614173228346,
          "duration": 0.2083330000000032
        },
        {
          "name": "C#4",
          "midi": 61,
          "time": 37.91660599999998,
          "velocity": 0.7086614173228346,
          "duration": 0.4166659999999993
        },
        {
          "name": "D#4",
          "midi": 63,
          "time": 38.33327199999998,
          "velocity": 0.7086614173228346,
          "duration": 0.4166659999999993
        },
        {
          "name": "C#4",
          "midi": 61,
          "time": 38.95827099999998,
          "velocity": 0.7086614173228346,
          "duration": 0.2083330000000032
        },
        {
          "name": "F4",
          "midi": 65,
          "time": 39.166603999999985,
          "velocity": 0.7086614173228346,
          "duration": 0.4166659999999993
        },
        {
          "name": "D#4",
          "midi": 63,
          "time": 39.583269999999985,
          "velocity": 0.7086614173228346,
          "duration": 0.4166659999999993
        },
        {
          "name": "D#4",
          "midi": 63,
          "time": 39.999935999999984,
          "velocity": 0.7086614173228346,
          "duration": 0.7291655000000006
        },
        {
          "name": "E4",
          "midi": 64,
          "time": 40.83326799999998,
          "velocity": 0.7086614173228346,
          "duration": 0.4166659999999993
        },
        {
          "name": "D#4",
          "midi": 63,
          "time": 41.458266999999985,
          "velocity": 0.7086614173228346,
          "duration": 0.2083330000000032
        },
        {
          "name": "D#4",
          "midi": 63,
          "time": 41.66659999999999,
          "velocity": 0.7086614173228346,
          "duration": 0.4166659999999993
        },
        {
          "name": "D#4",
          "midi": 63,
          "time": 42.08326599999999,
          "velocity": 0.7086614173228346,
          "duration": 0.4166659999999993
        },
        {
          "name": "E4",
          "midi": 64,
          "time": 42.916597999999986,
          "velocity": 0.7086614173228346,
          "duration": 0.4166659999999993
        },
        {
          "name": "F#4",
          "midi": 66,
          "time": 43.333263999999986,
          "velocity": 0.7086614173228346,
          "duration": 0.4166659999999993
        },
        {
          "name": "F4",
          "midi": 65,
          "time": 43.95826299999999,
          "velocity": 0.7086614173228346,
          "duration": 0.2083330000000032
        },
        {
          "name": "F4",
          "midi": 65,
          "time": 44.16659599999999,
          "velocity": 0.7086614173228346,
          "duration": 0.4166659999999993
        },
        {
          "name": "F4",
          "midi": 65,
          "time": 44.58326199999999,
          "velocity": 0.7086614173228346,
          "duration": 0.4166659999999993
        },
        {
          "name": "F#4",
          "midi": 66,
          "time": 45.41659399999999,
          "velocity": 0.7086614173228346,
          "duration": 0.4166659999999993
        },
        {
          "name": "F#4",
          "midi": 66,
          "time": 45.83325999999999,
          "velocity": 0.7086614173228346,
          "duration": 0.4166659999999993
        },
        {
          "name": "G4",
          "midi": 67,
          "time": 46.45825899999999,
          "velocity": 0.7086614173228346,
          "duration": 0.2083330000000032
        },
        {
          "name": "G4",
          "midi": 67,
          "time": 46.666591999999994,
          "velocity": 0.7086614173228346,
          "duration": 0.4166659999999993
        },
        {
          "name": "G4",
          "midi": 67,
          "time": 47.083257999999994,
          "velocity": 0.7086614173228346,
          "duration": 0.4166659999999993
        },
        {
          "name": "G#4",
          "midi": 68,
          "time": 47.708256999999996,
          "velocity": 0.7086614173228346,
          "duration": 0.2083330000000032
        },
        {
          "name": "E4",
          "midi": 64,
          "time": 47.91659,
          "velocity": 0.7086614173228346,
          "duration": 0.4166659999999993
        },
        {
          "name": "F#4",
          "midi": 66,
          "time": 48.333256,
          "velocity": 0.7086614173228346,
          "duration": 0.4166659999999993
        },
        {
          "name": "E4",
          "midi": 64,
          "time": 48.958255,
          "velocity": 0.7086614173228346,
          "duration": 0.2083330000000032
        },
        {
          "name": "G#4",
          "midi": 68,
          "time": 49.166588000000004,
          "velocity": 0.7086614173228346,
          "duration": 0.4166659999999993
        },
        {
          "name": "F#4",
          "midi": 66,
          "time": 49.583254000000004,
          "velocity": 0.7086614173228346,
          "duration": 0.4166659999999993
        },
        {
          "name": "F#4",
          "midi": 66,
          "time": 49.99992,
          "velocity": 0.7086614173228346,
          "duration": 0.7291655000000006
        }
      ],
      "controlChanges": {},
      "id": 4,
      "name": "syn3                ",
      "instrumentNumber": 0,
      "instrument": "acoustic grand piano",
      "instrumentFamily": "piano",
      "channelNumber": 3,
      "isPercussion": false
    },
    {
      "startTime": 1.4583309999999998,
      "duration": 50.729085500000004,
      "length": 106,
      "notes": [
        {
          "name": "G#3",
          "midi": 56,
          "time": 1.4583309999999998,
          "velocity": 0.7086614173228346,
          "duration": 0.2083330000000001
        },
        {
          "name": "D#3",
          "midi": 51,
          "time": 1.666664,
          "velocity": 0.7086614173228346,
          "duration": 0.4166660000000002
        },
        {
          "name": "G#3",
          "midi": 56,
          "time": 2.08333,
          "velocity": 0.7086614173228346,
          "duration": 0.4166660000000002
        },
        {
          "name": "G#3",
          "midi": 56,
          "time": 2.9166620000000005,
          "velocity": 0.7086614173228346,
          "duration": 0.4166660000000002
        },
        {
          "name": "A3",
          "midi": 57,
          "time": 3.3333280000000007,
          "velocity": 0.7086614173228346,
          "duration": 0.4166660000000002
        },
        {
          "name": "A#3",
          "midi": 58,
          "time": 3.958327000000001,
          "velocity": 0.7086614173228346,
          "duration": 0.2083330000000001
        },
        {
          "name": "F3",
          "midi": 53,
          "time": 4.166660000000001,
          "velocity": 0.7086614173228346,
          "duration": 0.4166660000000002
        },
        {
          "name": "A#3",
          "midi": 58,
          "time": 4.583326000000001,
          "velocity": 0.7086614173228346,
          "duration": 0.4166660000000002
        },
        {
          "name": "G3",
          "midi": 55,
          "time": 5.416658000000002,
          "velocity": 0.7086614173228346,
          "duration": 0.4166660000000002
        },
        {
          "name": "G3",
          "midi": 55,
          "time": 5.833324000000002,
          "velocity": 0.7086614173228346,
          "duration": 0.4166660000000002
        },
        {
          "name": "G3",
          "midi": 55,
          "time": 6.458323000000002,
          "velocity": 0.7086614173228346,
          "duration": 0.20833299999999966
        },
        {
          "name": "G3",
          "midi": 55,
          "time": 6.6666560000000015,
          "velocity": 0.7086614173228346,
          "duration": 0.4166660000000002
        },
        {
          "name": "C4",
          "midi": 60,
          "time": 7.083322000000002,
          "velocity": 0.7086614173228346,
          "duration": 0.4166660000000002
        },
        {
          "name": "C4",
          "midi": 60,
          "time": 7.7083210000000015,
          "velocity": 0.7086614173228346,
          "duration": 0.20833299999999966
        },
        {
          "name": "A#3",
          "midi": 58,
          "time": 7.916654000000001,
          "velocity": 0.7086614173228346,
          "duration": 0.4166659999999993
        },
        {
          "name": "G#3",
          "midi": 56,
          "time": 8.33332,
          "velocity": 0.7086614173228346,
          "duration": 0.4166659999999993
        },
        {
          "name": "G#3",
          "midi": 56,
          "time": 8.958319,
          "velocity": 0.7086614173228346,
          "duration": 0.20833299999999966
        },
        {
          "name": "C#4",
          "midi": 61,
          "time": 9.166652,
          "velocity": 0.7086614173228346,
          "duration": 0.4166659999999993
        },
        {
          "name": "C#4",
          "midi": 61,
          "time": 9.583317999999998,
          "velocity": 0.7086614173228346,
          "duration": 0.4166659999999993
        },
        {
          "name": "C4",
          "midi": 60,
          "time": 9.999983999999998,
          "velocity": 0.7086614173228346,
          "duration": 0.7291655000000006
        },
        {
          "name": "A#3",
          "midi": 58,
          "time": 10.833315999999998,
          "velocity": 0.7086614173228346,
          "duration": 0.4166659999999993
        },
        {
          "name": "G#3",
          "midi": 56,
          "time": 11.458314999999997,
          "velocity": 0.7086614173228346,
          "duration": 0.20833299999999966
        },
        {
          "name": "D#3",
          "midi": 51,
          "time": 11.666647999999997,
          "velocity": 0.7086614173228346,
          "duration": 0.4166659999999993
        },
        {
          "name": "G#3",
          "midi": 56,
          "time": 12.083313999999996,
          "velocity": 0.7086614173228346,
          "duration": 0.4166659999999993
        },
        {
          "name": "G#3",
          "midi": 56,
          "time": 12.916645999999995,
          "velocity": 0.7086614173228346,
          "duration": 0.4166659999999993
        },
        {
          "name": "A3",
          "midi": 57,
          "time": 13.333311999999994,
          "velocity": 0.7086614173228346,
          "duration": 0.4166659999999993
        },
        {
          "name": "A#3",
          "midi": 58,
          "time": 13.958310999999993,
          "velocity": 0.7086614173228346,
          "duration": 0.20833299999999966
        },
        {
          "name": "F3",
          "midi": 53,
          "time": 14.166643999999993,
          "velocity": 0.7086614173228346,
          "duration": 0.4166659999999993
        },
        {
          "name": "A#3",
          "midi": 58,
          "time": 14.583309999999992,
          "velocity": 0.7086614173228346,
          "duration": 0.4166659999999993
        },
        {
          "name": "G3",
          "midi": 55,
          "time": 15.41664199999999,
          "velocity": 0.7086614173228346,
          "duration": 0.4166659999999993
        },
        {
          "name": "G3",
          "midi": 55,
          "time": 15.83330799999999,
          "velocity": 0.7086614173228346,
          "duration": 0.4166660000000011
        },
        {
          "name": "G3",
          "midi": 55,
          "time": 16.45830699999999,
          "velocity": 0.7086614173228346,
          "duration": 0.20833299999999966
        },
        {
          "name": "G3",
          "midi": 55,
          "time": 16.66663999999999,
          "velocity": 0.7086614173228346,
          "duration": 0.4166659999999993
        },
        {
          "name": "C4",
          "midi": 60,
          "time": 17.08330599999999,
          "velocity": 0.7086614173228346,
          "duration": 0.4166659999999993
        },
        {
          "name": "C4",
          "midi": 60,
          "time": 17.70830499999999,
          "velocity": 0.7086614173228346,
          "duration": 0.20833299999999966
        },
        {
          "name": "A#3",
          "midi": 58,
          "time": 17.91663799999999,
          "velocity": 0.7086614173228346,
          "duration": 0.4166659999999993
        },
        {
          "name": "G#3",
          "midi": 56,
          "time": 18.333303999999988,
          "velocity": 0.7086614173228346,
          "duration": 0.4166659999999993
        },
        {
          "name": "G#3",
          "midi": 56,
          "time": 18.958302999999987,
          "velocity": 0.7086614173228346,
          "duration": 0.20833299999999966
        },
        {
          "name": "C#4",
          "midi": 61,
          "time": 19.166635999999986,
          "velocity": 0.7086614173228346,
          "duration": 0.4166659999999993
        },
        {
          "name": "C#4",
          "midi": 61,
          "time": 19.583301999999986,
          "velocity": 0.7086614173228346,
          "duration": 0.4166659999999993
        },
        {
          "name": "C4",
          "midi": 60,
          "time": 19.999967999999985,
          "velocity": 0.7086614173228346,
          "duration": 0.7291655000000006
        },
        {
          "name": "C4",
          "midi": 60,
          "time": 21.249965999999986,
          "velocity": 0.7086614173228346,
          "duration": 0.20833299999999966
        },
        {
          "name": "C4",
          "midi": 60,
          "time": 21.666631999999986,
          "velocity": 0.7086614173228346,
          "duration": 0.20833299999999966
        },
        {
          "name": "C4",
          "midi": 60,
          "time": 22.083297999999985,
          "velocity": 0.7086614173228346,
          "duration": 0.20833299999999966
        },
        {
          "name": "A#3",
          "midi": 58,
          "time": 22.499963999999984,
          "velocity": 0.7086614173228346,
          "duration": 0.20833299999999966
        },
        {
          "name": "A#3",
          "midi": 58,
          "time": 22.916629999999984,
          "velocity": 0.7086614173228346,
          "duration": 0.20833299999999966
        },
        {
          "name": "A#3",
          "midi": 58,
          "time": 23.333295999999983,
          "velocity": 0.7086614173228346,
          "duration": 0.20833299999999966
        },
        {
          "name": "A#3",
          "midi": 58,
          "time": 23.749961999999982,
          "velocity": 0.7086614173228346,
          "duration": 0.20833299999999966
        },
        {
          "name": "A#3",
          "midi": 58,
          "time": 24.16662799999998,
          "velocity": 0.7086614173228346,
          "duration": 0.20833299999999966
        },
        {
          "name": "G#3",
          "midi": 56,
          "time": 24.58329399999998,
          "velocity": 0.7086614173228346,
          "duration": 0.20833299999999966
        },
        {
          "name": "G3",
          "midi": 55,
          "time": 24.99995999999998,
          "velocity": 0.7086614173228346,
          "duration": 0.20833299999999966
        },
        {
          "name": "G3",
          "midi": 55,
          "time": 25.41662599999998,
          "velocity": 0.7086614173228346,
          "duration": 0.20833299999999966
        },
        {
          "name": "G3",
          "midi": 55,
          "time": 25.83329199999998,
          "velocity": 0.7086614173228346,
          "duration": 0.20833299999999966
        },
        {
          "name": "G#3",
          "midi": 56,
          "time": 26.249957999999978,
          "velocity": 0.7086614173228346,
          "duration": 0.20833299999999966
        },
        {
          "name": "A#3",
          "midi": 58,
          "time": 26.666623999999977,
          "velocity": 0.7086614173228346,
          "duration": 0.20833299999999966
        },
        {
          "name": "C4",
          "midi": 60,
          "time": 27.083289999999977,
          "velocity": 0.7086614173228346,
          "duration": 0.20833299999999966
        },
        {
          "name": "G#3",
          "midi": 56,
          "time": 27.499955999999976,
          "velocity": 0.7086614173228346,
          "duration": 0.20833299999999966
        },
        {
          "name": "G#3",
          "midi": 56,
          "time": 27.916621999999975,
          "velocity": 0.7086614173228346,
          "duration": 0.20833299999999966
        },
        {
          "name": "G#3",
          "midi": 56,
          "time": 28.333287999999975,
          "velocity": 0.7086614173228346,
          "duration": 0.20833299999999966
        },
        {
          "name": "G#3",
          "midi": 56,
          "time": 28.749953999999974,
          "velocity": 0.7086614173228346,
          "duration": 0.20833299999999966
        },
        {
          "name": "C#4",
          "midi": 61,
          "time": 29.166619999999973,
          "velocity": 0.7086614173228346,
          "duration": 0.20833299999999966
        },
        {
          "name": "C#4",
          "midi": 61,
          "time": 29.583285999999973,
          "velocity": 0.7086614173228346,
          "duration": 0.20833299999999966
        },
        {
          "name": "C4",
          "midi": 60,
          "time": 29.999951999999972,
          "velocity": 0.7086614173228346,
          "duration": 0.20833299999999966
        },
        {
          "name": "G#3",
          "midi": 56,
          "time": 30.41661799999997,
          "velocity": 0.7086614173228346,
          "duration": 0.20833299999999966
        },
        {
          "name": "G3",
          "midi": 55,
          "time": 30.83328399999997,
          "velocity": 0.7086614173228346,
          "duration": 0.4166659999999993
        },
        {
          "name": "G#3",
          "midi": 56,
          "time": 31.45828299999997,
          "velocity": 0.7086614173228346,
          "duration": 0.20833299999999966
        },
        {
          "name": "D#3",
          "midi": 51,
          "time": 31.66661599999997,
          "velocity": 0.7086614173228346,
          "duration": 0.4166659999999993
        },
        {
          "name": "G#3",
          "midi": 56,
          "time": 32.08328199999997,
          "velocity": 0.7086614173228346,
          "duration": 0.4166659999999993
        },
        {
          "name": "G#3",
          "midi": 56,
          "time": 32.91661399999997,
          "velocity": 0.7086614173228346,
          "duration": 0.4166659999999993
        },
        {
          "name": "A3",
          "midi": 57,
          "time": 33.33327999999997,
          "velocity": 0.7086614173228346,
          "duration": 0.4166659999999993
        },
        {
          "name": "A#3",
          "midi": 58,
          "time": 33.95827899999997,
          "velocity": 0.7086614173228346,
          "duration": 0.2083330000000032
        },
        {
          "name": "F3",
          "midi": 53,
          "time": 34.16661199999997,
          "velocity": 0.7086614173228346,
          "duration": 0.4166659999999993
        },
        {
          "name": "A#3",
          "midi": 58,
          "time": 34.58327799999997,
          "velocity": 0.7086614173228346,
          "duration": 0.4166659999999993
        },
        {
          "name": "G3",
          "midi": 55,
          "time": 35.41660999999997,
          "velocity": 0.7086614173228346,
          "duration": 0.4166659999999993
        },
        {
          "name": "G3",
          "midi": 55,
          "time": 35.83327599999997,
          "velocity": 0.7086614173228346,
          "duration": 0.4166659999999993
        },
        {
          "name": "G3",
          "midi": 55,
          "time": 36.45827499999997,
          "velocity": 0.7086614173228346,
          "duration": 0.2083330000000032
        },
        {
          "name": "G3",
          "midi": 55,
          "time": 36.666607999999975,
          "velocity": 0.7086614173228346,
          "duration": 0.4166659999999993
        },
        {
          "name": "C4",
          "midi": 60,
          "time": 37.083273999999975,
          "velocity": 0.7086614173228346,
          "duration": 0.4166659999999993
        },
        {
          "name": "C4",
          "midi": 60,
          "time": 37.70827299999998,
          "velocity": 0.7086614173228346,
          "duration": 0.2083330000000032
        },
        {
          "name": "A#3",
          "midi": 58,
          "time": 37.91660599999998,
          "velocity": 0.7086614173228346,
          "duration": 0.4166659999999993
        },
        {
          "name": "G#3",
          "midi": 56,
          "time": 38.33327199999998,
          "velocity": 0.7086614173228346,
          "duration": 0.4166659999999993
        },
        {
          "name": "G#3",
          "midi": 56,
          "time": 38.95827099999998,
          "velocity": 0.7086614173228346,
          "duration": 0.2083330000000032
        },
        {
          "name": "C#4",
          "midi": 61,
          "time": 39.166603999999985,
          "velocity": 0.7086614173228346,
          "duration": 0.4166659999999993
        },
        {
          "name": "C#4",
          "midi": 61,
          "time": 39.583269999999985,
          "velocity": 0.7086614173228346,
          "duration": 0.4166659999999993
        },
        {
          "name": "C4",
          "midi": 60,
          "time": 39.999935999999984,
          "velocity": 0.7086614173228346,
          "duration": 0.7291655000000006
        },
        {
          "name": "A#3",
          "midi": 58,
          "time": 40.83326799999998,
          "velocity": 0.7086614173228346,
          "duration": 0.4166659999999993
        },
        {
          "name": "B3",
          "midi": 59,
          "time": 41.458266999999985,
          "velocity": 0.7086614173228346,
          "duration": 0.2083330000000032
        },
        {
          "name": "F#3",
          "midi": 54,
          "time": 41.66659999999999,
          "velocity": 0.7086614173228346,
          "duration": 0.4166659999999993
        },
        {
          "name": "B3",
          "midi": 59,
          "time": 42.08326599999999,
          "velocity": 0.7086614173228346,
          "duration": 0.4166659999999993
        },
        {
          "name": "B3",
          "midi": 59,
          "time": 42.916597999999986,
          "velocity": 0.7086614173228346,
          "duration": 0.4166659999999993
        },
        {
          "name": "C4",
          "midi": 60,
          "time": 43.333263999999986,
          "velocity": 0.7086614173228346,
          "duration": 0.4166659999999993
        },
        {
          "name": "C#4",
          "midi": 61,
          "time": 43.95826299999999,
          "velocity": 0.7086614173228346,
          "duration": 0.2083330000000032
        },
        {
          "name": "G#3",
          "midi": 56,
          "time": 44.16659599999999,
          "velocity": 0.7086614173228346,
          "duration": 0.4166659999999993
        },
        {
          "name": "C#4",
          "midi": 61,
          "time": 44.58326199999999,
          "velocity": 0.7086614173228346,
          "duration": 0.4166659999999993
        },
        {
          "name": "A#3",
          "midi": 58,
          "time": 45.41659399999999,
          "velocity": 0.7086614173228346,
          "duration": 0.4166659999999993
        },
        {
          "name": "A#3",
          "midi": 58,
          "time": 45.83325999999999,
          "velocity": 0.7086614173228346,
          "duration": 0.4166659999999993
        },
        {
          "name": "A#3",
          "midi": 58,
          "time": 46.45825899999999,
          "velocity": 0.7086614173228346,
          "duration": 0.2083330000000032
        },
        {
          "name": "A#3",
          "midi": 58,
          "time": 46.666591999999994,
          "velocity": 0.7086614173228346,
          "duration": 0.4166659999999993
        },
        {
          "name": "D#4",
          "midi": 63,
          "time": 47.083257999999994,
          "velocity": 0.7086614173228346,
          "duration": 0.4166659999999993
        },
        {
          "name": "D#4",
          "midi": 63,
          "time": 47.708256999999996,
          "velocity": 0.7086614173228346,
          "duration": 0.2083330000000032
        },
        {
          "name": "C#4",
          "midi": 61,
          "time": 47.91659,
          "velocity": 0.7086614173228346,
          "duration": 0.4166659999999993
        },
        {
          "name": "B3",
          "midi": 59,
          "time": 48.333256,
          "velocity": 0.7086614173228346,
          "duration": 0.4166659999999993
        },
        {
          "name": "B3",
          "midi": 59,
          "time": 48.958255,
          "velocity": 0.7086614173228346,
          "duration": 0.2083330000000032
        },
        {
          "name": "E4",
          "midi": 64,
          "time": 49.166588000000004,
          "velocity": 0.7086614173228346,
          "duration": 0.4166659999999993
        },
        {
          "name": "E4",
          "midi": 64,
          "time": 49.583254000000004,
          "velocity": 0.7086614173228346,
          "duration": 0.4166659999999993
        },
        {
          "name": "D#4",
          "midi": 63,
          "time": 49.99992,
          "velocity": 0.7086614173228346,
          "duration": 0.7291655000000006
        }
      ],
      "controlChanges": {},
      "id": 5,
      "name": "syn3                ",
      "instrumentNumber": 0,
      "instrument": "acoustic grand piano",
      "instrumentFamily": "piano",
      "channelNumber": 4,
      "isPercussion": false
    },
    {
      "startTime": 1.249998,
      "duration": 50.729085499999975,
      "length": 68,
      "notes": [
        {
          "name": "G#2",
          "midi": 44,
          "time": 1.249998,
          "velocity": 0.7086614173228346,
          "duration": 1.249998
        },
        {
          "name": "C#3",
          "midi": 49,
          "time": 2.499996,
          "velocity": 0.7086614173228346,
          "duration": 0.833332
        },
        {
          "name": "C3",
          "midi": 48,
          "time": 3.333328,
          "velocity": 0.7086614173228346,
          "duration": 0.4166660000000002
        },
        {
          "name": "A#2",
          "midi": 46,
          "time": 3.749994,
          "velocity": 0.7086614173228346,
          "duration": 1.2499979999999997
        },
        {
          "name": "D#3",
          "midi": 51,
          "time": 4.999992,
          "velocity": 0.7086614173228346,
          "duration": 0.8333319999999995
        },
        {
          "name": "C#3",
          "midi": 49,
          "time": 5.833323999999999,
          "velocity": 0.7086614173228346,
          "duration": 0.4166660000000002
        },
        {
          "name": "C3",
          "midi": 48,
          "time": 6.2499899999999995,
          "velocity": 0.7086614173228346,
          "duration": 1.2499979999999997
        },
        {
          "name": "F3",
          "midi": 53,
          "time": 7.499987999999999,
          "velocity": 0.7086614173228346,
          "duration": 0.4166660000000002
        },
        {
          "name": "A#2",
          "midi": 46,
          "time": 7.916653999999999,
          "velocity": 0.7086614173228346,
          "duration": 0.4166659999999993
        },
        {
          "name": "C3",
          "midi": 48,
          "time": 8.333319999999999,
          "velocity": 0.7086614173228346,
          "duration": 0.4166659999999993
        },
        {
          "name": "C#3",
          "midi": 49,
          "time": 8.749985999999998,
          "velocity": 0.7086614173228346,
          "duration": 0.4166659999999993
        },
        {
          "name": "A#2",
          "midi": 46,
          "time": 9.166651999999997,
          "velocity": 0.7086614173228346,
          "duration": 0.4166659999999993
        },
        {
          "name": "D#3",
          "midi": 51,
          "time": 9.583317999999997,
          "velocity": 0.7086614173228346,
          "duration": 0.4166659999999993
        },
        {
          "name": "G#2",
          "midi": 44,
          "time": 9.999983999999996,
          "velocity": 0.7086614173228346,
          "duration": 0.7291655000000006
        },
        {
          "name": "D#2",
          "midi": 39,
          "time": 10.833315999999996,
          "velocity": 0.7086614173228346,
          "duration": 0.4166659999999993
        },
        {
          "name": "G#1",
          "midi": 32,
          "time": 11.249981999999996,
          "velocity": 0.7086614173228346,
          "duration": 1.2499979999999997
        },
        {
          "name": "C#2",
          "midi": 37,
          "time": 12.499979999999995,
          "velocity": 0.7086614173228346,
          "duration": 0.8333320000000004
        },
        {
          "name": "C2",
          "midi": 36,
          "time": 13.333311999999996,
          "velocity": 0.7086614173228346,
          "duration": 0.4166659999999993
        },
        {
          "name": "A#1",
          "midi": 34,
          "time": 13.749977999999995,
          "velocity": 0.7086614173228346,
          "duration": 1.2499979999999997
        },
        {
          "name": "D#2",
          "midi": 39,
          "time": 14.999975999999995,
          "velocity": 0.7086614173228346,
          "duration": 0.8333320000000004
        },
        {
          "name": "C#2",
          "midi": 37,
          "time": 15.833307999999995,
          "velocity": 0.7086614173228346,
          "duration": 0.4166659999999993
        },
        {
          "name": "C2",
          "midi": 36,
          "time": 16.249973999999995,
          "velocity": 0.7086614173228346,
          "duration": 1.2499980000000015
        },
        {
          "name": "F2",
          "midi": 41,
          "time": 17.499971999999996,
          "velocity": 0.7086614173228346,
          "duration": 0.4166659999999993
        },
        {
          "name": "A#1",
          "midi": 34,
          "time": 17.916637999999995,
          "velocity": 0.7086614173228346,
          "duration": 0.4166659999999993
        },
        {
          "name": "C2",
          "midi": 36,
          "time": 18.333303999999995,
          "velocity": 0.7086614173228346,
          "duration": 0.4166659999999993
        },
        {
          "name": "C#2",
          "midi": 37,
          "time": 18.749969999999994,
          "velocity": 0.7086614173228346,
          "duration": 0.4166659999999993
        },
        {
          "name": "A#1",
          "midi": 34,
          "time": 19.166635999999993,
          "velocity": 0.7086614173228346,
          "duration": 0.4166659999999993
        },
        {
          "name": "D#2",
          "midi": 39,
          "time": 19.583301999999993,
          "velocity": 0.7086614173228346,
          "duration": 0.4166659999999993
        },
        {
          "name": "G#1",
          "midi": 32,
          "time": 19.999967999999992,
          "velocity": 0.7086614173228346,
          "duration": 0.7291655000000006
        },
        {
          "name": "G#2",
          "midi": 44,
          "time": 21.249965999999993,
          "velocity": 0.7086614173228346,
          "duration": 1.2499980000000015
        },
        {
          "name": "A#2",
          "midi": 46,
          "time": 22.499963999999995,
          "velocity": 0.7086614173228346,
          "duration": 1.2499980000000015
        },
        {
          "name": "A#2",
          "midi": 46,
          "time": 23.749961999999996,
          "velocity": 0.7086614173228346,
          "duration": 1.2499980000000015
        },
        {
          "name": "D#2",
          "midi": 39,
          "time": 24.999959999999998,
          "velocity": 0.7086614173228346,
          "duration": 1.2499980000000015
        },
        {
          "name": "G#2",
          "midi": 44,
          "time": 26.249958,
          "velocity": 0.7086614173228346,
          "duration": 1.2499980000000015
        },
        {
          "name": "C3",
          "midi": 48,
          "time": 27.499956,
          "velocity": 0.7086614173228346,
          "duration": 1.2499980000000015
        },
        {
          "name": "C#3",
          "midi": 49,
          "time": 28.749954000000002,
          "velocity": 0.7086614173228346,
          "duration": 0.8333319999999986
        },
        {
          "name": "D#3",
          "midi": 51,
          "time": 29.583286,
          "velocity": 0.7086614173228346,
          "duration": 0.4166659999999993
        },
        {
          "name": "G#2",
          "midi": 44,
          "time": 29.999952,
          "velocity": 0.7086614173228346,
          "duration": 0.7291655000000006
        },
        {
          "name": "D#3",
          "midi": 51,
          "time": 30.833284000000003,
          "velocity": 0.7086614173228346,
          "duration": 0.4166659999999993
        },
        {
          "name": "G#2",
          "midi": 44,
          "time": 31.249950000000002,
          "velocity": 0.7086614173228346,
          "duration": 1.2499980000000015
        },
        {
          "name": "C#3",
          "midi": 49,
          "time": 32.499948,
          "velocity": 0.7086614173228346,
          "duration": 0.8333319999999986
        },
        {
          "name": "C3",
          "midi": 48,
          "time": 33.33328,
          "velocity": 0.7086614173228346,
          "duration": 0.4166659999999993
        },
        {
          "name": "A#2",
          "midi": 46,
          "time": 33.749946,
          "velocity": 0.7086614173228346,
          "duration": 1.249997999999998
        },
        {
          "name": "D#3",
          "midi": 51,
          "time": 34.999944,
          "velocity": 0.7086614173228346,
          "duration": 0.8333319999999986
        },
        {
          "name": "C#3",
          "midi": 49,
          "time": 35.833276,
          "velocity": 0.7086614173228346,
          "duration": 0.4166659999999993
        },
        {
          "name": "C3",
          "midi": 48,
          "time": 36.249942,
          "velocity": 0.7086614173228346,
          "duration": 1.249997999999998
        },
        {
          "name": "F3",
          "midi": 53,
          "time": 37.499939999999995,
          "velocity": 0.7086614173228346,
          "duration": 0.4166659999999993
        },
        {
          "name": "A#2",
          "midi": 46,
          "time": 37.916605999999994,
          "velocity": 0.7086614173228346,
          "duration": 0.4166659999999993
        },
        {
          "name": "C3",
          "midi": 48,
          "time": 38.333271999999994,
          "velocity": 0.7086614173228346,
          "duration": 0.4166659999999993
        },
        {
          "name": "C#3",
          "midi": 49,
          "time": 38.74993799999999,
          "velocity": 0.7086614173228346,
          "duration": 0.4166659999999993
        },
        {
          "name": "A#2",
          "midi": 46,
          "time": 39.16660399999999,
          "velocity": 0.7086614173228346,
          "duration": 0.4166659999999993
        },
        {
          "name": "D#3",
          "midi": 51,
          "time": 39.58326999999999,
          "velocity": 0.7086614173228346,
          "duration": 0.4166659999999993
        },
        {
          "name": "G#2",
          "midi": 44,
          "time": 39.99993599999999,
          "velocity": 0.7086614173228346,
          "duration": 0.7291655000000006
        },
        {
          "name": "F#2",
          "midi": 42,
          "time": 40.83326799999999,
          "velocity": 0.7086614173228346,
          "duration": 0.4166659999999993
        },
        {
          "name": "B1",
          "midi": 35,
          "time": 41.24993399999999,
          "velocity": 0.7086614173228346,
          "duration": 1.249997999999998
        },
        {
          "name": "E2",
          "midi": 40,
          "time": 42.49993199999999,
          "velocity": 0.7086614173228346,
          "duration": 0.8333319999999986
        },
        {
          "name": "D#2",
          "midi": 39,
          "time": 43.333263999999986,
          "velocity": 0.7086614173228346,
          "duration": 0.4166659999999993
        },
        {
          "name": "C#2",
          "midi": 37,
          "time": 43.749929999999985,
          "velocity": 0.7086614173228346,
          "duration": 1.249997999999998
        },
        {
          "name": "F#2",
          "midi": 42,
          "time": 44.99992799999998,
          "velocity": 0.7086614173228346,
          "duration": 0.8333319999999986
        },
        {
          "name": "E2",
          "midi": 40,
          "time": 45.83325999999998,
          "velocity": 0.7086614173228346,
          "duration": 0.4166659999999993
        },
        {
          "name": "D#2",
          "midi": 39,
          "time": 46.24992599999998,
          "velocity": 0.7086614173228346,
          "duration": 1.249997999999998
        },
        {
          "name": "G#2",
          "midi": 44,
          "time": 47.49992399999998,
          "velocity": 0.7086614173228346,
          "duration": 0.4166659999999993
        },
        {
          "name": "C#2",
          "midi": 37,
          "time": 47.91658999999998,
          "velocity": 0.7086614173228346,
          "duration": 0.4166659999999993
        },
        {
          "name": "D#2",
          "midi": 39,
          "time": 48.33325599999998,
          "velocity": 0.7086614173228346,
          "duration": 0.4166659999999993
        },
        {
          "name": "E2",
          "midi": 40,
          "time": 48.74992199999998,
          "velocity": 0.7086614173228346,
          "duration": 0.4166659999999993
        },
        {
          "name": "C#2",
          "midi": 37,
          "time": 49.166587999999976,
          "velocity": 0.7086614173228346,
          "duration": 0.4166659999999993
        },
        {
          "name": "F#2",
          "midi": 42,
          "time": 49.583253999999975,
          "velocity": 0.7086614173228346,
          "duration": 0.4166659999999993
        },
        {
          "name": "B1",
          "midi": 35,
          "time": 49.999919999999975,
          "velocity": 0.7086614173228346,
          "duration": 0.7291655000000006
        }
      ],
      "controlChanges": {},
      "id": 6,
      "name": "piano1              ",
      "instrumentNumber": 0,
      "instrument": "acoustic grand piano",
      "instrumentFamily": "piano",
      "channelNumber": 5,
      "isPercussion": false
    },
    {
      "startTime": 1.249998,
      "duration": 50.10408649999996,
      "length": 87,
      "notes": [
        {
          "name": "C2",
          "midi": 36,
          "time": 1.249998,
          "velocity": 0.7086614173228346,
          "duration": 0.10416650000000005
        },
        {
          "name": "C2",
          "midi": 36,
          "time": 1.874997,
          "velocity": 0.7086614173228346,
          "duration": 0.10416650000000005
        },
        {
          "name": "C2",
          "midi": 36,
          "time": 2.2916630000000002,
          "velocity": 0.7086614173228346,
          "duration": 0.10416649999999983
        },
        {
          "name": "C2",
          "midi": 36,
          "time": 2.499996,
          "velocity": 0.7086614173228346,
          "duration": 0.10416649999999983
        },
        {
          "name": "C2",
          "midi": 36,
          "time": 3.333328,
          "velocity": 0.7086614173228346,
          "duration": 0.10416649999999983
        },
        {
          "name": "C2",
          "midi": 36,
          "time": 3.7499939999999996,
          "velocity": 0.7086614173228346,
          "duration": 0.10416649999999983
        },
        {
          "name": "C2",
          "midi": 36,
          "time": 4.374993,
          "velocity": 0.7086614173228346,
          "duration": 0.10416649999999983
        },
        {
          "name": "C2",
          "midi": 36,
          "time": 4.791659,
          "velocity": 0.7086614173228346,
          "duration": 0.10416649999999983
        },
        {
          "name": "C2",
          "midi": 36,
          "time": 4.999992,
          "velocity": 0.7086614173228346,
          "duration": 0.10416649999999983
        },
        {
          "name": "C2",
          "midi": 36,
          "time": 5.833323999999999,
          "velocity": 0.7086614173228346,
          "duration": 0.10416649999999983
        },
        {
          "name": "C2",
          "midi": 36,
          "time": 6.2499899999999995,
          "velocity": 0.7086614173228346,
          "duration": 0.10416649999999983
        },
        {
          "name": "C2",
          "midi": 36,
          "time": 6.874988999999999,
          "velocity": 0.7086614173228346,
          "duration": 0.10416649999999983
        },
        {
          "name": "C2",
          "midi": 36,
          "time": 7.2916549999999996,
          "velocity": 0.7086614173228346,
          "duration": 0.10416649999999983
        },
        {
          "name": "C2",
          "midi": 36,
          "time": 7.499987999999999,
          "velocity": 0.7086614173228346,
          "duration": 0.10416649999999983
        },
        {
          "name": "C2",
          "midi": 36,
          "time": 8.333319999999999,
          "velocity": 0.7086614173228346,
          "duration": 0.10416649999999983
        },
        {
          "name": "C2",
          "midi": 36,
          "time": 8.749985999999998,
          "velocity": 0.7086614173228346,
          "duration": 0.10416649999999983
        },
        {
          "name": "C2",
          "midi": 36,
          "time": 9.374984999999999,
          "velocity": 0.7086614173228346,
          "duration": 0.10416649999999983
        },
        {
          "name": "C2",
          "midi": 36,
          "time": 9.791650999999998,
          "velocity": 0.7086614173228346,
          "duration": 0.10416649999999983
        },
        {
          "name": "C2",
          "midi": 36,
          "time": 9.999983999999998,
          "velocity": 0.7086614173228346,
          "duration": 0.10416649999999983
        },
        {
          "name": "C2",
          "midi": 36,
          "time": 10.833315999999998,
          "velocity": 0.7086614173228346,
          "duration": 0.10416649999999983
        },
        {
          "name": "C2",
          "midi": 36,
          "time": 11.249981999999997,
          "velocity": 0.7086614173228346,
          "duration": 0.10416649999999983
        },
        {
          "name": "C2",
          "midi": 36,
          "time": 11.874980999999998,
          "velocity": 0.7086614173228346,
          "duration": 0.10416649999999983
        },
        {
          "name": "C2",
          "midi": 36,
          "time": 12.291646999999998,
          "velocity": 0.7086614173228346,
          "duration": 0.10416649999999983
        },
        {
          "name": "C2",
          "midi": 36,
          "time": 12.499979999999997,
          "velocity": 0.7086614173228346,
          "duration": 0.10416649999999983
        },
        {
          "name": "C2",
          "midi": 36,
          "time": 13.333311999999998,
          "velocity": 0.7086614173228346,
          "duration": 0.10416649999999983
        },
        {
          "name": "C2",
          "midi": 36,
          "time": 13.749977999999997,
          "velocity": 0.7086614173228346,
          "duration": 0.10416649999999983
        },
        {
          "name": "C2",
          "midi": 36,
          "time": 14.374976999999998,
          "velocity": 0.7086614173228346,
          "duration": 0.10416649999999983
        },
        {
          "name": "C2",
          "midi": 36,
          "time": 14.791642999999997,
          "velocity": 0.7086614173228346,
          "duration": 0.10416649999999983
        },
        {
          "name": "C2",
          "midi": 36,
          "time": 14.999975999999997,
          "velocity": 0.7086614173228346,
          "duration": 0.10416649999999983
        },
        {
          "name": "C2",
          "midi": 36,
          "time": 15.833307999999997,
          "velocity": 0.7086614173228346,
          "duration": 0.10416649999999983
        },
        {
          "name": "C2",
          "midi": 36,
          "time": 16.249973999999998,
          "velocity": 0.7086614173228346,
          "duration": 0.1041665000000016
        },
        {
          "name": "C2",
          "midi": 36,
          "time": 16.874973,
          "velocity": 0.7086614173228346,
          "duration": 0.1041665000000016
        },
        {
          "name": "C2",
          "midi": 36,
          "time": 17.291639000000004,
          "velocity": 0.7086614173228346,
          "duration": 0.1041665000000016
        },
        {
          "name": "C2",
          "midi": 36,
          "time": 17.499972000000007,
          "velocity": 0.7086614173228346,
          "duration": 0.1041665000000016
        },
        {
          "name": "C2",
          "midi": 36,
          "time": 18.33330400000001,
          "velocity": 0.7086614173228346,
          "duration": 0.1041665000000016
        },
        {
          "name": "C2",
          "midi": 36,
          "time": 18.749970000000012,
          "velocity": 0.7086614173228346,
          "duration": 0.1041665000000016
        },
        {
          "name": "C2",
          "midi": 36,
          "time": 19.374969000000014,
          "velocity": 0.7086614173228346,
          "duration": 0.1041665000000016
        },
        {
          "name": "C2",
          "midi": 36,
          "time": 19.791635000000017,
          "velocity": 0.7086614173228346,
          "duration": 0.1041665000000016
        },
        {
          "name": "C2",
          "midi": 36,
          "time": 19.99996800000002,
          "velocity": 0.7086614173228346,
          "duration": 0.1041665000000016
        },
        {
          "name": "C2",
          "midi": 36,
          "time": 20.833300000000023,
          "velocity": 0.7086614173228346,
          "duration": 0.1041665000000016
        },
        {
          "name": "C2",
          "midi": 36,
          "time": 21.249966000000025,
          "velocity": 0.7086614173228346,
          "duration": 0.1041665000000016
        },
        {
          "name": "C2",
          "midi": 36,
          "time": 22.499964000000027,
          "velocity": 0.7086614173228346,
          "duration": 0.1041665000000016
        },
        {
          "name": "C2",
          "midi": 36,
          "time": 23.74996200000003,
          "velocity": 0.7086614173228346,
          "duration": 0.1041665000000016
        },
        {
          "name": "C2",
          "midi": 36,
          "time": 24.99996000000003,
          "velocity": 0.7086614173228346,
          "duration": 0.1041665000000016
        },
        {
          "name": "C2",
          "midi": 36,
          "time": 26.24995800000003,
          "velocity": 0.7086614173228346,
          "duration": 0.1041665000000016
        },
        {
          "name": "C2",
          "midi": 36,
          "time": 27.499956000000033,
          "velocity": 0.7086614173228346,
          "duration": 0.1041665000000016
        },
        {
          "name": "C2",
          "midi": 36,
          "time": 28.749954000000034,
          "velocity": 0.7086614173228346,
          "duration": 0.1041665000000016
        },
        {
          "name": "C2",
          "midi": 36,
          "time": 29.999952000000036,
          "velocity": 0.7086614173228346,
          "duration": 0.1041665000000016
        },
        {
          "name": "C2",
          "midi": 36,
          "time": 31.249950000000037,
          "velocity": 0.7086614173228346,
          "duration": 0.1041665000000016
        },
        {
          "name": "C2",
          "midi": 36,
          "time": 31.87494900000004,
          "velocity": 0.7086614173228346,
          "duration": 0.1041665000000016
        },
        {
          "name": "C2",
          "midi": 36,
          "time": 32.29161500000004,
          "velocity": 0.7086614173228346,
          "duration": 0.10416649999999805
        },
        {
          "name": "C2",
          "midi": 36,
          "time": 32.49994800000004,
          "velocity": 0.7086614173228346,
          "duration": 0.10416649999999805
        },
        {
          "name": "C2",
          "midi": 36,
          "time": 33.33328000000004,
          "velocity": 0.7086614173228346,
          "duration": 0.10416649999999805
        },
        {
          "name": "C2",
          "midi": 36,
          "time": 33.74994600000004,
          "velocity": 0.7086614173228346,
          "duration": 0.10416649999999805
        },
        {
          "name": "C2",
          "midi": 36,
          "time": 34.37494500000003,
          "velocity": 0.7086614173228346,
          "duration": 0.10416649999999805
        },
        {
          "name": "C2",
          "midi": 36,
          "time": 34.79161100000003,
          "velocity": 0.7086614173228346,
          "duration": 0.10416649999999805
        },
        {
          "name": "C2",
          "midi": 36,
          "time": 34.99994400000003,
          "velocity": 0.7086614173228346,
          "duration": 0.10416649999999805
        },
        {
          "name": "C2",
          "midi": 36,
          "time": 35.833276000000026,
          "velocity": 0.7086614173228346,
          "duration": 0.10416649999999805
        },
        {
          "name": "C2",
          "midi": 36,
          "time": 36.249942000000026,
          "velocity": 0.7086614173228346,
          "duration": 0.10416649999999805
        },
        {
          "name": "C2",
          "midi": 36,
          "time": 36.87494100000002,
          "velocity": 0.7086614173228346,
          "duration": 0.10416649999999805
        },
        {
          "name": "C2",
          "midi": 36,
          "time": 37.29160700000002,
          "velocity": 0.7086614173228346,
          "duration": 0.10416649999999805
        },
        {
          "name": "C2",
          "midi": 36,
          "time": 37.49994000000002,
          "velocity": 0.7086614173228346,
          "duration": 0.10416649999999805
        },
        {
          "name": "C2",
          "midi": 36,
          "time": 38.333272000000015,
          "velocity": 0.7086614173228346,
          "duration": 0.10416649999999805
        },
        {
          "name": "C2",
          "midi": 36,
          "time": 38.749938000000014,
          "velocity": 0.7086614173228346,
          "duration": 0.10416649999999805
        },
        {
          "name": "C2",
          "midi": 36,
          "time": 39.37493700000001,
          "velocity": 0.7086614173228346,
          "duration": 0.10416649999999805
        },
        {
          "name": "C2",
          "midi": 36,
          "time": 39.79160300000001,
          "velocity": 0.7086614173228346,
          "duration": 0.10416649999999805
        },
        {
          "name": "C2",
          "midi": 36,
          "time": 39.999936000000005,
          "velocity": 0.7086614173228346,
          "duration": 0.10416649999999805
        },
        {
          "name": "D#2",
          "midi": 39,
          "time": 40.833268000000004,
          "velocity": 0.7086614173228346,
          "duration": 0.10416649999999805
        },
        {
          "name": "D#2",
          "midi": 39,
          "time": 41.249934,
          "velocity": 0.7086614173228346,
          "duration": 0.10416649999999805
        },
        {
          "name": "D#2",
          "midi": 39,
          "time": 41.874933,
          "velocity": 0.7086614173228346,
          "duration": 0.10416649999999805
        },
        {
          "name": "D#2",
          "midi": 39,
          "time": 42.291599,
          "velocity": 0.7086614173228346,
          "duration": 0.10416649999999805
        },
        {
          "name": "D#2",
          "midi": 39,
          "time": 42.499931999999994,
          "velocity": 0.7086614173228346,
          "duration": 0.10416649999999805
        },
        {
          "name": "D#2",
          "midi": 39,
          "time": 43.33326399999999,
          "velocity": 0.7086614173228346,
          "duration": 0.10416649999999805
        },
        {
          "name": "D#2",
          "midi": 39,
          "time": 43.74992999999999,
          "velocity": 0.7086614173228346,
          "duration": 0.10416649999999805
        },
        {
          "name": "D#2",
          "midi": 39,
          "time": 44.37492899999999,
          "velocity": 0.7086614173228346,
          "duration": 0.10416649999999805
        },
        {
          "name": "D#2",
          "midi": 39,
          "time": 44.79159499999999,
          "velocity": 0.7086614173228346,
          "duration": 0.10416649999999805
        },
        {
          "name": "D#2",
          "midi": 39,
          "time": 44.99992799999998,
          "velocity": 0.7086614173228346,
          "duration": 0.10416649999999805
        },
        {
          "name": "D#2",
          "midi": 39,
          "time": 45.83325999999998,
          "velocity": 0.7086614173228346,
          "duration": 0.10416649999999805
        },
        {
          "name": "D#2",
          "midi": 39,
          "time": 46.24992599999998,
          "velocity": 0.7086614173228346,
          "duration": 0.10416649999999805
        },
        {
          "name": "D#2",
          "midi": 39,
          "time": 46.874924999999976,
          "velocity": 0.7086614173228346,
          "duration": 0.10416649999999805
        },
        {
          "name": "D#2",
          "midi": 39,
          "time": 47.291590999999976,
          "velocity": 0.7086614173228346,
          "duration": 0.10416649999999805
        },
        {
          "name": "D#2",
          "midi": 39,
          "time": 47.49992399999997,
          "velocity": 0.7086614173228346,
          "duration": 0.10416649999999805
        },
        {
          "name": "D#2",
          "midi": 39,
          "time": 48.33325599999997,
          "velocity": 0.7086614173228346,
          "duration": 0.10416649999999805
        },
        {
          "name": "D#2",
          "midi": 39,
          "time": 48.74992199999997,
          "velocity": 0.7086614173228346,
          "duration": 0.10416649999999805
        },
        {
          "name": "D#2",
          "midi": 39,
          "time": 49.374920999999965,
          "velocity": 0.7086614173228346,
          "duration": 0.10416649999999805
        },
        {
          "name": "D#2",
          "midi": 39,
          "time": 49.791586999999964,
          "velocity": 0.7086614173228346,
          "duration": 0.10416649999999805
        },
        {
          "name": "D#2",
          "midi": 39,
          "time": 49.99991999999996,
          "velocity": 0.7086614173228346,
          "duration": 0.10416649999999805
        }
      ],
      "controlChanges": {},
      "id": 7,
      "name": "bdrum1              ",
      "instrumentNumber": 0,
      "instrument": "acoustic grand piano",
      "instrumentFamily": "piano",
      "channelNumber": 6,
      "isPercussion": false
    },
    {
      "startTime": 1.666664,
      "duration": 50.10408649999998,
      "length": 106,
      "notes": [
        {
          "name": "D2",
          "midi": 38,
          "time": 1.666664,
          "velocity": 0.7086614173228346,
          "duration": 0.10416650000000005
        },
        {
          "name": "D2",
          "midi": 38,
          "time": 2.08333,
          "velocity": 0.7086614173228346,
          "duration": 0.10416649999999983
        },
        {
          "name": "D2",
          "midi": 38,
          "time": 2.708329,
          "velocity": 0.7086614173228346,
          "duration": 0.10416649999999983
        },
        {
          "name": "D2",
          "midi": 38,
          "time": 2.9166619999999996,
          "velocity": 0.7086614173228346,
          "duration": 0.10416649999999983
        },
        {
          "name": "D2",
          "midi": 38,
          "time": 3.3333279999999994,
          "velocity": 0.7086614173228346,
          "duration": 0.10416649999999983
        },
        {
          "name": "D2",
          "midi": 38,
          "time": 4.166659999999999,
          "velocity": 0.7086614173228346,
          "duration": 0.10416649999999983
        },
        {
          "name": "D2",
          "midi": 38,
          "time": 4.583326,
          "velocity": 0.7086614173228346,
          "duration": 0.10416649999999983
        },
        {
          "name": "D2",
          "midi": 38,
          "time": 5.208324999999999,
          "velocity": 0.7086614173228346,
          "duration": 0.10416649999999983
        },
        {
          "name": "D2",
          "midi": 38,
          "time": 5.416657999999999,
          "velocity": 0.7086614173228346,
          "duration": 0.10416649999999983
        },
        {
          "name": "D2",
          "midi": 38,
          "time": 5.833323999999999,
          "velocity": 0.7086614173228346,
          "duration": 0.10416649999999983
        },
        {
          "name": "D2",
          "midi": 38,
          "time": 6.666655999999999,
          "velocity": 0.7086614173228346,
          "duration": 0.10416649999999983
        },
        {
          "name": "D2",
          "midi": 38,
          "time": 7.083321999999999,
          "velocity": 0.7086614173228346,
          "duration": 0.10416649999999983
        },
        {
          "name": "D2",
          "midi": 38,
          "time": 7.708320999999999,
          "velocity": 0.7086614173228346,
          "duration": 0.10416649999999983
        },
        {
          "name": "D2",
          "midi": 38,
          "time": 7.9166539999999985,
          "velocity": 0.7086614173228346,
          "duration": 0.10416650000000072
        },
        {
          "name": "D2",
          "midi": 38,
          "time": 8.333319999999999,
          "velocity": 0.7086614173228346,
          "duration": 0.10416649999999983
        },
        {
          "name": "D2",
          "midi": 38,
          "time": 9.166652,
          "velocity": 0.7086614173228346,
          "duration": 0.10416649999999983
        },
        {
          "name": "D2",
          "midi": 38,
          "time": 9.583317999999998,
          "velocity": 0.7086614173228346,
          "duration": 0.10416649999999983
        },
        {
          "name": "D2",
          "midi": 38,
          "time": 10.208316999999997,
          "velocity": 0.7086614173228346,
          "duration": 0.10416649999999983
        },
        {
          "name": "D2",
          "midi": 38,
          "time": 10.416649999999997,
          "velocity": 0.7086614173228346,
          "duration": 0.10416649999999983
        },
        {
          "name": "D2",
          "midi": 38,
          "time": 10.624982999999997,
          "velocity": 0.7086614173228346,
          "duration": 0.10416649999999983
        },
        {
          "name": "D2",
          "midi": 38,
          "time": 10.833315999999996,
          "velocity": 0.7086614173228346,
          "duration": 0.10416649999999983
        },
        {
          "name": "D2",
          "midi": 38,
          "time": 11.041648999999996,
          "velocity": 0.7086614173228346,
          "duration": 0.10416649999999983
        },
        {
          "name": "D2",
          "midi": 38,
          "time": 11.666647999999995,
          "velocity": 0.7086614173228346,
          "duration": 0.10416649999999983
        },
        {
          "name": "D2",
          "midi": 38,
          "time": 12.083313999999994,
          "velocity": 0.7086614173228346,
          "duration": 0.10416649999999983
        },
        {
          "name": "D2",
          "midi": 38,
          "time": 12.708312999999993,
          "velocity": 0.7086614173228346,
          "duration": 0.10416649999999983
        },
        {
          "name": "D2",
          "midi": 38,
          "time": 12.916645999999993,
          "velocity": 0.7086614173228346,
          "duration": 0.10416649999999983
        },
        {
          "name": "D2",
          "midi": 38,
          "time": 13.333311999999992,
          "velocity": 0.7086614173228346,
          "duration": 0.10416649999999983
        },
        {
          "name": "D2",
          "midi": 38,
          "time": 14.166643999999993,
          "velocity": 0.7086614173228346,
          "duration": 0.10416649999999983
        },
        {
          "name": "D2",
          "midi": 38,
          "time": 14.583309999999992,
          "velocity": 0.7086614173228346,
          "duration": 0.10416649999999983
        },
        {
          "name": "D2",
          "midi": 38,
          "time": 15.208308999999993,
          "velocity": 0.7086614173228346,
          "duration": 0.10416649999999983
        },
        {
          "name": "D2",
          "midi": 38,
          "time": 15.416641999999992,
          "velocity": 0.7086614173228346,
          "duration": 0.10416649999999983
        },
        {
          "name": "D2",
          "midi": 38,
          "time": 15.833307999999992,
          "velocity": 0.7086614173228346,
          "duration": 0.10416649999999983
        },
        {
          "name": "D2",
          "midi": 38,
          "time": 16.66663999999999,
          "velocity": 0.7086614173228346,
          "duration": 0.1041665000000016
        },
        {
          "name": "D2",
          "midi": 38,
          "time": 17.083305999999993,
          "velocity": 0.7086614173228346,
          "duration": 0.1041665000000016
        },
        {
          "name": "D2",
          "midi": 38,
          "time": 17.708304999999996,
          "velocity": 0.7086614173228346,
          "duration": 0.1041665000000016
        },
        {
          "name": "D2",
          "midi": 38,
          "time": 17.916638,
          "velocity": 0.7086614173228346,
          "duration": 0.1041665000000016
        },
        {
          "name": "D2",
          "midi": 38,
          "time": 18.333304000000002,
          "velocity": 0.7086614173228346,
          "duration": 0.1041665000000016
        },
        {
          "name": "D2",
          "midi": 38,
          "time": 19.166636000000004,
          "velocity": 0.7086614173228346,
          "duration": 0.1041665000000016
        },
        {
          "name": "D2",
          "midi": 38,
          "time": 19.583302000000007,
          "velocity": 0.7086614173228346,
          "duration": 0.1041665000000016
        },
        {
          "name": "D2",
          "midi": 38,
          "time": 20.20830100000001,
          "velocity": 0.7086614173228346,
          "duration": 0.1041665000000016
        },
        {
          "name": "D2",
          "midi": 38,
          "time": 20.416634000000013,
          "velocity": 0.7086614173228346,
          "duration": 0.1041665000000016
        },
        {
          "name": "D2",
          "midi": 38,
          "time": 20.833300000000015,
          "velocity": 0.7086614173228346,
          "duration": 0.1041665000000016
        },
        {
          "name": "D2",
          "midi": 38,
          "time": 21.666632000000018,
          "velocity": 0.7086614173228346,
          "duration": 0.1041665000000016
        },
        {
          "name": "D2",
          "midi": 38,
          "time": 22.08329800000002,
          "velocity": 0.7086614173228346,
          "duration": 0.1041665000000016
        },
        {
          "name": "D2",
          "midi": 38,
          "time": 22.916630000000023,
          "velocity": 0.7086614173228346,
          "duration": 0.1041665000000016
        },
        {
          "name": "D2",
          "midi": 38,
          "time": 23.333296000000026,
          "velocity": 0.7086614173228346,
          "duration": 0.1041665000000016
        },
        {
          "name": "D2",
          "midi": 38,
          "time": 24.166628000000028,
          "velocity": 0.7086614173228346,
          "duration": 0.1041665000000016
        },
        {
          "name": "D2",
          "midi": 38,
          "time": 24.58329400000003,
          "velocity": 0.7086614173228346,
          "duration": 0.1041665000000016
        },
        {
          "name": "D2",
          "midi": 38,
          "time": 25.416626000000033,
          "velocity": 0.7086614173228346,
          "duration": 0.1041665000000016
        },
        {
          "name": "D2",
          "midi": 38,
          "time": 25.833292000000036,
          "velocity": 0.7086614173228346,
          "duration": 0.1041665000000016
        },
        {
          "name": "D2",
          "midi": 38,
          "time": 26.666624000000038,
          "velocity": 0.7086614173228346,
          "duration": 0.1041665000000016
        },
        {
          "name": "D2",
          "midi": 38,
          "time": 27.08329000000004,
          "velocity": 0.7086614173228346,
          "duration": 0.1041665000000016
        },
        {
          "name": "D2",
          "midi": 38,
          "time": 27.916622000000043,
          "velocity": 0.7086614173228346,
          "duration": 0.1041665000000016
        },
        {
          "name": "D2",
          "midi": 38,
          "time": 28.333288000000046,
          "velocity": 0.7086614173228346,
          "duration": 0.1041665000000016
        },
        {
          "name": "D2",
          "midi": 38,
          "time": 29.166620000000048,
          "velocity": 0.7086614173228346,
          "duration": 0.1041665000000016
        },
        {
          "name": "D2",
          "midi": 38,
          "time": 29.58328600000005,
          "velocity": 0.7086614173228346,
          "duration": 0.1041665000000016
        },
        {
          "name": "D2",
          "midi": 38,
          "time": 30.208285000000053,
          "velocity": 0.7086614173228346,
          "duration": 0.1041665000000016
        },
        {
          "name": "D2",
          "midi": 38,
          "time": 30.416618000000057,
          "velocity": 0.7086614173228346,
          "duration": 0.1041665000000016
        },
        {
          "name": "D2",
          "midi": 38,
          "time": 30.62495100000006,
          "velocity": 0.7086614173228346,
          "duration": 0.1041665000000016
        },
        {
          "name": "D2",
          "midi": 38,
          "time": 30.833284000000063,
          "velocity": 0.7086614173228346,
          "duration": 0.1041665000000016
        },
        {
          "name": "D2",
          "midi": 38,
          "time": 30.937450500000065,
          "velocity": 0.7086614173228346,
          "duration": 0.1041665000000016
        },
        {
          "name": "D2",
          "midi": 38,
          "time": 31.041617000000066,
          "velocity": 0.7086614173228346,
          "duration": 0.1041665000000016
        },
        {
          "name": "D2",
          "midi": 38,
          "time": 31.145783500000068,
          "velocity": 0.7086614173228346,
          "duration": 0.1041665000000016
        },
        {
          "name": "D2",
          "midi": 38,
          "time": 31.24995000000007,
          "velocity": 0.7086614173228346,
          "duration": 0.1041665000000016
        },
        {
          "name": "D2",
          "midi": 38,
          "time": 31.666616000000072,
          "velocity": 0.7086614173228346,
          "duration": 0.1041665000000016
        },
        {
          "name": "D2",
          "midi": 38,
          "time": 32.083282000000075,
          "velocity": 0.7086614173228346,
          "duration": 0.10416649999999805
        },
        {
          "name": "D2",
          "midi": 38,
          "time": 32.70828100000007,
          "velocity": 0.7086614173228346,
          "duration": 0.10416649999999805
        },
        {
          "name": "D2",
          "midi": 38,
          "time": 32.91661400000007,
          "velocity": 0.7086614173228346,
          "duration": 0.10416649999999805
        },
        {
          "name": "D2",
          "midi": 38,
          "time": 33.333280000000066,
          "velocity": 0.7086614173228346,
          "duration": 0.10416649999999805
        },
        {
          "name": "D2",
          "midi": 38,
          "time": 34.166612000000065,
          "velocity": 0.7086614173228346,
          "duration": 0.10416649999999805
        },
        {
          "name": "D2",
          "midi": 38,
          "time": 34.583278000000064,
          "velocity": 0.7086614173228346,
          "duration": 0.10416649999999805
        },
        {
          "name": "D2",
          "midi": 38,
          "time": 35.20827700000006,
          "velocity": 0.7086614173228346,
          "duration": 0.10416649999999805
        },
        {
          "name": "D2",
          "midi": 38,
          "time": 35.416610000000055,
          "velocity": 0.7086614173228346,
          "duration": 0.10416649999999805
        },
        {
          "name": "D2",
          "midi": 38,
          "time": 35.833276000000055,
          "velocity": 0.7086614173228346,
          "duration": 0.10416649999999805
        },
        {
          "name": "D2",
          "midi": 38,
          "time": 36.66660800000005,
          "velocity": 0.7086614173228346,
          "duration": 0.10416649999999805
        },
        {
          "name": "D2",
          "midi": 38,
          "time": 37.08327400000005,
          "velocity": 0.7086614173228346,
          "duration": 0.10416649999999805
        },
        {
          "name": "D2",
          "midi": 38,
          "time": 37.70827300000005,
          "velocity": 0.7086614173228346,
          "duration": 0.10416649999999805
        },
        {
          "name": "D2",
          "midi": 38,
          "time": 37.916606000000044,
          "velocity": 0.7086614173228346,
          "duration": 0.10416649999999805
        },
        {
          "name": "D2",
          "midi": 38,
          "time": 38.33327200000004,
          "velocity": 0.7086614173228346,
          "duration": 0.10416649999999805
        },
        {
          "name": "D2",
          "midi": 38,
          "time": 39.16660400000004,
          "velocity": 0.7086614173228346,
          "duration": 0.10416649999999805
        },
        {
          "name": "D2",
          "midi": 38,
          "time": 39.58327000000004,
          "velocity": 0.7086614173228346,
          "duration": 0.10416649999999805
        },
        {
          "name": "D2",
          "midi": 38,
          "time": 40.20826900000004,
          "velocity": 0.7086614173228346,
          "duration": 0.10416649999999805
        },
        {
          "name": "D2",
          "midi": 38,
          "time": 40.41660200000003,
          "velocity": 0.7086614173228346,
          "duration": 0.10416649999999805
        },
        {
          "name": "D2",
          "midi": 38,
          "time": 40.62493500000003,
          "velocity": 0.7086614173228346,
          "duration": 0.10416649999999805
        },
        {
          "name": "F2",
          "midi": 41,
          "time": 40.833268000000025,
          "velocity": 0.7086614173228346,
          "duration": 0.10416649999999805
        },
        {
          "name": "F2",
          "midi": 41,
          "time": 41.04160100000002,
          "velocity": 0.7086614173228346,
          "duration": 0.10416649999999805
        },
        {
          "name": "F2",
          "midi": 41,
          "time": 41.14576750000002,
          "velocity": 0.7086614173228346,
          "duration": 0.10416649999999805
        },
        {
          "name": "F2",
          "midi": 41,
          "time": 41.24993400000002,
          "velocity": 0.7086614173228346,
          "duration": 0.10416649999999805
        },
        {
          "name": "F2",
          "midi": 41,
          "time": 41.66660000000002,
          "velocity": 0.7086614173228346,
          "duration": 0.10416649999999805
        },
        {
          "name": "F2",
          "midi": 41,
          "time": 42.083266000000016,
          "velocity": 0.7086614173228346,
          "duration": 0.10416649999999805
        },
        {
          "name": "F2",
          "midi": 41,
          "time": 42.70826500000001,
          "velocity": 0.7086614173228346,
          "duration": 0.10416649999999805
        },
        {
          "name": "F2",
          "midi": 41,
          "time": 42.91659800000001,
          "velocity": 0.7086614173228346,
          "duration": 0.10416649999999805
        },
        {
          "name": "F2",
          "midi": 41,
          "time": 43.33326400000001,
          "velocity": 0.7086614173228346,
          "duration": 0.10416649999999805
        },
        {
          "name": "F2",
          "midi": 41,
          "time": 44.166596000000006,
          "velocity": 0.7086614173228346,
          "duration": 0.10416649999999805
        },
        {
          "name": "F2",
          "midi": 41,
          "time": 44.583262000000005,
          "velocity": 0.7086614173228346,
          "duration": 0.10416649999999805
        },
        {
          "name": "F2",
          "midi": 41,
          "time": 45.208261,
          "velocity": 0.7086614173228346,
          "duration": 0.10416649999999805
        },
        {
          "name": "F2",
          "midi": 41,
          "time": 45.416593999999996,
          "velocity": 0.7086614173228346,
          "duration": 0.10416649999999805
        },
        {
          "name": "F2",
          "midi": 41,
          "time": 45.833259999999996,
          "velocity": 0.7086614173228346,
          "duration": 0.10416649999999805
        },
        {
          "name": "F2",
          "midi": 41,
          "time": 46.666591999999994,
          "velocity": 0.7086614173228346,
          "duration": 0.10416649999999805
        },
        {
          "name": "F2",
          "midi": 41,
          "time": 47.083257999999994,
          "velocity": 0.7086614173228346,
          "duration": 0.10416649999999805
        },
        {
          "name": "F2",
          "midi": 41,
          "time": 47.70825699999999,
          "velocity": 0.7086614173228346,
          "duration": 0.10416649999999805
        },
        {
          "name": "F2",
          "midi": 41,
          "time": 47.916589999999985,
          "velocity": 0.7086614173228346,
          "duration": 0.10416649999999805
        },
        {
          "name": "F2",
          "midi": 41,
          "time": 48.333255999999984,
          "velocity": 0.7086614173228346,
          "duration": 0.10416649999999805
        },
        {
          "name": "F2",
          "midi": 41,
          "time": 49.16658799999998,
          "velocity": 0.7086614173228346,
          "duration": 0.10416649999999805
        },
        {
          "name": "F2",
          "midi": 41,
          "time": 49.58325399999998,
          "velocity": 0.7086614173228346,
          "duration": 0.10416649999999805
        },
        {
          "name": "F2",
          "midi": 41,
          "time": 49.99991999999998,
          "velocity": 0.7086614173228346,
          "duration": 0.10416649999999805
        }
      ],
      "controlChanges": {},
      "id": 8,
      "name": "snare1              ",
      "instrumentNumber": 0,
      "instrument": "acoustic grand piano",
      "instrumentFamily": "piano",
      "channelNumber": 7,
      "isPercussion": false
    },
    {
      "startTime": 0,
      "duration": 0,
      "length": 0,
      "notes": [],
      "controlChanges": {},
      "id": 9,
      "name": "tom1                "
    },
    {
      "startTime": 11.249982,
      "duration": 50.104086499999916,
      "length": 100,
      "notes": [
        {
          "name": "F2",
          "midi": 41,
          "time": 11.249982,
          "velocity": 0.7086614173228346,
          "duration": 0.10416649999999983
        },
        {
          "name": "F2",
          "midi": 41,
          "time": 11.458314999999999,
          "velocity": 0.7086614173228346,
          "duration": 0.10416649999999983
        },
        {
          "name": "F2",
          "midi": 41,
          "time": 11.666647999999999,
          "velocity": 0.7086614173228346,
          "duration": 0.10416649999999983
        },
        {
          "name": "F2",
          "midi": 41,
          "time": 11.874980999999998,
          "velocity": 0.7086614173228346,
          "duration": 0.10416649999999983
        },
        {
          "name": "F2",
          "midi": 41,
          "time": 12.083313999999998,
          "velocity": 0.7086614173228346,
          "duration": 0.10416649999999983
        },
        {
          "name": "F2",
          "midi": 41,
          "time": 12.291646999999998,
          "velocity": 0.7086614173228346,
          "duration": 0.10416649999999983
        },
        {
          "name": "F2",
          "midi": 41,
          "time": 12.499979999999997,
          "velocity": 0.7086614173228346,
          "duration": 0.10416649999999983
        },
        {
          "name": "F2",
          "midi": 41,
          "time": 12.708312999999997,
          "velocity": 0.7086614173228346,
          "duration": 0.10416649999999983
        },
        {
          "name": "F2",
          "midi": 41,
          "time": 12.916645999999997,
          "velocity": 0.7086614173228346,
          "duration": 0.10416649999999983
        },
        {
          "name": "F2",
          "midi": 41,
          "time": 13.124978999999996,
          "velocity": 0.7086614173228346,
          "duration": 0.10416649999999983
        },
        {
          "name": "F2",
          "midi": 41,
          "time": 13.333311999999996,
          "velocity": 0.7086614173228346,
          "duration": 0.10416649999999983
        },
        {
          "name": "F2",
          "midi": 41,
          "time": 13.541644999999995,
          "velocity": 0.7086614173228346,
          "duration": 0.10416649999999983
        },
        {
          "name": "F2",
          "midi": 41,
          "time": 13.749977999999995,
          "velocity": 0.7086614173228346,
          "duration": 0.10416649999999983
        },
        {
          "name": "F2",
          "midi": 41,
          "time": 13.958310999999995,
          "velocity": 0.7086614173228346,
          "duration": 0.10416649999999983
        },
        {
          "name": "F2",
          "midi": 41,
          "time": 14.166643999999994,
          "velocity": 0.7086614173228346,
          "duration": 0.10416649999999983
        },
        {
          "name": "F2",
          "midi": 41,
          "time": 14.374976999999994,
          "velocity": 0.7086614173228346,
          "duration": 0.10416649999999983
        },
        {
          "name": "F2",
          "midi": 41,
          "time": 14.583309999999994,
          "velocity": 0.7086614173228346,
          "duration": 0.10416649999999983
        },
        {
          "name": "F2",
          "midi": 41,
          "time": 14.791642999999993,
          "velocity": 0.7086614173228346,
          "duration": 0.10416649999999983
        },
        {
          "name": "F2",
          "midi": 41,
          "time": 14.999975999999993,
          "velocity": 0.7086614173228346,
          "duration": 0.10416649999999983
        },
        {
          "name": "F2",
          "midi": 41,
          "time": 15.208308999999993,
          "velocity": 0.7086614173228346,
          "duration": 0.10416649999999983
        },
        {
          "name": "F2",
          "midi": 41,
          "time": 15.416641999999992,
          "velocity": 0.7086614173228346,
          "duration": 0.10416649999999983
        },
        {
          "name": "F2",
          "midi": 41,
          "time": 15.624974999999992,
          "velocity": 0.7086614173228346,
          "duration": 0.10416649999999983
        },
        {
          "name": "F2",
          "midi": 41,
          "time": 15.833307999999992,
          "velocity": 0.7086614173228346,
          "duration": 0.10416649999999983
        },
        {
          "name": "F2",
          "midi": 41,
          "time": 16.04164099999999,
          "velocity": 0.7086614173228346,
          "duration": 0.1041665000000016
        },
        {
          "name": "F2",
          "midi": 41,
          "time": 16.249973999999995,
          "velocity": 0.7086614173228346,
          "duration": 0.1041665000000016
        },
        {
          "name": "F2",
          "midi": 41,
          "time": 16.458306999999998,
          "velocity": 0.7086614173228346,
          "duration": 0.1041665000000016
        },
        {
          "name": "F2",
          "midi": 41,
          "time": 16.66664,
          "velocity": 0.7086614173228346,
          "duration": 0.1041665000000016
        },
        {
          "name": "F2",
          "midi": 41,
          "time": 16.874973000000004,
          "velocity": 0.7086614173228346,
          "duration": 0.1041665000000016
        },
        {
          "name": "F2",
          "midi": 41,
          "time": 17.083306000000007,
          "velocity": 0.7086614173228346,
          "duration": 0.1041665000000016
        },
        {
          "name": "F2",
          "midi": 41,
          "time": 17.29163900000001,
          "velocity": 0.7086614173228346,
          "duration": 0.1041665000000016
        },
        {
          "name": "F2",
          "midi": 41,
          "time": 17.499972000000014,
          "velocity": 0.7086614173228346,
          "duration": 0.1041665000000016
        },
        {
          "name": "F2",
          "midi": 41,
          "time": 17.708305000000017,
          "velocity": 0.7086614173228346,
          "duration": 0.1041665000000016
        },
        {
          "name": "F2",
          "midi": 41,
          "time": 17.91663800000002,
          "velocity": 0.7086614173228346,
          "duration": 0.1041665000000016
        },
        {
          "name": "F2",
          "midi": 41,
          "time": 18.124971000000023,
          "velocity": 0.7086614173228346,
          "duration": 0.1041665000000016
        },
        {
          "name": "F2",
          "midi": 41,
          "time": 18.333304000000027,
          "velocity": 0.7086614173228346,
          "duration": 0.1041665000000016
        },
        {
          "name": "F2",
          "midi": 41,
          "time": 18.54163700000003,
          "velocity": 0.7086614173228346,
          "duration": 0.1041665000000016
        },
        {
          "name": "F2",
          "midi": 41,
          "time": 18.749970000000033,
          "velocity": 0.7086614173228346,
          "duration": 0.1041665000000016
        },
        {
          "name": "F2",
          "midi": 41,
          "time": 18.958303000000036,
          "velocity": 0.7086614173228346,
          "duration": 0.1041665000000016
        },
        {
          "name": "F2",
          "midi": 41,
          "time": 19.16663600000004,
          "velocity": 0.7086614173228346,
          "duration": 0.1041665000000016
        },
        {
          "name": "F2",
          "midi": 41,
          "time": 19.374969000000043,
          "velocity": 0.7086614173228346,
          "duration": 0.1041665000000016
        },
        {
          "name": "F2",
          "midi": 41,
          "time": 19.583302000000046,
          "velocity": 0.7086614173228346,
          "duration": 0.1041665000000016
        },
        {
          "name": "F2",
          "midi": 41,
          "time": 19.79163500000005,
          "velocity": 0.7086614173228346,
          "duration": 0.1041665000000016
        },
        {
          "name": "F2",
          "midi": 41,
          "time": 19.999968000000052,
          "velocity": 0.7086614173228346,
          "duration": 0.1041665000000016
        },
        {
          "name": "F2",
          "midi": 41,
          "time": 20.208301000000056,
          "velocity": 0.7086614173228346,
          "duration": 0.1041665000000016
        },
        {
          "name": "F2",
          "midi": 41,
          "time": 20.41663400000006,
          "velocity": 0.7086614173228346,
          "duration": 0.1041665000000016
        },
        {
          "name": "F2",
          "midi": 41,
          "time": 20.624967000000062,
          "velocity": 0.7086614173228346,
          "duration": 0.1041665000000016
        },
        {
          "name": "F2",
          "midi": 41,
          "time": 20.833300000000065,
          "velocity": 0.7086614173228346,
          "duration": 0.1041665000000016
        },
        {
          "name": "F2",
          "midi": 41,
          "time": 21.04163300000007,
          "velocity": 0.7086614173228346,
          "duration": 0.1041665000000016
        },
        {
          "name": "F2",
          "midi": 41,
          "time": 21.24996600000007,
          "velocity": 0.7086614173228346,
          "duration": 0.1041665000000016
        },
        {
          "name": "F2",
          "midi": 41,
          "time": 22.499964000000073,
          "velocity": 0.7086614173228346,
          "duration": 0.1041665000000016
        },
        {
          "name": "F2",
          "midi": 41,
          "time": 23.749962000000075,
          "velocity": 0.7086614173228346,
          "duration": 0.1041665000000016
        },
        {
          "name": "F2",
          "midi": 41,
          "time": 24.999960000000076,
          "velocity": 0.7086614173228346,
          "duration": 0.1041665000000016
        },
        {
          "name": "F2",
          "midi": 41,
          "time": 26.249958000000078,
          "velocity": 0.7086614173228346,
          "duration": 0.1041665000000016
        },
        {
          "name": "F2",
          "midi": 41,
          "time": 27.49995600000008,
          "velocity": 0.7086614173228346,
          "duration": 0.1041665000000016
        },
        {
          "name": "F2",
          "midi": 41,
          "time": 28.74995400000008,
          "velocity": 0.7086614173228346,
          "duration": 0.1041665000000016
        },
        {
          "name": "F2",
          "midi": 41,
          "time": 29.999952000000082,
          "velocity": 0.7086614173228346,
          "duration": 0.1041665000000016
        },
        {
          "name": "F2",
          "midi": 41,
          "time": 31.249950000000084,
          "velocity": 0.7086614173228346,
          "duration": 0.1041665000000016
        },
        {
          "name": "G#2",
          "midi": 44,
          "time": 41.24993400000008,
          "velocity": 0.7086614173228346,
          "duration": 0.10416649999999805
        },
        {
          "name": "G#2",
          "midi": 44,
          "time": 41.45826700000008,
          "velocity": 0.7086614173228346,
          "duration": 0.10416649999999805
        },
        {
          "name": "G#2",
          "midi": 44,
          "time": 41.666600000000074,
          "velocity": 0.7086614173228346,
          "duration": 0.10416649999999805
        },
        {
          "name": "G#2",
          "midi": 44,
          "time": 41.87493300000007,
          "velocity": 0.7086614173228346,
          "duration": 0.10416649999999805
        },
        {
          "name": "G#2",
          "midi": 44,
          "time": 42.083266000000066,
          "velocity": 0.7086614173228346,
          "duration": 0.10416649999999805
        },
        {
          "name": "G#2",
          "midi": 44,
          "time": 42.29159900000006,
          "velocity": 0.7086614173228346,
          "duration": 0.10416649999999805
        },
        {
          "name": "G#2",
          "midi": 44,
          "time": 42.49993200000006,
          "velocity": 0.7086614173228346,
          "duration": 0.10416649999999805
        },
        {
          "name": "G#2",
          "midi": 44,
          "time": 42.708265000000054,
          "velocity": 0.7086614173228346,
          "duration": 0.10416649999999805
        },
        {
          "name": "G#2",
          "midi": 44,
          "time": 42.91659800000005,
          "velocity": 0.7086614173228346,
          "duration": 0.10416649999999805
        },
        {
          "name": "G#2",
          "midi": 44,
          "time": 43.124931000000046,
          "velocity": 0.7086614173228346,
          "duration": 0.10416649999999805
        },
        {
          "name": "G#2",
          "midi": 44,
          "time": 43.33326400000004,
          "velocity": 0.7086614173228346,
          "duration": 0.10416649999999805
        },
        {
          "name": "G#2",
          "midi": 44,
          "time": 43.54159700000004,
          "velocity": 0.7086614173228346,
          "duration": 0.10416649999999805
        },
        {
          "name": "G#2",
          "midi": 44,
          "time": 43.749930000000035,
          "velocity": 0.7086614173228346,
          "duration": 0.10416649999999805
        },
        {
          "name": "G#2",
          "midi": 44,
          "time": 43.95826300000003,
          "velocity": 0.7086614173228346,
          "duration": 0.10416649999999805
        },
        {
          "name": "G#2",
          "midi": 44,
          "time": 44.16659600000003,
          "velocity": 0.7086614173228346,
          "duration": 0.10416649999999805
        },
        {
          "name": "G#2",
          "midi": 44,
          "time": 44.37492900000002,
          "velocity": 0.7086614173228346,
          "duration": 0.10416649999999805
        },
        {
          "name": "G#2",
          "midi": 44,
          "time": 44.58326200000002,
          "velocity": 0.7086614173228346,
          "duration": 0.10416649999999805
        },
        {
          "name": "G#2",
          "midi": 44,
          "time": 44.791595000000015,
          "velocity": 0.7086614173228346,
          "duration": 0.10416649999999805
        },
        {
          "name": "G#2",
          "midi": 44,
          "time": 44.99992800000001,
          "velocity": 0.7086614173228346,
          "duration": 0.10416649999999805
        },
        {
          "name": "G#2",
          "midi": 44,
          "time": 45.20826100000001,
          "velocity": 0.7086614173228346,
          "duration": 0.10416649999999805
        },
        {
          "name": "G#2",
          "midi": 44,
          "time": 45.416594,
          "velocity": 0.7086614173228346,
          "duration": 0.10416649999999805
        },
        {
          "name": "G#2",
          "midi": 44,
          "time": 45.624927,
          "velocity": 0.7086614173228346,
          "duration": 0.10416649999999805
        },
        {
          "name": "G#2",
          "midi": 44,
          "time": 45.833259999999996,
          "velocity": 0.7086614173228346,
          "duration": 0.10416649999999805
        },
        {
          "name": "G#2",
          "midi": 44,
          "time": 46.04159299999999,
          "velocity": 0.7086614173228346,
          "duration": 0.10416649999999805
        },
        {
          "name": "G#2",
          "midi": 44,
          "time": 46.24992599999999,
          "velocity": 0.7086614173228346,
          "duration": 0.10416649999999805
        },
        {
          "name": "G#2",
          "midi": 44,
          "time": 46.458258999999984,
          "velocity": 0.7086614173228346,
          "duration": 0.10416649999999805
        },
        {
          "name": "G#2",
          "midi": 44,
          "time": 46.66659199999998,
          "velocity": 0.7086614173228346,
          "duration": 0.10416649999999805
        },
        {
          "name": "G#2",
          "midi": 44,
          "time": 46.874924999999976,
          "velocity": 0.7086614173228346,
          "duration": 0.10416649999999805
        },
        {
          "name": "G#2",
          "midi": 44,
          "time": 47.08325799999997,
          "velocity": 0.7086614173228346,
          "duration": 0.10416649999999805
        },
        {
          "name": "G#2",
          "midi": 44,
          "time": 47.29159099999997,
          "velocity": 0.7086614173228346,
          "duration": 0.10416649999999805
        },
        {
          "name": "G#2",
          "midi": 44,
          "time": 47.499923999999965,
          "velocity": 0.7086614173228346,
          "duration": 0.10416649999999805
        },
        {
          "name": "G#2",
          "midi": 44,
          "time": 47.70825699999996,
          "velocity": 0.7086614173228346,
          "duration": 0.10416649999999805
        },
        {
          "name": "G#2",
          "midi": 44,
          "time": 47.91658999999996,
          "velocity": 0.7086614173228346,
          "duration": 0.10416649999999805
        },
        {
          "name": "G#2",
          "midi": 44,
          "time": 48.12492299999995,
          "velocity": 0.7086614173228346,
          "duration": 0.10416649999999805
        },
        {
          "name": "G#2",
          "midi": 44,
          "time": 48.33325599999995,
          "velocity": 0.7086614173228346,
          "duration": 0.10416649999999805
        },
        {
          "name": "G#2",
          "midi": 44,
          "time": 48.541588999999945,
          "velocity": 0.7086614173228346,
          "duration": 0.10416649999999805
        },
        {
          "name": "G#2",
          "midi": 44,
          "time": 48.74992199999994,
          "velocity": 0.7086614173228346,
          "duration": 0.10416649999999805
        },
        {
          "name": "G#2",
          "midi": 44,
          "time": 48.95825499999994,
          "velocity": 0.7086614173228346,
          "duration": 0.10416649999999805
        },
        {
          "name": "G#2",
          "midi": 44,
          "time": 49.16658799999993,
          "velocity": 0.7086614173228346,
          "duration": 0.10416649999999805
        },
        {
          "name": "G#2",
          "midi": 44,
          "time": 49.37492099999993,
          "velocity": 0.7086614173228346,
          "duration": 0.10416649999999805
        },
        {
          "name": "G#2",
          "midi": 44,
          "time": 49.583253999999926,
          "velocity": 0.7086614173228346,
          "duration": 0.10416649999999805
        },
        {
          "name": "G#2",
          "midi": 44,
          "time": 49.79158699999992,
          "velocity": 0.7086614173228346,
          "duration": 0.10416649999999805
        },
        {
          "name": "G#2",
          "midi": 44,
          "time": 49.99991999999992,
          "velocity": 0.7086614173228346,
          "duration": 0.10416649999999805
        }
      ],
      "controlChanges": {},
      "id": 10,
      "name": "cymbal1             ",
      "instrumentNumber": 0,
      "instrument": "standard kit",
      "instrumentFamily": "drums",
      "channelNumber": 9,
      "isPercussion": true
    },
    {
      "startTime": 1.249998,
      "duration": 50.104086499999944,
      "length": 137,
      "notes": [
        {
          "name": "E2",
          "midi": 40,
          "time": 1.249998,
          "velocity": 0.7086614173228346,
          "duration": 0.10416650000000005
        },
        {
          "name": "E2",
          "midi": 40,
          "time": 1.458331,
          "velocity": 0.7086614173228346,
          "duration": 0.10416650000000005
        },
        {
          "name": "E2",
          "midi": 40,
          "time": 1.6666640000000001,
          "velocity": 0.7086614173228346,
          "duration": 0.10416650000000005
        },
        {
          "name": "E2",
          "midi": 40,
          "time": 1.8749970000000002,
          "velocity": 0.7086614173228346,
          "duration": 0.10416650000000005
        },
        {
          "name": "E2",
          "midi": 40,
          "time": 2.08333,
          "velocity": 0.7086614173228346,
          "duration": 0.10416649999999983
        },
        {
          "name": "E2",
          "midi": 40,
          "time": 2.291663,
          "velocity": 0.7086614173228346,
          "duration": 0.10416649999999983
        },
        {
          "name": "E2",
          "midi": 40,
          "time": 2.4999959999999994,
          "velocity": 0.7086614173228346,
          "duration": 0.10416649999999983
        },
        {
          "name": "E2",
          "midi": 40,
          "time": 2.708328999999999,
          "velocity": 0.7086614173228346,
          "duration": 0.10416649999999983
        },
        {
          "name": "E2",
          "midi": 40,
          "time": 2.9166619999999988,
          "velocity": 0.7086614173228346,
          "duration": 0.10416649999999983
        },
        {
          "name": "E2",
          "midi": 40,
          "time": 3.1249949999999984,
          "velocity": 0.7086614173228346,
          "duration": 0.10416649999999983
        },
        {
          "name": "E2",
          "midi": 40,
          "time": 3.333327999999998,
          "velocity": 0.7086614173228346,
          "duration": 0.10416649999999983
        },
        {
          "name": "E2",
          "midi": 40,
          "time": 3.5416609999999977,
          "velocity": 0.7086614173228346,
          "duration": 0.10416649999999983
        },
        {
          "name": "E2",
          "midi": 40,
          "time": 3.7499939999999974,
          "velocity": 0.7086614173228346,
          "duration": 0.10416649999999983
        },
        {
          "name": "E2",
          "midi": 40,
          "time": 3.958326999999997,
          "velocity": 0.7086614173228346,
          "duration": 0.10416649999999983
        },
        {
          "name": "E2",
          "midi": 40,
          "time": 4.166659999999997,
          "velocity": 0.7086614173228346,
          "duration": 0.10416649999999983
        },
        {
          "name": "E2",
          "midi": 40,
          "time": 4.374992999999996,
          "velocity": 0.7086614173228346,
          "duration": 0.10416649999999983
        },
        {
          "name": "E2",
          "midi": 40,
          "time": 4.583325999999996,
          "velocity": 0.7086614173228346,
          "duration": 0.10416649999999983
        },
        {
          "name": "E2",
          "midi": 40,
          "time": 4.791658999999996,
          "velocity": 0.7086614173228346,
          "duration": 0.10416649999999983
        },
        {
          "name": "E2",
          "midi": 40,
          "time": 4.999991999999995,
          "velocity": 0.7086614173228346,
          "duration": 0.10416649999999983
        },
        {
          "name": "E2",
          "midi": 40,
          "time": 5.208324999999995,
          "velocity": 0.7086614173228346,
          "duration": 0.10416649999999983
        },
        {
          "name": "E2",
          "midi": 40,
          "time": 5.416657999999995,
          "velocity": 0.7086614173228346,
          "duration": 0.10416649999999983
        },
        {
          "name": "E2",
          "midi": 40,
          "time": 5.624990999999994,
          "velocity": 0.7086614173228346,
          "duration": 0.10416649999999983
        },
        {
          "name": "E2",
          "midi": 40,
          "time": 5.833323999999994,
          "velocity": 0.7086614173228346,
          "duration": 0.10416649999999983
        },
        {
          "name": "E2",
          "midi": 40,
          "time": 6.041656999999994,
          "velocity": 0.7086614173228346,
          "duration": 0.10416649999999983
        },
        {
          "name": "E2",
          "midi": 40,
          "time": 6.249989999999993,
          "velocity": 0.7086614173228346,
          "duration": 0.10416649999999983
        },
        {
          "name": "E2",
          "midi": 40,
          "time": 6.458322999999993,
          "velocity": 0.7086614173228346,
          "duration": 0.10416649999999983
        },
        {
          "name": "E2",
          "midi": 40,
          "time": 6.666655999999993,
          "velocity": 0.7086614173228346,
          "duration": 0.10416649999999983
        },
        {
          "name": "E2",
          "midi": 40,
          "time": 6.874988999999992,
          "velocity": 0.7086614173228346,
          "duration": 0.10416649999999983
        },
        {
          "name": "E2",
          "midi": 40,
          "time": 7.083321999999992,
          "velocity": 0.7086614173228346,
          "duration": 0.10416649999999983
        },
        {
          "name": "E2",
          "midi": 40,
          "time": 7.291654999999992,
          "velocity": 0.7086614173228346,
          "duration": 0.10416649999999983
        },
        {
          "name": "E2",
          "midi": 40,
          "time": 7.499987999999991,
          "velocity": 0.7086614173228346,
          "duration": 0.10416649999999983
        },
        {
          "name": "E2",
          "midi": 40,
          "time": 7.708320999999991,
          "velocity": 0.7086614173228346,
          "duration": 0.10416649999999983
        },
        {
          "name": "E2",
          "midi": 40,
          "time": 7.9166539999999905,
          "velocity": 0.7086614173228346,
          "duration": 0.10416649999999983
        },
        {
          "name": "E2",
          "midi": 40,
          "time": 8.12498699999999,
          "velocity": 0.7086614173228346,
          "duration": 0.10416649999999983
        },
        {
          "name": "E2",
          "midi": 40,
          "time": 8.33331999999999,
          "velocity": 0.7086614173228346,
          "duration": 0.10416649999999983
        },
        {
          "name": "E2",
          "midi": 40,
          "time": 8.54165299999999,
          "velocity": 0.7086614173228346,
          "duration": 0.10416649999999983
        },
        {
          "name": "E2",
          "midi": 40,
          "time": 8.74998599999999,
          "velocity": 0.7086614173228346,
          "duration": 0.10416649999999983
        },
        {
          "name": "E2",
          "midi": 40,
          "time": 8.958318999999989,
          "velocity": 0.7086614173228346,
          "duration": 0.10416649999999983
        },
        {
          "name": "E2",
          "midi": 40,
          "time": 9.166651999999988,
          "velocity": 0.7086614173228346,
          "duration": 0.10416649999999983
        },
        {
          "name": "E2",
          "midi": 40,
          "time": 9.374984999999988,
          "velocity": 0.7086614173228346,
          "duration": 0.10416649999999983
        },
        {
          "name": "E2",
          "midi": 40,
          "time": 9.583317999999988,
          "velocity": 0.7086614173228346,
          "duration": 0.10416649999999983
        },
        {
          "name": "E2",
          "midi": 40,
          "time": 9.791650999999987,
          "velocity": 0.7086614173228346,
          "duration": 0.10416649999999983
        },
        {
          "name": "E2",
          "midi": 40,
          "time": 9.999983999999987,
          "velocity": 0.7086614173228346,
          "duration": 0.10416649999999983
        },
        {
          "name": "E2",
          "midi": 40,
          "time": 10.208316999999987,
          "velocity": 0.7086614173228346,
          "duration": 0.10416649999999983
        },
        {
          "name": "E2",
          "midi": 40,
          "time": 10.416649999999986,
          "velocity": 0.7086614173228346,
          "duration": 0.10416649999999983
        },
        {
          "name": "E2",
          "midi": 40,
          "time": 10.624982999999986,
          "velocity": 0.7086614173228346,
          "duration": 0.10416649999999983
        },
        {
          "name": "E2",
          "midi": 40,
          "time": 10.833315999999986,
          "velocity": 0.7086614173228346,
          "duration": 0.10416649999999983
        },
        {
          "name": "E2",
          "midi": 40,
          "time": 11.041648999999985,
          "velocity": 0.7086614173228346,
          "duration": 0.10416649999999983
        },
        {
          "name": "E2",
          "midi": 40,
          "time": 21.458298999999982,
          "velocity": 0.7086614173228346,
          "duration": 0.1041665000000016
        },
        {
          "name": "E2",
          "midi": 40,
          "time": 21.666631999999986,
          "velocity": 0.7086614173228346,
          "duration": 0.1041665000000016
        },
        {
          "name": "E2",
          "midi": 40,
          "time": 21.87496499999999,
          "velocity": 0.7086614173228346,
          "duration": 0.1041665000000016
        },
        {
          "name": "E2",
          "midi": 40,
          "time": 22.083297999999992,
          "velocity": 0.7086614173228346,
          "duration": 0.1041665000000016
        },
        {
          "name": "E2",
          "midi": 40,
          "time": 22.291630999999995,
          "velocity": 0.7086614173228346,
          "duration": 0.1041665000000016
        },
        {
          "name": "E2",
          "midi": 40,
          "time": 22.708296999999998,
          "velocity": 0.7086614173228346,
          "duration": 0.1041665000000016
        },
        {
          "name": "E2",
          "midi": 40,
          "time": 22.91663,
          "velocity": 0.7086614173228346,
          "duration": 0.1041665000000016
        },
        {
          "name": "E2",
          "midi": 40,
          "time": 23.124963000000005,
          "velocity": 0.7086614173228346,
          "duration": 0.1041665000000016
        },
        {
          "name": "E2",
          "midi": 40,
          "time": 23.333296000000008,
          "velocity": 0.7086614173228346,
          "duration": 0.1041665000000016
        },
        {
          "name": "E2",
          "midi": 40,
          "time": 23.54162900000001,
          "velocity": 0.7086614173228346,
          "duration": 0.1041665000000016
        },
        {
          "name": "E2",
          "midi": 40,
          "time": 23.958295000000014,
          "velocity": 0.7086614173228346,
          "duration": 0.1041665000000016
        },
        {
          "name": "E2",
          "midi": 40,
          "time": 24.166628000000017,
          "velocity": 0.7086614173228346,
          "duration": 0.1041665000000016
        },
        {
          "name": "E2",
          "midi": 40,
          "time": 24.37496100000002,
          "velocity": 0.7086614173228346,
          "duration": 0.1041665000000016
        },
        {
          "name": "E2",
          "midi": 40,
          "time": 24.583294000000024,
          "velocity": 0.7086614173228346,
          "duration": 0.1041665000000016
        },
        {
          "name": "E2",
          "midi": 40,
          "time": 24.791627000000027,
          "velocity": 0.7086614173228346,
          "duration": 0.1041665000000016
        },
        {
          "name": "E2",
          "midi": 40,
          "time": 25.20829300000003,
          "velocity": 0.7086614173228346,
          "duration": 0.1041665000000016
        },
        {
          "name": "E2",
          "midi": 40,
          "time": 25.416626000000033,
          "velocity": 0.7086614173228346,
          "duration": 0.1041665000000016
        },
        {
          "name": "E2",
          "midi": 40,
          "time": 25.624959000000036,
          "velocity": 0.7086614173228346,
          "duration": 0.1041665000000016
        },
        {
          "name": "E2",
          "midi": 40,
          "time": 25.83329200000004,
          "velocity": 0.7086614173228346,
          "duration": 0.1041665000000016
        },
        {
          "name": "E2",
          "midi": 40,
          "time": 26.041625000000042,
          "velocity": 0.7086614173228346,
          "duration": 0.1041665000000016
        },
        {
          "name": "E2",
          "midi": 40,
          "time": 26.458291000000045,
          "velocity": 0.7086614173228346,
          "duration": 0.1041665000000016
        },
        {
          "name": "E2",
          "midi": 40,
          "time": 26.66662400000005,
          "velocity": 0.7086614173228346,
          "duration": 0.1041665000000016
        },
        {
          "name": "E2",
          "midi": 40,
          "time": 26.87495700000005,
          "velocity": 0.7086614173228346,
          "duration": 0.1041665000000016
        },
        {
          "name": "E2",
          "midi": 40,
          "time": 27.083290000000055,
          "velocity": 0.7086614173228346,
          "duration": 0.1041665000000016
        },
        {
          "name": "E2",
          "midi": 40,
          "time": 27.291623000000058,
          "velocity": 0.7086614173228346,
          "duration": 0.1041665000000016
        },
        {
          "name": "E2",
          "midi": 40,
          "time": 27.70828900000006,
          "velocity": 0.7086614173228346,
          "duration": 0.1041665000000016
        },
        {
          "name": "E2",
          "midi": 40,
          "time": 27.916622000000064,
          "velocity": 0.7086614173228346,
          "duration": 0.1041665000000016
        },
        {
          "name": "E2",
          "midi": 40,
          "time": 28.124955000000067,
          "velocity": 0.7086614173228346,
          "duration": 0.1041665000000016
        },
        {
          "name": "E2",
          "midi": 40,
          "time": 28.33328800000007,
          "velocity": 0.7086614173228346,
          "duration": 0.1041665000000016
        },
        {
          "name": "E2",
          "midi": 40,
          "time": 28.541621000000074,
          "velocity": 0.7086614173228346,
          "duration": 0.1041665000000016
        },
        {
          "name": "E2",
          "midi": 40,
          "time": 28.958287000000077,
          "velocity": 0.7086614173228346,
          "duration": 0.1041665000000016
        },
        {
          "name": "E2",
          "midi": 40,
          "time": 29.16662000000008,
          "velocity": 0.7086614173228346,
          "duration": 0.1041665000000016
        },
        {
          "name": "E2",
          "midi": 40,
          "time": 29.374953000000083,
          "velocity": 0.7086614173228346,
          "duration": 0.1041665000000016
        },
        {
          "name": "E2",
          "midi": 40,
          "time": 29.583286000000086,
          "velocity": 0.7086614173228346,
          "duration": 0.1041665000000016
        },
        {
          "name": "E2",
          "midi": 40,
          "time": 29.79161900000009,
          "velocity": 0.7086614173228346,
          "duration": 0.1041665000000016
        },
        {
          "name": "E2",
          "midi": 40,
          "time": 30.208285000000092,
          "velocity": 0.7086614173228346,
          "duration": 0.1041665000000016
        },
        {
          "name": "E2",
          "midi": 40,
          "time": 30.416618000000096,
          "velocity": 0.7086614173228346,
          "duration": 0.1041665000000016
        },
        {
          "name": "E2",
          "midi": 40,
          "time": 30.6249510000001,
          "velocity": 0.7086614173228346,
          "duration": 0.1041665000000016
        },
        {
          "name": "E2",
          "midi": 40,
          "time": 30.833284000000102,
          "velocity": 0.7086614173228346,
          "duration": 0.1041665000000016
        },
        {
          "name": "E2",
          "midi": 40,
          "time": 31.041617000000105,
          "velocity": 0.7086614173228346,
          "duration": 0.1041665000000016
        },
        {
          "name": "E2",
          "midi": 40,
          "time": 31.24995000000011,
          "velocity": 0.7086614173228346,
          "duration": 0.1041665000000016
        },
        {
          "name": "E2",
          "midi": 40,
          "time": 31.45828300000011,
          "velocity": 0.7086614173228346,
          "duration": 0.1041665000000016
        },
        {
          "name": "E2",
          "midi": 40,
          "time": 31.666616000000115,
          "velocity": 0.7086614173228346,
          "duration": 0.1041665000000016
        },
        {
          "name": "E2",
          "midi": 40,
          "time": 31.874949000000118,
          "velocity": 0.7086614173228346,
          "duration": 0.1041665000000016
        },
        {
          "name": "E2",
          "midi": 40,
          "time": 32.08328200000012,
          "velocity": 0.7086614173228346,
          "duration": 0.10416649999999805
        },
        {
          "name": "E2",
          "midi": 40,
          "time": 32.291615000000114,
          "velocity": 0.7086614173228346,
          "duration": 0.10416649999999805
        },
        {
          "name": "E2",
          "midi": 40,
          "time": 32.49994800000011,
          "velocity": 0.7086614173228346,
          "duration": 0.10416649999999805
        },
        {
          "name": "E2",
          "midi": 40,
          "time": 32.708281000000106,
          "velocity": 0.7086614173228346,
          "duration": 0.10416649999999805
        },
        {
          "name": "E2",
          "midi": 40,
          "time": 32.9166140000001,
          "velocity": 0.7086614173228346,
          "duration": 0.10416649999999805
        },
        {
          "name": "E2",
          "midi": 40,
          "time": 33.1249470000001,
          "velocity": 0.7086614173228346,
          "duration": 0.10416649999999805
        },
        {
          "name": "E2",
          "midi": 40,
          "time": 33.333280000000094,
          "velocity": 0.7086614173228346,
          "duration": 0.10416649999999805
        },
        {
          "name": "E2",
          "midi": 40,
          "time": 33.54161300000009,
          "velocity": 0.7086614173228346,
          "duration": 0.10416649999999805
        },
        {
          "name": "E2",
          "midi": 40,
          "time": 33.74994600000009,
          "velocity": 0.7086614173228346,
          "duration": 0.10416649999999805
        },
        {
          "name": "E2",
          "midi": 40,
          "time": 33.95827900000008,
          "velocity": 0.7086614173228346,
          "duration": 0.10416649999999805
        },
        {
          "name": "E2",
          "midi": 40,
          "time": 34.16661200000008,
          "velocity": 0.7086614173228346,
          "duration": 0.10416649999999805
        },
        {
          "name": "E2",
          "midi": 40,
          "time": 34.374945000000075,
          "velocity": 0.7086614173228346,
          "duration": 0.10416649999999805
        },
        {
          "name": "E2",
          "midi": 40,
          "time": 34.58327800000007,
          "velocity": 0.7086614173228346,
          "duration": 0.10416649999999805
        },
        {
          "name": "E2",
          "midi": 40,
          "time": 34.79161100000007,
          "velocity": 0.7086614173228346,
          "duration": 0.10416649999999805
        },
        {
          "name": "E2",
          "midi": 40,
          "time": 34.99994400000006,
          "velocity": 0.7086614173228346,
          "duration": 0.10416649999999805
        },
        {
          "name": "E2",
          "midi": 40,
          "time": 35.20827700000006,
          "velocity": 0.7086614173228346,
          "duration": 0.10416649999999805
        },
        {
          "name": "E2",
          "midi": 40,
          "time": 35.416610000000055,
          "velocity": 0.7086614173228346,
          "duration": 0.10416649999999805
        },
        {
          "name": "E2",
          "midi": 40,
          "time": 35.62494300000005,
          "velocity": 0.7086614173228346,
          "duration": 0.10416649999999805
        },
        {
          "name": "E2",
          "midi": 40,
          "time": 35.83327600000005,
          "velocity": 0.7086614173228346,
          "duration": 0.10416649999999805
        },
        {
          "name": "E2",
          "midi": 40,
          "time": 36.041609000000044,
          "velocity": 0.7086614173228346,
          "duration": 0.10416649999999805
        },
        {
          "name": "E2",
          "midi": 40,
          "time": 36.24994200000004,
          "velocity": 0.7086614173228346,
          "duration": 0.10416649999999805
        },
        {
          "name": "E2",
          "midi": 40,
          "time": 36.458275000000036,
          "velocity": 0.7086614173228346,
          "duration": 0.10416649999999805
        },
        {
          "name": "E2",
          "midi": 40,
          "time": 36.66660800000003,
          "velocity": 0.7086614173228346,
          "duration": 0.10416649999999805
        },
        {
          "name": "E2",
          "midi": 40,
          "time": 36.87494100000003,
          "velocity": 0.7086614173228346,
          "duration": 0.10416649999999805
        },
        {
          "name": "E2",
          "midi": 40,
          "time": 37.083274000000024,
          "velocity": 0.7086614173228346,
          "duration": 0.10416649999999805
        },
        {
          "name": "E2",
          "midi": 40,
          "time": 37.29160700000002,
          "velocity": 0.7086614173228346,
          "duration": 0.10416649999999805
        },
        {
          "name": "E2",
          "midi": 40,
          "time": 37.49994000000002,
          "velocity": 0.7086614173228346,
          "duration": 0.10416649999999805
        },
        {
          "name": "E2",
          "midi": 40,
          "time": 37.70827300000001,
          "velocity": 0.7086614173228346,
          "duration": 0.10416649999999805
        },
        {
          "name": "E2",
          "midi": 40,
          "time": 37.91660600000001,
          "velocity": 0.7086614173228346,
          "duration": 0.10416649999999805
        },
        {
          "name": "E2",
          "midi": 40,
          "time": 38.124939000000005,
          "velocity": 0.7086614173228346,
          "duration": 0.10416649999999805
        },
        {
          "name": "E2",
          "midi": 40,
          "time": 38.333272,
          "velocity": 0.7086614173228346,
          "duration": 0.10416649999999805
        },
        {
          "name": "E2",
          "midi": 40,
          "time": 38.541605,
          "velocity": 0.7086614173228346,
          "duration": 0.10416649999999805
        },
        {
          "name": "E2",
          "midi": 40,
          "time": 38.74993799999999,
          "velocity": 0.7086614173228346,
          "duration": 0.10416649999999805
        },
        {
          "name": "E2",
          "midi": 40,
          "time": 38.95827099999999,
          "velocity": 0.7086614173228346,
          "duration": 0.10416649999999805
        },
        {
          "name": "E2",
          "midi": 40,
          "time": 39.166603999999985,
          "velocity": 0.7086614173228346,
          "duration": 0.10416649999999805
        },
        {
          "name": "E2",
          "midi": 40,
          "time": 39.37493699999998,
          "velocity": 0.7086614173228346,
          "duration": 0.10416649999999805
        },
        {
          "name": "E2",
          "midi": 40,
          "time": 39.58326999999998,
          "velocity": 0.7086614173228346,
          "duration": 0.10416649999999805
        },
        {
          "name": "E2",
          "midi": 40,
          "time": 39.791602999999974,
          "velocity": 0.7086614173228346,
          "duration": 0.10416649999999805
        },
        {
          "name": "E2",
          "midi": 40,
          "time": 39.99993599999997,
          "velocity": 0.7086614173228346,
          "duration": 0.10416649999999805
        },
        {
          "name": "E2",
          "midi": 40,
          "time": 40.208268999999966,
          "velocity": 0.7086614173228346,
          "duration": 0.10416649999999805
        },
        {
          "name": "E2",
          "midi": 40,
          "time": 40.41660199999996,
          "velocity": 0.7086614173228346,
          "duration": 0.10416649999999805
        },
        {
          "name": "E2",
          "midi": 40,
          "time": 40.62493499999996,
          "velocity": 0.7086614173228346,
          "duration": 0.10416649999999805
        },
        {
          "name": "G2",
          "midi": 43,
          "time": 40.833267999999954,
          "velocity": 0.7086614173228346,
          "duration": 0.10416649999999805
        },
        {
          "name": "G2",
          "midi": 43,
          "time": 41.04160099999995,
          "velocity": 0.7086614173228346,
          "duration": 0.10416649999999805
        },
        {
          "name": "G2",
          "midi": 43,
          "time": 49.999919999999946,
          "velocity": 0.7086614173228346,
          "duration": 0.10416649999999805
        }
      ],
      "controlChanges": {},
      "id": 11,
      "name": "hihat1              ",
      "instrumentNumber": 0,
      "instrument": "standard kit",
      "instrumentFamily": "drums",
      "channelNumber": 10,
      "isPercussion": true
    }
  ]
}
