{
  "header": {
    "PPQ": 192,
    "timeSignature": [
      3,
      4
    ],
    "bpm": 140.00014000014,
    "name": "We Wish You a       "
  },
  "startTime": 0,
  "duration": 41.89281525000003,
  "tracks": [
    {
      "startTime": 0,
      "duration": 0,
      "length": 0,
      "notes": [],
      "controlChanges": {},
      "id": 0
    },
    {
      "startTime": 0,
      "duration": 0,
      "length": 0,
      "notes": [],
      "controlChanges": {},
      "id": 1,
      "name": "We Wish You a       "
    },
    {
      "startTime": 0,
      "duration": 0,
      "length": 0,
      "notes": [],
      "controlChanges": {},
      "id": 2,
      "name": "Merry Chrismas      "
    },
    {
      "startTime": 0,
      "duration": 0,
      "length": 0,
      "notes": [],
      "controlChanges": {},
      "id": 3,
      "name": "Copyright (C) 1990  "
    },
    {
      "startTime": 0,
      "duration": 0,
      "length": 0,
      "notes": [],
      "controlChanges": {},
      "id": 4,
      "name": "Voyetra Technologies"
    },
    {
      "startTime": 0.8571420000000001,
      "duration": 41.604869109375,
      "length": 104,
      "notes": [
        {
          "name": "C4",
          "midi": 60,
          "time": 0.8571420000000001,
          "velocity": 1,
          "duration": 0.40624959375000014
        },
        {
          "name": "F4",
          "midi": 65,
          "time": 1.285713,
          "velocity": 1,
          "duration": 0.2232140625000001
        },
        {
          "name": "F4",
          "midi": 65,
          "time": 1.7142840000000001,
          "velocity": 1,
          "duration": 0.18080339062499995
        },
        {
          "name": "G4",
          "midi": 67,
          "time": 1.9285695,
          "velocity": 0.9921259842519685,
          "duration": 0.23214262499999982
        },
        {
          "name": "F4",
          "midi": 65,
          "time": 2.142855,
          "velocity": 1,
          "duration": 0.196428375
        },
        {
          "name": "E4",
          "midi": 64,
          "time": 2.3571405,
          "velocity": 1,
          "duration": 0.23660690625000003
        },
        {
          "name": "D4",
          "midi": 62,
          "time": 2.5714259999999998,
          "velocity": 1,
          "duration": 0.261160453125
        },
        {
          "name": "D4",
          "midi": 62,
          "time": 2.9999969999999996,
          "velocity": 1,
          "duration": 0.261160453125
        },
        {
          "name": "D4",
          "midi": 62,
          "time": 3.4285679999999994,
          "velocity": 1,
          "duration": 0.30357112499999994
        },
        {
          "name": "G4",
          "midi": 67,
          "time": 3.857138999999999,
          "velocity": 1,
          "duration": 0.25669617187500027
        },
        {
          "name": "G4",
          "midi": 67,
          "time": 4.28571,
          "velocity": 1,
          "duration": 0.1852676718749997
        },
        {
          "name": "A4",
          "midi": 69,
          "time": 4.4999955,
          "velocity": 0.952755905511811,
          "duration": 0.2142854999999999
        },
        {
          "name": "G4",
          "midi": 67,
          "time": 4.714281,
          "velocity": 0.968503937007874,
          "duration": 0.21874978124999966
        },
        {
          "name": "F4",
          "midi": 65,
          "time": 4.9285665,
          "velocity": 0.9921259842519685,
          "duration": 0.21874978124999966
        },
        {
          "name": "E4",
          "midi": 64,
          "time": 5.1428519999999995,
          "velocity": 1,
          "duration": 0.24553546874999999
        },
        {
          "name": "C4",
          "midi": 60,
          "time": 5.571422999999999,
          "velocity": 0.9921259842519685,
          "duration": 0.21874978124999966
        },
        {
          "name": "C4",
          "midi": 60,
          "time": 5.999993999999999,
          "velocity": 1,
          "duration": 0.2745532968750002
        },
        {
          "name": "A4",
          "midi": 69,
          "time": 6.428564999999999,
          "velocity": 1,
          "duration": 0.261160453125
        },
        {
          "name": "A4",
          "midi": 69,
          "time": 6.857135999999999,
          "velocity": 1,
          "duration": 0.12499987500000032
        },
        {
          "name": "A#4",
          "midi": 70,
          "time": 7.071421499999999,
          "velocity": 0.9606299212598425,
          "duration": 0.2053569375000004
        },
        {
          "name": "A4",
          "midi": 69,
          "time": 7.2857069999999995,
          "velocity": 0.9921259842519685,
          "duration": 0.1941962343750001
        },
        {
          "name": "G4",
          "midi": 67,
          "time": 7.499992499999999,
          "velocity": 0.9921259842519685,
          "duration": 0.196428375
        },
        {
          "name": "F4",
          "midi": 65,
          "time": 7.714277999999999,
          "velocity": 1,
          "duration": 0.2745532968750002
        },
        {
          "name": "D4",
          "midi": 62,
          "time": 8.142849,
          "velocity": 1,
          "duration": 0.28571400000000047
        },
        {
          "name": "C4",
          "midi": 60,
          "time": 8.57142,
          "velocity": 1,
          "duration": 0.1383927187499996
        },
        {
          "name": "C4",
          "midi": 60,
          "time": 8.785705499999999,
          "velocity": 0.952755905511811,
          "duration": 0.12499987500000032
        },
        {
          "name": "D4",
          "midi": 62,
          "time": 8.999991,
          "velocity": 1,
          "duration": 0.3035711249999995
        },
        {
          "name": "G4",
          "midi": 67,
          "time": 9.428562,
          "velocity": 1,
          "duration": 0.34598179687499986
        },
        {
          "name": "E4",
          "midi": 64,
          "time": 9.857133,
          "velocity": 1,
          "duration": 0.24999975000000063
        },
        {
          "name": "F4",
          "midi": 65,
          "time": 10.285703999999999,
          "velocity": 1,
          "duration": 0.4709816718750002
        },
        {
          "name": "C4",
          "midi": 60,
          "time": 11.142845999999999,
          "velocity": 1,
          "duration": 0.27901757812499994
        },
        {
          "name": "F4",
          "midi": 65,
          "time": 11.571416999999999,
          "velocity": 1,
          "duration": 0.29910684374999974
        },
        {
          "name": "F4",
          "midi": 65,
          "time": 11.999987999999998,
          "velocity": 1,
          "duration": 0.21874978125000055
        },
        {
          "name": "F4",
          "midi": 65,
          "time": 12.428558999999998,
          "velocity": 1,
          "duration": 0.38616032812499945
        },
        {
          "name": "E4",
          "midi": 64,
          "time": 12.857129999999998,
          "velocity": 1,
          "duration": 0.7299099843750003
        },
        {
          "name": "E4",
          "midi": 64,
          "time": 13.714271999999998,
          "velocity": 1,
          "duration": 0.35937464062499913
        },
        {
          "name": "F4",
          "midi": 65,
          "time": 14.142842999999997,
          "velocity": 1,
          "duration": 0.39508889062500074
        },
        {
          "name": "E4",
          "midi": 64,
          "time": 14.571413999999999,
          "velocity": 1,
          "duration": 0.4263388593750008
        },
        {
          "name": "D4",
          "midi": 62,
          "time": 14.999985,
          "velocity": 1,
          "duration": 0.37723176562499994
        },
        {
          "name": "C4",
          "midi": 60,
          "time": 15.428556,
          "velocity": 1,
          "duration": 0.6607136249999996
        },
        {
          "name": "G4",
          "midi": 67,
          "time": 16.285698,
          "velocity": 1,
          "duration": 0.27901757812499994
        },
        {
          "name": "A4",
          "midi": 69,
          "time": 16.714269,
          "velocity": 1,
          "duration": 0.2857139999999987
        },
        {
          "name": "G4",
          "midi": 67,
          "time": 17.14284,
          "velocity": 1,
          "duration": 0.38616032812500123
        },
        {
          "name": "F4",
          "midi": 65,
          "time": 17.571411,
          "velocity": 1,
          "duration": 0.42410671875000006
        },
        {
          "name": "C5",
          "midi": 72,
          "time": 17.999982000000003,
          "velocity": 0.984251968503937,
          "duration": 0.3035711250000013
        },
        {
          "name": "C4",
          "midi": 60,
          "time": 18.428553000000004,
          "velocity": 0.9448818897637795,
          "duration": 0.24330332812499833
        },
        {
          "name": "C4",
          "midi": 60,
          "time": 18.857124000000002,
          "velocity": 1,
          "duration": 0.1160713125000008
        },
        {
          "name": "C4",
          "midi": 60,
          "time": 19.071409500000005,
          "velocity": 0.8661417322834646,
          "duration": 0.15848198437500116
        },
        {
          "name": "D4",
          "midi": 62,
          "time": 19.285695000000008,
          "velocity": 1,
          "duration": 0.3303568124999998
        },
        {
          "name": "G4",
          "midi": 67,
          "time": 19.71426600000001,
          "velocity": 0.952755905511811,
          "duration": 0.31696396874999877
        },
        {
          "name": "E4",
          "midi": 64,
          "time": 20.142837000000007,
          "velocity": 1,
          "duration": 0.34374965625000087
        },
        {
          "name": "F4",
          "midi": 65,
          "time": 20.57140800000001,
          "velocity": 1,
          "duration": 0.7499992499999983
        },
        {
          "name": "C5",
          "midi": 72,
          "time": 21.42855000000001,
          "velocity": 1,
          "duration": 0.46205310937500244
        },
        {
          "name": "F5",
          "midi": 77,
          "time": 21.85712100000001,
          "velocity": 1,
          "duration": 0.2232140625000021
        },
        {
          "name": "F5",
          "midi": 77,
          "time": 22.28569200000001,
          "velocity": 1,
          "duration": 0.18080339062500173
        },
        {
          "name": "G5",
          "midi": 79,
          "time": 22.499977500000014,
          "velocity": 0.9921259842519685,
          "duration": 0.23214262499999805
        },
        {
          "name": "F5",
          "midi": 77,
          "time": 22.714263000000013,
          "velocity": 1,
          "duration": 0.196428375
        },
        {
          "name": "E5",
          "midi": 76,
          "time": 22.928548500000012,
          "velocity": 1,
          "duration": 0.23660690624999958
        },
        {
          "name": "D5",
          "midi": 74,
          "time": 23.14283400000001,
          "velocity": 1,
          "duration": 0.2611604531250009
        },
        {
          "name": "D5",
          "midi": 74,
          "time": 23.571405000000013,
          "velocity": 1,
          "duration": 0.2611604531250009
        },
        {
          "name": "D5",
          "midi": 74,
          "time": 23.999976000000014,
          "velocity": 1,
          "duration": 0.3035711250000013
        },
        {
          "name": "G5",
          "midi": 79,
          "time": 24.428547000000016,
          "velocity": 1,
          "duration": 0.2566961718749994
        },
        {
          "name": "G5",
          "midi": 79,
          "time": 24.857118000000014,
          "velocity": 1,
          "duration": 0.1852676718749997
        },
        {
          "name": "A5",
          "midi": 81,
          "time": 25.071403500000013,
          "velocity": 0.952755905511811,
          "duration": 0.21428549999999902
        },
        {
          "name": "G5",
          "midi": 79,
          "time": 25.285689000000012,
          "velocity": 0.968503937007874,
          "duration": 0.21874978125000055
        },
        {
          "name": "F5",
          "midi": 77,
          "time": 25.49997450000001,
          "velocity": 0.9921259842519685,
          "duration": 0.2187497812500041
        },
        {
          "name": "E5",
          "midi": 76,
          "time": 25.714260000000014,
          "velocity": 1,
          "duration": 0.24553546875000265
        },
        {
          "name": "C5",
          "midi": 72,
          "time": 26.142831000000015,
          "velocity": 0.9921259842519685,
          "duration": 0.21874978125000055
        },
        {
          "name": "C5",
          "midi": 72,
          "time": 26.571402000000017,
          "velocity": 1,
          "duration": 0.2745532968749984
        },
        {
          "name": "A5",
          "midi": 81,
          "time": 26.999973000000015,
          "velocity": 1,
          "duration": 0.2611604531250009
        },
        {
          "name": "A5",
          "midi": 81,
          "time": 27.428544000000016,
          "velocity": 1,
          "duration": 0.12499987500000032
        },
        {
          "name": "A#5",
          "midi": 82,
          "time": 27.642829500000015,
          "velocity": 0.9606299212598425,
          "duration": 0.2053569374999995
        },
        {
          "name": "A5",
          "midi": 81,
          "time": 27.857115000000015,
          "velocity": 0.9921259842519685,
          "duration": 0.19419623437499922
        },
        {
          "name": "G5",
          "midi": 79,
          "time": 28.071400500000014,
          "velocity": 0.9921259842519685,
          "duration": 0.196428375
        },
        {
          "name": "F5",
          "midi": 77,
          "time": 28.285686000000013,
          "velocity": 1,
          "duration": 0.2745532968749984
        },
        {
          "name": "D5",
          "midi": 74,
          "time": 28.71425700000001,
          "velocity": 1,
          "duration": 0.2857139999999987
        },
        {
          "name": "C5",
          "midi": 72,
          "time": 29.14282800000001,
          "velocity": 1,
          "duration": 0.13839271875000136
        },
        {
          "name": "C5",
          "midi": 72,
          "time": 29.35711350000001,
          "velocity": 0.952755905511811,
          "duration": 0.12499987500000032
        },
        {
          "name": "D5",
          "midi": 74,
          "time": 29.57139900000001,
          "velocity": 1,
          "duration": 0.3035711250000013
        },
        {
          "name": "G5",
          "midi": 79,
          "time": 29.999970000000012,
          "velocity": 1,
          "duration": 0.34598179687500163
        },
        {
          "name": "E5",
          "midi": 76,
          "time": 30.428541000000013,
          "velocity": 1,
          "duration": 0.24999975000000063
        },
        {
          "name": "F5",
          "midi": 77,
          "time": 30.857112000000015,
          "velocity": 1,
          "duration": 0.4709816718749984
        },
        {
          "name": "C5",
          "midi": 72,
          "time": 31.714254000000015,
          "velocity": 1,
          "duration": 0.27901757812499994
        },
        {
          "name": "F5",
          "midi": 77,
          "time": 32.142825000000016,
          "velocity": 1,
          "duration": 0.2991068437500033
        },
        {
          "name": "F5",
          "midi": 77,
          "time": 32.57139600000002,
          "velocity": 1,
          "duration": 0.218749781249997
        },
        {
          "name": "F5",
          "midi": 77,
          "time": 32.99996700000002,
          "velocity": 1,
          "duration": 0.38616032812500123
        },
        {
          "name": "E5",
          "midi": 76,
          "time": 33.42853800000002,
          "velocity": 1,
          "duration": 0.7299099843749985
        },
        {
          "name": "E5",
          "midi": 76,
          "time": 34.28568000000001,
          "velocity": 1,
          "duration": 0.35937464062499913
        },
        {
          "name": "F5",
          "midi": 77,
          "time": 34.71425100000001,
          "velocity": 1,
          "duration": 0.3950888906249972
        },
        {
          "name": "E5",
          "midi": 76,
          "time": 35.14282200000001,
          "velocity": 1,
          "duration": 0.4263388593750008
        },
        {
          "name": "D5",
          "midi": 74,
          "time": 35.57139300000001,
          "velocity": 1,
          "duration": 0.37723176562499816
        },
        {
          "name": "C5",
          "midi": 72,
          "time": 35.999964000000006,
          "velocity": 1,
          "duration": 0.6607136249999996
        },
        {
          "name": "G5",
          "midi": 79,
          "time": 36.85710600000001,
          "velocity": 1,
          "duration": 0.27901757812499994
        },
        {
          "name": "A5",
          "midi": 81,
          "time": 37.28567700000001,
          "velocity": 1,
          "duration": 0.2857139999999987
        },
        {
          "name": "G5",
          "midi": 79,
          "time": 37.714248000000005,
          "velocity": 1,
          "duration": 0.38616032812500123
        },
        {
          "name": "F5",
          "midi": 77,
          "time": 38.142819,
          "velocity": 1,
          "duration": 0.4241067187499965
        },
        {
          "name": "C6",
          "midi": 84,
          "time": 38.57139,
          "velocity": 0.984251968503937,
          "duration": 0.3035711249999977
        },
        {
          "name": "C5",
          "midi": 72,
          "time": 38.999961,
          "velocity": 0.9448818897637795,
          "duration": 0.24330332812500188
        },
        {
          "name": "C5",
          "midi": 72,
          "time": 39.428532000000004,
          "velocity": 1,
          "duration": 0.11607131249999725
        },
        {
          "name": "C5",
          "midi": 72,
          "time": 39.6428175,
          "velocity": 0.8661417322834646,
          "duration": 0.15848198437500116
        },
        {
          "name": "D5",
          "midi": 74,
          "time": 39.857103,
          "velocity": 1,
          "duration": 0.3303568124999998
        },
        {
          "name": "G5",
          "midi": 79,
          "time": 40.285674,
          "velocity": 0.952755905511811,
          "duration": 0.3169639687500023
        },
        {
          "name": "E5",
          "midi": 76,
          "time": 40.714245000000005,
          "velocity": 1,
          "duration": 0.3437496562499973
        },
        {
          "name": "F5",
          "midi": 77,
          "time": 41.142816,
          "velocity": 1,
          "duration": 0.4620531093749989
        }
      ],
      "controlChanges": {
        "50": [
          {
            "number": 50,
            "time": 2.9999969999999996,
            "value": 0.11811023622047244
          },
          {
            "number": 50,
            "time": 23.571405000000013,
            "value": 0.11811023622047244
          }
        ]
      },
      "id": 5,
      "name": "Melody              ",
      "instrumentNumber": 82,
      "instrument": "lead 3 (calliope)",
      "instrumentFamily": "synth lead",
      "channelNumber": 1,
      "isPercussion": false
    },
    {
      "startTime": 1.285713,
      "duration": 41.89281525000003,
      "length": 69,
      "notes": [
        {
          "name": "F2",
          "midi": 41,
          "time": 1.285713,
          "velocity": 1,
          "duration": 0.8482134375000003
        },
        {
          "name": "A2",
          "midi": 45,
          "time": 2.1428550000000004,
          "velocity": 0.952755905511811,
          "duration": 0.39508889062499986
        },
        {
          "name": "A#2",
          "midi": 46,
          "time": 2.571426,
          "velocity": 0.968503937007874,
          "duration": 0.8616062812500003
        },
        {
          "name": "A2",
          "midi": 45,
          "time": 3.4285680000000003,
          "velocity": 0.9212598425196851,
          "duration": 0.43526742187500034
        },
        {
          "name": "G2",
          "midi": 43,
          "time": 3.8571390000000005,
          "velocity": 0.952755905511811,
          "duration": 0.8660705625000005
        },
        {
          "name": "B2",
          "midi": 47,
          "time": 4.714281000000001,
          "velocity": 0.968503937007874,
          "duration": 0.44196384375000086
        },
        {
          "name": "C3",
          "midi": 48,
          "time": 5.142852000000001,
          "velocity": 0.9921259842519685,
          "duration": 0.8683027031250008
        },
        {
          "name": "A#2",
          "midi": 46,
          "time": 5.999994000000002,
          "velocity": 0.7480314960629921,
          "duration": 0.4285710000000007
        },
        {
          "name": "A2",
          "midi": 45,
          "time": 6.4285650000000025,
          "velocity": 1,
          "duration": 0.7812492187500002
        },
        {
          "name": "C#3",
          "midi": 49,
          "time": 7.285707000000003,
          "velocity": 1,
          "duration": 0.39732103124999973
        },
        {
          "name": "D3",
          "midi": 50,
          "time": 7.714278000000003,
          "velocity": 0.937007874015748,
          "duration": 0.8616062812500003
        },
        {
          "name": "A2",
          "midi": 45,
          "time": 8.571420000000003,
          "velocity": 0.937007874015748,
          "duration": 0.4017853124999995
        },
        {
          "name": "A#2",
          "midi": 46,
          "time": 8.999991000000003,
          "velocity": 0.9921259842519685,
          "duration": 0.40401745312500026
        },
        {
          "name": "G2",
          "midi": 43,
          "time": 9.428562000000003,
          "velocity": 0.968503937007874,
          "duration": 0.46428524999999965
        },
        {
          "name": "C3",
          "midi": 48,
          "time": 9.857133000000003,
          "velocity": 0.9212598425196851,
          "duration": 0.39732103124999973
        },
        {
          "name": "F2",
          "midi": 41,
          "time": 10.285704000000003,
          "velocity": 1,
          "duration": 0.7723206562500007
        },
        {
          "name": "C3",
          "midi": 48,
          "time": 11.142846000000004,
          "velocity": 0.937007874015748,
          "duration": 0.39508889062500074
        },
        {
          "name": "F2",
          "midi": 41,
          "time": 11.571417000000006,
          "velocity": 1,
          "duration": 0.7455349687500004
        },
        {
          "name": "F2",
          "midi": 41,
          "time": 12.428559000000005,
          "velocity": 0.9921259842519685,
          "duration": 0.3794639062500007
        },
        {
          "name": "C3",
          "midi": 48,
          "time": 12.857130000000007,
          "velocity": 0.9921259842519685,
          "duration": 0.7790170781249994
        },
        {
          "name": "C3",
          "midi": 48,
          "time": 13.714272000000006,
          "velocity": 0.968503937007874,
          "duration": 0.37723176562499994
        },
        {
          "name": "G2",
          "midi": 43,
          "time": 14.142843000000006,
          "velocity": 0.9921259842519685,
          "duration": 0.7544635312499999
        },
        {
          "name": "G2",
          "midi": 43,
          "time": 14.999985000000006,
          "velocity": 1,
          "duration": 0.36383892187500066
        },
        {
          "name": "C3",
          "midi": 48,
          "time": 15.428556000000006,
          "velocity": 0.8110236220472441,
          "duration": 0.7790170781249994
        },
        {
          "name": "A#2",
          "midi": 46,
          "time": 16.285698000000004,
          "velocity": 0.9921259842519685,
          "duration": 0.3816960468749997
        },
        {
          "name": "A2",
          "midi": 45,
          "time": 16.714269,
          "velocity": 0.937007874015748,
          "duration": 0.3772317656250017
        },
        {
          "name": "A2",
          "midi": 45,
          "time": 17.142840000000003,
          "velocity": 0.9291338582677166,
          "duration": 0.44196384375000264
        },
        {
          "name": "F2",
          "midi": 41,
          "time": 17.571411000000005,
          "velocity": 1,
          "duration": 0.4017853124999995
        },
        {
          "name": "C3",
          "midi": 48,
          "time": 17.999982000000003,
          "velocity": 0.8976377952755905,
          "duration": 0.6718743281249999
        },
        {
          "name": "A2",
          "midi": 45,
          "time": 18.857124000000002,
          "velocity": 1,
          "duration": 0.41517815625000054
        },
        {
          "name": "A#2",
          "midi": 46,
          "time": 19.285695000000004,
          "velocity": 1,
          "duration": 0.32812467187499905
        },
        {
          "name": "G2",
          "midi": 43,
          "time": 19.714266000000002,
          "velocity": 1,
          "duration": 0.406249593750001
        },
        {
          "name": "C3",
          "midi": 48,
          "time": 20.142837000000004,
          "velocity": 0.9921259842519685,
          "duration": 0.3124996875000008
        },
        {
          "name": "F2",
          "midi": 41,
          "time": 20.571408000000005,
          "velocity": 1,
          "duration": 0.7499992500000019
        },
        {
          "name": "C2",
          "midi": 36,
          "time": 21.42855000000001,
          "velocity": 1,
          "duration": 0.4285710000000016
        },
        {
          "name": "F2",
          "midi": 41,
          "time": 21.85712100000001,
          "velocity": 1,
          "duration": 0.8482134375000001
        },
        {
          "name": "A2",
          "midi": 45,
          "time": 22.71426300000001,
          "velocity": 0.952755905511811,
          "duration": 0.39508889062500074
        },
        {
          "name": "A#2",
          "midi": 46,
          "time": 23.14283400000001,
          "velocity": 0.968503937007874,
          "duration": 0.8616062812500012
        },
        {
          "name": "A2",
          "midi": 45,
          "time": 23.99997600000001,
          "velocity": 0.9212598425196851,
          "duration": 0.43526742187500034
        },
        {
          "name": "G2",
          "midi": 43,
          "time": 24.428547000000012,
          "velocity": 0.952755905511811,
          "duration": 0.8660705624999991
        },
        {
          "name": "B2",
          "midi": 47,
          "time": 25.285689000000012,
          "velocity": 0.968503937007874,
          "duration": 0.4419638437499991
        },
        {
          "name": "C3",
          "midi": 48,
          "time": 25.71426000000001,
          "velocity": 0.9921259842519685,
          "duration": 0.8683027031249999
        },
        {
          "name": "A#2",
          "midi": 46,
          "time": 26.57140200000001,
          "velocity": 0.7480314960629921,
          "duration": 0.4285710000000016
        },
        {
          "name": "A2",
          "midi": 45,
          "time": 26.99997300000001,
          "velocity": 1,
          "duration": 0.7812492187499984
        },
        {
          "name": "C#3",
          "midi": 49,
          "time": 27.85711500000001,
          "velocity": 1,
          "duration": 0.3973210312500015
        },
        {
          "name": "D3",
          "midi": 50,
          "time": 28.285686000000013,
          "velocity": 0.937007874015748,
          "duration": 0.8616062812500012
        },
        {
          "name": "A2",
          "midi": 45,
          "time": 29.142828000000012,
          "velocity": 0.937007874015748,
          "duration": 0.40178531250000304
        },
        {
          "name": "A#2",
          "midi": 46,
          "time": 29.571399000000014,
          "velocity": 0.9921259842519685,
          "duration": 0.40401745312500026
        },
        {
          "name": "G2",
          "midi": 43,
          "time": 29.999970000000015,
          "velocity": 0.968503937007874,
          "duration": 0.4642852500000032
        },
        {
          "name": "C3",
          "midi": 48,
          "time": 30.428541000000017,
          "velocity": 0.9212598425196851,
          "duration": 0.3973210312500015
        },
        {
          "name": "F2",
          "midi": 41,
          "time": 30.85711200000002,
          "velocity": 1,
          "duration": 0.7723206562499989
        },
        {
          "name": "C3",
          "midi": 48,
          "time": 31.714254000000018,
          "velocity": 0.937007874015748,
          "duration": 0.3950888906249972
        },
        {
          "name": "F2",
          "midi": 41,
          "time": 32.142825000000016,
          "velocity": 1,
          "duration": 0.7455349687500004
        },
        {
          "name": "F2",
          "midi": 41,
          "time": 32.99996700000002,
          "velocity": 0.9921259842519685,
          "duration": 0.3794639062500025
        },
        {
          "name": "C3",
          "midi": 48,
          "time": 33.428538000000025,
          "velocity": 0.9921259842519685,
          "duration": 0.7790170781250012
        },
        {
          "name": "C3",
          "midi": 48,
          "time": 34.28568000000003,
          "velocity": 0.968503937007874,
          "duration": 0.37723176562499816
        },
        {
          "name": "G2",
          "midi": 43,
          "time": 34.714251000000026,
          "velocity": 0.9921259842519685,
          "duration": 0.7544635312500034
        },
        {
          "name": "G2",
          "midi": 43,
          "time": 35.57139300000003,
          "velocity": 1,
          "duration": 0.36383892187500066
        },
        {
          "name": "C3",
          "midi": 48,
          "time": 35.99996400000003,
          "velocity": 0.8110236220472441,
          "duration": 0.7790170781250012
        },
        {
          "name": "A#2",
          "midi": 46,
          "time": 36.85710600000003,
          "velocity": 0.9921259842519685,
          "duration": 0.3816960468749997
        },
        {
          "name": "A2",
          "midi": 45,
          "time": 37.28567700000003,
          "velocity": 0.937007874015748,
          "duration": 0.37723176562499816
        },
        {
          "name": "A2",
          "midi": 45,
          "time": 37.714248000000026,
          "velocity": 0.9291338582677166,
          "duration": 0.44196384374999553
        },
        {
          "name": "F2",
          "midi": 41,
          "time": 38.142819000000024,
          "velocity": 1,
          "duration": 0.40178531249999594
        },
        {
          "name": "C3",
          "midi": 48,
          "time": 38.57139000000002,
          "velocity": 0.8976377952755905,
          "duration": 0.6718743281249999
        },
        {
          "name": "A2",
          "midi": 45,
          "time": 39.428532000000025,
          "velocity": 1,
          "duration": 0.41517815625000054
        },
        {
          "name": "A#2",
          "midi": 46,
          "time": 39.85710300000002,
          "velocity": 1,
          "duration": 0.3281246718750026
        },
        {
          "name": "G2",
          "midi": 43,
          "time": 40.28567400000003,
          "velocity": 1,
          "duration": 0.4062495937499975
        },
        {
          "name": "C3",
          "midi": 48,
          "time": 40.71424500000003,
          "velocity": 0.9921259842519685,
          "duration": 0.3124996875000008
        },
        {
          "name": "F2",
          "midi": 41,
          "time": 41.142816000000025,
          "velocity": 1,
          "duration": 0.7499992500000019
        }
      ],
      "controlChanges": {},
      "id": 6,
      "name": "Bass                ",
      "instrumentNumber": 64,
      "instrument": "soprano sax",
      "instrumentFamily": "reed",
      "channelNumber": 2,
      "isPercussion": false
    },
    {
      "startTime": 1.285713,
      "duration": 41.82138675000001,
      "length": 224,
      "notes": [
        {
          "name": "A3",
          "midi": 57,
          "time": 1.285713,
          "velocity": 0.968503937007874,
          "duration": 0.732142125
        },
        {
          "name": "C4",
          "midi": 60,
          "time": 1.285713,
          "velocity": 0.968503937007874,
          "duration": 0.7455349687500001
        },
        {
          "name": "F3",
          "midi": 53,
          "time": 1.285713,
          "velocity": 0.889763779527559,
          "duration": 0.7366064062500002
        },
        {
          "name": "A3",
          "midi": 57,
          "time": 2.1428550000000004,
          "velocity": 0.8818897637795275,
          "duration": 0.32142824999999986
        },
        {
          "name": "C4",
          "midi": 60,
          "time": 2.1428550000000004,
          "velocity": 0.8740157480314961,
          "duration": 0.35044607812500006
        },
        {
          "name": "F3",
          "midi": 53,
          "time": 2.1428550000000004,
          "velocity": 0.84251968503937,
          "duration": 0.34598179687499986
        },
        {
          "name": "F3",
          "midi": 53,
          "time": 2.5714260000000007,
          "velocity": 0.8503937007874016,
          "duration": 0.7834813593750001
        },
        {
          "name": "D4",
          "midi": 62,
          "time": 2.5714260000000007,
          "velocity": 0.9291338582677166,
          "duration": 0.7790170781249999
        },
        {
          "name": "A#3",
          "midi": 58,
          "time": 2.5714260000000007,
          "velocity": 0.8976377952755905,
          "duration": 0.792409921875
        },
        {
          "name": "A#3",
          "midi": 58,
          "time": 3.4285680000000007,
          "velocity": 0.8818897637795275,
          "duration": 0.33482109375
        },
        {
          "name": "D4",
          "midi": 62,
          "time": 3.4285680000000007,
          "velocity": 0.9133858267716536,
          "duration": 0.33258895312500014
        },
        {
          "name": "F3",
          "midi": 53,
          "time": 3.4285680000000007,
          "velocity": 0.8346456692913385,
          "duration": 0.3549103593749998
        },
        {
          "name": "G3",
          "midi": 55,
          "time": 3.8571390000000005,
          "velocity": 0.9133858267716536,
          "duration": 0.7120528593750008
        },
        {
          "name": "D4",
          "midi": 62,
          "time": 3.8571390000000005,
          "velocity": 0.8740157480314961,
          "duration": 0.7031242968750004
        },
        {
          "name": "F3",
          "midi": 53,
          "time": 3.8571390000000005,
          "velocity": 0.8267716535433071,
          "duration": 0.7120528593750008
        },
        {
          "name": "B3",
          "midi": 59,
          "time": 3.8571390000000005,
          "velocity": 0.8818897637795275,
          "duration": 0.6897314531250003
        },
        {
          "name": "G3",
          "midi": 55,
          "time": 4.7142810000000015,
          "velocity": 0.8976377952755905,
          "duration": 0.3214282500000003
        },
        {
          "name": "F3",
          "midi": 53,
          "time": 4.7142810000000015,
          "velocity": 0.8818897637795275,
          "duration": 0.30803540625000014
        },
        {
          "name": "B3",
          "midi": 59,
          "time": 4.7142810000000015,
          "velocity": 0.889763779527559,
          "duration": 0.3392853750000002
        },
        {
          "name": "D4",
          "midi": 62,
          "time": 4.7142810000000015,
          "velocity": 0.9291338582677166,
          "duration": 0.33482109375000046
        },
        {
          "name": "C4",
          "midi": 60,
          "time": 5.142852000000001,
          "velocity": 0.8740157480314961,
          "duration": 0.7656242343750002
        },
        {
          "name": "E4",
          "midi": 64,
          "time": 5.142852000000001,
          "velocity": 0.937007874015748,
          "duration": 0.7544635312499999
        },
        {
          "name": "G3",
          "midi": 55,
          "time": 5.142852000000001,
          "velocity": 0.8503937007874016,
          "duration": 0.7544635312499999
        },
        {
          "name": "C4",
          "midi": 60,
          "time": 5.999994000000002,
          "velocity": 0.9133858267716536,
          "duration": 0.2901782812500002
        },
        {
          "name": "G3",
          "midi": 55,
          "time": 5.999994000000002,
          "velocity": 0.889763779527559,
          "duration": 0.31696396875000055
        },
        {
          "name": "E4",
          "midi": 64,
          "time": 5.999994000000002,
          "velocity": 0.8818897637795275,
          "duration": 0.31696396875000055
        },
        {
          "name": "A3",
          "midi": 57,
          "time": 6.4285650000000025,
          "velocity": 0.952755905511811,
          "duration": 0.7232135625000007
        },
        {
          "name": "E4",
          "midi": 64,
          "time": 6.4285650000000025,
          "velocity": 0.9291338582677166,
          "duration": 0.7232135625000007
        },
        {
          "name": "G3",
          "midi": 55,
          "time": 6.4285650000000025,
          "velocity": 0.8818897637795275,
          "duration": 0.7142850000000003
        },
        {
          "name": "C#4",
          "midi": 61,
          "time": 6.4285650000000025,
          "velocity": 0.937007874015748,
          "duration": 0.7388385468750007
        },
        {
          "name": "C#4",
          "midi": 61,
          "time": 7.285707000000003,
          "velocity": 0.8818897637795275,
          "duration": 0.2611604531250009
        },
        {
          "name": "E4",
          "midi": 64,
          "time": 7.285707000000003,
          "velocity": 0.8976377952755905,
          "duration": 0.24776760937500075
        },
        {
          "name": "G3",
          "midi": 55,
          "time": 7.285707000000003,
          "velocity": 0.889763779527559,
          "duration": 0.2232140625000003
        },
        {
          "name": "A3",
          "midi": 57,
          "time": 7.285707000000003,
          "velocity": 0.9291338582677166,
          "duration": 0.196428375
        },
        {
          "name": "D4",
          "midi": 62,
          "time": 7.714278000000004,
          "velocity": 0.937007874015748,
          "duration": 0.6785707500000004
        },
        {
          "name": "A3",
          "midi": 57,
          "time": 7.714278000000004,
          "velocity": 0.8740157480314961,
          "duration": 0.6986600156250002
        },
        {
          "name": "F4",
          "midi": 65,
          "time": 7.714278000000004,
          "velocity": 0.9291338582677166,
          "duration": 0.6607136249999996
        },
        {
          "name": "C4",
          "midi": 60,
          "time": 7.714278000000004,
          "velocity": 0.9212598425196851,
          "duration": 0.6607136249999996
        },
        {
          "name": "A3",
          "midi": 57,
          "time": 8.571420000000003,
          "velocity": 0.968503937007874,
          "duration": 0.3638389218749989
        },
        {
          "name": "F3",
          "midi": 53,
          "time": 8.571420000000003,
          "velocity": 0.8976377952755905,
          "duration": 0.3906246093749992
        },
        {
          "name": "C4",
          "midi": 60,
          "time": 8.571420000000003,
          "velocity": 0.9212598425196851,
          "duration": 0.2834818593749997
        },
        {
          "name": "F3",
          "midi": 53,
          "time": 8.999991000000003,
          "velocity": 0.8740157480314961,
          "duration": 0.28794614062499946
        },
        {
          "name": "D4",
          "midi": 62,
          "time": 8.999991000000003,
          "velocity": 0.937007874015748,
          "duration": 0.27901757812499994
        },
        {
          "name": "A#3",
          "midi": 58,
          "time": 8.999991000000003,
          "velocity": 0.8661417322834646,
          "duration": 0.2566961718749994
        },
        {
          "name": "D4",
          "midi": 62,
          "time": 9.428562000000003,
          "velocity": 0.9291338582677166,
          "duration": 0.2946425625
        },
        {
          "name": "F3",
          "midi": 53,
          "time": 9.428562000000003,
          "velocity": 0.9133858267716536,
          "duration": 0.28571400000000047
        },
        {
          "name": "A#3",
          "midi": 58,
          "time": 9.428562000000003,
          "velocity": 0.952755905511811,
          "duration": 0.32589253125000006
        },
        {
          "name": "E4",
          "midi": 64,
          "time": 9.857133000000003,
          "velocity": 0.8976377952755905,
          "duration": 0.2723211562499994
        },
        {
          "name": "G3",
          "midi": 55,
          "time": 9.857133000000003,
          "velocity": 0.889763779527559,
          "duration": 0.22098192187499954
        },
        {
          "name": "C4",
          "midi": 60,
          "time": 9.857133000000003,
          "velocity": 0.8110236220472441,
          "duration": 0.2656247343749989
        },
        {
          "name": "F3",
          "midi": 53,
          "time": 10.285704000000003,
          "velocity": 0.8503937007874016,
          "duration": 0.6763386093749997
        },
        {
          "name": "A3",
          "midi": 57,
          "time": 10.285704000000003,
          "velocity": 0.9133858267716536,
          "duration": 0.689731453124999
        },
        {
          "name": "C4",
          "midi": 60,
          "time": 10.285704000000003,
          "velocity": 0.9212598425196851,
          "duration": 0.7120528593749995
        },
        {
          "name": "F4",
          "midi": 65,
          "time": 10.285704000000003,
          "velocity": 0.9133858267716536,
          "duration": 0.7232135624999998
        },
        {
          "name": "C4",
          "midi": 60,
          "time": 11.142846000000002,
          "velocity": 0.8976377952755905,
          "duration": 0.26116045312499914
        },
        {
          "name": "G3",
          "midi": 55,
          "time": 11.142846000000002,
          "velocity": 0.8031496062992126,
          "duration": 0.24776760937499986
        },
        {
          "name": "E4",
          "midi": 64,
          "time": 11.142846000000002,
          "velocity": 0.7637795275590551,
          "duration": 0.23883904687500035
        },
        {
          "name": "A3",
          "midi": 57,
          "time": 11.571417000000002,
          "velocity": 0.9133858267716536,
          "duration": 0.7544635312499999
        },
        {
          "name": "C4",
          "midi": 60,
          "time": 11.571417000000002,
          "velocity": 0.8818897637795275,
          "duration": 0.7633920937499994
        },
        {
          "name": "F4",
          "midi": 65,
          "time": 11.571417000000002,
          "velocity": 0.9212598425196851,
          "duration": 0.7589278124999996
        },
        {
          "name": "F3",
          "midi": 53,
          "time": 11.571417000000002,
          "velocity": 0.8267716535433071,
          "duration": 0.7589278124999996
        },
        {
          "name": "A3",
          "midi": 57,
          "time": 12.428559000000002,
          "velocity": 0.9291338582677166,
          "duration": 0.2901782812500002
        },
        {
          "name": "C4",
          "midi": 60,
          "time": 12.428559000000002,
          "velocity": 0.9212598425196851,
          "duration": 0.30803540625000103
        },
        {
          "name": "F3",
          "midi": 53,
          "time": 12.428559000000002,
          "velocity": 0.7637795275590551,
          "duration": 0.24776760937499986
        },
        {
          "name": "F4",
          "midi": 65,
          "time": 12.428559000000002,
          "velocity": 0.9291338582677166,
          "duration": 0.28571400000000047
        },
        {
          "name": "G3",
          "midi": 55,
          "time": 12.857130000000003,
          "velocity": 0.8661417322834646,
          "duration": 0.7678563750000009
        },
        {
          "name": "E4",
          "midi": 64,
          "time": 12.857130000000003,
          "velocity": 0.889763779527559,
          "duration": 0.7410706875000006
        },
        {
          "name": "C4",
          "midi": 60,
          "time": 12.857130000000003,
          "velocity": 0.9133858267716536,
          "duration": 0.7589278125000014
        },
        {
          "name": "C4",
          "midi": 60,
          "time": 13.714272000000005,
          "velocity": 0.889763779527559,
          "duration": 0.2254462031249993
        },
        {
          "name": "G3",
          "midi": 55,
          "time": 13.714272000000005,
          "velocity": 0.8661417322834646,
          "duration": 0.2656247343749989
        },
        {
          "name": "E4",
          "midi": 64,
          "time": 13.714272000000005,
          "velocity": 0.8976377952755905,
          "duration": 0.2254462031249993
        },
        {
          "name": "G3",
          "midi": 55,
          "time": 14.142843000000003,
          "velocity": 0.9291338582677166,
          "duration": 0.7723206562500007
        },
        {
          "name": "F3",
          "midi": 53,
          "time": 14.142843000000003,
          "velocity": 0.9133858267716536,
          "duration": 0.7857135
        },
        {
          "name": "B3",
          "midi": 59,
          "time": 14.142843000000003,
          "velocity": 0.9133858267716536,
          "duration": 0.7723206562500007
        },
        {
          "name": "D4",
          "midi": 62,
          "time": 14.142843000000003,
          "velocity": 0.8976377952755905,
          "duration": 0.7678563750000009
        },
        {
          "name": "D4",
          "midi": 62,
          "time": 14.999985000000002,
          "velocity": 0.8818897637795275,
          "duration": 0.34821393749999885
        },
        {
          "name": "F3",
          "midi": 53,
          "time": 14.999985000000002,
          "velocity": 0.937007874015748,
          "duration": 0.29687470312500075
        },
        {
          "name": "G3",
          "midi": 55,
          "time": 14.999985000000002,
          "velocity": 0.968503937007874,
          "duration": 0.310267546875
        },
        {
          "name": "B3",
          "midi": 59,
          "time": 14.999985000000002,
          "velocity": 0.9133858267716536,
          "duration": 0.3348210937499996
        },
        {
          "name": "C4",
          "midi": 60,
          "time": 15.428556,
          "velocity": 0.889763779527559,
          "duration": 0.7968742031250002
        },
        {
          "name": "E4",
          "midi": 64,
          "time": 15.428556,
          "velocity": 0.937007874015748,
          "duration": 0.7924099218749987
        },
        {
          "name": "G3",
          "midi": 55,
          "time": 15.428556,
          "velocity": 0.8503937007874016,
          "duration": 0.8058027656249998
        },
        {
          "name": "E4",
          "midi": 64,
          "time": 16.285698,
          "velocity": 0.9133858267716536,
          "duration": 0.27901757812499994
        },
        {
          "name": "C4",
          "midi": 60,
          "time": 16.285698,
          "velocity": 0.9291338582677166,
          "duration": 0.2857139999999987
        },
        {
          "name": "G3",
          "midi": 55,
          "time": 16.285698,
          "velocity": 0.8661417322834646,
          "duration": 0.2522318906250014
        },
        {
          "name": "F3",
          "midi": 53,
          "time": 16.714268999999998,
          "velocity": 0.8818897637795275,
          "duration": 0.7276778437499978
        },
        {
          "name": "A3",
          "midi": 57,
          "time": 16.714268999999998,
          "velocity": 0.9212598425196851,
          "duration": 0.7120528593749995
        },
        {
          "name": "C4",
          "midi": 60,
          "time": 16.714268999999998,
          "velocity": 0.8740157480314961,
          "duration": 0.7366064062499973
        },
        {
          "name": "F4",
          "midi": 65,
          "time": 16.714268999999998,
          "velocity": 0.9212598425196851,
          "duration": 0.7366064062499973
        },
        {
          "name": "F3",
          "midi": 53,
          "time": 17.571410999999994,
          "velocity": 0.8740157480314961,
          "duration": 0.292410421875001
        },
        {
          "name": "F4",
          "midi": 65,
          "time": 17.571410999999994,
          "velocity": 0.8818897637795275,
          "duration": 0.292410421875001
        },
        {
          "name": "A3",
          "midi": 57,
          "time": 17.571410999999994,
          "velocity": 0.8976377952755905,
          "duration": 0.29910684374999974
        },
        {
          "name": "C4",
          "midi": 60,
          "time": 17.571410999999994,
          "velocity": 0.8740157480314961,
          "duration": 0.3214282500000003
        },
        {
          "name": "C4",
          "midi": 60,
          "time": 17.999981999999996,
          "velocity": 0.8740157480314961,
          "duration": 0.7410706874999988
        },
        {
          "name": "E4",
          "midi": 64,
          "time": 17.999981999999996,
          "velocity": 0.8031496062992126,
          "duration": 0.7499992499999983
        },
        {
          "name": "G3",
          "midi": 55,
          "time": 17.999981999999996,
          "velocity": 0.8661417322834646,
          "duration": 0.7321421249999993
        },
        {
          "name": "E4",
          "midi": 64,
          "time": 18.857123999999995,
          "velocity": 0.937007874015748,
          "duration": 0.310267546875
        },
        {
          "name": "C4",
          "midi": 60,
          "time": 18.857123999999995,
          "velocity": 0.9921259842519685,
          "duration": 0.33928537499999933
        },
        {
          "name": "G3",
          "midi": 55,
          "time": 18.857123999999995,
          "velocity": 0.8818897637795275,
          "duration": 0.3258925312499983
        },
        {
          "name": "A#3",
          "midi": 58,
          "time": 19.285694999999993,
          "velocity": 0.8661417322834646,
          "duration": 0.3080354062499957
        },
        {
          "name": "F3",
          "midi": 53,
          "time": 19.285694999999993,
          "velocity": 0.889763779527559,
          "duration": 0.29241042187499744
        },
        {
          "name": "D4",
          "midi": 62,
          "time": 19.285694999999993,
          "velocity": 0.8503937007874016,
          "duration": 0.2857139999999987
        },
        {
          "name": "D4",
          "midi": 62,
          "time": 19.714265999999988,
          "velocity": 0.9921259842519685,
          "duration": 0.24330332812499833
        },
        {
          "name": "F3",
          "midi": 53,
          "time": 19.714265999999988,
          "velocity": 0.889763779527559,
          "duration": 0.2566961718749994
        },
        {
          "name": "A#3",
          "midi": 58,
          "time": 19.714265999999988,
          "velocity": 1,
          "duration": 0.3214282500000003
        },
        {
          "name": "C4",
          "midi": 60,
          "time": 20.14283699999999,
          "velocity": 0.9212598425196851,
          "duration": 0.3124996875000008
        },
        {
          "name": "G3",
          "midi": 55,
          "time": 20.14283699999999,
          "velocity": 0.84251968503937,
          "duration": 0.28794614062499946
        },
        {
          "name": "E4",
          "midi": 64,
          "time": 20.14283699999999,
          "velocity": 0.9291338582677166,
          "duration": 0.3013389843750005
        },
        {
          "name": "F3",
          "midi": 53,
          "time": 20.57140799999999,
          "velocity": 0.9133858267716536,
          "duration": 0.6517850625000001
        },
        {
          "name": "A3",
          "midi": 57,
          "time": 20.57140799999999,
          "velocity": 0.968503937007874,
          "duration": 0.6696421874999992
        },
        {
          "name": "C4",
          "midi": 60,
          "time": 20.57140799999999,
          "velocity": 0.889763779527559,
          "duration": 0.6874993124999982
        },
        {
          "name": "F4",
          "midi": 65,
          "time": 20.57140799999999,
          "velocity": 0.968503937007874,
          "duration": 0.6785707499999987
        },
        {
          "name": "A3",
          "midi": 57,
          "time": 21.85712099999999,
          "velocity": 0.968503937007874,
          "duration": 0.7321421249999993
        },
        {
          "name": "C4",
          "midi": 60,
          "time": 21.85712099999999,
          "velocity": 0.968503937007874,
          "duration": 0.7455349687500004
        },
        {
          "name": "F3",
          "midi": 53,
          "time": 21.85712099999999,
          "velocity": 0.889763779527559,
          "duration": 0.7366064062500008
        },
        {
          "name": "A3",
          "midi": 57,
          "time": 22.71426299999999,
          "velocity": 0.8818897637795275,
          "duration": 0.3214282500000003
        },
        {
          "name": "C4",
          "midi": 60,
          "time": 22.71426299999999,
          "velocity": 0.8740157480314961,
          "duration": 0.35044607812500317
        },
        {
          "name": "F3",
          "midi": 53,
          "time": 22.71426299999999,
          "velocity": 0.84251968503937,
          "duration": 0.34598179687500163
        },
        {
          "name": "F3",
          "midi": 53,
          "time": 23.14283399999999,
          "velocity": 0.8503937007874016,
          "duration": 0.7834813593750027
        },
        {
          "name": "D4",
          "midi": 62,
          "time": 23.14283399999999,
          "velocity": 0.9291338582677166,
          "duration": 0.7790170781250012
        },
        {
          "name": "A#3",
          "midi": 58,
          "time": 23.14283399999999,
          "velocity": 0.8976377952755905,
          "duration": 0.7924099218750023
        },
        {
          "name": "A#3",
          "midi": 58,
          "time": 23.999975999999993,
          "velocity": 0.8818897637795275,
          "duration": 0.33482109375000135
        },
        {
          "name": "D4",
          "midi": 62,
          "time": 23.999975999999993,
          "velocity": 0.9133858267716536,
          "duration": 0.3325889531250006
        },
        {
          "name": "F3",
          "midi": 53,
          "time": 23.999975999999993,
          "velocity": 0.8346456692913385,
          "duration": 0.35491035937500115
        },
        {
          "name": "G3",
          "midi": 55,
          "time": 24.428546999999995,
          "velocity": 0.9133858267716536,
          "duration": 0.7120528593749995
        },
        {
          "name": "D4",
          "midi": 62,
          "time": 24.428546999999995,
          "velocity": 0.8740157480314961,
          "duration": 0.703124296875
        },
        {
          "name": "F3",
          "midi": 53,
          "time": 24.428546999999995,
          "velocity": 0.8267716535433071,
          "duration": 0.7120528593749995
        },
        {
          "name": "B3",
          "midi": 59,
          "time": 24.428546999999995,
          "velocity": 0.8818897637795275,
          "duration": 0.689731453124999
        },
        {
          "name": "G3",
          "midi": 55,
          "time": 25.285688999999994,
          "velocity": 0.8976377952755905,
          "duration": 0.3214282500000003
        },
        {
          "name": "F3",
          "midi": 53,
          "time": 25.285688999999994,
          "velocity": 0.8818897637795275,
          "duration": 0.30803540624999926
        },
        {
          "name": "B3",
          "midi": 59,
          "time": 25.285688999999994,
          "velocity": 0.889763779527559,
          "duration": 0.3392853750000029
        },
        {
          "name": "D4",
          "midi": 62,
          "time": 25.285688999999994,
          "velocity": 0.9291338582677166,
          "duration": 0.33482109375000135
        },
        {
          "name": "C4",
          "midi": 60,
          "time": 25.714259999999996,
          "velocity": 0.8740157480314961,
          "duration": 0.7656242343750002
        },
        {
          "name": "E4",
          "midi": 64,
          "time": 25.714259999999996,
          "velocity": 0.937007874015748,
          "duration": 0.7544635312499999
        },
        {
          "name": "G3",
          "midi": 55,
          "time": 25.714259999999996,
          "velocity": 0.8503937007874016,
          "duration": 0.7544635312499999
        },
        {
          "name": "C4",
          "midi": 60,
          "time": 26.571401999999996,
          "velocity": 0.9133858267716536,
          "duration": 0.2901782812500002
        },
        {
          "name": "G3",
          "midi": 55,
          "time": 26.571401999999996,
          "velocity": 0.889763779527559,
          "duration": 0.31696396874999877
        },
        {
          "name": "E4",
          "midi": 64,
          "time": 26.571401999999996,
          "velocity": 0.8818897637795275,
          "duration": 0.31696396874999877
        },
        {
          "name": "A3",
          "midi": 57,
          "time": 26.999972999999994,
          "velocity": 0.952755905511811,
          "duration": 0.7232135624999998
        },
        {
          "name": "E4",
          "midi": 64,
          "time": 26.999972999999994,
          "velocity": 0.9291338582677166,
          "duration": 0.7232135624999998
        },
        {
          "name": "G3",
          "midi": 55,
          "time": 26.999972999999994,
          "velocity": 0.8818897637795275,
          "duration": 0.7142850000000003
        },
        {
          "name": "C#4",
          "midi": 61,
          "time": 26.999972999999994,
          "velocity": 0.937007874015748,
          "duration": 0.7388385468749981
        },
        {
          "name": "C#4",
          "midi": 61,
          "time": 27.857114999999993,
          "velocity": 0.8818897637795275,
          "duration": 0.2611604531250009
        },
        {
          "name": "E4",
          "midi": 64,
          "time": 27.857114999999993,
          "velocity": 0.8976377952755905,
          "duration": 0.24776760937499986
        },
        {
          "name": "G3",
          "midi": 55,
          "time": 27.857114999999993,
          "velocity": 0.889763779527559,
          "duration": 0.22321406249999853
        },
        {
          "name": "A3",
          "midi": 57,
          "time": 27.857114999999993,
          "velocity": 0.9291338582677166,
          "duration": 0.196428375
        },
        {
          "name": "D4",
          "midi": 62,
          "time": 28.285685999999995,
          "velocity": 0.937007874015748,
          "duration": 0.6785707499999987
        },
        {
          "name": "A3",
          "midi": 57,
          "time": 28.285685999999995,
          "velocity": 0.8740157480314961,
          "duration": 0.6986600156249985
        },
        {
          "name": "F4",
          "midi": 65,
          "time": 28.285685999999995,
          "velocity": 0.9291338582677166,
          "duration": 0.6607136249999996
        },
        {
          "name": "C4",
          "midi": 60,
          "time": 28.285685999999995,
          "velocity": 0.9212598425196851,
          "duration": 0.6607136249999996
        },
        {
          "name": "A3",
          "midi": 57,
          "time": 29.142827999999994,
          "velocity": 0.968503937007874,
          "duration": 0.36383892187500066
        },
        {
          "name": "F3",
          "midi": 53,
          "time": 29.142827999999994,
          "velocity": 0.8976377952755905,
          "duration": 0.3906246093749992
        },
        {
          "name": "C4",
          "midi": 60,
          "time": 29.142827999999994,
          "velocity": 0.9212598425196851,
          "duration": 0.2834818593750015
        },
        {
          "name": "F3",
          "midi": 53,
          "time": 29.571398999999992,
          "velocity": 0.8740157480314961,
          "duration": 0.28794614062499946
        },
        {
          "name": "D4",
          "midi": 62,
          "time": 29.571398999999992,
          "velocity": 0.937007874015748,
          "duration": 0.27901757812499994
        },
        {
          "name": "A#3",
          "midi": 58,
          "time": 29.571398999999992,
          "velocity": 0.8661417322834646,
          "duration": 0.2566961718749994
        },
        {
          "name": "D4",
          "midi": 62,
          "time": 29.99996999999999,
          "velocity": 0.9291338582677166,
          "duration": 0.2946425624999982
        },
        {
          "name": "F3",
          "midi": 53,
          "time": 29.99996999999999,
          "velocity": 0.9133858267716536,
          "duration": 0.2857139999999987
        },
        {
          "name": "A#3",
          "midi": 58,
          "time": 29.99996999999999,
          "velocity": 0.952755905511811,
          "duration": 0.3258925312499983
        },
        {
          "name": "E4",
          "midi": 64,
          "time": 30.42854099999999,
          "velocity": 0.8976377952755905,
          "duration": 0.2723211562500012
        },
        {
          "name": "G3",
          "midi": 55,
          "time": 30.42854099999999,
          "velocity": 0.889763779527559,
          "duration": 0.22098192187500132
        },
        {
          "name": "C4",
          "midi": 60,
          "time": 30.42854099999999,
          "velocity": 0.8110236220472441,
          "duration": 0.26562473437500245
        },
        {
          "name": "F3",
          "midi": 53,
          "time": 30.85711199999999,
          "velocity": 0.8503937007874016,
          "duration": 0.6763386093750015
        },
        {
          "name": "A3",
          "midi": 57,
          "time": 30.85711199999999,
          "velocity": 0.9133858267716536,
          "duration": 0.6897314531250025
        },
        {
          "name": "C4",
          "midi": 60,
          "time": 30.85711199999999,
          "velocity": 0.9212598425196851,
          "duration": 0.7120528593750031
        },
        {
          "name": "F4",
          "midi": 65,
          "time": 30.85711199999999,
          "velocity": 0.9133858267716536,
          "duration": 0.7232135625000033
        },
        {
          "name": "C4",
          "midi": 60,
          "time": 31.714253999999993,
          "velocity": 0.8976377952755905,
          "duration": 0.2611604531250009
        },
        {
          "name": "G3",
          "midi": 55,
          "time": 31.714253999999993,
          "velocity": 0.8031496062992126,
          "duration": 0.24776760937499986
        },
        {
          "name": "E4",
          "midi": 64,
          "time": 31.714253999999993,
          "velocity": 0.7637795275590551,
          "duration": 0.23883904687500035
        },
        {
          "name": "A3",
          "midi": 57,
          "time": 32.142824999999995,
          "velocity": 0.9133858267716536,
          "duration": 0.7544635312500034
        },
        {
          "name": "C4",
          "midi": 60,
          "time": 32.142824999999995,
          "velocity": 0.8818897637795275,
          "duration": 0.7633920937500065
        },
        {
          "name": "F4",
          "midi": 65,
          "time": 32.142824999999995,
          "velocity": 0.9212598425196851,
          "duration": 0.758927812500005
        },
        {
          "name": "F3",
          "midi": 53,
          "time": 32.142824999999995,
          "velocity": 0.8267716535433071,
          "duration": 0.758927812500005
        },
        {
          "name": "A3",
          "midi": 57,
          "time": 32.999967,
          "velocity": 0.9291338582677166,
          "duration": 0.29017828125000733
        },
        {
          "name": "C4",
          "midi": 60,
          "time": 32.999967,
          "velocity": 0.9212598425196851,
          "duration": 0.30803540625000636
        },
        {
          "name": "F3",
          "midi": 53,
          "time": 32.999967,
          "velocity": 0.7637795275590551,
          "duration": 0.24776760937500342
        },
        {
          "name": "F4",
          "midi": 65,
          "time": 32.999967,
          "velocity": 0.9291338582677166,
          "duration": 0.2857140000000058
        },
        {
          "name": "G3",
          "midi": 55,
          "time": 33.428538,
          "velocity": 0.8661417322834646,
          "duration": 0.7678563750000009
        },
        {
          "name": "E4",
          "midi": 64,
          "time": 33.428538,
          "velocity": 0.889763779527559,
          "duration": 0.7410706874999988
        },
        {
          "name": "C4",
          "midi": 60,
          "time": 33.428538,
          "velocity": 0.9133858267716536,
          "duration": 0.7589278124999979
        },
        {
          "name": "C4",
          "midi": 60,
          "time": 34.285680000000006,
          "velocity": 0.889763779527559,
          "duration": 0.22544620312500285
        },
        {
          "name": "G3",
          "midi": 55,
          "time": 34.285680000000006,
          "velocity": 0.8661417322834646,
          "duration": 0.26562473437500245
        },
        {
          "name": "E4",
          "midi": 64,
          "time": 34.285680000000006,
          "velocity": 0.8976377952755905,
          "duration": 0.22544620312500285
        },
        {
          "name": "G3",
          "midi": 55,
          "time": 34.71425100000001,
          "velocity": 0.9291338582677166,
          "duration": 0.7723206562500025
        },
        {
          "name": "F3",
          "midi": 53,
          "time": 34.71425100000001,
          "velocity": 0.9133858267716536,
          "duration": 0.7857135
        },
        {
          "name": "B3",
          "midi": 59,
          "time": 34.71425100000001,
          "velocity": 0.9133858267716536,
          "duration": 0.7723206562500025
        },
        {
          "name": "D4",
          "midi": 62,
          "time": 34.71425100000001,
          "velocity": 0.8976377952755905,
          "duration": 0.7678563750000009
        },
        {
          "name": "D4",
          "midi": 62,
          "time": 35.571393000000015,
          "velocity": 0.8818897637795275,
          "duration": 0.34821393749999174
        },
        {
          "name": "F3",
          "midi": 53,
          "time": 35.571393000000015,
          "velocity": 0.937007874015748,
          "duration": 0.296874703124999
        },
        {
          "name": "G3",
          "midi": 55,
          "time": 35.571393000000015,
          "velocity": 0.968503937007874,
          "duration": 0.31026754687499647
        },
        {
          "name": "B3",
          "midi": 59,
          "time": 35.571393000000015,
          "velocity": 0.9133858267716536,
          "duration": 0.33482109374999425
        },
        {
          "name": "C4",
          "midi": 60,
          "time": 35.999964000000006,
          "velocity": 0.889763779527559,
          "duration": 0.7968742031250002
        },
        {
          "name": "E4",
          "midi": 64,
          "time": 35.999964000000006,
          "velocity": 0.937007874015748,
          "duration": 0.7924099218749987
        },
        {
          "name": "G3",
          "midi": 55,
          "time": 35.999964000000006,
          "velocity": 0.8503937007874016,
          "duration": 0.8058027656250033
        },
        {
          "name": "E4",
          "midi": 64,
          "time": 36.85710600000001,
          "velocity": 0.9133858267716536,
          "duration": 0.27901757812499994
        },
        {
          "name": "C4",
          "midi": 60,
          "time": 36.85710600000001,
          "velocity": 0.9291338582677166,
          "duration": 0.2857139999999987
        },
        {
          "name": "G3",
          "midi": 55,
          "time": 36.85710600000001,
          "velocity": 0.8661417322834646,
          "duration": 0.25223189062499785
        },
        {
          "name": "F3",
          "midi": 53,
          "time": 37.28567700000001,
          "velocity": 0.8818897637795275,
          "duration": 0.7276778437500013
        },
        {
          "name": "A3",
          "midi": 57,
          "time": 37.28567700000001,
          "velocity": 0.9212598425196851,
          "duration": 0.7120528593749995
        },
        {
          "name": "C4",
          "midi": 60,
          "time": 37.28567700000001,
          "velocity": 0.8740157480314961,
          "duration": 0.7366064062500044
        },
        {
          "name": "F4",
          "midi": 65,
          "time": 37.28567700000001,
          "velocity": 0.9212598425196851,
          "duration": 0.7366064062500044
        },
        {
          "name": "F3",
          "midi": 53,
          "time": 38.14281900000001,
          "velocity": 0.8740157480314961,
          "duration": 0.29241042187499744
        },
        {
          "name": "F4",
          "midi": 65,
          "time": 38.14281900000001,
          "velocity": 0.8818897637795275,
          "duration": 0.29241042187499744
        },
        {
          "name": "A3",
          "midi": 57,
          "time": 38.14281900000001,
          "velocity": 0.8976377952755905,
          "duration": 0.2991068437499962
        },
        {
          "name": "C4",
          "midi": 60,
          "time": 38.14281900000001,
          "velocity": 0.8740157480314961,
          "duration": 0.32142824999999675
        },
        {
          "name": "C4",
          "midi": 60,
          "time": 38.57139000000001,
          "velocity": 0.8740157480314961,
          "duration": 0.7410706875000059
        },
        {
          "name": "E4",
          "midi": 64,
          "time": 38.57139000000001,
          "velocity": 0.8031496062992126,
          "duration": 0.749999250000009
        },
        {
          "name": "G3",
          "midi": 55,
          "time": 38.57139000000001,
          "velocity": 0.8661417322834646,
          "duration": 0.7321421250000029
        },
        {
          "name": "E4",
          "midi": 64,
          "time": 39.42853200000002,
          "velocity": 0.937007874015748,
          "duration": 0.31026754687499647
        },
        {
          "name": "C4",
          "midi": 60,
          "time": 39.42853200000002,
          "velocity": 0.9921259842519685,
          "duration": 0.3392853749999958
        },
        {
          "name": "G3",
          "midi": 55,
          "time": 39.42853200000002,
          "velocity": 0.8818897637795275,
          "duration": 0.3258925312499983
        },
        {
          "name": "A#3",
          "midi": 58,
          "time": 39.857103000000016,
          "velocity": 0.8661417322834646,
          "duration": 0.30803540624999926
        },
        {
          "name": "F3",
          "midi": 53,
          "time": 39.857103000000016,
          "velocity": 0.889763779527559,
          "duration": 0.29241042187499744
        },
        {
          "name": "D4",
          "midi": 62,
          "time": 39.857103000000016,
          "velocity": 0.8503937007874016,
          "duration": 0.2857139999999987
        },
        {
          "name": "D4",
          "midi": 62,
          "time": 40.285674000000014,
          "velocity": 0.9921259842519685,
          "duration": 0.24330332812500188
        },
        {
          "name": "F3",
          "midi": 53,
          "time": 40.285674000000014,
          "velocity": 0.889763779527559,
          "duration": 0.2566961718749994
        },
        {
          "name": "A#3",
          "midi": 58,
          "time": 40.285674000000014,
          "velocity": 1,
          "duration": 0.32142824999999675
        },
        {
          "name": "C4",
          "midi": 60,
          "time": 40.71424500000001,
          "velocity": 0.9212598425196851,
          "duration": 0.3124996875000008
        },
        {
          "name": "G3",
          "midi": 55,
          "time": 40.71424500000001,
          "velocity": 0.84251968503937,
          "duration": 0.287946140625003
        },
        {
          "name": "E4",
          "midi": 64,
          "time": 40.71424500000001,
          "velocity": 0.9291338582677166,
          "duration": 0.3013389843750005
        },
        {
          "name": "F3",
          "midi": 53,
          "time": 41.14281600000001,
          "velocity": 0.9133858267716536,
          "duration": 0.6517850624999966
        },
        {
          "name": "A3",
          "midi": 57,
          "time": 41.14281600000001,
          "velocity": 0.968503937007874,
          "duration": 0.6696421874999956
        },
        {
          "name": "C4",
          "midi": 60,
          "time": 41.14281600000001,
          "velocity": 0.889763779527559,
          "duration": 0.6874993125000017
        },
        {
          "name": "F4",
          "midi": 65,
          "time": 41.14281600000001,
          "velocity": 0.968503937007874,
          "duration": 0.6785707499999987
        }
      ],
      "controlChanges": {},
      "id": 7,
      "name": "Chords              ",
      "instrumentNumber": 2,
      "instrument": "electric grand piano",
      "instrumentFamily": "piano",
      "channelNumber": 3,
      "isPercussion": false
    }
  ]
}
