{
  "header": {
    "PPQ": 192,
    "bpm": 100,
    "name": "                                "
  },
  "startTime": 0,
  "duration": 57.600000000000044,
  "tracks": [
    {
      "startTime": 0,
      "duration": 0,
      "length": 0,
      "notes": [],
      "controlChanges": {},
      "id": 0,
      "name": "                                "
    },
    {
      "startTime": 0,
      "duration": 57.6,
      "length": 122,
      "notes": [
        {
          "name": "C4",
          "midi": 60,
          "time": 0,
          "velocity": 0.3700787401574803,
          "duration": 0.6
        },
        {
          "name": "F4",
          "midi": 65,
          "time": 0.6,
          "velocity": 0.3700787401574803,
          "duration": 0.44999999999999984
        },
        {
          "name": "F4",
          "midi": 65,
          "time": 1.0499999999999998,
          "velocity": 0.3700787401574803,
          "duration": 0.1499999999999999
        },
        {
          "name": "F4",
          "midi": 65,
          "time": 1.1999999999999997,
          "velocity": 0.3700787401574803,
          "duration": 0.6000000000000001
        },
        {
          "name": "G4",
          "midi": 67,
          "time": 1.7999999999999998,
          "velocity": 0.3700787401574803,
          "duration": 0.6000000000000001
        },
        {
          "name": "A4",
          "midi": 69,
          "time": 2.4,
          "velocity": 0.3700787401574803,
          "duration": 0.44999999999999973
        },
        {
          "name": "A4",
          "midi": 69,
          "time": 2.8499999999999996,
          "velocity": 0.3700787401574803,
          "duration": 0.1499999999999999
        },
        {
          "name": "A4",
          "midi": 69,
          "time": 2.9999999999999996,
          "velocity": 0.3700787401574803,
          "duration": 0.6000000000000001
        },
        {
          "name": "A4",
          "midi": 69,
          "time": 3.5999999999999996,
          "velocity": 0.3700787401574803,
          "duration": 0.5999999999999996
        },
        {
          "name": "G4",
          "midi": 67,
          "time": 4.199999999999999,
          "velocity": 0.3700787401574803,
          "duration": 0.2999999999999998
        },
        {
          "name": "A4",
          "midi": 69,
          "time": 4.499999999999999,
          "velocity": 0.3700787401574803,
          "duration": 0.2999999999999998
        },
        {
          "name": "A#4",
          "midi": 70,
          "time": 4.799999999999999,
          "velocity": 0.3700787401574803,
          "duration": 0.5999999999999996
        },
        {
          "name": "E4",
          "midi": 64,
          "time": 5.399999999999999,
          "velocity": 0.3700787401574803,
          "duration": 0.5999999999999996
        },
        {
          "name": "G4",
          "midi": 67,
          "time": 5.999999999999998,
          "velocity": 0.3700787401574803,
          "duration": 0.5999999999999996
        },
        {
          "name": "F4",
          "midi": 65,
          "time": 6.599999999999998,
          "velocity": 0.3700787401574803,
          "duration": 0.5999999999999996
        },
        {
          "name": "C4",
          "midi": 60,
          "time": 7.1999999999999975,
          "velocity": 0.3700787401574803,
          "duration": 0.5999999999999996
        },
        {
          "name": "F4",
          "midi": 65,
          "time": 7.799999999999997,
          "velocity": 0.3700787401574803,
          "duration": 0.4499999999999993
        },
        {
          "name": "F4",
          "midi": 65,
          "time": 8.249999999999996,
          "velocity": 0.3700787401574803,
          "duration": 0.15000000000000036
        },
        {
          "name": "F4",
          "midi": 65,
          "time": 8.399999999999997,
          "velocity": 0.3700787401574803,
          "duration": 0.5999999999999996
        },
        {
          "name": "G4",
          "midi": 67,
          "time": 8.999999999999996,
          "velocity": 0.3700787401574803,
          "duration": 0.5999999999999996
        },
        {
          "name": "A4",
          "midi": 69,
          "time": 9.599999999999996,
          "velocity": 0.3700787401574803,
          "duration": 0.4499999999999993
        },
        {
          "name": "A4",
          "midi": 69,
          "time": 10.049999999999995,
          "velocity": 0.3700787401574803,
          "duration": 0.15000000000000036
        },
        {
          "name": "A4",
          "midi": 69,
          "time": 10.199999999999996,
          "velocity": 0.3700787401574803,
          "duration": 0.5999999999999996
        },
        {
          "name": "A4",
          "midi": 69,
          "time": 10.799999999999995,
          "velocity": 0.3700787401574803,
          "duration": 0.5999999999999996
        },
        {
          "name": "G4",
          "midi": 67,
          "time": 11.399999999999995,
          "velocity": 0.3700787401574803,
          "duration": 0.3000000000000007
        },
        {
          "name": "A4",
          "midi": 69,
          "time": 11.699999999999996,
          "velocity": 0.3700787401574803,
          "duration": 0.3000000000000007
        },
        {
          "name": "A#4",
          "midi": 70,
          "time": 11.999999999999996,
          "velocity": 0.3700787401574803,
          "duration": 0.5999999999999996
        },
        {
          "name": "E4",
          "midi": 64,
          "time": 12.599999999999996,
          "velocity": 0.3700787401574803,
          "duration": 0.5999999999999996
        },
        {
          "name": "G4",
          "midi": 67,
          "time": 13.199999999999996,
          "velocity": 0.3700787401574803,
          "duration": 0.5999999999999996
        },
        {
          "name": "F4",
          "midi": 65,
          "time": 13.799999999999995,
          "velocity": 0.3700787401574803,
          "duration": 0.5999999999999996
        },
        {
          "name": "C5",
          "midi": 72,
          "time": 14.399999999999995,
          "velocity": 0.3700787401574803,
          "duration": 0.5999999999999996
        },
        {
          "name": "C5",
          "midi": 72,
          "time": 14.999999999999995,
          "velocity": 0.3700787401574803,
          "duration": 0.3000000000000007
        },
        {
          "name": "A4",
          "midi": 69,
          "time": 15.299999999999995,
          "velocity": 0.3700787401574803,
          "duration": 0.3000000000000007
        },
        {
          "name": "D5",
          "midi": 74,
          "time": 15.599999999999996,
          "velocity": 0.3700787401574803,
          "duration": 0.9000000000000004
        },
        {
          "name": "C5",
          "midi": 72,
          "time": 16.499999999999996,
          "velocity": 0.3700787401574803,
          "duration": 0.3000000000000007
        },
        {
          "name": "C5",
          "midi": 72,
          "time": 16.799999999999997,
          "velocity": 0.3700787401574803,
          "duration": 0.3000000000000007
        },
        {
          "name": "A#4",
          "midi": 70,
          "time": 17.099999999999998,
          "velocity": 0.3700787401574803,
          "duration": 0.3000000000000007
        },
        {
          "name": "A#4",
          "midi": 70,
          "time": 17.4,
          "velocity": 0.3700787401574803,
          "duration": 0.8999999999999986
        },
        {
          "name": "A#4",
          "midi": 70,
          "time": 18.299999999999997,
          "velocity": 0.3700787401574803,
          "duration": 0.3000000000000007
        },
        {
          "name": "A#4",
          "midi": 70,
          "time": 18.599999999999998,
          "velocity": 0.3700787401574803,
          "duration": 0.3000000000000007
        },
        {
          "name": "G4",
          "midi": 67,
          "time": 18.9,
          "velocity": 0.3700787401574803,
          "duration": 0.3000000000000007
        },
        {
          "name": "C5",
          "midi": 72,
          "time": 19.2,
          "velocity": 0.3700787401574803,
          "duration": 0.8999999999999986
        },
        {
          "name": "A#4",
          "midi": 70,
          "time": 20.099999999999998,
          "velocity": 0.3700787401574803,
          "duration": 0.3000000000000007
        },
        {
          "name": "A#4",
          "midi": 70,
          "time": 20.4,
          "velocity": 0.3700787401574803,
          "duration": 0.3000000000000007
        },
        {
          "name": "A4",
          "midi": 69,
          "time": 20.7,
          "velocity": 0.3700787401574803,
          "duration": 0.3000000000000007
        },
        {
          "name": "A4",
          "midi": 69,
          "time": 21,
          "velocity": 0.3700787401574803,
          "duration": 0.6000000000000014
        },
        {
          "name": "C4",
          "midi": 60,
          "time": 21.6,
          "velocity": 0.3700787401574803,
          "duration": 0.6000000000000014
        },
        {
          "name": "F4",
          "midi": 65,
          "time": 22.200000000000003,
          "velocity": 0.3700787401574803,
          "duration": 0.4499999999999993
        },
        {
          "name": "F4",
          "midi": 65,
          "time": 22.650000000000002,
          "velocity": 0.3700787401574803,
          "duration": 0.14999999999999858
        },
        {
          "name": "F4",
          "midi": 65,
          "time": 22.8,
          "velocity": 0.3700787401574803,
          "duration": 0.6000000000000014
        },
        {
          "name": "G4",
          "midi": 67,
          "time": 23.400000000000002,
          "velocity": 0.3700787401574803,
          "duration": 0.6000000000000014
        },
        {
          "name": "A4",
          "midi": 69,
          "time": 24.000000000000004,
          "velocity": 0.3700787401574803,
          "duration": 0.4499999999999993
        },
        {
          "name": "A4",
          "midi": 69,
          "time": 24.450000000000003,
          "velocity": 0.3700787401574803,
          "duration": 0.14999999999999858
        },
        {
          "name": "A4",
          "midi": 69,
          "time": 24.6,
          "velocity": 0.3700787401574803,
          "duration": 0.6000000000000014
        },
        {
          "name": "A4",
          "midi": 69,
          "time": 25.200000000000003,
          "velocity": 0.3700787401574803,
          "duration": 0.6000000000000014
        },
        {
          "name": "G4",
          "midi": 67,
          "time": 25.800000000000004,
          "velocity": 0.3700787401574803,
          "duration": 0.3000000000000007
        },
        {
          "name": "A4",
          "midi": 69,
          "time": 26.100000000000005,
          "velocity": 0.3700787401574803,
          "duration": 0.3000000000000007
        },
        {
          "name": "A#4",
          "midi": 70,
          "time": 26.400000000000006,
          "velocity": 0.3700787401574803,
          "duration": 0.6000000000000014
        },
        {
          "name": "E4",
          "midi": 64,
          "time": 27.000000000000007,
          "velocity": 0.3700787401574803,
          "duration": 0.6000000000000014
        },
        {
          "name": "G4",
          "midi": 67,
          "time": 27.60000000000001,
          "velocity": 0.3700787401574803,
          "duration": 0.6000000000000014
        },
        {
          "name": "F4",
          "midi": 65,
          "time": 28.20000000000001,
          "velocity": 0.3700787401574803,
          "duration": 0.6000000000000014
        },
        {
          "name": "C4",
          "midi": 60,
          "time": 28.80000000000001,
          "velocity": 0.3700787401574803,
          "duration": 0.6000000000000014
        },
        {
          "name": "F4",
          "midi": 65,
          "time": 29.400000000000013,
          "velocity": 0.3700787401574803,
          "duration": 0.4499999999999993
        },
        {
          "name": "F4",
          "midi": 65,
          "time": 29.850000000000012,
          "velocity": 0.3700787401574803,
          "duration": 0.14999999999999858
        },
        {
          "name": "F4",
          "midi": 65,
          "time": 30.00000000000001,
          "velocity": 0.3700787401574803,
          "duration": 0.6000000000000014
        },
        {
          "name": "G4",
          "midi": 67,
          "time": 30.600000000000012,
          "velocity": 0.3700787401574803,
          "duration": 0.6000000000000014
        },
        {
          "name": "A4",
          "midi": 69,
          "time": 31.200000000000014,
          "velocity": 0.3700787401574803,
          "duration": 0.4499999999999993
        },
        {
          "name": "A4",
          "midi": 69,
          "time": 31.650000000000013,
          "velocity": 0.3700787401574803,
          "duration": 0.14999999999999858
        },
        {
          "name": "A4",
          "midi": 69,
          "time": 31.80000000000001,
          "velocity": 0.3700787401574803,
          "duration": 0.6000000000000014
        },
        {
          "name": "A4",
          "midi": 69,
          "time": 32.40000000000001,
          "velocity": 0.3700787401574803,
          "duration": 0.6000000000000014
        },
        {
          "name": "G4",
          "midi": 67,
          "time": 33.000000000000014,
          "velocity": 0.3700787401574803,
          "duration": 0.29999999999999716
        },
        {
          "name": "A4",
          "midi": 69,
          "time": 33.30000000000001,
          "velocity": 0.3700787401574803,
          "duration": 0.29999999999999716
        },
        {
          "name": "A#4",
          "midi": 70,
          "time": 33.60000000000001,
          "velocity": 0.3700787401574803,
          "duration": 0.6000000000000014
        },
        {
          "name": "E4",
          "midi": 64,
          "time": 34.20000000000001,
          "velocity": 0.3700787401574803,
          "duration": 0.6000000000000014
        },
        {
          "name": "G4",
          "midi": 67,
          "time": 34.80000000000001,
          "velocity": 0.3700787401574803,
          "duration": 0.6000000000000014
        },
        {
          "name": "F4",
          "midi": 65,
          "time": 35.40000000000001,
          "velocity": 0.3700787401574803,
          "duration": 0.6000000000000014
        },
        {
          "name": "C4",
          "midi": 60,
          "time": 36.000000000000014,
          "velocity": 0.3700787401574803,
          "duration": 0.6000000000000014
        },
        {
          "name": "F4",
          "midi": 65,
          "time": 36.600000000000016,
          "velocity": 0.3700787401574803,
          "duration": 0.45000000000000284
        },
        {
          "name": "F4",
          "midi": 65,
          "time": 37.05000000000002,
          "velocity": 0.3700787401574803,
          "duration": 0.14999999999999858
        },
        {
          "name": "F4",
          "midi": 65,
          "time": 37.20000000000002,
          "velocity": 0.3700787401574803,
          "duration": 0.6000000000000014
        },
        {
          "name": "G4",
          "midi": 67,
          "time": 37.80000000000002,
          "velocity": 0.3700787401574803,
          "duration": 0.6000000000000014
        },
        {
          "name": "A4",
          "midi": 69,
          "time": 38.40000000000002,
          "velocity": 0.3700787401574803,
          "duration": 0.45000000000000284
        },
        {
          "name": "A4",
          "midi": 69,
          "time": 38.85000000000002,
          "velocity": 0.3700787401574803,
          "duration": 0.14999999999999858
        },
        {
          "name": "A4",
          "midi": 69,
          "time": 39.00000000000002,
          "velocity": 0.3700787401574803,
          "duration": 0.6000000000000014
        },
        {
          "name": "A4",
          "midi": 69,
          "time": 39.60000000000002,
          "velocity": 0.3700787401574803,
          "duration": 0.6000000000000014
        },
        {
          "name": "G4",
          "midi": 67,
          "time": 40.200000000000024,
          "velocity": 0.3700787401574803,
          "duration": 0.29999999999999716
        },
        {
          "name": "A4",
          "midi": 69,
          "time": 40.50000000000002,
          "velocity": 0.3700787401574803,
          "duration": 0.29999999999999716
        },
        {
          "name": "A#4",
          "midi": 70,
          "time": 40.80000000000002,
          "velocity": 0.3700787401574803,
          "duration": 0.6000000000000014
        },
        {
          "name": "E4",
          "midi": 64,
          "time": 41.40000000000002,
          "velocity": 0.3700787401574803,
          "duration": 0.6000000000000014
        },
        {
          "name": "G4",
          "midi": 67,
          "time": 42.00000000000002,
          "velocity": 0.3700787401574803,
          "duration": 0.6000000000000014
        },
        {
          "name": "F4",
          "midi": 65,
          "time": 42.60000000000002,
          "velocity": 0.3700787401574803,
          "duration": 0.6000000000000014
        },
        {
          "name": "C5",
          "midi": 72,
          "time": 43.200000000000024,
          "velocity": 0.3700787401574803,
          "duration": 0.6000000000000014
        },
        {
          "name": "C5",
          "midi": 72,
          "time": 43.800000000000026,
          "velocity": 0.3700787401574803,
          "duration": 0.29999999999999716
        },
        {
          "name": "A4",
          "midi": 69,
          "time": 44.10000000000002,
          "velocity": 0.3700787401574803,
          "duration": 0.29999999999999716
        },
        {
          "name": "D5",
          "midi": 74,
          "time": 44.40000000000002,
          "velocity": 0.3700787401574803,
          "duration": 0.8999999999999986
        },
        {
          "name": "C5",
          "midi": 72,
          "time": 45.30000000000002,
          "velocity": 0.3700787401574803,
          "duration": 0.29999999999999716
        },
        {
          "name": "C5",
          "midi": 72,
          "time": 45.600000000000016,
          "velocity": 0.3700787401574803,
          "duration": 0.29999999999999716
        },
        {
          "name": "A#4",
          "midi": 70,
          "time": 45.90000000000001,
          "velocity": 0.3700787401574803,
          "duration": 0.29999999999999716
        },
        {
          "name": "A#4",
          "midi": 70,
          "time": 46.20000000000001,
          "velocity": 0.3700787401574803,
          "duration": 0.8999999999999986
        },
        {
          "name": "A#4",
          "midi": 70,
          "time": 47.10000000000001,
          "velocity": 0.3700787401574803,
          "duration": 0.29999999999999716
        },
        {
          "name": "A#4",
          "midi": 70,
          "time": 47.400000000000006,
          "velocity": 0.3700787401574803,
          "duration": 0.29999999999999716
        },
        {
          "name": "G4",
          "midi": 67,
          "time": 47.7,
          "velocity": 0.3700787401574803,
          "duration": 0.29999999999999716
        },
        {
          "name": "C5",
          "midi": 72,
          "time": 48,
          "velocity": 0.3700787401574803,
          "duration": 0.8999999999999986
        },
        {
          "name": "A#4",
          "midi": 70,
          "time": 48.9,
          "velocity": 0.3700787401574803,
          "duration": 0.29999999999999716
        },
        {
          "name": "A#4",
          "midi": 70,
          "time": 49.199999999999996,
          "velocity": 0.3700787401574803,
          "duration": 0.29999999999999716
        },
        {
          "name": "A4",
          "midi": 69,
          "time": 49.49999999999999,
          "velocity": 0.3700787401574803,
          "duration": 0.29999999999999716
        },
        {
          "name": "A4",
          "midi": 69,
          "time": 49.79999999999999,
          "velocity": 0.3700787401574803,
          "duration": 0.6000000000000014
        },
        {
          "name": "C4",
          "midi": 60,
          "time": 50.39999999999999,
          "velocity": 0.3700787401574803,
          "duration": 0.6000000000000014
        },
        {
          "name": "F4",
          "midi": 65,
          "time": 50.99999999999999,
          "velocity": 0.3700787401574803,
          "duration": 0.45000000000000284
        },
        {
          "name": "F4",
          "midi": 65,
          "time": 51.449999999999996,
          "velocity": 0.3700787401574803,
          "duration": 0.14999999999999858
        },
        {
          "name": "F4",
          "midi": 65,
          "time": 51.599999999999994,
          "velocity": 0.3700787401574803,
          "duration": 0.6000000000000014
        },
        {
          "name": "G4",
          "midi": 67,
          "time": 52.199999999999996,
          "velocity": 0.3700787401574803,
          "duration": 0.6000000000000014
        },
        {
          "name": "A4",
          "midi": 69,
          "time": 52.8,
          "velocity": 0.3700787401574803,
          "duration": 0.45000000000000284
        },
        {
          "name": "A4",
          "midi": 69,
          "time": 53.25,
          "velocity": 0.3700787401574803,
          "duration": 0.14999999999999858
        },
        {
          "name": "A4",
          "midi": 69,
          "time": 53.4,
          "velocity": 0.3700787401574803,
          "duration": 0.6000000000000014
        },
        {
          "name": "A4",
          "midi": 69,
          "time": 54,
          "velocity": 0.3700787401574803,
          "duration": 0.6000000000000014
        },
        {
          "name": "G4",
          "midi": 67,
          "time": 54.6,
          "velocity": 0.3700787401574803,
          "duration": 0.29999999999999716
        },
        {
          "name": "A4",
          "midi": 69,
          "time": 54.9,
          "velocity": 0.3700787401574803,
          "duration": 0.29999999999999716
        },
        {
          "name": "A#4",
          "midi": 70,
          "time": 55.199999999999996,
          "velocity": 0.3700787401574803,
          "duration": 0.6000000000000014
        },
        {
          "name": "E4",
          "midi": 64,
          "time": 55.8,
          "velocity": 0.3700787401574803,
          "duration": 0.6000000000000014
        },
        {
          "name": "G4",
          "midi": 67,
          "time": 56.4,
          "velocity": 0.3700787401574803,
          "duration": 0.6000000000000014
        },
        {
          "name": "F4",
          "midi": 65,
          "time": 57,
          "velocity": 0.3700787401574803,
          "duration": 0.6000000000000014
        }
      ],
      "controlChanges": {},
      "id": 1,
      "channelNumber": 0,
      "isPercussion": false
    },
    {
      "startTime": 6,
      "duration": 57.60000000000004,
      "length": 26,
      "notes": [
        {
          "name": "A#3",
          "midi": 58,
          "time": 6,
          "velocity": 0.30708661417322836,
          "duration": 0.5999999999999996
        },
        {
          "name": "A3",
          "midi": 57,
          "time": 6.6,
          "velocity": 0.30708661417322836,
          "duration": 0.5999999999999996
        },
        {
          "name": "A#3",
          "midi": 58,
          "time": 13.2,
          "velocity": 0.30708661417322836,
          "duration": 0.5999999999999996
        },
        {
          "name": "A3",
          "midi": 57,
          "time": 13.799999999999999,
          "velocity": 0.30708661417322836,
          "duration": 0.5999999999999996
        },
        {
          "name": "F3",
          "midi": 53,
          "time": 15.599999999999998,
          "velocity": 0.30708661417322836,
          "duration": 0.6000000000000014
        },
        {
          "name": "F3",
          "midi": 53,
          "time": 16.2,
          "velocity": 0.30708661417322836,
          "duration": 0.6000000000000014
        },
        {
          "name": "G3",
          "midi": 55,
          "time": 17.400000000000002,
          "velocity": 0.30708661417322836,
          "duration": 0.6000000000000014
        },
        {
          "name": "G3",
          "midi": 55,
          "time": 18.000000000000004,
          "velocity": 0.30708661417322836,
          "duration": 0.6000000000000014
        },
        {
          "name": "E3",
          "midi": 52,
          "time": 19.200000000000006,
          "velocity": 0.30708661417322836,
          "duration": 0.6000000000000014
        },
        {
          "name": "E3",
          "midi": 52,
          "time": 19.800000000000008,
          "velocity": 0.30708661417322836,
          "duration": 0.6000000000000014
        },
        {
          "name": "F3",
          "midi": 53,
          "time": 21.00000000000001,
          "velocity": 0.30708661417322836,
          "duration": 0.6000000000000014
        },
        {
          "name": "A#3",
          "midi": 58,
          "time": 27.600000000000012,
          "velocity": 0.30708661417322836,
          "duration": 0.6000000000000014
        },
        {
          "name": "A3",
          "midi": 57,
          "time": 28.200000000000014,
          "velocity": 0.30708661417322836,
          "duration": 0.6000000000000014
        },
        {
          "name": "A#3",
          "midi": 58,
          "time": 34.80000000000001,
          "velocity": 0.3700787401574803,
          "duration": 0.6000000000000014
        },
        {
          "name": "A3",
          "midi": 57,
          "time": 35.40000000000001,
          "velocity": 0.3700787401574803,
          "duration": 0.6000000000000014
        },
        {
          "name": "A#3",
          "midi": 58,
          "time": 42.000000000000014,
          "velocity": 0.3700787401574803,
          "duration": 0.6000000000000014
        },
        {
          "name": "A3",
          "midi": 57,
          "time": 42.600000000000016,
          "velocity": 0.3700787401574803,
          "duration": 0.6000000000000014
        },
        {
          "name": "F3",
          "midi": 53,
          "time": 44.40000000000002,
          "velocity": 0.3700787401574803,
          "duration": 0.6000000000000014
        },
        {
          "name": "F3",
          "midi": 53,
          "time": 45.00000000000002,
          "velocity": 0.3700787401574803,
          "duration": 0.6000000000000014
        },
        {
          "name": "G3",
          "midi": 55,
          "time": 46.200000000000024,
          "velocity": 0.3700787401574803,
          "duration": 0.6000000000000014
        },
        {
          "name": "G3",
          "midi": 55,
          "time": 46.800000000000026,
          "velocity": 0.3700787401574803,
          "duration": 0.6000000000000014
        },
        {
          "name": "E3",
          "midi": 52,
          "time": 48.00000000000003,
          "velocity": 0.3700787401574803,
          "duration": 0.6000000000000014
        },
        {
          "name": "E3",
          "midi": 52,
          "time": 48.60000000000003,
          "velocity": 0.3700787401574803,
          "duration": 0.6000000000000014
        },
        {
          "name": "F3",
          "midi": 53,
          "time": 49.80000000000003,
          "velocity": 0.3700787401574803,
          "duration": 0.6000000000000014
        },
        {
          "name": "A#3",
          "midi": 58,
          "time": 56.400000000000034,
          "velocity": 0.3700787401574803,
          "duration": 0.6000000000000014
        },
        {
          "name": "A3",
          "midi": 57,
          "time": 57.000000000000036,
          "velocity": 0.3700787401574803,
          "duration": 0.6000000000000014
        }
      ],
      "controlChanges": {},
      "id": 2,
      "channelNumber": 1,
      "isPercussion": false
    },
    {
      "startTime": 0.6,
      "duration": 57.600000000000044,
      "length": 44,
      "notes": [
        {
          "name": "A3",
          "midi": 57,
          "time": 0.6,
          "velocity": 0.3700787401574803,
          "duration": 1.1999999999999997
        },
        {
          "name": "C4",
          "midi": 60,
          "time": 1.7999999999999998,
          "velocity": 0.3700787401574803,
          "duration": 0.6000000000000001
        },
        {
          "name": "C4",
          "midi": 60,
          "time": 2.4,
          "velocity": 0.3700787401574803,
          "duration": 1.7999999999999994
        },
        {
          "name": "C4",
          "midi": 60,
          "time": 5.999999999999999,
          "velocity": 0.3700787401574803,
          "duration": 0.5999999999999996
        },
        {
          "name": "C4",
          "midi": 60,
          "time": 6.599999999999999,
          "velocity": 0.3700787401574803,
          "duration": 0.5999999999999996
        },
        {
          "name": "A3",
          "midi": 57,
          "time": 7.799999999999998,
          "velocity": 0.3700787401574803,
          "duration": 1.2000000000000002
        },
        {
          "name": "C4",
          "midi": 60,
          "time": 8.999999999999998,
          "velocity": 0.3700787401574803,
          "duration": 0.5999999999999996
        },
        {
          "name": "C4",
          "midi": 60,
          "time": 9.599999999999998,
          "velocity": 0.3700787401574803,
          "duration": 1.8000000000000007
        },
        {
          "name": "C4",
          "midi": 60,
          "time": 13.2,
          "velocity": 0.3700787401574803,
          "duration": 0.5999999999999996
        },
        {
          "name": "C4",
          "midi": 60,
          "time": 13.799999999999999,
          "velocity": 0.3700787401574803,
          "duration": 0.5999999999999996
        },
        {
          "name": "A3",
          "midi": 57,
          "time": 15.599999999999998,
          "velocity": 0.3700787401574803,
          "duration": 0.6000000000000014
        },
        {
          "name": "A3",
          "midi": 57,
          "time": 16.2,
          "velocity": 0.3700787401574803,
          "duration": 0.6000000000000014
        },
        {
          "name": "A#3",
          "midi": 58,
          "time": 17.400000000000002,
          "velocity": 0.3700787401574803,
          "duration": 0.6000000000000014
        },
        {
          "name": "A#3",
          "midi": 58,
          "time": 18.000000000000004,
          "velocity": 0.3700787401574803,
          "duration": 0.6000000000000014
        },
        {
          "name": "A#3",
          "midi": 58,
          "time": 19.200000000000006,
          "velocity": 0.3700787401574803,
          "duration": 0.6000000000000014
        },
        {
          "name": "A#3",
          "midi": 58,
          "time": 19.800000000000008,
          "velocity": 0.3700787401574803,
          "duration": 0.6000000000000014
        },
        {
          "name": "A3",
          "midi": 57,
          "time": 21.00000000000001,
          "velocity": 0.3700787401574803,
          "duration": 0.6000000000000014
        },
        {
          "name": "A3",
          "midi": 57,
          "time": 22.200000000000014,
          "velocity": 0.3700787401574803,
          "duration": 1.1999999999999993
        },
        {
          "name": "C4",
          "midi": 60,
          "time": 23.400000000000013,
          "velocity": 0.3700787401574803,
          "duration": 0.6000000000000014
        },
        {
          "name": "C4",
          "midi": 60,
          "time": 24.000000000000014,
          "velocity": 0.3700787401574803,
          "duration": 1.8000000000000007
        },
        {
          "name": "C4",
          "midi": 60,
          "time": 27.600000000000016,
          "velocity": 0.3700787401574803,
          "duration": 0.6000000000000014
        },
        {
          "name": "C4",
          "midi": 60,
          "time": 28.200000000000017,
          "velocity": 0.3700787401574803,
          "duration": 0.6000000000000014
        },
        {
          "name": "A3",
          "midi": 57,
          "time": 29.40000000000002,
          "velocity": 0.3700787401574803,
          "duration": 1.1999999999999993
        },
        {
          "name": "C4",
          "midi": 60,
          "time": 30.60000000000002,
          "velocity": 0.3700787401574803,
          "duration": 0.6000000000000014
        },
        {
          "name": "C4",
          "midi": 60,
          "time": 31.20000000000002,
          "velocity": 0.3700787401574803,
          "duration": 1.8000000000000007
        },
        {
          "name": "C4",
          "midi": 60,
          "time": 34.80000000000002,
          "velocity": 0.3700787401574803,
          "duration": 0.6000000000000014
        },
        {
          "name": "C4",
          "midi": 60,
          "time": 35.40000000000002,
          "velocity": 0.3700787401574803,
          "duration": 0.6000000000000014
        },
        {
          "name": "A3",
          "midi": 57,
          "time": 36.60000000000002,
          "velocity": 0.3700787401574803,
          "duration": 1.2000000000000028
        },
        {
          "name": "C4",
          "midi": 60,
          "time": 37.800000000000026,
          "velocity": 0.3700787401574803,
          "duration": 0.6000000000000014
        },
        {
          "name": "C4",
          "midi": 60,
          "time": 38.40000000000003,
          "velocity": 0.3700787401574803,
          "duration": 1.7999999999999972
        },
        {
          "name": "C4",
          "midi": 60,
          "time": 42.00000000000002,
          "velocity": 0.3700787401574803,
          "duration": 0.6000000000000014
        },
        {
          "name": "C4",
          "midi": 60,
          "time": 42.60000000000002,
          "velocity": 0.3700787401574803,
          "duration": 0.6000000000000014
        },
        {
          "name": "A3",
          "midi": 57,
          "time": 44.40000000000003,
          "velocity": 0.3700787401574803,
          "duration": 0.6000000000000014
        },
        {
          "name": "A3",
          "midi": 57,
          "time": 45.00000000000003,
          "velocity": 0.3700787401574803,
          "duration": 0.6000000000000014
        },
        {
          "name": "A#3",
          "midi": 58,
          "time": 46.20000000000003,
          "velocity": 0.3700787401574803,
          "duration": 0.6000000000000014
        },
        {
          "name": "A#3",
          "midi": 58,
          "time": 46.80000000000003,
          "velocity": 0.3700787401574803,
          "duration": 0.6000000000000014
        },
        {
          "name": "A#3",
          "midi": 58,
          "time": 48.000000000000036,
          "velocity": 0.3700787401574803,
          "duration": 0.6000000000000014
        },
        {
          "name": "A#3",
          "midi": 58,
          "time": 48.60000000000004,
          "velocity": 0.3700787401574803,
          "duration": 0.6000000000000014
        },
        {
          "name": "A3",
          "midi": 57,
          "time": 49.80000000000004,
          "velocity": 0.3700787401574803,
          "duration": 0.6000000000000014
        },
        {
          "name": "A3",
          "midi": 57,
          "time": 51.00000000000004,
          "velocity": 0.3700787401574803,
          "duration": 1.2000000000000028
        },
        {
          "name": "C4",
          "midi": 60,
          "time": 52.200000000000045,
          "velocity": 0.3700787401574803,
          "duration": 0.6000000000000014
        },
        {
          "name": "C4",
          "midi": 60,
          "time": 52.80000000000005,
          "velocity": 0.3700787401574803,
          "duration": 1.7999999999999972
        },
        {
          "name": "C4",
          "midi": 60,
          "time": 56.40000000000004,
          "velocity": 0.3700787401574803,
          "duration": 0.6000000000000014
        },
        {
          "name": "C4",
          "midi": 60,
          "time": 57.00000000000004,
          "velocity": 0.3700787401574803,
          "duration": 0.6000000000000014
        }
      ],
      "controlChanges": {},
      "id": 3,
      "channelNumber": 2,
      "isPercussion": false
    },
    {
      "startTime": 0.6,
      "duration": 57.600000000000044,
      "length": 76,
      "notes": [
        {
          "name": "F3",
          "midi": 53,
          "time": 0.6,
          "velocity": 0.3700787401574803,
          "duration": 1.1999999999999997
        },
        {
          "name": "E3",
          "midi": 52,
          "time": 1.7999999999999998,
          "velocity": 0.3700787401574803,
          "duration": 0.6000000000000001
        },
        {
          "name": "F3",
          "midi": 53,
          "time": 2.4,
          "velocity": 0.3700787401574803,
          "duration": 1.7999999999999994
        },
        {
          "name": "E3",
          "midi": 52,
          "time": 4.199999999999999,
          "velocity": 0.3700787401574803,
          "duration": 0.2999999999999998
        },
        {
          "name": "F3",
          "midi": 53,
          "time": 4.499999999999999,
          "velocity": 0.3700787401574803,
          "duration": 0.2999999999999998
        },
        {
          "name": "G3",
          "midi": 55,
          "time": 4.799999999999999,
          "velocity": 0.3700787401574803,
          "duration": 0.5999999999999996
        },
        {
          "name": "A#3",
          "midi": 58,
          "time": 5.399999999999999,
          "velocity": 0.3700787401574803,
          "duration": 0.5999999999999996
        },
        {
          "name": "E3",
          "midi": 52,
          "time": 5.999999999999998,
          "velocity": 0.3700787401574803,
          "duration": 0.5999999999999996
        },
        {
          "name": "F3",
          "midi": 53,
          "time": 6.599999999999998,
          "velocity": 0.3700787401574803,
          "duration": 0.5999999999999996
        },
        {
          "name": "F3",
          "midi": 53,
          "time": 7.799999999999997,
          "velocity": 0.3700787401574803,
          "duration": 1.1999999999999993
        },
        {
          "name": "E3",
          "midi": 52,
          "time": 8.999999999999996,
          "velocity": 0.3700787401574803,
          "duration": 0.5999999999999996
        },
        {
          "name": "F3",
          "midi": 53,
          "time": 9.599999999999996,
          "velocity": 0.3700787401574803,
          "duration": 1.799999999999999
        },
        {
          "name": "E3",
          "midi": 52,
          "time": 11.399999999999995,
          "velocity": 0.3700787401574803,
          "duration": 0.3000000000000007
        },
        {
          "name": "F3",
          "midi": 53,
          "time": 11.699999999999996,
          "velocity": 0.3700787401574803,
          "duration": 0.3000000000000007
        },
        {
          "name": "G3",
          "midi": 55,
          "time": 11.999999999999996,
          "velocity": 0.3700787401574803,
          "duration": 0.5999999999999996
        },
        {
          "name": "A#3",
          "midi": 58,
          "time": 12.599999999999996,
          "velocity": 0.3700787401574803,
          "duration": 0.5999999999999996
        },
        {
          "name": "E3",
          "midi": 52,
          "time": 13.199999999999996,
          "velocity": 0.3700787401574803,
          "duration": 0.5999999999999996
        },
        {
          "name": "F3",
          "midi": 53,
          "time": 13.799999999999995,
          "velocity": 0.3700787401574803,
          "duration": 0.5999999999999996
        },
        {
          "name": "F2",
          "midi": 41,
          "time": 14.999999999999995,
          "velocity": 0.3700787401574803,
          "duration": 0.5999999999999996
        },
        {
          "name": "C3",
          "midi": 48,
          "time": 15.599999999999994,
          "velocity": 0.3700787401574803,
          "duration": 0.6000000000000014
        },
        {
          "name": "C3",
          "midi": 48,
          "time": 16.199999999999996,
          "velocity": 0.3700787401574803,
          "duration": 0.6000000000000014
        },
        {
          "name": "G2",
          "midi": 43,
          "time": 16.799999999999997,
          "velocity": 0.3700787401574803,
          "duration": 0.6000000000000014
        },
        {
          "name": "D3",
          "midi": 50,
          "time": 17.4,
          "velocity": 0.3700787401574803,
          "duration": 0.6000000000000014
        },
        {
          "name": "D3",
          "midi": 50,
          "time": 18,
          "velocity": 0.3700787401574803,
          "duration": 0.6000000000000014
        },
        {
          "name": "C2",
          "midi": 36,
          "time": 18.6,
          "velocity": 0.3700787401574803,
          "duration": 0.6000000000000014
        },
        {
          "name": "C3",
          "midi": 48,
          "time": 19.200000000000003,
          "velocity": 0.3700787401574803,
          "duration": 0.6000000000000014
        },
        {
          "name": "C3",
          "midi": 48,
          "time": 19.800000000000004,
          "velocity": 0.3700787401574803,
          "duration": 0.6000000000000014
        },
        {
          "name": "F2",
          "midi": 41,
          "time": 20.400000000000006,
          "velocity": 0.3700787401574803,
          "duration": 0.6000000000000014
        },
        {
          "name": "C3",
          "midi": 48,
          "time": 21.000000000000007,
          "velocity": 0.3700787401574803,
          "duration": 0.6000000000000014
        },
        {
          "name": "F3",
          "midi": 53,
          "time": 22.20000000000001,
          "velocity": 0.3700787401574803,
          "duration": 1.1999999999999993
        },
        {
          "name": "E3",
          "midi": 52,
          "time": 23.40000000000001,
          "velocity": 0.3700787401574803,
          "duration": 0.6000000000000014
        },
        {
          "name": "F3",
          "midi": 53,
          "time": 24.00000000000001,
          "velocity": 0.3700787401574803,
          "duration": 1.8000000000000007
        },
        {
          "name": "E3",
          "midi": 52,
          "time": 25.80000000000001,
          "velocity": 0.3700787401574803,
          "duration": 0.3000000000000007
        },
        {
          "name": "F3",
          "midi": 53,
          "time": 26.100000000000012,
          "velocity": 0.3700787401574803,
          "duration": 0.3000000000000007
        },
        {
          "name": "G3",
          "midi": 55,
          "time": 26.400000000000013,
          "velocity": 0.3700787401574803,
          "duration": 0.6000000000000014
        },
        {
          "name": "A#3",
          "midi": 58,
          "time": 27.000000000000014,
          "velocity": 0.3700787401574803,
          "duration": 0.6000000000000014
        },
        {
          "name": "E3",
          "midi": 52,
          "time": 27.600000000000016,
          "velocity": 0.3700787401574803,
          "duration": 0.6000000000000014
        },
        {
          "name": "F3",
          "midi": 53,
          "time": 28.200000000000017,
          "velocity": 0.3700787401574803,
          "duration": 0.6000000000000014
        },
        {
          "name": "F3",
          "midi": 53,
          "time": 29.40000000000002,
          "velocity": 0.3700787401574803,
          "duration": 1.1999999999999993
        },
        {
          "name": "E3",
          "midi": 52,
          "time": 30.60000000000002,
          "velocity": 0.3700787401574803,
          "duration": 0.6000000000000014
        },
        {
          "name": "F3",
          "midi": 53,
          "time": 31.20000000000002,
          "velocity": 0.3700787401574803,
          "duration": 1.8000000000000007
        },
        {
          "name": "E3",
          "midi": 52,
          "time": 33.00000000000002,
          "velocity": 0.3700787401574803,
          "duration": 0.29999999999999716
        },
        {
          "name": "F3",
          "midi": 53,
          "time": 33.30000000000002,
          "velocity": 0.3700787401574803,
          "duration": 0.29999999999999716
        },
        {
          "name": "G3",
          "midi": 55,
          "time": 33.600000000000016,
          "velocity": 0.3700787401574803,
          "duration": 0.6000000000000014
        },
        {
          "name": "A#3",
          "midi": 58,
          "time": 34.20000000000002,
          "velocity": 0.3700787401574803,
          "duration": 0.6000000000000014
        },
        {
          "name": "E3",
          "midi": 52,
          "time": 34.80000000000002,
          "velocity": 0.3700787401574803,
          "duration": 0.6000000000000014
        },
        {
          "name": "F3",
          "midi": 53,
          "time": 35.40000000000002,
          "velocity": 0.3700787401574803,
          "duration": 0.6000000000000014
        },
        {
          "name": "F3",
          "midi": 53,
          "time": 36.60000000000002,
          "velocity": 0.3700787401574803,
          "duration": 1.2000000000000028
        },
        {
          "name": "E3",
          "midi": 52,
          "time": 37.800000000000026,
          "velocity": 0.3700787401574803,
          "duration": 0.6000000000000014
        },
        {
          "name": "F3",
          "midi": 53,
          "time": 38.40000000000003,
          "velocity": 0.3700787401574803,
          "duration": 1.7999999999999972
        },
        {
          "name": "E3",
          "midi": 52,
          "time": 40.200000000000024,
          "velocity": 0.3700787401574803,
          "duration": 0.29999999999999716
        },
        {
          "name": "F3",
          "midi": 53,
          "time": 40.50000000000002,
          "velocity": 0.3700787401574803,
          "duration": 0.29999999999999716
        },
        {
          "name": "G3",
          "midi": 55,
          "time": 40.80000000000002,
          "velocity": 0.3700787401574803,
          "duration": 0.6000000000000014
        },
        {
          "name": "A#3",
          "midi": 58,
          "time": 41.40000000000002,
          "velocity": 0.3700787401574803,
          "duration": 0.6000000000000014
        },
        {
          "name": "E3",
          "midi": 52,
          "time": 42.00000000000002,
          "velocity": 0.3700787401574803,
          "duration": 0.6000000000000014
        },
        {
          "name": "F3",
          "midi": 53,
          "time": 42.60000000000002,
          "velocity": 0.3700787401574803,
          "duration": 0.6000000000000014
        },
        {
          "name": "F2",
          "midi": 41,
          "time": 43.800000000000026,
          "velocity": 0.3700787401574803,
          "duration": 0.6000000000000014
        },
        {
          "name": "C3",
          "midi": 48,
          "time": 44.40000000000003,
          "velocity": 0.3700787401574803,
          "duration": 0.6000000000000014
        },
        {
          "name": "C3",
          "midi": 48,
          "time": 45.00000000000003,
          "velocity": 0.3700787401574803,
          "duration": 0.6000000000000014
        },
        {
          "name": "G2",
          "midi": 43,
          "time": 45.60000000000003,
          "velocity": 0.3700787401574803,
          "duration": 0.6000000000000014
        },
        {
          "name": "D3",
          "midi": 50,
          "time": 46.20000000000003,
          "velocity": 0.3700787401574803,
          "duration": 0.6000000000000014
        },
        {
          "name": "D3",
          "midi": 50,
          "time": 46.80000000000003,
          "velocity": 0.3700787401574803,
          "duration": 0.6000000000000014
        },
        {
          "name": "C2",
          "midi": 36,
          "time": 47.400000000000034,
          "velocity": 0.3700787401574803,
          "duration": 0.6000000000000014
        },
        {
          "name": "C3",
          "midi": 48,
          "time": 48.000000000000036,
          "velocity": 0.3700787401574803,
          "duration": 0.6000000000000014
        },
        {
          "name": "C3",
          "midi": 48,
          "time": 48.60000000000004,
          "velocity": 0.3700787401574803,
          "duration": 0.6000000000000014
        },
        {
          "name": "F2",
          "midi": 41,
          "time": 49.20000000000004,
          "velocity": 0.3700787401574803,
          "duration": 0.6000000000000014
        },
        {
          "name": "C3",
          "midi": 48,
          "time": 49.80000000000004,
          "velocity": 0.3700787401574803,
          "duration": 0.6000000000000014
        },
        {
          "name": "F3",
          "midi": 53,
          "time": 51.00000000000004,
          "velocity": 0.3700787401574803,
          "duration": 1.2000000000000028
        },
        {
          "name": "E3",
          "midi": 52,
          "time": 52.200000000000045,
          "velocity": 0.3700787401574803,
          "duration": 0.6000000000000014
        },
        {
          "name": "F3",
          "midi": 53,
          "time": 52.80000000000005,
          "velocity": 0.3700787401574803,
          "duration": 1.7999999999999972
        },
        {
          "name": "E3",
          "midi": 52,
          "time": 54.600000000000044,
          "velocity": 0.3700787401574803,
          "duration": 0.29999999999999716
        },
        {
          "name": "F3",
          "midi": 53,
          "time": 54.90000000000004,
          "velocity": 0.3700787401574803,
          "duration": 0.29999999999999716
        },
        {
          "name": "G3",
          "midi": 55,
          "time": 55.20000000000004,
          "velocity": 0.3700787401574803,
          "duration": 0.6000000000000014
        },
        {
          "name": "A#3",
          "midi": 58,
          "time": 55.80000000000004,
          "velocity": 0.3700787401574803,
          "duration": 0.6000000000000014
        },
        {
          "name": "E3",
          "midi": 52,
          "time": 56.40000000000004,
          "velocity": 0.3700787401574803,
          "duration": 0.6000000000000014
        },
        {
          "name": "F3",
          "midi": 53,
          "time": 57.00000000000004,
          "velocity": 0.3700787401574803,
          "duration": 0.6000000000000014
        }
      ],
      "controlChanges": {},
      "id": 4,
      "channelNumber": 3,
      "isPercussion": false
    }
  ]
}
