{
  "header": {
    "PPQ": 120,
    "timeSignature": [
      4,
      4
    ],
    "bpm": 80.99997165000993,
    "name": "Seq, by D.W. Barnes"
  },
  "startTime": 0,
  "duration": 165.913638316667,
  "tracks": [
    {
      "startTime": 0,
      "duration": 0,
      "length": 0,
      "notes": [],
      "controlChanges": {},
      "id": 0
    },
    {
      "startTime": 2.962964,
      "duration": 162.85808169166762,
      "length": 377,
      "notes": [
        {
          "name": "C4",
          "midi": 60,
          "time": 2.962964,
          "velocity": 0.6299212598425197,
          "duration": 0.7283953166666666
        },
        {
          "name": "A4",
          "midi": 69,
          "time": 3.703705,
          "velocity": 0.6299212598425197,
          "duration": 0.7283953166666666
        },
        {
          "name": "A5",
          "midi": 81,
          "time": 4.444446,
          "velocity": 0.6299212598425197,
          "duration": 0.7283953166666661
        },
        {
          "name": "A6",
          "midi": 93,
          "time": 5.185187,
          "velocity": 0.6299212598425197,
          "duration": 0.5432100666666662
        },
        {
          "name": "C4",
          "midi": 60,
          "time": 5.74074275,
          "velocity": 0.6299212598425197,
          "duration": 0.17283956666666622
        },
        {
          "name": "F4",
          "midi": 65,
          "time": 5.925928,
          "velocity": 0.6299212598425197,
          "duration": 1.098765816666667
        },
        {
          "name": "F5",
          "midi": 77,
          "time": 7.037039500000001,
          "velocity": 0.6299212598425197,
          "duration": 0.3580248166666671
        },
        {
          "name": "E5",
          "midi": 76,
          "time": 7.407410000000001,
          "velocity": 0.6299212598425197,
          "duration": 0.3580248166666662
        },
        {
          "name": "D5",
          "midi": 74,
          "time": 7.777780500000001,
          "velocity": 0.6299212598425197,
          "duration": 0.3580248166666662
        },
        {
          "name": "C5",
          "midi": 72,
          "time": 8.148151,
          "velocity": 0.6299212598425197,
          "duration": 0.3580248166666671
        },
        {
          "name": "A#4",
          "midi": 70,
          "time": 8.5185215,
          "velocity": 0.6299212598425197,
          "duration": 0.3580248166666671
        },
        {
          "name": "A4",
          "midi": 69,
          "time": 8.888892,
          "velocity": 0.6299212598425197,
          "duration": 0.3580248166666671
        },
        {
          "name": "A4",
          "midi": 69,
          "time": 9.2592625,
          "velocity": 0.6299212598425197,
          "duration": 0.3580248166666671
        },
        {
          "name": "A4",
          "midi": 69,
          "time": 9.629633,
          "velocity": 0.6299212598425197,
          "duration": 1.4691363166666669
        },
        {
          "name": "C4",
          "midi": 60,
          "time": 11.111115,
          "velocity": 0.6299212598425197,
          "duration": 0.728395316666667
        },
        {
          "name": "F4",
          "midi": 65,
          "time": 11.851856,
          "velocity": 0.6299212598425197,
          "duration": 1.098765816666667
        },
        {
          "name": "D5",
          "midi": 74,
          "time": 12.9629675,
          "velocity": 0.6299212598425197,
          "duration": 0.3580248166666671
        },
        {
          "name": "C5",
          "midi": 72,
          "time": 13.333338,
          "velocity": 0.6299212598425197,
          "duration": 0.3580248166666671
        },
        {
          "name": "A#4",
          "midi": 70,
          "time": 13.7037085,
          "velocity": 0.6299212598425197,
          "duration": 0.3580248166666671
        },
        {
          "name": "A4",
          "midi": 69,
          "time": 14.074079,
          "velocity": 0.6299212598425197,
          "duration": 0.3580248166666671
        },
        {
          "name": "G4",
          "midi": 67,
          "time": 14.4444495,
          "velocity": 0.6299212598425197,
          "duration": 0.3580248166666671
        },
        {
          "name": "F4",
          "midi": 65,
          "time": 14.81482,
          "velocity": 0.6299212598425197,
          "duration": 1.469136316666665
        },
        {
          "name": "A4",
          "midi": 69,
          "time": 16.296301999999997,
          "velocity": 0.6299212598425197,
          "duration": 0.3580248166666671
        },
        {
          "name": "G4",
          "midi": 67,
          "time": 16.666672499999997,
          "velocity": 0.6299212598425197,
          "duration": 0.3580248166666671
        },
        {
          "name": "G4",
          "midi": 67,
          "time": 17.037042999999997,
          "velocity": 0.6299212598425197,
          "duration": 0.543210066666667
        },
        {
          "name": "C4",
          "midi": 60,
          "time": 17.592598749999997,
          "velocity": 0.6299212598425197,
          "duration": 0.1728395666666671
        },
        {
          "name": "F4",
          "midi": 65,
          "time": 17.777783999999997,
          "velocity": 0.6299212598425197,
          "duration": 0.728395316666667
        },
        {
          "name": "E4",
          "midi": 64,
          "time": 18.518524999999997,
          "velocity": 0.6299212598425197,
          "duration": 0.3580248166666671
        },
        {
          "name": "F4",
          "midi": 65,
          "time": 18.888895499999997,
          "velocity": 0.6299212598425197,
          "duration": 0.3580248166666671
        },
        {
          "name": "G4",
          "midi": 67,
          "time": 19.259265999999997,
          "velocity": 0.6299212598425197,
          "duration": 0.728395316666667
        },
        {
          "name": "F4",
          "midi": 65,
          "time": 20.000006999999997,
          "velocity": 0.6299212598425197,
          "duration": 0.3580248166666671
        },
        {
          "name": "G4",
          "midi": 67,
          "time": 20.370377499999996,
          "velocity": 0.6299212598425197,
          "duration": 0.3580248166666671
        },
        {
          "name": "A4",
          "midi": 69,
          "time": 20.740747999999996,
          "velocity": 0.6299212598425197,
          "duration": 0.728395316666667
        },
        {
          "name": "C5",
          "midi": 72,
          "time": 21.481488999999996,
          "velocity": 0.6299212598425197,
          "duration": 0.3580248166666671
        },
        {
          "name": "D5",
          "midi": 74,
          "time": 21.851859499999996,
          "velocity": 0.6299212598425197,
          "duration": 0.3580248166666671
        },
        {
          "name": "E5",
          "midi": 76,
          "time": 22.222229999999996,
          "velocity": 0.6299212598425197,
          "duration": 1.098765816666667
        },
        {
          "name": "D5",
          "midi": 74,
          "time": 23.333341499999996,
          "velocity": 0.6299212598425197,
          "duration": 0.3580248166666671
        },
        {
          "name": "C#5",
          "midi": 73,
          "time": 23.703711999999996,
          "velocity": 0.6299212598425197,
          "duration": 0.728395316666667
        },
        {
          "name": "C#5",
          "midi": 73,
          "time": 24.444452999999996,
          "velocity": 0.6299212598425197,
          "duration": 0.728395316666667
        },
        {
          "name": "D#5",
          "midi": 75,
          "time": 25.185193999999996,
          "velocity": 0.6299212598425197,
          "duration": 0.3580248166666671
        },
        {
          "name": "C#5",
          "midi": 73,
          "time": 25.555564499999996,
          "velocity": 0.6299212598425197,
          "duration": 0.3580248166666671
        },
        {
          "name": "C5",
          "midi": 72,
          "time": 25.925934999999996,
          "velocity": 0.6299212598425197,
          "duration": 0.3580248166666671
        },
        {
          "name": "A#4",
          "midi": 70,
          "time": 26.296305499999995,
          "velocity": 0.6299212598425197,
          "duration": 0.3580248166666671
        },
        {
          "name": "C5",
          "midi": 72,
          "time": 26.666675999999995,
          "velocity": 0.6299212598425197,
          "duration": 0.728395316666667
        },
        {
          "name": "G#4",
          "midi": 68,
          "time": 27.407416999999995,
          "velocity": 0.6299212598425197,
          "duration": 0.3580248166666671
        },
        {
          "name": "A#4",
          "midi": 70,
          "time": 27.777787499999995,
          "velocity": 0.6299212598425197,
          "duration": 0.3580248166666671
        },
        {
          "name": "C5",
          "midi": 72,
          "time": 28.148157999999995,
          "velocity": 0.6299212598425197,
          "duration": 0.3580248166666671
        },
        {
          "name": "A#4",
          "midi": 70,
          "time": 28.518528499999995,
          "velocity": 0.6299212598425197,
          "duration": 0.3580248166666671
        },
        {
          "name": "G#4",
          "midi": 68,
          "time": 28.888898999999995,
          "velocity": 0.6299212598425197,
          "duration": 0.03703704999999857
        },
        {
          "name": "A4",
          "midi": 69,
          "time": 28.93210889166666,
          "velocity": 0.6299212598425197,
          "duration": 0.5000001750000003
        },
        {
          "name": "A4",
          "midi": 69,
          "time": 29.444454749999995,
          "velocity": 0.6299212598425197,
          "duration": 0.08024694166666535
        },
        {
          "name": "G4",
          "midi": 67,
          "time": 29.537047374999993,
          "velocity": 0.6299212598425197,
          "duration": 0.08024694166666535
        },
        {
          "name": "F4",
          "midi": 65,
          "time": 29.62963999999999,
          "velocity": 0.6299212598425197,
          "duration": 1.098765816666667
        },
        {
          "name": "F5",
          "midi": 77,
          "time": 30.74075149999999,
          "velocity": 0.6299212598425197,
          "duration": 0.3580248166666671
        },
        {
          "name": "E5",
          "midi": 76,
          "time": 31.11112199999999,
          "velocity": 0.6299212598425197,
          "duration": 0.3580248166666671
        },
        {
          "name": "D5",
          "midi": 74,
          "time": 31.48149249999999,
          "velocity": 0.6299212598425197,
          "duration": 0.3580248166666671
        },
        {
          "name": "C5",
          "midi": 72,
          "time": 31.85186299999999,
          "velocity": 0.6299212598425197,
          "duration": 0.3580248166666671
        },
        {
          "name": "A#4",
          "midi": 70,
          "time": 32.222233499999994,
          "velocity": 0.6299212598425197,
          "duration": 0.3580248166666635
        },
        {
          "name": "A4",
          "midi": 69,
          "time": 32.592603999999994,
          "velocity": 0.6299212598425197,
          "duration": 0.3580248166666635
        },
        {
          "name": "A4",
          "midi": 69,
          "time": 32.962974499999994,
          "velocity": 0.6299212598425197,
          "duration": 0.3580248166666635
        },
        {
          "name": "A4",
          "midi": 69,
          "time": 33.333344999999994,
          "velocity": 0.6299212598425197,
          "duration": 1.8395068166666633
        },
        {
          "name": "C4",
          "midi": 60,
          "time": 35.185197499999994,
          "velocity": 0.6299212598425197,
          "duration": 0.3580248166666635
        },
        {
          "name": "F4",
          "midi": 65,
          "time": 35.555567999999994,
          "velocity": 0.6299212598425197,
          "duration": 1.0987658166666634
        },
        {
          "name": "C5",
          "midi": 72,
          "time": 36.666679499999994,
          "velocity": 0.6299212598425197,
          "duration": 0.037037050000002125
        },
        {
          "name": "C#5",
          "midi": 73,
          "time": 36.709889391666664,
          "velocity": 0.6299212598425197,
          "duration": 0.037037050000002125
        },
        {
          "name": "D5",
          "midi": 74,
          "time": 36.759272125,
          "velocity": 0.6299212598425197,
          "duration": 0.26543219166666887
        },
        {
          "name": "C5",
          "midi": 72,
          "time": 37.03705000000001,
          "velocity": 0.6299212598425197,
          "duration": 0.3580248166666635
        },
        {
          "name": "A#4",
          "midi": 70,
          "time": 37.40742050000001,
          "velocity": 0.6299212598425197,
          "duration": 0.3580248166666635
        },
        {
          "name": "A4",
          "midi": 69,
          "time": 37.77779100000001,
          "velocity": 0.6299212598425197,
          "duration": 0.543210066666667
        },
        {
          "name": "G4",
          "midi": 67,
          "time": 38.33334675000001,
          "velocity": 0.6299212598425197,
          "duration": 0.1728395666666671
        },
        {
          "name": "F4",
          "midi": 65,
          "time": 38.518532000000015,
          "velocity": 0.6299212598425197,
          "duration": 0.7283953166666635
        },
        {
          "name": "A4",
          "midi": 69,
          "time": 39.259273000000015,
          "velocity": 0.6299212598425197,
          "duration": 0.3580248166666635
        },
        {
          "name": "G4",
          "midi": 67,
          "time": 39.629643500000014,
          "velocity": 0.6299212598425197,
          "duration": 0.3580248166666635
        },
        {
          "name": "G4",
          "midi": 67,
          "time": 40.000014000000014,
          "velocity": 0.6299212598425197,
          "duration": 0.3580248166666635
        },
        {
          "name": "F4",
          "midi": 65,
          "time": 40.370384500000014,
          "velocity": 0.6299212598425197,
          "duration": 0.3580248166666635
        },
        {
          "name": "F4",
          "midi": 65,
          "time": 40.740755000000014,
          "velocity": 0.6299212598425197,
          "duration": 0.543210066666667
        },
        {
          "name": "C4",
          "midi": 60,
          "time": 41.29631075000002,
          "velocity": 0.6299212598425197,
          "duration": 0.1728395666666671
        },
        {
          "name": "F4",
          "midi": 65,
          "time": 41.48149600000002,
          "velocity": 0.6299212598425197,
          "duration": 0.7283953166666635
        },
        {
          "name": "E4",
          "midi": 64,
          "time": 42.22223700000002,
          "velocity": 0.6299212598425197,
          "duration": 0.3580248166666635
        },
        {
          "name": "F4",
          "midi": 65,
          "time": 42.59260750000002,
          "velocity": 0.6299212598425197,
          "duration": 0.3580248166666635
        },
        {
          "name": "G4",
          "midi": 67,
          "time": 42.96297800000002,
          "velocity": 0.6299212598425197,
          "duration": 0.7283953166666635
        },
        {
          "name": "F4",
          "midi": 65,
          "time": 43.70371900000002,
          "velocity": 0.6299212598425197,
          "duration": 0.3580248166666635
        },
        {
          "name": "G4",
          "midi": 67,
          "time": 44.07408950000002,
          "velocity": 0.6299212598425197,
          "duration": 0.3580248166666635
        },
        {
          "name": "A4",
          "midi": 69,
          "time": 44.44446000000002,
          "velocity": 0.6299212598425197,
          "duration": 0.7283953166666635
        },
        {
          "name": "C5",
          "midi": 72,
          "time": 45.18520100000002,
          "velocity": 0.6299212598425197,
          "duration": 0.3580248166666635
        },
        {
          "name": "D5",
          "midi": 74,
          "time": 45.55557150000002,
          "velocity": 0.6299212598425197,
          "duration": 0.3580248166666635
        },
        {
          "name": "E5",
          "midi": 76,
          "time": 45.92594200000002,
          "velocity": 0.6299212598425197,
          "duration": 0.7283953166666635
        },
        {
          "name": "F5",
          "midi": 77,
          "time": 46.66668300000002,
          "velocity": 0.6299212598425197,
          "duration": 0.3580248166666635
        },
        {
          "name": "D5",
          "midi": 74,
          "time": 47.03705350000002,
          "velocity": 0.6299212598425197,
          "duration": 0.3580248166666635
        },
        {
          "name": "C5",
          "midi": 72,
          "time": 47.40742400000002,
          "velocity": 0.6299212598425197,
          "duration": 0.3580248166666635
        },
        {
          "name": "F4",
          "midi": 65,
          "time": 47.77779450000002,
          "velocity": 0.6299212598425197,
          "duration": 0.3580248166666635
        },
        {
          "name": "D5",
          "midi": 74,
          "time": 48.14816500000002,
          "velocity": 0.6299212598425197,
          "duration": 0.3580248166666635
        },
        {
          "name": "C5",
          "midi": 72,
          "time": 48.51853550000002,
          "velocity": 0.6299212598425197,
          "duration": 0.3580248166666635
        },
        {
          "name": "F4",
          "midi": 65,
          "time": 48.88890600000002,
          "velocity": 0.6299212598425197,
          "duration": 0.3580248166666635
        },
        {
          "name": "D4",
          "midi": 62,
          "time": 49.25927650000002,
          "velocity": 0.6299212598425197,
          "duration": 0.3580248166666635
        },
        {
          "name": "F4",
          "midi": 65,
          "time": 49.62964700000002,
          "velocity": 0.6299212598425197,
          "duration": 0.3580248166666635
        },
        {
          "name": "E4",
          "midi": 64,
          "time": 50.00001750000002,
          "velocity": 0.6299212598425197,
          "duration": 0.3580248166666635
        },
        {
          "name": "F4",
          "midi": 65,
          "time": 50.37038800000002,
          "velocity": 0.6299212598425197,
          "duration": 1.0987658166666634
        },
        {
          "name": "D4",
          "midi": 62,
          "time": 51.48149950000002,
          "velocity": 0.6299212598425197,
          "duration": 0.7283953166666635
        },
        {
          "name": "C5",
          "midi": 72,
          "time": 52.22224050000002,
          "velocity": 0.6299212598425197,
          "duration": 0.3580248166666635
        },
        {
          "name": "F4",
          "midi": 65,
          "time": 52.59261100000002,
          "velocity": 0.6299212598425197,
          "duration": 0.11111114999999927
        },
        {
          "name": "G4",
          "midi": 67,
          "time": 52.716067833333355,
          "velocity": 0.6299212598425197,
          "duration": 0.11111114999999927
        },
        {
          "name": "F4",
          "midi": 65,
          "time": 52.83952466666669,
          "velocity": 0.6299212598425197,
          "duration": 0.11111114999999927
        },
        {
          "name": "E4",
          "midi": 64,
          "time": 52.962981500000026,
          "velocity": 0.6299212598425197,
          "duration": 0.1728395666666671
        },
        {
          "name": "F4",
          "midi": 65,
          "time": 53.14816675000003,
          "velocity": 0.6299212598425197,
          "duration": 0.1728395666666671
        },
        {
          "name": "D#5",
          "midi": 75,
          "time": 53.33335200000003,
          "velocity": 0.6299212598425197,
          "duration": 2.3950625666666667
        },
        {
          "name": "D5",
          "midi": 74,
          "time": 55.74076025000004,
          "velocity": 0.6299212598425197,
          "duration": 0.1728395666666671
        },
        {
          "name": "C5",
          "midi": 72,
          "time": 55.92594550000004,
          "velocity": 0.6299212598425197,
          "duration": 0.1728395666666671
        },
        {
          "name": "A#4",
          "midi": 70,
          "time": 56.111130750000044,
          "velocity": 0.6299212598425197,
          "duration": 0.1728395666666671
        },
        {
          "name": "C5",
          "midi": 72,
          "time": 56.29631600000005,
          "velocity": 0.6299212598425197,
          "duration": 1.4691363166666633
        },
        {
          "name": "F4",
          "midi": 65,
          "time": 58.51853900000005,
          "velocity": 0.6299212598425197,
          "duration": 0.11111114999999927
        },
        {
          "name": "G4",
          "midi": 67,
          "time": 58.64199583333338,
          "velocity": 0.6299212598425197,
          "duration": 0.11111114999999927
        },
        {
          "name": "F4",
          "midi": 65,
          "time": 58.76545266666672,
          "velocity": 0.6299212598425197,
          "duration": 0.11111114999999927
        },
        {
          "name": "E4",
          "midi": 64,
          "time": 58.888909500000054,
          "velocity": 0.6299212598425197,
          "duration": 0.1728395666666671
        },
        {
          "name": "F4",
          "midi": 65,
          "time": 59.07409475000006,
          "velocity": 0.6299212598425197,
          "duration": 0.1728395666666671
        },
        {
          "name": "D#5",
          "midi": 75,
          "time": 59.25928000000006,
          "velocity": 0.6299212598425197,
          "duration": 1.0987658166666634
        },
        {
          "name": "F5",
          "midi": 77,
          "time": 60.37039150000006,
          "velocity": 0.6299212598425197,
          "duration": 0.3580248166666635
        },
        {
          "name": "D#5",
          "midi": 75,
          "time": 60.74076200000006,
          "velocity": 0.6299212598425197,
          "duration": 0.3580248166666635
        },
        {
          "name": "D5",
          "midi": 74,
          "time": 61.11113250000006,
          "velocity": 0.6299212598425197,
          "duration": 0.3580248166666635
        },
        {
          "name": "C5",
          "midi": 72,
          "time": 61.48150300000006,
          "velocity": 0.6299212598425197,
          "duration": 0.3580248166666635
        },
        {
          "name": "A#4",
          "midi": 70,
          "time": 61.85187350000006,
          "velocity": 0.6299212598425197,
          "duration": 0.3580248166666635
        },
        {
          "name": "C5",
          "midi": 72,
          "time": 62.22224400000006,
          "velocity": 0.6299212598425197,
          "duration": 2.5802478166666702
        },
        {
          "name": "C#5",
          "midi": 73,
          "time": 64.81483750000007,
          "velocity": 0.6299212598425197,
          "duration": 0.35802481666667063
        },
        {
          "name": "C#5",
          "midi": 73,
          "time": 65.18520800000007,
          "velocity": 0.6299212598425197,
          "duration": 1.8395068166666704
        },
        {
          "name": "C5",
          "midi": 72,
          "time": 67.03706050000008,
          "velocity": 0.6299212598425197,
          "duration": 0.35802481666667063
        },
        {
          "name": "A#4",
          "midi": 70,
          "time": 67.40743100000009,
          "velocity": 0.6299212598425197,
          "duration": 0.35802481666667063
        },
        {
          "name": "G#4",
          "midi": 68,
          "time": 67.7778015000001,
          "velocity": 0.6299212598425197,
          "duration": 0.35802481666667063
        },
        {
          "name": "A#4",
          "midi": 70,
          "time": 68.1481720000001,
          "velocity": 0.6299212598425197,
          "duration": 2.209877316666663
        },
        {
          "name": "G#4",
          "midi": 68,
          "time": 70.3703950000001,
          "velocity": 0.6299212598425197,
          "duration": 0.23456798333333495
        },
        {
          "name": "A#4",
          "midi": 70,
          "time": 70.61730866666677,
          "velocity": 0.6299212598425197,
          "duration": 0.23456798333333495
        },
        {
          "name": "G#4",
          "midi": 68,
          "time": 70.86422233333344,
          "velocity": 0.6299212598425197,
          "duration": 0.23456798333333495
        },
        {
          "name": "G4",
          "midi": 67,
          "time": 71.11113600000012,
          "velocity": 0.6299212598425197,
          "duration": 0.35802481666667063
        },
        {
          "name": "G4",
          "midi": 67,
          "time": 71.48150650000012,
          "velocity": 0.6299212598425197,
          "duration": 0.35802481666667063
        },
        {
          "name": "G4",
          "midi": 67,
          "time": 71.85187700000013,
          "velocity": 0.6299212598425197,
          "duration": 0.35802481666667063
        },
        {
          "name": "G4",
          "midi": 67,
          "time": 72.22224750000014,
          "velocity": 0.6299212598425197,
          "duration": 0.35802481666667063
        },
        {
          "name": "G4",
          "midi": 67,
          "time": 72.59261800000014,
          "velocity": 0.6299212598425197,
          "duration": 0.7283953166666635
        },
        {
          "name": "G4",
          "midi": 67,
          "time": 73.33335900000014,
          "velocity": 0.6299212598425197,
          "duration": 0.35802481666667063
        },
        {
          "name": "G4",
          "midi": 67,
          "time": 73.70372950000015,
          "velocity": 0.6299212598425197,
          "duration": 0.35802481666667063
        },
        {
          "name": "G4",
          "midi": 67,
          "time": 74.07410000000016,
          "velocity": 0.6299212598425197,
          "duration": 1.4691363166666633
        },
        {
          "name": "G#4",
          "midi": 68,
          "time": 75.55558200000016,
          "velocity": 0.6299212598425197,
          "duration": 1.0987658166666705
        },
        {
          "name": "A4",
          "midi": 69,
          "time": 76.66669350000016,
          "velocity": 0.6299212598425197,
          "duration": 0.35802481666667063
        },
        {
          "name": "F4",
          "midi": 65,
          "time": 77.03706400000017,
          "velocity": 0.6299212598425197,
          "duration": 1.0987658166666705
        },
        {
          "name": "F5",
          "midi": 77,
          "time": 78.14817550000018,
          "velocity": 0.6299212598425197,
          "duration": 0.35802481666667063
        },
        {
          "name": "E5",
          "midi": 76,
          "time": 78.51854600000019,
          "velocity": 0.6299212598425197,
          "duration": 0.35802481666667063
        },
        {
          "name": "D5",
          "midi": 74,
          "time": 78.88891650000019,
          "velocity": 0.6299212598425197,
          "duration": 0.35802481666667063
        },
        {
          "name": "C5",
          "midi": 72,
          "time": 79.2592870000002,
          "velocity": 0.6299212598425197,
          "duration": 0.35802481666667063
        },
        {
          "name": "A#4",
          "midi": 70,
          "time": 79.6296575000002,
          "velocity": 0.6299212598425197,
          "duration": 0.35802481666667063
        },
        {
          "name": "A4",
          "midi": 69,
          "time": 80.00002800000021,
          "velocity": 0.6299212598425197,
          "duration": 0.35802481666667063
        },
        {
          "name": "A4",
          "midi": 69,
          "time": 80.37039850000022,
          "velocity": 0.6299212598425197,
          "duration": 0.35802481666667063
        },
        {
          "name": "A4",
          "midi": 69,
          "time": 80.74076900000023,
          "velocity": 0.6299212598425197,
          "duration": 1.4691363166666633
        },
        {
          "name": "A4",
          "midi": 69,
          "time": 82.22225100000023,
          "velocity": 0.6299212598425197,
          "duration": 0.35802481666667063
        },
        {
          "name": "C4",
          "midi": 60,
          "time": 82.59262150000023,
          "velocity": 0.6299212598425197,
          "duration": 0.35802481666667063
        },
        {
          "name": "F4",
          "midi": 65,
          "time": 82.96299200000024,
          "velocity": 0.6299212598425197,
          "duration": 1.0987658166666705
        },
        {
          "name": "C5",
          "midi": 72,
          "time": 84.07410350000025,
          "velocity": 0.6299212598425197,
          "duration": 0.03703704999999502
        },
        {
          "name": "C#5",
          "midi": 73,
          "time": 84.11731339166691,
          "velocity": 0.6299212598425197,
          "duration": 0.03703704999999502
        },
        {
          "name": "D5",
          "midi": 74,
          "time": 84.16669612500024,
          "velocity": 0.6299212598425197,
          "duration": 0.26543219166666177
        },
        {
          "name": "C5",
          "midi": 72,
          "time": 84.44447400000024,
          "velocity": 0.6299212598425197,
          "duration": 0.35802481666667063
        },
        {
          "name": "A#4",
          "midi": 70,
          "time": 84.81484450000025,
          "velocity": 0.6299212598425197,
          "duration": 0.35802481666667063
        },
        {
          "name": "A4",
          "midi": 69,
          "time": 85.18521500000026,
          "velocity": 0.6299212598425197,
          "duration": 0.4814816500000063
        },
        {
          "name": "A4",
          "midi": 69,
          "time": 85.6790423333336,
          "velocity": 0.6299212598425197,
          "duration": 0.11111114999999927
        },
        {
          "name": "G4",
          "midi": 67,
          "time": 85.80249916666693,
          "velocity": 0.6299212598425197,
          "duration": 0.11111114999999927
        },
        {
          "name": "G4",
          "midi": 67,
          "time": 85.92595600000027,
          "velocity": 0.6299212598425197,
          "duration": 0.35802481666667063
        },
        {
          "name": "F4",
          "midi": 65,
          "time": 86.29632650000028,
          "velocity": 0.6299212598425197,
          "duration": 0.35802481666667063
        },
        {
          "name": "F4",
          "midi": 65,
          "time": 86.66669700000028,
          "velocity": 0.6299212598425197,
          "duration": 0.5432100666666599
        },
        {
          "name": "G4",
          "midi": 67,
          "time": 87.22225275000028,
          "velocity": 0.6299212598425197,
          "duration": 0.1728395666666671
        },
        {
          "name": "A4",
          "midi": 69,
          "time": 87.40743800000028,
          "velocity": 0.6299212598425197,
          "duration": 0.23456798333333495
        },
        {
          "name": "F4",
          "midi": 65,
          "time": 87.65435166666695,
          "velocity": 0.6299212598425197,
          "duration": 0.23456798333333495
        },
        {
          "name": "G4",
          "midi": 67,
          "time": 87.90126533333363,
          "velocity": 0.6299212598425197,
          "duration": 0.23456798333333495
        },
        {
          "name": "F4",
          "midi": 65,
          "time": 88.1481790000003,
          "velocity": 0.6299212598425197,
          "duration": 0.5432100666666599
        },
        {
          "name": "C4",
          "midi": 60,
          "time": 88.7037347500003,
          "velocity": 0.6299212598425197,
          "duration": 0.1728395666666671
        },
        {
          "name": "F4",
          "midi": 65,
          "time": 88.8889200000003,
          "velocity": 0.6299212598425197,
          "duration": 0.7283953166666635
        },
        {
          "name": "E4",
          "midi": 64,
          "time": 89.6296610000003,
          "velocity": 0.6299212598425197,
          "duration": 0.35802481666667063
        },
        {
          "name": "F4",
          "midi": 65,
          "time": 90.0000315000003,
          "velocity": 0.6299212598425197,
          "duration": 0.35802481666667063
        },
        {
          "name": "G4",
          "midi": 67,
          "time": 90.37040200000031,
          "velocity": 0.6299212598425197,
          "duration": 0.7283953166666635
        },
        {
          "name": "F4",
          "midi": 65,
          "time": 91.11114300000031,
          "velocity": 0.6299212598425197,
          "duration": 0.35802481666667063
        },
        {
          "name": "G4",
          "midi": 67,
          "time": 91.48151350000032,
          "velocity": 0.6299212598425197,
          "duration": 0.35802481666667063
        },
        {
          "name": "A4",
          "midi": 69,
          "time": 91.85188400000033,
          "velocity": 0.6299212598425197,
          "duration": 0.7283953166666635
        },
        {
          "name": "C5",
          "midi": 72,
          "time": 92.59262500000033,
          "velocity": 0.6299212598425197,
          "duration": 0.35802481666667063
        },
        {
          "name": "D5",
          "midi": 74,
          "time": 92.96299550000033,
          "velocity": 0.6299212598425197,
          "duration": 0.35802481666667063
        },
        {
          "name": "E5",
          "midi": 76,
          "time": 93.33336600000034,
          "velocity": 0.6299212598425197,
          "duration": 0.7283953166666635
        },
        {
          "name": "F5",
          "midi": 77,
          "time": 94.07410700000034,
          "velocity": 0.6299212598425197,
          "duration": 0.5432100666666599
        },
        {
          "name": "D5",
          "midi": 74,
          "time": 94.62966275000034,
          "velocity": 0.6299212598425197,
          "duration": 0.1728395666666671
        },
        {
          "name": "C5",
          "midi": 72,
          "time": 94.81484800000034,
          "velocity": 0.6299212598425197,
          "duration": 0.7283953166666635
        },
        {
          "name": "F4",
          "midi": 65,
          "time": 95.55558900000034,
          "velocity": 0.6299212598425197,
          "duration": 1.4691363166666633
        },
        {
          "name": "G4",
          "midi": 67,
          "time": 97.22225625000034,
          "velocity": 0.6299212598425197,
          "duration": 0.5432100666666599
        },
        {
          "name": "F4",
          "midi": 65,
          "time": 97.77781200000034,
          "velocity": 0.6299212598425197,
          "duration": 0.7283953166666635
        },
        {
          "name": "C5",
          "midi": 72,
          "time": 98.51855300000034,
          "velocity": 0.6299212598425197,
          "duration": 0.7283953166666635
        },
        {
          "name": "C6",
          "midi": 84,
          "time": 99.25929400000034,
          "velocity": 0.6299212598425197,
          "duration": 0.7283953166666635
        },
        {
          "name": "F4",
          "midi": 65,
          "time": 100.00003500000034,
          "velocity": 0.6299212598425197,
          "duration": 0.1728395666666671
        },
        {
          "name": "G4",
          "midi": 67,
          "time": 100.18522025000034,
          "velocity": 0.6299212598425197,
          "duration": 0.08024694166667246
        },
        {
          "name": "F4",
          "midi": 65,
          "time": 100.27781287500035,
          "velocity": 0.6299212598425197,
          "duration": 0.08024694166667246
        },
        {
          "name": "E4",
          "midi": 64,
          "time": 100.37040550000036,
          "velocity": 0.6299212598425197,
          "duration": 0.1728395666666671
        },
        {
          "name": "F4",
          "midi": 65,
          "time": 100.55559075000036,
          "velocity": 0.6299212598425197,
          "duration": 0.1728395666666671
        },
        {
          "name": "D#5",
          "midi": 75,
          "time": 100.74077600000037,
          "velocity": 0.6299212598425197,
          "duration": 0.5432100666666599
        },
        {
          "name": "F5",
          "midi": 77,
          "time": 101.29633175000036,
          "velocity": 0.6299212598425197,
          "duration": 0.1728395666666671
        },
        {
          "name": "D5",
          "midi": 74,
          "time": 101.48151700000037,
          "velocity": 0.6299212598425197,
          "duration": 0.1728395666666671
        },
        {
          "name": "D#5",
          "midi": 75,
          "time": 101.66670225000037,
          "velocity": 0.6299212598425197,
          "duration": 0.1728395666666671
        },
        {
          "name": "C5",
          "midi": 72,
          "time": 101.85188750000037,
          "velocity": 0.6299212598425197,
          "duration": 0.1728395666666671
        },
        {
          "name": "C#5",
          "midi": 73,
          "time": 102.03707275000038,
          "velocity": 0.6299212598425197,
          "duration": 0.03703704999999502
        },
        {
          "name": "D5",
          "midi": 74,
          "time": 102.08028264166704,
          "velocity": 0.6299212598425197,
          "duration": 0.12962967500000389
        },
        {
          "name": "A4",
          "midi": 69,
          "time": 102.22225800000038,
          "velocity": 0.6299212598425197,
          "duration": 0.11111114999999927
        },
        {
          "name": "C5",
          "midi": 72,
          "time": 102.34571483333372,
          "velocity": 0.6299212598425197,
          "duration": 0.11111114999999927
        },
        {
          "name": "F4",
          "midi": 65,
          "time": 102.46917166666705,
          "velocity": 0.6299212598425197,
          "duration": 0.23456798333333495
        },
        {
          "name": "F4",
          "midi": 65,
          "time": 102.71608533333372,
          "velocity": 0.6299212598425197,
          "duration": 0.9444447749999938
        },
        {
          "name": "C4",
          "midi": 60,
          "time": 103.70374000000038,
          "velocity": 0.6299212598425197,
          "duration": 1.0987658166666705
        },
        {
          "name": "A#4",
          "midi": 70,
          "time": 104.81485150000039,
          "velocity": 0.6299212598425197,
          "duration": 0.1728395666666671
        },
        {
          "name": "B4",
          "midi": 71,
          "time": 105.00003675000039,
          "velocity": 0.6299212598425197,
          "duration": 0.1728395666666671
        },
        {
          "name": "D#5",
          "midi": 75,
          "time": 105.1852220000004,
          "velocity": 0.6299212598425197,
          "duration": 0.11111114999999927
        },
        {
          "name": "F#5",
          "midi": 78,
          "time": 105.30867883333373,
          "velocity": 0.6299212598425197,
          "duration": 0.11111114999999927
        },
        {
          "name": "A#5",
          "midi": 82,
          "time": 105.43213566666707,
          "velocity": 0.6299212598425197,
          "duration": 0.11111114999999927
        },
        {
          "name": "G#5",
          "midi": 80,
          "time": 105.5555925000004,
          "velocity": 0.6299212598425197,
          "duration": 0.11111114999999927
        },
        {
          "name": "D#5",
          "midi": 75,
          "time": 105.67904933333374,
          "velocity": 0.6299212598425197,
          "duration": 0.11111114999999927
        },
        {
          "name": "B4",
          "midi": 71,
          "time": 105.80250616666707,
          "velocity": 0.6299212598425197,
          "duration": 0.11111114999999927
        },
        {
          "name": "A#4",
          "midi": 70,
          "time": 105.92596300000041,
          "velocity": 0.6299212598425197,
          "duration": 0.11111114999999927
        },
        {
          "name": "G#4",
          "midi": 68,
          "time": 106.04941983333374,
          "velocity": 0.6299212598425197,
          "duration": 0.11111114999999927
        },
        {
          "name": "G4",
          "midi": 67,
          "time": 106.17287666666708,
          "velocity": 0.6299212598425197,
          "duration": 0.35802481666667063
        },
        {
          "name": "F4",
          "midi": 65,
          "time": 106.54324716666709,
          "velocity": 0.6299212598425197,
          "duration": 0.04938273333333143
        },
        {
          "name": "G4",
          "midi": 67,
          "time": 106.60497558333375,
          "velocity": 0.6299212598425197,
          "duration": 0.04938273333333143
        },
        {
          "name": "F#4",
          "midi": 66,
          "time": 106.66670400000042,
          "velocity": 0.6299212598425197,
          "duration": 0.018518525000004615
        },
        {
          "name": "G4",
          "midi": 67,
          "time": 106.69756820833376,
          "velocity": 0.6299212598425197,
          "duration": 0.08024694166667246
        },
        {
          "name": "F4",
          "midi": 65,
          "time": 106.79016083333377,
          "velocity": 0.6299212598425197,
          "duration": 0.11111114999999927
        },
        {
          "name": "D#4",
          "midi": 63,
          "time": 106.91361766666711,
          "velocity": 0.6299212598425197,
          "duration": 1.2222226500000062
        },
        {
          "name": "D4",
          "midi": 62,
          "time": 108.14818600000045,
          "velocity": 0.6299212598425197,
          "duration": 0.7283953166666635
        },
        {
          "name": "C#4",
          "midi": 61,
          "time": 108.88892700000045,
          "velocity": 0.6299212598425197,
          "duration": 0.5432100666666599
        },
        {
          "name": "D4",
          "midi": 62,
          "time": 109.44448275000045,
          "velocity": 0.6299212598425197,
          "duration": 0.08024694166667246
        },
        {
          "name": "F4",
          "midi": 65,
          "time": 109.53707537500046,
          "velocity": 0.6299212598425197,
          "duration": 0.08024694166667246
        },
        {
          "name": "A4",
          "midi": 69,
          "time": 109.62966800000046,
          "velocity": 0.6299212598425197,
          "duration": 0.11111114999999927
        },
        {
          "name": "A4",
          "midi": 69,
          "time": 109.7531248333338,
          "velocity": 0.6299212598425197,
          "duration": 0.11111114999999927
        },
        {
          "name": "F4",
          "midi": 65,
          "time": 109.87658166666714,
          "velocity": 0.6299212598425197,
          "duration": 0.11111114999999927
        },
        {
          "name": "F4",
          "midi": 65,
          "time": 110.00003850000047,
          "velocity": 0.6299212598425197,
          "duration": 0.11111114999999927
        },
        {
          "name": "D4",
          "midi": 62,
          "time": 110.1234953333338,
          "velocity": 0.6299212598425197,
          "duration": 0.11111114999999927
        },
        {
          "name": "D4",
          "midi": 62,
          "time": 110.24695216666714,
          "velocity": 0.6299212598425197,
          "duration": 0.11111114999999927
        },
        {
          "name": "A3",
          "midi": 57,
          "time": 110.37040900000048,
          "velocity": 0.6299212598425197,
          "duration": 0.1728395666666671
        },
        {
          "name": "A3",
          "midi": 57,
          "time": 110.55559425000048,
          "velocity": 0.6299212598425197,
          "duration": 0.5432100666666599
        },
        {
          "name": "F4",
          "midi": 65,
          "time": 111.11115000000048,
          "velocity": 0.6299212598425197,
          "duration": 0.7283953166666635
        },
        {
          "name": "C4",
          "midi": 60,
          "time": 111.97534783333381,
          "velocity": 0.6299212598425197,
          "duration": 0.04938273333333143
        },
        {
          "name": "C#4",
          "midi": 61,
          "time": 112.03707625000048,
          "velocity": 0.6299212598425197,
          "duration": 0.04938273333333143
        },
        {
          "name": "C4",
          "midi": 60,
          "time": 112.09880466666715,
          "velocity": 0.6299212598425197,
          "duration": 0.04938273333333143
        },
        {
          "name": "A3",
          "midi": 57,
          "time": 112.16053308333382,
          "velocity": 0.6299212598425197,
          "duration": 0.04938273333333143
        },
        {
          "name": "A#3",
          "midi": 58,
          "time": 112.22226150000049,
          "velocity": 0.6299212598425197,
          "duration": 0.04938273333333143
        },
        {
          "name": "C4",
          "midi": 60,
          "time": 112.28398991666715,
          "velocity": 0.6299212598425197,
          "duration": 0.04938273333333143
        },
        {
          "name": "C#4",
          "midi": 61,
          "time": 112.34571833333382,
          "velocity": 0.6299212598425197,
          "duration": 0.04938273333333143
        },
        {
          "name": "D#4",
          "midi": 63,
          "time": 112.40744675000049,
          "velocity": 0.6299212598425197,
          "duration": 0.04938273333333143
        },
        {
          "name": "F4",
          "midi": 65,
          "time": 112.46917516666716,
          "velocity": 0.6299212598425197,
          "duration": 0.04938273333333143
        },
        {
          "name": "G4",
          "midi": 67,
          "time": 112.53090358333382,
          "velocity": 0.6299212598425197,
          "duration": 0.04938273333333143
        },
        {
          "name": "G#4",
          "midi": 68,
          "time": 112.59263200000049,
          "velocity": 0.6299212598425197,
          "duration": 0.08024694166667246
        },
        {
          "name": "A#4",
          "midi": 70,
          "time": 112.6852246250005,
          "velocity": 0.6299212598425197,
          "duration": 0.08024694166667246
        },
        {
          "name": "F#4",
          "midi": 66,
          "time": 112.77781725000051,
          "velocity": 0.6299212598425197,
          "duration": 0.08024694166667246
        },
        {
          "name": "G4",
          "midi": 67,
          "time": 112.87040987500052,
          "velocity": 0.6299212598425197,
          "duration": 0.08024694166667246
        },
        {
          "name": "A#4",
          "midi": 70,
          "time": 112.96300250000053,
          "velocity": 0.6299212598425197,
          "duration": 0.04938273333333143
        },
        {
          "name": "D#5",
          "midi": 75,
          "time": 113.0247309166672,
          "velocity": 0.6299212598425197,
          "duration": 0.04938273333333143
        },
        {
          "name": "G#5",
          "midi": 80,
          "time": 113.08645933333386,
          "velocity": 0.6299212598425197,
          "duration": 0.04938273333333143
        },
        {
          "name": "G5",
          "midi": 79,
          "time": 113.14818775000053,
          "velocity": 0.6299212598425197,
          "duration": 0.08024694166667246
        },
        {
          "name": "D#5",
          "midi": 75,
          "time": 113.24078037500054,
          "velocity": 0.6299212598425197,
          "duration": 0.08024694166667246
        },
        {
          "name": "A#4",
          "midi": 70,
          "time": 113.33337300000055,
          "velocity": 0.6299212598425197,
          "duration": 0.11111114999999927
        },
        {
          "name": "G4",
          "midi": 67,
          "time": 113.45682983333388,
          "velocity": 0.6299212598425197,
          "duration": 0.11111114999999927
        },
        {
          "name": "D#4",
          "midi": 63,
          "time": 113.58028666666722,
          "velocity": 0.6299212598425197,
          "duration": 0.11111114999999927
        },
        {
          "name": "C#4",
          "midi": 61,
          "time": 113.70374350000056,
          "velocity": 0.6299212598425197,
          "duration": 0.1728395666666671
        },
        {
          "name": "F4",
          "midi": 65,
          "time": 113.88892875000056,
          "velocity": 0.6299212598425197,
          "duration": 0.04938273333333143
        },
        {
          "name": "G#4",
          "midi": 68,
          "time": 113.95065716666723,
          "velocity": 0.6299212598425197,
          "duration": 0.04938273333333143
        },
        {
          "name": "C5",
          "midi": 72,
          "time": 114.0123855833339,
          "velocity": 0.6299212598425197,
          "duration": 0.04938273333333143
        },
        {
          "name": "A#4",
          "midi": 70,
          "time": 114.07411400000056,
          "velocity": 0.6299212598425197,
          "duration": 0.35802481666667063
        },
        {
          "name": "F#4",
          "midi": 66,
          "time": 114.44448450000057,
          "velocity": 0.6299212598425197,
          "duration": 0.03703704999999502
        },
        {
          "name": "G4",
          "midi": 67,
          "time": 114.48769439166723,
          "velocity": 0.6299212598425197,
          "duration": 0.40740755000000206
        },
        {
          "name": "C4",
          "midi": 60,
          "time": 114.90744762500057,
          "velocity": 0.6299212598425197,
          "duration": 0.08024694166667246
        },
        {
          "name": "D#4",
          "midi": 63,
          "time": 115.00004025000058,
          "velocity": 0.6299212598425197,
          "duration": 0.04938273333333143
        },
        {
          "name": "F4",
          "midi": 65,
          "time": 115.06176866666725,
          "velocity": 0.6299212598425197,
          "duration": 0.04938273333333143
        },
        {
          "name": "G4",
          "midi": 67,
          "time": 115.12349708333392,
          "velocity": 0.6299212598425197,
          "duration": 0.04938273333333143
        },
        {
          "name": "C4",
          "midi": 60,
          "time": 115.18522550000058,
          "velocity": 0.6299212598425197,
          "duration": 0.08024694166667246
        },
        {
          "name": "F4",
          "midi": 65,
          "time": 115.27781812500059,
          "velocity": 0.6299212598425197,
          "duration": 0.08024694166667246
        },
        {
          "name": "C4",
          "midi": 60,
          "time": 115.3704107500006,
          "velocity": 0.6299212598425197,
          "duration": 0.08024694166667246
        },
        {
          "name": "F4",
          "midi": 65,
          "time": 115.46300337500061,
          "velocity": 0.6299212598425197,
          "duration": 0.08024694166667246
        },
        {
          "name": "D#4",
          "midi": 63,
          "time": 115.55559600000062,
          "velocity": 0.6299212598425197,
          "duration": 0.1728395666666671
        },
        {
          "name": "D#4",
          "midi": 63,
          "time": 115.74078125000062,
          "velocity": 0.6299212598425197,
          "duration": 0.7901237333333313
        },
        {
          "name": "F4",
          "midi": 65,
          "time": 116.54325066666729,
          "velocity": 0.6299212598425197,
          "duration": 0.23456798333333495
        },
        {
          "name": "D#4",
          "midi": 63,
          "time": 116.79016433333396,
          "velocity": 0.6299212598425197,
          "duration": 0.23456798333333495
        },
        {
          "name": "G4",
          "midi": 67,
          "time": 117.03707800000063,
          "velocity": 0.6299212598425197,
          "duration": 0.5432100666666599
        },
        {
          "name": "D#4",
          "midi": 63,
          "time": 117.59263375000063,
          "velocity": 0.6299212598425197,
          "duration": 0.1728395666666671
        },
        {
          "name": "F4",
          "midi": 65,
          "time": 117.77781900000063,
          "velocity": 0.6299212598425197,
          "duration": 0.1728395666666671
        },
        {
          "name": "G4",
          "midi": 67,
          "time": 117.96300425000064,
          "velocity": 0.6299212598425197,
          "duration": 0.1728395666666671
        },
        {
          "name": "G#4",
          "midi": 68,
          "time": 118.14818950000064,
          "velocity": 0.6299212598425197,
          "duration": 0.35802481666667063
        },
        {
          "name": "G4",
          "midi": 67,
          "time": 118.51856000000065,
          "velocity": 0.6299212598425197,
          "duration": 0.5432100666666599
        },
        {
          "name": "A#4",
          "midi": 70,
          "time": 119.07411575000064,
          "velocity": 0.6299212598425197,
          "duration": 0.5432100666666599
        },
        {
          "name": "G4",
          "midi": 67,
          "time": 119.62967150000064,
          "velocity": 0.6299212598425197,
          "duration": 0.35802481666667063
        },
        {
          "name": "G5",
          "midi": 79,
          "time": 120.00004200000065,
          "velocity": 0.6299212598425197,
          "duration": 0.35802481666667063
        },
        {
          "name": "G4",
          "midi": 67,
          "time": 120.37041250000065,
          "velocity": 0.6299212598425197,
          "duration": 0.35802481666667063
        },
        {
          "name": "G4",
          "midi": 67,
          "time": 120.74078300000066,
          "velocity": 0.6299212598425197,
          "duration": 0.7283953166666635
        },
        {
          "name": "G4",
          "midi": 67,
          "time": 121.48152400000066,
          "velocity": 0.6299212598425197,
          "duration": 2.950618316666663
        },
        {
          "name": "C4",
          "midi": 60,
          "time": 125.18522900000066,
          "velocity": 0.6299212598425197,
          "duration": 0.1728395666666671
        },
        {
          "name": "F4",
          "midi": 65,
          "time": 125.37041425000066,
          "velocity": 0.6299212598425197,
          "duration": 0.1728395666666671
        },
        {
          "name": "F5",
          "midi": 77,
          "time": 125.55559950000067,
          "velocity": 0.6299212598425197,
          "duration": 0.1728395666666671
        },
        {
          "name": "E5",
          "midi": 76,
          "time": 125.74078475000067,
          "velocity": 0.6299212598425197,
          "duration": 1.0987658166666705
        },
        {
          "name": "D5",
          "midi": 74,
          "time": 126.85189625000068,
          "velocity": 0.6299212598425197,
          "duration": 0.1728395666666671
        },
        {
          "name": "C5",
          "midi": 72,
          "time": 127.03708150000068,
          "velocity": 0.6299212598425197,
          "duration": 0.1728395666666671
        },
        {
          "name": "A#4",
          "midi": 70,
          "time": 127.22226675000068,
          "velocity": 0.6299212598425197,
          "duration": 0.1728395666666671
        },
        {
          "name": "A4",
          "midi": 69,
          "time": 127.40745200000069,
          "velocity": 0.6299212598425197,
          "duration": 2.2098773166666774
        },
        {
          "name": "A4",
          "midi": 69,
          "time": 129.8148602500007,
          "velocity": 0.6299212598425197,
          "duration": 0.5432100666666599
        },
        {
          "name": "G4",
          "midi": 67,
          "time": 130.3704160000007,
          "velocity": 0.6299212598425197,
          "duration": 0.5432100666666599
        },
        {
          "name": "C4",
          "midi": 60,
          "time": 130.92597175000068,
          "velocity": 0.6299212598425197,
          "duration": 0.1728395666666529
        },
        {
          "name": "F4",
          "midi": 65,
          "time": 131.11115700000067,
          "velocity": 0.6299212598425197,
          "duration": 0.23456798333333495
        },
        {
          "name": "C5",
          "midi": 72,
          "time": 131.35807066666734,
          "velocity": 0.6299212598425197,
          "duration": 0.018518524999990404
        },
        {
          "name": "C#5",
          "midi": 73,
          "time": 131.38893487500067,
          "velocity": 0.6299212598425197,
          "duration": 0.018518524999990404
        },
        {
          "name": "D5",
          "midi": 74,
          "time": 131.419799083334,
          "velocity": 0.6299212598425197,
          "duration": 0.1728395666666529
        },
        {
          "name": "C5",
          "midi": 72,
          "time": 131.604984333334,
          "velocity": 0.6299212598425197,
          "duration": 0.23456798333333495
        },
        {
          "name": "A4",
          "midi": 69,
          "time": 131.85189800000066,
          "velocity": 0.6299212598425197,
          "duration": 0.913580566666667
        },
        {
          "name": "E5",
          "midi": 76,
          "time": 132.77782425000066,
          "velocity": 0.6299212598425197,
          "duration": 0.1728395666666529
        },
        {
          "name": "D5",
          "midi": 74,
          "time": 132.96300950000065,
          "velocity": 0.6299212598425197,
          "duration": 0.08024694166667246
        },
        {
          "name": "C5",
          "midi": 72,
          "time": 133.05560212500066,
          "velocity": 0.6299212598425197,
          "duration": 0.08024694166667246
        },
        {
          "name": "A4",
          "midi": 69,
          "time": 133.14819475000067,
          "velocity": 0.6299212598425197,
          "duration": 0.08024694166667246
        },
        {
          "name": "F4",
          "midi": 65,
          "time": 133.24078737500068,
          "velocity": 0.6299212598425197,
          "duration": 0.08024694166667246
        },
        {
          "name": "G#4",
          "midi": 68,
          "time": 133.3333800000007,
          "velocity": 0.6299212598425197,
          "duration": 0.03703705000000923
        },
        {
          "name": "A4",
          "midi": 69,
          "time": 133.37658989166735,
          "velocity": 0.6299212598425197,
          "duration": 0.12962967499998967
        },
        {
          "name": "D4",
          "midi": 62,
          "time": 133.51856525000068,
          "velocity": 0.6299212598425197,
          "duration": 0.1728395666666529
        },
        {
          "name": "G4",
          "midi": 67,
          "time": 133.70375050000067,
          "velocity": 0.6299212598425197,
          "duration": 0.1728395666666529
        },
        {
          "name": "F4",
          "midi": 65,
          "time": 133.88893575000066,
          "velocity": 0.6299212598425197,
          "duration": 0.1728395666666529
        },
        {
          "name": "F4",
          "midi": 65,
          "time": 134.07412100000064,
          "velocity": 0.6299212598425197,
          "duration": 0.5432100666666599
        },
        {
          "name": "A4",
          "midi": 69,
          "time": 134.62967675000064,
          "velocity": 0.6299212598425197,
          "duration": 0.1728395666666529
        },
        {
          "name": "G4",
          "midi": 67,
          "time": 134.81486200000063,
          "velocity": 0.6299212598425197,
          "duration": 0.23456798333333495
        },
        {
          "name": "F4",
          "midi": 65,
          "time": 135.0617756666673,
          "velocity": 0.6299212598425197,
          "duration": 0.4814816500000063
        },
        {
          "name": "F4",
          "midi": 65,
          "time": 135.55560300000064,
          "velocity": 0.6299212598425197,
          "duration": 1.283951066666674
        },
        {
          "name": "C4",
          "midi": 60,
          "time": 136.85189975000065,
          "velocity": 0.6299212598425197,
          "duration": 0.1728395666666529
        },
        {
          "name": "F4",
          "midi": 65,
          "time": 137.03708500000064,
          "velocity": 0.6299212598425197,
          "duration": 0.23456798333333495
        },
        {
          "name": "E4",
          "midi": 64,
          "time": 137.28399866666732,
          "velocity": 0.6299212598425197,
          "duration": 0.23456798333333495
        },
        {
          "name": "F4",
          "midi": 65,
          "time": 137.530912333334,
          "velocity": 0.6299212598425197,
          "duration": 0.23456798333333495
        },
        {
          "name": "G4",
          "midi": 67,
          "time": 137.77782600000066,
          "velocity": 0.6299212598425197,
          "duration": 0.9753089833333206
        },
        {
          "name": "F4",
          "midi": 65,
          "time": 138.76548066666732,
          "velocity": 0.6299212598425197,
          "duration": 0.23456798333333495
        },
        {
          "name": "G4",
          "midi": 67,
          "time": 139.012394333334,
          "velocity": 0.6299212598425197,
          "duration": 0.23456798333333495
        },
        {
          "name": "A4",
          "midi": 69,
          "time": 139.25930800000066,
          "velocity": 0.6299212598425197,
          "duration": 0.4814816500000063
        },
        {
          "name": "C5",
          "midi": 72,
          "time": 139.753135333334,
          "velocity": 0.6299212598425197,
          "duration": 0.4814816500000063
        },
        {
          "name": "D5",
          "midi": 74,
          "time": 140.24696266666734,
          "velocity": 0.6299212598425197,
          "duration": 0.4814816500000063
        },
        {
          "name": "D#5",
          "midi": 75,
          "time": 140.7407900000007,
          "velocity": 0.6299212598425197,
          "duration": 0.03703705000000923
        },
        {
          "name": "E5",
          "midi": 76,
          "time": 140.78399989166735,
          "velocity": 0.6299212598425197,
          "duration": 0.9320990916666574
        },
        {
          "name": "F5",
          "midi": 77,
          "time": 141.72844466666734,
          "velocity": 0.6299212598425197,
          "duration": 0.23456798333333495
        },
        {
          "name": "C5",
          "midi": 72,
          "time": 141.97535833333401,
          "velocity": 0.6299212598425197,
          "duration": 0.018518524999990404
        },
        {
          "name": "D5",
          "midi": 74,
          "time": 142.00622254166734,
          "velocity": 0.6299212598425197,
          "duration": 0.20370377500000814
        },
        {
          "name": "C5",
          "midi": 72,
          "time": 142.2222720000007,
          "velocity": 0.6299212598425197,
          "duration": 0.1728395666666529
        },
        {
          "name": "F4",
          "midi": 65,
          "time": 142.40745725000068,
          "velocity": 0.6299212598425197,
          "duration": 1.5308647333333454
        },
        {
          "name": "A4",
          "midi": 69,
          "time": 143.95066766666736,
          "velocity": 0.6299212598425197,
          "duration": 0.4814816500000063
        },
        {
          "name": "G4",
          "midi": 67,
          "time": 144.4444950000007,
          "velocity": 0.6299212598425197,
          "duration": 0.23456798333333495
        },
        {
          "name": "D#5",
          "midi": 75,
          "time": 144.69140866666737,
          "velocity": 0.6299212598425197,
          "duration": 0.04938273333334564
        },
        {
          "name": "E5",
          "midi": 76,
          "time": 144.75313708333405,
          "velocity": 0.6299212598425197,
          "duration": 0.1728395666666529
        },
        {
          "name": "D5",
          "midi": 74,
          "time": 144.93832233333404,
          "velocity": 0.6299212598425197,
          "duration": 0.23456798333333495
        },
        {
          "name": "C5",
          "midi": 72,
          "time": 145.1852360000007,
          "velocity": 0.6299212598425197,
          "duration": 0.35802481666667063
        },
        {
          "name": "F4",
          "midi": 65,
          "time": 145.55560650000072,
          "velocity": 0.6299212598425197,
          "duration": 1.8395068166666704
        },
        {
          "name": "E5",
          "midi": 76,
          "time": 147.40745900000073,
          "velocity": 0.6299212598425197,
          "duration": 0.35802481666667063
        },
        {
          "name": "D5",
          "midi": 74,
          "time": 147.77782950000073,
          "velocity": 0.6299212598425197,
          "duration": 0.35802481666667063
        },
        {
          "name": "A4",
          "midi": 69,
          "time": 148.14820000000074,
          "velocity": 0.6299212598425197,
          "duration": 0.7283953166666777
        },
        {
          "name": "C5",
          "midi": 72,
          "time": 148.88894100000076,
          "velocity": 0.6299212598425197,
          "duration": 0.35802481666667063
        },
        {
          "name": "A#3",
          "midi": 58,
          "time": 149.25931150000076,
          "velocity": 0.6299212598425197,
          "duration": 0.35802481666667063
        },
        {
          "name": "F4",
          "midi": 65,
          "time": 149.62968200000077,
          "velocity": 0.6299212598425197,
          "duration": 0.35802481666667063
        },
        {
          "name": "G4",
          "midi": 67,
          "time": 150.00005250000078,
          "velocity": 0.6299212598425197,
          "duration": 0.35802481666667063
        },
        {
          "name": "G4",
          "midi": 67,
          "time": 150.37042300000078,
          "velocity": 0.6299212598425197,
          "duration": 0.7283953166666777
        },
        {
          "name": "F4",
          "midi": 65,
          "time": 151.1111640000008,
          "velocity": 0.6299212598425197,
          "duration": 0.35802481666667063
        },
        {
          "name": "E4",
          "midi": 64,
          "time": 151.4815345000008,
          "velocity": 0.6299212598425197,
          "duration": 0.35802481666667063
        },
        {
          "name": "F4",
          "midi": 65,
          "time": 151.8519050000008,
          "velocity": 0.6299212598425197,
          "duration": 0.35802481666667063
        },
        {
          "name": "G4",
          "midi": 67,
          "time": 152.22227550000082,
          "velocity": 0.6299212598425197,
          "duration": 0.35802481666667063
        },
        {
          "name": "A4",
          "midi": 69,
          "time": 152.59264600000083,
          "velocity": 0.6299212598425197,
          "duration": 0.35802481666667063
        },
        {
          "name": "G4",
          "midi": 67,
          "time": 152.96301650000083,
          "velocity": 0.6299212598425197,
          "duration": 0.35802481666667063
        },
        {
          "name": "F4",
          "midi": 65,
          "time": 153.33338700000084,
          "velocity": 0.6299212598425197,
          "duration": 0.35802481666667063
        },
        {
          "name": "A4",
          "midi": 69,
          "time": 153.70375750000085,
          "velocity": 0.6299212598425197,
          "duration": 0.35802481666667063
        },
        {
          "name": "G4",
          "midi": 67,
          "time": 154.07412800000085,
          "velocity": 0.6299212598425197,
          "duration": 0.35802481666667063
        },
        {
          "name": "F4",
          "midi": 65,
          "time": 154.44449850000086,
          "velocity": 0.6299212598425197,
          "duration": 0.35802481666667063
        },
        {
          "name": "F4",
          "midi": 65,
          "time": 154.81486900000087,
          "velocity": 0.6299212598425197,
          "duration": 0.35802481666667063
        },
        {
          "name": "G4",
          "midi": 67,
          "time": 155.18523950000088,
          "velocity": 0.6299212598425197,
          "duration": 0.35802481666667063
        },
        {
          "name": "A4",
          "midi": 69,
          "time": 155.55561000000088,
          "velocity": 0.6299212598425197,
          "duration": 0.35802481666667063
        },
        {
          "name": "G4",
          "midi": 67,
          "time": 155.9259805000009,
          "velocity": 0.6299212598425197,
          "duration": 0.35802481666667063
        },
        {
          "name": "F4",
          "midi": 65,
          "time": 156.2963510000009,
          "velocity": 0.6299212598425197,
          "duration": 0.35802481666667063
        },
        {
          "name": "E4",
          "midi": 64,
          "time": 156.6667215000009,
          "velocity": 0.6299212598425197,
          "duration": 0.35802481666667063
        },
        {
          "name": "F4",
          "midi": 65,
          "time": 157.0370920000009,
          "velocity": 0.6299212598425197,
          "duration": 0.35802481666667063
        },
        {
          "name": "D4",
          "midi": 62,
          "time": 157.40746250000092,
          "velocity": 0.6299212598425197,
          "duration": 0.35802481666667063
        },
        {
          "name": "D4",
          "midi": 62,
          "time": 157.77783300000092,
          "velocity": 0.6299212598425197,
          "duration": 0.35802481666667063
        },
        {
          "name": "F4",
          "midi": 65,
          "time": 158.14820350000093,
          "velocity": 0.6299212598425197,
          "duration": 0.35802481666667063
        },
        {
          "name": "F4",
          "midi": 65,
          "time": 158.51857400000094,
          "velocity": 0.6299212598425197,
          "duration": 0.35802481666667063
        },
        {
          "name": "A4",
          "midi": 69,
          "time": 158.88894450000095,
          "velocity": 0.6299212598425197,
          "duration": 0.35802481666667063
        },
        {
          "name": "G4",
          "midi": 67,
          "time": 159.25931500000095,
          "velocity": 0.6299212598425197,
          "duration": 0.35802481666667063
        },
        {
          "name": "F4",
          "midi": 65,
          "time": 159.62968550000096,
          "velocity": 0.6299212598425197,
          "duration": 0.35802481666667063
        },
        {
          "name": "G4",
          "midi": 67,
          "time": 160.27783387500097,
          "velocity": 0.6299212598425197,
          "duration": 2.580247816666656
        }
      ],
      "controlChanges": {
        "7": [
          {
            "number": 7,
            "time": 0,
            "value": 0.7874015748031497
          }
        ],
        "10": [
          {
            "number": 10,
            "time": 0,
            "value": 0.5039370078740157
          }
        ],
        "64": [
          {
            "number": 64,
            "time": 160.00005600000097,
            "value": 1
          },
          {
            "number": 64,
            "time": 162.96302000000097,
            "value": 0
          }
        ],
        "91": [
          {
            "number": 91,
            "time": 0.740741,
            "value": 0.6299212598425197
          },
          {
            "number": 91,
            "time": 162.96302000000097,
            "value": 0
          }
        ],
        "93": [
          {
            "number": 93,
            "time": 0.740741,
            "value": 0.7874015748031497
          },
          {
            "number": 93,
            "time": 162.96302000000097,
            "value": 0
          }
        ]
      },
      "id": 1,
      "name": "Rhodes Piano 1",
      "instrumentNumber": 4,
      "instrument": "electric piano 1",
      "instrumentFamily": "piano",
      "channelNumber": 0,
      "isPercussion": false
    },
    {
      "startTime": 3.14814925,
      "duration": 162.9506743166668,
      "length": 84,
      "notes": [
        {
          "name": "A#3",
          "midi": 58,
          "time": 3.14814925,
          "velocity": 0.6299212598425197,
          "duration": 0.7283953166666666
        },
        {
          "name": "A#4",
          "midi": 70,
          "time": 3.8888902499999998,
          "velocity": 0.6299212598425197,
          "duration": 0.7283953166666666
        },
        {
          "name": "A#5",
          "midi": 82,
          "time": 4.62963125,
          "velocity": 0.6299212598425197,
          "duration": 1.283951066666667
        },
        {
          "name": "G4",
          "midi": 67,
          "time": 8.888892,
          "velocity": 0.6299212598425197,
          "duration": 0.728395316666667
        },
        {
          "name": "F4",
          "midi": 65,
          "time": 9.629633,
          "velocity": 0.6299212598425197,
          "duration": 0.728395316666667
        },
        {
          "name": "E4",
          "midi": 64,
          "time": 10.370374,
          "velocity": 0.6299212598425197,
          "duration": 1.4691363166666669
        },
        {
          "name": "D4",
          "midi": 62,
          "time": 14.814820000000001,
          "velocity": 0.6299212598425197,
          "duration": 1.4691363166666669
        },
        {
          "name": "D4",
          "midi": 62,
          "time": 16.296302,
          "velocity": 0.6299212598425197,
          "duration": 0.728395316666667
        },
        {
          "name": "C#4",
          "midi": 61,
          "time": 17.037043,
          "velocity": 0.6299212598425197,
          "duration": 0.728395316666667
        },
        {
          "name": "E4",
          "midi": 64,
          "time": 19.259266,
          "velocity": 0.6299212598425197,
          "duration": 0.728395316666667
        },
        {
          "name": "C#4",
          "midi": 61,
          "time": 20.000007,
          "velocity": 0.6299212598425197,
          "duration": 0.728395316666667
        },
        {
          "name": "G#4",
          "midi": 68,
          "time": 26.666676000000002,
          "velocity": 0.6299212598425197,
          "duration": 0.728395316666667
        },
        {
          "name": "F4",
          "midi": 65,
          "time": 28.148158000000002,
          "velocity": 0.6299212598425197,
          "duration": 0.728395316666667
        },
        {
          "name": "E4",
          "midi": 64,
          "time": 28.888899000000002,
          "velocity": 0.6299212598425197,
          "duration": 0.1728395666666671
        },
        {
          "name": "D4",
          "midi": 62,
          "time": 29.074084250000002,
          "velocity": 0.6299212598425197,
          "duration": 0.1728395666666671
        },
        {
          "name": "C#4",
          "midi": 61,
          "time": 29.259269500000002,
          "velocity": 0.6299212598425197,
          "duration": 0.3580248166666671
        },
        {
          "name": "D4",
          "midi": 62,
          "time": 38.8889025,
          "velocity": 0.6299212598425197,
          "duration": 0.3580248166666635
        },
        {
          "name": "D4",
          "midi": 62,
          "time": 39.259273,
          "velocity": 0.6299212598425197,
          "duration": 0.7283953166666635
        },
        {
          "name": "D4",
          "midi": 62,
          "time": 40.000014,
          "velocity": 0.6299212598425197,
          "duration": 0.7283953166666635
        },
        {
          "name": "C#4",
          "midi": 61,
          "time": 40.740755,
          "velocity": 0.6299212598425197,
          "duration": 0.7283953166666635
        },
        {
          "name": "E4",
          "midi": 64,
          "time": 42.962978,
          "velocity": 0.6299212598425197,
          "duration": 0.7283953166666635
        },
        {
          "name": "C#4",
          "midi": 61,
          "time": 43.703719,
          "velocity": 0.6299212598425197,
          "duration": 0.7283953166666635
        },
        {
          "name": "D#4",
          "midi": 63,
          "time": 48.5185355,
          "velocity": 0.6299212598425197,
          "duration": 0.3580248166666635
        },
        {
          "name": "G#4",
          "midi": 68,
          "time": 66.2963195,
          "velocity": 0.6299212598425197,
          "duration": 0.35802481666667063
        },
        {
          "name": "G4",
          "midi": 67,
          "time": 66.66669,
          "velocity": 0.6299212598425197,
          "duration": 1.4691363166666633
        },
        {
          "name": "G#4",
          "midi": 68,
          "time": 68.888913,
          "velocity": 0.6299212598425197,
          "duration": 1.4691363166666633
        },
        {
          "name": "G#3",
          "midi": 56,
          "time": 70.370395,
          "velocity": 0.6299212598425197,
          "duration": 0.7283953166666635
        },
        {
          "name": "D#4",
          "midi": 63,
          "time": 71.111136,
          "velocity": 0.6299212598425197,
          "duration": 2.950618316666663
        },
        {
          "name": "D#4",
          "midi": 63,
          "time": 74.0741,
          "velocity": 0.6299212598425197,
          "duration": 0.7283953166666635
        },
        {
          "name": "C#4",
          "midi": 61,
          "time": 74.814841,
          "velocity": 0.6299212598425197,
          "duration": 0.7283953166666635
        },
        {
          "name": "E4",
          "midi": 64,
          "time": 75.555582,
          "velocity": 0.6299212598425197,
          "duration": 1.4691363166666633
        },
        {
          "name": "D4",
          "midi": 62,
          "time": 77.037064,
          "velocity": 0.6299212598425197,
          "duration": 2.950618316666663
        },
        {
          "name": "C4",
          "midi": 60,
          "time": 80.000028,
          "velocity": 0.6299212598425197,
          "duration": 0.7283953166666635
        },
        {
          "name": "A#3",
          "midi": 58,
          "time": 80.740769,
          "velocity": 0.6299212598425197,
          "duration": 0.7283953166666635
        },
        {
          "name": "A3",
          "midi": 57,
          "time": 81.48151,
          "velocity": 0.6299212598425197,
          "duration": 0.7283953166666635
        },
        {
          "name": "E4",
          "midi": 64,
          "time": 82.222251,
          "velocity": 0.6299212598425197,
          "duration": 0.7283953166666635
        },
        {
          "name": "D4",
          "midi": 62,
          "time": 87.407438,
          "velocity": 0.6299212598425197,
          "duration": 0.7283953166666635
        },
        {
          "name": "C#4",
          "midi": 61,
          "time": 88.148179,
          "velocity": 0.6299212598425197,
          "duration": 0.7283953166666635
        },
        {
          "name": "E4",
          "midi": 64,
          "time": 90.370402,
          "velocity": 0.6299212598425197,
          "duration": 0.7283953166666635
        },
        {
          "name": "C#4",
          "midi": 61,
          "time": 91.111143,
          "velocity": 0.6299212598425197,
          "duration": 0.7283953166666635
        },
        {
          "name": "D4",
          "midi": 62,
          "time": 97.777812,
          "velocity": 0.6299212598425197,
          "duration": 2.950618316666663
        },
        {
          "name": "A3",
          "midi": 57,
          "time": 103.70374,
          "velocity": 0.6299212598425197,
          "duration": 1.0987658166666705
        },
        {
          "name": "A3",
          "midi": 57,
          "time": 108.148186,
          "velocity": 0.6299212598425197,
          "duration": 0.7283953166666635
        },
        {
          "name": "A3",
          "midi": 57,
          "time": 108.888927,
          "velocity": 0.6299212598425197,
          "duration": 0.7283953166666635
        },
        {
          "name": "D4",
          "midi": 62,
          "time": 111.11115,
          "velocity": 0.6299212598425197,
          "duration": 0.7283953166666635
        },
        {
          "name": "G#3",
          "midi": 56,
          "time": 112.592632,
          "velocity": 0.6299212598425197,
          "duration": 2.209877316666663
        },
        {
          "name": "C4",
          "midi": 60,
          "time": 116.54325066666665,
          "velocity": 0.6299212598425197,
          "duration": 0.23456798333333495
        },
        {
          "name": "C4",
          "midi": 60,
          "time": 117.03707799999998,
          "velocity": 0.6299212598425197,
          "duration": 0.5432100666666599
        },
        {
          "name": "C4",
          "midi": 60,
          "time": 117.59263374999998,
          "velocity": 0.6299212598425197,
          "duration": 0.1728395666666671
        },
        {
          "name": "C4",
          "midi": 60,
          "time": 117.77781899999998,
          "velocity": 0.6299212598425197,
          "duration": 0.7283953166666635
        },
        {
          "name": "D#4",
          "midi": 63,
          "time": 118.51855999999998,
          "velocity": 0.6299212598425197,
          "duration": 0.5432100666666599
        },
        {
          "name": "G4",
          "midi": 67,
          "time": 119.07411574999998,
          "velocity": 0.6299212598425197,
          "duration": 0.5432100666666599
        },
        {
          "name": "D#5",
          "midi": 75,
          "time": 120.00004199999997,
          "velocity": 0.6299212598425197,
          "duration": 0.35802481666667063
        },
        {
          "name": "E4",
          "midi": 64,
          "time": 120.74078299999996,
          "velocity": 0.6299212598425197,
          "duration": 0.7283953166666635
        },
        {
          "name": "D4",
          "midi": 62,
          "time": 121.48152399999996,
          "velocity": 0.6299212598425197,
          "duration": 0.7283953166666635
        },
        {
          "name": "D4",
          "midi": 62,
          "time": 122.22226499999996,
          "velocity": 0.6299212598425197,
          "duration": 0.7283953166666635
        },
        {
          "name": "C#4",
          "midi": 61,
          "time": 122.96300599999996,
          "velocity": 0.6299212598425197,
          "duration": 0.7283953166666635
        },
        {
          "name": "C#4",
          "midi": 61,
          "time": 123.70374699999996,
          "velocity": 0.6299212598425197,
          "duration": 0.7283953166666635
        },
        {
          "name": "E4",
          "midi": 64,
          "time": 129.76547751666664,
          "velocity": 0.6299212598425197,
          "duration": 0.5925928000000056
        },
        {
          "name": "D4",
          "midi": 62,
          "time": 130.37041599999998,
          "velocity": 0.6299212598425197,
          "duration": 0.5432100666666599
        },
        {
          "name": "F4",
          "midi": 65,
          "time": 132.59263899999996,
          "velocity": 0.6299212598425197,
          "duration": 0.7283953166666777
        },
        {
          "name": "D4",
          "midi": 62,
          "time": 134.81486199999998,
          "velocity": 0.6299212598425197,
          "duration": 0.7283953166666777
        },
        {
          "name": "C#4",
          "midi": 61,
          "time": 135.555603,
          "velocity": 0.6299212598425197,
          "duration": 0.7283953166666777
        },
        {
          "name": "C4",
          "midi": 60,
          "time": 136.296344,
          "velocity": 0.6299212598425197,
          "duration": 1.4691363166666633
        },
        {
          "name": "E4",
          "midi": 64,
          "time": 137.777826,
          "velocity": 0.6299212598425197,
          "duration": 0.7283953166666777
        },
        {
          "name": "C#4",
          "midi": 61,
          "time": 138.51856700000002,
          "velocity": 0.6299212598425197,
          "duration": 0.7283953166666777
        },
        {
          "name": "G4",
          "midi": 67,
          "time": 142.22227200000003,
          "velocity": 0.6299212598425197,
          "duration": 0.1728395666666529
        },
        {
          "name": "D#4",
          "midi": 63,
          "time": 142.96301300000002,
          "velocity": 0.6299212598425197,
          "duration": 0.7283953166666777
        },
        {
          "name": "D4",
          "midi": 62,
          "time": 143.70375400000003,
          "velocity": 0.6299212598425197,
          "duration": 0.7283953166666777
        },
        {
          "name": "C#4",
          "midi": 61,
          "time": 144.44449500000005,
          "velocity": 0.6299212598425197,
          "duration": 0.7283953166666777
        },
        {
          "name": "C4",
          "midi": 60,
          "time": 145.18523600000006,
          "velocity": 0.6299212598425197,
          "duration": 0.7283953166666777
        },
        {
          "name": "C#4",
          "midi": 61,
          "time": 145.92597700000007,
          "velocity": 0.6299212598425197,
          "duration": 0.7283953166666777
        },
        {
          "name": "C4",
          "midi": 60,
          "time": 146.6667180000001,
          "velocity": 0.6299212598425197,
          "duration": 0.7283953166666777
        },
        {
          "name": "F#4",
          "midi": 66,
          "time": 147.4074590000001,
          "velocity": 0.6299212598425197,
          "duration": 0.7283953166666777
        },
        {
          "name": "F4",
          "midi": 65,
          "time": 148.14820000000012,
          "velocity": 0.6299212598425197,
          "duration": 1.4691363166666633
        },
        {
          "name": "D4",
          "midi": 62,
          "time": 149.62968200000012,
          "velocity": 0.6299212598425197,
          "duration": 0.7283953166666777
        },
        {
          "name": "E4",
          "midi": 64,
          "time": 150.37042300000013,
          "velocity": 0.6299212598425197,
          "duration": 0.7283953166666777
        },
        {
          "name": "D4",
          "midi": 62,
          "time": 151.11116400000014,
          "velocity": 0.6299212598425197,
          "duration": 1.4691363166666633
        },
        {
          "name": "D4",
          "midi": 62,
          "time": 152.59264600000014,
          "velocity": 0.6299212598425197,
          "duration": 1.4691363166666633
        },
        {
          "name": "C4",
          "midi": 60,
          "time": 154.07412800000014,
          "velocity": 0.6299212598425197,
          "duration": 1.4691363166666633
        },
        {
          "name": "B3",
          "midi": 59,
          "time": 155.55561000000014,
          "velocity": 0.6299212598425197,
          "duration": 1.4691363166666633
        },
        {
          "name": "A#3",
          "midi": 58,
          "time": 157.03709200000014,
          "velocity": 0.6299212598425197,
          "duration": 1.4691363166666633
        },
        {
          "name": "C#4",
          "midi": 61,
          "time": 158.51857400000014,
          "velocity": 0.6299212598425197,
          "duration": 1.4691363166666633
        },
        {
          "name": "E4",
          "midi": 64,
          "time": 160.2284511416668,
          "velocity": 0.6299212598425197,
          "duration": 2.7222231750000105
        }
      ],
      "controlChanges": {
        "7": [
          {
            "number": 7,
            "time": 0,
            "value": 0.7874015748031497
          }
        ],
        "10": [
          {
            "number": 10,
            "time": 0,
            "value": 0.2204724409448819
          }
        ],
        "64": [
          {
            "number": 64,
            "time": 160.00005600000014,
            "value": 1
          },
          {
            "number": 64,
            "time": 162.96302000000014,
            "value": 0
          }
        ],
        "91": [
          {
            "number": 91,
            "time": 0.740741,
            "value": 0.6299212598425197
          },
          {
            "number": 91,
            "time": 162.96302000000014,
            "value": 0
          }
        ],
        "93": [
          {
            "number": 93,
            "time": 0.740741,
            "value": 0.7874015748031497
          },
          {
            "number": 93,
            "time": 162.96302000000014,
            "value": 0
          }
        ]
      },
      "id": 2,
      "name": "Rhodes Piano 2",
      "instrumentNumber": 4,
      "instrument": "electric piano 1",
      "instrumentFamily": "piano",
      "channelNumber": 1,
      "isPercussion": false
    },
    {
      "startTime": 3.3333345,
      "duration": 162.95067431666672,
      "length": 45,
      "notes": [
        {
          "name": "C#4",
          "midi": 61,
          "time": 3.3333345,
          "velocity": 0.6299212598425197,
          "duration": 0.7283953166666666
        },
        {
          "name": "C#5",
          "midi": 73,
          "time": 4.0740755,
          "velocity": 0.6299212598425197,
          "duration": 0.7283953166666661
        },
        {
          "name": "C#6",
          "midi": 85,
          "time": 4.8148165,
          "velocity": 0.6299212598425197,
          "duration": 1.098765816666667
        },
        {
          "name": "C4",
          "midi": 60,
          "time": 30.370381,
          "velocity": 0.6299212598425197,
          "duration": 0.728395316666667
        },
        {
          "name": "G4",
          "midi": 67,
          "time": 32.592604,
          "velocity": 0.6299212598425197,
          "duration": 0.7283953166666635
        },
        {
          "name": "F4",
          "midi": 65,
          "time": 33.333345,
          "velocity": 0.6299212598425197,
          "duration": 0.3580248166666635
        },
        {
          "name": "E4",
          "midi": 64,
          "time": 33.7037155,
          "velocity": 0.6299212598425197,
          "duration": 0.3580248166666635
        },
        {
          "name": "E4",
          "midi": 64,
          "time": 34.074086,
          "velocity": 0.6299212598425197,
          "duration": 0.7283953166666635
        },
        {
          "name": "C4",
          "midi": 60,
          "time": 50.370388,
          "velocity": 0.6299212598425197,
          "duration": 0.7283953166666635
        },
        {
          "name": "C4",
          "midi": 60,
          "time": 57.4074275,
          "velocity": 0.6299212598425197,
          "duration": 0.3580248166666635
        },
        {
          "name": "F4",
          "midi": 65,
          "time": 63.333355499999996,
          "velocity": 0.6299212598425197,
          "duration": 0.3580248166666635
        },
        {
          "name": "F4",
          "midi": 65,
          "time": 68.88891299999999,
          "velocity": 0.6299212598425197,
          "duration": 1.4691363166666633
        },
        {
          "name": "C#4",
          "midi": 61,
          "time": 75.55558199999999,
          "velocity": 0.6299212598425197,
          "duration": 1.4691363166666633
        },
        {
          "name": "C#4",
          "midi": 61,
          "time": 82.22225099999999,
          "velocity": 0.6299212598425197,
          "duration": 0.7283953166666635
        },
        {
          "name": "D4",
          "midi": 62,
          "time": 96.29632999999998,
          "velocity": 0.6299212598425197,
          "duration": 0.7283953166666635
        },
        {
          "name": "C#4",
          "midi": 61,
          "time": 97.17287351666664,
          "velocity": 0.6299212598425197,
          "duration": 0.5925928000000056
        },
        {
          "name": "A3",
          "midi": 57,
          "time": 97.77781199999998,
          "velocity": 0.6299212598425197,
          "duration": 2.950618316666663
        },
        {
          "name": "A#3",
          "midi": 58,
          "time": 100.74077599999998,
          "velocity": 0.6299212598425197,
          "duration": 0.7283953166666635
        },
        {
          "name": "D4",
          "midi": 62,
          "time": 102.22225799999998,
          "velocity": 0.6299212598425197,
          "duration": 0.913580566666667
        },
        {
          "name": "C#4",
          "midi": 61,
          "time": 103.14818424999999,
          "velocity": 0.6299212598425197,
          "duration": 0.5432100666666599
        },
        {
          "name": "C4",
          "midi": 60,
          "time": 111.11114999999998,
          "velocity": 0.6299212598425197,
          "duration": 0.7283953166666635
        },
        {
          "name": "B3",
          "midi": 59,
          "time": 118.51855999999998,
          "velocity": 0.6299212598425197,
          "duration": 0.5432100666666599
        },
        {
          "name": "D#4",
          "midi": 63,
          "time": 119.07411574999998,
          "velocity": 0.6299212598425197,
          "duration": 0.5432100666666599
        },
        {
          "name": "A#4",
          "midi": 70,
          "time": 120.00004199999997,
          "velocity": 0.6299212598425197,
          "duration": 0.35802481666667063
        },
        {
          "name": "A#3",
          "midi": 58,
          "time": 121.48152399999996,
          "velocity": 0.6299212598425197,
          "duration": 0.7283953166666635
        },
        {
          "name": "A#3",
          "midi": 58,
          "time": 122.22226499999996,
          "velocity": 0.6299212598425197,
          "duration": 0.7283953166666635
        },
        {
          "name": "A#3",
          "midi": 58,
          "time": 122.96300599999996,
          "velocity": 0.6299212598425197,
          "duration": 0.7283953166666635
        },
        {
          "name": "A#3",
          "midi": 58,
          "time": 123.70374699999996,
          "velocity": 0.6299212598425197,
          "duration": 0.7283953166666635
        },
        {
          "name": "G4",
          "midi": 67,
          "time": 127.40745199999996,
          "velocity": 0.6299212598425197,
          "duration": 0.7283953166666635
        },
        {
          "name": "F4",
          "midi": 65,
          "time": 128.14819299999996,
          "velocity": 0.6299212598425197,
          "duration": 0.7283953166666777
        },
        {
          "name": "E4",
          "midi": 64,
          "time": 128.88893399999998,
          "velocity": 0.6299212598425197,
          "duration": 0.7283953166666777
        },
        {
          "name": "A#3",
          "midi": 58,
          "time": 129.67288489166665,
          "velocity": 0.6299212598425197,
          "duration": 0.685185424999986
        },
        {
          "name": "C4",
          "midi": 60,
          "time": 130.37041599999998,
          "velocity": 0.6299212598425197,
          "duration": 0.5432100666666599
        },
        {
          "name": "D4",
          "midi": 62,
          "time": 131.85189799999998,
          "velocity": 0.6299212598425197,
          "duration": 0.7283953166666777
        },
        {
          "name": "C#4",
          "midi": 61,
          "time": 132.592639,
          "velocity": 0.6299212598425197,
          "duration": 0.7283953166666777
        },
        {
          "name": "E4",
          "midi": 64,
          "time": 142.222272,
          "velocity": 0.6299212598425197,
          "duration": 0.1728395666666529
        },
        {
          "name": "C4",
          "midi": 60,
          "time": 142.963013,
          "velocity": 0.6299212598425197,
          "duration": 0.7283953166666777
        },
        {
          "name": "A#3",
          "midi": 58,
          "time": 143.703754,
          "velocity": 0.6299212598425197,
          "duration": 0.7283953166666777
        },
        {
          "name": "A#3",
          "midi": 58,
          "time": 144.44449500000002,
          "velocity": 0.6299212598425197,
          "duration": 0.7283953166666777
        },
        {
          "name": "D4",
          "midi": 62,
          "time": 148.14820000000003,
          "velocity": 0.6299212598425197,
          "duration": 1.4691363166666633
        },
        {
          "name": "A#3",
          "midi": 58,
          "time": 149.62968200000003,
          "velocity": 0.6299212598425197,
          "duration": 0.7283953166666777
        },
        {
          "name": "C#4",
          "midi": 61,
          "time": 150.37042300000005,
          "velocity": 0.6299212598425197,
          "duration": 0.7283953166666777
        },
        {
          "name": "A3",
          "midi": 57,
          "time": 157.03709200000006,
          "velocity": 0.6299212598425197,
          "duration": 1.4691363166666633
        },
        {
          "name": "A#3",
          "midi": 58,
          "time": 158.51857400000006,
          "velocity": 0.6299212598425197,
          "duration": 1.4691363166666633
        },
        {
          "name": "D4",
          "midi": 62,
          "time": 160.18524125000005,
          "velocity": 0.6299212598425197,
          "duration": 2.7654330666666738
        }
      ],
      "controlChanges": {
        "7": [
          {
            "number": 7,
            "time": 0,
            "value": 0.7874015748031497
          }
        ],
        "10": [
          {
            "number": 10,
            "time": 0,
            "value": 0.7874015748031497
          }
        ],
        "64": [
          {
            "number": 64,
            "time": 160.00005600000006,
            "value": 1
          },
          {
            "number": 64,
            "time": 162.96302000000006,
            "value": 0
          }
        ],
        "91": [
          {
            "number": 91,
            "time": 0,
            "value": 0.6299212598425197
          },
          {
            "number": 91,
            "time": 162.96302000000006,
            "value": 0
          }
        ],
        "93": [
          {
            "number": 93,
            "time": 0.740741,
            "value": 0.7874015748031497
          },
          {
            "number": 93,
            "time": 162.96302000000006,
            "value": 0
          }
        ]
      },
      "id": 3,
      "name": "Rhodes Piano 3",
      "instrumentNumber": 4,
      "instrument": "electric piano 1",
      "instrumentFamily": "piano",
      "channelNumber": 2,
      "isPercussion": false
    },
    {
      "startTime": 3.51851975,
      "duration": 162.95067431666672,
      "length": 88,
      "notes": [
        {
          "name": "E4",
          "midi": 64,
          "time": 3.51851975,
          "velocity": 0.6299212598425197,
          "duration": 0.7283953166666666
        },
        {
          "name": "E5",
          "midi": 76,
          "time": 4.25926075,
          "velocity": 0.6299212598425197,
          "duration": 0.7283953166666661
        },
        {
          "name": "E6",
          "midi": 88,
          "time": 5.00000175,
          "velocity": 0.6299212598425197,
          "duration": 0.913580566666667
        },
        {
          "name": "A3",
          "midi": 57,
          "time": 6.666669000000001,
          "velocity": 0.6299212598425197,
          "duration": 0.728395316666667
        },
        {
          "name": "G#4",
          "midi": 68,
          "time": 8.148151,
          "velocity": 0.6299212598425197,
          "duration": 0.728395316666667
        },
        {
          "name": "E4",
          "midi": 64,
          "time": 8.888892,
          "velocity": 0.6299212598425197,
          "duration": 0.728395316666667
        },
        {
          "name": "D4",
          "midi": 62,
          "time": 9.629633,
          "velocity": 0.6299212598425197,
          "duration": 0.728395316666667
        },
        {
          "name": "C4",
          "midi": 60,
          "time": 10.370374,
          "velocity": 0.6299212598425197,
          "duration": 1.4691363166666669
        },
        {
          "name": "A3",
          "midi": 57,
          "time": 12.592597,
          "velocity": 0.6299212598425197,
          "duration": 0.728395316666667
        },
        {
          "name": "D4",
          "midi": 62,
          "time": 13.333338,
          "velocity": 0.6299212598425197,
          "duration": 0.728395316666667
        },
        {
          "name": "C#4",
          "midi": 61,
          "time": 14.074079,
          "velocity": 0.6299212598425197,
          "duration": 0.728395316666667
        },
        {
          "name": "C4",
          "midi": 60,
          "time": 18.271611333333333,
          "velocity": 0.6299212598425197,
          "duration": 0.9753089833333348
        },
        {
          "name": "A#2",
          "midi": 46,
          "time": 20.000007,
          "velocity": 0.6299212598425197,
          "duration": 0.728395316666667
        },
        {
          "name": "C4",
          "midi": 60,
          "time": 21.234575333333332,
          "velocity": 0.6299212598425197,
          "duration": 0.9753089833333348
        },
        {
          "name": "D4",
          "midi": 62,
          "time": 22.5926005,
          "velocity": 0.6299212598425197,
          "duration": 1.098765816666667
        },
        {
          "name": "C#4",
          "midi": 61,
          "time": 24.444453,
          "velocity": 0.6299212598425197,
          "duration": 0.728395316666667
        },
        {
          "name": "C#4",
          "midi": 61,
          "time": 25.925935,
          "velocity": 0.6299212598425197,
          "duration": 0.728395316666667
        },
        {
          "name": "G3",
          "midi": 55,
          "time": 28.148158,
          "velocity": 0.6299212598425197,
          "duration": 0.728395316666667
        },
        {
          "name": "F3",
          "midi": 53,
          "time": 28.888899,
          "velocity": 0.6299212598425197,
          "duration": 0.3580248166666671
        },
        {
          "name": "A3",
          "midi": 57,
          "time": 29.2592695,
          "velocity": 0.6299212598425197,
          "duration": 0.3580248166666671
        },
        {
          "name": "A3",
          "midi": 57,
          "time": 30.12346733333333,
          "velocity": 0.6299212598425197,
          "duration": 0.9753089833333348
        },
        {
          "name": "D4",
          "midi": 62,
          "time": 31.851862999999998,
          "velocity": 0.6299212598425197,
          "duration": 0.728395316666667
        },
        {
          "name": "E4",
          "midi": 64,
          "time": 32.592604,
          "velocity": 0.6299212598425197,
          "duration": 0.7283953166666635
        },
        {
          "name": "D4",
          "midi": 62,
          "time": 33.333345,
          "velocity": 0.6299212598425197,
          "duration": 0.7283953166666635
        },
        {
          "name": "C4",
          "midi": 60,
          "time": 34.074086,
          "velocity": 0.6299212598425197,
          "duration": 0.7283953166666635
        },
        {
          "name": "E4",
          "midi": 64,
          "time": 34.814827,
          "velocity": 0.6299212598425197,
          "duration": 0.7283953166666635
        },
        {
          "name": "A3",
          "midi": 57,
          "time": 36.296309,
          "velocity": 0.6299212598425197,
          "duration": 0.7283953166666635
        },
        {
          "name": "D4",
          "midi": 62,
          "time": 37.03705,
          "velocity": 0.6299212598425197,
          "duration": 0.7283953166666635
        },
        {
          "name": "C4",
          "midi": 60,
          "time": 41.97532333333333,
          "velocity": 0.6299212598425197,
          "duration": 0.9753089833333348
        },
        {
          "name": "A#2",
          "midi": 46,
          "time": 43.703719,
          "velocity": 0.6299212598425197,
          "duration": 0.7283953166666635
        },
        {
          "name": "B3",
          "midi": 59,
          "time": 48.148165,
          "velocity": 0.6299212598425197,
          "duration": 0.037037050000002125
        },
        {
          "name": "C4",
          "midi": 60,
          "time": 48.19137489166667,
          "velocity": 0.6299212598425197,
          "duration": 0.6851854250000002
        },
        {
          "name": "A3",
          "midi": 57,
          "time": 50.370388000000005,
          "velocity": 0.6299212598425197,
          "duration": 0.7283953166666635
        },
        {
          "name": "A#3",
          "midi": 58,
          "time": 54.074093000000005,
          "velocity": 0.6299212598425197,
          "duration": 0.7283953166666635
        },
        {
          "name": "D4",
          "midi": 62,
          "time": 54.814834000000005,
          "velocity": 0.6299212598425197,
          "duration": 0.3580248166666635
        },
        {
          "name": "C#4",
          "midi": 61,
          "time": 55.185204500000005,
          "velocity": 0.6299212598425197,
          "duration": 0.3580248166666635
        },
        {
          "name": "C4",
          "midi": 60,
          "time": 55.555575000000005,
          "velocity": 0.6299212598425197,
          "duration": 0.7283953166666635
        },
        {
          "name": "A3",
          "midi": 57,
          "time": 57.037057000000004,
          "velocity": 0.6299212598425197,
          "duration": 0.7283953166666635
        },
        {
          "name": "D#4",
          "midi": 63,
          "time": 58.148168500000004,
          "velocity": 0.6299212598425197,
          "duration": 0.3580248166666635
        },
        {
          "name": "D4",
          "midi": 62,
          "time": 58.518539000000004,
          "velocity": 0.6299212598425197,
          "duration": 0.7283953166666635
        },
        {
          "name": "A#3",
          "midi": 58,
          "time": 60.000021000000004,
          "velocity": 0.6299212598425197,
          "duration": 0.7283953166666635
        },
        {
          "name": "D4",
          "midi": 62,
          "time": 60.740762000000004,
          "velocity": 0.6299212598425197,
          "duration": 0.7283953166666635
        },
        {
          "name": "C#4",
          "midi": 61,
          "time": 61.481503000000004,
          "velocity": 0.6299212598425197,
          "duration": 0.7283953166666635
        },
        {
          "name": "D4",
          "midi": 62,
          "time": 62.962985,
          "velocity": 0.6299212598425197,
          "duration": 0.7283953166666635
        },
        {
          "name": "A4",
          "midi": 69,
          "time": 63.703726,
          "velocity": 0.6299212598425197,
          "duration": 1.4691363166666633
        },
        {
          "name": "A#3",
          "midi": 58,
          "time": 65.925949,
          "velocity": 0.6299212598425197,
          "duration": 2.209877316666663
        },
        {
          "name": "C4",
          "midi": 60,
          "time": 68.888913,
          "velocity": 0.6299212598425197,
          "duration": 0.7283953166666635
        },
        {
          "name": "A#3",
          "midi": 58,
          "time": 69.629654,
          "velocity": 0.6299212598425197,
          "duration": 0.7283953166666635
        },
        {
          "name": "A#3",
          "midi": 58,
          "time": 75.555582,
          "velocity": 0.6299212598425197,
          "duration": 1.4691363166666633
        },
        {
          "name": "A3",
          "midi": 57,
          "time": 77.777805,
          "velocity": 0.6299212598425197,
          "duration": 0.7283953166666635
        },
        {
          "name": "D4",
          "midi": 62,
          "time": 79.259287,
          "velocity": 0.6299212598425197,
          "duration": 0.7283953166666635
        },
        {
          "name": "A#3",
          "midi": 58,
          "time": 82.222251,
          "velocity": 0.6299212598425197,
          "duration": 0.7283953166666635
        },
        {
          "name": "A3",
          "midi": 57,
          "time": 83.703733,
          "velocity": 0.6299212598425197,
          "duration": 0.7283953166666635
        },
        {
          "name": "D4",
          "midi": 62,
          "time": 84.444474,
          "velocity": 0.6299212598425197,
          "duration": 0.7283953166666635
        },
        {
          "name": "F4",
          "midi": 65,
          "time": 85.185215,
          "velocity": 0.6299212598425197,
          "duration": 0.7283953166666635
        },
        {
          "name": "C4",
          "midi": 60,
          "time": 89.38274733333333,
          "velocity": 0.6299212598425197,
          "duration": 0.9753089833333348
        },
        {
          "name": "A#2",
          "midi": 46,
          "time": 91.111143,
          "velocity": 0.6299212598425197,
          "duration": 0.7283953166666635
        },
        {
          "name": "C4",
          "midi": 60,
          "time": 92.592625,
          "velocity": 0.6299212598425197,
          "duration": 0.7283953166666635
        },
        {
          "name": "C4",
          "midi": 60,
          "time": 95.555589,
          "velocity": 0.6299212598425197,
          "duration": 0.7283953166666635
        },
        {
          "name": "A#3",
          "midi": 58,
          "time": 96.29633,
          "velocity": 0.6299212598425197,
          "duration": 0.7283953166666635
        },
        {
          "name": "A#3",
          "midi": 58,
          "time": 97.12966362499999,
          "velocity": 0.6299212598425197,
          "duration": 0.6358026916666688
        },
        {
          "name": "G3",
          "midi": 55,
          "time": 97.777812,
          "velocity": 0.6299212598425197,
          "duration": 2.950618316666663
        },
        {
          "name": "G3",
          "midi": 55,
          "time": 100.740776,
          "velocity": 0.6299212598425197,
          "duration": 0.7283953166666635
        },
        {
          "name": "A3",
          "midi": 57,
          "time": 102.222258,
          "velocity": 0.6299212598425197,
          "duration": 0.913580566666667
        },
        {
          "name": "A3",
          "midi": 57,
          "time": 103.14818425,
          "velocity": 0.6299212598425197,
          "duration": 0.5432100666666599
        },
        {
          "name": "D3",
          "midi": 50,
          "time": 104.444481,
          "velocity": 0.6299212598425197,
          "duration": 0.7283953166666635
        },
        {
          "name": "B3",
          "midi": 59,
          "time": 105.185222,
          "velocity": 0.6299212598425197,
          "duration": 1.4691363166666633
        },
        {
          "name": "G3",
          "midi": 55,
          "time": 106.666704,
          "velocity": 0.6299212598425197,
          "duration": 0.913580566666667
        },
        {
          "name": "G3",
          "midi": 55,
          "time": 107.59263025,
          "velocity": 0.6299212598425197,
          "duration": 0.5432100666666599
        },
        {
          "name": "G3",
          "midi": 55,
          "time": 114.814855,
          "velocity": 0.6299212598425197,
          "duration": 0.7283953166666635
        },
        {
          "name": "G3",
          "midi": 55,
          "time": 115.555596,
          "velocity": 0.6299212598425197,
          "duration": 0.7283953166666635
        },
        {
          "name": "B3",
          "midi": 59,
          "time": 120.000042,
          "velocity": 0.6299212598425197,
          "duration": 1.4691363166666633
        },
        {
          "name": "A3",
          "midi": 57,
          "time": 121.481524,
          "velocity": 0.6299212598425197,
          "duration": 1.0987658166666705
        },
        {
          "name": "A3",
          "midi": 57,
          "time": 122.963006,
          "velocity": 0.6299212598425197,
          "duration": 0.7283953166666635
        },
        {
          "name": "G#3",
          "midi": 56,
          "time": 123.70374699999999,
          "velocity": 0.6299212598425197,
          "duration": 0.7283953166666635
        },
        {
          "name": "D4",
          "midi": 62,
          "time": 126.29634049999999,
          "velocity": 0.6299212598425197,
          "duration": 1.0987658166666705
        },
        {
          "name": "E4",
          "midi": 64,
          "time": 127.40745199999999,
          "velocity": 0.6299212598425197,
          "duration": 0.7283953166666635
        },
        {
          "name": "D4",
          "midi": 62,
          "time": 128.148193,
          "velocity": 0.6299212598425197,
          "duration": 0.7283953166666777
        },
        {
          "name": "C4",
          "midi": 60,
          "time": 128.888934,
          "velocity": 0.6299212598425197,
          "duration": 0.7283953166666777
        },
        {
          "name": "A3",
          "midi": 57,
          "time": 129.62967500000002,
          "velocity": 0.6299212598425197,
          "duration": 0.7283953166666777
        },
        {
          "name": "A3",
          "midi": 57,
          "time": 130.37041600000003,
          "velocity": 0.6299212598425197,
          "duration": 0.5432100666666599
        },
        {
          "name": "A#3",
          "midi": 58,
          "time": 131.85189800000003,
          "velocity": 0.6299212598425197,
          "duration": 0.7283953166666777
        },
        {
          "name": "A#3",
          "midi": 58,
          "time": 132.59263900000005,
          "velocity": 0.6299212598425197,
          "duration": 0.7283953166666777
        },
        {
          "name": "C4",
          "midi": 60,
          "time": 139.35190062500007,
          "velocity": 0.6299212598425197,
          "duration": 1.3765436916666545
        },
        {
          "name": "A3",
          "midi": 57,
          "time": 143.70375400000006,
          "velocity": 0.6299212598425197,
          "duration": 0.7283953166666777
        },
        {
          "name": "A#3",
          "midi": 58,
          "time": 148.14820000000006,
          "velocity": 0.6299212598425197,
          "duration": 1.4691363166666633
        },
        {
          "name": "A#3",
          "midi": 58,
          "time": 150.37042300000005,
          "velocity": 0.6299212598425197,
          "duration": 0.7283953166666777
        },
        {
          "name": "B3",
          "midi": 59,
          "time": 160.13585851666673,
          "velocity": 0.6299212598425197,
          "duration": 2.814815799999991
        }
      ],
      "controlChanges": {
        "7": [
          {
            "number": 7,
            "time": 0,
            "value": 0.7874015748031497
          }
        ],
        "10": [
          {
            "number": 10,
            "time": 0,
            "value": 0.29133858267716534
          }
        ],
        "64": [
          {
            "number": 64,
            "time": 160.00005600000006,
            "value": 1
          },
          {
            "number": 64,
            "time": 162.96302000000006,
            "value": 0
          }
        ],
        "91": [
          {
            "number": 91,
            "time": 0.740741,
            "value": 0.6299212598425197
          },
          {
            "number": 91,
            "time": 162.96302000000006,
            "value": 0
          }
        ],
        "93": [
          {
            "number": 93,
            "time": 0.740741,
            "value": 0.7874015748031497
          },
          {
            "number": 93,
            "time": 162.96302000000006,
            "value": 0
          }
        ]
      },
      "id": 4,
      "name": "Rhodes Piano 4",
      "instrumentNumber": 4,
      "instrument": "electric piano 1",
      "instrumentFamily": "piano",
      "channelNumber": 3,
      "isPercussion": false
    },
    {
      "startTime": 6.2962985,
      "duration": 165.8642555833336,
      "length": 123,
      "notes": [
        {
          "name": "C3",
          "midi": 48,
          "time": 6.2962985,
          "velocity": 0.6299212598425197,
          "duration": 1.098765816666667
        },
        {
          "name": "E4",
          "midi": 64,
          "time": 7.7777805,
          "velocity": 0.6299212598425197,
          "duration": 1.098765816666667
        },
        {
          "name": "C4",
          "midi": 60,
          "time": 8.888892,
          "velocity": 0.6299212598425197,
          "duration": 0.728395316666667
        },
        {
          "name": "A#3",
          "midi": 58,
          "time": 9.629633,
          "velocity": 0.6299212598425197,
          "duration": 0.728395316666667
        },
        {
          "name": "A3",
          "midi": 57,
          "time": 10.370374,
          "velocity": 0.6299212598425197,
          "duration": 1.4691363166666669
        },
        {
          "name": "C3",
          "midi": 48,
          "time": 12.2222265,
          "velocity": 0.6299212598425197,
          "duration": 1.098765816666667
        },
        {
          "name": "A#3",
          "midi": 58,
          "time": 13.333338,
          "velocity": 0.6299212598425197,
          "duration": 0.728395316666667
        },
        {
          "name": "G3",
          "midi": 55,
          "time": 14.074079,
          "velocity": 0.6299212598425197,
          "duration": 0.728395316666667
        },
        {
          "name": "A3",
          "midi": 57,
          "time": 15.1851905,
          "velocity": 0.6299212598425197,
          "duration": 0.728395316666667
        },
        {
          "name": "A3",
          "midi": 57,
          "time": 15.925931499999999,
          "velocity": 0.6299212598425197,
          "duration": 0.7283953166666652
        },
        {
          "name": "E3",
          "midi": 52,
          "time": 18.024697666666665,
          "velocity": 0.6299212598425197,
          "duration": 1.222222649999999
        },
        {
          "name": "A#3",
          "midi": 58,
          "time": 19.259265999999997,
          "velocity": 0.6299212598425197,
          "duration": 1.4691363166666669
        },
        {
          "name": "E3",
          "midi": 52,
          "time": 20.987661666666664,
          "velocity": 0.6299212598425197,
          "duration": 1.222222649999999
        },
        {
          "name": "A3",
          "midi": 57,
          "time": 22.592600499999996,
          "velocity": 0.6299212598425197,
          "duration": 0.3580248166666671
        },
        {
          "name": "G#3",
          "midi": 56,
          "time": 22.962970999999996,
          "velocity": 0.6299212598425197,
          "duration": 0.728395316666667
        },
        {
          "name": "E3",
          "midi": 52,
          "time": 24.074082499999996,
          "velocity": 0.6299212598425197,
          "duration": 1.098765816666667
        },
        {
          "name": "F3",
          "midi": 53,
          "time": 25.555564499999996,
          "velocity": 0.6299212598425197,
          "duration": 1.098765816666667
        },
        {
          "name": "D#3",
          "midi": 51,
          "time": 27.037046499999995,
          "velocity": 0.6299212598425197,
          "duration": 1.098765816666667
        },
        {
          "name": "D4",
          "midi": 62,
          "time": 28.148157999999995,
          "velocity": 0.6299212598425197,
          "duration": 0.728395316666667
        },
        {
          "name": "B3",
          "midi": 59,
          "time": 28.888898999999995,
          "velocity": 0.6299212598425197,
          "duration": 0.3580248166666671
        },
        {
          "name": "A#3",
          "midi": 58,
          "time": 29.259269499999995,
          "velocity": 0.6299212598425197,
          "duration": 0.3580248166666671
        },
        {
          "name": "C3",
          "midi": 48,
          "time": 29.876553666666663,
          "velocity": 0.6299212598425197,
          "duration": 1.222222649999999
        },
        {
          "name": "F3",
          "midi": 53,
          "time": 31.481492499999995,
          "velocity": 0.6299212598425197,
          "duration": 1.0987658166666634
        },
        {
          "name": "C4",
          "midi": 60,
          "time": 32.592603999999994,
          "velocity": 0.6299212598425197,
          "duration": 0.7283953166666635
        },
        {
          "name": "A#3",
          "midi": 58,
          "time": 33.333344999999994,
          "velocity": 0.6299212598425197,
          "duration": 0.7283953166666635
        },
        {
          "name": "A3",
          "midi": 57,
          "time": 34.074085999999994,
          "velocity": 0.6299212598425197,
          "duration": 0.7283953166666635
        },
        {
          "name": "A#3",
          "midi": 58,
          "time": 34.814826999999994,
          "velocity": 0.6299212598425197,
          "duration": 0.7283953166666635
        },
        {
          "name": "E3",
          "midi": 52,
          "time": 35.925938499999994,
          "velocity": 0.6299212598425197,
          "duration": 1.0987658166666634
        },
        {
          "name": "A#3",
          "midi": 58,
          "time": 37.037049999999994,
          "velocity": 0.6299212598425197,
          "duration": 0.7283953166666635
        },
        {
          "name": "C#4",
          "midi": 61,
          "time": 37.77779099999999,
          "velocity": 0.6299212598425197,
          "duration": 0.7283953166666635
        },
        {
          "name": "A3",
          "midi": 57,
          "time": 38.88890249999999,
          "velocity": 0.6299212598425197,
          "duration": 0.7283953166666635
        },
        {
          "name": "A3",
          "midi": 57,
          "time": 39.62964349999999,
          "velocity": 0.6299212598425197,
          "duration": 0.7283953166666635
        },
        {
          "name": "G#3",
          "midi": 56,
          "time": 40.92594024999999,
          "velocity": 0.6299212598425197,
          "duration": 0.1728395666666671
        },
        {
          "name": "G3",
          "midi": 55,
          "time": 41.11112549999999,
          "velocity": 0.6299212598425197,
          "duration": 0.3580248166666635
        },
        {
          "name": "E3",
          "midi": 52,
          "time": 41.72840966666666,
          "velocity": 0.6299212598425197,
          "duration": 1.222222649999999
        },
        {
          "name": "A#3",
          "midi": 58,
          "time": 42.96297799999999,
          "velocity": 0.6299212598425197,
          "duration": 1.4691363166666633
        },
        {
          "name": "E3",
          "midi": 52,
          "time": 44.81483049999999,
          "velocity": 0.6299212598425197,
          "duration": 1.0987658166666634
        },
        {
          "name": "A3",
          "midi": 57,
          "time": 46.29631249999999,
          "velocity": 0.6299212598425197,
          "duration": 0.3580248166666635
        },
        {
          "name": "G#3",
          "midi": 56,
          "time": 46.66668299999999,
          "velocity": 0.6299212598425197,
          "duration": 0.7283953166666635
        },
        {
          "name": "E3",
          "midi": 52,
          "time": 47.77779449999999,
          "velocity": 0.6299212598425197,
          "duration": 0.3580248166666635
        },
        {
          "name": "F#3",
          "midi": 54,
          "time": 48.14816499999999,
          "velocity": 0.6299212598425197,
          "duration": 0.7283953166666635
        },
        {
          "name": "A#3",
          "midi": 58,
          "time": 49.25927649999999,
          "velocity": 0.6299212598425197,
          "duration": 0.3580248166666635
        },
        {
          "name": "G3",
          "midi": 55,
          "time": 50.37038799999999,
          "velocity": 0.6299212598425197,
          "duration": 0.7283953166666635
        },
        {
          "name": "A3",
          "midi": 57,
          "time": 51.11112899999999,
          "velocity": 0.6299212598425197,
          "duration": 1.4691363166666633
        },
        {
          "name": "G3",
          "midi": 55,
          "time": 53.70372249999999,
          "velocity": 0.6299212598425197,
          "duration": 1.0987658166666634
        },
        {
          "name": "A3",
          "midi": 57,
          "time": 54.81483399999999,
          "velocity": 0.6299212598425197,
          "duration": 1.4691363166666633
        },
        {
          "name": "F3",
          "midi": 53,
          "time": 56.66668649999999,
          "velocity": 0.6299212598425197,
          "duration": 1.0987658166666634
        },
        {
          "name": "B3",
          "midi": 59,
          "time": 57.77779799999999,
          "velocity": 0.6299212598425197,
          "duration": 1.4691363166666633
        },
        {
          "name": "G3",
          "midi": 55,
          "time": 59.62965049999999,
          "velocity": 0.6299212598425197,
          "duration": 1.0987658166666634
        },
        {
          "name": "A3",
          "midi": 57,
          "time": 60.74076199999999,
          "velocity": 0.6299212598425197,
          "duration": 1.4691363166666633
        },
        {
          "name": "A3",
          "midi": 57,
          "time": 62.59261449999999,
          "velocity": 0.6299212598425197,
          "duration": 1.0987658166666634
        },
        {
          "name": "D4",
          "midi": 62,
          "time": 63.70372599999999,
          "velocity": 0.6299212598425197,
          "duration": 1.4691363166666633
        },
        {
          "name": "F3",
          "midi": 53,
          "time": 65.55557849999998,
          "velocity": 0.6299212598425197,
          "duration": 2.5802478166666702
        },
        {
          "name": "D#3",
          "midi": 51,
          "time": 68.51854249999998,
          "velocity": 0.6299212598425197,
          "duration": 0.7283953166666635
        },
        {
          "name": "D#3",
          "midi": 51,
          "time": 69.25928349999998,
          "velocity": 0.6299212598425197,
          "duration": 1.8395068166666704
        },
        {
          "name": "B3",
          "midi": 59,
          "time": 71.11113599999999,
          "velocity": 0.6299212598425197,
          "duration": 2.950618316666663
        },
        {
          "name": "A#3",
          "midi": 58,
          "time": 74.07409999999999,
          "velocity": 0.6299212598425197,
          "duration": 1.4691363166666633
        },
        {
          "name": "G#3",
          "midi": 56,
          "time": 75.55558199999999,
          "velocity": 0.6299212598425197,
          "duration": 1.4691363166666633
        },
        {
          "name": "C3",
          "midi": 48,
          "time": 77.40743449999998,
          "velocity": 0.6299212598425197,
          "duration": 1.0987658166666705
        },
        {
          "name": "F3",
          "midi": 53,
          "time": 78.88891649999998,
          "velocity": 0.6299212598425197,
          "duration": 1.0987658166666705
        },
        {
          "name": "E3",
          "midi": 52,
          "time": 80.00002799999999,
          "velocity": 0.6299212598425197,
          "duration": 0.7283953166666635
        },
        {
          "name": "D3",
          "midi": 50,
          "time": 80.74076899999999,
          "velocity": 0.6299212598425197,
          "duration": 0.7283953166666635
        },
        {
          "name": "C3",
          "midi": 48,
          "time": 81.48150999999999,
          "velocity": 0.6299212598425197,
          "duration": 1.4691363166666633
        },
        {
          "name": "E3",
          "midi": 52,
          "time": 83.33336249999998,
          "velocity": 0.6299212598425197,
          "duration": 1.0987658166666705
        },
        {
          "name": "A#3",
          "midi": 58,
          "time": 84.44447399999999,
          "velocity": 0.6299212598425197,
          "duration": 0.7283953166666635
        },
        {
          "name": "C#4",
          "midi": 61,
          "time": 85.18521499999999,
          "velocity": 0.6299212598425197,
          "duration": 0.7283953166666635
        },
        {
          "name": "A3",
          "midi": 57,
          "time": 86.29632649999998,
          "velocity": 0.6299212598425197,
          "duration": 0.7283953166666635
        },
        {
          "name": "A3",
          "midi": 57,
          "time": 87.03706749999998,
          "velocity": 0.6299212598425197,
          "duration": 0.7283953166666635
        },
        {
          "name": "E3",
          "midi": 52,
          "time": 89.13583366666664,
          "velocity": 0.6299212598425197,
          "duration": 1.2222226500000062
        },
        {
          "name": "A#3",
          "midi": 58,
          "time": 90.37040199999998,
          "velocity": 0.6299212598425197,
          "duration": 1.4691363166666633
        },
        {
          "name": "E3",
          "midi": 52,
          "time": 92.22225449999998,
          "velocity": 0.6299212598425197,
          "duration": 1.0987658166666705
        },
        {
          "name": "A3",
          "midi": 57,
          "time": 93.33336599999998,
          "velocity": 0.6299212598425197,
          "duration": 0.7283953166666635
        },
        {
          "name": "G#3",
          "midi": 56,
          "time": 94.07410699999998,
          "velocity": 0.6299212598425197,
          "duration": 0.7283953166666635
        },
        {
          "name": "F#3",
          "midi": 54,
          "time": 95.55558899999998,
          "velocity": 0.6299212598425197,
          "duration": 0.7283953166666635
        },
        {
          "name": "A3",
          "midi": 57,
          "time": 96.29632999999998,
          "velocity": 0.6299212598425197,
          "duration": 0.7283953166666635
        },
        {
          "name": "E3",
          "midi": 52,
          "time": 97.08028089166665,
          "velocity": 0.6299212598425197,
          "duration": 0.6851854250000002
        },
        {
          "name": "C3",
          "midi": 48,
          "time": 97.77781199999998,
          "velocity": 0.6299212598425197,
          "duration": 2.950618316666663
        },
        {
          "name": "D#3",
          "midi": 51,
          "time": 100.74077599999998,
          "velocity": 0.6299212598425197,
          "duration": 0.7283953166666635
        },
        {
          "name": "D#3",
          "midi": 51,
          "time": 102.22225799999998,
          "velocity": 0.6299212598425197,
          "duration": 0.913580566666667
        },
        {
          "name": "F3",
          "midi": 53,
          "time": 103.70373999999998,
          "velocity": 0.6299212598425197,
          "duration": 1.4691363166666633
        },
        {
          "name": "F3",
          "midi": 53,
          "time": 105.18522199999998,
          "velocity": 0.6299212598425197,
          "duration": 1.4691363166666633
        },
        {
          "name": "D#3",
          "midi": 51,
          "time": 106.66670399999998,
          "velocity": 0.6299212598425197,
          "duration": 0.913580566666667
        },
        {
          "name": "D#3",
          "midi": 51,
          "time": 107.59263024999998,
          "velocity": 0.6299212598425197,
          "duration": 0.5432100666666599
        },
        {
          "name": "D#3",
          "midi": 51,
          "time": 108.14818599999998,
          "velocity": 0.6299212598425197,
          "duration": 1.4691363166666633
        },
        {
          "name": "D3",
          "midi": 50,
          "time": 109.62966799999998,
          "velocity": 0.6299212598425197,
          "duration": 2.950618316666663
        },
        {
          "name": "C#3",
          "midi": 49,
          "time": 114.81485499999998,
          "velocity": 0.6299212598425197,
          "duration": 0.7283953166666635
        },
        {
          "name": "D#3",
          "midi": 51,
          "time": 115.55559599999998,
          "velocity": 0.6299212598425197,
          "duration": 0.7283953166666635
        },
        {
          "name": "E3",
          "midi": 52,
          "time": 116.29633699999998,
          "velocity": 0.6299212598425197,
          "duration": 0.23456798333333495
        },
        {
          "name": "G3",
          "midi": 55,
          "time": 116.54325066666665,
          "velocity": 0.6299212598425197,
          "duration": 0.4814816500000063
        },
        {
          "name": "F3",
          "midi": 53,
          "time": 117.037078,
          "velocity": 0.6299212598425197,
          "duration": 0.7283953166666635
        },
        {
          "name": "G3",
          "midi": 55,
          "time": 117.777819,
          "velocity": 0.6299212598425197,
          "duration": 0.35802481666667063
        },
        {
          "name": "F#3",
          "midi": 54,
          "time": 118.1481895,
          "velocity": 0.6299212598425197,
          "duration": 0.35802481666667063
        },
        {
          "name": "F3",
          "midi": 53,
          "time": 118.51856000000001,
          "velocity": 0.6299212598425197,
          "duration": 1.4691363166666633
        },
        {
          "name": "F3",
          "midi": 53,
          "time": 120.00004200000001,
          "velocity": 0.6299212598425197,
          "duration": 1.4691363166666633
        },
        {
          "name": "F3",
          "midi": 53,
          "time": 121.48152400000001,
          "velocity": 0.6299212598425197,
          "duration": 1.0987658166666705
        },
        {
          "name": "E3",
          "midi": 52,
          "time": 122.96300600000001,
          "velocity": 0.6299212598425197,
          "duration": 1.4691363166666633
        },
        {
          "name": "A3",
          "midi": 57,
          "time": 124.444488,
          "velocity": 0.6299212598425197,
          "duration": 1.4691363166666633
        },
        {
          "name": "F3",
          "midi": 53,
          "time": 126.11115525000001,
          "velocity": 0.6299212598425197,
          "duration": 1.2839510666666598
        },
        {
          "name": "C4",
          "midi": 60,
          "time": 127.407452,
          "velocity": 0.6299212598425197,
          "duration": 0.7283953166666777
        },
        {
          "name": "A#3",
          "midi": 58,
          "time": 128.14819300000002,
          "velocity": 0.6299212598425197,
          "duration": 0.7283953166666777
        },
        {
          "name": "A3",
          "midi": 57,
          "time": 128.88893400000003,
          "velocity": 0.6299212598425197,
          "duration": 0.7283953166666777
        },
        {
          "name": "E3",
          "midi": 52,
          "time": 129.62967500000005,
          "velocity": 0.6299212598425197,
          "duration": 0.7283953166666777
        },
        {
          "name": "C3",
          "midi": 48,
          "time": 130.37041600000006,
          "velocity": 0.6299212598425197,
          "duration": 1.4691363166666633
        },
        {
          "name": "G3",
          "midi": 55,
          "time": 131.85189800000006,
          "velocity": 0.6299212598425197,
          "duration": 0.7283953166666777
        },
        {
          "name": "G3",
          "midi": 55,
          "time": 132.59263900000008,
          "velocity": 0.6299212598425197,
          "duration": 0.7283953166666777
        },
        {
          "name": "F3",
          "midi": 53,
          "time": 133.3333800000001,
          "velocity": 0.6299212598425197,
          "duration": 1.4691363166666633
        },
        {
          "name": "F3",
          "midi": 53,
          "time": 134.8148620000001,
          "velocity": 0.6299212598425197,
          "duration": 1.4691363166666633
        },
        {
          "name": "A#3",
          "midi": 58,
          "time": 137.7778260000001,
          "velocity": 0.6299212598425197,
          "duration": 0.7283953166666777
        },
        {
          "name": "A3",
          "midi": 57,
          "time": 138.5185670000001,
          "velocity": 0.6299212598425197,
          "duration": 0.7283953166666777
        },
        {
          "name": "E3",
          "midi": 52,
          "time": 139.30251789166678,
          "velocity": 0.6299212598425197,
          "duration": 1.425926425
        },
        {
          "name": "A3",
          "midi": 57,
          "time": 140.74079000000012,
          "velocity": 0.6299212598425197,
          "duration": 0.7283953166666777
        },
        {
          "name": "G#3",
          "midi": 56,
          "time": 141.48153100000013,
          "velocity": 0.6299212598425197,
          "duration": 0.7283953166666777
        },
        {
          "name": "G3",
          "midi": 55,
          "time": 142.22227200000015,
          "velocity": 0.6299212598425197,
          "duration": 0.7283953166666777
        },
        {
          "name": "D3",
          "midi": 50,
          "time": 142.96301300000016,
          "velocity": 0.6299212598425197,
          "duration": 0.7283953166666777
        },
        {
          "name": "F3",
          "midi": 53,
          "time": 143.70375400000017,
          "velocity": 0.6299212598425197,
          "duration": 0.7283953166666777
        },
        {
          "name": "C3",
          "midi": 48,
          "time": 144.4444950000002,
          "velocity": 0.6299212598425197,
          "duration": 0.7283953166666777
        },
        {
          "name": "G3",
          "midi": 55,
          "time": 145.1852360000002,
          "velocity": 0.6299212598425197,
          "duration": 0.7283953166666777
        },
        {
          "name": "G3",
          "midi": 55,
          "time": 145.92597700000022,
          "velocity": 0.6299212598425197,
          "duration": 0.7283953166666777
        },
        {
          "name": "F#3",
          "midi": 54,
          "time": 146.66671800000023,
          "velocity": 0.6299212598425197,
          "duration": 0.7283953166666777
        },
        {
          "name": "C4",
          "midi": 60,
          "time": 147.40745900000024,
          "velocity": 0.6299212598425197,
          "duration": 0.7283953166666777
        },
        {
          "name": "A3",
          "midi": 57,
          "time": 148.14820000000026,
          "velocity": 0.6299212598425197,
          "duration": 1.4691363166666633
        },
        {
          "name": "G3",
          "midi": 55,
          "time": 158.51857400000026,
          "velocity": 0.6299212598425197,
          "duration": 1.4691363166666633
        },
        {
          "name": "C3",
          "midi": 48,
          "time": 160.04326589166692,
          "velocity": 0.6299212598425197,
          "duration": 5.820989691666682
        }
      ],
      "controlChanges": {
        "7": [
          {
            "number": 7,
            "time": 0,
            "value": 0.7874015748031497
          }
        ],
        "10": [
          {
            "number": 10,
            "time": 0,
            "value": 0.7165354330708661
          }
        ],
        "64": [
          {
            "number": 64,
            "time": 160.00005600000026,
            "value": 1
          },
          {
            "number": 64,
            "time": 162.96302000000026,
            "value": 0
          }
        ],
        "91": [
          {
            "number": 91,
            "time": 0.740741,
            "value": 0.6299212598425197
          },
          {
            "number": 91,
            "time": 162.96302000000026,
            "value": 0
          }
        ],
        "93": [
          {
            "number": 93,
            "time": 0.740741,
            "value": 0.7874015748031497
          },
          {
            "number": 93,
            "time": 162.96302000000026,
            "value": 0
          }
        ]
      },
      "id": 5,
      "name": "Rhodes Piano 5",
      "instrumentNumber": 4,
      "instrument": "electric piano 1",
      "instrumentFamily": "piano",
      "channelNumber": 4,
      "isPercussion": false
    },
    {
      "startTime": 5.925928,
      "duration": 165.91363831666692,
      "length": 128,
      "notes": [
        {
          "name": "F2",
          "midi": 41,
          "time": 5.925928,
          "velocity": 0.6299212598425197,
          "duration": 1.4691363166666669
        },
        {
          "name": "A#3",
          "midi": 58,
          "time": 7.4074100000000005,
          "velocity": 0.6299212598425197,
          "duration": 1.4691363166666669
        },
        {
          "name": "A3",
          "midi": 57,
          "time": 8.888892,
          "velocity": 0.6299212598425197,
          "duration": 0.728395316666667
        },
        {
          "name": "G3",
          "midi": 55,
          "time": 9.629633,
          "velocity": 0.6299212598425197,
          "duration": 0.728395316666667
        },
        {
          "name": "F3",
          "midi": 53,
          "time": 10.370374,
          "velocity": 0.6299212598425197,
          "duration": 1.4691363166666669
        },
        {
          "name": "F2",
          "midi": 41,
          "time": 11.851856,
          "velocity": 0.6299212598425197,
          "duration": 1.4691363166666669
        },
        {
          "name": "E3",
          "midi": 52,
          "time": 13.333338,
          "velocity": 0.6299212598425197,
          "duration": 1.4691363166666669
        },
        {
          "name": "D3",
          "midi": 50,
          "time": 14.81482,
          "velocity": 0.6299212598425197,
          "duration": 0.728395316666667
        },
        {
          "name": "C3",
          "midi": 48,
          "time": 15.555560999999999,
          "velocity": 0.6299212598425197,
          "duration": 0.7283953166666652
        },
        {
          "name": "B2",
          "midi": 47,
          "time": 16.296301999999997,
          "velocity": 0.6299212598425197,
          "duration": 0.728395316666667
        },
        {
          "name": "A#2",
          "midi": 46,
          "time": 17.037042999999997,
          "velocity": 0.6299212598425197,
          "duration": 0.728395316666667
        },
        {
          "name": "F2",
          "midi": 41,
          "time": 17.777783999999997,
          "velocity": 0.6299212598425197,
          "duration": 1.4691363166666669
        },
        {
          "name": "G2",
          "midi": 43,
          "time": 19.259265999999997,
          "velocity": 0.6299212598425197,
          "duration": 1.4691363166666669
        },
        {
          "name": "A2",
          "midi": 45,
          "time": 20.740747999999996,
          "velocity": 0.6299212598425197,
          "duration": 1.4691363166666669
        },
        {
          "name": "B2",
          "midi": 47,
          "time": 22.222229999999996,
          "velocity": 0.6299212598425197,
          "duration": 1.4691363166666669
        },
        {
          "name": "A2",
          "midi": 45,
          "time": 23.703711999999996,
          "velocity": 0.6299212598425197,
          "duration": 1.4691363166666669
        },
        {
          "name": "A#2",
          "midi": 46,
          "time": 25.185193999999996,
          "velocity": 0.6299212598425197,
          "duration": 1.4691363166666669
        },
        {
          "name": "G#2",
          "midi": 44,
          "time": 26.666675999999995,
          "velocity": 0.6299212598425197,
          "duration": 1.4691363166666669
        },
        {
          "name": "F2",
          "midi": 41,
          "time": 29.629639999999995,
          "velocity": 0.6299212598425197,
          "duration": 1.4691363166666669
        },
        {
          "name": "A#2",
          "midi": 46,
          "time": 31.111121999999995,
          "velocity": 0.6299212598425197,
          "duration": 1.4691363166666633
        },
        {
          "name": "A3",
          "midi": 57,
          "time": 32.592603999999994,
          "velocity": 0.6299212598425197,
          "duration": 0.7283953166666635
        },
        {
          "name": "G3",
          "midi": 55,
          "time": 33.333344999999994,
          "velocity": 0.6299212598425197,
          "duration": 0.7283953166666635
        },
        {
          "name": "F3",
          "midi": 53,
          "time": 34.074085999999994,
          "velocity": 0.6299212598425197,
          "duration": 0.7283953166666635
        },
        {
          "name": "A3",
          "midi": 57,
          "time": 34.814826999999994,
          "velocity": 0.6299212598425197,
          "duration": 0.7283953166666635
        },
        {
          "name": "F2",
          "midi": 41,
          "time": 35.555567999999994,
          "velocity": 0.6299212598425197,
          "duration": 1.4691363166666633
        },
        {
          "name": "E3",
          "midi": 52,
          "time": 37.037049999999994,
          "velocity": 0.6299212598425197,
          "duration": 0.7283953166666635
        },
        {
          "name": "G3",
          "midi": 55,
          "time": 37.77779099999999,
          "velocity": 0.6299212598425197,
          "duration": 0.7283953166666635
        },
        {
          "name": "D3",
          "midi": 50,
          "time": 38.51853199999999,
          "velocity": 0.6299212598425197,
          "duration": 0.7283953166666635
        },
        {
          "name": "C3",
          "midi": 48,
          "time": 39.25927299999999,
          "velocity": 0.6299212598425197,
          "duration": 0.7283953166666635
        },
        {
          "name": "B2",
          "midi": 47,
          "time": 40.00001399999999,
          "velocity": 0.6299212598425197,
          "duration": 0.7283953166666635
        },
        {
          "name": "A#2",
          "midi": 46,
          "time": 40.74075499999999,
          "velocity": 0.6299212598425197,
          "duration": 0.7283953166666635
        },
        {
          "name": "A2",
          "midi": 45,
          "time": 41.48149599999999,
          "velocity": 0.6299212598425197,
          "duration": 1.4691363166666633
        },
        {
          "name": "G2",
          "midi": 43,
          "time": 42.96297799999999,
          "velocity": 0.6299212598425197,
          "duration": 1.4691363166666633
        },
        {
          "name": "A2",
          "midi": 45,
          "time": 44.44445999999999,
          "velocity": 0.6299212598425197,
          "duration": 1.4691363166666633
        },
        {
          "name": "B2",
          "midi": 47,
          "time": 45.92594199999999,
          "velocity": 0.6299212598425197,
          "duration": 1.4691363166666633
        },
        {
          "name": "A2",
          "midi": 45,
          "time": 47.40742399999999,
          "velocity": 0.6299212598425197,
          "duration": 1.4691363166666633
        },
        {
          "name": "G3",
          "midi": 55,
          "time": 48.88890599999999,
          "velocity": 0.6299212598425197,
          "duration": 0.3580248166666635
        },
        {
          "name": "A3",
          "midi": 57,
          "time": 49.25927649999999,
          "velocity": 0.6299212598425197,
          "duration": 0.3580248166666635
        },
        {
          "name": "G#3",
          "midi": 56,
          "time": 49.62964699999999,
          "velocity": 0.6299212598425197,
          "duration": 0.3580248166666635
        },
        {
          "name": "G3",
          "midi": 55,
          "time": 50.00001749999999,
          "velocity": 0.6299212598425197,
          "duration": 0.3580248166666635
        },
        {
          "name": "F2",
          "midi": 41,
          "time": 50.74075849999999,
          "velocity": 0.6299212598425197,
          "duration": 1.8395068166666633
        },
        {
          "name": "C3",
          "midi": 48,
          "time": 53.33335199999999,
          "velocity": 0.6299212598425197,
          "duration": 1.0987658166666634
        },
        {
          "name": "D#3",
          "midi": 51,
          "time": 54.44446349999999,
          "velocity": 0.6299212598425197,
          "duration": 1.8395068166666633
        },
        {
          "name": "D3",
          "midi": 50,
          "time": 56.29631599999999,
          "velocity": 0.6299212598425197,
          "duration": 1.4691363166666633
        },
        {
          "name": "F3",
          "midi": 53,
          "time": 57.77779799999999,
          "velocity": 0.6299212598425197,
          "duration": 1.4691363166666633
        },
        {
          "name": "C3",
          "midi": 48,
          "time": 59.25927999999999,
          "velocity": 0.6299212598425197,
          "duration": 1.4691363166666633
        },
        {
          "name": "D#3",
          "midi": 51,
          "time": 60.74076199999999,
          "velocity": 0.6299212598425197,
          "duration": 1.4691363166666633
        },
        {
          "name": "D3",
          "midi": 50,
          "time": 62.22224399999999,
          "velocity": 0.6299212598425197,
          "duration": 1.4691363166666633
        },
        {
          "name": "C4",
          "midi": 60,
          "time": 63.70372599999999,
          "velocity": 0.6299212598425197,
          "duration": 1.4691363166666633
        },
        {
          "name": "A#2",
          "midi": 46,
          "time": 65.18520799999999,
          "velocity": 0.6299212598425197,
          "duration": 2.950618316666663
        },
        {
          "name": "G#2",
          "midi": 44,
          "time": 68.14817199999999,
          "velocity": 0.6299212598425197,
          "duration": 2.950618316666663
        },
        {
          "name": "F3",
          "midi": 53,
          "time": 71.11113599999999,
          "velocity": 0.6299212598425197,
          "duration": 2.950618316666663
        },
        {
          "name": "E3",
          "midi": 52,
          "time": 74.07409999999999,
          "velocity": 0.6299212598425197,
          "duration": 2.950618316666663
        },
        {
          "name": "F2",
          "midi": 41,
          "time": 77.03706399999999,
          "velocity": 0.6299212598425197,
          "duration": 1.4691363166666633
        },
        {
          "name": "A#2",
          "midi": 46,
          "time": 78.51854599999999,
          "velocity": 0.6299212598425197,
          "duration": 1.4691363166666633
        },
        {
          "name": "A2",
          "midi": 45,
          "time": 80.00002799999999,
          "velocity": 0.6299212598425197,
          "duration": 0.7283953166666635
        },
        {
          "name": "G2",
          "midi": 43,
          "time": 80.74076899999999,
          "velocity": 0.6299212598425197,
          "duration": 0.7283953166666635
        },
        {
          "name": "F2",
          "midi": 41,
          "time": 81.48150999999999,
          "velocity": 0.6299212598425197,
          "duration": 1.4691363166666633
        },
        {
          "name": "F2",
          "midi": 41,
          "time": 82.96299199999999,
          "velocity": 0.6299212598425197,
          "duration": 1.4691363166666633
        },
        {
          "name": "E3",
          "midi": 52,
          "time": 84.44447399999999,
          "velocity": 0.6299212598425197,
          "duration": 0.7283953166666635
        },
        {
          "name": "G3",
          "midi": 55,
          "time": 85.18521499999999,
          "velocity": 0.6299212598425197,
          "duration": 0.7283953166666635
        },
        {
          "name": "D3",
          "midi": 50,
          "time": 85.92595599999999,
          "velocity": 0.6299212598425197,
          "duration": 0.7283953166666635
        },
        {
          "name": "C3",
          "midi": 48,
          "time": 86.66669699999998,
          "velocity": 0.6299212598425197,
          "duration": 0.7283953166666635
        },
        {
          "name": "B2",
          "midi": 47,
          "time": 87.40743799999998,
          "velocity": 0.6299212598425197,
          "duration": 0.7283953166666635
        },
        {
          "name": "A#2",
          "midi": 46,
          "time": 88.14817899999998,
          "velocity": 0.6299212598425197,
          "duration": 0.7283953166666635
        },
        {
          "name": "A2",
          "midi": 45,
          "time": 88.88891999999998,
          "velocity": 0.6299212598425197,
          "duration": 1.4691363166666633
        },
        {
          "name": "G2",
          "midi": 43,
          "time": 90.37040199999998,
          "velocity": 0.6299212598425197,
          "duration": 1.4691363166666633
        },
        {
          "name": "A2",
          "midi": 45,
          "time": 91.85188399999998,
          "velocity": 0.6299212598425197,
          "duration": 1.4691363166666633
        },
        {
          "name": "B2",
          "midi": 47,
          "time": 93.33336599999998,
          "velocity": 0.6299212598425197,
          "duration": 1.4691363166666633
        },
        {
          "name": "A2",
          "midi": 45,
          "time": 94.81484799999998,
          "velocity": 0.6299212598425197,
          "duration": 2.209877316666663
        },
        {
          "name": "C2",
          "midi": 36,
          "time": 97.03707099999998,
          "velocity": 0.6299212598425197,
          "duration": 0.7283953166666635
        },
        {
          "name": "F2",
          "midi": 41,
          "time": 97.77781199999998,
          "velocity": 0.6299212598425197,
          "duration": 2.950618316666663
        },
        {
          "name": "C3",
          "midi": 48,
          "time": 100.74077599999998,
          "velocity": 0.6299212598425197,
          "duration": 0.7283953166666635
        },
        {
          "name": "C2",
          "midi": 36,
          "time": 101.48151699999998,
          "velocity": 0.6299212598425197,
          "duration": 0.7283953166666635
        },
        {
          "name": "F2",
          "midi": 41,
          "time": 102.22225799999998,
          "velocity": 0.6299212598425197,
          "duration": 0.913580566666667
        },
        {
          "name": "D#3",
          "midi": 51,
          "time": 103.14818424999999,
          "velocity": 0.6299212598425197,
          "duration": 0.5432100666666599
        },
        {
          "name": "D2",
          "midi": 38,
          "time": 103.70373999999998,
          "velocity": 0.6299212598425197,
          "duration": 1.4691363166666633
        },
        {
          "name": "G2",
          "midi": 43,
          "time": 105.18522199999998,
          "velocity": 0.6299212598425197,
          "duration": 1.4691363166666633
        },
        {
          "name": "C3",
          "midi": 48,
          "time": 106.66670399999998,
          "velocity": 0.6299212598425197,
          "duration": 0.913580566666667
        },
        {
          "name": "C3",
          "midi": 48,
          "time": 107.59263024999998,
          "velocity": 0.6299212598425197,
          "duration": 0.5432100666666599
        },
        {
          "name": "F2",
          "midi": 41,
          "time": 108.14818599999998,
          "velocity": 0.6299212598425197,
          "duration": 1.4691363166666633
        },
        {
          "name": "A#2",
          "midi": 46,
          "time": 109.62966799999998,
          "velocity": 0.6299212598425197,
          "duration": 1.4691363166666633
        },
        {
          "name": "A#1",
          "midi": 34,
          "time": 111.11114999999998,
          "velocity": 0.6299212598425197,
          "duration": 1.2222226500000062
        },
        {
          "name": "F2",
          "midi": 41,
          "time": 112.34571833333332,
          "velocity": 0.6299212598425197,
          "duration": 0.23456798333333495
        },
        {
          "name": "A#2",
          "midi": 46,
          "time": 112.592632,
          "velocity": 0.6299212598425197,
          "duration": 1.4691363166666633
        },
        {
          "name": "D#2",
          "midi": 39,
          "time": 114.074114,
          "velocity": 0.6299212598425197,
          "duration": 1.4691363166666633
        },
        {
          "name": "G#2",
          "midi": 44,
          "time": 115.555596,
          "velocity": 0.6299212598425197,
          "duration": 1.4691363166666633
        },
        {
          "name": "G#2",
          "midi": 44,
          "time": 117.037078,
          "velocity": 0.6299212598425197,
          "duration": 1.0987658166666705
        },
        {
          "name": "G#2",
          "midi": 44,
          "time": 118.1481895,
          "velocity": 0.6299212598425197,
          "duration": 0.35802481666667063
        },
        {
          "name": "G2",
          "midi": 43,
          "time": 118.51856000000001,
          "velocity": 0.6299212598425197,
          "duration": 1.4691363166666633
        },
        {
          "name": "G2",
          "midi": 43,
          "time": 120.00004200000001,
          "velocity": 0.6299212598425197,
          "duration": 1.4691363166666633
        },
        {
          "name": "C3",
          "midi": 48,
          "time": 121.48152400000001,
          "velocity": 0.6299212598425197,
          "duration": 1.0987658166666705
        },
        {
          "name": "C#2",
          "midi": 37,
          "time": 122.59263550000001,
          "velocity": 0.6299212598425197,
          "duration": 0.35802481666667063
        },
        {
          "name": "C2",
          "midi": 36,
          "time": 122.96300600000002,
          "velocity": 0.6299212598425197,
          "duration": 1.4691363166666633
        },
        {
          "name": "F2",
          "midi": 41,
          "time": 124.44448800000002,
          "velocity": 0.6299212598425197,
          "duration": 1.4691363166666633
        },
        {
          "name": "A#2",
          "midi": 46,
          "time": 125.92597000000002,
          "velocity": 0.6299212598425197,
          "duration": 1.4691363166666633
        },
        {
          "name": "A3",
          "midi": 57,
          "time": 127.40745200000002,
          "velocity": 0.6299212598425197,
          "duration": 0.7283953166666635
        },
        {
          "name": "G3",
          "midi": 55,
          "time": 128.14819300000002,
          "velocity": 0.6299212598425197,
          "duration": 0.7283953166666777
        },
        {
          "name": "F3",
          "midi": 53,
          "time": 128.88893400000003,
          "velocity": 0.6299212598425197,
          "duration": 0.7283953166666777
        },
        {
          "name": "C3",
          "midi": 48,
          "time": 129.62967500000005,
          "velocity": 0.6299212598425197,
          "duration": 0.7283953166666777
        },
        {
          "name": "F2",
          "midi": 41,
          "time": 130.37041600000006,
          "velocity": 0.6299212598425197,
          "duration": 1.4691363166666633
        },
        {
          "name": "E2",
          "midi": 40,
          "time": 131.85189800000006,
          "velocity": 0.6299212598425197,
          "duration": 0.7283953166666777
        },
        {
          "name": "A2",
          "midi": 45,
          "time": 132.59263900000008,
          "velocity": 0.6299212598425197,
          "duration": 0.7283953166666777
        },
        {
          "name": "D3",
          "midi": 50,
          "time": 133.3333800000001,
          "velocity": 0.6299212598425197,
          "duration": 0.7283953166666777
        },
        {
          "name": "C3",
          "midi": 48,
          "time": 134.0741210000001,
          "velocity": 0.6299212598425197,
          "duration": 0.7283953166666777
        },
        {
          "name": "B2",
          "midi": 47,
          "time": 134.81486200000012,
          "velocity": 0.6299212598425197,
          "duration": 0.7283953166666777
        },
        {
          "name": "A#2",
          "midi": 46,
          "time": 135.55560300000013,
          "velocity": 0.6299212598425197,
          "duration": 0.7283953166666777
        },
        {
          "name": "A2",
          "midi": 45,
          "time": 136.29634400000015,
          "velocity": 0.6299212598425197,
          "duration": 1.4691363166666633
        },
        {
          "name": "G2",
          "midi": 43,
          "time": 137.77782600000015,
          "velocity": 0.6299212598425197,
          "duration": 0.7283953166666777
        },
        {
          "name": "A#2",
          "midi": 46,
          "time": 138.51856700000016,
          "velocity": 0.6299212598425197,
          "duration": 0.7283953166666777
        },
        {
          "name": "A2",
          "midi": 45,
          "time": 139.25930800000017,
          "velocity": 0.6299212598425197,
          "duration": 1.4691363166666633
        },
        {
          "name": "B2",
          "midi": 47,
          "time": 140.74079000000017,
          "velocity": 0.6299212598425197,
          "duration": 0.7283953166666777
        },
        {
          "name": "E2",
          "midi": 40,
          "time": 141.4815310000002,
          "velocity": 0.6299212598425197,
          "duration": 0.7283953166666777
        },
        {
          "name": "A2",
          "midi": 45,
          "time": 142.2222720000002,
          "velocity": 0.6299212598425197,
          "duration": 1.4691363166666633
        },
        {
          "name": "G2",
          "midi": 43,
          "time": 143.7037540000002,
          "velocity": 0.6299212598425197,
          "duration": 1.4691363166666633
        },
        {
          "name": "A2",
          "midi": 45,
          "time": 145.1852360000002,
          "velocity": 0.6299212598425197,
          "duration": 0.7283953166666777
        },
        {
          "name": "D#2",
          "midi": 39,
          "time": 145.92597700000022,
          "velocity": 0.6299212598425197,
          "duration": 0.7283953166666777
        },
        {
          "name": "D2",
          "midi": 38,
          "time": 146.66671800000023,
          "velocity": 0.6299212598425197,
          "duration": 0.7283953166666777
        },
        {
          "name": "D3",
          "midi": 50,
          "time": 147.40745900000024,
          "velocity": 0.6299212598425197,
          "duration": 0.7283953166666777
        },
        {
          "name": "G2",
          "midi": 43,
          "time": 148.14820000000026,
          "velocity": 0.6299212598425197,
          "duration": 1.4691363166666633
        },
        {
          "name": "C2",
          "midi": 36,
          "time": 149.62968200000026,
          "velocity": 0.6299212598425197,
          "duration": 1.4691363166666633
        },
        {
          "name": "B2",
          "midi": 47,
          "time": 151.11116400000026,
          "velocity": 0.6299212598425197,
          "duration": 1.4691363166666633
        },
        {
          "name": "A#2",
          "midi": 46,
          "time": 152.59264600000026,
          "velocity": 0.6299212598425197,
          "duration": 1.4691363166666633
        },
        {
          "name": "A2",
          "midi": 45,
          "time": 154.07412800000026,
          "velocity": 0.6299212598425197,
          "duration": 1.4691363166666633
        },
        {
          "name": "G#2",
          "midi": 44,
          "time": 155.55561000000026,
          "velocity": 0.6299212598425197,
          "duration": 1.4691363166666633
        },
        {
          "name": "G2",
          "midi": 43,
          "time": 157.03709200000026,
          "velocity": 0.6299212598425197,
          "duration": 1.4691363166666633
        },
        {
          "name": "C3",
          "midi": 48,
          "time": 158.51857400000026,
          "velocity": 0.6299212598425197,
          "duration": 1.4691363166666633
        },
        {
          "name": "F2",
          "midi": 41,
          "time": 160.00005600000026,
          "velocity": 0.6299212598425197,
          "duration": 5.913582316666663
        }
      ],
      "controlChanges": {
        "7": [
          {
            "number": 7,
            "time": 0,
            "value": 0.7874015748031497
          }
        ],
        "10": [
          {
            "number": 10,
            "time": 0,
            "value": 0.5039370078740157
          }
        ],
        "64": [
          {
            "number": 64,
            "time": 160.00005600000026,
            "value": 1
          },
          {
            "number": 64,
            "time": 162.96302000000026,
            "value": 0
          }
        ],
        "91": [
          {
            "number": 91,
            "time": 0.740741,
            "value": 0.6299212598425197
          },
          {
            "number": 91,
            "time": 162.96302000000026,
            "value": 0
          }
        ],
        "93": [
          {
            "number": 93,
            "time": 0.740741,
            "value": 0.7874015748031497
          },
          {
            "number": 93,
            "time": 162.96302000000026,
            "value": 0
          }
        ]
      },
      "id": 6,
      "name": "Rhodes Piano 6",
      "instrumentNumber": 4,
      "instrument": "electric piano 1",
      "instrumentFamily": "piano",
      "channelNumber": 5,
      "isPercussion": false
    },
    {
      "startTime": 5.925928,
      "duration": 165.913638316667,
      "length": 137,
      "notes": [
        {
          "name": "F2",
          "midi": 41,
          "time": 5.925928,
          "velocity": 0.6299212598425197,
          "duration": 1.4691363166666669
        },
        {
          "name": "A#2",
          "midi": 46,
          "time": 7.4074100000000005,
          "velocity": 0.6299212598425197,
          "duration": 1.4691363166666669
        },
        {
          "name": "A2",
          "midi": 45,
          "time": 8.888892,
          "velocity": 0.6299212598425197,
          "duration": 0.728395316666667
        },
        {
          "name": "G2",
          "midi": 43,
          "time": 9.629633,
          "velocity": 0.6299212598425197,
          "duration": 0.728395316666667
        },
        {
          "name": "F2",
          "midi": 41,
          "time": 10.370374,
          "velocity": 0.6299212598425197,
          "duration": 1.4691363166666669
        },
        {
          "name": "F2",
          "midi": 41,
          "time": 11.851856,
          "velocity": 0.6299212598425197,
          "duration": 1.4691363166666669
        },
        {
          "name": "E3",
          "midi": 52,
          "time": 13.333338,
          "velocity": 0.6299212598425197,
          "duration": 1.4691363166666669
        },
        {
          "name": "D3",
          "midi": 50,
          "time": 14.81482,
          "velocity": 0.6299212598425197,
          "duration": 0.728395316666667
        },
        {
          "name": "C3",
          "midi": 48,
          "time": 15.555560999999999,
          "velocity": 0.6299212598425197,
          "duration": 0.7283953166666652
        },
        {
          "name": "B2",
          "midi": 47,
          "time": 16.296301999999997,
          "velocity": 0.6299212598425197,
          "duration": 0.728395316666667
        },
        {
          "name": "A#2",
          "midi": 46,
          "time": 17.037042999999997,
          "velocity": 0.6299212598425197,
          "duration": 0.728395316666667
        },
        {
          "name": "F2",
          "midi": 41,
          "time": 17.777783999999997,
          "velocity": 0.6299212598425197,
          "duration": 1.4691363166666669
        },
        {
          "name": "G2",
          "midi": 43,
          "time": 19.259265999999997,
          "velocity": 0.6299212598425197,
          "duration": 1.4691363166666669
        },
        {
          "name": "A2",
          "midi": 45,
          "time": 20.740747999999996,
          "velocity": 0.6299212598425197,
          "duration": 1.4691363166666669
        },
        {
          "name": "B2",
          "midi": 47,
          "time": 22.222229999999996,
          "velocity": 0.6299212598425197,
          "duration": 1.4691363166666669
        },
        {
          "name": "A2",
          "midi": 45,
          "time": 23.703711999999996,
          "velocity": 0.6299212598425197,
          "duration": 1.4691363166666669
        },
        {
          "name": "A#2",
          "midi": 46,
          "time": 25.185193999999996,
          "velocity": 0.6299212598425197,
          "duration": 1.4691363166666669
        },
        {
          "name": "G#2",
          "midi": 44,
          "time": 26.666675999999995,
          "velocity": 0.6299212598425197,
          "duration": 1.4691363166666669
        },
        {
          "name": "G2",
          "midi": 43,
          "time": 28.148157999999995,
          "velocity": 0.6299212598425197,
          "duration": 1.4691363166666669
        },
        {
          "name": "F2",
          "midi": 41,
          "time": 29.629639999999995,
          "velocity": 0.6299212598425197,
          "duration": 1.4691363166666669
        },
        {
          "name": "A#2",
          "midi": 46,
          "time": 31.111121999999995,
          "velocity": 0.6299212598425197,
          "duration": 1.4691363166666633
        },
        {
          "name": "A2",
          "midi": 45,
          "time": 32.592603999999994,
          "velocity": 0.6299212598425197,
          "duration": 0.7283953166666635
        },
        {
          "name": "G2",
          "midi": 43,
          "time": 33.333344999999994,
          "velocity": 0.6299212598425197,
          "duration": 0.7283953166666635
        },
        {
          "name": "F2",
          "midi": 41,
          "time": 34.074085999999994,
          "velocity": 0.6299212598425197,
          "duration": 0.7283953166666635
        },
        {
          "name": "C2",
          "midi": 36,
          "time": 34.814826999999994,
          "velocity": 0.6299212598425197,
          "duration": 0.7283953166666635
        },
        {
          "name": "F2",
          "midi": 41,
          "time": 35.555567999999994,
          "velocity": 0.6299212598425197,
          "duration": 1.4691363166666633
        },
        {
          "name": "E2",
          "midi": 40,
          "time": 37.037049999999994,
          "velocity": 0.6299212598425197,
          "duration": 0.7283953166666635
        },
        {
          "name": "A2",
          "midi": 45,
          "time": 37.77779099999999,
          "velocity": 0.6299212598425197,
          "duration": 0.7283953166666635
        },
        {
          "name": "D2",
          "midi": 38,
          "time": 38.51853199999999,
          "velocity": 0.6299212598425197,
          "duration": 0.7283953166666635
        },
        {
          "name": "C2",
          "midi": 36,
          "time": 39.25927299999999,
          "velocity": 0.6299212598425197,
          "duration": 0.7283953166666635
        },
        {
          "name": "B2",
          "midi": 47,
          "time": 40.00001399999999,
          "velocity": 0.6299212598425197,
          "duration": 0.7283953166666635
        },
        {
          "name": "A#2",
          "midi": 46,
          "time": 40.74075499999999,
          "velocity": 0.6299212598425197,
          "duration": 0.7283953166666635
        },
        {
          "name": "A2",
          "midi": 45,
          "time": 41.48149599999999,
          "velocity": 0.6299212598425197,
          "duration": 1.4691363166666633
        },
        {
          "name": "G2",
          "midi": 43,
          "time": 42.96297799999999,
          "velocity": 0.6299212598425197,
          "duration": 1.4691363166666633
        },
        {
          "name": "F2",
          "midi": 41,
          "time": 44.44445999999999,
          "velocity": 0.6299212598425197,
          "duration": 1.4691363166666633
        },
        {
          "name": "B2",
          "midi": 47,
          "time": 45.92594199999999,
          "velocity": 0.6299212598425197,
          "duration": 1.4691363166666633
        },
        {
          "name": "A2",
          "midi": 45,
          "time": 47.40742399999999,
          "velocity": 0.6299212598425197,
          "duration": 1.4691363166666633
        },
        {
          "name": "G2",
          "midi": 43,
          "time": 48.88890599999999,
          "velocity": 0.6299212598425197,
          "duration": 0.3580248166666635
        },
        {
          "name": "A2",
          "midi": 45,
          "time": 49.25927649999999,
          "velocity": 0.6299212598425197,
          "duration": 0.3580248166666635
        },
        {
          "name": "G#2",
          "midi": 44,
          "time": 49.62964699999999,
          "velocity": 0.6299212598425197,
          "duration": 0.3580248166666635
        },
        {
          "name": "G2",
          "midi": 43,
          "time": 50.00001749999999,
          "velocity": 0.6299212598425197,
          "duration": 0.3580248166666635
        },
        {
          "name": "F2",
          "midi": 41,
          "time": 50.74075849999999,
          "velocity": 0.6299212598425197,
          "duration": 1.8395068166666633
        },
        {
          "name": "C2",
          "midi": 36,
          "time": 53.33335199999999,
          "velocity": 0.6299212598425197,
          "duration": 1.0987658166666634
        },
        {
          "name": "D#2",
          "midi": 39,
          "time": 54.44446349999999,
          "velocity": 0.6299212598425197,
          "duration": 1.8395068166666633
        },
        {
          "name": "D2",
          "midi": 38,
          "time": 56.29631599999999,
          "velocity": 0.6299212598425197,
          "duration": 1.4691363166666633
        },
        {
          "name": "G2",
          "midi": 43,
          "time": 57.77779799999999,
          "velocity": 0.6299212598425197,
          "duration": 1.4691363166666633
        },
        {
          "name": "C2",
          "midi": 36,
          "time": 59.25927999999999,
          "velocity": 0.6299212598425197,
          "duration": 1.4691363166666633
        },
        {
          "name": "F2",
          "midi": 41,
          "time": 60.74076199999999,
          "velocity": 0.6299212598425197,
          "duration": 1.4691363166666633
        },
        {
          "name": "A#1",
          "midi": 34,
          "time": 62.22224399999999,
          "velocity": 0.6299212598425197,
          "duration": 1.4691363166666633
        },
        {
          "name": "A#2",
          "midi": 46,
          "time": 63.70372599999999,
          "velocity": 0.6299212598425197,
          "duration": 1.4691363166666633
        },
        {
          "name": "A#2",
          "midi": 46,
          "time": 65.18520799999999,
          "velocity": 0.6299212598425197,
          "duration": 1.4691363166666633
        },
        {
          "name": "D#2",
          "midi": 39,
          "time": 66.66668999999999,
          "velocity": 0.6299212598425197,
          "duration": 1.4691363166666633
        },
        {
          "name": "G#2",
          "midi": 44,
          "time": 68.14817199999999,
          "velocity": 0.6299212598425197,
          "duration": 2.950618316666663
        },
        {
          "name": "G2",
          "midi": 43,
          "time": 71.11113599999999,
          "velocity": 0.6299212598425197,
          "duration": 1.4691363166666633
        },
        {
          "name": "C#2",
          "midi": 37,
          "time": 72.59261799999999,
          "velocity": 0.6299212598425197,
          "duration": 1.4691363166666633
        },
        {
          "name": "C2",
          "midi": 36,
          "time": 74.07409999999999,
          "velocity": 0.6299212598425197,
          "duration": 2.950618316666663
        },
        {
          "name": "F2",
          "midi": 41,
          "time": 77.03706399999999,
          "velocity": 0.6299212598425197,
          "duration": 1.4691363166666633
        },
        {
          "name": "A#2",
          "midi": 46,
          "time": 78.51854599999999,
          "velocity": 0.6299212598425197,
          "duration": 1.4691363166666633
        },
        {
          "name": "A2",
          "midi": 45,
          "time": 80.00002799999999,
          "velocity": 0.6299212598425197,
          "duration": 0.7283953166666635
        },
        {
          "name": "G2",
          "midi": 43,
          "time": 80.74076899999999,
          "velocity": 0.6299212598425197,
          "duration": 0.7283953166666635
        },
        {
          "name": "F2",
          "midi": 41,
          "time": 81.48150999999999,
          "velocity": 0.6299212598425197,
          "duration": 1.4691363166666633
        },
        {
          "name": "F2",
          "midi": 41,
          "time": 82.96299199999999,
          "velocity": 0.6299212598425197,
          "duration": 1.4691363166666633
        },
        {
          "name": "E3",
          "midi": 52,
          "time": 84.44447399999999,
          "velocity": 0.6299212598425197,
          "duration": 0.7283953166666635
        },
        {
          "name": "G3",
          "midi": 55,
          "time": 85.18521499999999,
          "velocity": 0.6299212598425197,
          "duration": 0.7283953166666635
        },
        {
          "name": "D3",
          "midi": 50,
          "time": 85.92595599999999,
          "velocity": 0.6299212598425197,
          "duration": 0.7283953166666635
        },
        {
          "name": "C3",
          "midi": 48,
          "time": 86.66669699999998,
          "velocity": 0.6299212598425197,
          "duration": 0.7283953166666635
        },
        {
          "name": "B2",
          "midi": 47,
          "time": 87.40743799999998,
          "velocity": 0.6299212598425197,
          "duration": 0.7283953166666635
        },
        {
          "name": "A#2",
          "midi": 46,
          "time": 88.14817899999998,
          "velocity": 0.6299212598425197,
          "duration": 0.7283953166666635
        },
        {
          "name": "A2",
          "midi": 45,
          "time": 88.88891999999998,
          "velocity": 0.6299212598425197,
          "duration": 1.4691363166666633
        },
        {
          "name": "G2",
          "midi": 43,
          "time": 90.37040199999998,
          "velocity": 0.6299212598425197,
          "duration": 1.4691363166666633
        },
        {
          "name": "F2",
          "midi": 41,
          "time": 91.85188399999998,
          "velocity": 0.6299212598425197,
          "duration": 1.4691363166666633
        },
        {
          "name": "B2",
          "midi": 47,
          "time": 93.33336599999998,
          "velocity": 0.6299212598425197,
          "duration": 0.7283953166666635
        },
        {
          "name": "A#2",
          "midi": 46,
          "time": 94.07410699999998,
          "velocity": 0.6299212598425197,
          "duration": 0.7283953166666635
        },
        {
          "name": "A2",
          "midi": 45,
          "time": 94.81484799999998,
          "velocity": 0.6299212598425197,
          "duration": 0.7283953166666635
        },
        {
          "name": "D2",
          "midi": 38,
          "time": 95.55558899999998,
          "velocity": 0.6299212598425197,
          "duration": 0.7283953166666635
        },
        {
          "name": "G2",
          "midi": 43,
          "time": 96.29632999999998,
          "velocity": 0.6299212598425197,
          "duration": 0.7283953166666635
        },
        {
          "name": "C2",
          "midi": 36,
          "time": 97.03707099999998,
          "velocity": 0.6299212598425197,
          "duration": 0.7283953166666635
        },
        {
          "name": "F2",
          "midi": 41,
          "time": 97.77781199999998,
          "velocity": 0.6299212598425197,
          "duration": 2.950618316666663
        },
        {
          "name": "C3",
          "midi": 48,
          "time": 100.74077599999998,
          "velocity": 0.6299212598425197,
          "duration": 0.7283953166666635
        },
        {
          "name": "C2",
          "midi": 36,
          "time": 101.48151699999998,
          "velocity": 0.6299212598425197,
          "duration": 0.7283953166666635
        },
        {
          "name": "F2",
          "midi": 41,
          "time": 102.22225799999998,
          "velocity": 0.6299212598425197,
          "duration": 0.913580566666667
        },
        {
          "name": "D#3",
          "midi": 51,
          "time": 103.14818424999999,
          "velocity": 0.6299212598425197,
          "duration": 0.5432100666666599
        },
        {
          "name": "D2",
          "midi": 38,
          "time": 103.70373999999998,
          "velocity": 0.6299212598425197,
          "duration": 1.4691363166666633
        },
        {
          "name": "G2",
          "midi": 43,
          "time": 105.18522199999998,
          "velocity": 0.6299212598425197,
          "duration": 1.4691363166666633
        },
        {
          "name": "C3",
          "midi": 48,
          "time": 106.66670399999998,
          "velocity": 0.6299212598425197,
          "duration": 0.913580566666667
        },
        {
          "name": "C3",
          "midi": 48,
          "time": 107.59263024999998,
          "velocity": 0.6299212598425197,
          "duration": 0.5432100666666599
        },
        {
          "name": "F2",
          "midi": 41,
          "time": 108.14818599999998,
          "velocity": 0.6299212598425197,
          "duration": 1.4691363166666633
        },
        {
          "name": "A#2",
          "midi": 46,
          "time": 109.62966799999998,
          "velocity": 0.6299212598425197,
          "duration": 1.4691363166666633
        },
        {
          "name": "A#1",
          "midi": 34,
          "time": 111.11114999999998,
          "velocity": 0.6299212598425197,
          "duration": 1.2222226500000062
        },
        {
          "name": "F2",
          "midi": 41,
          "time": 112.34571833333332,
          "velocity": 0.6299212598425197,
          "duration": 0.23456798333333495
        },
        {
          "name": "A#2",
          "midi": 46,
          "time": 112.592632,
          "velocity": 0.6299212598425197,
          "duration": 1.4691363166666633
        },
        {
          "name": "D#2",
          "midi": 39,
          "time": 114.074114,
          "velocity": 0.6299212598425197,
          "duration": 1.4691363166666633
        },
        {
          "name": "G#2",
          "midi": 44,
          "time": 115.555596,
          "velocity": 0.6299212598425197,
          "duration": 1.4691363166666633
        },
        {
          "name": "G#2",
          "midi": 44,
          "time": 117.037078,
          "velocity": 0.6299212598425197,
          "duration": 1.0987658166666705
        },
        {
          "name": "G#2",
          "midi": 44,
          "time": 118.1481895,
          "velocity": 0.6299212598425197,
          "duration": 0.35802481666667063
        },
        {
          "name": "G2",
          "midi": 43,
          "time": 118.51856000000001,
          "velocity": 0.6299212598425197,
          "duration": 1.4691363166666633
        },
        {
          "name": "G2",
          "midi": 43,
          "time": 120.00004200000001,
          "velocity": 0.6299212598425197,
          "duration": 1.4691363166666633
        },
        {
          "name": "C3",
          "midi": 48,
          "time": 121.48152400000001,
          "velocity": 0.6299212598425197,
          "duration": 1.0987658166666705
        },
        {
          "name": "C#2",
          "midi": 37,
          "time": 122.59263550000001,
          "velocity": 0.6299212598425197,
          "duration": 0.35802481666667063
        },
        {
          "name": "C2",
          "midi": 36,
          "time": 122.96300600000002,
          "velocity": 0.6299212598425197,
          "duration": 1.4691363166666633
        },
        {
          "name": "F2",
          "midi": 41,
          "time": 124.44448800000002,
          "velocity": 0.6299212598425197,
          "duration": 1.4691363166666633
        },
        {
          "name": "A#2",
          "midi": 46,
          "time": 125.92597000000002,
          "velocity": 0.6299212598425197,
          "duration": 1.4691363166666633
        },
        {
          "name": "A2",
          "midi": 45,
          "time": 127.40745200000002,
          "velocity": 0.6299212598425197,
          "duration": 0.7283953166666635
        },
        {
          "name": "G2",
          "midi": 43,
          "time": 128.14819300000002,
          "velocity": 0.6299212598425197,
          "duration": 0.7283953166666777
        },
        {
          "name": "F2",
          "midi": 41,
          "time": 128.88893400000003,
          "velocity": 0.6299212598425197,
          "duration": 0.7283953166666777
        },
        {
          "name": "C2",
          "midi": 36,
          "time": 129.62967500000005,
          "velocity": 0.6299212598425197,
          "duration": 0.7283953166666777
        },
        {
          "name": "F2",
          "midi": 41,
          "time": 130.37041600000006,
          "velocity": 0.6299212598425197,
          "duration": 1.4691363166666633
        },
        {
          "name": "E2",
          "midi": 40,
          "time": 131.85189800000006,
          "velocity": 0.6299212598425197,
          "duration": 0.7283953166666777
        },
        {
          "name": "A2",
          "midi": 45,
          "time": 132.59263900000008,
          "velocity": 0.6299212598425197,
          "duration": 0.7283953166666777
        },
        {
          "name": "D3",
          "midi": 50,
          "time": 133.3333800000001,
          "velocity": 0.6299212598425197,
          "duration": 0.7283953166666777
        },
        {
          "name": "C3",
          "midi": 48,
          "time": 134.0741210000001,
          "velocity": 0.6299212598425197,
          "duration": 0.7283953166666777
        },
        {
          "name": "B2",
          "midi": 47,
          "time": 134.81486200000012,
          "velocity": 0.6299212598425197,
          "duration": 0.7283953166666777
        },
        {
          "name": "A#2",
          "midi": 46,
          "time": 135.55560300000013,
          "velocity": 0.6299212598425197,
          "duration": 0.7283953166666777
        },
        {
          "name": "A2",
          "midi": 45,
          "time": 136.29634400000015,
          "velocity": 0.6299212598425197,
          "duration": 1.4691363166666633
        },
        {
          "name": "G2",
          "midi": 43,
          "time": 137.77782600000015,
          "velocity": 0.6299212598425197,
          "duration": 0.7283953166666777
        },
        {
          "name": "A#1",
          "midi": 34,
          "time": 138.51856700000016,
          "velocity": 0.6299212598425197,
          "duration": 0.7283953166666777
        },
        {
          "name": "A1",
          "midi": 33,
          "time": 139.25930800000017,
          "velocity": 0.6299212598425197,
          "duration": 1.4691363166666633
        },
        {
          "name": "B1",
          "midi": 35,
          "time": 140.74079000000017,
          "velocity": 0.6299212598425197,
          "duration": 0.7283953166666777
        },
        {
          "name": "E2",
          "midi": 40,
          "time": 141.4815310000002,
          "velocity": 0.6299212598425197,
          "duration": 0.7283953166666777
        },
        {
          "name": "A2",
          "midi": 45,
          "time": 142.2222720000002,
          "velocity": 0.6299212598425197,
          "duration": 0.7283953166666777
        },
        {
          "name": "D2",
          "midi": 38,
          "time": 142.96301300000022,
          "velocity": 0.6299212598425197,
          "duration": 0.7283953166666777
        },
        {
          "name": "G1",
          "midi": 31,
          "time": 143.70375400000023,
          "velocity": 0.6299212598425197,
          "duration": 0.7283953166666777
        },
        {
          "name": "C2",
          "midi": 36,
          "time": 144.44449500000024,
          "velocity": 0.6299212598425197,
          "duration": 0.7283953166666777
        },
        {
          "name": "A2",
          "midi": 45,
          "time": 145.18523600000026,
          "velocity": 0.6299212598425197,
          "duration": 0.7283953166666777
        },
        {
          "name": "D#2",
          "midi": 39,
          "time": 145.92597700000027,
          "velocity": 0.6299212598425197,
          "duration": 0.7283953166666777
        },
        {
          "name": "D2",
          "midi": 38,
          "time": 146.6667180000003,
          "velocity": 0.6299212598425197,
          "duration": 0.7283953166666777
        },
        {
          "name": "D3",
          "midi": 50,
          "time": 147.4074590000003,
          "velocity": 0.6299212598425197,
          "duration": 0.7283953166666777
        },
        {
          "name": "G2",
          "midi": 43,
          "time": 148.14820000000032,
          "velocity": 0.6299212598425197,
          "duration": 1.4691363166666633
        },
        {
          "name": "C2",
          "midi": 36,
          "time": 149.62968200000032,
          "velocity": 0.6299212598425197,
          "duration": 1.4691363166666633
        },
        {
          "name": "B2",
          "midi": 47,
          "time": 151.11116400000031,
          "velocity": 0.6299212598425197,
          "duration": 1.4691363166666633
        },
        {
          "name": "A#2",
          "midi": 46,
          "time": 152.59264600000031,
          "velocity": 0.6299212598425197,
          "duration": 1.4691363166666633
        },
        {
          "name": "A2",
          "midi": 45,
          "time": 154.07412800000031,
          "velocity": 0.6299212598425197,
          "duration": 1.4691363166666633
        },
        {
          "name": "G#2",
          "midi": 44,
          "time": 155.5556100000003,
          "velocity": 0.6299212598425197,
          "duration": 1.4691363166666633
        },
        {
          "name": "G2",
          "midi": 43,
          "time": 157.0370920000003,
          "velocity": 0.6299212598425197,
          "duration": 1.4691363166666633
        },
        {
          "name": "C3",
          "midi": 48,
          "time": 158.5185740000003,
          "velocity": 0.6299212598425197,
          "duration": 0.7283953166666777
        },
        {
          "name": "C2",
          "midi": 36,
          "time": 159.25931500000033,
          "velocity": 0.6299212598425197,
          "duration": 0.7283953166666777
        },
        {
          "name": "F1",
          "midi": 29,
          "time": 160.00005600000034,
          "velocity": 0.7874015748031497,
          "duration": 5.913582316666663
        }
      ],
      "controlChanges": {
        "7": [
          {
            "number": 7,
            "time": 0,
            "value": 0.8661417322834646
          }
        ],
        "10": [
          {
            "number": 10,
            "time": 0,
            "value": 0
          }
        ],
        "64": [
          {
            "number": 64,
            "time": 160.00005600000034,
            "value": 1
          },
          {
            "number": 64,
            "time": 162.96302000000034,
            "value": 0
          }
        ],
        "91": [
          {
            "number": 91,
            "time": 0.740741,
            "value": 0.15748031496062992
          },
          {
            "number": 91,
            "time": 162.96302000000034,
            "value": 0
          }
        ],
        "93": [
          {
            "number": 93,
            "time": 0.740741,
            "value": 0.7874015748031497
          },
          {
            "number": 93,
            "time": 162.96302000000034,
            "value": 0
          }
        ]
      },
      "id": 7,
      "name": "Fretless Bass",
      "instrumentNumber": 50,
      "instrument": "synthstrings 1",
      "instrumentFamily": "ensemble",
      "channelNumber": 6,
      "isPercussion": false
    },
    {
      "startTime": 2.962964,
      "duration": 162.85808169166762,
      "length": 377,
      "notes": [
        {
          "name": "C5",
          "midi": 72,
          "time": 2.962964,
          "velocity": 0.5905511811023622,
          "duration": 0.7283953166666666
        },
        {
          "name": "A5",
          "midi": 81,
          "time": 3.703705,
          "velocity": 0.5905511811023622,
          "duration": 0.7283953166666666
        },
        {
          "name": "A6",
          "midi": 93,
          "time": 4.444446,
          "velocity": 0.5905511811023622,
          "duration": 0.7283953166666661
        },
        {
          "name": "A7",
          "midi": 105,
          "time": 5.185187,
          "velocity": 0.5905511811023622,
          "duration": 0.5432100666666662
        },
        {
          "name": "C5",
          "midi": 72,
          "time": 5.74074275,
          "velocity": 0.5905511811023622,
          "duration": 0.17283956666666622
        },
        {
          "name": "F5",
          "midi": 77,
          "time": 5.925928,
          "velocity": 0.5905511811023622,
          "duration": 1.098765816666667
        },
        {
          "name": "F6",
          "midi": 89,
          "time": 7.037039500000001,
          "velocity": 0.5905511811023622,
          "duration": 0.3580248166666671
        },
        {
          "name": "E6",
          "midi": 88,
          "time": 7.407410000000001,
          "velocity": 0.5905511811023622,
          "duration": 0.3580248166666662
        },
        {
          "name": "D6",
          "midi": 86,
          "time": 7.777780500000001,
          "velocity": 0.5905511811023622,
          "duration": 0.3580248166666662
        },
        {
          "name": "C6",
          "midi": 84,
          "time": 8.148151,
          "velocity": 0.5905511811023622,
          "duration": 0.3580248166666671
        },
        {
          "name": "A#5",
          "midi": 82,
          "time": 8.5185215,
          "velocity": 0.5905511811023622,
          "duration": 0.3580248166666671
        },
        {
          "name": "A5",
          "midi": 81,
          "time": 8.888892,
          "velocity": 0.5905511811023622,
          "duration": 0.3580248166666671
        },
        {
          "name": "A5",
          "midi": 81,
          "time": 9.2592625,
          "velocity": 0.5905511811023622,
          "duration": 0.3580248166666671
        },
        {
          "name": "A5",
          "midi": 81,
          "time": 9.629633,
          "velocity": 0.5905511811023622,
          "duration": 1.4691363166666669
        },
        {
          "name": "C5",
          "midi": 72,
          "time": 11.111115,
          "velocity": 0.5905511811023622,
          "duration": 0.728395316666667
        },
        {
          "name": "F5",
          "midi": 77,
          "time": 11.851856,
          "velocity": 0.5905511811023622,
          "duration": 1.098765816666667
        },
        {
          "name": "D6",
          "midi": 86,
          "time": 12.9629675,
          "velocity": 0.5905511811023622,
          "duration": 0.3580248166666671
        },
        {
          "name": "C6",
          "midi": 84,
          "time": 13.333338,
          "velocity": 0.5905511811023622,
          "duration": 0.3580248166666671
        },
        {
          "name": "A#5",
          "midi": 82,
          "time": 13.7037085,
          "velocity": 0.5905511811023622,
          "duration": 0.3580248166666671
        },
        {
          "name": "A5",
          "midi": 81,
          "time": 14.074079,
          "velocity": 0.5905511811023622,
          "duration": 0.3580248166666671
        },
        {
          "name": "G5",
          "midi": 79,
          "time": 14.4444495,
          "velocity": 0.5905511811023622,
          "duration": 0.3580248166666671
        },
        {
          "name": "F5",
          "midi": 77,
          "time": 14.81482,
          "velocity": 0.5905511811023622,
          "duration": 1.469136316666665
        },
        {
          "name": "A5",
          "midi": 81,
          "time": 16.296301999999997,
          "velocity": 0.5905511811023622,
          "duration": 0.3580248166666671
        },
        {
          "name": "G5",
          "midi": 79,
          "time": 16.666672499999997,
          "velocity": 0.5905511811023622,
          "duration": 0.3580248166666671
        },
        {
          "name": "G5",
          "midi": 79,
          "time": 17.037042999999997,
          "velocity": 0.5905511811023622,
          "duration": 0.543210066666667
        },
        {
          "name": "C5",
          "midi": 72,
          "time": 17.592598749999997,
          "velocity": 0.5905511811023622,
          "duration": 0.1728395666666671
        },
        {
          "name": "F5",
          "midi": 77,
          "time": 17.777783999999997,
          "velocity": 0.5905511811023622,
          "duration": 0.728395316666667
        },
        {
          "name": "E5",
          "midi": 76,
          "time": 18.518524999999997,
          "velocity": 0.5905511811023622,
          "duration": 0.3580248166666671
        },
        {
          "name": "F5",
          "midi": 77,
          "time": 18.888895499999997,
          "velocity": 0.5905511811023622,
          "duration": 0.3580248166666671
        },
        {
          "name": "G5",
          "midi": 79,
          "time": 19.259265999999997,
          "velocity": 0.5905511811023622,
          "duration": 0.728395316666667
        },
        {
          "name": "F5",
          "midi": 77,
          "time": 20.000006999999997,
          "velocity": 0.5905511811023622,
          "duration": 0.3580248166666671
        },
        {
          "name": "G5",
          "midi": 79,
          "time": 20.370377499999996,
          "velocity": 0.5905511811023622,
          "duration": 0.3580248166666671
        },
        {
          "name": "A5",
          "midi": 81,
          "time": 20.740747999999996,
          "velocity": 0.5905511811023622,
          "duration": 0.728395316666667
        },
        {
          "name": "C6",
          "midi": 84,
          "time": 21.481488999999996,
          "velocity": 0.5905511811023622,
          "duration": 0.3580248166666671
        },
        {
          "name": "D6",
          "midi": 86,
          "time": 21.851859499999996,
          "velocity": 0.5905511811023622,
          "duration": 0.3580248166666671
        },
        {
          "name": "E6",
          "midi": 88,
          "time": 22.222229999999996,
          "velocity": 0.5905511811023622,
          "duration": 1.098765816666667
        },
        {
          "name": "D6",
          "midi": 86,
          "time": 23.333341499999996,
          "velocity": 0.5905511811023622,
          "duration": 0.3580248166666671
        },
        {
          "name": "C#6",
          "midi": 85,
          "time": 23.703711999999996,
          "velocity": 0.5905511811023622,
          "duration": 0.728395316666667
        },
        {
          "name": "C#6",
          "midi": 85,
          "time": 24.444452999999996,
          "velocity": 0.5905511811023622,
          "duration": 0.728395316666667
        },
        {
          "name": "D#6",
          "midi": 87,
          "time": 25.185193999999996,
          "velocity": 0.5905511811023622,
          "duration": 0.3580248166666671
        },
        {
          "name": "C#6",
          "midi": 85,
          "time": 25.555564499999996,
          "velocity": 0.5905511811023622,
          "duration": 0.3580248166666671
        },
        {
          "name": "C6",
          "midi": 84,
          "time": 25.925934999999996,
          "velocity": 0.5905511811023622,
          "duration": 0.3580248166666671
        },
        {
          "name": "A#5",
          "midi": 82,
          "time": 26.296305499999995,
          "velocity": 0.5905511811023622,
          "duration": 0.3580248166666671
        },
        {
          "name": "C6",
          "midi": 84,
          "time": 26.666675999999995,
          "velocity": 0.5905511811023622,
          "duration": 0.728395316666667
        },
        {
          "name": "G#5",
          "midi": 80,
          "time": 27.407416999999995,
          "velocity": 0.5905511811023622,
          "duration": 0.3580248166666671
        },
        {
          "name": "A#5",
          "midi": 82,
          "time": 27.777787499999995,
          "velocity": 0.5905511811023622,
          "duration": 0.3580248166666671
        },
        {
          "name": "C6",
          "midi": 84,
          "time": 28.148157999999995,
          "velocity": 0.5905511811023622,
          "duration": 0.3580248166666671
        },
        {
          "name": "A#5",
          "midi": 82,
          "time": 28.518528499999995,
          "velocity": 0.5905511811023622,
          "duration": 0.3580248166666671
        },
        {
          "name": "G#5",
          "midi": 80,
          "time": 28.888898999999995,
          "velocity": 0.5905511811023622,
          "duration": 0.03703704999999857
        },
        {
          "name": "A5",
          "midi": 81,
          "time": 28.93210889166666,
          "velocity": 0.5905511811023622,
          "duration": 0.5000001750000003
        },
        {
          "name": "A5",
          "midi": 81,
          "time": 29.444454749999995,
          "velocity": 0.5905511811023622,
          "duration": 0.08024694166666535
        },
        {
          "name": "G5",
          "midi": 79,
          "time": 29.537047374999993,
          "velocity": 0.5905511811023622,
          "duration": 0.08024694166666535
        },
        {
          "name": "F5",
          "midi": 77,
          "time": 29.62963999999999,
          "velocity": 0.5905511811023622,
          "duration": 1.098765816666667
        },
        {
          "name": "F6",
          "midi": 89,
          "time": 30.74075149999999,
          "velocity": 0.5905511811023622,
          "duration": 0.3580248166666671
        },
        {
          "name": "E6",
          "midi": 88,
          "time": 31.11112199999999,
          "velocity": 0.5905511811023622,
          "duration": 0.3580248166666671
        },
        {
          "name": "D6",
          "midi": 86,
          "time": 31.48149249999999,
          "velocity": 0.5905511811023622,
          "duration": 0.3580248166666671
        },
        {
          "name": "C6",
          "midi": 84,
          "time": 31.85186299999999,
          "velocity": 0.5905511811023622,
          "duration": 0.3580248166666671
        },
        {
          "name": "A#5",
          "midi": 82,
          "time": 32.222233499999994,
          "velocity": 0.5905511811023622,
          "duration": 0.3580248166666635
        },
        {
          "name": "A5",
          "midi": 81,
          "time": 32.592603999999994,
          "velocity": 0.5905511811023622,
          "duration": 0.3580248166666635
        },
        {
          "name": "A5",
          "midi": 81,
          "time": 32.962974499999994,
          "velocity": 0.5905511811023622,
          "duration": 0.3580248166666635
        },
        {
          "name": "A5",
          "midi": 81,
          "time": 33.333344999999994,
          "velocity": 0.5905511811023622,
          "duration": 1.8395068166666633
        },
        {
          "name": "C5",
          "midi": 72,
          "time": 35.185197499999994,
          "velocity": 0.5905511811023622,
          "duration": 0.3580248166666635
        },
        {
          "name": "F5",
          "midi": 77,
          "time": 35.555567999999994,
          "velocity": 0.5905511811023622,
          "duration": 1.0987658166666634
        },
        {
          "name": "C6",
          "midi": 84,
          "time": 36.666679499999994,
          "velocity": 0.5905511811023622,
          "duration": 0.037037050000002125
        },
        {
          "name": "C#6",
          "midi": 85,
          "time": 36.709889391666664,
          "velocity": 0.5905511811023622,
          "duration": 0.037037050000002125
        },
        {
          "name": "D6",
          "midi": 86,
          "time": 36.759272125,
          "velocity": 0.5905511811023622,
          "duration": 0.26543219166666887
        },
        {
          "name": "C6",
          "midi": 84,
          "time": 37.03705000000001,
          "velocity": 0.5905511811023622,
          "duration": 0.3580248166666635
        },
        {
          "name": "A#5",
          "midi": 82,
          "time": 37.40742050000001,
          "velocity": 0.5905511811023622,
          "duration": 0.3580248166666635
        },
        {
          "name": "A5",
          "midi": 81,
          "time": 37.77779100000001,
          "velocity": 0.5905511811023622,
          "duration": 0.543210066666667
        },
        {
          "name": "G5",
          "midi": 79,
          "time": 38.33334675000001,
          "velocity": 0.5905511811023622,
          "duration": 0.1728395666666671
        },
        {
          "name": "F5",
          "midi": 77,
          "time": 38.518532000000015,
          "velocity": 0.5905511811023622,
          "duration": 0.7283953166666635
        },
        {
          "name": "A5",
          "midi": 81,
          "time": 39.259273000000015,
          "velocity": 0.5905511811023622,
          "duration": 0.3580248166666635
        },
        {
          "name": "G5",
          "midi": 79,
          "time": 39.629643500000014,
          "velocity": 0.5905511811023622,
          "duration": 0.3580248166666635
        },
        {
          "name": "G5",
          "midi": 79,
          "time": 40.000014000000014,
          "velocity": 0.5905511811023622,
          "duration": 0.3580248166666635
        },
        {
          "name": "F5",
          "midi": 77,
          "time": 40.370384500000014,
          "velocity": 0.5905511811023622,
          "duration": 0.3580248166666635
        },
        {
          "name": "F5",
          "midi": 77,
          "time": 40.740755000000014,
          "velocity": 0.5905511811023622,
          "duration": 0.543210066666667
        },
        {
          "name": "C5",
          "midi": 72,
          "time": 41.29631075000002,
          "velocity": 0.5905511811023622,
          "duration": 0.1728395666666671
        },
        {
          "name": "F5",
          "midi": 77,
          "time": 41.48149600000002,
          "velocity": 0.5905511811023622,
          "duration": 0.7283953166666635
        },
        {
          "name": "E5",
          "midi": 76,
          "time": 42.22223700000002,
          "velocity": 0.5905511811023622,
          "duration": 0.3580248166666635
        },
        {
          "name": "F5",
          "midi": 77,
          "time": 42.59260750000002,
          "velocity": 0.5905511811023622,
          "duration": 0.3580248166666635
        },
        {
          "name": "G5",
          "midi": 79,
          "time": 42.96297800000002,
          "velocity": 0.5905511811023622,
          "duration": 0.7283953166666635
        },
        {
          "name": "F5",
          "midi": 77,
          "time": 43.70371900000002,
          "velocity": 0.5905511811023622,
          "duration": 0.3580248166666635
        },
        {
          "name": "G5",
          "midi": 79,
          "time": 44.07408950000002,
          "velocity": 0.5905511811023622,
          "duration": 0.3580248166666635
        },
        {
          "name": "A5",
          "midi": 81,
          "time": 44.44446000000002,
          "velocity": 0.5905511811023622,
          "duration": 0.7283953166666635
        },
        {
          "name": "C6",
          "midi": 84,
          "time": 45.18520100000002,
          "velocity": 0.5905511811023622,
          "duration": 0.3580248166666635
        },
        {
          "name": "D6",
          "midi": 86,
          "time": 45.55557150000002,
          "velocity": 0.5905511811023622,
          "duration": 0.3580248166666635
        },
        {
          "name": "E6",
          "midi": 88,
          "time": 45.92594200000002,
          "velocity": 0.5905511811023622,
          "duration": 0.7283953166666635
        },
        {
          "name": "F6",
          "midi": 89,
          "time": 46.66668300000002,
          "velocity": 0.5905511811023622,
          "duration": 0.3580248166666635
        },
        {
          "name": "D6",
          "midi": 86,
          "time": 47.03705350000002,
          "velocity": 0.5905511811023622,
          "duration": 0.3580248166666635
        },
        {
          "name": "C6",
          "midi": 84,
          "time": 47.40742400000002,
          "velocity": 0.5905511811023622,
          "duration": 0.3580248166666635
        },
        {
          "name": "F5",
          "midi": 77,
          "time": 47.77779450000002,
          "velocity": 0.5905511811023622,
          "duration": 0.3580248166666635
        },
        {
          "name": "D6",
          "midi": 86,
          "time": 48.14816500000002,
          "velocity": 0.5905511811023622,
          "duration": 0.3580248166666635
        },
        {
          "name": "C6",
          "midi": 84,
          "time": 48.51853550000002,
          "velocity": 0.5905511811023622,
          "duration": 0.3580248166666635
        },
        {
          "name": "F5",
          "midi": 77,
          "time": 48.88890600000002,
          "velocity": 0.5905511811023622,
          "duration": 0.3580248166666635
        },
        {
          "name": "D5",
          "midi": 74,
          "time": 49.25927650000002,
          "velocity": 0.5905511811023622,
          "duration": 0.3580248166666635
        },
        {
          "name": "F5",
          "midi": 77,
          "time": 49.62964700000002,
          "velocity": 0.5905511811023622,
          "duration": 0.3580248166666635
        },
        {
          "name": "E5",
          "midi": 76,
          "time": 50.00001750000002,
          "velocity": 0.5905511811023622,
          "duration": 0.3580248166666635
        },
        {
          "name": "F5",
          "midi": 77,
          "time": 50.37038800000002,
          "velocity": 0.5905511811023622,
          "duration": 1.0987658166666634
        },
        {
          "name": "D5",
          "midi": 74,
          "time": 51.48149950000002,
          "velocity": 0.5905511811023622,
          "duration": 0.7283953166666635
        },
        {
          "name": "C6",
          "midi": 84,
          "time": 52.22224050000002,
          "velocity": 0.5905511811023622,
          "duration": 0.3580248166666635
        },
        {
          "name": "F5",
          "midi": 77,
          "time": 52.59261100000002,
          "velocity": 0.5905511811023622,
          "duration": 0.11111114999999927
        },
        {
          "name": "G5",
          "midi": 79,
          "time": 52.716067833333355,
          "velocity": 0.5905511811023622,
          "duration": 0.11111114999999927
        },
        {
          "name": "F5",
          "midi": 77,
          "time": 52.83952466666669,
          "velocity": 0.5905511811023622,
          "duration": 0.11111114999999927
        },
        {
          "name": "E5",
          "midi": 76,
          "time": 52.962981500000026,
          "velocity": 0.5905511811023622,
          "duration": 0.1728395666666671
        },
        {
          "name": "F5",
          "midi": 77,
          "time": 53.14816675000003,
          "velocity": 0.5905511811023622,
          "duration": 0.1728395666666671
        },
        {
          "name": "D#6",
          "midi": 87,
          "time": 53.33335200000003,
          "velocity": 0.5905511811023622,
          "duration": 2.3950625666666667
        },
        {
          "name": "D6",
          "midi": 86,
          "time": 55.74076025000004,
          "velocity": 0.5905511811023622,
          "duration": 0.1728395666666671
        },
        {
          "name": "C6",
          "midi": 84,
          "time": 55.92594550000004,
          "velocity": 0.5905511811023622,
          "duration": 0.1728395666666671
        },
        {
          "name": "A#5",
          "midi": 82,
          "time": 56.111130750000044,
          "velocity": 0.5905511811023622,
          "duration": 0.1728395666666671
        },
        {
          "name": "C6",
          "midi": 84,
          "time": 56.29631600000005,
          "velocity": 0.5905511811023622,
          "duration": 1.4691363166666633
        },
        {
          "name": "F5",
          "midi": 77,
          "time": 58.51853900000005,
          "velocity": 0.5905511811023622,
          "duration": 0.11111114999999927
        },
        {
          "name": "G5",
          "midi": 79,
          "time": 58.64199583333338,
          "velocity": 0.5905511811023622,
          "duration": 0.11111114999999927
        },
        {
          "name": "F5",
          "midi": 77,
          "time": 58.76545266666672,
          "velocity": 0.5905511811023622,
          "duration": 0.11111114999999927
        },
        {
          "name": "E5",
          "midi": 76,
          "time": 58.888909500000054,
          "velocity": 0.5905511811023622,
          "duration": 0.1728395666666671
        },
        {
          "name": "F5",
          "midi": 77,
          "time": 59.07409475000006,
          "velocity": 0.5905511811023622,
          "duration": 0.1728395666666671
        },
        {
          "name": "D#6",
          "midi": 87,
          "time": 59.25928000000006,
          "velocity": 0.5905511811023622,
          "duration": 1.0987658166666634
        },
        {
          "name": "F6",
          "midi": 89,
          "time": 60.37039150000006,
          "velocity": 0.5905511811023622,
          "duration": 0.3580248166666635
        },
        {
          "name": "D#6",
          "midi": 87,
          "time": 60.74076200000006,
          "velocity": 0.5905511811023622,
          "duration": 0.3580248166666635
        },
        {
          "name": "D6",
          "midi": 86,
          "time": 61.11113250000006,
          "velocity": 0.5905511811023622,
          "duration": 0.3580248166666635
        },
        {
          "name": "C6",
          "midi": 84,
          "time": 61.48150300000006,
          "velocity": 0.5905511811023622,
          "duration": 0.3580248166666635
        },
        {
          "name": "A#5",
          "midi": 82,
          "time": 61.85187350000006,
          "velocity": 0.5905511811023622,
          "duration": 0.3580248166666635
        },
        {
          "name": "C6",
          "midi": 84,
          "time": 62.22224400000006,
          "velocity": 0.5905511811023622,
          "duration": 2.5802478166666702
        },
        {
          "name": "C#6",
          "midi": 85,
          "time": 64.81483750000007,
          "velocity": 0.5905511811023622,
          "duration": 0.35802481666667063
        },
        {
          "name": "C#6",
          "midi": 85,
          "time": 65.18520800000007,
          "velocity": 0.5905511811023622,
          "duration": 1.8395068166666704
        },
        {
          "name": "C6",
          "midi": 84,
          "time": 67.03706050000008,
          "velocity": 0.5905511811023622,
          "duration": 0.35802481666667063
        },
        {
          "name": "A#5",
          "midi": 82,
          "time": 67.40743100000009,
          "velocity": 0.5905511811023622,
          "duration": 0.35802481666667063
        },
        {
          "name": "G#5",
          "midi": 80,
          "time": 67.7778015000001,
          "velocity": 0.5905511811023622,
          "duration": 0.35802481666667063
        },
        {
          "name": "A#5",
          "midi": 82,
          "time": 68.1481720000001,
          "velocity": 0.5905511811023622,
          "duration": 2.209877316666663
        },
        {
          "name": "G#5",
          "midi": 80,
          "time": 70.3703950000001,
          "velocity": 0.5905511811023622,
          "duration": 0.23456798333333495
        },
        {
          "name": "A#5",
          "midi": 82,
          "time": 70.61730866666677,
          "velocity": 0.5905511811023622,
          "duration": 0.23456798333333495
        },
        {
          "name": "G#5",
          "midi": 80,
          "time": 70.86422233333344,
          "velocity": 0.5905511811023622,
          "duration": 0.23456798333333495
        },
        {
          "name": "G5",
          "midi": 79,
          "time": 71.11113600000012,
          "velocity": 0.5905511811023622,
          "duration": 0.35802481666667063
        },
        {
          "name": "G5",
          "midi": 79,
          "time": 71.48150650000012,
          "velocity": 0.5905511811023622,
          "duration": 0.35802481666667063
        },
        {
          "name": "G5",
          "midi": 79,
          "time": 71.85187700000013,
          "velocity": 0.5905511811023622,
          "duration": 0.35802481666667063
        },
        {
          "name": "G5",
          "midi": 79,
          "time": 72.22224750000014,
          "velocity": 0.5905511811023622,
          "duration": 0.35802481666667063
        },
        {
          "name": "G5",
          "midi": 79,
          "time": 72.59261800000014,
          "velocity": 0.5905511811023622,
          "duration": 0.7283953166666635
        },
        {
          "name": "G5",
          "midi": 79,
          "time": 73.33335900000014,
          "velocity": 0.5905511811023622,
          "duration": 0.35802481666667063
        },
        {
          "name": "G5",
          "midi": 79,
          "time": 73.70372950000015,
          "velocity": 0.5905511811023622,
          "duration": 0.35802481666667063
        },
        {
          "name": "G5",
          "midi": 79,
          "time": 74.07410000000016,
          "velocity": 0.5905511811023622,
          "duration": 1.4691363166666633
        },
        {
          "name": "G#5",
          "midi": 80,
          "time": 75.55558200000016,
          "velocity": 0.5905511811023622,
          "duration": 1.0987658166666705
        },
        {
          "name": "A5",
          "midi": 81,
          "time": 76.66669350000016,
          "velocity": 0.5905511811023622,
          "duration": 0.35802481666667063
        },
        {
          "name": "F5",
          "midi": 77,
          "time": 77.03706400000017,
          "velocity": 0.5905511811023622,
          "duration": 1.0987658166666705
        },
        {
          "name": "F6",
          "midi": 89,
          "time": 78.14817550000018,
          "velocity": 0.5905511811023622,
          "duration": 0.35802481666667063
        },
        {
          "name": "E6",
          "midi": 88,
          "time": 78.51854600000019,
          "velocity": 0.5905511811023622,
          "duration": 0.35802481666667063
        },
        {
          "name": "D6",
          "midi": 86,
          "time": 78.88891650000019,
          "velocity": 0.5905511811023622,
          "duration": 0.35802481666667063
        },
        {
          "name": "C6",
          "midi": 84,
          "time": 79.2592870000002,
          "velocity": 0.5905511811023622,
          "duration": 0.35802481666667063
        },
        {
          "name": "A#5",
          "midi": 82,
          "time": 79.6296575000002,
          "velocity": 0.5905511811023622,
          "duration": 0.35802481666667063
        },
        {
          "name": "A5",
          "midi": 81,
          "time": 80.00002800000021,
          "velocity": 0.5905511811023622,
          "duration": 0.35802481666667063
        },
        {
          "name": "A5",
          "midi": 81,
          "time": 80.37039850000022,
          "velocity": 0.5905511811023622,
          "duration": 0.35802481666667063
        },
        {
          "name": "A5",
          "midi": 81,
          "time": 80.74076900000023,
          "velocity": 0.5905511811023622,
          "duration": 1.4691363166666633
        },
        {
          "name": "A5",
          "midi": 81,
          "time": 82.22225100000023,
          "velocity": 0.5905511811023622,
          "duration": 0.35802481666667063
        },
        {
          "name": "C5",
          "midi": 72,
          "time": 82.59262150000023,
          "velocity": 0.5905511811023622,
          "duration": 0.35802481666667063
        },
        {
          "name": "F5",
          "midi": 77,
          "time": 82.96299200000024,
          "velocity": 0.5905511811023622,
          "duration": 1.0987658166666705
        },
        {
          "name": "C6",
          "midi": 84,
          "time": 84.07410350000025,
          "velocity": 0.5905511811023622,
          "duration": 0.03703704999999502
        },
        {
          "name": "C#6",
          "midi": 85,
          "time": 84.11731339166691,
          "velocity": 0.5905511811023622,
          "duration": 0.03703704999999502
        },
        {
          "name": "D6",
          "midi": 86,
          "time": 84.16669612500024,
          "velocity": 0.5905511811023622,
          "duration": 0.26543219166666177
        },
        {
          "name": "C6",
          "midi": 84,
          "time": 84.44447400000024,
          "velocity": 0.5905511811023622,
          "duration": 0.35802481666667063
        },
        {
          "name": "A#5",
          "midi": 82,
          "time": 84.81484450000025,
          "velocity": 0.5905511811023622,
          "duration": 0.35802481666667063
        },
        {
          "name": "A5",
          "midi": 81,
          "time": 85.18521500000026,
          "velocity": 0.5905511811023622,
          "duration": 0.4814816500000063
        },
        {
          "name": "A5",
          "midi": 81,
          "time": 85.6790423333336,
          "velocity": 0.5905511811023622,
          "duration": 0.11111114999999927
        },
        {
          "name": "G5",
          "midi": 79,
          "time": 85.80249916666693,
          "velocity": 0.5905511811023622,
          "duration": 0.11111114999999927
        },
        {
          "name": "G5",
          "midi": 79,
          "time": 85.92595600000027,
          "velocity": 0.5905511811023622,
          "duration": 0.35802481666667063
        },
        {
          "name": "F5",
          "midi": 77,
          "time": 86.29632650000028,
          "velocity": 0.5905511811023622,
          "duration": 0.35802481666667063
        },
        {
          "name": "F5",
          "midi": 77,
          "time": 86.66669700000028,
          "velocity": 0.5905511811023622,
          "duration": 0.5432100666666599
        },
        {
          "name": "G5",
          "midi": 79,
          "time": 87.22225275000028,
          "velocity": 0.5905511811023622,
          "duration": 0.1728395666666671
        },
        {
          "name": "A5",
          "midi": 81,
          "time": 87.40743800000028,
          "velocity": 0.5905511811023622,
          "duration": 0.23456798333333495
        },
        {
          "name": "F5",
          "midi": 77,
          "time": 87.65435166666695,
          "velocity": 0.5905511811023622,
          "duration": 0.23456798333333495
        },
        {
          "name": "G5",
          "midi": 79,
          "time": 87.90126533333363,
          "velocity": 0.5905511811023622,
          "duration": 0.23456798333333495
        },
        {
          "name": "F5",
          "midi": 77,
          "time": 88.1481790000003,
          "velocity": 0.5905511811023622,
          "duration": 0.5432100666666599
        },
        {
          "name": "C5",
          "midi": 72,
          "time": 88.7037347500003,
          "velocity": 0.5905511811023622,
          "duration": 0.1728395666666671
        },
        {
          "name": "F5",
          "midi": 77,
          "time": 88.8889200000003,
          "velocity": 0.5905511811023622,
          "duration": 0.7283953166666635
        },
        {
          "name": "E5",
          "midi": 76,
          "time": 89.6296610000003,
          "velocity": 0.5905511811023622,
          "duration": 0.35802481666667063
        },
        {
          "name": "F5",
          "midi": 77,
          "time": 90.0000315000003,
          "velocity": 0.5905511811023622,
          "duration": 0.35802481666667063
        },
        {
          "name": "G5",
          "midi": 79,
          "time": 90.37040200000031,
          "velocity": 0.5905511811023622,
          "duration": 0.7283953166666635
        },
        {
          "name": "F5",
          "midi": 77,
          "time": 91.11114300000031,
          "velocity": 0.5905511811023622,
          "duration": 0.35802481666667063
        },
        {
          "name": "G5",
          "midi": 79,
          "time": 91.48151350000032,
          "velocity": 0.5905511811023622,
          "duration": 0.35802481666667063
        },
        {
          "name": "A5",
          "midi": 81,
          "time": 91.85188400000033,
          "velocity": 0.5905511811023622,
          "duration": 0.7283953166666635
        },
        {
          "name": "C6",
          "midi": 84,
          "time": 92.59262500000033,
          "velocity": 0.5905511811023622,
          "duration": 0.35802481666667063
        },
        {
          "name": "D6",
          "midi": 86,
          "time": 92.96299550000033,
          "velocity": 0.5905511811023622,
          "duration": 0.35802481666667063
        },
        {
          "name": "E6",
          "midi": 88,
          "time": 93.33336600000034,
          "velocity": 0.5905511811023622,
          "duration": 0.7283953166666635
        },
        {
          "name": "F6",
          "midi": 89,
          "time": 94.07410700000034,
          "velocity": 0.5905511811023622,
          "duration": 0.5432100666666599
        },
        {
          "name": "D6",
          "midi": 86,
          "time": 94.62966275000034,
          "velocity": 0.5905511811023622,
          "duration": 0.1728395666666671
        },
        {
          "name": "C6",
          "midi": 84,
          "time": 94.81484800000034,
          "velocity": 0.5905511811023622,
          "duration": 0.7283953166666635
        },
        {
          "name": "F5",
          "midi": 77,
          "time": 95.55558900000034,
          "velocity": 0.5905511811023622,
          "duration": 1.4691363166666633
        },
        {
          "name": "G5",
          "midi": 79,
          "time": 97.22225625000034,
          "velocity": 0.5905511811023622,
          "duration": 0.5432100666666599
        },
        {
          "name": "F5",
          "midi": 77,
          "time": 97.77781200000034,
          "velocity": 0.5905511811023622,
          "duration": 0.7283953166666635
        },
        {
          "name": "C6",
          "midi": 84,
          "time": 98.51855300000034,
          "velocity": 0.5905511811023622,
          "duration": 0.7283953166666635
        },
        {
          "name": "C7",
          "midi": 96,
          "time": 99.25929400000034,
          "velocity": 0.5905511811023622,
          "duration": 0.7283953166666635
        },
        {
          "name": "F5",
          "midi": 77,
          "time": 100.00003500000034,
          "velocity": 0.5905511811023622,
          "duration": 0.1728395666666671
        },
        {
          "name": "G5",
          "midi": 79,
          "time": 100.18522025000034,
          "velocity": 0.5905511811023622,
          "duration": 0.08024694166667246
        },
        {
          "name": "F5",
          "midi": 77,
          "time": 100.27781287500035,
          "velocity": 0.5905511811023622,
          "duration": 0.08024694166667246
        },
        {
          "name": "E5",
          "midi": 76,
          "time": 100.37040550000036,
          "velocity": 0.5905511811023622,
          "duration": 0.1728395666666671
        },
        {
          "name": "F5",
          "midi": 77,
          "time": 100.55559075000036,
          "velocity": 0.5905511811023622,
          "duration": 0.1728395666666671
        },
        {
          "name": "D#6",
          "midi": 87,
          "time": 100.74077600000037,
          "velocity": 0.5905511811023622,
          "duration": 0.5432100666666599
        },
        {
          "name": "F6",
          "midi": 89,
          "time": 101.29633175000036,
          "velocity": 0.5905511811023622,
          "duration": 0.1728395666666671
        },
        {
          "name": "D6",
          "midi": 86,
          "time": 101.48151700000037,
          "velocity": 0.5905511811023622,
          "duration": 0.1728395666666671
        },
        {
          "name": "D#6",
          "midi": 87,
          "time": 101.66670225000037,
          "velocity": 0.5905511811023622,
          "duration": 0.1728395666666671
        },
        {
          "name": "C6",
          "midi": 84,
          "time": 101.85188750000037,
          "velocity": 0.5905511811023622,
          "duration": 0.1728395666666671
        },
        {
          "name": "C#6",
          "midi": 85,
          "time": 102.03707275000038,
          "velocity": 0.5905511811023622,
          "duration": 0.03703704999999502
        },
        {
          "name": "D6",
          "midi": 86,
          "time": 102.08028264166704,
          "velocity": 0.5905511811023622,
          "duration": 0.12962967500000389
        },
        {
          "name": "A5",
          "midi": 81,
          "time": 102.22225800000038,
          "velocity": 0.5905511811023622,
          "duration": 0.11111114999999927
        },
        {
          "name": "C6",
          "midi": 84,
          "time": 102.34571483333372,
          "velocity": 0.5905511811023622,
          "duration": 0.11111114999999927
        },
        {
          "name": "F5",
          "midi": 77,
          "time": 102.46917166666705,
          "velocity": 0.5905511811023622,
          "duration": 0.23456798333333495
        },
        {
          "name": "F5",
          "midi": 77,
          "time": 102.71608533333372,
          "velocity": 0.5905511811023622,
          "duration": 0.9444447749999938
        },
        {
          "name": "C5",
          "midi": 72,
          "time": 103.70374000000038,
          "velocity": 0.5905511811023622,
          "duration": 1.0987658166666705
        },
        {
          "name": "A#5",
          "midi": 82,
          "time": 104.81485150000039,
          "velocity": 0.5905511811023622,
          "duration": 0.1728395666666671
        },
        {
          "name": "B5",
          "midi": 83,
          "time": 105.00003675000039,
          "velocity": 0.5905511811023622,
          "duration": 0.1728395666666671
        },
        {
          "name": "D#6",
          "midi": 87,
          "time": 105.1852220000004,
          "velocity": 0.5905511811023622,
          "duration": 0.11111114999999927
        },
        {
          "name": "F#6",
          "midi": 90,
          "time": 105.30867883333373,
          "velocity": 0.5905511811023622,
          "duration": 0.11111114999999927
        },
        {
          "name": "A#6",
          "midi": 94,
          "time": 105.43213566666707,
          "velocity": 0.5905511811023622,
          "duration": 0.11111114999999927
        },
        {
          "name": "G#6",
          "midi": 92,
          "time": 105.5555925000004,
          "velocity": 0.5905511811023622,
          "duration": 0.11111114999999927
        },
        {
          "name": "D#6",
          "midi": 87,
          "time": 105.67904933333374,
          "velocity": 0.5905511811023622,
          "duration": 0.11111114999999927
        },
        {
          "name": "B5",
          "midi": 83,
          "time": 105.80250616666707,
          "velocity": 0.5905511811023622,
          "duration": 0.11111114999999927
        },
        {
          "name": "A#5",
          "midi": 82,
          "time": 105.92596300000041,
          "velocity": 0.5905511811023622,
          "duration": 0.11111114999999927
        },
        {
          "name": "G#5",
          "midi": 80,
          "time": 106.04941983333374,
          "velocity": 0.5905511811023622,
          "duration": 0.11111114999999927
        },
        {
          "name": "G5",
          "midi": 79,
          "time": 106.17287666666708,
          "velocity": 0.5905511811023622,
          "duration": 0.35802481666667063
        },
        {
          "name": "F5",
          "midi": 77,
          "time": 106.54324716666709,
          "velocity": 0.5905511811023622,
          "duration": 0.04938273333333143
        },
        {
          "name": "G5",
          "midi": 79,
          "time": 106.60497558333375,
          "velocity": 0.5905511811023622,
          "duration": 0.04938273333333143
        },
        {
          "name": "F#5",
          "midi": 78,
          "time": 106.66670400000042,
          "velocity": 0.5905511811023622,
          "duration": 0.018518525000004615
        },
        {
          "name": "G5",
          "midi": 79,
          "time": 106.69756820833376,
          "velocity": 0.5905511811023622,
          "duration": 0.08024694166667246
        },
        {
          "name": "F5",
          "midi": 77,
          "time": 106.79016083333377,
          "velocity": 0.5905511811023622,
          "duration": 0.11111114999999927
        },
        {
          "name": "D#5",
          "midi": 75,
          "time": 106.91361766666711,
          "velocity": 0.5905511811023622,
          "duration": 1.2222226500000062
        },
        {
          "name": "D5",
          "midi": 74,
          "time": 108.14818600000045,
          "velocity": 0.5905511811023622,
          "duration": 0.7283953166666635
        },
        {
          "name": "C#5",
          "midi": 73,
          "time": 108.88892700000045,
          "velocity": 0.5905511811023622,
          "duration": 0.5432100666666599
        },
        {
          "name": "D5",
          "midi": 74,
          "time": 109.44448275000045,
          "velocity": 0.5905511811023622,
          "duration": 0.08024694166667246
        },
        {
          "name": "F5",
          "midi": 77,
          "time": 109.53707537500046,
          "velocity": 0.5905511811023622,
          "duration": 0.08024694166667246
        },
        {
          "name": "A5",
          "midi": 81,
          "time": 109.62966800000046,
          "velocity": 0.5905511811023622,
          "duration": 0.11111114999999927
        },
        {
          "name": "A5",
          "midi": 81,
          "time": 109.7531248333338,
          "velocity": 0.5905511811023622,
          "duration": 0.11111114999999927
        },
        {
          "name": "F5",
          "midi": 77,
          "time": 109.87658166666714,
          "velocity": 0.5905511811023622,
          "duration": 0.11111114999999927
        },
        {
          "name": "F5",
          "midi": 77,
          "time": 110.00003850000047,
          "velocity": 0.5905511811023622,
          "duration": 0.11111114999999927
        },
        {
          "name": "D5",
          "midi": 74,
          "time": 110.1234953333338,
          "velocity": 0.5905511811023622,
          "duration": 0.11111114999999927
        },
        {
          "name": "D5",
          "midi": 74,
          "time": 110.24695216666714,
          "velocity": 0.5905511811023622,
          "duration": 0.11111114999999927
        },
        {
          "name": "A4",
          "midi": 69,
          "time": 110.37040900000048,
          "velocity": 0.5905511811023622,
          "duration": 0.1728395666666671
        },
        {
          "name": "A4",
          "midi": 69,
          "time": 110.55559425000048,
          "velocity": 0.5905511811023622,
          "duration": 0.5432100666666599
        },
        {
          "name": "F5",
          "midi": 77,
          "time": 111.11115000000048,
          "velocity": 0.5905511811023622,
          "duration": 0.7283953166666635
        },
        {
          "name": "C5",
          "midi": 72,
          "time": 111.97534783333381,
          "velocity": 0.5905511811023622,
          "duration": 0.04938273333333143
        },
        {
          "name": "C#5",
          "midi": 73,
          "time": 112.03707625000048,
          "velocity": 0.5905511811023622,
          "duration": 0.04938273333333143
        },
        {
          "name": "C5",
          "midi": 72,
          "time": 112.09880466666715,
          "velocity": 0.5905511811023622,
          "duration": 0.04938273333333143
        },
        {
          "name": "A4",
          "midi": 69,
          "time": 112.16053308333382,
          "velocity": 0.5905511811023622,
          "duration": 0.04938273333333143
        },
        {
          "name": "A#4",
          "midi": 70,
          "time": 112.22226150000049,
          "velocity": 0.5905511811023622,
          "duration": 0.04938273333333143
        },
        {
          "name": "C5",
          "midi": 72,
          "time": 112.28398991666715,
          "velocity": 0.5905511811023622,
          "duration": 0.04938273333333143
        },
        {
          "name": "C#5",
          "midi": 73,
          "time": 112.34571833333382,
          "velocity": 0.5905511811023622,
          "duration": 0.04938273333333143
        },
        {
          "name": "D#5",
          "midi": 75,
          "time": 112.40744675000049,
          "velocity": 0.5905511811023622,
          "duration": 0.04938273333333143
        },
        {
          "name": "F5",
          "midi": 77,
          "time": 112.46917516666716,
          "velocity": 0.5905511811023622,
          "duration": 0.04938273333333143
        },
        {
          "name": "G5",
          "midi": 79,
          "time": 112.53090358333382,
          "velocity": 0.5905511811023622,
          "duration": 0.04938273333333143
        },
        {
          "name": "G#5",
          "midi": 80,
          "time": 112.59263200000049,
          "velocity": 0.5905511811023622,
          "duration": 0.08024694166667246
        },
        {
          "name": "A#5",
          "midi": 82,
          "time": 112.6852246250005,
          "velocity": 0.5905511811023622,
          "duration": 0.08024694166667246
        },
        {
          "name": "F#5",
          "midi": 78,
          "time": 112.77781725000051,
          "velocity": 0.5905511811023622,
          "duration": 0.08024694166667246
        },
        {
          "name": "G5",
          "midi": 79,
          "time": 112.87040987500052,
          "velocity": 0.5905511811023622,
          "duration": 0.08024694166667246
        },
        {
          "name": "A#5",
          "midi": 82,
          "time": 112.96300250000053,
          "velocity": 0.5905511811023622,
          "duration": 0.04938273333333143
        },
        {
          "name": "D#6",
          "midi": 87,
          "time": 113.0247309166672,
          "velocity": 0.5905511811023622,
          "duration": 0.04938273333333143
        },
        {
          "name": "G#6",
          "midi": 92,
          "time": 113.08645933333386,
          "velocity": 0.5905511811023622,
          "duration": 0.04938273333333143
        },
        {
          "name": "G6",
          "midi": 91,
          "time": 113.14818775000053,
          "velocity": 0.5905511811023622,
          "duration": 0.08024694166667246
        },
        {
          "name": "D#6",
          "midi": 87,
          "time": 113.24078037500054,
          "velocity": 0.5905511811023622,
          "duration": 0.08024694166667246
        },
        {
          "name": "A#5",
          "midi": 82,
          "time": 113.33337300000055,
          "velocity": 0.5905511811023622,
          "duration": 0.11111114999999927
        },
        {
          "name": "G5",
          "midi": 79,
          "time": 113.45682983333388,
          "velocity": 0.5905511811023622,
          "duration": 0.11111114999999927
        },
        {
          "name": "D#5",
          "midi": 75,
          "time": 113.58028666666722,
          "velocity": 0.5905511811023622,
          "duration": 0.11111114999999927
        },
        {
          "name": "C#5",
          "midi": 73,
          "time": 113.70374350000056,
          "velocity": 0.5905511811023622,
          "duration": 0.1728395666666671
        },
        {
          "name": "F5",
          "midi": 77,
          "time": 113.88892875000056,
          "velocity": 0.5905511811023622,
          "duration": 0.04938273333333143
        },
        {
          "name": "G#5",
          "midi": 80,
          "time": 113.95065716666723,
          "velocity": 0.5905511811023622,
          "duration": 0.04938273333333143
        },
        {
          "name": "C6",
          "midi": 84,
          "time": 114.0123855833339,
          "velocity": 0.5905511811023622,
          "duration": 0.04938273333333143
        },
        {
          "name": "A#5",
          "midi": 82,
          "time": 114.07411400000056,
          "velocity": 0.5905511811023622,
          "duration": 0.35802481666667063
        },
        {
          "name": "F#5",
          "midi": 78,
          "time": 114.44448450000057,
          "velocity": 0.5905511811023622,
          "duration": 0.03703704999999502
        },
        {
          "name": "G5",
          "midi": 79,
          "time": 114.48769439166723,
          "velocity": 0.5905511811023622,
          "duration": 0.40740755000000206
        },
        {
          "name": "C5",
          "midi": 72,
          "time": 114.90744762500057,
          "velocity": 0.5905511811023622,
          "duration": 0.08024694166667246
        },
        {
          "name": "D#5",
          "midi": 75,
          "time": 115.00004025000058,
          "velocity": 0.5905511811023622,
          "duration": 0.04938273333333143
        },
        {
          "name": "F5",
          "midi": 77,
          "time": 115.06176866666725,
          "velocity": 0.5905511811023622,
          "duration": 0.04938273333333143
        },
        {
          "name": "G5",
          "midi": 79,
          "time": 115.12349708333392,
          "velocity": 0.5905511811023622,
          "duration": 0.04938273333333143
        },
        {
          "name": "C5",
          "midi": 72,
          "time": 115.18522550000058,
          "velocity": 0.5905511811023622,
          "duration": 0.08024694166667246
        },
        {
          "name": "F5",
          "midi": 77,
          "time": 115.27781812500059,
          "velocity": 0.5905511811023622,
          "duration": 0.08024694166667246
        },
        {
          "name": "C5",
          "midi": 72,
          "time": 115.3704107500006,
          "velocity": 0.5905511811023622,
          "duration": 0.08024694166667246
        },
        {
          "name": "F5",
          "midi": 77,
          "time": 115.46300337500061,
          "velocity": 0.5905511811023622,
          "duration": 0.08024694166667246
        },
        {
          "name": "D#5",
          "midi": 75,
          "time": 115.55559600000062,
          "velocity": 0.5905511811023622,
          "duration": 0.1728395666666671
        },
        {
          "name": "D#5",
          "midi": 75,
          "time": 115.74078125000062,
          "velocity": 0.5905511811023622,
          "duration": 0.7901237333333313
        },
        {
          "name": "F5",
          "midi": 77,
          "time": 116.54325066666729,
          "velocity": 0.5905511811023622,
          "duration": 0.23456798333333495
        },
        {
          "name": "D#5",
          "midi": 75,
          "time": 116.79016433333396,
          "velocity": 0.5905511811023622,
          "duration": 0.23456798333333495
        },
        {
          "name": "G5",
          "midi": 79,
          "time": 117.03707800000063,
          "velocity": 0.5905511811023622,
          "duration": 0.5432100666666599
        },
        {
          "name": "D#5",
          "midi": 75,
          "time": 117.59263375000063,
          "velocity": 0.5905511811023622,
          "duration": 0.1728395666666671
        },
        {
          "name": "F5",
          "midi": 77,
          "time": 117.77781900000063,
          "velocity": 0.5905511811023622,
          "duration": 0.1728395666666671
        },
        {
          "name": "G5",
          "midi": 79,
          "time": 117.96300425000064,
          "velocity": 0.5905511811023622,
          "duration": 0.1728395666666671
        },
        {
          "name": "G#5",
          "midi": 80,
          "time": 118.14818950000064,
          "velocity": 0.5905511811023622,
          "duration": 0.35802481666667063
        },
        {
          "name": "G5",
          "midi": 79,
          "time": 118.51856000000065,
          "velocity": 0.5905511811023622,
          "duration": 0.5432100666666599
        },
        {
          "name": "A#5",
          "midi": 82,
          "time": 119.07411575000064,
          "velocity": 0.5905511811023622,
          "duration": 0.5432100666666599
        },
        {
          "name": "G5",
          "midi": 79,
          "time": 119.62967150000064,
          "velocity": 0.5905511811023622,
          "duration": 0.35802481666667063
        },
        {
          "name": "G6",
          "midi": 91,
          "time": 120.00004200000065,
          "velocity": 0.5905511811023622,
          "duration": 0.35802481666667063
        },
        {
          "name": "G5",
          "midi": 79,
          "time": 120.37041250000065,
          "velocity": 0.5905511811023622,
          "duration": 0.35802481666667063
        },
        {
          "name": "G5",
          "midi": 79,
          "time": 120.74078300000066,
          "velocity": 0.5905511811023622,
          "duration": 0.7283953166666635
        },
        {
          "name": "G5",
          "midi": 79,
          "time": 121.48152400000066,
          "velocity": 0.5905511811023622,
          "duration": 2.950618316666663
        },
        {
          "name": "C5",
          "midi": 72,
          "time": 125.18522900000066,
          "velocity": 0.5905511811023622,
          "duration": 0.1728395666666671
        },
        {
          "name": "F5",
          "midi": 77,
          "time": 125.37041425000066,
          "velocity": 0.5905511811023622,
          "duration": 0.1728395666666671
        },
        {
          "name": "F6",
          "midi": 89,
          "time": 125.55559950000067,
          "velocity": 0.5905511811023622,
          "duration": 0.1728395666666671
        },
        {
          "name": "E6",
          "midi": 88,
          "time": 125.74078475000067,
          "velocity": 0.5905511811023622,
          "duration": 1.0987658166666705
        },
        {
          "name": "D6",
          "midi": 86,
          "time": 126.85189625000068,
          "velocity": 0.5905511811023622,
          "duration": 0.1728395666666671
        },
        {
          "name": "C6",
          "midi": 84,
          "time": 127.03708150000068,
          "velocity": 0.5905511811023622,
          "duration": 0.1728395666666671
        },
        {
          "name": "A#5",
          "midi": 82,
          "time": 127.22226675000068,
          "velocity": 0.5905511811023622,
          "duration": 0.1728395666666671
        },
        {
          "name": "A5",
          "midi": 81,
          "time": 127.40745200000069,
          "velocity": 0.5905511811023622,
          "duration": 2.2098773166666774
        },
        {
          "name": "A5",
          "midi": 81,
          "time": 129.8148602500007,
          "velocity": 0.5905511811023622,
          "duration": 0.5432100666666599
        },
        {
          "name": "G5",
          "midi": 79,
          "time": 130.3704160000007,
          "velocity": 0.5905511811023622,
          "duration": 0.5432100666666599
        },
        {
          "name": "C5",
          "midi": 72,
          "time": 130.92597175000068,
          "velocity": 0.5905511811023622,
          "duration": 0.1728395666666529
        },
        {
          "name": "F5",
          "midi": 77,
          "time": 131.11115700000067,
          "velocity": 0.5905511811023622,
          "duration": 0.23456798333333495
        },
        {
          "name": "C6",
          "midi": 84,
          "time": 131.35807066666734,
          "velocity": 0.5905511811023622,
          "duration": 0.018518524999990404
        },
        {
          "name": "C#6",
          "midi": 85,
          "time": 131.38893487500067,
          "velocity": 0.5905511811023622,
          "duration": 0.018518524999990404
        },
        {
          "name": "D6",
          "midi": 86,
          "time": 131.419799083334,
          "velocity": 0.5905511811023622,
          "duration": 0.1728395666666529
        },
        {
          "name": "C6",
          "midi": 84,
          "time": 131.604984333334,
          "velocity": 0.5905511811023622,
          "duration": 0.23456798333333495
        },
        {
          "name": "A5",
          "midi": 81,
          "time": 131.85189800000066,
          "velocity": 0.5905511811023622,
          "duration": 0.913580566666667
        },
        {
          "name": "E6",
          "midi": 88,
          "time": 132.77782425000066,
          "velocity": 0.5905511811023622,
          "duration": 0.1728395666666529
        },
        {
          "name": "D6",
          "midi": 86,
          "time": 132.96300950000065,
          "velocity": 0.5905511811023622,
          "duration": 0.08024694166667246
        },
        {
          "name": "C6",
          "midi": 84,
          "time": 133.05560212500066,
          "velocity": 0.5905511811023622,
          "duration": 0.08024694166667246
        },
        {
          "name": "A5",
          "midi": 81,
          "time": 133.14819475000067,
          "velocity": 0.5905511811023622,
          "duration": 0.08024694166667246
        },
        {
          "name": "F5",
          "midi": 77,
          "time": 133.24078737500068,
          "velocity": 0.5905511811023622,
          "duration": 0.08024694166667246
        },
        {
          "name": "G#5",
          "midi": 80,
          "time": 133.3333800000007,
          "velocity": 0.5905511811023622,
          "duration": 0.03703705000000923
        },
        {
          "name": "A5",
          "midi": 81,
          "time": 133.37658989166735,
          "velocity": 0.5905511811023622,
          "duration": 0.12962967499998967
        },
        {
          "name": "D5",
          "midi": 74,
          "time": 133.51856525000068,
          "velocity": 0.5905511811023622,
          "duration": 0.1728395666666529
        },
        {
          "name": "G5",
          "midi": 79,
          "time": 133.70375050000067,
          "velocity": 0.5905511811023622,
          "duration": 0.1728395666666529
        },
        {
          "name": "F5",
          "midi": 77,
          "time": 133.88893575000066,
          "velocity": 0.5905511811023622,
          "duration": 0.1728395666666529
        },
        {
          "name": "F5",
          "midi": 77,
          "time": 134.07412100000064,
          "velocity": 0.5905511811023622,
          "duration": 0.5432100666666599
        },
        {
          "name": "A5",
          "midi": 81,
          "time": 134.62967675000064,
          "velocity": 0.5905511811023622,
          "duration": 0.1728395666666529
        },
        {
          "name": "G5",
          "midi": 79,
          "time": 134.81486200000063,
          "velocity": 0.5905511811023622,
          "duration": 0.23456798333333495
        },
        {
          "name": "F5",
          "midi": 77,
          "time": 135.0617756666673,
          "velocity": 0.5905511811023622,
          "duration": 0.4814816500000063
        },
        {
          "name": "F5",
          "midi": 77,
          "time": 135.55560300000064,
          "velocity": 0.5905511811023622,
          "duration": 1.283951066666674
        },
        {
          "name": "C5",
          "midi": 72,
          "time": 136.85189975000065,
          "velocity": 0.5905511811023622,
          "duration": 0.1728395666666529
        },
        {
          "name": "F5",
          "midi": 77,
          "time": 137.03708500000064,
          "velocity": 0.5905511811023622,
          "duration": 0.23456798333333495
        },
        {
          "name": "E5",
          "midi": 76,
          "time": 137.28399866666732,
          "velocity": 0.5905511811023622,
          "duration": 0.23456798333333495
        },
        {
          "name": "F5",
          "midi": 77,
          "time": 137.530912333334,
          "velocity": 0.5905511811023622,
          "duration": 0.23456798333333495
        },
        {
          "name": "G5",
          "midi": 79,
          "time": 137.77782600000066,
          "velocity": 0.5905511811023622,
          "duration": 0.9753089833333206
        },
        {
          "name": "F5",
          "midi": 77,
          "time": 138.76548066666732,
          "velocity": 0.5905511811023622,
          "duration": 0.23456798333333495
        },
        {
          "name": "G5",
          "midi": 79,
          "time": 139.012394333334,
          "velocity": 0.5905511811023622,
          "duration": 0.23456798333333495
        },
        {
          "name": "A5",
          "midi": 81,
          "time": 139.25930800000066,
          "velocity": 0.5905511811023622,
          "duration": 0.4814816500000063
        },
        {
          "name": "C6",
          "midi": 84,
          "time": 139.753135333334,
          "velocity": 0.5905511811023622,
          "duration": 0.4814816500000063
        },
        {
          "name": "D6",
          "midi": 86,
          "time": 140.24696266666734,
          "velocity": 0.5905511811023622,
          "duration": 0.4814816500000063
        },
        {
          "name": "D#6",
          "midi": 87,
          "time": 140.7407900000007,
          "velocity": 0.5905511811023622,
          "duration": 0.03703705000000923
        },
        {
          "name": "E6",
          "midi": 88,
          "time": 140.78399989166735,
          "velocity": 0.5905511811023622,
          "duration": 0.9320990916666574
        },
        {
          "name": "F6",
          "midi": 89,
          "time": 141.72844466666734,
          "velocity": 0.5905511811023622,
          "duration": 0.23456798333333495
        },
        {
          "name": "C6",
          "midi": 84,
          "time": 141.97535833333401,
          "velocity": 0.5905511811023622,
          "duration": 0.018518524999990404
        },
        {
          "name": "D6",
          "midi": 86,
          "time": 142.00622254166734,
          "velocity": 0.5905511811023622,
          "duration": 0.20370377500000814
        },
        {
          "name": "C6",
          "midi": 84,
          "time": 142.2222720000007,
          "velocity": 0.5905511811023622,
          "duration": 0.1728395666666529
        },
        {
          "name": "F5",
          "midi": 77,
          "time": 142.40745725000068,
          "velocity": 0.5905511811023622,
          "duration": 1.5308647333333454
        },
        {
          "name": "A5",
          "midi": 81,
          "time": 143.95066766666736,
          "velocity": 0.5905511811023622,
          "duration": 0.4814816500000063
        },
        {
          "name": "G5",
          "midi": 79,
          "time": 144.4444950000007,
          "velocity": 0.5905511811023622,
          "duration": 0.23456798333333495
        },
        {
          "name": "D#6",
          "midi": 87,
          "time": 144.69140866666737,
          "velocity": 0.5905511811023622,
          "duration": 0.04938273333334564
        },
        {
          "name": "E6",
          "midi": 88,
          "time": 144.75313708333405,
          "velocity": 0.5905511811023622,
          "duration": 0.1728395666666529
        },
        {
          "name": "D6",
          "midi": 86,
          "time": 144.93832233333404,
          "velocity": 0.5905511811023622,
          "duration": 0.23456798333333495
        },
        {
          "name": "C6",
          "midi": 84,
          "time": 145.1852360000007,
          "velocity": 0.5905511811023622,
          "duration": 0.35802481666667063
        },
        {
          "name": "F5",
          "midi": 77,
          "time": 145.55560650000072,
          "velocity": 0.5905511811023622,
          "duration": 1.8395068166666704
        },
        {
          "name": "E6",
          "midi": 88,
          "time": 147.40745900000073,
          "velocity": 0.5905511811023622,
          "duration": 0.35802481666667063
        },
        {
          "name": "D6",
          "midi": 86,
          "time": 147.77782950000073,
          "velocity": 0.5905511811023622,
          "duration": 0.35802481666667063
        },
        {
          "name": "A5",
          "midi": 81,
          "time": 148.14820000000074,
          "velocity": 0.5905511811023622,
          "duration": 0.7283953166666777
        },
        {
          "name": "C6",
          "midi": 84,
          "time": 148.88894100000076,
          "velocity": 0.5905511811023622,
          "duration": 0.35802481666667063
        },
        {
          "name": "A#4",
          "midi": 70,
          "time": 149.25931150000076,
          "velocity": 0.5905511811023622,
          "duration": 0.35802481666667063
        },
        {
          "name": "F5",
          "midi": 77,
          "time": 149.62968200000077,
          "velocity": 0.5905511811023622,
          "duration": 0.35802481666667063
        },
        {
          "name": "G5",
          "midi": 79,
          "time": 150.00005250000078,
          "velocity": 0.5905511811023622,
          "duration": 0.35802481666667063
        },
        {
          "name": "G5",
          "midi": 79,
          "time": 150.37042300000078,
          "velocity": 0.5905511811023622,
          "duration": 0.7283953166666777
        },
        {
          "name": "F5",
          "midi": 77,
          "time": 151.1111640000008,
          "velocity": 0.5905511811023622,
          "duration": 0.35802481666667063
        },
        {
          "name": "E5",
          "midi": 76,
          "time": 151.4815345000008,
          "velocity": 0.5905511811023622,
          "duration": 0.35802481666667063
        },
        {
          "name": "F5",
          "midi": 77,
          "time": 151.8519050000008,
          "velocity": 0.5905511811023622,
          "duration": 0.35802481666667063
        },
        {
          "name": "G5",
          "midi": 79,
          "time": 152.22227550000082,
          "velocity": 0.5905511811023622,
          "duration": 0.35802481666667063
        },
        {
          "name": "A5",
          "midi": 81,
          "time": 152.59264600000083,
          "velocity": 0.5905511811023622,
          "duration": 0.35802481666667063
        },
        {
          "name": "G5",
          "midi": 79,
          "time": 152.96301650000083,
          "velocity": 0.5905511811023622,
          "duration": 0.35802481666667063
        },
        {
          "name": "F5",
          "midi": 77,
          "time": 153.33338700000084,
          "velocity": 0.5905511811023622,
          "duration": 0.35802481666667063
        },
        {
          "name": "A5",
          "midi": 81,
          "time": 153.70375750000085,
          "velocity": 0.5905511811023622,
          "duration": 0.35802481666667063
        },
        {
          "name": "G5",
          "midi": 79,
          "time": 154.07412800000085,
          "velocity": 0.5905511811023622,
          "duration": 0.35802481666667063
        },
        {
          "name": "F5",
          "midi": 77,
          "time": 154.44449850000086,
          "velocity": 0.5905511811023622,
          "duration": 0.35802481666667063
        },
        {
          "name": "F5",
          "midi": 77,
          "time": 154.81486900000087,
          "velocity": 0.5905511811023622,
          "duration": 0.35802481666667063
        },
        {
          "name": "G5",
          "midi": 79,
          "time": 155.18523950000088,
          "velocity": 0.5905511811023622,
          "duration": 0.35802481666667063
        },
        {
          "name": "A5",
          "midi": 81,
          "time": 155.55561000000088,
          "velocity": 0.5905511811023622,
          "duration": 0.35802481666667063
        },
        {
          "name": "G5",
          "midi": 79,
          "time": 155.9259805000009,
          "velocity": 0.5905511811023622,
          "duration": 0.35802481666667063
        },
        {
          "name": "F5",
          "midi": 77,
          "time": 156.2963510000009,
          "velocity": 0.5905511811023622,
          "duration": 0.35802481666667063
        },
        {
          "name": "E5",
          "midi": 76,
          "time": 156.6667215000009,
          "velocity": 0.5905511811023622,
          "duration": 0.35802481666667063
        },
        {
          "name": "F5",
          "midi": 77,
          "time": 157.0370920000009,
          "velocity": 0.5905511811023622,
          "duration": 0.35802481666667063
        },
        {
          "name": "D5",
          "midi": 74,
          "time": 157.40746250000092,
          "velocity": 0.5905511811023622,
          "duration": 0.35802481666667063
        },
        {
          "name": "D5",
          "midi": 74,
          "time": 157.77783300000092,
          "velocity": 0.5905511811023622,
          "duration": 0.35802481666667063
        },
        {
          "name": "F5",
          "midi": 77,
          "time": 158.14820350000093,
          "velocity": 0.5905511811023622,
          "duration": 0.35802481666667063
        },
        {
          "name": "F5",
          "midi": 77,
          "time": 158.51857400000094,
          "velocity": 0.5905511811023622,
          "duration": 0.35802481666667063
        },
        {
          "name": "A5",
          "midi": 81,
          "time": 158.88894450000095,
          "velocity": 0.5905511811023622,
          "duration": 0.35802481666667063
        },
        {
          "name": "G5",
          "midi": 79,
          "time": 159.25931500000095,
          "velocity": 0.5905511811023622,
          "duration": 0.35802481666667063
        },
        {
          "name": "F5",
          "midi": 77,
          "time": 159.62968550000096,
          "velocity": 0.5905511811023622,
          "duration": 0.35802481666667063
        },
        {
          "name": "G5",
          "midi": 79,
          "time": 160.27783387500097,
          "velocity": 0.5905511811023622,
          "duration": 2.580247816666656
        }
      ],
      "controlChanges": {
        "7": [
          {
            "number": 7,
            "time": 0,
            "value": 0.7874015748031497
          }
        ],
        "10": [
          {
            "number": 10,
            "time": 0,
            "value": 1
          }
        ],
        "64": [
          {
            "number": 64,
            "time": 160.00005600000097,
            "value": 1
          },
          {
            "number": 64,
            "time": 162.96302000000097,
            "value": 0
          }
        ],
        "91": [
          {
            "number": 91,
            "time": 0.740741,
            "value": 0.6299212598425197
          },
          {
            "number": 91,
            "time": 162.96302000000097,
            "value": 0
          }
        ],
        "93": [
          {
            "number": 93,
            "time": 0.740741,
            "value": 0.7874015748031497
          },
          {
            "number": 93,
            "time": 162.96302000000097,
            "value": 0
          }
        ]
      },
      "id": 8,
      "name": "Music Box",
      "instrumentNumber": 10,
      "instrument": "music box",
      "instrumentFamily": "chromatic percussion",
      "channelNumber": 7,
      "isPercussion": false
    },
    {
      "startTime": 0,
      "duration": 0,
      "length": 0,
      "notes": [],
      "controlChanges": {},
      "id": 9,
      "name": "Seq, by D.W. Barnes"
    }
  ]
}
